<?xml version="1.0" standalone="no"?>
<!DOCTYPE svg PUBLIC "-//W3C//DTD SVG 20010904//EN"
 "http://www.w3.org/TR/2001/REC-SVG-20010904/DTD/svg10.dtd">
<svg version="1.0" xmlns="http://www.w3.org/2000/svg"
 width="300.000000pt" height="300.000000pt" viewBox="0 0 300.000000 300.000000"
 preserveAspectRatio="xMidYMid meet">
<metadata>
Created by potrace 1.11, written by Peter Selinger 2001-2013
</metadata>
<g transform="translate(0.000000,300.000000) scale(0.100000,-0.100000)"
fill="#000000" stroke="none">
<path d="M90 2290 l0 -300 1425 0 1425 0 0 300 0 300 -1425 0 -1425 0 0 -300z"/>
<path d="M190 1530 l0 -290 570 0 570 0 0 290 0 290 -570 0 -570 0 0 -290z"/>
<path d="M1680 1520 l0 -290 570 0 570 0 0 290 0 290 -570 0 -570 0 0 -290z"/>
<path d="M80 760 l0 -300 1425 0 1425 0 0 300 0 300 -1425 0 -1425 0 0 -300z"/>
</g>
</svg>
