<svg xmlns="http://www.w3.org/2000/svg" xmlns:xlink="http://www.w3.org/1999/xlink" version="1.1"><metadata>Created by FontForge 20170731 at Wed Sep 30 14:13:58 2020 By Aleksey,,, Copyright (c) 2017 by Alberto Romanos. All rights reserved.</metadata><defs><font id="BwNistaGeo-Th" horiz-adv-x="0"><font-face x-height="1044" ascent="1577" bbox="-1524 -492 2560 2130" cap-height="1577" descent="-471" font-family="Bw Nista Geo Th" font-stretch="normal" font-weight="250" panose-1="0 0 3 0 0 0 0 0 0 0" underline-position="-307" underline-thickness="102" unicode-range="U+000D-FB02" units-per-em="2048"/><glyph d="M985 1044v-1044h-88v971h-571v-971h-88v971h-181v73h181v213q0 154 91 247t242 93q96 0 164 -22v-80q-84 25 -176 25q-104 0 -168.5 -70t-64.5 -184v-222h659zM940 1483q31 0 49.5 -18.5t18.5 -47.5t-18.5 -46t-49.5 -17q-30 0 -48 17t-18 46t18.5 47.5t47.5 18.5z" glyph-name="fi" horiz-adv-x="1185" unicode="fi"/><glyph d="M938 1577h88v-1577h-88v971h-612v-971h-88v971h-183v73h183v195q0 161 95.5 259.5t252.5 98.5q104 0 176 -32v-80q-89 35 -189 35q-112 0 -179.5 -75t-67.5 -198v-203h612v533z" glyph-name="fl" horiz-adv-x="1226" unicode="fl"/><glyph d="M1442 1065q211 0 340 -149.5t129 -393.5q0 -245 -128 -393.5t-339 -148.5q-142 0 -255.5 65t-158.5 178h-4v-223h-88v971h-612v-971h-88v971h-183v73h183v195q0 161 95.5 259.5t252.5 98.5q104 0 176 -32v-80q-89 35 -189 35q-112 0 -179.5 -75t-67.5 -198v-203h612v533 h88v-758h4q46 115 158.5 180.5t253.5 65.5zM1423 57q179 0 288.5 128t109.5 337t-109.5 337t-288.5 128t-288 -128t-109 -337t109 -337t288 -128z" glyph-name="f_b" horiz-adv-x="2019" unicode="fb"/><glyph d="M1223 1520q-112 0 -180 -75t-68 -198v-203h399v-73h-399v-971h-88v971h-561v-971h-88v971h-183v73h183v195q0 161 95.5 259.5t252.5 98.5q104 0 176 -32v-80q-89 35 -189 35q-112 0 -179.5 -75t-67.5 -198v-203h561v195q0 161 95.5 259.5t252.5 98.5q104 0 176 -32v-80 q-89 35 -188 35z" glyph-name="f_f" horiz-adv-x="1388" unicode="ff"/><glyph d="M2091 1065q211 0 340 -149.5t129 -393.5q0 -245 -128 -393.5t-339 -148.5q-142 0 -255.5 65t-158.5 178h-4v-223h-88v971h-612v-971h-88v971h-561v-971h-88v971h-183v73h183v195q0 161 95.5 259.5t252.5 98.5q104 0 176 -32v-80q-89 35 -189 35q-112 0 -179.5 -75 t-67.5 -198v-203h561v195q0 161 95.5 259.5t252.5 98.5q104 0 176 -32v-80q-89 35 -188 35q-112 0 -180 -75t-68 -198v-203h612v533h88v-758h4q46 115 158.5 180.5t253.5 65.5zM2073 57q179 0 288 128t109 337t-109 337t-288 128t-288.5 -128t-109.5 -337t109.5 -337 t288.5 -128z" glyph-name="f_f_b" horiz-adv-x="2668" unicode="ffb"/><glyph d="M2058 1065q177 0 284 -114t107 -302v-649h-88v659q0 146 -88 236t-233 90q-163 0 -263 -113t-100 -297v-575h-88v971h-614v-971h-88v971h-561v-971h-88v971h-183v73h183v195q0 161 95.5 259.5t252.5 98.5q104 0 176 -32v-80q-89 35 -189 35q-112 0 -179.5 -75t-67.5 -198 v-203h561v195q0 161 95.5 259.5t252.5 98.5q104 0 176 -32v-80q-89 35 -188 35q-112 0 -180 -75t-68 -198v-203h614v533h88v-737h4q40 101 143.5 163t233.5 62z" glyph-name="f_f_h" horiz-adv-x="2623" unicode="ffh"/><glyph d="M1634 1044v-1044h-88v971h-571v-971h-88v971h-561v-971h-88v971h-183v73h183v195q0 161 95.5 259.5t252.5 98.5q104 0 176 -32v-80q-89 35 -189 35q-112 0 -179.5 -75t-67.5 -198v-203h561v213q0 154 91.5 247t242.5 93q95 0 163 -22v-80q-84 25 -176 25 q-104 0 -168.5 -70t-64.5 -184v-222h659zM1589 1483q31 0 49.5 -18.5t18.5 -47.5t-18.5 -46t-49.5 -17q-29 0 -47 17t-18 46t18 47.5t47 18.5z" glyph-name="f_f_i" horiz-adv-x="1835" unicode="ffi"/><glyph d="M1634 1044v-1515h-88v1442h-571v-971h-88v971h-561v-971h-88v971h-183v73h183v195q0 161 95.5 259.5t252.5 98.5q104 0 176 -32v-80q-89 35 -189 35q-112 0 -179.5 -75t-67.5 -198v-203h561v213q0 154 91.5 247t242.5 93q95 0 163 -22v-80q-84 25 -176 25 q-104 0 -168.5 -70t-64.5 -184v-222h659zM1589 1483q31 0 49.5 -18.5t18.5 -47.5t-18.5 -46t-49.5 -17q-29 0 -47 17t-18 46t18 47.5t47 18.5z" glyph-name="f_f_j" horiz-adv-x="1835" unicode="ffj"/><glyph d="M1589 1044v533h88v-1577h-88v971h-614v-971h-88v971h-561v-971h-88v971h-183v73h183v195q0 161 95.5 259.5t252.5 98.5q104 0 176 -32v-80q-89 35 -189 35q-112 0 -179.5 -75t-67.5 -198v-203h561v195q0 161 95.5 259.5t252.5 98.5q104 0 176 -32v-80q-89 35 -188 35 q-112 0 -180 -75t-68 -198v-203h614zM1849 580l709 -580h-119l-717 575l623 469h117z" glyph-name="f_f_k" horiz-adv-x="2549" unicode="ffk"/><glyph d="M1587 1577h88v-1577h-88v971h-612v-971h-88v971h-561v-971h-88v971h-183v73h183v195q0 161 95.5 259.5t252.5 98.5q104 0 176 -32v-80q-89 35 -189 35q-112 0 -179.5 -75t-67.5 -198v-203h561v195q0 161 95.5 259.5t252.5 98.5q104 0 176 -32v-80q-89 35 -188 35 q-112 0 -180 -75t-68 -198v-203h612v533z" glyph-name="f_f_l" horiz-adv-x="1875" unicode="ffl"/><glyph d="M2015 971h-383v-711q0 -91 60.5 -147t158.5 -56q90 0 164 33v-74q-77 -36 -190 -36q-126 0 -203.5 78.5t-77.5 207.5v705h-569v-971h-88v971h-561v-971h-88v971h-183v73h183v195q0 161 95.5 259.5t252.5 98.5q104 0 176 -32v-80q-89 35 -189 35q-112 0 -179.5 -75 t-67.5 -198v-203h561v195q0 161 95.5 259.5t252.5 98.5q104 0 176 -32v-80q-89 35 -188 35q-112 0 -180 -75t-68 -198v-203h571v308h86v-308h383v-73z" glyph-name="f_f_t" horiz-adv-x="2060" unicode="fft"/><glyph d="M1409 1065q177 0 284 -114t107 -302v-649h-88v659q0 146 -88 236t-233 90q-163 0 -263 -113t-100 -297v-575h-88v971h-614v-971h-88v971h-183v73h183v195q0 161 95.5 259.5t252.5 98.5q104 0 176 -32v-80q-89 35 -189 35q-112 0 -179.5 -75t-67.5 -198v-203h614v533h88 v-737h4q40 101 143.5 163t233.5 62z" glyph-name="f_h" horiz-adv-x="1974" unicode="fh"/><glyph d="M983 1044v-1044h-88v971h-569v-971h-88v971h-183v73h183v195q0 161 95.5 259.5t252.5 98.5q104 0 176 -32v-80q-89 35 -189 35q-112 0 -179.5 -75t-67.5 -198v-203h657zM1171 1577l-213 -328h-73l186 328h100z" glyph-name="f_iacute" horiz-adv-x="1183" unicode="fí"/><glyph d="M985 1044v-1515h-88v1442h-571v-971h-88v971h-181v73h181v213q0 154 91 247t242 93q96 0 164 -22v-80q-84 25 -176 25q-104 0 -168.5 -70t-64.5 -184v-222h659zM940 1483q31 0 49.5 -18.5t18.5 -47.5t-18.5 -46t-49.5 -17q-30 0 -48 17t-18 46t18.5 47.5t47.5 18.5z" glyph-name="f_j" horiz-adv-x="1185" unicode="fj"/><glyph d="M940 1044v533h88v-1577h-88v971h-614v-971h-88v971h-183v73h183v195q0 161 95.5 259.5t252.5 98.5q104 0 176 -32v-80q-89 35 -189 35q-112 0 -179.5 -75t-67.5 -198v-203h614zM1200 580l709 -580h-119l-717 575l623 469h116z" glyph-name="f_k" horiz-adv-x="1900" unicode="fk"/><glyph d="M1366 971h-383v-711q0 -91 60.5 -147t158.5 -56q90 0 164 33v-74q-77 -36 -190 -36q-126 0 -203.5 78.5t-77.5 207.5v705h-569v-971h-88v971h-183v73h183v195q0 161 95.5 259.5t252.5 98.5q104 0 176 -32v-80q-89 35 -189 35q-112 0 -179.5 -75t-67.5 -198v-203h571v308 h86v-308h383v-73z" glyph-name="f_t" horiz-adv-x="1411" unicode="ft"/><glyph d="M1389 971h-383v-711q0 -91 60.5 -147t158.5 -56q90 0 164 33v-74q-77 -36 -191 -36q-126 0 -203 78.5t-77 207.5v705h-603v-711q0 -91 61 -147t159 -56q89 0 163 33v-74q-77 -36 -190 -36q-126 0 -203.5 78.5t-77.5 207.5v705h-182v73h184v308h86v-308h605v308h86v-308 h383v-73z" glyph-name="t_t" horiz-adv-x="1433" unicode="tt"/><glyph d="M156 -20q-15 0 -25 10.5t-10 25.5q0 21 10 31l700 698h-663q-47 0 -47 39q0 16 14 33l696 701h-669q-41 0 -41 38v3q0 38 41 38h758q47 0 47 -41q0 -20 -17 -34l-698 -697h676q17 0 29 -12t12 -29v-669l694 692q13 16 35 16q37 0 37 -45v-663l696 692q13 16 33 16 q15 0 25 -12t10 -27q0 -18 -13 -28l-753 -762q-14 -14 -35 -14q-41 0 -41 47v663l-694 -696q-14 -14 -35 -14q-41 0 -41 47v663l-697 -696q-14 -14 -34 -14z" glyph-name=".notdef" horiz-adv-x="2609"/><glyph glyph-name=".null"/><glyph glyph-name="nonmarkingreturn" horiz-adv-x="682"/><glyph glyph-name="CR" horiz-adv-x="548"/><glyph glyph-name="space" horiz-adv-x="548"/><glyph d="M223 356l-18 1221h96l-18 -1221h-60zM252 -20q-34 0 -54 19t-20 50t20.5 50.5t53.5 19.5t53.5 -19.5t20.5 -50.5t-20 -50t-54 -19z" glyph-name="exclam" horiz-adv-x="505" unicode="!"/><glyph d="M147 1208v369h89v-369h-89zM352 1208v369h88v-369h-88z" glyph-name="quotedbl" horiz-adv-x="587" unicode="&quot;"/><glyph d="M1354 1090h-277l-55 -551h272l-10 -80h-270l-47 -459h-93l50 459h-490l-49 -459h-92l49 459h-272l8 80h272l58 551h-271l8 79h271l43 408h92l-41 -408h483l41 408h92l-41 -408h277zM930 541l55 549h-483l-60 -549h488z" glyph-name="numbersign" horiz-adv-x="1429" unicode="#"/><glyph d="M1239 424q0 -191 -144.5 -311.5t-385.5 -130.5v-211h-88v209q-232 12 -378.5 158.5t-156.5 377.5h98q10 -192 129 -312t308 -132v716q-47 9 -82 16t-79 18.5t-76.5 23.5t-69 30t-62 38t-50.5 47t-40 58.5t-24 72t-9 86.5q0 181 135 294.5t357 124.5v205h88v-207 q213 -15 345.5 -153.5t141.5 -356.5h-98q-9 178 -114.5 291.5t-274.5 128.5v-645q67 -11 113 -21t106 -28t100.5 -38.5t83.5 -53.5t68.5 -73t42 -97t16.5 -125zM223 1178q0 -60 22 -107.5t56 -78t89 -54.5t107 -37.5t124 -26.5v633q-181 -11 -289.5 -100t-108.5 -229z M709 72q198 11 317 106.5t119 245.5q0 51 -13 94.5t-33.5 75t-54 58t-68 44t-82.5 33t-89 25.5t-96 20v-702z" glyph-name="dollar" horiz-adv-x="1316" unicode="$"/><glyph d="M354 840q-120 0 -193 104.5t-73 274.5t73 274t193 104t193.5 -104t73.5 -274t-73.5 -274.5t-193.5 -104.5zM139 0l1032 1577h97l-1032 -1577h-97zM354 911q82 0 131.5 85t49.5 223t-49.5 222.5t-131.5 84.5t-131 -84.5t-49 -222.5t49.5 -223t130.5 -85zM1057 -20 q-120 0 -193 104t-73 274t73 274.5t193 104.5t193 -104.5t73 -274.5t-73 -274t-193 -104zM1057 51q82 0 131 84.5t49 222.5t-49.5 223t-130.5 85t-130.5 -85t-49.5 -223t49 -222.5t131 -84.5z" glyph-name="percent" horiz-adv-x="1409" unicode="%"/><glyph d="M1569 43l-58 -66l-325 289q-100 -130 -260 -208t-328 -78q-195 0 -314.5 107t-119.5 280q0 77 19 144t49.5 117t77.5 96t92.5 78.5t105.5 67.5q-109 102 -174.5 208t-65.5 182q0 152 110 244.5t290 92.5q178 0 287.5 -87t109.5 -228q0 -44 -13 -84.5t-26 -69t-52 -64.5 t-56 -52.5t-75.5 -51.5t-73.5 -43.5t-85 -45.5q-8 -4 -12 -6.5t-11 -6t-12 -6.5l520 -459q78 172 117 424h90q-19 -138 -57 -266.5t-84 -212.5zM358 1260q0 -63 61.5 -158.5t164.5 -190.5q167 88 198 107q138 84 176 175q17 42 17 89q0 106 -85 171t-224 65 q-138 0 -223 -70.5t-85 -187.5zM598 59q150 0 293.5 71t234.5 189l-551 490q-72 -41 -124 -80.5t-100 -92.5t-72.5 -121t-24.5 -148q0 -138 94.5 -223t249.5 -85z" glyph-name="ampersand" horiz-adv-x="1589" unicode="&amp;"/><glyph d="M147 1208v369h89v-369h-89z" glyph-name="quotesingle" horiz-adv-x="382" unicode="'"/><glyph d="M418 -471q-145 224 -226 495t-81 529t81 529t226 495h92q-144 -218 -224.5 -488.5t-80.5 -535.5t80.5 -535.5t224.5 -488.5h-92z" glyph-name="parenleft" horiz-adv-x="552" unicode="("/><glyph d="M135 -471h-92q144 218 224.5 488.5t80.5 535.5t-80.5 535.5t-224.5 488.5h92q145 -224 226 -495t81 -529t-81 -529t-226 -495z" glyph-name="parenright" horiz-adv-x="550" unicode=")"/><glyph d="M649 1352l-213 -66l133 -178l-63 -45l-127 182l-127 -182l-64 45l134 178l-213 66l24 73l211 -69l-4 221h78l-4 -221l211 69z" glyph-name="asterisk" horiz-adv-x="757" unicode="*"/><glyph d="M844 553v-74h-326v-332h-88v332h-324v74h324v332h88v-332h326z" glyph-name="plus" horiz-adv-x="950" unicode="+"/><glyph d="M195 119q35 0 57 -30t22 -77q0 -83 -47.5 -159t-124.5 -117l-10 45q52 29 84 84t35 117q-8 -2 -27 -2q-29 0 -47 19t-18 50t21 50.5t55 19.5z" glyph-name="comma" horiz-adv-x="387" unicode=","/><glyph d="M150 494v73h491v-73h-491z" glyph-name="hyphen" horiz-adv-x="790" unicode="-"/><glyph d="M223 -20q-33 0 -53 19t-20 50t20 50.5t53 19.5t53.5 -19.5t20.5 -50.5t-20 -50t-54 -19z" glyph-name="period" horiz-adv-x="446" unicode="."/><glyph d="M160 -471h-90l598 2048h90z" glyph-name="slash" horiz-adv-x="825" unicode="/"/><glyph d="M664 -20q-255 0 -398 213t-143 595t143 595.5t398 213.5t397.5 -213.5t142.5 -595.5t-142.5 -595t-397.5 -213zM664 70q211 0 328.5 189t117.5 529t-117.5 529.5t-328.5 189.5t-329 -189.5t-118 -529.5q0 -339 118 -528.5t329 -189.5z" glyph-name="zero" horiz-adv-x="1327" unicode="0"/><glyph d="M397 1577h62v-1577h-92v1311h-316v75q157 0 232.5 41t113.5 150z" glyph-name="one" horiz-adv-x="675" unicode="1"/><glyph d="M219 86h920v-86h-1041v102q434 240 670 507t236 534q0 164 -107 264t-281 100q-175 0 -286.5 -115.5t-120.5 -304.5h-92q11 229 147.5 369.5t351.5 140.5q217 0 349.5 -125t132.5 -329q0 -278 -229 -549t-650 -504v-4z" glyph-name="two" horiz-adv-x="1234" unicode="2"/><glyph d="M754 813q171 -37 269.5 -143.5t98.5 -259.5q0 -194 -142.5 -312t-375.5 -118q-218 0 -355 133.5t-143 353.5h89q7 -181 119.5 -291t289.5 -110q191 0 307.5 96t116.5 254t-120 255t-316 97h-51v86h28q186 0 299 90t113 238q0 149 -104 239t-273 90q-163 0 -267.5 -112 t-113.5 -295h-88q9 223 137.5 358t331.5 135q212 0 341.5 -112.5t129.5 -296.5q0 -137 -86 -234.5t-235 -136.5v-4z" glyph-name="three" horiz-adv-x="1239" unicode="3"/><glyph d="M1126 518v-84h-204v-434h-93v434h-778v94l752 1049h119v-1059h204zM827 1477l-677 -955v-4h681v959h-4z" glyph-name="four" horiz-adv-x="1200" unicode="4"/><glyph d="M651 1049q223 0 358.5 -146.5t135.5 -386.5q0 -241 -146.5 -388.5t-384.5 -147.5q-207 0 -345.5 119.5t-157.5 314.5h92q19 -155 131.5 -249.5t279.5 -94.5q197 0 317 122.5t120 323.5t-116.5 324t-307.5 123q-143 0 -257.5 -92t-158.5 -242h-92l125 948h782v-86h-694 l-94 -643l4 -2q71 95 178.5 149t230.5 54z" glyph-name="five" horiz-adv-x="1236" unicode="5"/><glyph d="M688 1020q232 0 362 -137t130 -383q0 -242 -135.5 -381t-354.5 -139q-297 0 -431 183.5t-134 579.5q0 403 148.5 628.5t412.5 225.5q202 0 323.5 -116t133.5 -320h-92q-10 164 -106.5 255t-258.5 91q-217 0 -340.5 -197t-126.5 -550h4q51 125 170 192.5t295 67.5zM664 70 q198 0 309.5 114t111.5 316q0 204 -111.5 317t-309.5 113t-310 -108t-112 -300q0 -207 118.5 -329.5t303.5 -122.5z" glyph-name="six" horiz-adv-x="1296" unicode="6"/><glyph d="M1067 1577v-94q-260 -272 -406.5 -664t-146.5 -819h-100q0 427 149.5 820t415.5 667v4h-948v86h1036z" glyph-name="seven" horiz-adv-x="1101" unicode="7"/><glyph d="M819 821q163 -39 256.5 -146t93.5 -259q0 -196 -145 -316t-381 -120t-381 120t-145 316q0 152 93 259.5t255 145.5v4q-138 40 -217.5 137.5t-79.5 231.5q0 181 130.5 292t344.5 111t344.5 -111t130.5 -292q0 -135 -80 -232.5t-219 -136.5v-4zM262 1188 q0 -145 104.5 -233.5t276.5 -88.5t276.5 88.5t104.5 233.5t-104.5 232t-276.5 87t-276.5 -87t-104.5 -232zM643 70q195 0 313.5 97t118.5 255q0 160 -118.5 257t-313.5 97t-313.5 -97t-118.5 -257q0 -158 118.5 -255t313.5 -97z" glyph-name="eight" horiz-adv-x="1286" unicode="8"/><glyph d="M610 1597q297 0 431.5 -184t134.5 -579q0 -402 -149 -628t-413 -226q-212 0 -338.5 127.5t-140.5 353.5h92q12 -186 114 -288.5t273 -102.5q220 0 343.5 202t123.5 562v14h-4q-51 -119 -170 -183.5t-295 -64.5q-232 0 -361.5 132t-129.5 368q0 232 134 364.5t355 132.5z M637 690q198 0 310 102t112 285q0 187 -120 308.5t-302 121.5q-199 0 -310.5 -107t-111.5 -300t112 -301.5t310 -108.5z" glyph-name="nine" horiz-adv-x="1300" unicode="9"/><glyph d="M223 926q-33 0 -53 19t-20 50t20 50.5t53 19.5t53.5 -19.5t20.5 -50.5t-20 -50t-54 -19zM223 -20q-33 0 -53 19t-20 50t20 50.5t53 19.5t53.5 -19.5t20.5 -50.5t-20 -50t-54 -19z" glyph-name="colon" horiz-adv-x="446" unicode=":"/><glyph d="M252 926q-34 0 -54 19t-20 50t20.5 50.5t53.5 19.5t53.5 -19.5t20.5 -50.5t-20 -50t-54 -19zM254 119q35 0 57.5 -30t22.5 -77q0 -83 -47.5 -159t-124.5 -117l-10 45q52 29 83.5 83.5t34.5 117.5q-8 -2 -26 -2q-29 0 -47.5 19t-18.5 50t21 50.5t55 19.5z" glyph-name="semicolon" horiz-adv-x="497" unicode=";"/><glyph d="M829 905v-78l-669 -309l669 -309v-78l-737 348v76z" glyph-name="less" horiz-adv-x="983" unicode="&lt;"/><glyph d="M154 602v74h737v-74h-737zM154 356v74h737v-74h-737z" glyph-name="equal" horiz-adv-x="1044" unicode="="/><glyph d="M154 905l737 -350v-76l-737 -348v78l669 309l-669 309v78z" glyph-name="greater" horiz-adv-x="983" unicode="&gt;"/><glyph d="M446 356v13q0 45 8.5 87.5t19 75t33 68.5t38.5 58.5t48.5 56t49 49t53.5 49.5q54 50 84 81t66 79.5t52.5 101t16.5 113.5q0 143 -101 230t-267 87t-273 -103t-116 -272h-90q9 209 140.5 337t338.5 128q209 0 336 -112t127 -297q0 -46 -8.5 -88t-28 -80t-37.5 -67 t-51.5 -64.5t-55 -56.5t-61.5 -58q-41 -38 -61 -57.5t-55 -56t-52.5 -65t-38 -67.5t-29 -81t-8.5 -89h-78zM485 -20q-33 0 -53 19t-20 50t20 50.5t53 19.5t53.5 -19.5t20.5 -50.5t-20 -50t-54 -19z" glyph-name="question" horiz-adv-x="1087" unicode="?"/><glyph d="M1530 1004h88l-131 -736q0 -56 41 -89.5t108 -33.5q184 0 297 159t113 419q0 236 -107 417t-302.5 280.5t-450.5 99.5q-222 0 -407.5 -77.5t-315 -216.5t-201.5 -338t-72 -437q0 -192 64.5 -353.5t180.5 -274t282.5 -175t365.5 -62.5q132 0 290 31t284 82l33 -76 q-125 -52 -291.5 -83.5t-315.5 -31.5q-292 0 -515.5 117.5t-345.5 331.5t-122 494q0 340 135 600.5t382 403t569 142.5q211 0 388 -63t300.5 -177t192.5 -277t69 -357q0 -295 -139.5 -475t-366.5 -180q-104 0 -167.5 53t-63.5 139h-4q-57 -89 -168 -143t-236 -54 q-155 0 -250.5 103t-95.5 270q0 264 143.5 426t376.5 162q122 0 213 -54t117 -143h4zM1032 139q155 0 271 105.5t153 279.5l4 19v-4v4q10 65 10 108q0 132 -81 213.5t-213 81.5q-197 0 -318 -135t-121 -356q0 -141 81.5 -228.5t213.5 -87.5z" glyph-name="at" horiz-adv-x="2246" unicode="@"/><glyph d="M1235 0l-162 438h-788l-164 -438h-101l601 1577h116l602 -1577h-104zM317 524h723l-358 969h-4z" glyph-name="A" horiz-adv-x="1359" unicode="A"/><glyph d="M975 819q162 -31 256 -136.5t94 -260.5q0 -191 -129.5 -306.5t-343.5 -115.5h-635v1577h571q203 0 327 -109.5t124 -289.5q0 -128 -70 -221.5t-194 -133.5v-4zM795 1491h-486v-637h486q158 0 254 87t96 230q0 145 -96 232.5t-254 87.5zM858 86q167 0 270 94t103 248 q0 153 -102.5 246.5t-270.5 93.5h-549v-682h549z" glyph-name="B" horiz-adv-x="1429" unicode="B"/><glyph d="M811 -20q-208 0 -366.5 100.5t-245 284t-86.5 423.5t86.5 424t245 284.5t366.5 100.5q258 0 439.5 -148.5t224.5 -393.5h-97q-38 204 -194 328t-373 124q-179 0 -316.5 -89t-212.5 -252.5t-75 -377.5q0 -324 166 -521t438 -197q217 0 373 129t194 340h97 q-43 -252 -226 -405.5t-438 -153.5z" glyph-name="C" horiz-adv-x="1566" unicode="C"/><glyph d="M217 0v1577h414q212 0 374.5 -98t251.5 -277.5t89 -413.5t-89 -413t-251.5 -277t-374.5 -98h-414zM309 86h332q275 0 442.5 192.5t167.5 509.5t-167.5 510t-442.5 193h-332v-1405z" glyph-name="D" horiz-adv-x="1458" unicode="D"/><glyph d="M309 86h883v-86h-975v1577h950v-86h-858v-631h785v-86h-785v-688z" glyph-name="E" horiz-adv-x="1296" unicode="E"/><glyph d="M1157 1491h-848v-641h735v-86h-735v-764h-92v1577h940v-86z" glyph-name="F" horiz-adv-x="1210" unicode="F"/><glyph d="M766 801h713v-39q0 -232 -83 -410t-235 -275t-350 -97q-208 0 -366.5 100.5t-245 284t-86.5 423.5t86.5 424t245 284.5t366.5 100.5q252 0 432 -146.5t223 -385.5h-98q-38 199 -191.5 320.5t-365.5 121.5q-179 0 -316.5 -89t-212.5 -252.5t-75 -377.5q0 -324 166 -521 t438 -197q242 0 397 176t172 469h-614v86z" glyph-name="G" horiz-adv-x="1591" unicode="G"/><glyph d="M1208 1577h92v-1577h-92v760h-899v-760h-92v1577h92v-731h899v731z" glyph-name="H" horiz-adv-x="1517" unicode="H"/><glyph d="M217 0v1577h92v-1577h-92z" glyph-name="I" horiz-adv-x="526" unicode="I"/><glyph d="M508 -20q-186 0 -310 143.5t-141 378.5h88q19 -195 117.5 -313.5t243.5 -118.5q149 0 240.5 101.5t91.5 268.5v1137h92v-1124q0 -214 -115.5 -343.5t-306.5 -129.5z" glyph-name="J" horiz-adv-x="1130" unicode="J"/><glyph d="M217 0v1577h92v-1577h-92zM492 821l905 -821h-123l-907 815l847 762h113z" glyph-name="K" horiz-adv-x="1386" unicode="K"/><glyph d="M309 86h764v-86h-856v1577h92v-1491z" glyph-name="L" horiz-adv-x="1114" unicode="L"/><glyph d="M1581 1577h139v-1577h-92v1460h-4l-616 -1460h-103l-596 1460h-4v-1460h-88v1577h139l600 -1466h7z" glyph-name="M" horiz-adv-x="1937" unicode="M"/><glyph d="M1212 1577h88v-1577h-94l-893 1415h-4v-1415h-92v1577h98l893 -1419h4v1419z" glyph-name="N" horiz-adv-x="1517" unicode="N"/><glyph d="M817 -20q-209 0 -369 100.5t-247.5 284t-87.5 423.5t87.5 424t247.5 284.5t369 100.5t369 -100.5t248 -284.5t88 -424t-88 -423.5t-248 -284t-369 -100.5zM817 70q275 0 442.5 197t167.5 521t-167.5 521.5t-442.5 197.5t-442.5 -197.5t-167.5 -521.5t167.5 -521 t442.5 -197z" glyph-name="O" horiz-adv-x="1634" unicode="O"/><glyph d="M768 1577q220 0 354.5 -127t134.5 -334q0 -209 -135 -336t-356 -127h-457v-653h-92v1577h551zM774 737q175 0 282 104.5t107 274.5q0 169 -107 272t-280 103h-467v-754h465z" glyph-name="P" horiz-adv-x="1327" unicode="P"/><glyph d="M1522 788q0 -228 -79.5 -406t-223.5 -280l151 -180l-59 -53l-162 190q-149 -79 -332 -79q-209 0 -369 100.5t-247.5 284t-87.5 423.5t87.5 424t247.5 284.5t369 100.5t369 -100.5t248 -284.5t88 -424zM817 70q148 0 270 61l-163 195l61 51l172 -203q129 90 199.5 248.5 t70.5 365.5q0 324 -167.5 521.5t-442.5 197.5t-442.5 -197.5t-167.5 -521.5t167.5 -521t442.5 -197z" glyph-name="Q" horiz-adv-x="1632" unicode="Q"/><glyph d="M1327 0h-106l-394 700q-14 -2 -41 -2h-477v-698h-92v1577h567q226 0 364 -116t138 -306q0 -171 -96.5 -289t-263.5 -153zM309 784h488q178 0 286.5 100.5t108.5 264.5q0 154 -109.5 248t-287.5 94h-486v-707z" glyph-name="R" horiz-adv-x="1417" unicode="R"/><glyph d="M672 -20q-248 0 -406 147.5t-168 388.5h99q11 -201 141 -323.5t334 -122.5q218 0 351.5 97t133.5 257q0 43 -9.5 81t-24 67t-40 54t-50 43.5t-62.5 34.5t-69 26.5t-77 21.5t-79.5 17t-83.5 15q-67 12 -110.5 21t-104 25.5t-99 35t-82 48.5t-68 66t-41 86.5t-16.5 111.5 q0 189 146.5 304t384.5 115q232 0 379.5 -141t156.5 -371h-98q-9 191 -129 306.5t-309 115.5q-197 0 -316.5 -90t-119.5 -239q0 -47 13.5 -86.5t35 -68t58 -52t71 -39t86.5 -29t93 -21.5t101 -18q55 -9 91 -16t88 -19t86 -24t77.5 -31.5t71.5 -41.5t58 -53.5t46.5 -68 t27.5 -84t11 -102.5q0 -200 -159 -322t-420 -122z" glyph-name="S" horiz-adv-x="1351" unicode="S"/><glyph d="M1139 1577v-86h-506v-1491h-92v1491h-506v86h1104z" glyph-name="T" horiz-adv-x="1173" unicode="T"/><glyph d="M741 -20q-244 0 -393 156t-149 411v1030h92v-1040q0 -211 123.5 -339t326.5 -128q204 0 329.5 128.5t125.5 338.5v1040h88v-1030q0 -255 -149.5 -411t-393.5 -156z" glyph-name="U" horiz-adv-x="1482" unicode="U"/><glyph d="M1165 1577h101l-555 -1577h-125l-557 1577h104l512 -1493h4z" glyph-name="V" horiz-adv-x="1294" unicode="V"/><glyph d="M1880 1577h100l-442 -1577h-125l-401 1483h-4l-398 -1483h-123l-444 1577h104l400 -1487h4l403 1487h119l400 -1487h4z" glyph-name="W" horiz-adv-x="2025" unicode="W"/><glyph d="M33 0l516 809l-490 768h111l436 -688h4l434 688h109l-489 -766l516 -811h-115l-459 729h-4l-459 -729h-110z" glyph-name="X" horiz-adv-x="1212" unicode="X"/><glyph d="M1298 1577l-596 -954v-623h-92v625l-596 952h113l532 -860h5l528 860h106z" glyph-name="Y" horiz-adv-x="1312" unicode="Y"/><glyph d="M166 86h979v-86h-1090v94l965 1393v4h-916v86h1026v-94l-964 -1393v-4z" glyph-name="Z" horiz-adv-x="1214" unicode="Z"/><glyph d="M500 1493h-193v-1880h193v-84h-285v2048h285v-84z" glyph-name="bracketleft" horiz-adv-x="573" unicode="["/><glyph d="M666 -471l-598 2048h90l598 -2048h-90z" glyph-name="backslash" horiz-adv-x="825" unicode="\"/><glyph d="M358 1577v-2048h-284v84h192v1880h-192v84h284z" glyph-name="bracketright" horiz-adv-x="573" unicode="]"/><glyph d="M575 1577l416 -752h-98l-350 633h-4l-351 -633h-98l416 752h69z" glyph-name="asciicircum" horiz-adv-x="1081" unicode="^"/><glyph d="M88 -225v73h901v-73h-901z" glyph-name="underscore" horiz-adv-x="1077" unicode="_"/><glyph d="M354 1167h-73l-213 328h100z" glyph-name="grave" horiz-adv-x="436" unicode="`"/><glyph d="M993 1044h88v-1044h-88v223h-4q-45 -113 -158.5 -178t-255.5 -65q-211 0 -338.5 148.5t-127.5 393.5q0 244 129 393.5t340 149.5q140 0 252.5 -65.5t158.5 -180.5h4v225zM596 57q179 0 288 128t109 337t-109 337t-288 128t-288 -128t-109 -337t109 -337t288 -128z" glyph-name="a" horiz-adv-x="1273" unicode="a"/><glyph d="M696 1065q211 0 340 -149.5t129 -393.5q0 -245 -128 -393.5t-339 -148.5q-142 0 -255 65t-158 178h-4v-223h-88v1577h88v-758h4q46 115 158.5 180.5t252.5 65.5zM678 57q179 0 288 128t109 337t-109 337t-288 128t-288 -128t-109 -337t109 -337t288 -128z" glyph-name="b" horiz-adv-x="1273" unicode="b"/><glyph d="M588 -20q-217 0 -349.5 149t-132.5 393t132.5 393.5t349.5 149.5q166 0 290.5 -92.5t161.5 -243.5h-94q-32 115 -130.5 185.5t-227.5 70.5q-177 0 -284 -127t-107 -336q0 -210 107 -337.5t284 -127.5q140 0 240.5 75t125.5 198h97q-31 -158 -157.5 -254t-305.5 -96z" glyph-name="c" horiz-adv-x="1136" unicode="c"/><glyph d="M993 1577h88v-1577h-88v223h-4q-45 -113 -158.5 -178t-255.5 -65q-211 0 -338.5 148.5t-127.5 393.5q0 244 129 393.5t340 149.5q140 0 252.5 -65.5t158.5 -180.5h4v758zM596 57q179 0 288 128t109 337t-109 337t-288 128t-288 -128t-109 -337t109 -337t288 -128z" glyph-name="d" horiz-adv-x="1273" unicode="d"/><glyph d="M1073 520v-22h-876q6 -199 113.5 -320t279.5 -121q143 0 251 82t142 215h88q-38 -169 -170 -271.5t-311 -102.5q-218 0 -351 148.5t-133 391.5q0 246 133 395.5t351 149.5t350.5 -149.5t132.5 -395.5zM590 985q-164 0 -270 -111t-121 -296h782q-15 185 -121 296t-270 111 z" glyph-name="e" horiz-adv-x="1181" unicode="e"/><glyph d="M573 1520q-112 0 -179.5 -75t-67.5 -198v-203h399v-73h-399v-971h-88v971h-183v73h183v195q0 161 95.5 259.5t252.5 98.5q104 0 176 -32v-80q-89 35 -189 35z" glyph-name="f" horiz-adv-x="739" unicode="f"/><glyph d="M993 1044h88v-1056q0 -215 -132 -347.5t-347 -132.5q-201 0 -327 115t-132 303h84q9 -152 112 -245t263 -93q177 0 284 107t107 282v246h-4q-45 -113 -158.5 -178t-255.5 -65q-211 0 -338.5 148.5t-127.5 393.5q0 244 129 393.5t340 149.5q140 0 252.5 -65.5 t158.5 -180.5h4v225zM596 57q179 0 288 128t109 337t-109 337t-288 128t-288 -128t-109 -337t109 -337t288 -128z" glyph-name="g" horiz-adv-x="1273" unicode="g"/><glyph d="M662 1065q177 0 284 -114t107 -302v-649h-88v659q0 146 -88.5 236t-233.5 90q-163 0 -262.5 -113t-99.5 -297v-575h-88v1577h88v-737h4q40 101 143.5 163t233.5 62z" glyph-name="h" horiz-adv-x="1226" unicode="h"/><glyph d="M244 1354q-30 0 -48 17t-18 46t18.5 47.5t47.5 18.5q30 0 48.5 -18.5t18.5 -47.5t-18 -46t-49 -17zM201 0v1044h88v-1044h-88z" glyph-name="i" horiz-adv-x="489" unicode="i"/><glyph d="M244 1354q-30 0 -48 17t-18 46t18.5 47.5t47.5 18.5q30 0 48.5 -18.5t18.5 -47.5t-18 -46t-49 -17zM201 -471v1515h88v-1515h-88z" glyph-name="j" horiz-adv-x="489" unicode="j"/><glyph d="M193 0v1577h88v-1577h-88zM453 580l708 -580h-119l-716 575l622 469h117z" glyph-name="k" horiz-adv-x="1153" unicode="k"/><glyph d="M201 0v1577h88v-1577h-88z" glyph-name="l" horiz-adv-x="489" unicode="l"/><glyph d="M1372 1065q167 0 269 -109.5t102 -289.5v-666h-88v668q0 143 -83.5 230t-219.5 87q-154 0 -247 -110.5t-93 -292.5v-582h-88v668q0 143 -83.5 230t-219.5 87q-154 0 -247 -110.5t-93 -292.5v-582h-88v1044h88v-204h4q37 101 135 163t221 62q128 0 219.5 -66.5 t128.5 -183.5h4q46 114 149 182t230 68z" glyph-name="m" horiz-adv-x="1916" unicode="m"/><glyph d="M662 1065q177 0 284 -114t107 -302v-649h-88v659q0 146 -88.5 236t-233.5 90q-163 0 -262.5 -113t-99.5 -297v-575h-88v1044h88v-204h4q40 101 143.5 163t233.5 62z" glyph-name="n" horiz-adv-x="1226" unicode="n"/><glyph d="M594 -20q-220 0 -354 149t-134 393q0 245 134 394t354 149t353.5 -149t133.5 -394t-133.5 -393.5t-353.5 -148.5zM594 57q179 0 288 128t109 337t-109 337t-288 128t-288 -128t-109 -337t109 -337t288 -128z" glyph-name="o" horiz-adv-x="1187" unicode="o"/><glyph d="M698 1065q211 0 339 -149t128 -394q0 -244 -129 -393t-340 -149q-141 0 -253.5 65t-157.5 178h-4v-694h-88v1515h88v-225h4q47 115 159 180.5t254 65.5zM678 57q179 0 288 128t109 337t-109 337t-288 128t-288 -128t-109 -337t109 -337t288 -128z" glyph-name="p" horiz-adv-x="1273" unicode="p"/><glyph d="M993 1044h88v-1515h-88v694h-4q-45 -113 -157.5 -178t-253.5 -65q-211 0 -340 149t-129 393q0 245 127.5 394t338.5 149q142 0 255 -65.5t159 -180.5h4v225zM596 57q179 0 288 128t109 337t-109 337t-288 128t-288 -128t-109 -337t109 -337t288 -128z" glyph-name="q" horiz-adv-x="1273" unicode="q"/><glyph d="M664 1065q82 0 147 -21v-94q-77 25 -174 25q-160 0 -258 -118t-98 -310v-547h-88v1044h88v-223h4q50 109 154 176.5t225 67.5z" glyph-name="r" horiz-adv-x="837" unicode="r"/><glyph d="M518 -20q-189 0 -306 97t-120 255h90q3 -123 95 -199t241 -76t240.5 59t91.5 156q0 35 -10.5 64.5t-26.5 50t-45 38.5t-53.5 29t-66 22t-69 17t-75.5 15q-45 9 -69 14t-65 15t-64.5 20t-55.5 25.5t-50 34t-35.5 42.5t-25.5 55t-8 68q0 127 106.5 205t280.5 78 q173 0 280.5 -94.5t110.5 -249.5h-90q-3 118 -86 191t-215 73q-134 0 -215.5 -56.5t-81.5 -148.5q0 -28 9.5 -51.5t23 -40.5t40 -32t48 -24t60 -19t63.5 -15.5t70 -13.5q53 -10 84 -17t79.5 -20.5t77.5 -28t64 -38.5t54 -52t32.5 -68t13.5 -88q0 -132 -115.5 -212 t-306.5 -80z" glyph-name="s" horiz-adv-x="1038" unicode="s"/><glyph d="M698 971h-383v-711q0 -91 61 -147t159 -56q89 0 163 33v-74q-77 -36 -190 -36q-126 0 -203.5 78.5t-77.5 207.5v705h-182v73h184v308h86v-308h383v-73z" glyph-name="t" horiz-adv-x="743" unicode="t"/><glyph d="M594 -20q-189 0 -304.5 118t-115.5 310v636h88v-626q0 -163 91.5 -262t240.5 -99t240.5 99t91.5 262v626h88v-636q0 -192 -115.5 -310t-304.5 -118z" glyph-name="u" horiz-adv-x="1187" unicode="u"/><glyph d="M946 1044h92l-446 -1044h-107l-446 1044h96l402 -956h4z" glyph-name="v" horiz-adv-x="1077" unicode="v"/><glyph d="M1489 1044h92l-354 -1044h-107l-303 950h-4l-305 -950h-107l-354 1044h96l310 -950h4l313 950h92l309 -950h5z" glyph-name="w" horiz-adv-x="1628" unicode="w"/><glyph d="M37 0l416 541l-385 503h94l336 -442h4l334 442h100l-385 -503l418 -541h-99l-364 479h-4l-361 -479h-104z" glyph-name="x" horiz-adv-x="1003" unicode="x"/><glyph d="M944 1044h92l-647 -1515h-92l195 459l-455 1056h96l402 -956h4z" glyph-name="y" horiz-adv-x="1075" unicode="y"/><glyph d="M160 74h708v-74h-802v80l690 885v4h-654v75h756v-81l-698 -885v-4z" glyph-name="z" horiz-adv-x="946" unicode="z"/><glyph d="M305 750q0 -137 -110 -195v-4q110 -58 110 -195v-620q0 -54 30.5 -86.5t80.5 -32.5v-88q-91 0 -147 59t-56 154v623q0 66 -37.5 105.5t-99.5 39.5v86q62 0 99.5 39.5t37.5 105.5v623q0 95 56 154t147 59v-88q-50 0 -80.5 -32.5t-30.5 -86.5v-620z" glyph-name="braceleft" horiz-adv-x="532" unicode="{"/><glyph d="M215 -471v2253h92v-2253h-92z" glyph-name="bar" horiz-adv-x="522" unicode="|"/><glyph d="M319 741q0 -66 38 -105.5t100 -39.5v-86q-62 0 -100 -39.5t-38 -105.5v-623q0 -95 -55.5 -154t-146.5 -59v88q50 0 80 32.5t30 86.5v620q0 136 111 195v4q-111 59 -111 195v620q0 54 -30 86.5t-80 32.5v88q91 0 146.5 -59t55.5 -154v-623z" glyph-name="braceright" horiz-adv-x="532" unicode="}"/><glyph d="M154 389q0 113 60 175.5t169 62.5q64 0 118.5 -15.5t93.5 -37.5t76.5 -44t83 -37.5t95.5 -15.5q66 0 105.5 42t45.5 116h72q0 -113 -60 -175.5t-169 -62.5q-64 0 -118.5 15.5t-93.5 37.5t-76.5 44t-83 37.5t-95.5 15.5q-66 0 -106 -42t-46 -116h-71z" glyph-name="asciitilde" horiz-adv-x="1226" unicode="~"/><glyph glyph-name="uni00A0" horiz-adv-x="548"/><glyph d="M236 926q-34 0 -54 19t-20 50t20.5 50.5t53.5 19.5t53 -19.5t20 -50.5t-20 -50t-53 -19zM186 -471l17 1178h61l19 -1178h-97z" glyph-name="exclamdown" horiz-adv-x="466" unicode="¡"/><glyph d="M1051 553q-29 -148 -142 -242t-274 -106v-205h-88v205q-200 14 -320.5 161t-120.5 379t120.5 379.5t320.5 161.5v189h88v-189q150 -14 260.5 -104.5t144.5 -229.5h-94q-29 104 -113 173t-198 81v-923q123 12 209.5 85t109.5 185h97zM197 745q0 -196 95 -321.5t255 -140.5 v923q-160 -15 -255 -140t-95 -321z" glyph-name="cent" horiz-adv-x="1140" unicode="¢"/><glyph d="M190 86h996v-86h-1082v102q129 100 183.5 213t54.5 244q0 60 -20 135h-197v86h168q-4 12 -33 89t-38.5 106.5t-21.5 86.5t-12 103q0 195 132 313.5t348 118.5q215 0 351.5 -140.5t147.5 -369.5h-94q-10 189 -121.5 304.5t-283.5 115.5q-173 0 -280 -94t-107 -248 q0 -45 12 -100.5t23 -89t37.5 -104t33.5 -91.5h531v-86h-502q20 -75 20 -135q0 -136 -55.5 -251t-190.5 -218v-4z" glyph-name="sterling" horiz-adv-x="1277" unicode="£"/><glyph d="M975 690q0 -154 -78 -258l123 -127l-57 -61l-123 125q-109 -88 -262 -88q-154 0 -263 88l-122 -123l-60 59l125 127q-78 108 -78 258q0 154 78 258l-123 127l58 62l122 -125q109 88 263 88q155 0 260 -88l125 123l59 -60l-125 -127q78 -108 78 -258zM578 358 q138 0 222.5 91.5t84.5 240.5t-84.5 240.5t-222.5 91.5t-223 -91.5t-85 -240.5t85 -240.5t223 -91.5z" glyph-name="currency" horiz-adv-x="1155" unicode="¤"/><glyph d="M1331 1577l-590 -946h330v-84h-336v-121h336v-84h-336v-342h-92v342h-334v84h334v121h-334v84h330l-592 946h113l532 -860h4l529 860h106z" glyph-name="yen" horiz-adv-x="1380" unicode="¥"/><glyph d="M215 860v922h92v-922h-92zM215 -471v922h92v-922h-92z" glyph-name="brokenbar" horiz-adv-x="522" unicode="¦"/><glyph d="M1079 219q64 -50 102 -128.5t38 -164.5q0 -188 -154 -303t-406 -115q-238 0 -390.5 138.5t-162.5 365.5h93q10 -187 136.5 -301t323.5 -114q210 0 337.5 90t127.5 239q0 69 -34 132.5t-91 101.5q-137 -78 -317 -78q-241 0 -388 129.5t-147 341.5q0 116 46 209.5 t131 155.5q-82 44 -129.5 120t-47.5 164q0 178 140.5 286.5t371.5 108.5q224 0 367 -132t152 -349h-93q-9 177 -126 285t-300 108q-187 0 -302 -84.5t-115 -222.5q0 -70 47 -133t127 -98q115 53 266 53q242 0 389.5 -129.5t147.5 -341.5q0 -204 -140 -334zM242 553 q0 -172 121 -277.5t319 -105.5q199 0 320.5 105.5t121.5 277.5t-121.5 277.5t-320.5 105.5q-198 0 -319 -105.5t-121 -277.5z" glyph-name="section" horiz-adv-x="1343" unicode="§"/><glyph d="M186 1276q-29 0 -47 16.5t-18 44.5q0 29 18 47.5t47 18.5q31 0 49.5 -18.5t18.5 -47.5q0 -28 -18.5 -44.5t-49.5 -16.5zM461 1276q-29 0 -47.5 16.5t-18.5 44.5q0 29 18.5 47.5t47.5 18.5q31 0 49 -18.5t18 -47.5q0 -28 -18 -44.5t-49 -16.5z" glyph-name="dieresis" horiz-adv-x="649" unicode="¨"/><glyph d="M889 -20q-350 0 -564 223t-214 588q0 362 214 584t564 222t564 -222t214 -584q0 -365 -214 -588t-564 -223zM889 61q153 0 281 53t217 147.5t138.5 231t49.5 298.5q0 327 -188.5 527t-497.5 200t-497.5 -200t-188.5 -527q0 -162 49.5 -298.5t138.5 -231t217 -147.5 t281 -53zM895 401q-154 0 -247 107.5t-93 284.5t93 285t247 108q117 0 204 -68.5t115 -181.5h-86q-22 79 -86 127.5t-147 48.5q-114 0 -184 -87.5t-70 -231.5t70 -232t184 -88q90 0 155.5 51t84.5 135h86q-25 -117 -114.5 -187.5t-211.5 -70.5z" glyph-name="copyright" horiz-adv-x="1777" unicode="©"/><glyph d="M672 1034q11 0 35 8v-61q-28 -14 -66 -14q-40 0 -65 26t-25 68v26h-2q-34 -57 -97.5 -88.5t-142.5 -31.5q-86 0 -138 43.5t-52 115.5q0 36 9.5 63t35 48.5t54.5 36.5t85 31t107.5 27t140.5 28v55q0 54 -45 87.5t-117 33.5t-117.5 -39.5t-46.5 -103.5l-82 6q3 89 71 143.5 t175 54.5q109 0 176.5 -50.5t67.5 -133.5v-332q0 -22 11 -34.5t28 -12.5zM551 1212v88q-187 -38 -218 -47q-103 -29 -125 -82q-7 -19 -7 -41q0 -44 35 -72t92 -28q100 0 161.5 54.5t61.5 127.5z" glyph-name="ordfeminine" horiz-adv-x="825" unicode="ª"/><glyph d="M453 240h-99l-252 292l252 293h99l-246 -293zM760 240h-98l-252 292l252 293h98l-246 -293z" glyph-name="guillemotleft" horiz-adv-x="911" unicode="«"/><glyph d="M174 676h737v-318h-88v244h-649v74z" glyph-name="logicalnot" horiz-adv-x="1064" unicode="¬"/><glyph d="M150 494v73h491v-73h-491z" glyph-name="uni00AD" horiz-adv-x="790" unicode="­"/><glyph d="M512 1597q180 0 289.5 -107t109.5 -282t-109.5 -282t-289.5 -107t-289.5 107t-109.5 282t109.5 282t289.5 107zM512 879q151 0 242.5 90t91.5 239t-91.5 239.5t-242.5 90.5t-242.5 -90.5t-91.5 -239.5t91.5 -239t242.5 -90zM676 1288q0 -41 -23 -71.5t-63 -42.5l98 -164 h-70l-92 155h-106v-155h-64v397h176q65 0 104.5 -32.5t39.5 -86.5zM420 1358v-146h117q32 0 51.5 20t19.5 54q0 32 -19.5 52t-51.5 20h-117z" glyph-name="registered" horiz-adv-x="1024" unicode="®"/><glyph d="M51 1305v73h512v-73h-512z" glyph-name="macron" horiz-adv-x="614" unicode="¯"/><glyph d="M319 1188q-95 0 -152.5 56.5t-57.5 148.5t57.5 148t152.5 56t153 -56t58 -148t-58 -148.5t-153 -56.5zM319 1260q57 0 91 36.5t34 96.5t-34 96.5t-91 36.5t-90.5 -36.5t-33.5 -96.5t33.5 -96.5t90.5 -36.5z" glyph-name="degree" horiz-adv-x="638" unicode="°"/><glyph d="M557 672h326v-74h-326v-332h-88v332h-324v74h324v332h88v-332zM145 0v74h738v-74h-738z" glyph-name="plusminus" horiz-adv-x="1028" unicode="±"/><glyph d="M82 1167l186 328h101l-213 -328h-74z" glyph-name="acute" horiz-adv-x="436" unicode="´"/><glyph d="M1018 1577v-2048h-88v1974h-338v-1974h-88v1167q-198 0 -319.5 121.5t-121.5 319.5t121.5 319t319.5 121h514z" glyph-name="paragraph" horiz-adv-x="1251" unicode="¶"/><glyph d="M223 467q-33 0 -53 19.5t-20 50.5t20 50t53 19q34 0 54 -19t20 -50t-20.5 -50.5t-53.5 -19.5z" glyph-name="periodcentered" horiz-adv-x="446" unicode="·"/><glyph d="M283 -141q77 0 123.5 -45.5t46.5 -120.5q0 -83 -73 -134t-192 -51q-47 0 -97.5 14.5t-84.5 37.5v75q36 -26 87 -41.5t97 -15.5q78 0 126.5 31.5t48.5 83.5q0 43 -30 69.5t-79 26.5q-38 0 -74 -15t-55 -40l-57 35l172 274l69 -43l-98 -150l4 -4q41 13 66 13z" glyph-name="cedilla" horiz-adv-x="499" unicode="¸"/><glyph d="M401 967q-132 0 -212 87t-80 228t80 228t212 87q130 0 210.5 -87t80.5 -228t-80.5 -228t-210.5 -87zM401 1036q92 0 148.5 68t56.5 178t-56.5 178t-148.5 68q-93 0 -149.5 -67.5t-56.5 -178.5t56.5 -178.5t149.5 -67.5z" glyph-name="ordmasculine" horiz-adv-x="800" unicode="º"/><glyph d="M152 240l245 292l-245 293h98l252 -293l-252 -292h-98zM459 240l246 292l-246 293h98l252 -293l-252 -292h-98z" glyph-name="guillemotright" horiz-adv-x="911" unicode="»"/><glyph d="M1110 1577h96l-1032 -1577h-96zM272 692v705h-170v63q88 0 132.5 26t66.5 91h59v-885h-88zM1423 303v-74h-118v-229h-88v229h-443v82l420 574h111v-582h118zM1217 795l-357 -490v-2h359v492h-2z" glyph-name="onequarter" horiz-adv-x="1495" unicode="¼"/><glyph d="M1106 1577h96l-1032 -1577h-96zM268 692v705h-170v63q88 0 132.5 26t66.5 91h59v-885h-88zM956 74h517v-74h-619v84q241 129 372.5 272.5t131.5 284.5q0 85 -52.5 132.5t-144.5 47.5q-94 0 -150.5 -56t-60.5 -155h-86q8 135 86 211t211 76q136 0 212.5 -68t76.5 -190 q0 -151 -132 -297.5t-362 -265.5v-2z" glyph-name="onehalf" horiz-adv-x="1548" unicode="½"/><glyph d="M692 928q0 -117 -81.5 -182.5t-227.5 -65.5q-135 0 -213 73t-84 205h84q5 -96 61 -150t152 -54q103 0 161 47.5t58 132.5t-60 131.5t-167 46.5h-27v70h17q99 0 154.5 44t55.5 122t-51 123t-141 45q-88 0 -140.5 -54t-56.5 -151h-84q6 131 81 204.5t200 73.5 q133 0 208 -62.5t75 -172.5q0 -152 -168 -203v-2q94 -22 144 -79t50 -142zM1382 1577h97l-1033 -1577h-96zM1696 303v-74h-119v-229h-88v229h-442v82l419 574h111v-582h119zM1489 795l-356 -490v-2h358v492h-2z" glyph-name="threequarters" horiz-adv-x="1767" unicode="¾"/><glyph d="M567 926q-33 0 -53 19t-20 50t20 50.5t53 19.5t53.5 -19.5t20.5 -50.5t-20 -50t-54 -19zM508 -492q-209 0 -336 105.5t-127 277.5q0 25 6 51t12.5 45.5t24 46t27.5 41t36 42.5t36.5 38.5l42 42l40.5 40.5q52 53 78.5 81t67.5 80t61.5 93.5t36.5 98.5t16 116h78v-13 q0 -66 -17 -128.5t-39 -107.5t-63.5 -99t-69.5 -83.5t-79 -80.5l-37 -37l-38 -38t-32.5 -34.5t-32 -37.5t-24 -35.5t-21 -40t-11 -38.5t-5.5 -43q0 -132 101.5 -213t267.5 -81t273 95.5t116 252.5h90q-9 -197 -140.5 -317t-338.5 -120z" glyph-name="questiondown" horiz-adv-x="1024" unicode="¿"/><glyph d="M733 1720h-74l-213 328h101zM1235 0l-162 438h-788l-164 -438h-101l601 1577h116l602 -1577h-104zM317 524h723l-358 969h-4z" glyph-name="Agrave" horiz-adv-x="1359" unicode="À"/><glyph d="M911 2048l-213 -328h-73l186 328h100zM1235 0l-162 438h-788l-164 -438h-101l601 1577h116l602 -1577h-104zM317 524h723l-358 969h-4z" glyph-name="Aacute" horiz-adv-x="1359" unicode="Á"/><glyph d="M678 1974l-201 -254h-92l240 308h110l240 -308h-92l-201 254h-4zM1235 0l-162 438h-788l-164 -438h-101l601 1577h116l602 -1577h-104zM317 524h723l-358 969h-4z" glyph-name="Acircumflex" horiz-adv-x="1359" unicode="Â"/><glyph d="M530 1888q-47 0 -76 -41.5t-34 -115.5h-72q0 112 48 174.5t134 62.5q49 0 93 -23.5t71.5 -51t62.5 -51t68 -23.5q47 0 77 42t34 115h72q0 -112 -48.5 -174.5t-134.5 -62.5q-49 0 -93 23.5t-71.5 51t-62.5 51t-68 23.5zM1235 0l-162 438h-788l-164 -438h-101l601 1577h116 l602 -1577h-104zM317 524h723l-358 969h-4z" glyph-name="Atilde" horiz-adv-x="1359" unicode="Ã"/><glyph d="M541 1726q-29 0 -47.5 17t-18.5 45q0 29 18.5 47t47.5 18q31 0 49 -18t18 -47q0 -28 -18 -45t-49 -17zM815 1726q-29 0 -47 17t-18 45q0 29 18 47t47 18q31 0 49.5 -18t18.5 -47q0 -28 -18.5 -45t-49.5 -17zM1235 0l-162 438h-788l-164 -438h-101l601 1577h116l602 -1577 h-104zM317 524h723l-358 969h-4z" glyph-name="Adieresis" horiz-adv-x="1359" unicode="Ä"/><glyph d="M680 1704q-100 0 -160.5 59t-60.5 154t60.5 154t160.5 59t160.5 -59t60.5 -154t-60.5 -154t-160.5 -59zM680 2060q-63 0 -101 -39t-38 -104t38 -104t101 -39t101 39t38 104t-38 104t-101 39zM1235 0l-162 438h-788l-164 -438h-101l601 1577h116l602 -1577h-104zM317 524 h723l-358 969h-4z" glyph-name="Aring" horiz-adv-x="1359" unicode="Å"/><glyph d="M1257 86h797v-86h-880l-99 436h-778l-221 -436h-101l801 1577h1256v-86h-1106l147 -629h885v-86h-864zM340 522h717l-219 973h-4z" glyph-name="AE" horiz-adv-x="2160" unicode="Æ"/><glyph d="M811 70q217 0 373 129t194 340h97q-41 -241 -211 -393t-410 -164l-86 -132l4 -4q41 13 66 13q77 0 123.5 -45.5t46.5 -120.5q0 -83 -73 -134t-192 -51q-47 0 -97.5 14.5t-84.5 37.5v75q36 -26 87 -41.5t97 -15.5q78 0 126.5 31.5t48.5 83.5q0 43 -30 69.5t-79 26.5 q-39 0 -74.5 -15t-54.5 -40l-57 35l133 213q-193 13 -339 116t-226 281.5t-80 408.5q0 240 86.5 424t245 284.5t366.5 100.5q258 0 439.5 -148.5t224.5 -393.5h-97q-38 204 -194 328t-373 124q-179 0 -316.5 -89t-212.5 -252.5t-75 -377.5q0 -324 166 -521t438 -197z" glyph-name="Ccedilla" horiz-adv-x="1566" unicode="Ç"/><glyph d="M741 1720h-73l-213 328h100zM309 86h883v-86h-975v1577h950v-86h-858v-631h785v-86h-785v-688z" glyph-name="Egrave" horiz-adv-x="1296" unicode="È"/><glyph d="M920 2048l-213 -328h-74l186 328h101zM309 86h883v-86h-975v1577h950v-86h-858v-631h785v-86h-785v-688z" glyph-name="Eacute" horiz-adv-x="1296" unicode="É"/><glyph d="M686 1974l-201 -254h-92l240 308h110l240 -308h-92l-201 254h-4zM309 86h883v-86h-975v1577h950v-86h-858v-631h785v-86h-785v-688z" glyph-name="Ecircumflex" horiz-adv-x="1296" unicode="Ê"/><glyph d="M549 1726q-29 0 -47.5 17t-18.5 45q0 29 18.5 47t47.5 18q31 0 49 -18t18 -47q0 -28 -18 -45t-49 -17zM823 1726q-29 0 -47 17t-18 45q0 29 18 47t47 18q31 0 49.5 -18t18.5 -47q0 -28 -18.5 -45t-49.5 -17zM309 86h883v-86h-975v1577h950v-86h-858v-631h785v-86h-785 v-688z" glyph-name="Edieresis" horiz-adv-x="1296" unicode="Ë"/><glyph d="M317 1720h-73l-213 328h100zM217 0v1577h92v-1577h-92z" glyph-name="Igrave" horiz-adv-x="526" unicode="Ì"/><glyph d="M209 1720l186 328h101l-213 -328h-74zM217 0v1577h92v-1577h-92z" glyph-name="Iacute" horiz-adv-x="526" unicode="Í"/><glyph d="M319 2028l240 -308h-92l-201 254h-4l-201 -254h-92l240 308h110zM217 0v1577h92v-1577h-92z" glyph-name="Icircumflex" horiz-adv-x="526" unicode="Î"/><glyph d="M125 1726q-29 0 -47.5 17t-18.5 45q0 29 18.5 47t47.5 18q31 0 49.5 -18t18.5 -47q0 -28 -18.5 -45t-49.5 -17zM399 1726q-29 0 -47 17t-18 45q0 29 18 47t47 18q31 0 49.5 -18t18.5 -47q0 -28 -18.5 -45t-49.5 -17zM217 0v1577h92v-1577h-92z" glyph-name="Idieresis" horiz-adv-x="526" unicode="Ï"/><glyph d="M643 1577q212 0 374.5 -98t251.5 -277.5t89 -413.5t-89 -413t-251.5 -277t-374.5 -98h-414v762h-145v74h145v741h414zM653 86q275 0 443 193t168 509q0 317 -168 510t-443 193h-331v-655h407v-74h-407v-676h331z" glyph-name="Eth" horiz-adv-x="1470" unicode="Ð"/><glyph d="M610 1888q-47 0 -76 -41.5t-34 -115.5h-72q0 112 48 174.5t134 62.5q49 0 93 -23.5t71.5 -51t62.5 -51t68 -23.5q47 0 77 42t34 115h71q0 -112 -48 -174.5t-134 -62.5q-49 0 -93 23.5t-71.5 51t-62.5 51t-68 23.5zM1212 1577h88v-1577h-94l-893 1415h-4v-1415h-92v1577 h98l893 -1419h4v1419z" glyph-name="Ntilde" horiz-adv-x="1517" unicode="Ñ"/><glyph d="M870 1720h-73l-213 328h100zM817 -20q-209 0 -369 100.5t-247.5 284t-87.5 423.5t87.5 424t247.5 284.5t369 100.5t369 -100.5t248 -284.5t88 -424t-88 -423.5t-248 -284t-369 -100.5zM817 70q275 0 442.5 197t167.5 521t-167.5 521.5t-442.5 197.5t-442.5 -197.5 t-167.5 -521.5t167.5 -521t442.5 -197z" glyph-name="Ograve" horiz-adv-x="1634" unicode="Ò"/><glyph d="M762 1720l186 328h101l-213 -328h-74zM817 -20q-209 0 -369 100.5t-247.5 284t-87.5 423.5t87.5 424t247.5 284.5t369 100.5t369 -100.5t248 -284.5t88 -424t-88 -423.5t-248 -284t-369 -100.5zM817 70q275 0 442.5 197t167.5 521t-167.5 521.5t-442.5 197.5 t-442.5 -197.5t-167.5 -521.5t167.5 -521t442.5 -197z" glyph-name="Oacute" horiz-adv-x="1634" unicode="Ó"/><glyph d="M815 1974l-201 -254h-92l240 308h110l240 -308h-92l-201 254h-4zM817 1597q209 0 369 -100.5t248 -284.5t88 -424t-88 -423.5t-248 -284t-369 -100.5t-369 100.5t-247.5 284t-87.5 423.5t87.5 424t247.5 284.5t369 100.5zM817 70q275 0 442.5 197t167.5 521t-167.5 521.5 t-442.5 197.5t-442.5 -197.5t-167.5 -521.5t167.5 -521t442.5 -197z" glyph-name="Ocircumflex" horiz-adv-x="1634" unicode="Ô"/><glyph d="M485 1731q0 112 48.5 174.5t134.5 62.5q49 0 93 -23.5t71.5 -51t62.5 -51t68 -23.5q47 0 76 41.5t34 115.5h72q0 -112 -48 -174.5t-134 -62.5q-49 0 -93 23.5t-71.5 51t-62.5 51t-68 23.5q-47 0 -77 -42t-34 -115h-72zM817 -20q-209 0 -369 100.5t-247.5 284t-87.5 423.5 t87.5 424t247.5 284.5t369 100.5t369 -100.5t248 -284.5t88 -424t-88 -423.5t-248 -284t-369 -100.5zM817 70q275 0 442.5 197t167.5 521t-167.5 521.5t-442.5 197.5t-442.5 -197.5t-167.5 -521.5t167.5 -521t442.5 -197z" glyph-name="Otilde" horiz-adv-x="1634" unicode="Õ"/><glyph d="M678 1726q-29 0 -47.5 17t-18.5 45q0 29 18.5 47t47.5 18q31 0 49 -18t18 -47q0 -28 -18 -45t-49 -17zM952 1726q-29 0 -47 17t-18 45q0 29 18 47t47 18q31 0 49.5 -18t18.5 -47q0 -28 -18.5 -45t-49.5 -17zM817 -20q-209 0 -369 100.5t-247.5 284t-87.5 423.5t87.5 424 t247.5 284.5t369 100.5t369 -100.5t248 -284.5t88 -424t-88 -423.5t-248 -284t-369 -100.5zM817 70q275 0 442.5 197t167.5 521t-167.5 521.5t-442.5 197.5t-442.5 -197.5t-167.5 -521.5t167.5 -521t442.5 -197z" glyph-name="Odieresis" horiz-adv-x="1634" unicode="Ö"/><glyph d="M866 807l-303 -303l303 -303l-59 -60l-303 303l-305 -303l-58 60l303 303l-303 303l58 59l305 -303l303 303z" glyph-name="multiply" horiz-adv-x="1007" unicode="×"/><glyph d="M1260 1440q123 -107 190.5 -274.5t67.5 -377.5q0 -240 -88 -423.5t-248 -284t-369 -100.5q-205 0 -367 98l-90 -152l-84 51l95 160q-123 107 -190.5 274.5t-67.5 376.5q0 240 87.5 424t247.5 284.5t369 100.5q205 0 367 -98l90 152l84 -54zM203 788q0 -183 55.5 -328.5 t157.5 -240.5l714 1200q-136 88 -317 88q-275 0 -442.5 -197.5t-167.5 -521.5zM813 70q275 0 442.5 197t167.5 521q0 182 -55 328t-158 242l-714 -1200q136 -88 317 -88z" glyph-name="Oslash" horiz-adv-x="1626" unicode="Ø"/><glyph d="M795 1720h-74l-213 328h100zM741 -20q-244 0 -393 156t-149 411v1030h92v-1040q0 -211 123.5 -339t326.5 -128q204 0 329.5 128.5t125.5 338.5v1040h88v-1030q0 -255 -149.5 -411t-393.5 -156z" glyph-name="Ugrave" horiz-adv-x="1482" unicode="Ù"/><glyph d="M686 1720l186 328h101l-213 -328h-74zM741 -20q-244 0 -393 156t-149 411v1030h92v-1040q0 -211 123.5 -339t326.5 -128q204 0 329.5 128.5t125.5 338.5v1040h88v-1030q0 -255 -149.5 -411t-393.5 -156z" glyph-name="Uacute" horiz-adv-x="1482" unicode="Ú"/><glyph d="M739 1974l-200 -254h-93l240 308h111l239 -308h-92l-201 254h-4zM1196 1577h88v-1030q0 -255 -149.5 -411t-393.5 -156t-393 156t-149 411v1030h92v-1040q0 -211 123.5 -339t326.5 -128q204 0 329.5 128.5t125.5 338.5v1040z" glyph-name="Ucircumflex" horiz-adv-x="1482" unicode="Û"/><glyph d="M602 1726q-29 0 -47 17t-18 45q0 29 18 47t47 18q31 0 49.5 -18t18.5 -47q0 -28 -18.5 -45t-49.5 -17zM877 1726q-29 0 -47.5 17t-18.5 45q0 29 18.5 47t47.5 18q31 0 49 -18t18 -47q0 -28 -18 -45t-49 -17zM741 -20q-244 0 -393 156t-149 411v1030h92v-1040 q0 -211 123.5 -339t326.5 -128q204 0 329.5 128.5t125.5 338.5v1040h88v-1030q0 -255 -149.5 -411t-393.5 -156z" glyph-name="Udieresis" horiz-adv-x="1482" unicode="Ü"/><glyph d="M889 2048l-213 -328h-74l186 328h101zM1298 1577l-596 -954v-623h-92v625l-596 952h113l532 -860h5l528 860h106z" glyph-name="Yacute" horiz-adv-x="1312" unicode="Ý"/><glyph d="M727 1278q220 0 355 -127t135 -334q0 -209 -135 -336t-357 -127h-416v-354h-92v1577h92v-299h418zM733 438q175 0 282 104.5t107 274.5q0 169 -107 272t-280 103h-426v-754h424z" glyph-name="Thorn" horiz-adv-x="1312" unicode="Þ"/><glyph d="M776 891q194 -29 308 -148t114 -297q0 -210 -139 -338t-367 -128q-115 0 -196 24v76q87 -23 198 -23q186 0 300 109t114 287q0 177 -126.5 285t-332.5 108h-92v74q196 0 316 87t120 228q0 128 -92 206.5t-242 78.5q-170 0 -274 -95.5t-104 -250.5v-1174h-88v1169 q0 192 128 310t338 118q190 0 307 -98t117 -258q0 -125 -81.5 -215.5t-225.5 -130.5v-4z" glyph-name="germandbls" horiz-adv-x="1298" unicode="ß"/><glyph d="M664 1247h-74l-213 328h100zM993 1044h88v-1044h-88v223h-4q-45 -113 -158.5 -178t-255.5 -65q-211 0 -338.5 148.5t-127.5 393.5q0 244 129 393.5t340 149.5q140 0 252.5 -65.5t158.5 -180.5h4v225zM596 57q179 0 288 128t109 337t-109 337t-288 128t-288 -128 t-109 -337t109 -337t288 -128z" glyph-name="agrave" horiz-adv-x="1273" unicode="à"/><glyph d="M842 1575l-213 -328h-74l186 328h101zM993 1044h88v-1044h-88v223h-4q-45 -113 -158.5 -178t-255.5 -65q-211 0 -338.5 148.5t-127.5 393.5q0 244 129 393.5t340 149.5q140 0 252.5 -65.5t158.5 -180.5h4v225zM596 57q179 0 288 128t109 337t-109 337t-288 128t-288 -128 t-109 -337t109 -337t288 -128z" glyph-name="aacute" horiz-adv-x="1273" unicode="á"/><glyph d="M608 1522l-200 -254h-93l240 307h111l239 -307h-92l-201 254h-4zM993 1044h88v-1044h-88v223h-4q-45 -113 -158.5 -178t-255.5 -65q-211 0 -338.5 148.5t-127.5 393.5q0 244 129 393.5t340 149.5q140 0 252.5 -65.5t158.5 -180.5h4v225zM596 57q179 0 288 128t109 337 t-109 337t-288 128t-288 -128t-109 -337t109 -337t288 -128z" glyph-name="acircumflex" horiz-adv-x="1273" unicode="â"/><glyph d="M461 1436q-47 0 -76.5 -42t-34.5 -116h-71q0 113 48 175.5t134 62.5q49 0 93 -23.5t71.5 -51.5t62.5 -51.5t68 -23.5q47 0 76 42t34 116h72q0 -113 -48 -175.5t-134 -62.5q-49 0 -93 23.5t-71.5 51.5t-62.5 51.5t-68 23.5zM993 1044h88v-1044h-88v223h-4 q-45 -113 -158.5 -178t-255.5 -65q-211 0 -338.5 148.5t-127.5 393.5q0 244 129 393.5t340 149.5q140 0 252.5 -65.5t158.5 -180.5h4v225zM596 57q179 0 288 128t109 337t-109 337t-288 128t-288 -128t-109 -337t109 -337t288 -128z" glyph-name="atilde" horiz-adv-x="1273" unicode="ã"/><glyph d="M471 1356q-29 0 -47 16.5t-18 44.5q0 29 18 47.5t47 18.5q31 0 49.5 -18.5t18.5 -47.5q0 -28 -18.5 -44.5t-49.5 -16.5zM745 1356q-29 0 -47 16.5t-18 44.5q0 29 18 47.5t47 18.5q31 0 49.5 -18.5t18.5 -47.5q0 -28 -18.5 -44.5t-49.5 -16.5zM993 1044h88v-1044h-88v223 h-4q-45 -113 -158.5 -178t-255.5 -65q-211 0 -338.5 148.5t-127.5 393.5q0 244 129 393.5t340 149.5q140 0 252.5 -65.5t158.5 -180.5h4v225zM596 57q179 0 288 128t109 337t-109 337t-288 128t-288 -128t-109 -337t109 -337t288 -128z" glyph-name="adieresis" horiz-adv-x="1273" unicode="ä"/><glyph d="M610 1169q-100 0 -160.5 59t-60.5 154t60.5 154t160.5 59t160.5 -59t60.5 -154t-60.5 -154t-160.5 -59zM610 1526q-63 0 -101 -39.5t-38 -104.5t38 -104t101 -39t101.5 39.5t38.5 103.5q0 65 -38.5 104.5t-101.5 39.5zM993 1044h88v-1044h-88v223h-4 q-45 -113 -158.5 -178t-255.5 -65q-211 0 -338.5 148.5t-127.5 393.5q0 244 129 393.5t340 149.5q140 0 252.5 -65.5t158.5 -180.5h4v225zM596 57q179 0 288 128t109 337t-109 337t-288 128t-288 -128t-109 -337t109 -337t288 -128z" glyph-name="aring" horiz-adv-x="1273" unicode="å"/><glyph d="M1792 520v-22h-858q6 -200 111 -320.5t274 -120.5q138 0 242.5 82t136.5 215h92q-37 -169 -166.5 -271.5t-306.5 -102.5q-156 0 -264 79t-154 224h-4q-44 -145 -167 -224t-308 -79q-146 0 -235 74.5t-89 197.5q0 45 9 81t31 67.5t50.5 55.5t77.5 46.5t100.5 39.5t131 36 t157.5 34.5t191 36.5v109q0 103 -84.5 165t-224.5 62q-135 0 -220.5 -73t-89.5 -193h-90q5 155 114 250.5t283 95.5q159 0 262.5 -71t120.5 -191h5q54 124 158 193t239 69q214 0 344.5 -149.5t130.5 -395.5zM1319 985q-161 0 -264.5 -111t-118.5 -296h764 q-15 185 -118.5 296t-262.5 111zM422 57q96 0 177 30t133.5 79.5t82 111t29.5 125.5v170q-47 -10 -135 -27q-105 -21 -154 -32t-123.5 -30.5t-108 -38.5t-71.5 -47t-52 -64.5t-14 -83.5q0 -86 65 -139.5t171 -53.5z" glyph-name="ae" horiz-adv-x="1900" unicode="æ"/><glyph d="M1051 330q-29 -149 -143 -243t-277 -105l-86 -132l4 -4q41 13 65 13q77 0 123.5 -45.5t46.5 -120.5q0 -83 -72.5 -134t-191.5 -51q-47 0 -97.5 14.5t-84.5 37.5v75q36 -26 87 -41.5t97 -15.5q78 0 126 31.5t48 83.5q0 43 -29.5 69.5t-78.5 26.5q-38 0 -74 -15t-55 -40 l-58 35l134 213q-194 19 -311.5 165.5t-117.5 374.5q0 244 132.5 393.5t349.5 149.5q166 0 290.5 -92.5t161.5 -243.5h-94q-32 115 -130.5 185.5t-227.5 70.5q-177 0 -284 -127t-107 -336q0 -210 107 -337.5t284 -127.5q140 0 240.5 75t125.5 198h97z" glyph-name="ccedilla" horiz-adv-x="1136" unicode="ç"/><glyph d="M643 1249h-74l-213 328h101zM1073 520v-22h-876q6 -199 113.5 -320t279.5 -121q143 0 251 82t142 215h88q-38 -169 -170 -271.5t-311 -102.5q-218 0 -351 148.5t-133 391.5q0 246 133 395.5t351 149.5t350.5 -149.5t132.5 -395.5zM590 985q-164 0 -270 -111t-121 -296 h782q-15 185 -121 296t-270 111z" glyph-name="egrave" horiz-adv-x="1181" unicode="è"/><glyph d="M821 1577l-213 -328h-73l186 328h100zM1073 520v-22h-876q6 -199 113.5 -320t279.5 -121q143 0 251 82t142 215h88q-38 -169 -170 -271.5t-311 -102.5q-218 0 -351 148.5t-133 391.5q0 246 133 395.5t351 149.5t350.5 -149.5t132.5 -395.5zM590 985q-164 0 -270 -111 t-121 -296h782q-15 185 -121 296t-270 111z" glyph-name="eacute" horiz-adv-x="1181" unicode="é"/><glyph d="M588 1524l-201 -254h-92l240 307h110l240 -307h-92l-201 254h-4zM1073 520v-22h-876q6 -199 113.5 -320t279.5 -121q143 0 251 82t142 215h88q-38 -169 -170 -271.5t-311 -102.5q-218 0 -351 148.5t-133 391.5q0 246 133 395.5t351 149.5t350.5 -149.5t132.5 -395.5z M590 985q-164 0 -270 -111t-121 -296h782q-15 185 -121 296t-270 111z" glyph-name="ecircumflex" horiz-adv-x="1181" unicode="ê"/><glyph d="M451 1358q-29 0 -47.5 16.5t-18.5 44.5q0 29 18.5 47.5t47.5 18.5q31 0 49 -18.5t18 -47.5q0 -28 -18 -44.5t-49 -16.5zM725 1358q-29 0 -47.5 16.5t-18.5 44.5q0 29 18.5 47.5t47.5 18.5q31 0 49.5 -18.5t18.5 -47.5q0 -28 -18.5 -44.5t-49.5 -16.5zM1073 520v-22h-876 q6 -199 113.5 -320t279.5 -121q143 0 251 82t142 215h88q-38 -169 -170 -271.5t-311 -102.5q-218 0 -351 148.5t-133 391.5q0 246 133 395.5t351 149.5t350.5 -149.5t132.5 -395.5zM590 985q-164 0 -270 -111t-121 -296h782q-15 185 -121 296t-270 111z" glyph-name="edieresis" horiz-adv-x="1181" unicode="ë"/><glyph d="M299 1249h-74l-213 328h101zM201 0v1044h88v-1044h-88z" glyph-name="igrave" horiz-adv-x="489" unicode="ì"/><glyph d="M190 1249l187 328h100l-213 -328h-74zM201 0v1044h88v-1044h-88z" glyph-name="iacute" horiz-adv-x="489" unicode="í"/><glyph d="M301 1577l240 -307h-92l-201 254h-4l-201 -254h-92l239 307h111zM201 0v1044h88v-1044h-88z" glyph-name="icircumflex" horiz-adv-x="489" unicode="î"/><glyph d="M106 1358q-29 0 -47 16.5t-18 44.5q0 29 18 47.5t47 18.5q31 0 49.5 -18.5t18.5 -47.5q0 -28 -18.5 -44.5t-49.5 -16.5zM381 1358q-29 0 -47.5 16.5t-18.5 44.5q0 29 18.5 47.5t47.5 18.5q31 0 49.5 -18.5t18.5 -47.5q0 -28 -18.5 -44.5t-49.5 -16.5zM201 0v1044h88 v-1044h-88z" glyph-name="idieresis" horiz-adv-x="489" unicode="ï"/><glyph d="M627 1425q245 -148 349.5 -357t104.5 -525q0 -254 -133.5 -408.5t-353.5 -154.5t-354 149t-134 393q0 245 133 394t351 149q135 0 238 -66t159 -184q-37 185 -143 323t-297 246l-289 -141l-39 64l246 120q-133 63 -246 101l29 69q163 -55 301 -129l262 129l39 -63z M594 57q179 0 288 128t109 337t-109 337t-288 128t-288 -128t-109 -337t109 -337t288 -128z" glyph-name="eth" horiz-adv-x="1216" unicode="ð"/><glyph d="M473 1438q-47 0 -76.5 -42t-34.5 -116h-71q0 113 48 175.5t134 62.5q49 0 93 -23.5t71.5 -51.5t62.5 -51.5t68 -23.5q47 0 76.5 42t34.5 116h71q0 -113 -48 -175.5t-134 -62.5q-49 0 -93 23.5t-71.5 51.5t-62.5 51.5t-68 23.5zM662 1065q177 0 284 -114t107 -302v-649 h-88v659q0 146 -88.5 236t-233.5 90q-163 0 -262.5 -113t-99.5 -297v-575h-88v1044h88v-204h4q40 101 143.5 163t233.5 62z" glyph-name="ntilde" horiz-adv-x="1226" unicode="ñ"/><glyph d="M647 1249h-74l-213 328h101zM594 -20q-220 0 -354 149t-134 393q0 245 134 394t354 149t353.5 -149t133.5 -394t-133.5 -393.5t-353.5 -148.5zM594 57q179 0 288 128t109 337t-109 337t-288 128t-288 -128t-109 -337t109 -337t288 -128z" glyph-name="ograve" horiz-adv-x="1187" unicode="ò"/><glyph d="M539 1249l186 328h100l-213 -328h-73zM594 -20q-220 0 -354 149t-134 393q0 245 134 394t354 149t353.5 -149t133.5 -394t-133.5 -393.5t-353.5 -148.5zM594 57q179 0 288 128t109 337t-109 337t-288 128t-288 -128t-109 -337t109 -337t288 -128z" glyph-name="oacute" horiz-adv-x="1187" unicode="ó"/><glyph d="M592 1524l-201 -254h-92l240 307h110l240 -307h-92l-201 254h-4zM594 1065q220 0 353.5 -149t133.5 -394t-133.5 -393.5t-353.5 -148.5t-354 149t-134 393q0 245 134 394t354 149zM594 57q179 0 288 128t109 337t-109 337t-288 128t-288 -128t-109 -337t109 -337 t288 -128z" glyph-name="ocircumflex" horiz-adv-x="1187" unicode="ô"/><glyph d="M262 1280q0 113 48 175.5t134 62.5q49 0 93 -23.5t71.5 -51.5t62.5 -51.5t68 -23.5q47 0 76.5 42t34.5 116h72q0 -112 -48.5 -175t-134.5 -63q-49 0 -93 23.5t-71.5 51.5t-62.5 51.5t-68 23.5q-47 0 -76 -42t-34 -116h-72zM594 -20q-220 0 -354 149t-134 393 q0 245 134 394t354 149t353.5 -149t133.5 -394t-133.5 -393.5t-353.5 -148.5zM594 57q179 0 288 128t109 337t-109 337t-288 128t-288 -128t-109 -337t109 -337t288 -128z" glyph-name="otilde" horiz-adv-x="1187" unicode="õ"/><glyph d="M455 1358q-29 0 -47.5 16.5t-18.5 44.5q0 29 18.5 47.5t47.5 18.5q31 0 49 -18.5t18 -47.5q0 -28 -18 -44.5t-49 -16.5zM729 1358q-29 0 -47 16.5t-18 44.5q0 29 18 47.5t47 18.5q31 0 49.5 -18.5t18.5 -47.5q0 -28 -18.5 -44.5t-49.5 -16.5zM594 -20q-220 0 -354 149 t-134 393q0 245 134 394t354 149t353.5 -149t133.5 -394t-133.5 -393.5t-353.5 -148.5zM594 57q179 0 288 128t109 337t-109 337t-288 128t-288 -128t-109 -337t109 -337t288 -128z" glyph-name="odieresis" horiz-adv-x="1187" unicode="ö"/><glyph d="M522 696q-29 0 -47 17t-18 45q0 29 18 47t47 18q31 0 49.5 -18t18.5 -47q0 -28 -18.5 -45t-49.5 -17zM154 479v74h737v-74h-737zM522 209q-29 0 -47 16.5t-18 44.5q0 29 18 47.5t47 18.5q31 0 49.5 -18.5t18.5 -47.5q0 -28 -18.5 -44.5t-49.5 -16.5z" glyph-name="divide" horiz-adv-x="1044" unicode="÷"/><glyph d="M926 940q155 -152 155 -418q0 -245 -133.5 -393.5t-353.5 -148.5q-148 0 -258 69l-80 -121l-78 52l84 126q-74 71 -115 178.5t-41 237.5q0 245 134 394t354 149q146 0 258 -70l80 121l78 -49zM197 522q0 -216 114 -342l496 746q-95 61 -213 61q-179 0 -288 -128 t-109 -337zM594 57q179 0 288 128t109 337q0 214 -114 344l-496 -747q94 -62 213 -62z" glyph-name="oslash" horiz-adv-x="1187" unicode="ø"/><glyph d="M651 1249h-73l-213 328h100zM594 -20q-189 0 -304.5 118t-115.5 310v636h88v-626q0 -163 91.5 -262t240.5 -99t240.5 99t91.5 262v626h88v-636q0 -192 -115.5 -310t-304.5 -118z" glyph-name="ugrave" horiz-adv-x="1187" unicode="ù"/><glyph d="M543 1249l186 328h100l-213 -328h-73zM594 -20q-189 0 -304.5 118t-115.5 310v636h88v-626q0 -163 91.5 -262t240.5 -99t240.5 99t91.5 262v626h88v-636q0 -192 -115.5 -310t-304.5 -118z" glyph-name="uacute" horiz-adv-x="1187" unicode="ú"/><glyph d="M596 1524l-201 -254h-92l240 307h110l240 -307h-92l-201 254h-4zM926 1044h88v-636q0 -192 -115.5 -310t-304.5 -118t-304.5 118t-115.5 310v636h88v-626q0 -163 91.5 -262t240.5 -99t240.5 99t91.5 262v626z" glyph-name="ucircumflex" horiz-adv-x="1187" unicode="û"/><glyph d="M459 1358q-29 0 -47.5 16.5t-18.5 44.5q0 29 18.5 47.5t47.5 18.5q31 0 49 -18.5t18 -47.5q0 -28 -18 -44.5t-49 -16.5zM733 1358q-29 0 -47 16.5t-18 44.5q0 29 18 47.5t47 18.5q31 0 49.5 -18.5t18.5 -47.5q0 -28 -18.5 -44.5t-49.5 -16.5zM594 -20q-189 0 -304.5 118 t-115.5 310v636h88v-626q0 -163 91.5 -262t240.5 -99t240.5 99t91.5 262v626h88v-636q0 -192 -115.5 -310t-304.5 -118z" glyph-name="udieresis" horiz-adv-x="1187" unicode="ü"/><glyph d="M774 1577l-213 -328h-74l187 328h100zM944 1044h92l-647 -1515h-92l195 459l-455 1056h96l402 -956h4z" glyph-name="yacute" horiz-adv-x="1075" unicode="ý"/><glyph d="M698 1065q211 0 339 -149t128 -394q0 -244 -129 -393t-340 -149q-141 0 -253.5 65t-157.5 178h-4v-694h-88v2048h88v-758h4q47 115 159 180.5t254 65.5zM678 57q179 0 288 128t109 337t-109 336t-288 127t-288 -127t-109 -336t109 -337t288 -128z" glyph-name="thorn" horiz-adv-x="1273" unicode="þ"/><glyph d="M403 1358q-29 0 -47 16.5t-18 44.5q0 29 18 47.5t47 18.5q31 0 49.5 -18.5t18.5 -47.5q0 -28 -18.5 -44.5t-49.5 -16.5zM678 1358q-29 0 -47.5 16.5t-18.5 44.5q0 29 18.5 47.5t47.5 18.5q30 0 48.5 -18.5t18.5 -47.5q0 -28 -18 -44.5t-49 -16.5zM944 1044h92l-647 -1515 h-92l195 459l-455 1056h96l402 -956h4z" glyph-name="ydieresis" horiz-adv-x="1075" unicode="ÿ"/><glyph d="M936 1808v-73h-512v73h512zM1235 0l-162 438h-788l-164 -438h-101l601 1577h116l602 -1577h-104zM317 524h723l-358 969h-4z" glyph-name="Amacron" horiz-adv-x="1359" unicode="Ā"/><glyph d="M866 1438v-74h-512v74h512zM993 1044h88v-1044h-88v223h-4q-45 -113 -158.5 -178t-255.5 -65q-211 0 -338.5 148.5t-127.5 393.5q0 244 129 393.5t340 149.5q140 0 252.5 -65.5t158.5 -180.5h4v225zM596 57q179 0 288 128t109 337t-109 337t-288 128t-288 -128t-109 -337 t109 -337t288 -128z" glyph-name="amacron" horiz-adv-x="1273" unicode="ā"/><glyph d="M680 1714q-121 0 -195.5 86.5t-74.5 227.5h79q0 -109 52.5 -175.5t138.5 -66.5t138 66.5t52 175.5h80q0 -141 -74.5 -227.5t-195.5 -86.5zM1235 0l-162 438h-788l-164 -438h-101l601 1577h116l602 -1577h-104zM317 524h723l-358 969h-4z" glyph-name="Abreve" horiz-adv-x="1359" unicode="Ă"/><glyph d="M610 1262q-122 0 -196 86t-74 227h80q0 -109 52 -175.5t138 -66.5t138.5 66.5t52.5 175.5h80q0 -141 -74.5 -227t-196.5 -86zM993 1044h88v-1044h-88v223h-4q-45 -113 -158.5 -178t-255.5 -65q-211 0 -338.5 148.5t-127.5 393.5q0 244 129 393.5t340 149.5 q140 0 252.5 -65.5t158.5 -180.5h4v225zM596 57q179 0 288 128t109 337t-109 337t-288 128t-288 -128t-109 -337t109 -337t288 -128z" glyph-name="abreve" horiz-adv-x="1273" unicode="ă"/><glyph d="M1141 -324q0 -44 28 -71t72 -27q49 0 98 27v-70q-56 -27 -114 -27q-77 0 -124.5 43t-47.5 113q0 57 52 148t140 188h-10l-162 438h-788l-164 -438h-101l601 1577h116l602 -1577q-89 -92 -143.5 -181t-54.5 -143zM317 524h723l-358 969h-4z" glyph-name="Aogonek" horiz-adv-x="1359" unicode="Ą"/><glyph d="M1081 1044v-1044q-89 -92 -143.5 -181t-54.5 -143q0 -44 28 -71t72 -27q49 0 98 27v-70q-56 -27 -114 -27q-77 0 -124.5 43t-47.5 113q0 58 53.5 151t144.5 191v217h-4q-45 -113 -158.5 -178t-255.5 -65q-211 0 -338.5 148.5t-127.5 393.5q0 244 129 393.5t340 149.5 q140 0 252.5 -65.5t158.5 -180.5h4v225h88zM596 57q179 0 288 128t109 337t-109 337t-288 128t-288 -128t-109 -337t109 -337t288 -128z" glyph-name="aogonek" horiz-adv-x="1273" unicode="ą"/><glyph d="M756 1720l186 328h100l-213 -328h-73zM811 -20q-208 0 -366.5 100.5t-245 284t-86.5 423.5t86.5 424t245 284.5t366.5 100.5q258 0 439.5 -148.5t224.5 -393.5h-97q-38 204 -194 328t-373 124q-179 0 -316.5 -89t-212.5 -252.5t-75 -377.5q0 -324 166 -521t438 -197 q217 0 373 129t194 340h97q-43 -252 -226 -405.5t-438 -153.5z" glyph-name="Cacute" horiz-adv-x="1566" unicode="Ć"/><glyph d="M532 1249l187 328h100l-213 -328h-74zM588 -20q-217 0 -349.5 149t-132.5 393t132.5 393.5t349.5 149.5q166 0 290.5 -92.5t161.5 -243.5h-94q-32 115 -130.5 185.5t-227.5 70.5q-177 0 -284 -127t-107 -336q0 -210 107 -337.5t284 -127.5q140 0 240.5 75t125.5 198h97 q-31 -158 -157.5 -254t-305.5 -96z" glyph-name="cacute" horiz-adv-x="1136" unicode="ć"/><glyph d="M809 1722q-29 0 -47.5 17.5t-18.5 46.5t18.5 47t47.5 18q31 0 49.5 -18t18.5 -47t-18.5 -46.5t-49.5 -17.5zM811 -20q-208 0 -366.5 100.5t-245 284t-86.5 423.5t86.5 424t245 284.5t366.5 100.5q258 0 439.5 -148.5t224.5 -393.5h-97q-38 204 -194 328t-373 124 q-179 0 -316.5 -89t-212.5 -252.5t-75 -377.5q0 -324 166 -521t438 -197q217 0 373 129t194 340h97q-43 -252 -226 -405.5t-438 -153.5z" glyph-name="Cdotaccent" horiz-adv-x="1566" unicode="Ċ"/><glyph d="M586 1354q-30 0 -48 17t-18 46t18.5 47.5t47.5 18.5q30 0 48.5 -18.5t18.5 -47.5t-18 -46t-49 -17zM588 -20q-217 0 -349.5 149t-132.5 393t132.5 393.5t349.5 149.5q166 0 290.5 -92.5t161.5 -243.5h-94q-32 115 -130.5 185.5t-227.5 70.5q-177 0 -284 -127t-107 -336 q0 -210 107 -337.5t284 -127.5q140 0 240.5 75t125.5 198h97q-31 -158 -157.5 -254t-305.5 -96z" glyph-name="cdotaccent" horiz-adv-x="1136" unicode="ċ"/><glyph d="M756 1720l-240 308h92l201 -254h4l201 254h92l-240 -308h-110zM811 70q217 0 373 129t194 340h97q-43 -252 -226 -405.5t-438 -153.5q-208 0 -366.5 100.5t-245 284t-86.5 423.5t86.5 424t245 284.5t366.5 100.5q258 0 439.5 -148.5t224.5 -393.5h-97q-38 204 -194 328 t-373 124q-179 0 -316.5 -89t-212.5 -252.5t-75 -377.5q0 -324 166 -521t438 -197z" glyph-name="Ccaron" horiz-adv-x="1566" unicode="Č"/><glyph d="M532 1270l-239 307h92l201 -254h4l201 254h92l-240 -307h-111zM954 330h97q-31 -158 -157.5 -254t-305.5 -96q-217 0 -349.5 149t-132.5 393t132.5 393.5t349.5 149.5q166 0 290.5 -92.5t161.5 -243.5h-94q-32 115 -130.5 185.5t-227.5 70.5q-177 0 -284 -127t-107 -336 q0 -210 107 -337.5t284 -127.5q140 0 240.5 75t125.5 198z" glyph-name="ccaron" horiz-adv-x="1136" unicode="č"/><glyph d="M573 1720l-239 308h92l201 -254h4l200 254h93l-240 -308h-111zM631 1577q212 0 374.5 -98t251.5 -277.5t89 -413.5t-89 -413t-251.5 -277t-374.5 -98h-414v1577h414zM641 86q275 0 442.5 192.5t167.5 509.5t-167.5 510t-442.5 193h-332v-1405h332z" glyph-name="Dcaron" horiz-adv-x="1458" unicode="Ď"/><glyph d="M1282 1595l82 -20l-125 -447l-70 19zM993 819v758h88v-1577h-88v223h-4q-45 -113 -158.5 -178t-255.5 -65q-211 0 -338.5 148.5t-127.5 393.5q0 244 129 393.5t340 149.5q140 0 252.5 -65.5t158.5 -180.5h4zM596 57q179 0 288 128t109 337t-109 337t-288 128t-288 -128 t-109 -337t109 -337t288 -128z" glyph-name="dcaron" horiz-adv-x="1273" unicode="ď"/><glyph d="M643 1577q212 0 374.5 -98t251.5 -277.5t89 -413.5t-89 -413t-251.5 -277t-374.5 -98h-414v762h-145v74h145v741h414zM653 86q275 0 443 193t168 509q0 317 -168 510t-443 193h-331v-655h407v-74h-407v-676h331z" glyph-name="Dcroat" horiz-adv-x="1470" unicode="Đ"/><glyph d="M1235 1337v-73h-154v-1264h-88v223h-4q-45 -113 -158.5 -178t-255.5 -65q-211 0 -338.5 148.5t-127.5 393.5q0 244 129 393.5t340 149.5q140 0 252.5 -65.5t158.5 -180.5h4v445h-403v73h403v240h88v-240h154zM596 57q179 0 288 128t109 337t-109 337t-288 128t-288 -128 t-109 -337t109 -337t288 -128z" glyph-name="dcroat" horiz-adv-x="1273" unicode="đ"/><glyph d="M944 1808v-73h-512v73h512zM309 86h883v-86h-975v1577h950v-86h-858v-631h785v-86h-785v-688z" glyph-name="Emacron" horiz-adv-x="1296" unicode="Ē"/><glyph d="M846 1440v-74h-512v74h512zM1073 520v-22h-876q6 -199 113.5 -320t279.5 -121q143 0 251 82t142 215h88q-38 -169 -170 -271.5t-311 -102.5q-218 0 -351 148.5t-133 391.5q0 246 133 395.5t351 149.5t350.5 -149.5t132.5 -395.5zM590 985q-164 0 -270 -111t-121 -296h782 q-15 185 -121 296t-270 111z" glyph-name="emacron" horiz-adv-x="1181" unicode="ē"/><glyph d="M686 1722q-29 0 -47 17.5t-18 46.5t18 47t47 18q31 0 49.5 -18t18.5 -47t-18.5 -46.5t-49.5 -17.5zM309 86h883v-86h-975v1577h950v-86h-858v-631h785v-86h-785v-688z" glyph-name="Edotaccent" horiz-adv-x="1296" unicode="Ė"/><glyph d="M588 1354q-30 0 -48 17t-18 46t18.5 47.5t47.5 18.5q30 0 48.5 -18.5t18.5 -47.5t-18 -46t-49 -17zM1073 520v-22h-876q6 -199 113.5 -320t279.5 -121q143 0 251 82t142 215h88q-38 -169 -170 -271.5t-311 -102.5q-218 0 -351 148.5t-133 391.5q0 246 133 395.5 t351 149.5t350.5 -149.5t132.5 -395.5zM590 985q-164 0 -270 -111t-121 -296h782q-15 185 -121 296t-270 111z" glyph-name="edotaccent" horiz-adv-x="1181" unicode="ė"/><glyph d="M309 86h883v-86h-131q-90 -93 -144.5 -181.5t-54.5 -142.5q0 -44 28 -71t73 -27q49 0 98 27v-70q-56 -27 -115 -27q-77 0 -124.5 43t-47.5 113q0 57 52.5 148t140.5 188h-750v1577h950v-86h-858v-631h785v-86h-785v-688z" glyph-name="Eogonek" horiz-adv-x="1296" unicode="Ę"/><glyph d="M1073 520v-22h-876q6 -199 113.5 -320t279.5 -121q143 0 251 82t142 215h88q-29 -129 -115.5 -221t-210.5 -131l5 -2q-90 -93 -144.5 -181.5t-54.5 -142.5q0 -44 28 -71t72 -27q50 0 99 27v-70q-56 -27 -115 -27q-77 0 -124.5 43t-47.5 113q0 53 48 139t128 179 q-16 -2 -49 -2q-218 0 -351 148.5t-133 391.5q0 246 133 395.5t351 149.5t350.5 -149.5t132.5 -395.5zM590 985q-164 0 -270 -111t-121 -296h782q-15 185 -121 296t-270 111z" glyph-name="eogonek" horiz-adv-x="1181" unicode="ę"/><glyph d="M633 1720l-240 308h92l201 -254h4l201 254h92l-240 -308h-110zM309 86h883v-86h-975v1577h950v-86h-858v-631h785v-86h-785v-688z" glyph-name="Ecaron" horiz-adv-x="1296" unicode="Ě"/><glyph d="M535 1270l-240 307h92l201 -254h4l201 254h92l-240 -307h-110zM1073 520v-22h-876q6 -199 113.5 -320t279.5 -121q143 0 251 82t142 215h88q-38 -169 -170 -271.5t-311 -102.5q-218 0 -351 148.5t-133 391.5q0 246 133 395.5t351 149.5t350.5 -149.5t132.5 -395.5z M590 985q-164 0 -270 -111t-121 -296h782q-15 185 -121 296t-270 111z" glyph-name="ecaron" horiz-adv-x="1181" unicode="ě"/><glyph d="M815 1714q-121 0 -195.5 86.5t-74.5 227.5h80q0 -109 52 -175.5t138 -66.5t138.5 66.5t52.5 175.5h79q0 -141 -74.5 -227.5t-195.5 -86.5zM766 801h713v-39q0 -232 -83 -410t-235 -275t-350 -97q-208 0 -366.5 100.5t-245 284t-86.5 423.5t86.5 424t245 284.5 t366.5 100.5q252 0 432 -146.5t223 -385.5h-98q-38 199 -191.5 320.5t-365.5 121.5q-179 0 -316.5 -89t-212.5 -252.5t-75 -377.5q0 -324 166 -521t438 -197q242 0 397 176t172 469h-614v86z" glyph-name="Gbreve" horiz-adv-x="1591" unicode="Ğ"/><glyph d="M610 1262q-122 0 -196 86t-74 227h80q0 -109 52 -175.5t138 -66.5t138.5 66.5t52.5 175.5h80q0 -141 -74.5 -227t-196.5 -86zM993 1044h88v-1056q0 -215 -132 -347.5t-347 -132.5q-201 0 -327 115t-132 303h84q9 -152 112 -245t263 -93q177 0 284 107t107 282v246h-4 q-45 -113 -158.5 -178t-255.5 -65q-211 0 -338.5 148.5t-127.5 393.5q0 244 129 393.5t340 149.5q140 0 252.5 -65.5t158.5 -180.5h4v225zM596 57q179 0 288 128t109 337t-109 337t-288 128t-288 -128t-109 -337t109 -337t288 -128z" glyph-name="gbreve" horiz-adv-x="1273" unicode="ğ"/><glyph d="M813 1722q-29 0 -47 17.5t-18 46.5t18 47t47 18q31 0 49.5 -18t18.5 -47t-18.5 -46.5t-49.5 -17.5zM766 801h713v-39q0 -232 -83 -410t-235 -275t-350 -97q-208 0 -366.5 100.5t-245 284t-86.5 423.5t86.5 424t245 284.5t366.5 100.5q252 0 432 -146.5t223 -385.5h-98 q-38 199 -191.5 320.5t-365.5 121.5q-179 0 -316.5 -89t-212.5 -252.5t-75 -377.5q0 -324 166 -521t438 -197q242 0 397 176t172 469h-614v86z" glyph-name="Gdotaccent" horiz-adv-x="1591" unicode="Ġ"/><glyph d="M608 1352q-29 0 -47 17t-18 46t18 47.5t47 18.5q31 0 49.5 -18.5t18.5 -47.5t-18.5 -46t-49.5 -17zM993 1044h88v-1056q0 -215 -132 -347.5t-347 -132.5q-201 0 -327 115t-132 303h84q9 -152 112 -245t263 -93q177 0 284 107t107 282v246h-4q-45 -113 -158.5 -178 t-255.5 -65q-211 0 -338.5 148.5t-127.5 393.5q0 244 129 393.5t340 149.5q140 0 252.5 -65.5t158.5 -180.5h4v225zM596 57q179 0 288 128t109 337t-109 337t-288 128t-288 -128t-109 -337t109 -337t288 -128z" glyph-name="gdotaccent" horiz-adv-x="1273" unicode="ġ"/><glyph d="M766 801h713v-39q0 -232 -83 -410t-235 -275t-350 -97q-208 0 -366.5 100.5t-245 284t-86.5 423.5t86.5 424t245 284.5t366.5 100.5q252 0 432 -146.5t223 -385.5h-98q-38 199 -191.5 320.5t-365.5 121.5q-179 0 -316.5 -89t-212.5 -252.5t-75 -377.5q0 -324 166 -521 t438 -197q242 0 397 176t172 469h-614v86zM815 -158q31 0 50.5 -26t19.5 -68q0 -77 -32.5 -143t-84.5 -97l-10 35q31 28 50.5 75.5t22.5 102.5q-8 -2 -22 -2q-26 0 -42.5 16t-16.5 42q0 29 18 47t47 18z" glyph-name="Gcommaaccent" horiz-adv-x="1591" unicode="Ģ"/><glyph d="M610 1274q-31 0 -50 25.5t-19 68.5q0 60 29.5 120.5t76.5 98.5l21 -35q-68 -55 -74 -157q4 0 12 1t12 1q26 0 42 -16t16 -42q0 -29 -18.5 -47t-47.5 -18zM993 1044h88v-1056q0 -215 -132 -347.5t-347 -132.5q-201 0 -327 115t-132 303h84q9 -152 112 -245t263 -93 q177 0 284 107t107 282v246h-4q-45 -113 -158.5 -178t-255.5 -65q-211 0 -338.5 148.5t-127.5 393.5q0 244 129 393.5t340 149.5q140 0 252.5 -65.5t158.5 -180.5h4v225zM596 57q179 0 288 128t109 337t-109 337t-288 128t-288 -128t-109 -337t109 -337t288 -128z" glyph-name="gcommaaccent" horiz-adv-x="1273" unicode="ģ"/><glyph d="M1456 1284v-76h-153v-1208h-93v760h-899v-760h-92v1208h-153v76h153v293h92v-293h899v293h93v-293h153zM1210 846v362h-899v-362h899z" glyph-name="Hbar" horiz-adv-x="1521" unicode="Ħ"/><glyph d="M662 1065q177 0 284 -114t107 -302v-649h-88v659q0 146 -88.5 236t-233.5 90q-163 0 -262.5 -113t-99.5 -297v-575h-88v1264h-156v73h156v240h88v-240h401v-73h-401v-424h4q40 101 143.5 163t233.5 62z" glyph-name="hbar" horiz-adv-x="1226" unicode="ħ"/><glyph d="M8 1735v73h512v-73h-512zM217 0v1577h92v-1577h-92z" glyph-name="Imacron" horiz-adv-x="526" unicode="Ī"/><glyph d="M10 1440h471v-74h-471v74zM201 0v1044h88v-1044h-88z" glyph-name="imacron" horiz-adv-x="489" unicode="ī"/><glyph d="M309 1577v-1577q-89 -92 -143.5 -181t-54.5 -143q0 -44 28 -71t72 -27q49 0 98 27v-70q-56 -27 -114 -27q-77 0 -124.5 43t-47.5 113q0 57 52.5 149.5t141.5 188.5v1575h92z" glyph-name="Iogonek" horiz-adv-x="526" unicode="Į"/><glyph d="M244 1483q30 0 48.5 -18.5t18.5 -47.5t-18 -46t-49 -17q-30 0 -48 17t-18 46t18.5 47.5t47.5 18.5zM201 6v1038h88v-1044q-90 -93 -144.5 -181.5t-54.5 -142.5q0 -44 28 -71t72 -27q50 0 99 27v-70q-56 -27 -115 -27q-77 0 -124.5 43t-47.5 113q0 58 54 150.5t145 191.5z" glyph-name="iogonek" horiz-adv-x="489" unicode="į"/><glyph d="M262 1722q-29 0 -47 17.5t-18 46.5t18 47t47 18q31 0 49.5 -18t18.5 -47t-18.5 -46.5t-49.5 -17.5zM217 0v1577h92v-1577h-92z" glyph-name="Idotaccent" horiz-adv-x="526" unicode="İ"/><glyph d="M201 0v1044h88v-1044h-88z" glyph-name="dotlessi" horiz-adv-x="489" unicode="ı"/><glyph d="M217 0v1577h92v-1577h-92zM492 821l905 -821h-123l-907 815l847 762h113zM745 -158q31 0 50.5 -26t19.5 -68q0 -77 -32.5 -143t-84.5 -97l-10 35q31 28 51 75.5t23 102.5q-8 -2 -23 -2q-26 0 -42.5 16t-16.5 42q0 29 18 47t47 18z" glyph-name="Kcommaaccent" horiz-adv-x="1386" unicode="Ķ"/><glyph d="M193 0v1577h88v-1577h-88zM453 580l708 -580h-119l-716 575l622 469h117zM551 -158q31 0 50.5 -26t19.5 -68q0 -77 -32.5 -143t-84.5 -97l-10 35q31 28 50.5 75.5t22.5 102.5q-8 -2 -22 -2q-26 0 -43 16t-17 42q0 29 18.5 47t47.5 18z" glyph-name="kcommaaccent" horiz-adv-x="1153" unicode="ķ"/><glyph d="M496 2048l-213 -328h-74l186 328h101zM309 86h764v-86h-856v1577h92v-1491z" glyph-name="Lacute" horiz-adv-x="1114" unicode="Ĺ"/><glyph d="M190 1720l187 328h100l-213 -328h-74zM201 0v1577h88v-1577h-88z" glyph-name="lacute" horiz-adv-x="489" unicode="ĺ"/><glyph d="M309 86h764v-86h-856v1577h92v-1491zM547 -158q31 0 50 -25.5t19 -68.5q0 -77 -32 -143t-84 -97l-11 35q31 28 51 75.5t23 102.5q-8 -2 -22 -2q-26 0 -43 16t-17 42q0 29 18.5 47t47.5 18z" glyph-name="Lcommaaccent" horiz-adv-x="1114" unicode="Ļ"/><glyph d="M289 1577v-1577h-88v1577h88zM246 -158q31 0 50 -25.5t19 -68.5q0 -77 -32 -143t-84 -97l-11 35q31 28 51 75.5t23 102.5q-8 -2 -22 -2q-26 0 -43 16t-17 42q0 29 18.5 47t47.5 18z" glyph-name="lcommaaccent" horiz-adv-x="489" unicode="ļ"/><glyph d="M690 1575l-125 -447l-69 19l112 448zM309 86h764v-86h-856v1577h92v-1491z" glyph-name="Lcaron" horiz-adv-x="1114" unicode="Ľ"/><glyph d="M451 1128l-70 19l113 448l81 -20zM201 0v1577h88v-1577h-88z" glyph-name="lcaron" horiz-adv-x="481" unicode="ľ"/><glyph d="M324 86h763v-86h-856v649l-161 -104v102l161 105v825h93v-772l338 219v-102l-338 -220v-616z" glyph-name="Lslash" horiz-adv-x="1128" unicode="Ł"/><glyph d="M465 1024v-102l-139 -136v-786h-88v702l-140 -137v103l140 137v772h88v-688z" glyph-name="lslash" horiz-adv-x="565" unicode="ł"/><glyph d="M991 2048l-213 -328h-73l186 328h100zM1212 1577h88v-1577h-94l-893 1415h-4v-1415h-92v1577h98l893 -1419h4v1419z" glyph-name="Nacute" horiz-adv-x="1517" unicode="Ń"/><glyph d="M854 1577l-213 -328h-74l187 328h100zM662 1065q177 0 284 -114t107 -302v-649h-88v659q0 146 -88.5 236t-233.5 90q-163 0 -262.5 -113t-99.5 -297v-575h-88v1044h88v-204h4q40 101 143.5 163t233.5 62z" glyph-name="nacute" horiz-adv-x="1226" unicode="ń"/><glyph d="M1212 1577h88v-1577h-94l-893 1415h-4v-1415h-92v1577h98l893 -1419h4v1419zM760 -158q31 0 50 -25.5t19 -68.5q0 -77 -32 -143t-84 -97l-11 35q31 28 51 75.5t23 102.5q-8 -2 -22 -2q-26 0 -43 16t-17 42q0 29 18.5 47t47.5 18z" glyph-name="Ncommaaccent" horiz-adv-x="1517" unicode="Ņ"/><glyph d="M662 1065q177 0 284 -114t107 -302v-649h-88v659q0 146 -88.5 236t-233.5 90q-163 0 -262.5 -113t-99.5 -297v-575h-88v1044h88v-204h4q40 101 143.5 163t233.5 62zM623 -158q31 0 50 -25.5t19 -68.5q0 -77 -32.5 -143t-84.5 -97l-10 35q31 28 51 75.5t23 102.5 q-8 -2 -23 -2q-26 0 -42.5 16t-16.5 42q0 29 18.5 47t47.5 18z" glyph-name="ncommaaccent" horiz-adv-x="1226" unicode="ņ"/><glyph d="M705 1720l-240 308h92l201 -254h4l201 254h92l-240 -308h-110zM1212 1577h88v-1577h-94l-893 1415h-4v-1415h-92v1577h98l893 -1419h4v1419z" glyph-name="Ncaron" horiz-adv-x="1517" unicode="Ň"/><glyph d="M567 1270l-239 307h92l201 -254h4l200 254h93l-240 -307h-111zM662 1065q177 0 284 -114t107 -302v-649h-88v659q0 146 -88.5 236t-233.5 90q-163 0 -262.5 -113t-99.5 -297v-575h-88v1044h88v-204h4q40 101 143.5 163t233.5 62z" glyph-name="ncaron" horiz-adv-x="1226" unicode="ň"/><glyph d="M1212 1577h88v-1608q0 -207 -115 -334t-304 -127q-99 0 -183 41l21 82q66 -32 162 -32q148 0 237.5 98.5t89.5 261.5v35l-895 1421h-4v-1415h-92v1577h98l893 -1419h4v1419z" glyph-name="Eng" horiz-adv-x="1517" unicode="Ŋ"/><glyph d="M662 1065q177 0 284 -114t107 -302v-790q0 -158 -90.5 -254.5t-239.5 -96.5q-112 0 -188 37l22 74q81 -33 176 -33q104 0 168 72.5t64 191.5v809q0 146 -88.5 236t-233.5 90q-163 0 -262.5 -113t-99.5 -297v-575h-88v1044h88v-204h4q40 101 143.5 163t233.5 62z" glyph-name="eng" horiz-adv-x="1226" unicode="ŋ"/><glyph d="M561 1735v73h512v-73h-512zM817 -20q-209 0 -369 100.5t-247.5 284t-87.5 423.5t87.5 424t247.5 284.5t369 100.5t369 -100.5t248 -284.5t88 -424t-88 -423.5t-248 -284t-369 -100.5zM817 70q275 0 442.5 197t167.5 521t-167.5 521.5t-442.5 197.5t-442.5 -197.5 t-167.5 -521.5t167.5 -521t442.5 -197z" glyph-name="Omacron" horiz-adv-x="1634" unicode="Ō"/><glyph d="M338 1366v74h512v-74h-512zM594 -20q-220 0 -354 149t-134 393q0 245 134 394t354 149t353.5 -149t133.5 -394t-133.5 -393.5t-353.5 -148.5zM594 57q179 0 288 128t109 337t-109 337t-288 128t-288 -128t-109 -337t109 -337t288 -128z" glyph-name="omacron" horiz-adv-x="1187" unicode="ō"/><glyph d="M655 1720l166 328h101l-193 -328h-74zM895 1720l166 328h100l-192 -328h-74zM817 -20q-209 0 -369 100.5t-247.5 284t-87.5 423.5t87.5 424t247.5 284.5t369 100.5t369 -100.5t248 -284.5t88 -424t-88 -423.5t-248 -284t-369 -100.5zM817 70q275 0 442.5 197t167.5 521 t-167.5 521.5t-442.5 197.5t-442.5 -197.5t-167.5 -521.5t167.5 -521t442.5 -197z" glyph-name="Ohungarumlaut" horiz-adv-x="1634" unicode="Ő"/><glyph d="M432 1249l166 328h100l-192 -328h-74zM672 1249l166 328h100l-193 -328h-73zM594 -20q-220 0 -354 149t-134 393q0 245 134 394t354 149t353.5 -149t133.5 -394t-133.5 -393.5t-353.5 -148.5zM594 57q179 0 288 128t109 337t-109 337t-288 128t-288 -128t-109 -337 t109 -337t288 -128z" glyph-name="ohungarumlaut" horiz-adv-x="1187" unicode="ő"/><glyph d="M1505 86h858v-86h-942v399h-4q-79 -198 -236.5 -308.5t-369.5 -110.5q-313 0 -504.5 222t-191.5 586t191.5 586.5t504.5 222.5q212 0 369.5 -110.5t236.5 -308.5h4v399h920v-86h-836v-631h762v-86h-762v-688zM811 70q270 0 436 197t166 521t-166 521.5t-436 197.5 t-436 -197.5t-166 -521.5t166 -521t436 -197z" glyph-name="OE" horiz-adv-x="2467" unicode="Œ"/><glyph d="M1919 520v-22h-858q6 -200 111 -320.5t274 -120.5q138 0 242.5 82t136.5 215h92q-37 -169 -166.5 -271.5t-306.5 -102.5q-156 0 -268 89t-158 246h-4q-45 -156 -158 -245.5t-270 -89.5q-215 0 -346 148.5t-131 393.5t131 394t346 149q158 0 271.5 -90.5t158.5 -247.5h4 q46 158 157.5 248t266.5 90q214 0 344.5 -149.5t130.5 -395.5zM586 57q173 0 280 128t107 337t-106.5 336t-280.5 127t-280.5 -127t-106.5 -336t107 -337t280 -128zM1446 985q-161 0 -264.5 -111t-118.5 -296h764q-15 185 -118.5 296t-262.5 111z" glyph-name="oe" horiz-adv-x="2027" unicode="œ"/><glyph d="M901 2048l-213 -328h-74l187 328h100zM1327 0h-106l-394 700q-14 -2 -41 -2h-477v-698h-92v1577h567q226 0 364 -116t138 -306q0 -171 -96.5 -289t-263.5 -153zM309 784h488q178 0 286.5 100.5t108.5 264.5q0 154 -109.5 248t-287.5 94h-486v-707z" glyph-name="Racute" horiz-adv-x="1417" unicode="Ŕ"/><glyph d="M647 1575l-213 -328h-74l187 328h100zM664 1065q82 0 147 -21v-94q-77 25 -174 25q-160 0 -258 -118t-98 -310v-547h-88v1044h88v-223h4q50 109 154 176.5t225 67.5z" glyph-name="racute" horiz-adv-x="837" unicode="ŕ"/><glyph d="M1327 0h-106l-394 700q-14 -2 -41 -2h-477v-698h-92v1577h567q226 0 364 -116t138 -306q0 -171 -96.5 -289t-263.5 -153zM309 784h488q178 0 286.5 100.5t108.5 264.5q0 154 -109.5 248t-287.5 94h-486v-707zM733 -158q31 0 50.5 -26t19.5 -68q0 -77 -32.5 -143 t-84.5 -97l-10 35q31 28 51 75.5t23 102.5q-8 -2 -23 -2q-26 0 -42.5 16t-16.5 42q0 29 18 47t47 18z" glyph-name="Rcommaaccent" horiz-adv-x="1417" unicode="Ŗ"/><glyph d="M664 1065q82 0 147 -21v-94q-77 25 -174 25q-160 0 -258 -118t-98 -310v-547h-88v1044h88v-223h4q50 109 154 176.5t225 67.5zM244 -158q31 0 50 -25.5t19 -68.5q0 -77 -32 -143t-84 -97l-11 35q31 28 51 75.5t23 102.5q-8 -2 -22 -2q-26 0 -43 16t-17 42q0 29 18.5 47 t47.5 18z" glyph-name="rcommaaccent" horiz-adv-x="837" unicode="ŗ"/><glyph d="M614 1720l-239 308h92l201 -254h4l200 254h93l-240 -308h-111zM1327 0h-106l-394 700q-14 -2 -41 -2h-477v-698h-92v1577h567q226 0 364 -116t138 -306q0 -171 -96.5 -289t-263.5 -153zM309 784h488q178 0 286.5 100.5t108.5 264.5q0 154 -109.5 248t-287.5 94h-486v-707 z" glyph-name="Rcaron" horiz-adv-x="1417" unicode="Ř"/><glyph d="M360 1268l-239 307h92l201 -254h4l200 254h93l-240 -307h-111zM664 1065q82 0 147 -21v-94q-77 25 -174 25q-160 0 -258 -118t-98 -310v-547h-88v1044h88v-223h4q50 109 154 176.5t225 67.5z" glyph-name="rcaron" horiz-adv-x="837" unicode="ř"/><glyph d="M616 1720l187 328h100l-213 -328h-74zM672 -20q-248 0 -406 147.5t-168 388.5h99q11 -201 141 -323.5t334 -122.5q218 0 351.5 97t133.5 257q0 43 -9.5 81t-24 67t-40 54t-50 43.5t-62.5 34.5t-69 26.5t-77 21.5t-79.5 17t-83.5 15q-67 12 -110.5 21t-104 25.5t-99 35 t-82 48.5t-68 66t-41 86.5t-16.5 111.5q0 189 146.5 304t384.5 115q232 0 379.5 -141t156.5 -371h-98q-9 191 -129 306.5t-309 115.5q-197 0 -316.5 -90t-119.5 -239q0 -47 13.5 -86.5t35 -68t58 -52t71 -39t86.5 -29t93 -21.5t101 -18q55 -9 91 -16t88 -19t86 -24 t77.5 -31.5t71.5 -41.5t58 -53.5t46.5 -68t27.5 -84t11 -102.5q0 -200 -159 -322t-420 -122z" glyph-name="Sacute" horiz-adv-x="1351" unicode="Ś"/><glyph d="M463 1249l186 328h101l-213 -328h-74zM518 -20q-189 0 -306 97t-120 255h90q3 -123 95 -199t241 -76t240.5 59t91.5 156q0 35 -10.5 64.5t-26.5 50t-45 38.5t-53.5 29t-66 22t-69 17t-75.5 15q-45 9 -69 14t-65 15t-64.5 20t-55.5 25.5t-50 34t-35.5 42.5t-25.5 55t-8 68 q0 127 106.5 205t280.5 78q173 0 280.5 -94.5t110.5 -249.5h-90q-3 118 -86 191t-215 73q-134 0 -215.5 -56.5t-81.5 -148.5q0 -28 9.5 -51.5t23 -40.5t40 -32t48 -24t60 -19t63.5 -15.5t70 -13.5q53 -10 84 -17t79.5 -20.5t77.5 -28t64 -38.5t54 -52t32.5 -68t13.5 -88 q0 -132 -115.5 -212t-306.5 -80z" glyph-name="sacute" horiz-adv-x="1038" unicode="ś"/><glyph d="M1251 424q0 -192 -146.5 -312.5t-389.5 -131.5l-86 -130l4 -4q41 13 65 13q77 0 123.5 -45.5t46.5 -120.5q0 -83 -72.5 -134t-191.5 -51q-47 0 -97.5 14.5t-84.5 37.5v75q36 -26 87 -41.5t97 -15.5q78 0 126 31.5t48 83.5q0 43 -29.5 69.5t-78.5 26.5q-38 0 -74 -15 t-55 -40l-58 35l133 213q-226 17 -368 162t-152 372h99q11 -201 141 -323.5t334 -122.5q218 0 351.5 97t133.5 257q0 43 -9.5 81t-24 67t-40 54t-50 43.5t-62.5 34.5t-69 26.5t-77 21.5t-79.5 17t-83.5 15q-67 12 -110.5 21t-104 25.5t-99 35t-82 48.5t-68 66t-41 86.5 t-16.5 111.5q0 189 146.5 304t384.5 115q232 0 379.5 -141t156.5 -371h-98q-9 191 -129 306.5t-309 115.5q-197 0 -316.5 -90t-119.5 -239q0 -47 13.5 -86.5t35 -68t58 -52t71 -39t86.5 -29t93 -21.5t101 -18q55 -9 91 -16t88 -19t86 -24t77.5 -31.5t71.5 -41.5t58 -53.5 t46.5 -68t27.5 -84t11 -102.5z" glyph-name="Scedilla" horiz-adv-x="1351" unicode="Ş"/><glyph d="M940 272q0 -124 -103.5 -202.5t-275.5 -87.5l-86 -132l4 -4q41 13 66 13q77 0 123.5 -45.5t46.5 -120.5q0 -83 -72.5 -134t-191.5 -51q-47 0 -98 14.5t-85 37.5v75q36 -26 87.5 -41.5t97.5 -15.5q78 0 126 31.5t48 83.5q0 43 -30 69.5t-79 26.5q-38 0 -74 -15t-55 -40 l-57 35l133 213q-167 14 -268.5 108.5t-104.5 241.5h90q3 -123 95 -199t241 -76t240.5 59t91.5 156q0 35 -10.5 64.5t-26.5 50t-45 38.5t-53.5 29t-66 22t-69 17t-75.5 15q-45 9 -69 14t-65 15t-64.5 20t-55.5 25.5t-50 34t-35.5 42.5t-25.5 55t-8 68q0 127 106.5 205 t280.5 78q173 0 280.5 -94.5t110.5 -249.5h-90q-3 118 -86 191t-215 73q-134 0 -215.5 -56.5t-81.5 -148.5q0 -28 9.5 -51.5t23 -40.5t40 -32t48 -24t60 -19t63.5 -15.5t70 -13.5q53 -10 84 -17t79.5 -20.5t77.5 -28t64 -38.5t54 -52t32.5 -68t13.5 -88z" glyph-name="scedilla" horiz-adv-x="1038" unicode="ş"/><glyph d="M616 1720l-239 308h92l201 -254h4l200 254h93l-240 -308h-111zM694 864q55 -9 91 -16t88 -19t86 -24t77.5 -31.5t71.5 -41.5t58 -53.5t46.5 -68t27.5 -84t11 -102.5q0 -200 -159 -322t-420 -122q-248 0 -406 147.5t-168 388.5h99q11 -201 141 -323.5t334 -122.5 q218 0 351.5 97t133.5 257q0 43 -9.5 81t-24 67t-40 54t-50 43.5t-62.5 34.5t-69 26.5t-77 21.5t-79.5 17t-83.5 15q-67 12 -110.5 21t-104 25.5t-99 35t-82 48.5t-68 66t-41 86.5t-16.5 111.5q0 189 146.5 304t384.5 115q232 0 379.5 -141t156.5 -371h-98 q-9 191 -129 306.5t-309 115.5q-197 0 -316.5 -90t-119.5 -239q0 -47 13.5 -86.5t35 -68t58 -52t71 -39t86.5 -29t93 -21.5t101 -18z" glyph-name="Scaron" horiz-adv-x="1351" unicode="Š"/><glyph d="M463 1270l-240 307h92l201 -254h4l201 254h92l-240 -307h-110zM535 584q53 -10 84 -17t79.5 -20.5t77.5 -28t64 -38.5t54 -52t32.5 -68t13.5 -88q0 -132 -115.5 -212t-306.5 -80q-189 0 -306 97t-120 255h90q3 -123 95 -199t241 -76t240.5 59t91.5 156q0 35 -10.5 64.5 t-26.5 50t-45 38.5t-53.5 29t-66 22t-69 17t-75.5 15q-45 9 -69 14t-65 15t-64.5 20t-55.5 25.5t-50 34t-35.5 42.5t-25.5 55t-8 68q0 127 106.5 205t280.5 78q173 0 280.5 -94.5t110.5 -249.5h-90q-3 118 -86 191t-215 73q-134 0 -215.5 -56.5t-81.5 -148.5 q0 -28 9.5 -51.5t23 -40.5t40 -32t48 -24t60 -19t63.5 -15.5t70 -13.5z" glyph-name="scaron" horiz-adv-x="1038" unicode="š"/><glyph d="M633 1491v-1491l-98 -150l4 -4q41 13 65 13q77 0 123.5 -45.5t46.5 -120.5q0 -83 -72.5 -134t-191.5 -51q-47 0 -97.5 14.5t-84.5 37.5v75q36 -26 87 -41.5t97 -15.5q78 0 126 31.5t48 83.5q0 43 -29.5 69.5t-78.5 26.5q-38 0 -74 -15t-55 -40l-58 35l150 237v1485h-506 v86h1104v-86h-506z" glyph-name="uni0162" horiz-adv-x="1173" unicode="Ţ"/><glyph d="M698 971h-383v-711q0 -91 61 -147t159 -56q89 0 163 33v-74q-77 -36 -190 -36q-47 0 -88 12l-92 -142l4 -4q41 13 65 13q77 0 123.5 -45.5t46.5 -120.5q0 -83 -72.5 -134t-191.5 -51q-47 0 -97.5 14.5t-84.5 37.5v75q36 -26 87 -41.5t97 -15.5q78 0 126 31.5t48 83.5 q0 43 -29.5 69.5t-78.5 26.5q-39 0 -74.5 -15t-54.5 -40l-58 35l162 256q-119 77 -119 241v705h-182v73h184v308h86v-308h383v-73z" glyph-name="uni0163" horiz-adv-x="743" unicode="ţ"/><glyph d="M532 1720l-239 308h92l201 -254h4l201 254h92l-240 -308h-111zM1139 1577v-86h-506v-1491h-92v1491h-506v86h1104z" glyph-name="Tcaron" horiz-adv-x="1173" unicode="Ť"/><glyph d="M643 1575l-125 -447l-69 19l112 448zM698 971h-383v-711q0 -91 61 -147t159 -56q89 0 163 33v-74q-77 -36 -190 -36q-126 0 -203.5 78.5t-77.5 207.5v705h-182v73h184v308h86v-308h383v-73z" glyph-name="tcaron" horiz-adv-x="743" unicode="ť"/><glyph d="M1161 1491h-506v-664h365v-73h-365v-754h-92v754h-317v73h317v664h-506v86h1104v-86z" glyph-name="Tbar" horiz-adv-x="1228" unicode="Ŧ"/><glyph d="M723 971h-383v-387h383v-74h-383v-250q0 -91 60.5 -147t158.5 -56q90 0 164 33v-74q-77 -36 -191 -36q-126 0 -203 78.5t-77 207.5v244h-182v74h182v387h-182v73h184v308h86v-308h383v-73z" glyph-name="tbar" horiz-adv-x="782" unicode="ŧ"/><glyph d="M485 1735v73h512v-73h-512zM741 -20q-244 0 -393 156t-149 411v1030h92v-1040q0 -211 123.5 -339t326.5 -128q204 0 329.5 128.5t125.5 338.5v1040h88v-1030q0 -255 -149.5 -411t-393.5 -156z" glyph-name="Umacron" horiz-adv-x="1482" unicode="Ū"/><glyph d="M342 1366v74h512v-74h-512zM594 -20q-189 0 -304.5 118t-115.5 310v636h88v-626q0 -163 91.5 -262t240.5 -99t240.5 99t91.5 262v626h88v-636q0 -192 -115.5 -310t-304.5 -118z" glyph-name="umacron" horiz-adv-x="1187" unicode="ū"/><glyph d="M741 1704q-100 0 -160.5 59t-60.5 154t60.5 154t160.5 59t161 -59t61 -154t-61 -154t-161 -59zM741 1774q63 0 101.5 39.5t38.5 103.5t-38.5 103.5t-101.5 39.5t-101 -39t-38 -104t38 -104t101 -39zM741 -20q-244 0 -393 156t-149 411v1030h92v-1040q0 -211 123.5 -339 t326.5 -128q204 0 329.5 128.5t125.5 338.5v1040h88v-1030q0 -255 -149.5 -411t-393.5 -156z" glyph-name="Uring" horiz-adv-x="1482" unicode="Ů"/><glyph d="M598 1171q-100 0 -160.5 59t-60.5 154t60.5 154t160.5 59t160.5 -59t60.5 -154t-60.5 -154t-160.5 -59zM598 1241q63 0 101 39t38 104t-38 104.5t-101 39.5t-101 -39.5t-38 -104.5t38 -104t101 -39zM594 -20q-189 0 -304.5 118t-115.5 310v636h88v-626q0 -163 91.5 -262 t240.5 -99t240.5 99t91.5 262v626h88v-636q0 -192 -115.5 -310t-304.5 -118z" glyph-name="uring" horiz-adv-x="1187" unicode="ů"/><glyph d="M580 1720l165 328h101l-193 -328h-73zM819 1720l166 328h100l-192 -328h-74zM741 -20q-244 0 -393 156t-149 411v1030h92v-1040q0 -211 123.5 -339t326.5 -128q204 0 329.5 128.5t125.5 338.5v1040h88v-1030q0 -255 -149.5 -411t-393.5 -156z" glyph-name="Uhungarumlaut" horiz-adv-x="1482" unicode="Ű"/><glyph d="M436 1249l166 328h100l-192 -328h-74zM676 1249l166 328h100l-192 -328h-74zM594 -20q-189 0 -304.5 118t-115.5 310v636h88v-626q0 -163 91.5 -262t240.5 -99t240.5 99t91.5 262v626h88v-636q0 -192 -115.5 -310t-304.5 -118z" glyph-name="uhungarumlaut" horiz-adv-x="1187" unicode="ű"/><glyph d="M1196 1577h88v-1030q0 -216 -109 -364t-296 -189q-87 -91 -140 -178.5t-53 -139.5q0 -44 28 -71t72 -27q50 0 99 27v-70q-56 -27 -115 -27q-77 0 -124.5 43t-47.5 113q0 54 47.5 140t128.5 176h-33q-244 0 -393 156t-149 411v1030h92v-1040q0 -211 123.5 -339t326.5 -128 q204 0 329.5 128.5t125.5 338.5v1040z" glyph-name="Uogonek" horiz-adv-x="1482" unicode="Ų"/><glyph d="M926 1044h88v-636q0 -156 -78.5 -265.5t-212.5 -146.5q-88 -91 -141.5 -178.5t-53.5 -141.5q0 -44 28 -71t73 -27q49 0 98 27v-70q-56 -27 -115 -27q-77 0 -124.5 43t-47.5 113q0 54 47 138.5t127 177.5h-20q-189 0 -304.5 118t-115.5 310v636h88v-626q0 -163 91.5 -262 t240.5 -99t240.5 99t91.5 262v626z" glyph-name="uogonek" horiz-adv-x="1187" unicode="ų"/><glyph d="M1010 1974l-201 -254h-92l239 308h111l240 -308h-93l-200 254h-4zM1880 1577h100l-442 -1577h-125l-401 1483h-4l-398 -1483h-123l-444 1577h104l400 -1487h4l403 1487h119l400 -1487h4z" glyph-name="Wcircumflex" horiz-adv-x="2025" unicode="Ŵ"/><glyph d="M813 1524l-201 -254h-92l240 307h110l240 -307h-92l-201 254h-4zM1489 1044h92l-354 -1044h-107l-303 950h-4l-305 -950h-107l-354 1044h96l310 -950h4l313 950h92l309 -950h5z" glyph-name="wcircumflex" horiz-adv-x="1628" unicode="ŵ"/><glyph d="M655 1974l-200 -254h-93l240 308h111l239 -308h-92l-201 254h-4zM1298 1577l-596 -954v-623h-92v625l-596 952h113l532 -860h5l528 860h106z" glyph-name="Ycircumflex" horiz-adv-x="1312" unicode="Ŷ"/><glyph d="M541 1524l-201 -254h-92l239 307h111l240 -307h-93l-200 254h-4zM944 1044h92l-647 -1515h-92l195 459l-455 1056h96l402 -956h4z" glyph-name="ycircumflex" horiz-adv-x="1075" unicode="ŷ"/><glyph d="M518 1726q-29 0 -47 17t-18 45q0 29 18 47t47 18q31 0 49.5 -18t18.5 -47q0 -28 -18.5 -45t-49.5 -17zM793 1726q-29 0 -47.5 17t-18.5 45q0 29 18.5 47t47.5 18q31 0 49 -18t18 -47q0 -28 -18 -45t-49 -17zM1298 1577l-596 -954v-623h-92v625l-596 952h113l532 -860h5 l528 860h106z" glyph-name="Ydieresis" horiz-adv-x="1312" unicode="Ÿ"/><glyph d="M842 2048l-213 -328h-74l186 328h101zM166 86h979v-86h-1090v94l965 1393v4h-916v86h1026v-94l-964 -1393v-4z" glyph-name="Zacute" horiz-adv-x="1214" unicode="Ź"/><glyph d="M698 1577l-213 -328h-73l186 328h100zM160 74h708v-74h-802v80l690 885v4h-654v75h756v-81l-698 -885v-4z" glyph-name="zacute" horiz-adv-x="946" unicode="ź"/><glyph d="M608 1722q-29 0 -47 17.5t-18 46.5t18 47t47 18q31 0 49.5 -18t18.5 -47t-18.5 -46.5t-49.5 -17.5zM166 86h979v-86h-1090v94l965 1393v4h-916v86h1026v-94l-964 -1393v-4z" glyph-name="Zdotaccent" horiz-adv-x="1214" unicode="Ż"/><glyph d="M465 1354q-30 0 -48 17t-18 46t18.5 47.5t47.5 18.5q31 0 49 -18.5t18 -47.5t-18 -46t-49 -17zM160 74h708v-74h-802v80l690 885v4h-654v75h756v-81l-698 -885v-4z" glyph-name="zdotaccent" horiz-adv-x="946" unicode="ż"/><glyph d="M555 1720l-240 308h93l200 -254h4l201 254h92l-239 -308h-111zM166 86h979v-86h-1090v94l965 1393v4h-916v86h1026v-94l-964 -1393v-4z" glyph-name="Zcaron" horiz-adv-x="1214" unicode="Ž"/><glyph d="M412 1270l-240 307h92l201 -254h4l201 254h92l-240 -307h-110zM160 74h708v-74h-802v80l690 885v4h-654v75h756v-81l-698 -885v-4z" glyph-name="zcaron" horiz-adv-x="946" unicode="ž"/><glyph d="M1096 1520q-103 0 -173.5 -77t-93.5 -214l-63 -377h375v-74h-387l-78 -467q-26 -156 -117.5 -243.5t-226.5 -87.5q-126 0 -217 40l22 72q84 -33 191 -33q103 0 173 76t93 211l74 432h-351v74h363l70 414q26 157 116.5 244t225.5 87q130 0 217 -41l-23 -69q-93 33 -190 33 z" glyph-name="florin" horiz-adv-x="1337" unicode="ƒ"/><glyph d="M694 864q55 -9 91 -16t88 -19t86 -24t77.5 -31.5t71.5 -41.5t58 -53.5t46.5 -68t27.5 -84t11 -102.5q0 -200 -159 -322t-420 -122q-248 0 -406 147.5t-168 388.5h99q11 -201 141 -323.5t334 -122.5q218 0 351.5 97t133.5 257q0 43 -9.5 81t-24 67t-40 54t-50 43.5 t-62.5 34.5t-69 26.5t-77 21.5t-79.5 17t-83.5 15q-67 12 -110.5 21t-104 25.5t-99 35t-82 48.5t-68 66t-41 86.5t-16.5 111.5q0 189 146.5 304t384.5 115q232 0 379.5 -141t156.5 -371h-98q-9 191 -129 306.5t-309 115.5q-197 0 -316.5 -90t-119.5 -239q0 -47 13.5 -86.5 t35 -68t58 -52t71 -39t86.5 -29t93 -21.5t101 -18zM672 -158q31 0 50 -25.5t19 -68.5q0 -77 -32 -143t-84 -97l-11 35q31 28 51 75.5t23 102.5q-8 -2 -22 -2q-26 0 -43 16t-17 42q0 29 18.5 47t47.5 18z" glyph-name="Scommaaccent" horiz-adv-x="1351" unicode="Ș"/><glyph d="M535 584q53 -10 84 -17t79.5 -20.5t77.5 -28t64 -38.5t54 -52t32.5 -68t13.5 -88q0 -132 -115.5 -212t-306.5 -80q-189 0 -306 97t-120 255h90q3 -123 95 -199t241 -76t240.5 59t91.5 156q0 35 -10.5 64.5t-26.5 50t-45 38.5t-53.5 29t-66 22t-69 17t-75.5 15 q-45 9 -69 14t-65 15t-64.5 20t-55.5 25.5t-50 34t-35.5 42.5t-25.5 55t-8 68q0 127 106.5 205t280.5 78q173 0 280.5 -94.5t110.5 -249.5h-90q-3 118 -86 191t-215 73q-134 0 -215.5 -56.5t-81.5 -148.5q0 -28 9.5 -51.5t23 -40.5t40 -32t48 -24t60 -19t63.5 -15.5 t70 -13.5zM518 -158q31 0 50.5 -26t19.5 -68q0 -77 -32.5 -143t-84.5 -97l-10 35q31 28 51 75.5t23 102.5q-8 -2 -23 -2q-26 0 -42.5 16t-16.5 42q0 29 18 47t47 18z" glyph-name="scommaaccent" horiz-adv-x="1038" unicode="ș"/><glyph d="M35 1577h1104v-86h-506v-1491h-92v1491h-506v86zM578 -158q31 0 50 -25.5t19 -68.5q0 -77 -32.5 -143t-84.5 -97l-10 35q31 28 51 75.5t23 102.5q-8 -2 -23 -2q-26 0 -42.5 16t-16.5 42q0 29 18.5 47t47.5 18z" glyph-name="uni021A" horiz-adv-x="1173" unicode="Ț"/><glyph d="M698 971h-383v-711q0 -91 61 -147t159 -56q89 0 163 33v-74q-77 -36 -190 -36q-126 0 -203.5 78.5t-77.5 207.5v705h-182v73h184v308h86v-308h383v-73zM371 -158q31 0 50 -25.5t19 -68.5q0 -77 -32 -143t-84 -97l-11 35q31 28 51 75.5t23 102.5q-8 -2 -22 -2 q-26 0 -43 16t-17 42q0 29 18.5 47t47.5 18z" glyph-name="uni021B" horiz-adv-x="743" unicode="ț"/><glyph d="M201 -471v1515h88v-1515h-88z" glyph-name="uni0237" horiz-adv-x="489" unicode="ȷ"/><glyph d="M391 1475l240 -308h-92l-201 254h-4l-201 -254h-92l240 308h110z" glyph-name="circumflex" horiz-adv-x="671" unicode="ˆ"/><glyph d="M539 1475h92l-240 -308h-110l-240 308h92l201 -254h4z" glyph-name="caron" horiz-adv-x="671" unicode="ˇ"/><glyph d="M332 1161q-122 0 -196.5 86.5t-74.5 227.5h80q0 -109 52.5 -175.5t138.5 -66.5t138 66.5t52 175.5h80q0 -141 -74.5 -227.5t-195.5 -86.5z" glyph-name="breve" horiz-adv-x="663" unicode="˘"/><glyph d="M186 1274q-29 0 -47 17t-18 46t18 47.5t47 18.5q31 0 49.5 -18.5t18.5 -47.5t-18.5 -46t-49.5 -17z" glyph-name="dotaccent" horiz-adv-x="374" unicode="˙"/><glyph d="M276 1130q-100 0 -160.5 59t-60.5 154t60.5 154t160.5 59t161 -59t61 -154t-61 -154t-161 -59zM276 1200q63 0 101.5 39.5t38.5 103.5q0 65 -38.5 104.5t-101.5 39.5t-101 -39.5t-38 -104.5t38 -104t101 -39z" glyph-name="ring" horiz-adv-x="552" unicode="˚"/><glyph d="M238 -492q-77 0 -124.5 43t-47.5 113q0 63 63 166t166 209l57 -39q-89 -92 -143.5 -181t-54.5 -143q0 -44 28 -71t72 -27q49 0 98 27v-70q-56 -27 -114 -27z" glyph-name="ogonek" horiz-adv-x="415" unicode="˛"/><glyph d="M68 1208q0 113 48 175.5t134 62.5q49 0 93 -23.5t71.5 -51.5t62.5 -51.5t68 -23.5q47 0 76 42t34 116h72q0 -112 -48 -174.5t-134 -62.5q-49 0 -93 23.5t-71.5 51t-62.5 51t-68 23.5q-47 0 -76.5 -42t-34.5 -116h-71z" glyph-name="tilde" horiz-adv-x="794" unicode="˜"/><glyph d="M80 1167l166 328h100l-192 -328h-74zM319 1167l166 328h101l-193 -328h-74z" glyph-name="hungarumlaut" horiz-adv-x="665" unicode="˝"/><glyph d="M-82 1249h-74l-213 328h101z" glyph-name="gravecomb" unicode="̀"/><glyph d="M-354 1249l186 328h100l-213 -328h-73z" glyph-name="acutecomb" unicode="́"/><glyph d="M-281 1577l240 -307h-92l-201 254h-4l-201 -254h-92l240 307h110z" glyph-name="uni0302" unicode="̂"/><glyph d="M-727 1280q0 113 48 175.5t134 62.5q49 0 93 -23.5t71.5 -51.5t62.5 -51.5t68 -23.5q47 0 76.5 42t34.5 116h71q0 -113 -48 -175.5t-134 -62.5q-49 0 -93 23.5t-71.5 51.5t-62.5 51.5t-68 23.5q-47 0 -76 -42t-34 -116h-72z" glyph-name="tildecomb" unicode="̃"/><glyph d="M-563 1366v74h512v-74h-512z" glyph-name="uni0304" unicode="̄"/><glyph d="M-332 1264q-122 0 -196 86t-74 227h80q0 -109 52 -175.5t138 -66.5t138.5 66.5t52.5 175.5h80q0 -141 -74.5 -227t-196.5 -86z" glyph-name="uni0306" unicode="̆"/><glyph d="M-188 1354q-30 0 -48 17t-18 46t18.5 47.5t47.5 18.5q30 0 48.5 -18.5t18.5 -47.5t-18 -46t-49 -17z" glyph-name="uni0307" unicode="̇"/><glyph d="M-463 1358q-29 0 -47 16.5t-18 44.5q0 29 18 47.5t47 18.5q31 0 49.5 -18.5t18.5 -47.5q0 -28 -18.5 -44.5t-49.5 -16.5zM-188 1358q-29 0 -47.5 16.5t-18.5 44.5q0 29 18.5 47.5t47.5 18.5q30 0 48.5 -18.5t18.5 -47.5q0 -28 -18 -44.5t-49 -16.5z" glyph-name="uni0308" unicode="̈"/><glyph d="M-276 1171q-100 0 -161 59t-61 154t61 154t161 59t160.5 -59t60.5 -154t-60.5 -154t-160.5 -59zM-276 1241q63 0 101 39t38 104t-38 104.5t-101 39.5t-101.5 -39.5t-38.5 -104.5q0 -64 38.5 -103.5t101.5 -39.5z" glyph-name="uni030A" unicode="̊"/><glyph d="M-586 1249l166 328h101l-193 -328h-74zM-346 1249l166 328h100l-192 -328h-74z" glyph-name="uni030B" unicode="̋"/><glyph d="M-133 1577h92l-240 -307h-110l-240 307h92l201 -254h4z" glyph-name="uni030C" unicode="̌"/><glyph d="M-78 1399q26 0 42 -16t16 -42q0 -29 -18.5 -47t-47.5 -18q-31 0 -50.5 26t-19.5 68q0 60 29.5 120.5t77.5 98.5l20 -35q-67 -54 -73 -157q4 0 12 1t12 1z" glyph-name="uni0312" unicode="̒"/><glyph d="M-125 -158q31 0 50.5 -26t19.5 -68q0 -77 -32.5 -143t-84.5 -97l-10 35q31 28 50.5 75.5t22.5 102.5q-8 -2 -22 -2q-26 0 -42.5 16t-16.5 42q0 29 18 47t47 18z" glyph-name="uni0326" unicode="̦"/><glyph d="M-217 -141q77 0 123.5 -45.5t46.5 -120.5q0 -83 -72.5 -134t-191.5 -51q-47 0 -98 14.5t-85 37.5v75q36 -26 87.5 -41.5t97.5 -15.5q78 0 126 31.5t48 83.5q0 43 -30 69.5t-79 26.5q-38 0 -74 -15t-55 -40l-57 35l172 274l70 -43l-99 -150l4 -4q41 13 66 13z" glyph-name="uni0327" unicode="̧"/><glyph d="M-178 -492q-77 0 -124.5 43t-47.5 113q0 63 63 166t166 209l58 -39q-90 -93 -144.5 -181.5t-54.5 -142.5q0 -44 28 -71t72 -27q50 0 99 27v-70q-56 -27 -115 -27z" glyph-name="uni0328" unicode="̨"/><glyph d="M-737 676v74h645v-74h-645z" glyph-name="uni0335" unicode="̵"/><glyph d="M-1524 774v76h1391v-76h-1391z" glyph-name="uni0336" unicode="̶"/><glyph d="M-793 -74l-77 51l753 1137l78 -49z" glyph-name="uni0337" unicode="̷"/><glyph d="M-1073 -76l-84 51l997 1674l84 -54z" glyph-name="uni0338" unicode="̸"/><glyph d="M737 1577l602 -1577h-1319l601 1577h116zM678 1495l-524 -1409h1048l-520 1409h-4z" glyph-name="uni0394" horiz-adv-x="1359" unicode="Δ"/><glyph d="M1444 815q0 -244 -98 -437.5t-265 -289.5l346 2v-90h-489v88q123 37 216.5 140t144.5 254.5t51 328.5q0 313 -155 504.5t-407 191.5t-406.5 -191.5t-154.5 -504.5q0 -177 51 -328.5t144.5 -254.5t216.5 -140v-88h-489v90l346 -2q-167 96 -265 289.5t-98 437.5 q0 232 81.5 410t230.5 275t343 97q146 0 268 -56.5t207.5 -158t133 -247.5t47.5 -320z" glyph-name="uni03A9" horiz-adv-x="1574" unicode="Ω"/><glyph d="M944 1044h88v-1044h-88v203h-4q-38 -100 -139 -161.5t-228 -61.5q-187 0 -292 124v-575h-88v1515h88v-667q0 -144 85.5 -232t225.5 -88q158 0 255 111.5t97 294.5v581z" glyph-name="uni03BC" horiz-adv-x="1224" unicode="μ"/><glyph d="M1143 1004v-74h-185v-930h-88v930h-546v-930h-88v930h-185v74h1092z" glyph-name="pi" horiz-adv-x="1193" unicode="π"/><glyph d="M1065 1720h-74l-213 328h101zM1880 1577h100l-442 -1577h-125l-401 1483h-4l-398 -1483h-123l-444 1577h104l400 -1487h4l403 1487h119l400 -1487h4z" glyph-name="Wgrave" horiz-adv-x="2025" unicode="Ẁ"/><glyph d="M868 1249h-73l-213 328h100zM1489 1044h92l-354 -1044h-107l-303 950h-4l-305 -950h-107l-354 1044h96l310 -950h4l313 950h92l309 -950h5z" glyph-name="wgrave" horiz-adv-x="1628" unicode="ẁ"/><glyph d="M1243 2048l-213 -328h-74l187 328h100zM1880 1577h100l-442 -1577h-125l-401 1483h-4l-398 -1483h-123l-444 1577h104l400 -1487h4l403 1487h119l400 -1487h4z" glyph-name="Wacute" horiz-adv-x="2025" unicode="Ẃ"/><glyph d="M1047 1577l-213 -328h-74l186 328h101zM1489 1044h92l-354 -1044h-107l-303 950h-4l-305 -950h-107l-354 1044h96l310 -950h4l313 950h92l309 -950h5z" glyph-name="wacute" horiz-adv-x="1628" unicode="ẃ"/><glyph d="M872 1726q-29 0 -47 17t-18 45q0 29 18 47t47 18q31 0 49.5 -18t18.5 -47q0 -28 -18.5 -45t-49.5 -17zM1147 1726q-29 0 -47.5 17t-18.5 45q0 29 18.5 47t47.5 18q31 0 49 -18t18 -47q0 -28 -18 -45t-49 -17zM1880 1577h100l-442 -1577h-125l-401 1483h-4l-398 -1483 h-123l-444 1577h104l400 -1487h4l403 1487h119l400 -1487h4z" glyph-name="Wdieresis" horiz-adv-x="2025" unicode="Ẅ"/><glyph d="M676 1358q-29 0 -47.5 16.5t-18.5 44.5q0 29 18.5 47.5t47.5 18.5q30 0 48.5 -18.5t18.5 -47.5q0 -28 -18 -44.5t-49 -16.5zM950 1358q-29 0 -47 16.5t-18 44.5q0 29 18 47.5t47 18.5q31 0 49.5 -18.5t18.5 -47.5q0 -28 -18.5 -44.5t-49.5 -16.5zM1489 1044h92 l-354 -1044h-107l-303 950h-4l-305 -950h-107l-354 1044h96l310 -950h4l313 950h92l309 -950h5z" glyph-name="wdieresis" horiz-adv-x="1628" unicode="ẅ"/><glyph d="M1032 883q235 -34 378.5 -166t143.5 -318q0 -189 -126 -304t-332 -115q-203 0 -338 127.5t-154 336.5h90q19 -169 129 -271.5t271 -102.5q164 0 265 92.5t101 243.5t-130.5 261.5t-344.5 141.5l-45 6v86l406 586v4h-1037v-1491h-92v1577h1235v-94z" glyph-name="uni1E9E" horiz-adv-x="1638" unicode="ẞ"/><glyph d="M711 1720h-74l-213 328h100zM1298 1577l-596 -954v-623h-92v625l-596 952h113l532 -860h5l528 860h106z" glyph-name="Ygrave" horiz-adv-x="1312" unicode="Ỳ"/><glyph d="M596 1249h-74l-213 328h101zM944 1044h92l-647 -1515h-92l195 459l-455 1056h96l402 -956h4z" glyph-name="ygrave" horiz-adv-x="1075" unicode="ỳ"/><glyph d="M150 494v73h851v-73h-851z" glyph-name="endash" horiz-adv-x="1150" unicode="–"/><glyph d="M150 494v73h1433v-73h-1433z" glyph-name="emdash" horiz-adv-x="1732" unicode="—"/><glyph d="M207 1354q29 0 47 -19.5t18 -50.5t-20.5 -50.5t-54.5 -19.5q-35 0 -57.5 30t-22.5 77q0 83 47.5 159t124.5 117l10 -45q-52 -29 -84 -83.5t-35 -116.5q8 2 27 2z" glyph-name="quoteleft" horiz-adv-x="411" unicode="‘"/><glyph d="M227 1597q35 0 57.5 -29.5t22.5 -76.5q0 -83 -47.5 -159.5t-124.5 -117.5l-10 46q52 29 84 83.5t35 116.5q-8 -2 -27 -2q-29 0 -47 19.5t-18 50.5t20.5 50t54.5 19z" glyph-name="quoteright" horiz-adv-x="407" unicode="’"/><glyph d="M197 119q35 0 57 -30t22 -77q0 -83 -47.5 -159t-124.5 -117l-10 45q52 29 84 84t35 117q-8 -2 -27 -2q-29 0 -47 19t-18 50t21 50.5t55 19.5z" glyph-name="quotesinglbase" horiz-adv-x="391" unicode="‚"/><glyph d="M299 1552q-52 -29 -84 -83.5t-35 -116.5q8 2 27 2q29 0 47 -19.5t18 -50.5t-20.5 -50.5t-54.5 -19.5q-35 0 -57.5 30t-22.5 77q0 83 47.5 159t124.5 117zM434 1354q29 0 47.5 -19.5t18.5 -50.5t-21 -50.5t-55 -19.5q-35 0 -57.5 30t-22.5 77q0 83 47.5 159t124.5 117 l10 -45q-52 -29 -83.5 -83.5t-34.5 -116.5q8 2 26 2z" glyph-name="quotedblleft" horiz-adv-x="638" unicode="“"/><glyph d="M227 1597q35 0 57.5 -29.5t22.5 -76.5q0 -83 -47.5 -159.5t-124.5 -117.5l-10 46q52 29 84 83.5t35 116.5q-8 -2 -27 -2q-29 0 -47 19.5t-18 50.5t20.5 50t54.5 19zM455 1597q35 0 57.5 -29.5t22.5 -76.5q0 -83 -48 -159.5t-125 -117.5l-10 46q52 29 84 83.5t35 116.5 q-8 -2 -27 -2q-29 0 -47 19.5t-18 50.5t21 50t55 19z" glyph-name="quotedblright" horiz-adv-x="634" unicode="”"/><glyph d="M197 119q35 0 57 -30t22 -77q0 -83 -47.5 -159t-124.5 -117l-10 45q52 29 84 84t35 117q-8 -2 -27 -2q-29 0 -47 19t-18 50t21 50.5t55 19.5zM424 119q35 0 57.5 -30t22.5 -77q0 -83 -47.5 -159t-124.5 -117l-10 45q52 29 83.5 83.5t34.5 117.5q-8 -2 -26 -2 q-29 0 -47.5 19t-18.5 50t21 50.5t55 19.5z" glyph-name="quotedblbase" horiz-adv-x="618" unicode="„"/><glyph d="M643 1341v-69h-229v-506h-82v506h-230v69h230v236h82v-236h229z" glyph-name="dagger" horiz-adv-x="745" unicode="†"/><glyph d="M666 1272h-230v-201h230v-70h-230v-235h-82v235h-229v70h229v201h-229v69h229v236h82v-236h230v-69z" glyph-name="daggerdbl" horiz-adv-x="790" unicode="‡"/><glyph d="M352 459q-71 0 -114 39.5t-43 105.5t43.5 107t113.5 41t114 -41t44 -107t-43.5 -105.5t-114.5 -39.5z" glyph-name="bullet" horiz-adv-x="704" unicode="•"/><glyph d="M223 -20q-33 0 -53 19t-20 50t20 50.5t53 19.5t53.5 -19.5t20.5 -50.5t-20 -50t-54 -19zM571 -20q-33 0 -53 19t-20 50t20 50.5t53 19.5t53.5 -19.5t20.5 -50.5t-20 -50t-54 -19zM920 -20q-34 0 -54 19t-20 50t20.5 50.5t53.5 19.5t53 -19.5t20 -50.5t-20 -50t-53 -19z" glyph-name="ellipsis" horiz-adv-x="1142" unicode="…"/><glyph d="M354 840q-120 0 -193 104.5t-73 274.5t73 274t193 104t193.5 -104t73.5 -274t-73.5 -274.5t-193.5 -104.5zM139 0l1032 1577h97l-1032 -1577h-97zM354 911q82 0 131.5 85t49.5 223t-49.5 222.5t-131.5 84.5t-131 -84.5t-49 -222.5t49.5 -223t130.5 -85zM1057 -20 q-120 0 -193 104t-73 274t73 274.5t193 104.5t193 -104.5t73 -274.5t-73 -274t-193 -104zM1710 -20q-120 0 -193 104t-73 274t73 274.5t193 104.5t193 -104.5t73 -274.5t-73 -274t-193 -104zM1057 51q82 0 131 84.5t49 222.5t-49.5 223t-130.5 85t-130.5 -85t-49.5 -223 t49 -222.5t131 -84.5zM1710 51q82 0 131 84.5t49 222.5t-49.5 223t-130.5 85t-130.5 -85t-49.5 -223t49 -222.5t131 -84.5z" glyph-name="perthousand" horiz-adv-x="2041" unicode="‰"/><glyph d="M453 240h-99l-252 292l252 293h99l-246 -293z" glyph-name="guilsinglleft" horiz-adv-x="604" unicode="‹"/><glyph d="M152 240l245 292l-245 293h98l252 -293l-252 -292h-98z" glyph-name="guilsinglright" horiz-adv-x="604" unicode="›"/><glyph d="M-410 0l1033 1577h96l-1032 -1577h-97z" glyph-name="fraction" horiz-adv-x="307" unicode="⁄"/><glyph d="M1202 236l43 -78q-87 -80 -209 -129t-237 -49q-238 0 -396.5 175.5t-193.5 473.5h-139v86h131q-2 25 -2 76q0 61 2 90h-131v86h141q38 290 195.5 460t392.5 170q110 0 224 -35t187 -92l-45 -77q-67 52 -167 83t-199 31q-193 0 -325 -145t-169 -393h621l-47 -88h-582 q-4 -58 -4 -90q0 -49 2 -74h498l-48 -88h-442q34 -257 166.5 -408t329.5 -151q106 0 217 45.5t186 120.5z" glyph-name="Euro" horiz-adv-x="1310" unicode="€"/><glyph d="M74 1520v57h444v-57h-186v-533h-72v533h-186zM1116 1577h98v-590h-69l2 504h-2l-213 -504h-62l-202 504h-2v-504h-66v590h98l205 -506h2z" glyph-name="trademark" horiz-adv-x="1386" unicode="™"/><glyph d="M1106 1577h96l-1032 -1577h-96zM268 692v705h-170v63q88 0 132.5 26t66.5 91h59v-885h-88zM1309 461q89 -25 139.5 -83.5t50.5 -139.5q0 -112 -87 -181t-228 -69t-227.5 69t-86.5 181q0 81 50 139.5t139 83.5v2q-74 25 -117 78.5t-43 124.5q0 104 78.5 167.5t206.5 63.5 t206 -63.5t78 -167.5q0 -71 -42.5 -124.5t-116.5 -78.5v-2zM989 659q0 -73 53.5 -118t141.5 -45t141 44.5t53 118.5q0 72 -53.5 117t-140.5 45t-141 -45t-54 -117zM1184 63q100 0 161.5 49.5t61.5 131.5q0 81 -61.5 130.5t-161.5 49.5t-161.5 -49.5t-61.5 -130.5 q0 -82 61.5 -131.5t161.5 -49.5z" glyph-name="oneeighth" horiz-adv-x="1576" unicode="⅛"/><glyph d="M686 928q0 -117 -81.5 -182.5t-227.5 -65.5q-135 0 -213 73t-84 205h84q5 -96 61 -150t152 -54q103 0 161 47.5t58 132.5t-60 131.5t-167 46.5h-27v70h16q100 0 155.5 44t55.5 122t-51 123t-141 45q-88 0 -140.5 -54t-56.5 -151h-84q6 131 81 204.5t200 73.5 q133 0 207.5 -62.5t74.5 -172.5q0 -152 -167 -203v-2q94 -22 144 -79t50 -142zM1376 1577h97l-1033 -1577h-96zM1579 461q89 -25 139.5 -83.5t50.5 -139.5q0 -112 -87 -181t-228 -69t-227 68.5t-86 181.5q0 81 50 139.5t138 83.5v2q-74 25 -117 78.5t-43 124.5 q0 104 78.5 167.5t206.5 63.5t206.5 -63.5t78.5 -167.5q0 -71 -43 -124.5t-117 -78.5v-2zM1260 659q0 -74 53 -118.5t141 -44.5t141.5 45t53.5 118q0 72 -54 117t-141 45t-140.5 -45t-53.5 -117zM1454 63q100 0 161.5 49.5t61.5 131.5q0 81 -61.5 130.5t-161.5 49.5 t-161.5 -49.5t-61.5 -130.5q0 -82 61.5 -131.5t161.5 -49.5z" glyph-name="threeeighths" horiz-adv-x="1847" unicode="⅜"/><glyph d="M698 981q0 -141 -83 -221t-230 -80q-129 0 -209.5 64.5t-95.5 181.5h86q14 -80 72 -125t147 -45q104 0 163.5 59.5t59.5 165.5q0 107 -58.5 167t-162.5 60q-84 0 -138 -45t-77 -121h-88l74 535h471v-74h-391l-48 -317l3 -2q80 96 223 96q133 0 207.5 -79t74.5 -220z M1386 1577h97l-1032 -1577h-97zM1589 461q89 -25 140 -83.5t51 -139.5q0 -112 -87.5 -181t-228.5 -69t-227 68.5t-86 181.5q0 81 50 139.5t138 83.5v2q-74 25 -116.5 78.5t-42.5 124.5q0 104 78 167.5t206 63.5t206.5 -63.5t78.5 -167.5q0 -71 -43 -124.5t-117 -78.5v-2z M1270 659q0 -74 53 -118.5t141 -44.5t141.5 45t53.5 118q0 72 -54 117t-141 45t-140.5 -45t-53.5 -117zM1464 63q100 0 162 50t62 131t-62 130.5t-162 49.5t-161.5 -49.5t-61.5 -130.5q0 -82 61.5 -131.5t161.5 -49.5z" glyph-name="fiveeighths" horiz-adv-x="1857" unicode="⅝"/><glyph d="M596 1501v2h-533v74h611v-80q-145 -148 -226 -360.5t-81 -444.5h-95q0 230 86 444t238 365zM1253 1577h97l-1033 -1577h-96zM1456 461q89 -25 140 -83.5t51 -139.5q0 -112 -87.5 -181t-228.5 -69t-227 68.5t-86 181.5q0 81 50 139.5t138 83.5v2q-74 25 -116.5 78.5 t-42.5 124.5q0 104 78 167.5t206 63.5t206.5 -63.5t78.5 -167.5q0 -71 -43 -124.5t-117 -78.5v-2zM1137 659q0 -74 53 -118.5t141 -44.5t141.5 45t53.5 118q0 72 -54 117t-141 45t-140.5 -45t-53.5 -117zM1331 63q100 0 161.5 49.5t61.5 131.5q0 81 -61.5 130.5t-161.5 49.5 t-161.5 -49.5t-61.5 -130.5q0 -82 61.5 -131.5t161.5 -49.5z" glyph-name="seveneighths" horiz-adv-x="1740" unicode="⅞"/><glyph d="M612 1536q247 0 398 -213.5t151 -562.5q0 -232 -81.5 -409.5t-229.5 -274t-342 -96.5q-197 0 -317.5 97t-120.5 257q0 146 123 259t349 177t523 70q-17 278 -142 443t-319 165q-109 0 -213 -57t-162 -150l-69 47q72 112 196 180t256 68zM510 68q249 0 401.5 188 t155.5 496q-408 -8 -655.5 -123.5t-247.5 -300.5q0 -117 95.5 -188.5t250.5 -71.5z" glyph-name="partialdiff" horiz-adv-x="1273" unicode="∂"/><glyph d="M1065 868q119 -141 119 -354q0 -239 -146.5 -385.5t-384.5 -146.5q-208 0 -348 112l-86 -88l-67 66l86 88q-119 141 -119 354q0 238 146.5 384t387.5 146q207 0 344 -110l86 88l68 -66zM209 516q0 -174 92 -293l635 649q-118 91 -283 91q-200 0 -322 -123t-122 -324z M653 66q198 0 319.5 124t121.5 326q0 172 -90 289l-637 -647q119 -92 286 -92z" glyph-name="emptyset" horiz-adv-x="1302" unicode="∅"/><glyph d="M1618 1577v-78h-297v-1970h-88v1970h-795v-1970h-88v1970h-297v78h1565z" glyph-name="product" horiz-adv-x="1671" unicode="∏"/><glyph d="M66 -471v74l702 956l-686 944v74h1020v-84h-905l684 -934l-701 -946h942v-84h-1056z" glyph-name="summation" horiz-adv-x="1196" unicode="∑"/><glyph d="M152 479v74h737v-74h-737z" glyph-name="minus" horiz-adv-x="1040" unicode="−"/><glyph d="M1139 1577h104l-635 -1802h-116l-261 745h-217v84h291l246 -756z" glyph-name="radical" horiz-adv-x="1230" unicode="√"/><glyph d="M1155 907q169 0 272 -108t103 -285t-103 -285t-272 -108q-119 0 -206 62.5t-124 172.5q-37 -110 -123.5 -172.5t-205.5 -62.5q-169 0 -272 108t-103 285t103 285t272 108q119 0 205.5 -62.5t123.5 -172.5q37 110 124 172.5t206 62.5zM496 199q127 0 205.5 87t78.5 228 t-78.5 228t-205.5 87q-128 0 -206.5 -87t-78.5 -228t78.5 -228t206.5 -87zM1155 199q128 0 206.5 87t78.5 228t-78.5 228t-206.5 87t-206.5 -87t-78.5 -228t78.5 -228t206.5 -87z" glyph-name="infinity" horiz-adv-x="1650" unicode="∞"/><glyph d="M152 -492q-113 0 -189 37l23 74q81 -33 176 -33q104 0 167.5 72.5t63.5 191.5v1397q0 158 90.5 254t239.5 96q114 0 188 -36l-22 -74q-81 33 -176 33q-104 0 -168 -73t-64 -192v-1396q0 -158 -90 -254.5t-239 -96.5z" glyph-name="integral" horiz-adv-x="874" unicode="∫"/><glyph d="M154 553q0 113 60 175.5t169 62.5q64 0 118.5 -15.5t93.5 -37.5t76.5 -44t83 -37.5t95.5 -15.5q66 0 105.5 42t45.5 116h72q0 -113 -60 -175.5t-169 -62.5q-64 0 -118.5 15.5t-93.5 37.5t-76.5 44t-83 37.5t-95.5 15.5q-66 0 -106 -42t-46 -116h-71zM154 225 q0 113 60 175.5t169 62.5q64 0 118.5 -15.5t93.5 -37.5t76.5 -44t83 -37.5t95.5 -15.5q66 0 105.5 42t45.5 116h72q0 -113 -60 -175.5t-169 -62.5q-64 0 -118.5 15.5t-93.5 37.5t-76.5 44t-83 37.5t-95.5 15.5q-66 0 -106 -42t-46 -116h-71z" glyph-name="approxequal" horiz-adv-x="1226" unicode="≈"/><glyph d="M891 602h-299l-51 -172h350v-74h-371l-104 -356h-80l102 356h-284v74h307l49 172h-356v74h378l95 328h82l-97 -328h279v-74z" glyph-name="notequal" horiz-adv-x="1044" unicode="≠"/><glyph d="M879 1014v-78l-668 -289l668 -289v-77l-738 327v76zM141 0v74h738v-74h-738z" glyph-name="lessequal" horiz-adv-x="1036" unicode="≤"/><glyph d="M158 1014l737 -330v-76l-737 -327v77l667 289l-667 289v78zM158 0v74h737v-74h-737z" glyph-name="greaterequal" horiz-adv-x="1036" unicode="≥"/><glyph d="M469 -20l-389 522l389 522l389 -522zM469 90l299 412l-299 411l-299 -411z" glyph-name="lozenge" horiz-adv-x="937" unicode="◊"/><glyph d="M156 -20q-15 0 -25 10.5t-10 25.5q0 21 10 31l700 698h-663q-47 0 -47 39q0 16 14 33l696 701h-669q-41 0 -41 38v3q0 38 41 38h758q47 0 47 -41q0 -20 -17 -34l-698 -697h676q17 0 29 -12t12 -29v-669l694 692q13 16 35 16q37 0 37 -45v-663l696 692q13 16 33 16 q15 0 25 -12t10 -27q0 -18 -13 -28l-753 -762q-14 -14 -35 -14q-41 0 -41 47v663l-694 -696q-14 -14 -35 -14q-41 0 -41 47v663l-697 -696q-14 -14 -34 -14z" glyph-name="uniF8FF" horiz-adv-x="2609" unicode=""/><glyph d="M825 1720l187 328h100l-213 -328h-74zM508 -20q-186 0 -310 143.5t-141 378.5h88q19 -195 117.5 -313.5t243.5 -118.5q149 0 240.5 101.5t91.5 268.5v1137h92v-1124q0 -214 -115.5 -343.5t-306.5 -129.5z" glyph-name="uni00A40301" horiz-adv-x="1130"/><glyph d="M244 1354q-30 0 -48 17t-18 46t18.5 47.5t47.5 18.5q30 0 48.5 -18.5t18.5 -47.5t-18 -46t-49 -17zM201 0v1044h88v-1044h-88z" glyph-name="i.loclTRK" horiz-adv-x="489"/><glyph d="M190 1249l187 328h100l-213 -328h-74zM201 -471v1515h88v-1515h-88z" glyph-name="uni006A0301" horiz-adv-x="489"/><glyph d="M664 -20q-255 0 -398 213t-143 595t143 595.5t398 213.5t397.5 -213.5t142.5 -595.5t-142.5 -595t-397.5 -213zM664 70q211 0 328.5 189t117.5 529t-117.5 529.5t-328.5 189.5t-329 -189.5t-118 -529.5q0 -339 118 -528.5t329 -189.5z" glyph-name="zero.lf" horiz-adv-x="1327"/><glyph d="M397 1577h62v-1577h-92v1311h-316v75q157 0 232.5 41t113.5 150z" glyph-name="one.lf" horiz-adv-x="675"/><glyph d="M219 86h920v-86h-1041v102q434 240 670 507t236 534q0 164 -107 264t-281 100q-175 0 -286.5 -115.5t-120.5 -304.5h-92q11 229 147.5 369.5t351.5 140.5q217 0 349.5 -125t132.5 -329q0 -278 -229 -549t-650 -504v-4z" glyph-name="two.lf" horiz-adv-x="1234"/><glyph d="M754 813q171 -37 269.5 -143.5t98.5 -259.5q0 -194 -142.5 -312t-375.5 -118q-218 0 -355 133.5t-143 353.5h89q7 -181 119.5 -291t289.5 -110q191 0 307.5 96t116.5 254t-120 255t-316 97h-51v86h28q186 0 299 90t113 238q0 149 -104 239t-273 90q-163 0 -267.5 -112 t-113.5 -295h-88q9 223 137.5 358t331.5 135q212 0 341.5 -112.5t129.5 -296.5q0 -137 -86 -234.5t-235 -136.5v-4z" glyph-name="three.lf" horiz-adv-x="1239"/><glyph d="M1126 518v-84h-204v-434h-93v434h-778v94l752 1049h119v-1059h204zM827 1477l-677 -955v-4h681v959h-4z" glyph-name="four.lf" horiz-adv-x="1200"/><glyph d="M651 1049q223 0 358.5 -146.5t135.5 -386.5q0 -241 -146.5 -388.5t-384.5 -147.5q-207 0 -345.5 119.5t-157.5 314.5h92q19 -155 131.5 -249.5t279.5 -94.5q197 0 317 122.5t120 323.5t-116.5 324t-307.5 123q-143 0 -257.5 -92t-158.5 -242h-92l125 948h782v-86h-694 l-94 -643l4 -2q71 95 178.5 149t230.5 54z" glyph-name="five.lf" horiz-adv-x="1236"/><glyph d="M688 1020q232 0 362 -137t130 -383q0 -242 -135.5 -381t-354.5 -139q-297 0 -431 183.5t-134 579.5q0 403 148.5 628.5t412.5 225.5q202 0 323.5 -116t133.5 -320h-92q-10 164 -106.5 255t-258.5 91q-217 0 -340.5 -197t-126.5 -550h4q51 125 170 192.5t295 67.5zM664 70 q198 0 309.5 114t111.5 316q0 204 -111.5 317t-309.5 113t-310 -108t-112 -300q0 -207 118.5 -329.5t303.5 -122.5z" glyph-name="six.lf" horiz-adv-x="1296"/><glyph d="M1067 1577v-94q-260 -272 -406.5 -664t-146.5 -819h-100q0 427 149.5 820t415.5 667v4h-948v86h1036z" glyph-name="seven.lf" horiz-adv-x="1101"/><glyph d="M819 821q163 -39 256.5 -146t93.5 -259q0 -196 -145 -316t-381 -120t-381 120t-145 316q0 152 93 259.5t255 145.5v4q-138 40 -217.5 137.5t-79.5 231.5q0 181 130.5 292t344.5 111t344.5 -111t130.5 -292q0 -135 -80 -232.5t-219 -136.5v-4zM262 1188 q0 -145 104.5 -233.5t276.5 -88.5t276.5 88.5t104.5 233.5t-104.5 232t-276.5 87t-276.5 -87t-104.5 -232zM643 70q195 0 313.5 97t118.5 255q0 160 -118.5 257t-313.5 97t-313.5 -97t-118.5 -257q0 -158 118.5 -255t313.5 -97z" glyph-name="eight.lf" horiz-adv-x="1286"/><glyph d="M610 1597q297 0 431.5 -184t134.5 -579q0 -402 -149 -628t-413 -226q-212 0 -338.5 127.5t-140.5 353.5h92q12 -186 114 -288.5t273 -102.5q220 0 343.5 202t123.5 562v14h-4q-51 -119 -170 -183.5t-295 -64.5q-232 0 -361.5 132t-129.5 368q0 232 134 364.5t355 132.5z M637 690q198 0 310 102t112 285q0 187 -120 308.5t-302 121.5q-199 0 -310.5 -107t-111.5 -300t112 -301.5t310 -108.5z" glyph-name="nine.lf" horiz-adv-x="1300"/><glyph d="M621 -20q-229 0 -369.5 163t-140.5 430t140.5 430.5t369.5 163.5t369 -163.5t140 -430.5t-140 -430t-369 -163zM621 57q189 0 304 142t115 374t-115 374.5t-304 142.5t-304.5 -142.5t-115.5 -374.5t115.5 -374t304.5 -142z" glyph-name="zero.osf" horiz-adv-x="1241"/><glyph d="M354 1147h58v-1147h-88v897h-263v70q132 0 196.5 38.5t96.5 141.5z" glyph-name="one.osf" horiz-adv-x="608"/><glyph d="M233 74h844v-74h-979v86q399 129 623.5 319.5t224.5 401.5q0 127 -101 205t-265 78q-161 0 -264.5 -93t-112.5 -247h-86q9 188 137.5 302.5t329.5 114.5q204 0 328 -98.5t124 -261.5q0 -224 -212.5 -416.5t-590.5 -312.5v-4z" glyph-name="two.osf" horiz-adv-x="1169"/><glyph d="M739 498q149 -39 234.5 -134t85.5 -227q0 -172 -138.5 -277.5t-365.5 -105.5q-203 0 -330 120t-133 316h84q7 -161 111.5 -259.5t267.5 -98.5q186 0 300 85.5t114 225.5q0 143 -114.5 230.5t-301.5 87.5h-47v71h26q177 0 284.5 76t107.5 199q0 127 -99 205t-260 78 q-152 0 -252 -97.5t-110 -257.5h-84q10 195 132.5 313.5t313.5 118.5q201 0 325 -97.5t124 -256.5q0 -111 -73 -192.5t-202 -118.5v-4z" glyph-name="three.osf" horiz-adv-x="1163"/><glyph d="M1063 74v-74h-197v-225h-88v225h-729v88l703 1059h114v-1073h197zM776 1047l-633 -969v-4h637v973h-4z" glyph-name="four.osf" horiz-adv-x="1112"/><glyph d="M621 696q217 0 349 -128t132 -339q0 -214 -139.5 -344.5t-368.5 -130.5q-199 0 -336 103t-162 272h88q25 -134 137.5 -215.5t272.5 -81.5q188 0 303 109.5t115 287.5q0 175 -112.5 282t-295.5 107q-142 0 -255 -75.5t-156 -198.5h-89l119 803h789v-74h-709l-86 -545l4 -4 q68 80 173.5 126t226.5 46z" glyph-name="five.osf" horiz-adv-x="1185"/><glyph d="M682 944q230 0 358.5 -127t128.5 -354q0 -225 -134 -354t-353 -129q-294 0 -426.5 172t-132.5 544q0 376 147 587.5t408 211.5q202 0 323.5 -109t133.5 -301h-88q-10 157 -108 244.5t-261 87.5q-217 0 -340.5 -189.5t-124.5 -525.5h4q51 116 171 179t294 63zM657 57 q198 0 310 107t112 299q0 190 -112 296.5t-310 106.5t-309.5 -101.5t-111.5 -281.5q0 -195 117.5 -310.5t303.5 -115.5z" glyph-name="six.osf" horiz-adv-x="1280"/><glyph d="M987 1147v-82q-259 -237 -404 -577t-145 -713h-100q0 373 148.5 714.5t414.5 579.5v4h-868v74h954z" glyph-name="seven.osf" horiz-adv-x="1024"/><glyph d="M817 766q159 -37 250.5 -137t91.5 -240q0 -184 -143.5 -296.5t-378.5 -112.5t-378.5 112.5t-143.5 296.5q0 140 91.5 240t250.5 137v4q-137 37 -215 128t-78 218q0 170 130 274.5t343 104.5t343 -104.5t130 -274.5q0 -126 -78.5 -217.5t-214.5 -128.5v-4zM254 1110 q0 -137 105.5 -221t277.5 -84t277.5 84t105.5 221q0 138 -105.5 222.5t-277.5 84.5t-277.5 -84.5t-105.5 -222.5zM637 57q195 0 313.5 93t118.5 245q0 151 -118.5 242.5t-313.5 91.5t-313.5 -91.5t-118.5 -242.5q0 -152 118.5 -245t313.5 -93z" glyph-name="eight.osf" horiz-adv-x="1273"/><glyph d="M586 1167q294 0 426.5 -162.5t132.5 -512.5q0 -348 -146.5 -543t-408.5 -195q-202 0 -322.5 98.5t-134.5 270.5h88q12 -137 109.5 -214t259.5 -77q213 0 335 169t130 472h-4q-52 -110 -171 -169.5t-294 -59.5q-232 0 -360 121.5t-128 339.5q0 216 134.5 339t353.5 123z M610 322q199 0 310.5 96t111.5 266q0 186 -118 296t-304 110q-200 0 -311 -101t-111 -284q0 -181 111 -282t311 -101z" glyph-name="nine.osf" horiz-adv-x="1255"/><glyph d="M711 -20q-160 0 -283 100.5t-190.5 284t-67.5 423.5t67.5 424t190.5 284.5t283 100.5t283 -100.5t190 -284.5t67 -424t-67 -423.5t-190 -284t-283 -100.5zM711 70q201 0 323.5 197t122.5 521t-122.5 521.5t-323.5 197.5t-324 -197.5t-123 -521.5t123 -521t324 -197z" glyph-name="zero.tf" horiz-adv-x="1419"/><glyph d="M803 86h426v-86h-1002v86h484v1178h-353v75q174 0 258 51.5t125 186.5h62v-1491z" glyph-name="one.tf" horiz-adv-x="1419"/><glyph d="M311 86h920v-86h-1041v102q434 240 670 507t236 534q0 164 -106.5 264t-280.5 100q-175 0 -287 -115.5t-121 -304.5h-92q11 229 148 369.5t352 140.5q217 0 349 -125t132 -329q0 -278 -229 -549t-650 -504v-4z" glyph-name="two.tf" horiz-adv-x="1419"/><glyph d="M844 813q171 -37 269.5 -143.5t98.5 -259.5q0 -194 -142.5 -312t-375.5 -118q-218 0 -354.5 133.5t-142.5 353.5h88q7 -181 119.5 -291t289.5 -110q191 0 307.5 96t116.5 254t-120 255t-316 97h-51v86h28q186 0 299 90t113 238q0 149 -104 239t-273 90 q-163 0 -267.5 -112t-113.5 -295h-88q9 223 137.5 358t331.5 135q212 0 341.5 -112.5t129.5 -296.5q0 -137 -86 -234.5t-235 -136.5v-4z" glyph-name="three.tf" horiz-adv-x="1419"/><glyph d="M1264 518v-84h-248v-434h-92v434h-777v94l750 1049h119v-1059h248zM922 1477l-676 -955v-4h680v959h-4z" glyph-name="four.tf" horiz-adv-x="1419"/><glyph d="M743 1049q223 0 358.5 -146.5t135.5 -386.5q0 -241 -146 -388.5t-384 -147.5q-207 0 -346 119.5t-158 314.5h92q19 -155 132 -249.5t280 -94.5q196 0 316 122.5t120 323.5t-116.5 324t-307.5 123q-143 0 -257.5 -92t-158.5 -242h-92l125 948h782v-86h-694l-94 -643l4 -2 q71 95 178.5 149t230.5 54z" glyph-name="five.tf" horiz-adv-x="1419"/><glyph d="M750 1020q232 0 361.5 -137t129.5 -383q0 -242 -135 -381t-354 -139q-297 0 -431.5 183.5t-134.5 579.5q0 402 149 628t413 226q202 0 323 -116t133 -320h-92q-10 164 -106 255t-258 91q-217 0 -340.5 -197t-126.5 -550h4q51 125 170 192.5t295 67.5zM725 70 q198 0 310 114t112 316q0 203 -111.5 316.5t-310.5 113.5q-198 0 -310 -108t-112 -300q0 -207 118.5 -329.5t303.5 -122.5z" glyph-name="six.tf" horiz-adv-x="1419"/><glyph d="M1245 1577v-94q-269 -271 -421 -663.5t-152 -819.5h-101q0 429 155 822.5t431 664.5v4h-989v86h1077z" glyph-name="seven.tf" horiz-adv-x="1419"/><glyph d="M887 821q163 -39 256.5 -146t93.5 -259q0 -196 -145 -316t-381 -120q-237 0 -382 120t-145 316q0 153 93 259.5t255 145.5v4q-138 40 -217 137t-79 232q0 181 130.5 292t344.5 111t344.5 -111t130.5 -292q0 -135 -80 -232.5t-219 -136.5v-4zM330 1188 q0 -145 104.5 -233.5t276.5 -88.5t276.5 88.5t104.5 233.5t-104.5 232t-276.5 87t-276.5 -87t-104.5 -232zM711 70q195 0 313.5 97t118.5 255q0 160 -118.5 257t-313.5 97t-313.5 -97t-118.5 -257q0 -158 118.5 -255t313.5 -97z" glyph-name="eight.tf" horiz-adv-x="1419"/><glyph d="M670 1597q297 0 431 -184t134 -579q0 -403 -148.5 -628.5t-412.5 -225.5q-212 0 -338.5 127.5t-140.5 353.5h92q12 -186 114 -288.5t273 -102.5q220 0 343.5 202t123.5 562v14h-4q-51 -119 -170 -183.5t-295 -64.5q-232 0 -362 132t-130 368q0 232 134.5 364.5 t355.5 132.5zM696 690q198 0 310 102t112 285q0 187 -120 308.5t-302 121.5q-199 0 -310.5 -107t-111.5 -300t112 -301.5t310 -108.5z" glyph-name="nine.tf" horiz-adv-x="1419"/><glyph d="M416 -12q-146 0 -235 125t-89 329t89 329.5t235 125.5t234.5 -125.5t88.5 -329.5t-88.5 -329t-234.5 -125zM416 63q104 0 168.5 104.5t64.5 274.5t-64.5 274.5t-168.5 104.5t-169 -104.5t-65 -274.5t65 -274.5t169 -104.5z" glyph-name="zero.dnom" horiz-adv-x="831"/><glyph d="M254 885h59v-885h-88v705h-170v63q88 0 132.5 26t66.5 91z" glyph-name="one.dnom" horiz-adv-x="473"/><glyph d="M188 74h517v-74h-619v84q241 129 372.5 272.5t131.5 284.5q0 85 -52.5 132.5t-144.5 47.5q-94 0 -150.5 -56t-60.5 -155h-86q8 135 86 211t211 76q136 0 212.5 -68t76.5 -190q0 -151 -132 -297.5t-362 -265.5v-2z" glyph-name="two.dnom" horiz-adv-x="786"/><glyph d="M498 457q94 -22 144 -79t50 -142q0 -117 -81.5 -182.5t-227.5 -65.5q-135 0 -213 73t-84 205h84q5 -96 61 -150.5t152 -54.5q103 0 161 48t58 133t-60 131.5t-167 46.5h-27v69h17q99 0 154.5 44t55.5 122t-51 123t-141 45q-88 0 -140.5 -54t-56.5 -151h-84q6 131 81 205 t200 74q133 0 208 -62.5t75 -172.5q0 -152 -168 -203v-2z" glyph-name="three.dnom" horiz-adv-x="784"/><glyph d="M707 303v-74h-119v-229h-88v229h-443v82l420 574h111v-582h119zM500 795l-357 -490v-2h359v492h-2z" glyph-name="four.dnom" horiz-adv-x="772"/><glyph d="M422 588q133 0 208 -79t75 -220t-83 -221t-231 -80q-129 0 -209.5 64t-95.5 181h86q14 -80 72 -125t147 -45q104 0 163.5 60t59.5 166q0 107 -58.5 167t-162.5 60q-84 0 -138 -45t-77 -121h-88l74 535h471v-74h-391l-47 -317l2 -2q80 96 223 96z" glyph-name="five.dnom" horiz-adv-x="782"/><glyph d="M451 573q132 0 205 -75.5t73 -212.5q0 -138 -82 -217.5t-217 -79.5q-172 0 -253 106.5t-81 327.5q0 224 89 349.5t247 125.5q122 0 195 -65.5t82 -182.5h-86q-7 82 -57.5 127t-133.5 45q-115 0 -180.5 -102.5t-67.5 -284.5h2q31 67 99.5 103t165.5 36zM420 63 q103 0 161 57.5t58 160.5t-58 160t-161 57t-161 -54.5t-58 -152.5q0 -104 61 -166t158 -62z" glyph-name="six.dnom" horiz-adv-x="819"/><glyph d="M655 885v-80q-145 -148 -226 -360.5t-81 -444.5h-94q0 230 86 444t238 365v2h-533v74h610z" glyph-name="seven.dnom" horiz-adv-x="702"/><glyph d="M528 461q89 -25 140 -83.5t51 -139.5q0 -112 -87.5 -181t-228.5 -69t-227 68.5t-86 181.5q0 81 50 139.5t139 83.5v2q-74 25 -117 78.5t-43 124.5q0 104 78 167.5t206 63.5t206.5 -63.5t78.5 -167.5q0 -71 -43 -124.5t-117 -78.5v-2zM209 659q0 -74 53 -118.5t141 -44.5 t141.5 45t53.5 118q0 72 -54 117t-141 45t-140.5 -45t-53.5 -117zM403 63q100 0 162 50t62 131t-62 130.5t-162 49.5t-161.5 -49.5t-61.5 -130.5q0 -82 61.5 -131.5t161.5 -49.5z" glyph-name="eight.dnom" horiz-adv-x="808"/><glyph d="M391 897q174 0 255 -106.5t81 -327.5q0 -224 -89 -349.5t-247 -125.5q-127 0 -203.5 72t-85.5 200h86q7 -93 61 -145t142 -52q117 0 182.5 105.5t65.5 294.5v6h-2q-63 -133 -264 -133q-132 0 -205.5 72.5t-73.5 203.5q0 133 81 209t216 76zM403 412q103 0 161.5 51 t58.5 143q0 94 -62.5 154.5t-157.5 60.5q-103 0 -161 -54t-58 -151q0 -98 58 -151t161 -53z" glyph-name="nine.dnom" horiz-adv-x="823"/><glyph d="M416 680q-146 0 -235 125.5t-89 329.5t89 329t235 125t234.5 -125t88.5 -329t-88.5 -329.5t-234.5 -125.5zM416 756q104 0 168.5 104.5t64.5 274.5t-64.5 274t-168.5 104q-105 0 -169.5 -104t-64.5 -274t65 -274.5t169 -104.5z" glyph-name="zero.numr" horiz-adv-x="831"/><glyph d="M256 1577h59v-885h-88v705h-170v63q88 0 132.5 26t66.5 91z" glyph-name="one.numr" horiz-adv-x="473"/><glyph d="M186 766h516v-74h-618v84q241 129 372.5 272.5t131.5 284.5q0 85 -52.5 132.5t-144.5 47.5q-94 0 -150.5 -55.5t-60.5 -154.5h-86q8 135 86 210.5t211 75.5q136 0 212.5 -68t76.5 -190q0 -151 -132 -297.5t-362 -265.5v-2z" glyph-name="two.numr" horiz-adv-x="784"/><glyph d="M496 1149q94 -22 144 -79t50 -142q0 -117 -81.5 -182.5t-227.5 -65.5q-135 0 -213 73t-84 205h84q5 -96 61 -150t152 -54q103 0 161 47.5t58 132.5t-60 131.5t-167 46.5h-27v70h16q100 0 155.5 44t55.5 122t-51 123t-141 45q-88 0 -140.5 -54t-56.5 -151h-84 q6 131 81 204.5t200 73.5q133 0 208 -62.5t75 -172.5q0 -152 -168 -203v-2z" glyph-name="three.numr" horiz-adv-x="782"/><glyph d="M707 995v-73h-119v-230h-88v230h-443v82l420 573h111v-582h119zM500 1487l-357 -490v-2h359v492h-2z" glyph-name="four.numr" horiz-adv-x="772"/><glyph d="M422 1280q133 0 208 -79t75 -220t-83 -221t-231 -80q-129 0 -209.5 64.5t-95.5 181.5h86q14 -80 72 -125t147 -45q104 0 163.5 59.5t59.5 165.5q0 107 -58.5 167t-162.5 60q-84 0 -138 -45t-77 -121h-88l74 535h471v-74h-391l-47 -317l2 -2q80 96 223 96z" glyph-name="five.numr" horiz-adv-x="782"/><glyph d="M449 1266q132 0 205 -76t73 -213q0 -138 -82 -217.5t-217 -79.5q-172 0 -253 106.5t-81 327.5q0 224 89 349.5t247 125.5q122 0 195 -65.5t82 -182.5h-86q-7 82 -57.5 127t-133.5 45q-115 0 -180.5 -102.5t-67.5 -284.5h2q31 67 99.5 103.5t165.5 36.5zM418 756 q103 0 161 57t58 160t-58 160t-161 57t-161 -54.5t-58 -152.5q0 -104 61 -165.5t158 -61.5z" glyph-name="six.numr" horiz-adv-x="815"/><glyph d="M655 1577v-80q-145 -148 -226 -360.5t-81 -444.5h-94q0 230 86 444t238 365v2h-533v74h610z" glyph-name="seven.numr" horiz-adv-x="702"/><glyph d="M528 1153q89 -25 140 -83.5t51 -139.5q0 -112 -87.5 -181t-228.5 -69t-227 68.5t-86 181.5q0 81 50 139.5t139 83.5v2q-74 25 -117 78.5t-43 124.5q0 104 78 167.5t206 63.5t206.5 -63.5t78.5 -167.5q0 -71 -43 -124.5t-117 -78.5v-2zM209 1352q0 -74 53 -119t141 -45 t141.5 45t53.5 119q0 72 -53.5 116.5t-141.5 44.5t-141 -44.5t-53 -116.5zM403 756q100 0 162 49.5t62 130.5t-62 130.5t-162 49.5t-161.5 -49.5t-61.5 -130.5t61.5 -130.5t161.5 -49.5z" glyph-name="eight.numr" horiz-adv-x="808"/><glyph d="M389 1589q174 0 255 -106.5t81 -327.5q0 -224 -89 -349.5t-247 -125.5q-127 0 -203.5 72t-85.5 200h86q7 -93 61 -144.5t142 -51.5q117 0 182.5 105t65.5 294v6h-2q-63 -133 -264 -133q-132 0 -205.5 73t-73.5 204q0 133 81 208.5t216 75.5zM401 1104q103 0 161.5 51 t58.5 143q0 94 -62.5 154.5t-157.5 60.5q-103 0 -161 -54t-58 -150q0 -98 58 -151.5t161 -53.5z" glyph-name="nine.numr" horiz-adv-x="819"/><glyph d="M649 -205l-579 1987h90l579 -1987h-90z" glyph-name="backslash.case" horiz-adv-x="811"/><glyph d="M328 1528q0 -31 -20.5 -50.5t-53.5 -19.5t-53.5 19.5t-20.5 50.5t20 50t54 19t54 -19t20 -50zM225 1221h60l18 -1221h-96z" glyph-name="exclamdown.case" horiz-adv-x="509"/><glyph d="M588 1597q34 0 54 -19t20 -50t-20.5 -50.5t-53.5 -19.5t-53.5 19.5t-20.5 50.5t20 50t54 19zM627 1221v-13q0 -45 -8.5 -87.5t-19 -75t-33 -68.5t-38.5 -58.5t-48.5 -56t-49 -49t-53.5 -49.5q-54 -50 -84 -81t-66 -79.5t-52.5 -101t-16.5 -113.5q0 -143 101 -230t267 -87 t273 102.5t116 271.5h91q-9 -209 -141 -336.5t-339 -127.5q-209 0 -336 112t-127 297q0 46 8.5 88t28 80t37.5 67t51.5 64.5t55 56.5t61.5 58q41 38 61 57.5t55 56t52.5 65t38 67.5t29 81t8.5 89h78z" glyph-name="questiondown.case" horiz-adv-x="1054"/><glyph d="M162 -205h-90l579 1987h90z" glyph-name="slash.case" horiz-adv-x="811"/><glyph d="M1354 1090h-277l-55 -551h272l-10 -80h-270l-47 -459h-93l50 459h-490l-49 -459h-92l49 459h-272l8 80h272l58 551h-271l8 79h271l43 408h92l-41 -408h483l41 408h92l-41 -408h277zM930 541l55 549h-483l-60 -549h488z" glyph-name="numbersign.lf" horiz-adv-x="1429"/><glyph d="M1135 762h-217l-39 -336h208l-8 -74h-209l-41 -352h-92l39 352h-389l-41 -352h-92l41 352h-215l8 74h217l39 336h-209l8 74h209l37 311h92l-37 -311h390l36 311h93l-37 -311h217zM788 426l39 336h-393l-41 -336h395z" glyph-name="numbersign.osf" horiz-adv-x="1222"/><glyph d="M311 985q0 -136 -110 -194v-5q110 -58 110 -194v-508q0 -54 30.5 -86.5t80.5 -32.5v-88q-91 0 -147 59t-56 154v510q0 66 -37.5 105.5t-99.5 39.5v86q62 0 99.5 40t37.5 106v510q0 95 56 154t147 59v-88q-50 0 -80.5 -32.5t-30.5 -86.5v-508z" glyph-name="braceleft.case" horiz-adv-x="542"/><glyph d="M324 977q0 -66 37.5 -106t99.5 -40v-86q-62 0 -99.5 -39.5t-37.5 -105.5v-510q0 -95 -56 -154t-147 -59v88q50 0 80 32.5t30 86.5v508q0 135 111 194v5q-111 59 -111 194v508q0 54 -30 86.5t-80 32.5v88q91 0 147 -59t56 -154v-510z" glyph-name="braceright.case" horiz-adv-x="542"/><glyph d="M502 1616h-193v-1655h193v-84h-285v1823h285v-84z" glyph-name="bracketleft.case" horiz-adv-x="583"/><glyph d="M367 1700v-1823h-285v84h192v1655h-192v84h285z" glyph-name="bracketright.case" horiz-adv-x="583"/><glyph d="M422 -123q-145 188 -226 428t-81 483t81 483.5t226 428.5h92q-144 -197 -224.5 -438.5t-80.5 -473.5t80.5 -473t224.5 -438h-92z" glyph-name="parenleft.case" horiz-adv-x="569"/><glyph d="M147 -123h-92q144 197 224.5 438t80.5 473t-80.5 473.5t-224.5 438.5h92q145 -188 226.5 -428.5t81.5 -483.5q0 -242 -81.5 -482.5t-226.5 -428.5z" glyph-name="parenright.case" horiz-adv-x="569"/><glyph d="M152 698v74h1433v-74h-1433z" glyph-name="emdash.case" horiz-adv-x="1736"/><glyph d="M152 698v74h852v-74h-852z" glyph-name="endash.case" horiz-adv-x="1155"/><glyph d="M152 698v74h491v-74h-491z" glyph-name="hyphen.case" horiz-adv-x="794"/><glyph d="M152 698v74h491v-74h-491z" glyph-name="uni00AD.case" horiz-adv-x="794"/><glyph d="M465 444h-98l-252 293l252 293h98l-246 -293zM772 444h-98l-252 293l252 293h98l-246 -293z" glyph-name="guillemotleft.case" horiz-adv-x="925"/><glyph d="M154 444l245 293l-245 293h98l252 -293l-252 -293h-98zM461 444l246 293l-246 293h98l252 -293l-252 -293h-98z" glyph-name="guillemotright.case" horiz-adv-x="925"/><glyph d="M465 444h-98l-252 293l252 293h98l-246 -293z" glyph-name="guilsinglleft.case" horiz-adv-x="618"/><glyph d="M154 444l245 293l-245 293h98l252 -293l-252 -293h-98z" glyph-name="guilsinglright.case" horiz-adv-x="618"/><glyph d="M1049 393q-29 -148 -142 -242t-274 -106v-209h-88v209q-200 14 -320.5 161.5t-120.5 379.5t120.5 379t320.5 161v185h88v-185q150 -14 260.5 -104t144.5 -229h-94q-29 104 -113 173t-198 81v-924q123 12 209.5 85t109.5 185h97zM195 586q0 -196 95 -322t255 -141v924 q-160 -15 -255 -140t-95 -321z" glyph-name="cent.osf" horiz-adv-x="1128"/><glyph d="M999 315q0 -140 -110.5 -229.5t-296.5 -99.5v-164h-88v164q-180 10 -292.5 117t-121.5 276h88q9 -132 98 -217.5t228 -95.5v501q-56 9 -95 17.5t-87.5 23.5t-80.5 35.5t-61 49t-43 69.5t-14 92q0 132 104.5 217t276.5 94v160h88v-162q163 -14 265.5 -115t109.5 -257h-88 q-6 121 -83.5 199.5t-203.5 92.5v-450q51 -8 86.5 -15.5t81.5 -20.5t77 -28t64 -39t53 -53.5t32.5 -70.5t12.5 -91zM213 856q0 -42 16 -74.5t40.5 -53.5t65 -37t78.5 -25.5t91 -18.5v436q-132 -8 -211.5 -69.5t-79.5 -157.5zM592 66q146 9 232.5 75.5t86.5 169.5 q0 49 -17.5 87t-45 63t-71.5 43.5t-86 29t-99 19.5v-487z" glyph-name="dollar.osf" horiz-adv-x="1097"/><glyph d="M969 182l41 -69q-67 -58 -163.5 -93.5t-187.5 -35.5q-189 0 -315 128t-154 345h-110v63h104q-2 18 -2 55q0 44 2 64h-104v66h110q31 212 156.5 336t312.5 124q86 0 175 -25.5t149 -66.5l-41 -69q-52 37 -130 59t-153 22q-147 0 -247 -101.5t-129 -276.5h479l-37 -68h-451 q-2 -20 -2 -64q0 -37 2 -53h383l-36 -65h-340q26 -181 127 -287.5t251 -106.5q80 0 166 32.5t144 86.5z" glyph-name="Euro.osf" horiz-adv-x="1087"/><glyph d="M188 78h764v-78h-850v90q187 128 187 326q0 23 -13 86h-157v76h131q-3 6 -18.5 42.5t-20 48t-16 42.5t-15.5 48.5t-8 43t-4 47.5q0 141 104.5 228t274.5 87q169 0 276.5 -101.5t114.5 -268.5h-86q-8 131 -91.5 210.5t-213.5 79.5t-209.5 -64.5t-79.5 -170.5 q0 -32 9 -70.5t18.5 -63.5t29.5 -72.5t27 -65.5h403v-76h-376q12 -44 12 -84q0 -97 -43.5 -180t-149.5 -158v-2z" glyph-name="sterling.osf" horiz-adv-x="1048"/><glyph d="M1069 1147l-457 -690h244v-66h-254v-94h254v-66h-254v-231h-88v231h-250v66h250v94h-250v66h242l-457 690h107l403 -612h4l406 612h100z" glyph-name="yen.osf" horiz-adv-x="1118"/><glyph d="M836 758v-74h-326v-332h-88v332h-324v74h324v332h88v-332h326z" glyph-name="plus.case" horiz-adv-x="933"/><glyph d="M152 684v74h737v-74h-737z" glyph-name="minus.case" horiz-adv-x="1040"/><glyph d="M860 1012l-303 -303l303 -303l-59 -60l-303 303l-305 -303l-58 60l303 303l-303 303l58 59l305 -303l303 303z" glyph-name="multiply.case" horiz-adv-x="995"/><glyph d="M520 901q-29 0 -47 17t-18 45q0 29 18 47t47 18q31 0 49.5 -18t18.5 -47q0 -28 -18.5 -45t-49.5 -17zM152 684v74h737v-74h-737zM520 414q-29 0 -47 16.5t-18 44.5q0 29 18 47.5t47 18.5q31 0 49.5 -18.5t18.5 -47.5q0 -28 -18.5 -44.5t-49.5 -16.5z" glyph-name="divide.case" horiz-adv-x="1040"/><glyph d="M154 807v74h737v-74h-737zM154 561v74h737v-74h-737z" glyph-name="equal.case" horiz-adv-x="1044"/><glyph d="M891 807h-299l-51 -172h350v-74h-371l-104 -356h-80l102 356h-284v74h307l49 172h-356v74h378l95 327h82l-97 -327h279v-74z" glyph-name="notequal.case" horiz-adv-x="1044"/><glyph d="M152 1110l737 -350v-76l-737 -348v78l669 309l-669 309v78z" glyph-name="greater.case" horiz-adv-x="974"/><glyph d="M823 1110v-78l-669 -309l669 -309v-78l-737 348v76z" glyph-name="less.case" horiz-adv-x="974"/><glyph d="M201 1219l737 -330v-76l-737 -328v78l667 289l-667 289v78zM201 205v74h737v-74h-737z" glyph-name="greaterequal.case" horiz-adv-x="1107"/><glyph d="M907 1219v-78l-667 -289l667 -289v-78l-737 328v76zM170 205v74h737v-74h-737z" glyph-name="lessequal.case" horiz-adv-x="1107"/><glyph d="M582 877h325v-74h-325v-332h-88v332h-324v74h324v331h88v-331zM170 205v74h737v-74h-737z" glyph-name="plusminus.case" horiz-adv-x="1077"/><glyph d="M158 881h737v-318h-88v244h-649v74z" glyph-name="logicalnot.case" horiz-adv-x="1046"/><glyph d="M307 575q-98 0 -158.5 81.5t-60.5 213.5t60.5 213.5t158.5 81.5t158.5 -81.5t60.5 -213.5t-60.5 -213.5t-158.5 -81.5zM158 0l784 1151h84l-782 -1151h-86zM307 639q63 0 102.5 63.5t39.5 167.5t-39.5 169t-102.5 65t-102 -65t-39 -169t39 -167.5t102 -63.5zM885 -16 q-98 0 -158.5 82t-60.5 215q0 132 60.5 213t158.5 81t157.5 -81t59.5 -213q0 -134 -59.5 -215.5t-157.5 -81.5zM885 47q63 0 102 65t39 169t-39 167.5t-102 63.5q-65 0 -104.5 -63.5t-39.5 -167.5t40 -169t104 -65z" glyph-name="percent.osf" horiz-adv-x="1187"/><glyph d="M307 575q-98 0 -158.5 81.5t-60.5 213.5t60.5 213.5t158.5 81.5t158.5 -81.5t60.5 -213.5t-60.5 -213.5t-158.5 -81.5zM158 0l784 1151h84l-782 -1151h-86zM307 639q63 0 102.5 63.5t39.5 167.5t-39.5 169t-102.5 65t-102 -65t-39 -169t39 -167.5t102 -63.5zM885 -16 q-98 0 -158.5 82t-60.5 215q0 132 60.5 213t158.5 81t157.5 -81t59.5 -213q0 -134 -59.5 -215.5t-157.5 -81.5zM1417 -16q-98 0 -158.5 82t-60.5 215q0 132 60.5 213t158.5 81t157.5 -81t59.5 -213q0 -134 -59.5 -215.5t-157.5 -81.5zM885 47q63 0 102 65t39 169t-39 167.5 t-102 63.5q-65 0 -104.5 -63.5t-39.5 -167.5t40 -169t104 -65zM1417 47q63 0 102.5 65t39.5 169t-39.5 167.5t-102.5 63.5q-65 0 -104 -63.5t-39 -167.5q0 -105 39.5 -169.5t103.5 -64.5z" glyph-name="perthousand.osf" horiz-adv-x="1699"/><glyph d="M-463 1194q-29 0 -47 16.5t-18 44.5q0 29 18 47.5t47 18.5q31 0 49.5 -18.5t18.5 -47.5q0 -28 -18.5 -44.5t-49.5 -16.5zM-188 1194q-29 0 -47.5 16.5t-18.5 44.5q0 29 18.5 47.5t47.5 18.5q30 0 48.5 -18.5t18.5 -47.5q0 -28 -18 -44.5t-49 -16.5z" glyph-name="uni0308.case"/><glyph d="M-188 1190q-30 0 -48 17t-18 46t18.5 47.5t47.5 18.5q30 0 48.5 -18.5t18.5 -47.5t-18 -46t-49 -17z" glyph-name="uni0307.case"/><glyph d="M-82 1188h-74l-213 328h101z" glyph-name="gravecomb.case"/><glyph d="M-354 1188l186 328h100l-213 -328h-73z" glyph-name="acutecomb.case"/><glyph d="M-586 1188l166 328h101l-193 -328h-74zM-346 1188l166 328h100l-192 -328h-74z" glyph-name="uni030B.case"/><glyph d="M-281 1495l240 -307h-92l-201 254h-4l-201 -254h-92l240 307h110z" glyph-name="uni0302.case"/><glyph d="M-133 1495h92l-240 -307h-110l-240 307h92l201 -254h4z" glyph-name="uni030C.case"/><glyph d="M-332 1182q-122 0 -196 86t-74 227h80q0 -109 52 -175.5t138 -66.5t138.5 66.5t52.5 175.5h80q0 -141 -74.5 -227t-196.5 -86z" glyph-name="uni0306.case"/><glyph d="M-276 1171q-100 0 -161 59t-61 154t61 154t161 59t160.5 -59t60.5 -154t-60.5 -154t-160.5 -59zM-276 1241q63 0 101 39t38 104t-38 104.5t-101 39.5t-101.5 -39.5t-38.5 -104.5q0 -64 38.5 -103.5t101.5 -39.5z" glyph-name="uni030A.case"/><glyph d="M-727 1198q0 113 48 175.5t134 62.5q49 0 93 -23.5t71.5 -51.5t62.5 -51.5t68 -23.5q47 0 76.5 42t34.5 116h71q0 -113 -48 -175.5t-134 -62.5q-49 0 -93 23.5t-71.5 51.5t-62.5 51.5t-68 23.5q-47 0 -76 -42t-34 -116h-72z" glyph-name="tildecomb.case"/><glyph d="M-563 1202v74h512v-74h-512z" glyph-name="uni0304.case"/></font>
</defs>
</svg>
