<svg xmlns="http://www.w3.org/2000/svg" xmlns:xlink="http://www.w3.org/1999/xlink" version="1.1"><metadata>Created by FontForge 20170731 at Wed Sep 30 14:14:01 2020 By Aleksey,,, Copyright (c) 2017 by Alberto Romanos. All rights reserved.</metadata><defs><font id="BwNistaGeo-MdIt" horiz-adv-x="0"><font-face x-height="1061" ascent="1577" bbox="-1620 -539 2755 2150" cap-height="1577" descent="-471" font-family="Bw Nista Geo Md It" font-stretch="normal" font-style="italic" font-weight="500" panose-1="0 0 6 0 0 0 0 0 0 0" slope="-10" underline-position="-307" underline-thickness="102" unicode-range="U+000D-FB02" units-per-em="2048"/><glyph d="M1239 1061l-188 -1061h-205l162 911h-514l-160 -911h-203l160 911h-172l26 150h172l27 147q32 183 154.5 286t298.5 103q106 0 174 -22l-29 -156q-64 23 -145 23q-93 0 -161 -61t-87 -160l-29 -160h719zM1217 1532q49 0 77.5 -26.5t28.5 -71.5q0 -60 -42 -99t-105 -39 q-49 0 -78 27.5t-29 73.5q0 58 42.5 96.5t105.5 38.5z" glyph-name="fi" horiz-adv-x="1310" unicode="fi"/><glyph d="M1149 1577h205l-279 -1577h-205l162 911h-534l-160 -911h-207l160 911h-172l26 150h172l25 135q33 188 158.5 294.5t306.5 106.5q103 0 170 -28l-29 -154q-62 27 -141 27q-98 0 -168.5 -64t-89.5 -170l-27 -147h535z" glyph-name="fl" horiz-adv-x="1335" unicode="fl"/><glyph d="M1661 1081q174 0 275.5 -119t101.5 -317q0 -142 -44 -266t-120 -211.5t-182 -137.5t-226 -50q-129 0 -225 59.5t-125 161.5h-4l-35 -201h-205l162 911h-536l-160 -911h-207l160 911h-172l26 150h172l25 135q33 188 158.5 294.5t306.5 106.5q103 0 170 -28l-29 -154 q-62 27 -141 27q-98 0 -168.5 -64t-89.5 -170l-27 -147h537l92 516h205l-127 -719h4q59 103 176 163t252 60zM1425 145q170 0 284 132.5t114 332.5q0 138 -70 221.5t-192 83.5q-145 0 -253 -106t-139 -279q-8 -66 -8 -96q0 -133 70 -211t194 -78z" glyph-name="f_b" horiz-adv-x="2115" unicode="fb"/><glyph d="M1501 1442q-98 0 -168.5 -64t-89.5 -170l-26 -147h358l-25 -150h-358l-160 -911h-207l160 911h-487l-160 -911h-207l160 911h-172l26 150h172l25 135q33 188 159.5 294.5t305.5 106.5q112 0 184 -30l-26 -156q-74 31 -158 31q-98 0 -168.5 -64t-89.5 -170l-27 -147h490 l24 135q33 188 159.5 294.5t305.5 106.5q132 0 199 -34l-29 -156q-79 35 -170 35z" glyph-name="f_f" horiz-adv-x="1495" unicode="ff"/><glyph d="M2355 1081q174 0 275.5 -119t101.5 -317q0 -189 -75 -341.5t-205.5 -238t-290.5 -85.5q-129 0 -225.5 59.5t-125.5 161.5h-4l-34 -201h-205l162 911h-537l-160 -911h-207l160 911h-487l-160 -911h-207l160 911h-172l26 150h172l25 135q33 188 159.5 294.5t305.5 106.5 q112 0 184 -30l-26 -156q-74 31 -158 31q-98 0 -168.5 -64t-89.5 -170l-27 -147h490l24 135q33 188 158.5 294.5t306.5 106.5q103 0 170 -28l-29 -154q-62 27 -141 27q-98 0 -168.5 -64t-89.5 -170l-26 -147h536l92 516h205l-127 -719h4q59 103 176 163t252 60zM2120 145 q169 0 283 132.5t114 332.5q0 138 -70 221.5t-192 83.5q-145 0 -252.5 -106t-138.5 -279q-9 -74 -9 -96q0 -133 70.5 -211t194.5 -78z" glyph-name="f_f_b" horiz-adv-x="2809" unicode="ffb"/><glyph d="M2349 1081q145 0 227 -84.5t82 -228.5q0 -49 -8 -98l-119 -670h-204l114 647q6 30 6 60q0 96 -58 152t-157 56q-130 0 -226 -90.5t-122 -238.5l-102 -586h-205l162 911h-537l-160 -911h-206l159 911h-497l-160 -911h-207l160 911h-172l26 150h172l25 135 q33 188 159.5 294.5t305.5 106.5q112 0 184 -30l-26 -156q-74 31 -158 31q-98 0 -168.5 -64t-89.5 -170l-27 -147h500l25 135q33 189 158.5 295t305.5 106q103 0 170 -28l-28 -154q-62 27 -142 27q-98 0 -168.5 -64t-89.5 -170l-26 -147h536l92 516h205l-125 -707h4 q60 95 172.5 153t237.5 58z" glyph-name="f_f_h" horiz-adv-x="2772" unicode="ffh"/><glyph d="M1946 1061l-189 -1061h-205l162 911h-514l-160 -911h-202l159 911h-499l-160 -911h-207l160 911h-172l26 150h172l25 135q33 188 159.5 294.5t305.5 106.5q112 0 184 -30l-26 -156q-74 31 -158 31q-98 0 -168.5 -64t-89.5 -170l-27 -147h502l27 147q32 183 154 286 t298 103q106 0 174 -22l-28 -156q-64 23 -146 23q-93 0 -161 -61t-87 -160l-28 -160h719zM1923 1532q49 0 78 -26.5t29 -71.5q0 -60 -42.5 -99t-105.5 -39q-49 0 -77.5 27.5t-28.5 73.5q0 58 42 96.5t105 38.5z" glyph-name="f_f_i" horiz-adv-x="2015" unicode="ffi"/><glyph d="M1952 1061l-271 -1532h-204l243 1382h-524l-160 -911h-202l159 911h-495l-160 -911h-207l160 911h-172l26 150h172l25 135q33 188 159.5 294.5t305.5 106.5q112 0 184 -30l-26 -156q-74 31 -158 31q-98 0 -168.5 -64t-89.5 -170l-27 -147h498l27 147q32 183 154 286 t298 103q106 0 174 -22l-28 -156q-64 23 -146 23q-93 0 -161 -61t-87 -160l-28 -160h729zM1931 1532q49 0 77 -26.5t28 -71.5q0 -60 -42 -99t-106 -39q-49 0 -76.5 27.5t-27.5 73.5q0 58 42 96.5t105 38.5z" glyph-name="f_f_j" horiz-adv-x="2023" unicode="ffj"/><glyph d="M1855 1577h205l-278 -1577h-205l162 911h-537l-160 -911h-206l159 911h-497l-160 -911h-207l160 911h-172l26 150h172l25 135q33 188 159.5 294.5t305.5 106.5q112 0 184 -30l-26 -156q-74 31 -158 31q-98 0 -168.5 -64t-89.5 -170l-27 -147h500l25 135q33 189 158.5 295 t305.5 106q103 0 170 -28l-28 -154q-62 27 -142 27q-98 0 -168.5 -64t-89.5 -170l-26 -147h536zM2755 1061l-586 -481l485 -580h-239l-496 580l592 481h244z" glyph-name="f_f_k" horiz-adv-x="2721" unicode="ffk"/><glyph d="M1860 1577h204l-278 -1577h-205l162 911h-535l-159 -911h-207l159 911h-503l-160 -911h-207l160 911h-172l26 150h172l25 135q33 188 159.5 294.5t305.5 106.5q112 0 184 -30l-26 -156q-74 31 -158 31q-98 0 -168.5 -64t-89.5 -170l-27 -147h506l25 135 q33 188 158.5 294.5t306.5 106.5q103 0 170 -28l-29 -154q-62 27 -141 27q-98 0 -168.5 -64t-89.5 -170l-27 -147h534z" glyph-name="f_f_l" horiz-adv-x="2045" unicode="ffl"/><glyph d="M1921 911l-106 -604q-3 -18 -3 -31q0 -63 45 -100t121 -37q88 0 162 33l-24 -149q-100 -43 -228 -43q-133 0 -209.5 67.5t-76.5 183.5q0 29 6 64l108 616h-510l-159 -911h-207l159 911h-501l-160 -911h-207l160 911h-172l26 150h172l25 135q33 188 159.5 294.5 t305.5 106.5q112 0 184 -30l-26 -156q-74 31 -158 31q-98 0 -168.5 -64t-89.5 -170l-27 -147h504l25 135q33 188 159.5 294.5t305.5 106.5q116 0 180 -28l-29 -156q-71 29 -151 29q-98 0 -169 -64t-90 -170l-26 -147h522l53 307h197l-55 -307h350l-27 -150h-350z" glyph-name="f_f_t" horiz-adv-x="2244" unicode="fft"/><glyph d="M1645 1081q145 0 227 -84.5t82 -228.5q0 -49 -8 -98l-119 -670h-205l115 647q6 30 6 60q0 96 -58 152t-157 56q-130 0 -226 -90.5t-122 -238.5l-103 -586h-205l162 911h-536l-160 -911h-207l160 911h-172l26 150h172l25 135q33 188 158.5 294.5t306.5 106.5 q103 0 170 -28l-29 -154q-62 27 -141 27q-98 0 -168.5 -64t-89.5 -170l-27 -147h537l92 516h205l-125 -707h4q60 95 172.5 153t237.5 58z" glyph-name="f_h" horiz-adv-x="2066" unicode="fh"/><glyph d="M1249 1061l-188 -1061h-205l162 911h-520l-160 -911h-207l160 911h-172l26 150h172l25 135q33 188 159.5 294.5t305.5 106.5q132 0 199 -34l-29 -156q-79 35 -170 35q-98 0 -168.5 -64t-89.5 -170l-27 -147h727zM1528 1577l-299 -342h-158l244 342h213z" glyph-name="f_iacute" horiz-adv-x="1320" unicode="fí"/><glyph d="M1249 1061l-270 -1532h-205l244 1382h-524l-160 -911h-203l160 911h-172l26 150h172l27 147q32 183 154.5 286t298.5 103q106 0 174 -22l-29 -156q-64 23 -145 23q-93 0 -161 -61t-87 -160l-29 -160h729zM1229 1532q49 0 76.5 -26.5t27.5 -71.5q0 -60 -41.5 -99 t-105.5 -39q-49 0 -77 27.5t-28 73.5q0 58 42.5 96.5t105.5 38.5z" glyph-name="f_j" horiz-adv-x="1320" unicode="fj"/><glyph d="M1151 1577h205l-279 -1577h-205l162 911h-536l-160 -911h-207l160 911h-172l26 150h172l25 135q33 188 158.5 294.5t306.5 106.5q103 0 170 -28l-29 -154q-62 27 -141 27q-98 0 -168.5 -64t-89.5 -170l-27 -147h537zM2050 1061l-586 -481l486 -580h-240l-496 580l592 481 h244z" glyph-name="f_k" horiz-adv-x="2017" unicode="fk"/><glyph d="M1212 911l-106 -604q-2 -12 -2 -31q0 -63 45 -100t121 -37q88 0 162 33l-25 -149q-100 -43 -227 -43q-133 0 -210 67.5t-77 183.5q0 29 6 64l109 616h-510l-160 -911h-207l160 911h-172l26 150h172l25 135q33 188 159.5 294.5t305.5 106.5q116 0 180 -28l-29 -156 q-71 29 -151 29q-98 0 -168.5 -64t-89.5 -170l-27 -147h522l54 307h196l-55 -307h350l-26 -150h-351z" glyph-name="f_t" horiz-adv-x="1538" unicode="ft"/><glyph d="M1231 911l-107 -604q-4 -24 -4 -31q0 -63 45 -100t121 -37q88 0 162 33l-25 -149q-100 -43 -227 -43q-133 0 -210 67.5t-77 183.5q0 29 6 64l109 616h-547l-106 -604q-2 -18 -2 -31q0 -63 41.5 -100t111.5 -37q93 0 174 33l-24 -149q-100 -43 -228 -43 q-133 0 -209.5 67.5t-76.5 183.5q0 29 6 64l108 616h-172l25 150h184l53 307h197l-55 -307h557l53 307h197l-54 -307h349l-27 -150h-348z" glyph-name="t_t" horiz-adv-x="1554" unicode="tt"/><glyph d="M156 -20q-15 0 -25 10.5t-10 25.5q0 21 10 31l700 698h-663q-47 0 -47 39q0 16 14 33l696 701h-669q-41 0 -41 38v3q0 38 41 38h758q47 0 47 -41q0 -20 -17 -34l-698 -697h676q17 0 29 -12t12 -29v-669l694 692q13 16 35 16q37 0 37 -45v-663l696 692q13 16 33 16 q15 0 25 -12t10 -27q0 -18 -13 -28l-753 -762q-14 -14 -35 -14q-41 0 -41 47v663l-694 -696q-14 -14 -35 -14q-41 0 -41 47v663l-697 -696q-14 -14 -34 -14z" glyph-name=".notdef" horiz-adv-x="2609"/><glyph glyph-name=".null"/><glyph glyph-name="nonmarkingreturn" horiz-adv-x="682"/><glyph glyph-name="CR" horiz-adv-x="509"/><glyph glyph-name="space" horiz-adv-x="509"/><glyph d="M193 440l157 1137h221l-241 -1137h-137zM180 -20q-53 0 -83.5 29t-30.5 77q0 65 45 107.5t114 42.5q52 0 81.5 -29.5t29.5 -77.5q0 -65 -43.5 -107t-112.5 -42z" glyph-name="exclam" horiz-adv-x="555" unicode="!"/><glyph d="M231 1141l78 436h191l-78 -436h-191zM537 1141l77 436h191l-78 -436h-190z" glyph-name="quotedbl" horiz-adv-x="751" unicode="&quot;"/><glyph d="M1561 1040h-246l-131 -462h248l-48 -166h-247l-115 -412h-213l115 412h-424l-115 -412h-211l117 412h-248l47 166h248l131 462h-248l47 166h248l105 371h213l-107 -371h422l102 371h213l-104 -371h248zM971 573l133 469h-426l-133 -469h426z" glyph-name="numbersign" horiz-adv-x="1554" unicode="#"/><glyph d="M1366 1079h-217q4 40 4 56q0 114 -64.5 187.5t-177.5 90.5l-90 -510q58 -10 101 -19t97 -24.5t92.5 -34t78 -47t64 -63t40 -82.5t15.5 -105q0 -231 -177.5 -381t-474.5 -165l-36 -211h-97l37 209q-218 11 -355.5 138.5t-137.5 330.5q0 46 4 73h215q0 -8 -1 -25t-1 -24 q0 -135 82.5 -219.5t224.5 -93.5l102 571q-51 9 -86.5 16t-83.5 18.5t-81.5 25.5t-71.5 33t-63 44t-46.5 56t-32 71t-10.5 88q0 223 170.5 364t456.5 150l37 205h96l-37 -207q191 -19 309.5 -139t118.5 -305q0 -22 -4 -72zM442 1126q0 -48 21 -83.5t63 -59t88.5 -37.5 t112.5 -26l88 499q-165 -6 -269 -87.5t-104 -205.5zM1083 481q0 55 -22.5 95.5t-66.5 66.5t-92 42t-116 30l-96 -555q175 14 284 101.5t109 219.5z" glyph-name="dollar" horiz-adv-x="1398" unicode="$"/><glyph d="M426 840q-111 0 -174.5 80t-63.5 215q0 199 107 330.5t266 131.5q112 0 176 -79.5t64 -214.5q0 -199 -108 -331t-267 -132zM57 0l1325 1577h166l-1323 -1577h-168zM449 967q80 0 137 95t57 230q0 81 -27 129.5t-77 48.5q-82 0 -138.5 -95t-56.5 -230q0 -81 28 -129.5 t77 -48.5zM1049 -20q-111 0 -174.5 79.5t-63.5 214.5q0 199 107 331t264 132q113 0 177 -80t64 -215q0 -199 -107.5 -330.5t-266.5 -131.5zM1071 106q80 0 137.5 95.5t57.5 230.5q0 81 -28 129.5t-79 48.5q-80 0 -136 -95t-56 -230q0 -82 27 -130.5t77 -48.5z" glyph-name="percent" horiz-adv-x="1517" unicode="%"/><glyph d="M1520 111l-144 -134l-248 259q-122 -119 -283 -187.5t-331 -68.5q-179 0 -291 95.5t-112 250.5q0 84 23.5 157t60 126.5t93.5 103t111.5 83t126.5 70.5q-75 86 -118 177t-43 163q0 170 137.5 280.5t367.5 110.5q165 0 274 -82t109 -212q0 -60 -16 -112t-49.5 -95.5 t-70 -78t-93 -69t-101.5 -57.5t-112 -55l336 -344q99 159 158 342h180q-75 -260 -221 -461zM565 1217q0 -106 140 -269q68 32 111 53.5t94 54.5t79.5 63.5t48 71.5t19.5 87q0 75 -57.5 120.5t-155.5 45.5q-121 0 -200 -65t-79 -162zM565 143q118 0 242.5 54t220.5 145 l-393 410q-57 -30 -100 -57.5t-85.5 -64.5t-70 -75.5t-44 -88.5t-16.5 -106q0 -99 65.5 -158t180.5 -59z" glyph-name="ampersand" horiz-adv-x="1599" unicode="&amp;"/><glyph d="M231 1141l78 436h191l-78 -436h-191z" glyph-name="quotesingle" horiz-adv-x="446" unicode="'"/><glyph d="M213 -471q-67 145 -104 350t-37 402q0 341 135.5 677t367.5 619h195q-232 -289 -367 -623.5t-135 -674.5q0 -195 37 -400t103 -350h-195z" glyph-name="parenleft" horiz-adv-x="618" unicode="("/><glyph d="M53 -471h-194q230 285 363.5 620.5t133.5 675.5q0 199 -35.5 403t-101.5 349h195q68 -144 105.5 -349t37.5 -403q0 -340 -136 -675.5t-368 -620.5z" glyph-name="parenright" horiz-adv-x="620" unicode=")"/><glyph d="M819 1319l-217 -62l100 -172l-110 -69l-90 176l-154 -176l-86 69l162 170l-197 64l58 113l190 -70l33 215h121l-43 -215l217 70z" glyph-name="asterisk" horiz-adv-x="778" unicode="*"/><glyph d="M903 594l-29 -156h-301l-57 -323h-205l58 323h-297l26 156h299l58 324h204l-57 -324h301z" glyph-name="plus" horiz-adv-x="978" unicode="+"/><glyph d="M197 236q55 0 85.5 -36t30.5 -98q0 -25 -4 -43q-23 -129 -119.5 -225t-232.5 -125v68q86 17 151 75t91 140q-35 -12 -68 -12q-44 0 -70 28t-26 74q0 67 46.5 110.5t115.5 43.5z" glyph-name="comma" horiz-adv-x="468" unicode=","/><glyph d="M121 463l26 151h574l-25 -151h-575z" glyph-name="hyphen" horiz-adv-x="839" unicode="-"/><glyph d="M170 -20q-53 0 -84 29t-31 77q0 64 46 107t114 43q52 0 82.5 -29.5t30.5 -77.5q0 -65 -44.5 -107t-113.5 -42z" glyph-name="period" horiz-adv-x="499" unicode="."/><glyph d="M55 -471h-161l958 2048h160z" glyph-name="slash" horiz-adv-x="897" unicode="/"/><glyph d="M602 -20q-224 0 -344.5 158t-120.5 442q0 296 92.5 527t263.5 360.5t394 129.5t343 -157.5t120 -442.5q0 -296 -92 -527t-262.5 -360.5t-393.5 -129.5zM633 158q145 0 259 110t175 297.5t61 417.5q0 206 -71 321t-203 115q-145 0 -259 -110t-175.5 -297.5t-61.5 -417.5 q0 -206 71.5 -321t203.5 -115z" glyph-name="zero" horiz-adv-x="1396" unicode="0"/><glyph d="M627 1577h145l-278 -1577h-215l213 1208h-334l26 148q179 0 278 49t165 172z" glyph-name="one" horiz-adv-x="776" unicode="1"/><glyph d="M268 176v-4h873l-31 -172h-1112l33 188q483 242 750.5 501.5t267.5 496.5q0 107 -67 170t-183 63q-138 0 -244 -93t-141 -245h-207q56 232 228 374t399 142q205 0 325.5 -107.5t120.5 -283.5q0 -143 -77.5 -287.5t-217 -275t-319.5 -247.5t-398 -220z" glyph-name="two" horiz-adv-x="1284" unicode="2"/><glyph d="M883 811q136 -37 210 -124t74 -206q0 -218 -182 -359.5t-463 -141.5q-209 0 -329.5 113t-120.5 306q0 51 4 78h207q-4 -20 -4 -57q0 -122 73.5 -193t202.5 -71q171 0 282 91.5t111 235.5q0 111 -83 178.5t-224 67.5h-45l20 127h2l5 31h30q164 0 269.5 87t105.5 224 q0 102 -68 162.5t-184 60.5q-129 0 -227.5 -89.5t-130.5 -235.5h-203q51 227 215 364t381 137q204 0 324 -99t120 -263q0 -153 -100 -262t-272 -158v-4z" glyph-name="three" horiz-adv-x="1282" unicode="3"/><glyph d="M1233 559l-31 -170h-205l-67 -389h-215l69 389h-761l32 184l887 1004h264l-178 -1018h205zM956 1362l-700 -797l-2 -6h565l142 803h-5z" glyph-name="four" horiz-adv-x="1294" unicode="4"/><glyph d="M1247 1405h-672l-172 -524l7 -4q83 81 188 125.5t217 44.5q187 0 295.5 -117t108.5 -312q0 -185 -88.5 -331.5t-242.5 -226.5t-345 -80q-215 0 -342 111t-127 296q0 19 2 39h209v-18q2 -114 79.5 -182t208.5 -68q181 0 300.5 121t119.5 309q0 133 -76 213t-208 80 q-114 0 -217.5 -71t-161.5 -189h-209l293 956h864z" glyph-name="five" horiz-adv-x="1290" unicode="5"/><glyph d="M1337 1153h-209q5 35 5 39q-1 109 -67 168t-185 59q-194 0 -333.5 -171.5t-187.5 -461.5h5q79 113 208.5 173.5t298.5 60.5q194 0 299 -104t105 -293q0 -193 -85 -340t-234 -225t-339 -78q-487 0 -487 559q0 231 56 427t157 335t247.5 217.5t321.5 78.5q204 0 316 -100 t112 -280q0 -35 -4 -64zM762 850q-185 0 -295.5 -107.5t-110.5 -291.5q0 -134 77.5 -213.5t205.5 -79.5q187 0 298.5 113t111.5 302q0 131 -75 204t-212 73z" glyph-name="six" horiz-adv-x="1368" unicode="6"/><glyph d="M1294 1577l-32 -184q-290 -259 -491.5 -627t-270.5 -766h-226q69 396 282 766.5t523 634.5v4h-903l31 172h1087z" glyph-name="seven" horiz-adv-x="1155" unicode="7"/><glyph d="M958 821q123 -38 192 -125t69 -204q0 -147 -84 -264.5t-233 -182.5t-335 -65q-226 0 -358.5 105.5t-132.5 281.5q0 165 107 284.5t290 171.5v4q-101 37 -158 115.5t-57 179.5q0 136 76.5 244.5t212.5 169.5t305 61q206 0 327 -98t121 -260q0 -146 -92.5 -254.5 t-249.5 -159.5v-4zM821 1419q-151 0 -248.5 -83.5t-97.5 -215.5q0 -99 68.5 -159t185.5 -60q150 0 248 85t98 216q0 98 -68.5 157.5t-185.5 59.5zM600 158q173 0 286 94.5t113 241.5q0 111 -80 179t-217 68q-175 0 -288 -94.5t-113 -240.5q0 -112 80.5 -180t218.5 -68z" glyph-name="eight" horiz-adv-x="1329" unicode="8"/><glyph d="M836 1597q495 0 495 -559q0 -308 -96 -548.5t-274 -375t-410 -134.5q-213 0 -329 109t-116 306q0 31 3 72h208q0 -7 -1 -22t-1 -23q0 -126 68.5 -195t194.5 -69q201 0 344 180t186 485h-4q-77 -107 -207 -165t-299 -58q-194 0 -301 101.5t-107 283.5q0 185 83.5 325 t229.5 213.5t333 73.5zM709 770q183 0 291 99t108 268q0 125 -78.5 203.5t-206.5 78.5q-185 0 -294 -104t-109 -281q0 -125 75.5 -194.5t213.5 -69.5z" glyph-name="nine" horiz-adv-x="1370" unicode="9"/><glyph d="M313 825q-53 0 -83.5 29.5t-30.5 77.5q0 65 45 107t114 42q52 0 82.5 -29t30.5 -77q0 -64 -45 -107t-113 -43zM164 -20q-53 0 -84 29t-31 77q0 64 46 107t114 43q52 0 82.5 -29.5t30.5 -77.5q0 -65 -44.5 -107t-113.5 -42z" glyph-name="colon" horiz-adv-x="520" unicode=":"/><glyph d="M377 1081q53 0 82.5 -29t29.5 -77q0 -65 -44 -107.5t-113 -42.5q-53 0 -83 29.5t-30 77.5q0 64 45 106.5t113 42.5zM229 236q55 0 86 -36t31 -98q0 -27 -2 -43q-25 -129 -121.5 -225t-232.5 -125v68q85 17 149 74.5t92 138.5q-38 -10 -67 -10q-43 0 -69.5 28t-26.5 74 q0 67 46 110.5t115 43.5z" glyph-name="semicolon" horiz-adv-x="557" unicode=";"/><glyph d="M954 946l-28 -166l-680 -268l585 -256l-28 -166l-742 352l17 97h2l8 53z" glyph-name="less" horiz-adv-x="1015" unicode="&lt;"/><glyph d="M147 594l29 158h805l-29 -158h-805zM92 281l29 157h803l-27 -157h-805z" glyph-name="equal" horiz-adv-x="1079" unicode="="/><glyph d="M950 592l-16 -96h-2l-8 -54l-867 -352l31 166l678 264l-586 260l29 166z" glyph-name="greater" horiz-adv-x="1015" unicode="&gt;"/><glyph d="M420 440l2 13q7 44 21.5 84t40 77.5t45.5 64t59.5 63t58.5 52.5t64 54q120 100 160 145q94 105 94 219q0 94 -65 149.5t-177 55.5q-128 0 -224.5 -80.5t-127.5 -212.5h-203q50 212 213 341.5t381 129.5q200 0 316 -94t116 -250q0 -62 -18.5 -118t-44.5 -97.5t-70.5 -85.5 t-81 -73.5t-92.5 -71.5q-13 -9 -19 -14q-49 -37 -77.5 -60t-68.5 -60.5t-63.5 -69t-44 -74t-28.5 -87.5h-166zM422 -20q-53 0 -84 29t-31 77q0 65 45.5 107.5t114.5 42.5q52 0 82.5 -29.5t30.5 -77.5q0 -64 -45 -106.5t-113 -42.5z" glyph-name="question" horiz-adv-x="1144" unicode="?"/><glyph d="M1561 68q-104 0 -171.5 41t-74.5 110v29h-4q-63 -84 -170 -133t-228 -49q-138 0 -221.5 83t-83.5 220q0 136 46.5 259.5t128 214t198.5 144t252 53.5q102 0 178.5 -49.5t99.5 -132.5h5l57 162h196l-249 -709q-7 -21 -7 -26q0 -35 31.5 -56.5t81.5 -21.5q126 0 231.5 83.5 t166.5 229t61 320.5q0 282 -189 450t-514 168q-243 0 -457 -88t-366 -239t-240 -361.5t-88 -447.5q0 -307 195.5 -490.5t534.5 -183.5q134 0 301.5 32.5t306.5 86.5l26 -134q-140 -57 -321 -91t-336 -34q-197 0 -361 57.5t-277.5 160.5t-176 251t-62.5 324q0 273 99 512 t273.5 412t427 272.5t546.5 99.5q246 0 438.5 -91.5t300 -259.5t107.5 -386q0 -226 -91 -407.5t-249.5 -283t-351.5 -101.5zM1018 223q122 0 233 88t166 232l6 16q27 83 27 125q0 88 -54.5 142.5t-144.5 54.5q-120 0 -219 -60.5t-154 -163.5t-55 -225q0 -95 52.5 -152 t142.5 -57z" glyph-name="at" horiz-adv-x="2299" unicode="@"/><glyph d="M1102 0l-70 389h-696l-207 -389h-219l868 1577h244l311 -1577h-231zM430 563h571l-141 799h-4z" glyph-name="A" horiz-adv-x="1431" unicode="A"/><glyph d="M1100 815q130 -32 203 -117t73 -204q0 -218 -169 -356t-449 -138h-666l279 1577h608q194 0 320 -98.5t126 -255.5q0 -143 -87 -248t-238 -156v-4zM1200 1188q0 98 -64.5 157.5t-177.5 59.5h-405l-92 -518h407q143 0 237.5 85.5t94.5 215.5zM797 172q154 0 256 92.5 t102 233.5q0 105 -69.5 168t-190.5 63h-461l-98 -557h461z" glyph-name="B" horiz-adv-x="1474" unicode="B"/><glyph d="M748 -20q-275 0 -446 180t-171 475q0 277 113 496t319 342.5t471 123.5q170 0 305.5 -66t214 -189t80.5 -283v-35h-213v16q-1 171 -116.5 275t-303.5 104q-181 0 -329 -98t-233 -273t-85 -391q0 -228 113.5 -363.5t312.5 -135.5q190 0 343.5 110.5t215.5 292.5h211 q-83 -266 -297 -423.5t-505 -157.5z" glyph-name="C" horiz-adv-x="1619" unicode="C"/><glyph d="M92 0l279 1577h471q284 0 461.5 -177.5t177.5 -467.5q0 -201 -67.5 -374t-187.5 -296t-291 -192.5t-372 -69.5h-471zM336 172h272q181 0 329.5 95t234 265.5t85.5 380.5q0 224 -115.5 358t-316.5 134h-272z" glyph-name="D" horiz-adv-x="1519" unicode="D"/><glyph d="M1384 1405h-829l-90 -506h756l-31 -174h-756l-98 -553h854l-29 -172h-1069l279 1577h1044z" glyph-name="E" horiz-adv-x="1343" unicode="E"/><glyph d="M1352 1405h-797l-92 -522h684l-29 -170h-686l-125 -713h-215l279 1577h1011z" glyph-name="F" horiz-adv-x="1259" unicode="F"/><glyph d="M1628 1038h-211v13q-3 166 -116.5 267t-299.5 101q-181 0 -329 -98t-233 -273t-85 -391q0 -228 113.5 -363.5t312.5 -135.5q204 0 361 138.5t217 369.5h-518l26 153h736l-11 -59q-29 -174 -102.5 -318.5t-181.5 -246.5t-251.5 -158.5t-307.5 -56.5q-275 0 -446 180 t-171 475q0 277 113 496t319 342.5t471 123.5q168 0 303 -65.5t213 -186.5t80 -278q0 -5 -1 -14.5t-1 -14.5z" glyph-name="G" horiz-adv-x="1646" unicode="G"/><glyph d="M1350 1577h215l-279 -1577h-215l127 715h-764l-127 -715h-215l279 1577h215l-123 -690h764z" glyph-name="H" horiz-adv-x="1566" unicode="H"/><glyph d="M92 0l279 1577h215l-279 -1577h-215z" glyph-name="I" horiz-adv-x="587" unicode="I"/><glyph d="M430 -20q-172 0 -283.5 124.5t-111.5 327.5q0 63 4 98h201q-4 -23 -4 -63q0 -141 62 -225t167 -84q117 0 203.5 85t111.5 224l197 1110h215l-195 -1096q-42 -246 -188.5 -373.5t-378.5 -127.5z" glyph-name="J" horiz-adv-x="1177" unicode="J"/><glyph d="M371 1577h215l-279 -1577h-215zM1567 1577l-803 -754l604 -823h-250l-622 817l817 760h254z" glyph-name="K" horiz-adv-x="1431" unicode="K"/><glyph d="M338 178h725l-31 -178h-940l279 1577h215z" glyph-name="L" horiz-adv-x="1153" unicode="L"/><glyph d="M1686 1577h299l-279 -1577h-213l238 1319h-5l-753 -1319h-180l-267 1319h-4l-227 -1319h-203l279 1577h295l264 -1323h4z" glyph-name="M" horiz-adv-x="1988" unicode="M"/><glyph d="M1360 1577h205l-279 -1577h-205l-565 1237h-4l-213 -1237h-207l279 1577h207l565 -1239h4z" glyph-name="N" horiz-adv-x="1566" unicode="N"/><glyph d="M752 -20q-278 0 -450.5 180.5t-172.5 476.5q0 276 114.5 494.5t321.5 342t471 123.5q278 0 450.5 -180.5t172.5 -476.5q0 -276 -114 -494.5t-321 -342t-472 -123.5zM784 158q182 0 331.5 98t235 273t85.5 391q0 228 -114.5 363.5t-315.5 135.5q-183 0 -333 -98 t-235.5 -273t-85.5 -391q0 -228 115.5 -363.5t316.5 -135.5z" glyph-name="O" horiz-adv-x="1697" unicode="O"/><glyph d="M952 1577q205 0 337 -112.5t132 -293.5q0 -248 -176 -403.5t-465 -155.5h-364l-109 -612h-215l279 1577h581zM821 784q163 0 271 103t108 262q0 117 -71.5 186.5t-194.5 69.5h-379l-111 -621h377z" glyph-name="P" horiz-adv-x="1374" unicode="P"/><glyph d="M1659 940q0 -277 -116 -497t-322 -341l108 -139l-143 -129l-146 189q-133 -43 -288 -43q-278 0 -450.5 180.5t-172.5 476.5q0 276 114.5 494.5t321.5 342t471 123.5q278 0 450.5 -180.5t172.5 -476.5zM942 463l164 -213q152 97 241 273.5t89 396.5q0 228 -114.5 363.5 t-315.5 135.5q-183 0 -333 -98t-235.5 -273t-85.5 -391q0 -228 115.5 -363.5t316.5 -135.5q69 0 138 16l-125 160z" glyph-name="Q" horiz-adv-x="1695" unicode="Q"/><glyph d="M1460 1200q0 -184 -109.5 -319t-301.5 -189l254 -692h-240l-234 662h-16h-389l-117 -662h-215l279 1577h604q212 0 348.5 -104.5t136.5 -272.5zM858 827q162 0 269.5 95.5t107.5 242.5q0 108 -75.5 174t-203.5 66h-403l-100 -578h405z" glyph-name="R" horiz-adv-x="1466" unicode="R"/><glyph d="M600 -20q-232 0 -380 129t-148 340q0 46 4 73h215q0 -8 -1 -25t-1 -24q0 -145 93 -230t253 -85q198 0 325 89.5t127 233.5q0 37 -12 68t-29 53t-49.5 41t-60 31t-73.5 23.5t-78 18t-85 15.5q-45 8 -77 14t-75 16t-73.5 20.5t-67 26.5t-61.5 34t-50 43t-39.5 53.5 t-24 65.5t-9.5 79q0 229 181 371.5t481 142.5q213 0 351 -123t138 -323q0 -22 -4 -72h-217q4 40 4 56q0 131 -84 207.5t-229 76.5q-174 0 -286 -82t-112 -211q0 -37 13 -67t40 -52t56.5 -37.5t76 -28t83.5 -20t94 -16.5q61 -10 103.5 -18.5t99.5 -24t96 -33.5t81 -47 t66.5 -63.5t41 -83t16.5 -107.5q0 -244 -195.5 -396t-517.5 -152z" glyph-name="S" horiz-adv-x="1402" unicode="S"/><glyph d="M1382 1577l-28 -172h-480l-247 -1405h-215l247 1405h-479l31 172h1171z" glyph-name="T" horiz-adv-x="1232" unicode="T"/><glyph d="M659 -20q-219 0 -358 125.5t-139 332.5q0 58 12 123l178 1016h215l-182 -1028q-8 -41 -8 -86q0 -140 85.5 -222.5t233.5 -82.5q171 0 295.5 107.5t155.5 283.5l180 1028h205l-180 -1016q-49 -281 -229.5 -431t-463.5 -150z" glyph-name="U" horiz-adv-x="1515" unicode="U"/><glyph d="M1315 1577h223l-817 -1577h-264l-260 1577h225l203 -1362h4z" glyph-name="V" horiz-adv-x="1366" unicode="V"/><glyph d="M2036 1577h219l-705 -1577h-262l-98 1319h-4l-563 -1319h-263l-147 1577h221l107 -1352h4l573 1352h236l102 -1352h4z" glyph-name="W" horiz-adv-x="2097" unicode="W"/><glyph d="M-84 0l674 813l-361 764h258l263 -596h4l475 596h244l-629 -760l385 -817h-264l-283 647h-4l-514 -647h-248z" glyph-name="X" horiz-adv-x="1331" unicode="X"/><glyph d="M1591 1577l-776 -995l-102 -582h-213l104 586l-420 991h242l322 -791h4l598 791h241z" glyph-name="Y" horiz-adv-x="1402" unicode="Y"/><glyph d="M1356 1393l-1106 -1217v-4h911l-28 -172h-1172l31 184l1106 1217v4h-840l31 172h1100z" glyph-name="Z" horiz-adv-x="1288" unicode="Z"/><glyph d="M754 1407h-201l-299 -1708h199l-29 -170h-414l361 2048h413z" glyph-name="bracketleft" horiz-adv-x="665" unicode="["/><glyph d="M473 -471l-235 2048h159l238 -2048h-162z" glyph-name="backslash" horiz-adv-x="866" unicode="\"/><glyph d="M664 1577l-361 -2048h-414l31 170h201l299 1708h-199l29 170h414z" glyph-name="bracketright" horiz-adv-x="665" unicode="]"/><glyph d="M834 1577l270 -752h-180l-199 576h-4l-399 -576h-187l535 752h164z" glyph-name="asciicircum" horiz-adv-x="1120" unicode="^"/><glyph d="M-49 -225l20 123h1002l-21 -123h-1001z" glyph-name="underscore" horiz-adv-x="1157" unicode="_"/><glyph d="M352 1169h-157l-181 340h213z" glyph-name="grave" horiz-adv-x="421" unicode="`"/><glyph d="M1038 1061h205l-186 -1061h-205l35 201h-4q-64 -104 -175 -162.5t-255 -58.5q-175 0 -275 118.5t-100 317.5q0 189 75.5 342t206 238t289.5 85q130 0 225.5 -60t124.5 -163h5zM555 145q145 0 251.5 106t137.5 279q10 55 10 97q0 133 -70.5 210.5t-193.5 77.5 q-170 0 -284.5 -132t-114.5 -332q0 -138 70.5 -222t193.5 -84z" glyph-name="a" horiz-adv-x="1310" unicode="a"/><glyph d="M856 1081q174 0 275.5 -119t101.5 -317q0 -189 -75 -341.5t-205.5 -238t-290.5 -85.5q-129 0 -225.5 59.5t-125.5 161.5h-4l-35 -201h-204l278 1577h205l-127 -719h4q59 103 176 163t252 60zM621 145q169 0 283 132.5t114 332.5q0 138 -70 221.5t-192 83.5 q-145 0 -252.5 -106t-138.5 -279q-9 -74 -9 -96q0 -133 70.5 -211t194.5 -78z" glyph-name="b" horiz-adv-x="1310" unicode="b"/><glyph d="M518 -20q-204 0 -322 122.5t-118 325.5q0 187 83 337t228 233t324 83q191 0 307.5 -105t122.5 -278h-205q-8 97 -78 157t-178 60q-168 0 -280.5 -132.5t-112.5 -331.5q0 -139 69 -222.5t189 -83.5q116 0 208.5 61.5t129.5 162.5h207q-60 -175 -218 -282t-356 -107z" glyph-name="c" horiz-adv-x="1187" unicode="c"/><glyph d="M1130 1577h205l-278 -1577h-205l35 201h-4q-64 -104 -175 -162.5t-255 -58.5q-175 0 -275 118.5t-100 317.5q0 189 75.5 342t206 238t289.5 85q130 0 225.5 -60t124.5 -163h5zM555 145q145 0 251.5 106t137.5 279q10 55 10 97q0 133 -70.5 210.5t-193.5 77.5 q-170 0 -284.5 -132t-114.5 -332q0 -138 70.5 -222t193.5 -84z" glyph-name="d" horiz-adv-x="1310" unicode="d"/><glyph d="M713 1081q203 0 318.5 -115t115.5 -313q0 -61 -12 -131l-5 -30h-847q-2 -14 -2 -46q0 -143 70.5 -229t193.5 -86q115 0 214.5 65t145.5 169h199q-68 -173 -229 -279t-357 -106q-204 0 -322 123t-118 327q0 186 83 335t228 232.5t324 83.5zM686 934q-135 0 -239 -89.5 t-146 -236.5h645v27q0 138 -69 218.5t-191 80.5z" glyph-name="e" horiz-adv-x="1222" unicode="e"/><glyph d="M807 1442q-98 0 -168.5 -64t-89.5 -170l-27 -147h359l-25 -150h-358l-160 -911h-207l160 911h-172l26 150h172l25 135q33 188 159.5 294.5t305.5 106.5q132 0 199 -34l-29 -156q-79 35 -170 35z" glyph-name="f" horiz-adv-x="800" unicode="f"/><glyph d="M1038 1061h205l-188 -1069q-27 -155 -112 -265.5t-211 -164.5t-283 -54q-195 0 -310.5 98.5t-115.5 262.5q0 19 4 55h194q-2 -10 -2 -28q2 -101 71 -161.5t187 -60.5q142 0 243.5 84.5t127.5 221.5l39 221h-4q-64 -104 -174.5 -162.5t-253.5 -58.5q-176 0 -276.5 118.5 t-100.5 317.5q0 189 75.5 342t206 238t289.5 85q130 0 225.5 -60t124.5 -163h5zM555 145q145 0 251.5 106t137.5 279q10 55 10 97q0 133 -70.5 210.5t-193.5 77.5q-169 0 -284 -132.5t-115 -331.5q0 -138 70.5 -222t193.5 -84z" glyph-name="g" horiz-adv-x="1310" unicode="g"/><glyph d="M840 1081q145 0 227 -84.5t82 -228.5q0 -49 -8 -98l-119 -670h-205l115 647q6 30 6 60q0 96 -58 152t-157 56q-130 0 -226 -90.5t-122 -238.5l-103 -586h-204l278 1577h205l-125 -707h4q60 95 172.5 153t237.5 58z" glyph-name="h" horiz-adv-x="1261" unicode="h"/><glyph d="M401 1296q-49 0 -77.5 27.5t-28.5 73.5q0 58 42 96.5t105 38.5q49 0 78 -26.5t29 -71.5q0 -60 -42.5 -99t-105.5 -39zM72 0l188 1061h205l-189 -1061h-204z" glyph-name="i" horiz-adv-x="536" unicode="i"/><glyph d="M401 1296q-49 0 -76.5 27.5t-27.5 73.5q0 58 42 96.5t105 38.5q49 0 77 -26.5t28 -71.5q0 -60 -42 -99t-106 -39zM-10 -471l270 1532h205l-270 -1532h-205z" glyph-name="j" horiz-adv-x="536" unicode="j"/><glyph d="M346 1577h205l-279 -1577h-204zM1245 1061l-586 -481l486 -580h-240l-495 580l591 481h244z" glyph-name="k" horiz-adv-x="1212" unicode="k"/><glyph d="M72 0l278 1577h205l-279 -1577h-204z" glyph-name="l" horiz-adv-x="536" unicode="l"/><glyph d="M1530 1081q136 0 212.5 -81t76.5 -220q0 -42 -9 -98l-118 -682h-205l115 655q4 40 4 62q0 91 -52.5 144.5t-144.5 53.5q-120 0 -209 -89t-115 -234l-104 -592h-205l115 655q6 30 6 62q0 91 -52.5 144.5t-144.5 53.5q-121 0 -210 -89t-115 -234l-103 -592h-204l186 1061 h205l-33 -191h4q57 95 164.5 153t224.5 58q119 0 193.5 -62.5t91.5 -172.5h4q69 107 183.5 171t238.5 64z" glyph-name="m" horiz-adv-x="1931" unicode="m"/><glyph d="M840 1081q145 0 227 -84.5t82 -228.5q0 -49 -8 -98l-119 -670h-205l115 647q6 30 6 60q0 96 -58 152t-157 56q-130 0 -226 -90.5t-122 -238.5l-103 -586h-204l186 1061h205l-33 -191h4q60 95 172.5 153t237.5 58z" glyph-name="n" horiz-adv-x="1261" unicode="n"/><glyph d="M522 -20q-205 0 -324.5 123t-119.5 327q0 140 49 261.5t133.5 206.5t203 134t253.5 49q207 0 325.5 -122.5t118.5 -327.5q0 -140 -49 -261.5t-133.5 -206.5t-203 -134t-253.5 -49zM553 145q170 0 284.5 132.5t114.5 332.5q0 138 -71 221.5t-193 83.5q-170 0 -284.5 -132 t-114.5 -332q0 -138 70.5 -222t193.5 -84z" glyph-name="o" horiz-adv-x="1241" unicode="o"/><glyph d="M858 1081q175 0 275 -118.5t100 -317.5q0 -189 -75 -341.5t-205.5 -238t-290.5 -85.5q-126 0 -222.5 60t-126.5 161h-4l-119 -672h-204l268 1532h205l-35 -203h4q59 103 176.5 163t253.5 60zM621 145q170 0 284.5 132.5t114.5 332.5q0 138 -70 221.5t-192 83.5 q-145 0 -253.5 -106t-137.5 -279q-9 -52 -9 -96q0 -133 70 -211t193 -78z" glyph-name="p" horiz-adv-x="1310" unicode="p"/><glyph d="M1038 1061h205l-270 -1532h-205l119 672h-4q-64 -104 -174.5 -162.5t-253.5 -58.5q-175 0 -276 119t-101 317q0 142 44 266t119.5 211.5t181 137.5t224.5 50q132 0 227.5 -60t122.5 -163h4zM555 145q145 0 251.5 106t137.5 279q10 55 10 97q0 133 -70.5 210.5 t-193.5 77.5q-170 0 -284.5 -132t-114.5 -332q0 -138 70.5 -222t193.5 -84z" glyph-name="q" horiz-adv-x="1310" unicode="q"/><glyph d="M821 1081q78 0 133 -20l-32 -195q-78 29 -179 29q-141 0 -245.5 -104.5t-135.5 -274.5l-90 -516h-204l186 1061h205l-39 -223h4q62 109 171 176t226 67z" glyph-name="r" horiz-adv-x="886" unicode="r"/><glyph d="M442 -20q-188 0 -297.5 83t-109.5 222q0 26 2 49h194q-2 -10 -2 -33q0 -84 64 -134t172 -50q131 0 216 54t85 140q0 27 -9.5 49t-31.5 38.5t-42 27.5t-58 21.5t-62.5 15.5t-70.5 14q-49 9 -83 16.5t-78.5 21.5t-74 32t-57 43t-41 60t-13.5 79q0 157 138 254.5t354 97.5 q174 0 275.5 -80t101.5 -215q0 -31 -2 -49h-195q2 10 2 33q0 78 -56 126t-151 48q-116 0 -190 -49t-74 -127q0 -23 8.5 -41.5t28.5 -32t39 -23.5t54 -19t58 -14t66 -13q44 -8 74.5 -14.5t72 -18.5t70 -25.5t59 -34t49 -45.5t30.5 -59.5t12 -75.5q0 -165 -148 -268.5 t-379 -103.5z" glyph-name="s" horiz-adv-x="1083" unicode="s"/><glyph d="M477 911l-106 -604q-2 -18 -2 -31q0 -63 41.5 -100t111.5 -37q93 0 174 33l-24 -149q-100 -43 -228 -43q-133 0 -209.5 67.5t-76.5 183.5q0 29 6 64l108 616h-172l25 150h184l53 307h197l-55 -307h348l-25 -150h-350z" glyph-name="t" horiz-adv-x="800" unicode="t"/><glyph d="M514 -20q-185 0 -291 94.5t-106 253.5q0 41 6 88l115 645h204l-108 -625q-8 -33 -8 -69q0 -102 58.5 -162t160.5 -60q117 0 203.5 79.5t109.5 211.5l111 625h205l-115 -645q-37 -212 -183 -324t-362 -112z" glyph-name="u" horiz-adv-x="1222" unicode="u"/><glyph d="M989 1061h215l-610 -1061h-242l-237 1061h209l178 -871h4z" glyph-name="v" horiz-adv-x="1132" unicode="v"/><glyph d="M1530 1061h209l-535 -1061h-217l-92 844h-4l-389 -844h-219l-162 1061h207l106 -844h4l393 844h201l96 -844h5z" glyph-name="w" horiz-adv-x="1673" unicode="w"/><glyph d="M-80 0l510 551l-287 510h224l198 -369h4l330 369h221l-467 -508l316 -553h-232l-223 410h-4l-365 -410h-225z" glyph-name="x" horiz-adv-x="1075" unicode="x"/><glyph d="M991 1061h213l-880 -1532h-201l239 430l-247 1102h209l178 -871h4z" glyph-name="y" horiz-adv-x="1134" unicode="y"/><glyph d="M989 893l-758 -731v-4h646l-29 -158h-881l29 166l747 733v4h-583l28 158h830z" glyph-name="z" horiz-adv-x="1007" unicode="z"/><glyph d="M326 1260q28 158 132 237.5t261 79.5l-33 -176q-56 0 -95.5 -35.5t-49.5 -95.5l-84 -477q-31 -161 -174 -240v-4q94 -63 94 -180q0 -20 -4 -56l-86 -477q-2 -12 -2 -29q0 -48 27.5 -75t76.5 -27l-31 -176q-133 0 -210.5 68.5t-77.5 183.5q0 25 6 65l84 480q4 24 4 32 q0 49 -30 78t-81 29l31 176q59 0 102.5 38t55.5 101z" glyph-name="braceleft" horiz-adv-x="634" unicode="{"/><glyph d="M10 -471l398 2253h163l-397 -2253h-164z" glyph-name="bar" horiz-adv-x="536" unicode="|"/><glyph d="M481 750q0 -50 29 -79.5t80 -29.5l-31 -176q-60 0 -103 -38t-53 -101l-86 -480q-28 -158 -132 -237.5t-261 -79.5l33 176q56 0 96.5 35.5t50.5 95.5l82 477q13 77 58.5 139t115.5 101v4q-94 65 -94 180q0 31 4 56l86 477q2 12 2 28q0 47 -27.5 75t-74.5 28l29 176 q133 0 210.5 -69t77.5 -185q0 -23 -6 -63l-84 -480q-2 -12 -2 -30z" glyph-name="braceright" horiz-adv-x="634" unicode="}"/><glyph d="M98 360q25 136 109.5 212.5t210.5 76.5q76 0 141.5 -19t105 -41.5t95.5 -41.5t114 -19q57 0 98 34.5t56 94.5h102q-25 -136 -109 -212t-210 -76q-62 0 -115.5 12.5t-92 30t-75 35t-80.5 30t-92 12.5q-57 0 -98.5 -34.5t-56.5 -94.5h-103z" glyph-name="asciitilde" horiz-adv-x="1239" unicode="~"/><glyph glyph-name="uni00A0" horiz-adv-x="509"/><glyph d="M313 825q-52 0 -82 29.5t-30 77.5q0 64 44.5 106.5t112.5 42.5q54 0 84.5 -29t30.5 -77q0 -65 -45.5 -107.5t-114.5 -42.5zM-27 -471l238 1110h139l-153 -1110h-224z" glyph-name="exclamdown" horiz-adv-x="520" unicode="¡"/><glyph d="M643 365q101 12 179 70.5t110 148.5h207q-57 -164 -199.5 -268.5t-325.5 -118.5l-34 -197h-97l35 197q-183 13 -288 134t-105 312q0 180 76 324.5t209.5 230t302.5 96.5l30 181h97l-33 -181q171 -13 274 -116t109 -265h-205q-6 86 -62 143.5t-145 69.5zM336 666 q0 -125 56 -205.5t155 -95.5l135 763q-151 -20 -248.5 -149t-97.5 -313z" glyph-name="cent" horiz-adv-x="1204" unicode="¢"/><glyph d="M1329 1081h-209q0 9 1 26.5t1 25.5q0 131 -71 208.5t-195 77.5q-150 0 -248 -88t-98 -227q0 -26 3 -53t10.5 -60.5t12 -53t16.5 -61.5t15 -55h477l-28 -164h-424q-1 -54 -13 -103.5t-44 -113t-100.5 -131t-170.5 -133.5v-4h922l-31 -172h-1153l33 188q100 57 168.5 120 t101 124.5t45 112.5t12.5 108v4h-217l29 164h162q-1 6 -11 45t-13 50t-10 44t-9.5 51t-5 44t-2.5 49q0 141 77.5 254t214.5 176t308 63q208 0 328 -118.5t120 -319.5q0 -49 -4 -78z" glyph-name="sterling" horiz-adv-x="1325" unicode="£"/><glyph d="M1047 915q28 -67 28 -151q0 -175 -100 -305l92 -119l-152 -131l-96 119q-118 -62 -258 -62q-137 0 -233 68l-144 -123l-106 129l147 127q-28 67 -28 149q0 176 100 306l-96 118l153 131l97 -120q117 63 260 63q142 0 231 -65l143 120l107 -129zM375 637q0 -102 57 -163.5 t154 -61.5q134 0 222.5 93.5t88.5 237.5q0 102 -57 164t-156 62q-133 0 -221 -94t-88 -238z" glyph-name="currency" horiz-adv-x="1212" unicode="¤"/><glyph d="M1632 1577l-762 -977h316l-17 -90h-325l-21 -115h326l-16 -90h-326l-53 -305h-213l53 305h-313l16 90h313l21 115h-314l17 90h305l-414 977h242l321 -791h5l598 791h241z" glyph-name="yen" horiz-adv-x="1499" unicode="¥"/><glyph d="M246 860l162 922h163l-161 -922h-164zM10 -471l162 922h164l-162 -922h-164z" glyph-name="brokenbar" horiz-adv-x="536" unicode="¦"/><glyph d="M1350 1110h-211q2 14 2 41q0 123 -81.5 196.5t-219.5 73.5q-162 0 -268.5 -73.5t-106.5 -184.5q0 -101 106 -162q113 29 228 29q232 0 368 -110t136 -293q0 -124 -56 -229.5t-157 -176.5q104 -80 104 -211q0 -144 -87.5 -258.5t-243.5 -179t-351 -64.5q-234 0 -374 123.5 t-140 327.5q0 39 4 59h211q0 -6 -1 -20t-1 -21q0 -132 91 -212t243 -80q187 0 307.5 80.5t120.5 207.5q0 89 -74 154q-128 -39 -266 -39q-232 0 -367 109t-135 292q0 131 62.5 241t173.5 183q-125 73 -125 213q0 134 82 242t227.5 168.5t327.5 60.5q218 0 346.5 -116.5 t128.5 -311.5q0 -39 -4 -59zM1081 602q0 114 -84 182t-229 68q-181 0 -299.5 -95t-118.5 -243q0 -113 85 -181.5t229 -68.5q182 0 299.5 94.5t117.5 243.5z" glyph-name="section" horiz-adv-x="1400" unicode="§"/><glyph d="M215 1245q-47 0 -73.5 25t-26.5 67q0 58 40.5 95.5t100.5 37.5q47 0 73.5 -25.5t26.5 -68.5q0 -58 -39.5 -94.5t-101.5 -36.5zM565 1245q-46 0 -73 25.5t-27 66.5q0 58 40.5 95.5t100.5 37.5q47 0 74 -25.5t27 -68.5q0 -58 -40 -94.5t-102 -36.5z" glyph-name="dieresis" horiz-adv-x="823" unicode="¨"/><glyph d="M803 -20q-312 0 -493 181.5t-181 483.5q0 205 73.5 382.5t201 302t305.5 196t381 71.5q311 0 491 -181.5t180 -483.5q0 -273 -125 -491t-343.5 -339.5t-489.5 -121.5zM825 113q165 0 310 60t249 164.5t164 254t60 321.5q0 251 -146 402t-397 151q-221 0 -399.5 -102 t-280.5 -285t-102 -413q0 -251 145.5 -402t396.5 -151zM883 393q-147 0 -230.5 87t-83.5 235q0 204 129.5 338.5t323.5 134.5q135 0 216.5 -78t86.5 -207h-170q-5 66 -48 106t-110 40q-105 0 -177 -91t-72 -227q0 -91 42.5 -146t116.5 -55q69 0 128 41.5t85 108.5h170 q-44 -130 -155.5 -208.5t-251.5 -78.5z" glyph-name="copyright" horiz-adv-x="1800" unicode="©"/><glyph d="M793 1071q16 0 34 6l-18 -102q-51 -19 -100 -19q-41 0 -66.5 21t-28.5 57q0 4 1 10t1 9l2 16h-4q-43 -54 -108.5 -83.5t-140.5 -29.5q-78 0 -124 38.5t-46 103.5q0 42 10 73t33.5 54.5t55.5 40t82 31t106 26.5t135 28q31 6 47 9l8 43q2 10 2 16q0 38 -29 60t-80 22 q-58 0 -99 -31t-52 -84l-140 9q19 91 105 146.5t207 55.5q107 0 169 -46t62 -124q0 -20 -2 -32l-49 -279q-2 -6 -2 -12q0 -33 29 -33zM637 1204l12 68q-13 -3 -38 -8q-158 -31 -205 -54q-64 -31 -64 -88q0 -31 24 -49t64 -18q82 0 139 43t68 106z" glyph-name="ordfeminine" horiz-adv-x="825" unicode="ª"/><glyph d="M479 217h-205l-192 315l303 316h209l-301 -322zM870 217h-204l-193 315l303 316h209l-301 -322z" glyph-name="guillemotleft" horiz-adv-x="1054" unicode="«"/><glyph d="M174 733h803l-74 -424h-205l47 269h-600z" glyph-name="logicalnot" horiz-adv-x="1079" unicode="¬"/><glyph d="M121 463l26 151h574l-25 -151h-575z" glyph-name="uni00AD" horiz-adv-x="839" unicode="­"/><glyph d="M707 1597q167 0 263.5 -91.5t96.5 -243.5q0 -206 -143 -340t-361 -134q-166 0 -262 92t-96 244q0 206 142.5 339.5t359.5 133.5zM578 866q173 0 287 107.5t114 275.5q0 124 -77 198.5t-208 74.5q-174 0 -288.5 -108.5t-114.5 -276.5q0 -124 77 -197.5t210 -73.5z M827 1286q0 -43 -27.5 -77t-74.5 -52l72 -162h-101l-63 150h-86l-27 -150h-94l70 398h192q64 0 101.5 -29.5t37.5 -77.5zM659 1206q31 0 50.5 19.5t19.5 48.5q0 22 -12.5 34.5t-34.5 12.5h-107l-18 -115h102z" glyph-name="registered" horiz-adv-x="1044" unicode="®"/><glyph d="M43 1282l27 154h606l-27 -154h-606z" glyph-name="macron" horiz-adv-x="718" unicode="¯"/><glyph d="M436 1122q-99 0 -157 54.5t-58 144.5q0 120 85 198t216 78q99 0 157 -54t58 -144q0 -120 -86 -198.5t-215 -78.5zM457 1235q60 0 98.5 42t38.5 107q0 45 -25 73t-69 28q-57 0 -96 -43t-39 -107q0 -45 24.5 -72.5t67.5 -27.5z" glyph-name="degree" horiz-adv-x="675" unicode="°"/><glyph d="M670 750h301l-27 -158h-301l-49 -273h-205l49 273h-299l29 158h297l49 274h205zM35 0l26 156h805l-26 -156h-805z" glyph-name="plusminus" horiz-adv-x="1060" unicode="±"/><glyph d="M70 1169l243 340h213l-299 -340h-157z" glyph-name="acute" horiz-adv-x="555" unicode="´"/><glyph d="M1358 1577l-361 -2048h-172l332 1890h-305l-332 -1890h-172l199 1126q-180 0 -284.5 104.5t-104.5 276.5q0 235 157 388t394 153h649z" glyph-name="paragraph" horiz-adv-x="1388" unicode="¶"/><glyph d="M236 420q-53 0 -84 29t-31 77q0 64 46 107t114 43q52 0 82 -29.5t30 -77.5q0 -65 -44 -107t-113 -42z" glyph-name="periodcentered" horiz-adv-x="509" unicode="·"/><glyph d="M379 -125q74 0 116 -38t42 -103q0 -101 -91 -163.5t-233 -62.5q-55 0 -109.5 14t-87.5 36l19 100q35 -25 83.5 -40t92.5 -15q77 0 126.5 31t49.5 81q0 31 -21 49.5t-57 18.5q-72 0 -119 -47l-67 49l211 274l86 -59l-109 -133l4 -2q29 10 64 10z" glyph-name="cedilla" horiz-adv-x="587" unicode="¸"/><glyph d="M479 956q-126 0 -199 72.5t-73 192.5q0 164 109.5 270t275.5 106q125 0 196.5 -71.5t71.5 -192.5q0 -164 -108.5 -270.5t-272.5 -106.5zM500 1077q87 0 146 69t59 173q0 72 -36 115t-100 43q-88 0 -147.5 -69t-59.5 -173q0 -71 37 -114.5t101 -43.5z" glyph-name="ordmasculine" horiz-adv-x="811" unicode="º"/><glyph d="M70 217l303 322l-187 309h205l191 -316l-301 -315h-211zM461 217l303 322l-186 309h204l191 -316l-301 -315h-211z" glyph-name="guillemotright" horiz-adv-x="1054" unicode="»"/><glyph d="M1405 1577h168l-1323 -1577h-168zM279 692l114 647h-180l16 105q101 0 160 30.5t96 102.5h109l-158 -885h-157zM1665 328l-20 -123h-119l-37 -205h-158l37 205h-432l22 131l494 549h193l-99 -557h119zM1462 729l-360 -399v-2h291l71 401h-2z" glyph-name="onequarter" horiz-adv-x="1767" unicode="¼"/><glyph d="M1403 1577h168l-1323 -1577h-168zM276 692l115 647h-180l16 105q101 0 160 30.5t96 102.5h109l-158 -885h-158zM1196 125v-2h490l-21 -123h-659l22 133q266 129 413.5 266t147.5 260q0 53 -32.5 82t-90.5 29q-72 0 -122.5 -43t-69.5 -121h-152q34 138 130 214.5t237 76.5 q128 0 199 -58t71 -161q0 -81 -45.5 -161.5t-125.5 -151t-178 -130.5t-214 -110z" glyph-name="onehalf" horiz-adv-x="1828" unicode="½"/><glyph d="M801 969q0 -131 -102.5 -210t-278.5 -79q-130 0 -200 63t-70 179q0 20 2 43h151q-2 -16 -2 -29q0 -62 36.5 -96.5t104.5 -34.5q91 0 145 45.5t54 120.5q0 57 -41.5 88t-116.5 31h-24l16 98h2l2 12h17q87 0 136.5 42.5t49.5 113.5q0 52 -32 80t-93 28q-66 0 -113.5 -41 t-64.5 -116h-150q32 133 126 207.5t227 74.5q128 0 197 -54.5t69 -152.5q0 -171 -193 -233v-2q71 -22 108.5 -68t37.5 -110zM1651 1577h168l-1323 -1577h-168zM1911 328l-21 -123h-118l-37 -205h-158l37 205h-432l22 131l494 549h192l-98 -557h119zM1708 729l-360 -399v-2 h290l72 401h-2z" glyph-name="threequarters" horiz-adv-x="2011" unicode="¾"/><glyph d="M629 825q-53 0 -84 29.5t-31 77.5q0 64 45.5 106.5t114.5 42.5q52 0 82 -29t30 -77q0 -65 -44 -107.5t-113 -42.5zM342 -492q-201 0 -317.5 90.5t-116.5 241.5q0 38 8.5 72.5t28 67.5t37.5 58t52 57t55 50t63.5 52.5t60.5 50.5q54 47 70 61t60.5 56t62.5 65t45.5 61 t41.5 73.5t21 74.5h166l-2 -12q-10 -56 -33.5 -111t-50 -95.5t-70.5 -89t-75 -78t-82 -75.5q-15 -13 -49 -42.5t-49 -43t-41 -39t-38 -43t-27 -41.5t-20.5 -47.5t-5.5 -48.5q0 -85 65.5 -136.5t178.5 -51.5q127 0 222 73t126 193h203q-47 -199 -209.5 -321t-380.5 -122z" glyph-name="questiondown" horiz-adv-x="1048" unicode="¿"/><glyph d="M1028 1704h-158l-180 342h213zM1102 0l-70 389h-696l-207 -389h-219l868 1577h244l311 -1577h-231zM430 563h571l-141 799h-4z" glyph-name="Agrave" horiz-adv-x="1431" unicode="À"/><glyph d="M1272 2046l-299 -342h-158l244 342h213zM1102 0l-70 389h-696l-207 -389h-219l868 1577h244l311 -1577h-231zM430 563h571l-141 799h-4z" glyph-name="Aacute" horiz-adv-x="1431" unicode="Á"/><glyph d="M958 1923l-202 -219h-170l291 328h202l176 -328h-168l-124 219h-5zM1102 0l-70 389h-696l-207 -389h-219l868 1577h244l311 -1577h-231zM430 563h571l-141 799h-4z" glyph-name="Acircumflex" horiz-adv-x="1431" unicode="Â"/><glyph d="M791 1843q-45 0 -81 -35t-51 -94h-100q25 136 98 212.5t177 76.5q38 0 71.5 -12.5t57 -30.5t45.5 -36.5t47 -31t51 -12.5q46 0 81 35t48 96h102q-25 -136 -97.5 -212.5t-176.5 -76.5q-47 0 -87.5 19t-64 41.5t-56 41.5t-64.5 19zM778 1577h244l311 -1577h-231l-70 389 h-696l-207 -389h-219zM430 563h571l-141 799h-4z" glyph-name="Atilde" horiz-adv-x="1431" unicode="Ã"/><glyph d="M745 1702q-47 0 -73.5 25t-26.5 67q0 58 40.5 95.5t100.5 37.5q47 0 74 -25.5t27 -68.5q0 -58 -40 -94.5t-102 -36.5zM1096 1702q-46 0 -73.5 25.5t-27.5 66.5q0 58 40.5 95.5t101.5 37.5q47 0 73.5 -25.5t26.5 -68.5q0 -58 -39.5 -94.5t-101.5 -36.5zM1102 0l-70 389 h-696l-207 -389h-219l868 1577h244l311 -1577h-231zM430 563h571l-141 799h-4z" glyph-name="Adieresis" horiz-adv-x="1431" unicode="Ä"/><glyph d="M920 1690q-99 0 -156 52.5t-57 139.5q0 118 83 193t211 75q98 0 155.5 -52.5t57.5 -139.5q0 -118 -83.5 -193t-210.5 -75zM981 2044q-61 0 -101 -41.5t-40 -106.5q0 -46 26 -73t72 -27q63 0 103 41.5t40 106.5q0 46 -26.5 73t-73.5 27zM1102 0l-70 389h-696l-207 -389 h-219l868 1577h244l311 -1577h-231zM430 563h571l-141 799h-4z" glyph-name="Aring" horiz-adv-x="1431" unicode="Å"/><glyph d="M2267 1405h-1028l16 -504h850l-30 -174h-813l18 -555h793l-29 -172h-987l-6 389h-686l-267 -389h-217l1067 1577h1352zM481 561h566l-15 803h-4z" glyph-name="AE" horiz-adv-x="2228" unicode="Æ"/><glyph d="M1634 1024h-213v16q-1 171 -116.5 275t-303.5 104q-181 0 -329 -98t-233 -273t-85 -391q0 -228 113.5 -363.5t312.5 -135.5q190 0 343.5 110.5t215.5 292.5h211q-77 -253 -275 -408.5t-470 -170.5l-94 -115l4 -2q29 10 63 10q74 0 116 -38t42 -103q0 -101 -91 -163.5 t-233 -62.5q-55 0 -109 14t-87 36l18 100q35 -25 83.5 -40t92.5 -15q77 0 126.5 31t49.5 81q0 31 -20.5 49.5t-56.5 18.5q-72 0 -119 -47l-68 49l152 199q-245 25 -394 201t-149 450q0 277 113 496t319 342.5t471 123.5q170 0 305.5 -66t214 -189t80.5 -283v-35z" glyph-name="Ccedilla" horiz-adv-x="1619" unicode="Ç"/><glyph d="M1020 1704h-158l-180 342h213zM1384 1405h-829l-90 -506h756l-31 -174h-756l-98 -553h854l-29 -172h-1069l279 1577h1044z" glyph-name="Egrave" horiz-adv-x="1343" unicode="È"/><glyph d="M1264 2046l-299 -342h-158l244 342h213zM1384 1405h-829l-90 -506h756l-31 -174h-756l-98 -553h854l-29 -172h-1069l279 1577h1044z" glyph-name="Eacute" horiz-adv-x="1343" unicode="É"/><glyph d="M950 1923l-202 -219h-170l290 328h203l176 -328h-168l-125 219h-4zM1384 1405h-829l-90 -506h756l-31 -174h-756l-98 -553h854l-29 -172h-1069l279 1577h1044z" glyph-name="Ecircumflex" horiz-adv-x="1343" unicode="Ê"/><glyph d="M737 1702q-47 0 -73.5 25t-26.5 67q0 58 40.5 95.5t100.5 37.5q47 0 74 -25.5t27 -68.5q0 -58 -40 -94.5t-102 -36.5zM1087 1702q-46 0 -73 25.5t-27 66.5q0 58 40.5 95.5t100.5 37.5q47 0 74 -25.5t27 -68.5q0 -58 -40 -94.5t-102 -36.5zM1384 1405h-829l-90 -506h756 l-31 -174h-756l-98 -553h854l-29 -172h-1069l279 1577h1044z" glyph-name="Edieresis" horiz-adv-x="1343" unicode="Ë"/><glyph d="M606 1704h-157l-181 342h213zM92 0l279 1577h215l-279 -1577h-215z" glyph-name="Igrave" horiz-adv-x="587" unicode="Ì"/><glyph d="M393 1704l244 342h213l-299 -342h-158zM92 0l279 1577h215l-279 -1577h-215z" glyph-name="Iacute" horiz-adv-x="587" unicode="Í"/><glyph d="M657 2032l177 -328h-168l-125 219h-4l-203 -219h-170l291 328h202zM92 0l279 1577h215l-279 -1577h-215z" glyph-name="Icircumflex" horiz-adv-x="587" unicode="Î"/><glyph d="M324 1702q-47 0 -74 25t-27 67q0 58 40.5 95.5t101.5 37.5q47 0 73.5 -25.5t26.5 -68.5q0 -58 -39.5 -94.5t-101.5 -36.5zM674 1702q-46 0 -73.5 25.5t-27.5 66.5q0 58 40.5 95.5t101.5 37.5q47 0 73.5 -25.5t26.5 -68.5q0 -58 -39.5 -94.5t-101.5 -36.5zM92 0l279 1577 h215l-279 -1577h-215z" glyph-name="Idieresis" horiz-adv-x="587" unicode="Ï"/><glyph d="M858 1577q284 0 461.5 -177.5t177.5 -467.5q0 -201 -67.5 -374t-187 -296t-290.5 -192.5t-372 -69.5h-471l127 723h-134l25 149h135l125 705h471zM625 172q181 0 329.5 95t234 265.5t85.5 380.5q0 224 -115.5 358t-316.5 134h-273l-94 -533h367l-25 -149h-368l-97 -551 h273z" glyph-name="Eth" horiz-adv-x="1536" unicode="Ð"/><glyph d="M860 1843q-45 0 -80.5 -35t-50.5 -94h-100q25 136 97.5 212.5t176.5 76.5q38 0 71.5 -12.5t57.5 -30.5t46 -36.5t47 -31t51 -12.5q46 0 81 35t48 96h102q-25 -136 -97.5 -212.5t-176.5 -76.5q-47 0 -87.5 19t-64.5 41.5t-56.5 41.5t-64.5 19zM1360 1577h205l-279 -1577 h-205l-565 1237h-4l-213 -1237h-207l279 1577h207l565 -1239h4z" glyph-name="Ntilde" horiz-adv-x="1566" unicode="Ñ"/><glyph d="M1161 1704h-157l-181 342h213zM752 -20q-278 0 -450.5 180.5t-172.5 476.5q0 276 114.5 494.5t321.5 342t471 123.5q278 0 450.5 -180.5t172.5 -476.5q0 -276 -114 -494.5t-321 -342t-472 -123.5zM784 158q182 0 331.5 98t235 273t85.5 391q0 228 -114.5 363.5 t-315.5 135.5q-183 0 -333 -98t-235.5 -273t-85.5 -391q0 -228 115.5 -363.5t316.5 -135.5z" glyph-name="Ograve" horiz-adv-x="1697" unicode="Ò"/><glyph d="M948 1704l244 342h213l-299 -342h-158zM752 -20q-278 0 -450.5 180.5t-172.5 476.5q0 276 114.5 494.5t321.5 342t471 123.5q278 0 450.5 -180.5t172.5 -476.5q0 -276 -114 -494.5t-321 -342t-472 -123.5zM784 158q182 0 331.5 98t235 273t85.5 391q0 228 -114.5 363.5 t-315.5 135.5q-183 0 -333 -98t-235.5 -273t-85.5 -391q0 -228 115.5 -363.5t316.5 -135.5z" glyph-name="Oacute" horiz-adv-x="1697" unicode="Ó"/><glyph d="M1092 1923l-203 -219h-170l291 328h202l177 -328h-168l-125 219h-4zM1036 1597q278 0 450.5 -180.5t172.5 -476.5q0 -276 -114 -494.5t-321 -342t-472 -123.5q-278 0 -450.5 180.5t-172.5 476.5q0 276 114.5 494.5t321.5 342t471 123.5zM784 158q182 0 331.5 98t235 273 t85.5 391q0 228 -114.5 363.5t-315.5 135.5q-183 0 -333 -98t-235.5 -273t-85.5 -391q0 -228 115.5 -363.5t316.5 -135.5z" glyph-name="Ocircumflex" horiz-adv-x="1697" unicode="Ô"/><glyph d="M694 1714q25 136 98 212.5t177 76.5q38 0 71.5 -12.5t57 -30.5t45.5 -36.5t47 -31t51 -12.5q46 0 81 35t48 96h103q-25 -136 -98 -212.5t-177 -76.5q-47 0 -87.5 19t-64 41.5t-56 41.5t-64.5 19q-45 0 -80.5 -35t-50.5 -94h-101zM752 -20q-278 0 -450.5 180.5 t-172.5 476.5q0 276 114.5 494.5t321.5 342t471 123.5q278 0 450.5 -180.5t172.5 -476.5q0 -276 -114 -494.5t-321 -342t-472 -123.5zM784 158q182 0 331.5 98t235 273t85.5 391q0 228 -114.5 363.5t-315.5 135.5q-183 0 -333 -98t-235.5 -273t-85.5 -391 q0 -228 115.5 -363.5t316.5 -135.5z" glyph-name="Otilde" horiz-adv-x="1697" unicode="Õ"/><glyph d="M879 1702q-47 0 -74 25t-27 67q0 58 40.5 95.5t101.5 37.5q47 0 73.5 -25.5t26.5 -68.5q0 -58 -39.5 -94.5t-101.5 -36.5zM1229 1702q-46 0 -73.5 25.5t-27.5 66.5q0 58 40.5 95.5t101.5 37.5q47 0 73.5 -25.5t26.5 -68.5q0 -58 -39.5 -94.5t-101.5 -36.5zM752 -20 q-278 0 -450.5 180.5t-172.5 476.5q0 276 114.5 494.5t321.5 342t471 123.5q278 0 450.5 -180.5t172.5 -476.5q0 -276 -114 -494.5t-321 -342t-472 -123.5zM784 158q182 0 331.5 98t235 273t85.5 391q0 228 -114.5 363.5t-315.5 135.5q-183 0 -333 -98t-235.5 -273 t-85.5 -391q0 -228 115.5 -363.5t316.5 -135.5z" glyph-name="Odieresis" horiz-adv-x="1697" unicode="Ö"/><glyph d="M967 784l-320 -270l225 -272l-159 -133l-224 270l-319 -270l-111 133l320 272l-223 270l157 136l224 -271l319 271z" glyph-name="multiply" horiz-adv-x="1032" unicode="×"/><glyph d="M1466 1436q92 -87 141.5 -214t49.5 -282q0 -276 -114 -494.5t-321 -342t-472 -123.5q-201 0 -353 98l-123 -158l-84 57l129 164q-92 87 -142 214t-50 282q0 276 114.5 494.5t321.5 342t471 123.5q207 0 355 -100l122 158l82 -58zM350 657q0 -211 103 -348l809 1028 q-105 82 -258 82q-183 0 -333 -98t-235.5 -273t-85.5 -391zM782 158q182 0 331.5 98t235 273t85.5 391q0 214 -101 346l-809 -1028q110 -80 258 -80z" glyph-name="Oslash" horiz-adv-x="1693" unicode="Ø"/><glyph d="M1075 1704h-157l-181 342h213zM659 -20q-219 0 -358 125.5t-139 332.5q0 58 12 123l178 1016h215l-182 -1028q-8 -41 -8 -86q0 -140 85.5 -222.5t233.5 -82.5q171 0 295.5 107.5t155.5 283.5l180 1028h205l-180 -1016q-49 -281 -229.5 -431t-463.5 -150z" glyph-name="Ugrave" horiz-adv-x="1515" unicode="Ù"/><glyph d="M862 1704l244 342h213l-299 -342h-158zM659 -20q-219 0 -358 125.5t-139 332.5q0 58 12 123l178 1016h215l-182 -1028q-8 -41 -8 -86q0 -140 85.5 -222.5t233.5 -82.5q171 0 295.5 107.5t155.5 283.5l180 1028h205l-180 -1016q-49 -281 -229.5 -431t-463.5 -150z" glyph-name="Uacute" horiz-adv-x="1515" unicode="Ú"/><glyph d="M1006 1923l-203 -219h-170l291 328h202l177 -328h-168l-125 219h-4zM1327 1577h205l-180 -1016q-49 -281 -229.5 -431t-463.5 -150q-219 0 -358 125.5t-139 332.5q0 58 12 123l178 1016h215l-182 -1028q-8 -41 -8 -86q0 -140 85.5 -222.5t233.5 -82.5q171 0 295.5 107.5 t155.5 283.5z" glyph-name="Ucircumflex" horiz-adv-x="1515" unicode="Û"/><glyph d="M793 1702q-47 0 -74 25t-27 67q0 58 40.5 95.5t101.5 37.5q47 0 73.5 -25.5t26.5 -68.5q0 -58 -39.5 -94.5t-101.5 -36.5zM1143 1702q-46 0 -73.5 25.5t-27.5 66.5q0 58 40.5 95.5t101.5 37.5q47 0 73.5 -25.5t26.5 -68.5q0 -58 -39.5 -94.5t-101.5 -36.5zM659 -20 q-219 0 -358 125.5t-139 332.5q0 58 12 123l178 1016h215l-182 -1028q-8 -41 -8 -86q0 -140 85.5 -222.5t233.5 -82.5q171 0 295.5 107.5t155.5 283.5l180 1028h205l-180 -1016q-49 -281 -229.5 -431t-463.5 -150z" glyph-name="Udieresis" horiz-adv-x="1515" unicode="Ü"/><glyph d="M1268 2046l-299 -342h-158l244 342h213zM1591 1577l-776 -995l-102 -582h-213l104 586l-420 991h242l322 -791h4l598 791h241z" glyph-name="Yacute" horiz-adv-x="1402" unicode="Ý"/><glyph d="M877 1298q205 0 338 -112t133 -293q0 -248 -176 -403.5t-465 -155.5h-340l-60 -334h-215l279 1577h215l-49 -279h340zM750 506q161 0 267.5 102.5t106.5 261.5q0 116 -71 186t-193 70h-354l-109 -620h353z" glyph-name="Thorn" horiz-adv-x="1368" unicode="Þ"/><glyph d="M926 889q149 -34 232 -131t83 -236q0 -233 -171.5 -387.5t-430.5 -154.5q-116 0 -193 24l29 158q77 -17 152 -17q175 0 291 109t116 274q0 127 -86.5 203t-236.5 76h-74l25 141q168 0 277.5 81t109.5 208q0 88 -61.5 141.5t-166.5 53.5q-133 0 -228.5 -77t-117.5 -202 l-203 -1153h-204l200 1145q39 219 195.5 335.5t388.5 116.5q188 0 299 -88t111 -235q0 -133 -90 -233t-246 -148v-4z" glyph-name="germandbls" horiz-adv-x="1331" unicode="ß"/><glyph d="M872 1233h-157l-180 342h213zM1038 1061h205l-186 -1061h-205l35 201h-4q-64 -104 -175 -162.5t-255 -58.5q-175 0 -275 118.5t-100 317.5q0 189 75.5 342t206 238t289.5 85q130 0 225.5 -60t124.5 -163h5zM555 145q145 0 251.5 106t137.5 279q10 55 10 97 q0 133 -70.5 210.5t-193.5 77.5q-170 0 -284.5 -132t-114.5 -332q0 -138 70.5 -222t193.5 -84z" glyph-name="agrave" horiz-adv-x="1310" unicode="à"/><glyph d="M1118 1575l-299 -342h-157l243 342h213zM1038 1061h205l-186 -1061h-205l35 201h-4q-64 -104 -175 -162.5t-255 -58.5q-175 0 -275 118.5t-100 317.5q0 189 75.5 342t206 238t289.5 85q130 0 225.5 -60t124.5 -163h5zM555 145q145 0 251.5 106t137.5 279q10 55 10 97 q0 133 -70.5 210.5t-193.5 77.5q-170 0 -284.5 -132t-114.5 -332q0 -138 70.5 -222t193.5 -84z" glyph-name="aacute" horiz-adv-x="1310" unicode="á"/><glyph d="M807 1466l-203 -219h-170l291 328h203l176 -328h-168l-125 219h-4zM1038 1061h205l-186 -1061h-205l35 201h-4q-64 -104 -175 -162.5t-255 -58.5q-175 0 -275 118.5t-100 317.5q0 189 75.5 342t206 238t289.5 85q130 0 225.5 -60t124.5 -163h5zM555 145q145 0 251.5 106 t137.5 279q10 55 10 97q0 133 -70.5 210.5t-193.5 77.5q-170 0 -284.5 -132t-114.5 -332q0 -138 70.5 -222t193.5 -84z" glyph-name="acircumflex" horiz-adv-x="1310" unicode="â"/><glyph d="M641 1395q-45 0 -80.5 -35t-50.5 -94h-100q25 136 97.5 212t176.5 76q47 0 87.5 -19t64.5 -41t56 -41t64 -19q46 0 81 34.5t48 94.5h103q-25 -136 -98 -212.5t-177 -76.5q-47 0 -87.5 19t-64 41.5t-56 41.5t-64.5 19zM1038 1061h205l-186 -1061h-205l35 201h-4 q-64 -104 -175 -162.5t-255 -58.5q-175 0 -275 118.5t-100 317.5q0 189 75.5 342t206 238t289.5 85q130 0 225.5 -60t124.5 -163h5zM555 145q145 0 251.5 106t137.5 279q10 55 10 97q0 133 -70.5 210.5t-193.5 77.5q-170 0 -284.5 -132t-114.5 -332q0 -138 70.5 -222 t193.5 -84z" glyph-name="atilde" horiz-adv-x="1310" unicode="ã"/><glyph d="M604 1303q-47 0 -73.5 25.5t-26.5 68.5q0 57 40.5 95t100.5 38q47 0 73.5 -26.5t26.5 -69.5q0 -57 -40 -94t-101 -37zM954 1303q-46 0 -73 25.5t-27 68.5q0 57 40.5 95t100.5 38q47 0 74 -26.5t27 -69.5q0 -57 -40 -94t-102 -37zM1038 1061h205l-186 -1061h-205l35 201 h-4q-64 -104 -175 -162.5t-255 -58.5q-175 0 -275 118.5t-100 317.5q0 189 75.5 342t206 238t289.5 85q130 0 225.5 -60t124.5 -163h5zM555 145q145 0 251.5 106t137.5 279q10 55 10 97q0 133 -70.5 210.5t-193.5 77.5q-170 0 -284.5 -132t-114.5 -332q0 -138 70.5 -222 t193.5 -84z" glyph-name="adieresis" horiz-adv-x="1310" unicode="ä"/><glyph d="M756 1171q-99 0 -156 53t-57 140q0 118 83.5 193t211.5 75q98 0 155.5 -52.5t57.5 -139.5q0 -118 -84 -193.5t-211 -75.5zM817 1526q-61 0 -101 -41.5t-40 -106.5q0 -46 26 -73t72 -27q63 0 103.5 41.5t40.5 105.5q0 46 -27 73.5t-74 27.5zM1038 1061h205l-186 -1061 h-205l35 201h-4q-64 -104 -175 -162.5t-255 -58.5q-175 0 -275 118.5t-100 317.5q0 189 75.5 342t206 238t289.5 85q130 0 225.5 -60t124.5 -163h5zM555 145q145 0 251.5 106t137.5 279q10 55 10 97q0 133 -70.5 210.5t-193.5 77.5q-170 0 -284.5 -132t-114.5 -332 q0 -138 70.5 -222t193.5 -84z" glyph-name="aring" horiz-adv-x="1310" unicode="å"/><glyph d="M1432 1081q191 0 301 -115t110 -311q0 -63 -12 -133l-6 -30h-830q-2 -16 -2 -52q0 -142 68 -225.5t192 -83.5q111 0 207 65t139 169h203q-66 -173 -221 -279t-344 -106q-137 0 -232 70t-137 198h-4q-75 -129 -208.5 -198.5t-309.5 -69.5q-147 0 -232 66t-85 177 q0 63 14 110.5t42 85t74 66t107.5 52t146 44.5t184.5 41.5t228 45.5h2l17 84q4 28 4 34q0 72 -56 114t-153 42q-109 0 -187 -59t-98 -156h-194q34 160 168.5 257t324.5 97q147 0 235.5 -61t100.5 -168h4q77 109 191.5 169t247.5 60zM1393 934q-133 0 -235 -89.5t-142 -236.5 h626v29q0 137 -66.5 217t-182.5 80zM395 123q151 0 259.5 85.5t129.5 203.5l23 135q-38 -8 -108 -22q-94 -19 -137.5 -29t-110.5 -28t-97 -35t-64 -42.5t-46.5 -58.5t-12.5 -76q0 -60 44 -96.5t120 -36.5z" glyph-name="ae" horiz-adv-x="1921" unicode="æ"/><glyph d="M547 145q116 0 208.5 61.5t129.5 162.5h207q-55 -162 -196.5 -267t-322.5 -120l-94 -115l4 -2q29 10 64 10q74 0 116 -38t42 -103q0 -101 -91 -163.5t-233 -62.5q-55 0 -109.5 14t-87.5 36l19 100q35 -25 83.5 -40t92.5 -15q77 0 126.5 31t49.5 81q0 31 -21 49.5 t-57 18.5q-72 0 -119 -47l-67 49l153 199q-171 23 -268.5 141.5t-97.5 302.5q0 187 83 337t228 233t324 83q191 0 307.5 -105t122.5 -278h-205q-8 97 -78 157t-178 60q-168 0 -280.5 -132.5t-112.5 -331.5q0 -139 69 -222.5t189 -83.5z" glyph-name="ccedilla" horiz-adv-x="1187" unicode="ç"/><glyph d="M846 1235h-158l-180 342h213zM713 1081q203 0 318.5 -115t115.5 -313q0 -61 -12 -131l-5 -30h-847q-2 -14 -2 -46q0 -143 70.5 -229t193.5 -86q115 0 214.5 65t145.5 169h199q-68 -173 -229 -279t-357 -106q-204 0 -322 123t-118 327q0 186 83 335t228 232.5t324 83.5z M686 934q-135 0 -239 -89.5t-146 -236.5h645v27q0 138 -69 218.5t-191 80.5z" glyph-name="egrave" horiz-adv-x="1222" unicode="è"/><glyph d="M1092 1577l-299 -342h-158l244 342h213zM713 1081q203 0 318.5 -115t115.5 -313q0 -61 -12 -131l-5 -30h-847q-2 -14 -2 -46q0 -143 70.5 -229t193.5 -86q115 0 214.5 65t145.5 169h199q-68 -173 -229 -279t-357 -106q-204 0 -322 123t-118 327q0 186 83 335t228 232.5 t324 83.5zM686 934q-135 0 -239 -89.5t-146 -236.5h645v27q0 138 -69 218.5t-191 80.5z" glyph-name="eacute" horiz-adv-x="1222" unicode="é"/><glyph d="M778 1468l-203 -219h-169l290 328h203l176 -328h-168l-125 219h-4zM713 1081q203 0 318.5 -115t115.5 -313q0 -61 -12 -131l-5 -30h-847q-2 -14 -2 -46q0 -143 70.5 -229t193.5 -86q115 0 214.5 65t145.5 169h199q-68 -173 -229 -279t-357 -106q-204 0 -322 123t-118 327 q0 186 83 335t228 232.5t324 83.5zM686 934q-135 0 -239 -89.5t-146 -236.5h645v27q0 138 -69 218.5t-191 80.5z" glyph-name="ecircumflex" horiz-adv-x="1222" unicode="ê"/><glyph d="M575 1305q-47 0 -73.5 25.5t-26.5 68.5q0 57 40.5 95t100.5 38q47 0 74 -26.5t27 -69.5q0 -57 -40 -94t-102 -37zM926 1305q-46 0 -73.5 25.5t-27.5 68.5q0 57 41 95t101 38q47 0 73.5 -26.5t26.5 -69.5q0 -57 -40 -94t-101 -37zM713 1081q203 0 318.5 -115t115.5 -313 q0 -61 -12 -131l-5 -30h-847q-2 -14 -2 -46q0 -143 70.5 -229t193.5 -86q115 0 214.5 65t145.5 169h199q-68 -173 -229 -279t-357 -106q-204 0 -322 123t-118 327q0 186 83 335t228 232.5t324 83.5zM686 934q-135 0 -239 -89.5t-146 -236.5h645v27q0 138 -69 218.5 t-191 80.5z" glyph-name="edieresis" horiz-adv-x="1222" unicode="ë"/><glyph d="M498 1235h-158l-180 342h213zM72 0l188 1061h205l-189 -1061h-204z" glyph-name="igrave" horiz-adv-x="536" unicode="ì"/><glyph d="M287 1235l243 342h213l-299 -342h-157zM72 0l188 1061h205l-189 -1061h-204z" glyph-name="iacute" horiz-adv-x="536" unicode="í"/><glyph d="M553 1577l176 -328h-168l-125 219h-4l-203 -219h-170l291 328h203zM72 0l188 1061h205l-189 -1061h-204z" glyph-name="icircumflex" horiz-adv-x="536" unicode="î"/><glyph d="M229 1305q-47 0 -73.5 25.5t-26.5 68.5q0 57 40.5 95t100.5 38q47 0 74 -26.5t27 -69.5q0 -57 -40 -94t-102 -37zM580 1305q-46 0 -73.5 25.5t-27.5 68.5q0 57 41 95t101 38q47 0 73.5 -26.5t26.5 -69.5q0 -57 -40 -94t-101 -37zM72 0l188 1061h205l-189 -1061h-204z" glyph-name="idieresis" horiz-adv-x="536" unicode="ï"/><glyph d="M883 1389q155 -108 226 -248t71 -330q0 -102 -23 -250q-49 -268 -221.5 -424.5t-413.5 -156.5q-208 0 -327 119.5t-119 320.5q0 180 78.5 324.5t215.5 225.5t306 81q214 0 323 -138q-19 128 -89 224t-203 170l-336 -154l-47 107l247 114q-93 40 -215 78l74 145 q210 -70 332 -135l295 135l47 -106zM553 145q107 0 198 60t144 162t53 221q0 134 -71 215.5t-193 81.5q-170 0 -283.5 -126t-113.5 -317q0 -135 71 -216t195 -81z" glyph-name="eth" horiz-adv-x="1259" unicode="ð"/><glyph d="M637 1397q-45 0 -80.5 -35t-50.5 -94h-100q25 136 97.5 212t176.5 76q47 0 87.5 -19t64.5 -41t56 -41t64 -19q46 0 81 34.5t48 94.5h103q-25 -136 -98 -212.5t-177 -76.5q-47 0 -87.5 19t-64 41.5t-56 41.5t-64.5 19zM840 1081q145 0 227 -84.5t82 -228.5q0 -49 -8 -98 l-119 -670h-205l115 647q6 30 6 60q0 96 -58 152t-157 56q-130 0 -226 -90.5t-122 -238.5l-103 -586h-204l186 1061h205l-33 -191h4q60 95 172.5 153t237.5 58z" glyph-name="ntilde" horiz-adv-x="1261" unicode="ñ"/><glyph d="M850 1235h-158l-180 342h213zM522 -20q-205 0 -324.5 123t-119.5 327q0 140 49 261.5t133.5 206.5t203 134t253.5 49q207 0 325.5 -122.5t118.5 -327.5q0 -140 -49 -261.5t-133.5 -206.5t-203 -134t-253.5 -49zM553 145q170 0 284.5 132.5t114.5 332.5q0 138 -71 221.5 t-193 83.5q-170 0 -284.5 -132t-114.5 -332q0 -138 70.5 -222t193.5 -84z" glyph-name="ograve" horiz-adv-x="1241" unicode="ò"/><glyph d="M639 1235l244 342h213l-299 -342h-158zM522 -20q-205 0 -324.5 123t-119.5 327q0 140 49 261.5t133.5 206.5t203 134t253.5 49q207 0 325.5 -122.5t118.5 -327.5q0 -140 -49 -261.5t-133.5 -206.5t-203 -134t-253.5 -49zM553 145q170 0 284.5 132.5t114.5 332.5 q0 138 -71 221.5t-193 83.5q-170 0 -284.5 -132t-114.5 -332q0 -138 70.5 -222t193.5 -84z" glyph-name="oacute" horiz-adv-x="1241" unicode="ó"/><glyph d="M784 1468l-202 -219h-170l290 328h203l176 -328h-168l-125 219h-4zM717 1081q207 0 325.5 -122.5t118.5 -327.5q0 -140 -49 -261.5t-133.5 -206.5t-203 -134t-253.5 -49q-205 0 -324.5 123t-119.5 327q0 140 49 261.5t133.5 206.5t203 134t253.5 49zM553 145 q170 0 284.5 132.5t114.5 332.5q0 138 -71 221.5t-193 83.5q-170 0 -284.5 -132t-114.5 -332q0 -138 70.5 -222t193.5 -84z" glyph-name="ocircumflex" horiz-adv-x="1241" unicode="ô"/><glyph d="M387 1268q25 136 97.5 212t177.5 76q47 0 87.5 -19t64.5 -41t56 -41t64 -19q46 0 81 34.5t48 94.5h102q-25 -136 -97.5 -212.5t-176.5 -76.5q-47 0 -87.5 19t-64.5 41.5t-56.5 41.5t-64.5 19q-45 0 -80.5 -35t-50.5 -94h-100zM522 -20q-205 0 -324.5 123t-119.5 327 q0 140 49 261.5t133.5 206.5t203 134t253.5 49q207 0 325.5 -122.5t118.5 -327.5q0 -140 -49 -261.5t-133.5 -206.5t-203 -134t-253.5 -49zM553 145q170 0 284.5 132.5t114.5 332.5q0 138 -71 221.5t-193 83.5q-170 0 -284.5 -132t-114.5 -332q0 -138 70.5 -222t193.5 -84z" glyph-name="otilde" horiz-adv-x="1241" unicode="õ"/><glyph d="M582 1305q-47 0 -74 25.5t-27 68.5q0 57 41 95t101 38q47 0 73.5 -26.5t26.5 -69.5q0 -57 -40 -94t-101 -37zM932 1305q-46 0 -73.5 25.5t-27.5 68.5q0 57 41 95t101 38q47 0 73.5 -26.5t26.5 -69.5q0 -57 -40 -94t-101 -37zM522 -20q-205 0 -324.5 123t-119.5 327 q0 140 49 261.5t133.5 206.5t203 134t253.5 49q207 0 325.5 -122.5t118.5 -327.5q0 -140 -49 -261.5t-133.5 -206.5t-203 -134t-253.5 -49zM553 145q170 0 284.5 132.5t114.5 332.5q0 138 -71 221.5t-193 83.5q-170 0 -284.5 -132t-114.5 -332q0 -138 70.5 -222t193.5 -84z" glyph-name="odieresis" horiz-adv-x="1241" unicode="ö"/><glyph d="M553 705q-49 0 -76.5 26.5t-27.5 69.5q0 60 41 98.5t104 38.5q47 0 75.5 -27t28.5 -71q0 -59 -41.5 -97t-103.5 -38zM102 438l27 156h805l-27 -156h-805zM444 94q-49 0 -76.5 26.5t-27.5 69.5q0 60 41.5 99t103.5 39q49 0 77 -27t28 -72q0 -60 -41.5 -97.5t-104.5 -37.5z" glyph-name="divide" horiz-adv-x="1042" unicode="÷"/><glyph d="M1040 961q121 -124 121 -330q0 -140 -49 -261.5t-133.5 -206.5t-203 -134t-253.5 -49q-148 0 -254 65l-106 -127l-76 53l111 131q-119 125 -119 328q0 140 49 261.5t133.5 206.5t203 134t253.5 49q148 0 254 -65l106 127l74 -51zM289 451q0 -111 45 -187l510 602 q-61 49 -156 49q-170 0 -284.5 -132t-114.5 -332zM553 145q170 0 284.5 132.5t114.5 332.5q0 115 -47 189l-510 -604q66 -50 158 -50z" glyph-name="oslash" horiz-adv-x="1241" unicode="ø"/><glyph d="M844 1235h-158l-180 342h213zM514 -20q-185 0 -291 94.5t-106 253.5q0 41 6 88l115 645h204l-108 -625q-8 -33 -8 -69q0 -102 58.5 -162t160.5 -60q117 0 203.5 79.5t109.5 211.5l111 625h205l-115 -645q-37 -212 -183 -324t-362 -112z" glyph-name="ugrave" horiz-adv-x="1222" unicode="ù"/><glyph d="M633 1235l244 342h213l-299 -342h-158zM514 -20q-185 0 -291 94.5t-106 253.5q0 41 6 88l115 645h204l-108 -625q-8 -33 -8 -69q0 -102 58.5 -162t160.5 -60q117 0 203.5 79.5t109.5 211.5l111 625h205l-115 -645q-37 -212 -183 -324t-362 -112z" glyph-name="uacute" horiz-adv-x="1222" unicode="ú"/><glyph d="M778 1468l-203 -219h-169l290 328h203l176 -328h-168l-125 219h-4zM969 1061h205l-115 -645q-37 -212 -183 -324t-362 -112q-185 0 -291 94.5t-106 253.5q0 41 6 88l115 645h204l-108 -625q-8 -33 -8 -69q0 -102 58.5 -162t160.5 -60q117 0 203.5 79.5t109.5 211.5z" glyph-name="ucircumflex" horiz-adv-x="1222" unicode="û"/><glyph d="M575 1305q-47 0 -73.5 25.5t-26.5 68.5q0 57 40.5 95t100.5 38q47 0 74 -26.5t27 -69.5q0 -57 -40 -94t-102 -37zM926 1305q-46 0 -73.5 25.5t-27.5 68.5q0 57 41 95t101 38q47 0 73.5 -26.5t26.5 -69.5q0 -57 -40 -94t-101 -37zM514 -20q-185 0 -291 94.5t-106 253.5 q0 41 6 88l115 645h204l-108 -625q-8 -33 -8 -69q0 -102 58.5 -162t160.5 -60q117 0 203.5 79.5t109.5 211.5l111 625h205l-115 -645q-37 -212 -183 -324t-362 -112z" glyph-name="udieresis" horiz-adv-x="1222" unicode="ü"/><glyph d="M1049 1577l-299 -342h-158l244 342h213zM991 1061h213l-880 -1532h-201l239 430l-247 1102h209l178 -871h4z" glyph-name="yacute" horiz-adv-x="1134" unicode="ý"/><glyph d="M858 1081q175 0 275 -118.5t100 -317.5q0 -189 -75 -341.5t-205.5 -238t-290.5 -85.5q-126 0 -222.5 60t-126.5 161h-4l-119 -672h-204l360 2048h205l-127 -719h4q59 103 176.5 163t253.5 60zM621 145q170 0 284.5 132.5t114.5 332.5q0 138 -70 221.5t-192 83.5 q-145 0 -253.5 -106t-137.5 -279q-9 -52 -9 -96q0 -133 70 -211t193 -78z" glyph-name="thorn" horiz-adv-x="1310" unicode="þ"/><glyph d="M532 1305q-47 0 -73.5 25.5t-26.5 68.5q0 57 40.5 95t100.5 38q47 0 74 -26.5t27 -69.5q0 -57 -40 -94t-102 -37zM883 1305q-46 0 -73.5 25.5t-27.5 68.5q0 57 41 95t101 38q47 0 73.5 -26.5t26.5 -69.5q0 -57 -40 -94t-101 -37zM991 1061h213l-880 -1532h-201l239 430 l-247 1102h209l178 -871h4z" glyph-name="ydieresis" horiz-adv-x="1134" unicode="ÿ"/><glyph d="M1255 1872l-26 -154h-606l26 154h606zM1102 0l-70 389h-696l-207 -389h-219l868 1577h244l311 -1577h-231zM430 563h571l-141 799h-4z" glyph-name="Amacron" horiz-adv-x="1431" unicode="Ā"/><glyph d="M1116 1487l-26 -154h-607l27 154h606zM1038 1061h205l-186 -1061h-205l35 201h-4q-64 -104 -175 -162.5t-255 -58.5q-175 0 -275 118.5t-100 317.5q0 189 75.5 342t206 238t289.5 85q130 0 225.5 -60t124.5 -163h5zM555 145q145 0 251.5 106t137.5 279q10 55 10 97 q0 133 -70.5 210.5t-193.5 77.5q-170 0 -284.5 -132t-114.5 -332q0 -138 70.5 -222t193.5 -84z" glyph-name="amacron" horiz-adv-x="1310" unicode="ā"/><glyph d="M922 1696q-121 0 -189.5 70.5t-68.5 191.5q0 36 6 74h145q-4 -36 -4 -52q0 -71 35 -112t98 -41q72 0 127 56.5t74 148.5h145q-28 -154 -125 -245t-243 -91zM1102 0l-70 389h-696l-207 -389h-219l868 1577h244l311 -1577h-231zM430 563h571l-141 799h-4z" glyph-name="Abreve" horiz-adv-x="1431" unicode="Ă"/><glyph d="M770 1239q-138 0 -207.5 92t-44.5 244h146q-15 -93 20.5 -150t108.5 -57q72 0 126.5 57t73.5 150h146q-28 -152 -129.5 -244t-239.5 -92zM1038 1061h205l-186 -1061h-205l35 201h-4q-64 -104 -175 -162.5t-255 -58.5q-175 0 -275 118.5t-100 317.5q0 189 75.5 342 t206 238t289.5 85q130 0 225.5 -60t124.5 -163h5zM555 145q145 0 251.5 106t137.5 279q10 55 10 97q0 133 -70.5 210.5t-193.5 77.5q-170 0 -284.5 -132t-114.5 -332q0 -138 70.5 -222t193.5 -84z" glyph-name="abreve" horiz-adv-x="1310" unicode="ă"/><glyph d="M1092 -297q0 -33 19 -51.5t52 -18.5q54 0 111 31l-23 -121q-65 -35 -159 -35q-83 0 -132 40t-49 106q0 65 75 157.5t200 188.5h-84l-70 389h-696l-207 -389h-219l868 1577h244l311 -1577q-108 -87 -174.5 -167.5t-66.5 -129.5zM430 563h571l-141 799h-4z" glyph-name="Aogonek" horiz-adv-x="1429" unicode="Ą"/><glyph d="M1057 0q-108 -87 -175 -168t-67 -129q0 -32 19 -51t53 -19q53 0 110 31l-22 -121q-65 -35 -160 -35q-83 0 -131.5 40t-48.5 106q0 65 74.5 158t199.5 188h-57l35 201h-4q-64 -104 -175 -162.5t-255 -58.5q-175 0 -275 118.5t-100 317.5q0 189 75.5 342t206 238t289.5 85 q130 0 225.5 -60t124.5 -163h5l34 203h205zM555 145q145 0 251.5 106t137.5 279q10 55 10 97q0 133 -70.5 210.5t-193.5 77.5q-170 0 -284.5 -132t-114.5 -332q0 -138 70.5 -222t193.5 -84z" glyph-name="aogonek" horiz-adv-x="1310" unicode="ą"/><glyph d="M946 1704l244 342h213l-299 -342h-158zM748 -20q-275 0 -446 180t-171 475q0 277 113 496t319 342.5t471 123.5q170 0 305.5 -66t214 -189t80.5 -283v-35h-213v16q-1 171 -116.5 275t-303.5 104q-181 0 -329 -98t-233 -273t-85 -391q0 -228 113.5 -363.5t312.5 -135.5 q190 0 343.5 110.5t215.5 292.5h211q-83 -266 -297 -423.5t-505 -157.5z" glyph-name="Cacute" horiz-adv-x="1619" unicode="Ć"/><glyph d="M635 1235l244 342h213l-299 -342h-158zM518 -20q-204 0 -322 122.5t-118 325.5q0 187 83 337t228 233t324 83q191 0 307.5 -105t122.5 -278h-205q-8 97 -78 157t-178 60q-168 0 -280.5 -132.5t-112.5 -331.5q0 -139 69 -222.5t189 -83.5q116 0 208.5 61.5t129.5 162.5 h207q-60 -175 -218 -282t-356 -107z" glyph-name="cacute" horiz-adv-x="1187" unicode="ć"/><glyph d="M1053 1708q-50 0 -78.5 26.5t-28.5 71.5q0 60 42.5 99t105.5 39q49 0 77.5 -27t28.5 -72q0 -60 -42 -98.5t-105 -38.5zM748 -20q-275 0 -446 180t-171 475q0 277 113 496t319 342.5t471 123.5q170 0 305.5 -66t214 -189t80.5 -283v-35h-213v16q-1 171 -116.5 275 t-303.5 104q-181 0 -329 -98t-233 -273t-85 -391q0 -228 113.5 -363.5t312.5 -135.5q190 0 343.5 110.5t215.5 292.5h211q-83 -266 -297 -423.5t-505 -157.5z" glyph-name="Cdotaccent" horiz-adv-x="1619" unicode="Ċ"/><glyph d="M750 1305q-50 0 -78.5 26.5t-28.5 71.5q0 60 42.5 98.5t105.5 38.5q49 0 77.5 -27.5t28.5 -70.5q0 -60 -42 -98.5t-105 -38.5zM518 -20q-204 0 -322 122.5t-118 325.5q0 187 83 337t228 233t324 83q191 0 307.5 -105t122.5 -278h-205q-8 97 -78 157t-178 60 q-168 0 -280.5 -132.5t-112.5 -331.5q0 -139 69 -222.5t189 -83.5q116 0 208.5 61.5t129.5 162.5h207q-60 -175 -218 -282t-356 -107z" glyph-name="cdotaccent" horiz-adv-x="1187" unicode="ċ"/><glyph d="M952 1704l-176 328h170l125 -220h4l203 220h168l-289 -328h-205zM1634 1024h-213v16q-1 171 -116.5 275t-303.5 104q-181 0 -329 -98t-233 -273t-85 -391q0 -228 113.5 -363.5t312.5 -135.5q190 0 343.5 110.5t215.5 292.5h211q-83 -266 -297 -423.5t-505 -157.5 q-275 0 -446 180t-171 475q0 277 113 496t319 342.5t471 123.5q170 0 305.5 -66t214 -189t80.5 -283v-35z" glyph-name="Ccaron" horiz-adv-x="1619" unicode="Č"/><glyph d="M641 1249l-176 328h170l125 -219h4l203 219h168l-289 -328h-205zM547 145q116 0 208.5 61.5t129.5 162.5h207q-60 -175 -218 -282t-356 -107q-204 0 -322 122.5t-118 325.5q0 187 83 337t228 233t324 83q191 0 307.5 -105t122.5 -278h-205q-8 97 -78 157t-178 60 q-168 0 -280.5 -132.5t-112.5 -331.5q0 -139 69 -222.5t189 -83.5z" glyph-name="ccaron" horiz-adv-x="1187" unicode="č"/><glyph d="M770 1704l-176 328h170l125 -220h4l203 220h168l-289 -328h-205zM842 1577q284 0 461.5 -177.5t177.5 -467.5q0 -201 -67.5 -374t-187.5 -296t-291 -192.5t-372 -69.5h-471l279 1577h471zM608 172q181 0 329.5 95t234 265.5t85.5 380.5q0 224 -115.5 358t-316.5 134h-272 l-217 -1233h272z" glyph-name="Dcaron" horiz-adv-x="1519" unicode="Ď"/><glyph d="M1540 1595l168 -41l-207 -454l-151 41zM1004 858l126 719h205l-278 -1577h-205l35 201h-4q-64 -104 -175 -162.5t-255 -58.5q-175 0 -275 118.5t-100 317.5q0 189 75.5 342t206 238t289.5 85q130 0 225.5 -60t124.5 -163h5zM555 145q145 0 251.5 106t137.5 279 q10 55 10 97q0 133 -70.5 210.5t-193.5 77.5q-170 0 -284.5 -132t-114.5 -332q0 -138 70.5 -222t193.5 -84z" glyph-name="dcaron" horiz-adv-x="1411" unicode="ď"/><glyph d="M858 1577q284 0 461.5 -177.5t177.5 -467.5q0 -201 -67.5 -374t-187 -296t-290.5 -192.5t-372 -69.5h-471l127 723h-134l25 149h135l125 705h471zM625 172q181 0 329.5 95t234 265.5t85.5 380.5q0 224 -115.5 358t-316.5 134h-273l-94 -533h367l-25 -149h-368l-97 -551 h273z" glyph-name="Dcroat" horiz-adv-x="1536" unicode="Đ"/><glyph d="M1430 1386l-25 -149h-129l-219 -1237h-205l35 201h-4q-64 -104 -175 -162.5t-255 -58.5q-175 0 -275 118.5t-100 317.5q0 189 75.5 342t206 238t289.5 85q130 0 225.5 -60t124.5 -163h5l67 379h-381l25 149h383l32 191h205l-32 -191h127zM555 145q145 0 251.5 106 t137.5 279q10 55 10 97q0 133 -70.5 210.5t-193.5 77.5q-170 0 -284.5 -132t-114.5 -332q0 -138 70.5 -222t193.5 -84z" glyph-name="dcroat" horiz-adv-x="1310" unicode="đ"/><glyph d="M1247 1872l-26 -154h-607l27 154h606zM1384 1405h-829l-90 -506h756l-31 -174h-756l-98 -553h854l-29 -172h-1069l279 1577h1044z" glyph-name="Emacron" horiz-adv-x="1343" unicode="Ē"/><glyph d="M1087 1489l-26 -154h-606l26 154h606zM713 1081q203 0 318.5 -115t115.5 -313q0 -61 -12 -131l-5 -30h-847q-2 -14 -2 -46q0 -143 70.5 -229t193.5 -86q115 0 214.5 65t145.5 169h199q-68 -173 -229 -279t-357 -106q-204 0 -322 123t-118 327q0 186 83 335t228 232.5 t324 83.5zM686 934q-135 0 -239 -89.5t-146 -236.5h645v27q0 138 -69 218.5t-191 80.5z" glyph-name="emacron" horiz-adv-x="1222" unicode="ē"/><glyph d="M913 1708q-50 0 -78 26.5t-28 71.5q0 60 42 99t105 39q49 0 78 -27t29 -72q0 -60 -42.5 -98.5t-105.5 -38.5zM1384 1405h-829l-90 -506h756l-31 -174h-756l-98 -553h854l-29 -172h-1069l279 1577h1044z" glyph-name="Edotaccent" horiz-adv-x="1343" unicode="Ė"/><glyph d="M750 1305q-50 0 -78.5 26.5t-28.5 71.5q0 60 42.5 98.5t105.5 38.5q49 0 77.5 -27.5t28.5 -70.5q0 -60 -42 -98.5t-105 -38.5zM713 1081q203 0 318.5 -115t115.5 -313q0 -61 -12 -131l-5 -30h-847q-2 -14 -2 -46q0 -143 70.5 -229t193.5 -86q115 0 214.5 65t145.5 169 h199q-68 -173 -229 -279t-357 -106q-204 0 -322 123t-118 327q0 186 83 335t228 232.5t324 83.5zM686 934q-135 0 -239 -89.5t-146 -236.5h645v27q0 138 -69 218.5t-191 80.5z" glyph-name="edotaccent" horiz-adv-x="1222" unicode="ė"/><glyph d="M1384 1405h-829l-90 -506h756l-31 -174h-756l-98 -553h854l-29 -172h-131q-108 -87 -175 -168t-67 -129q0 -32 19 -51t53 -19q54 0 111 31l-23 -121q-65 -35 -160 -35q-83 0 -131.5 40t-48.5 106q0 65 75 157.5t200 188.5h-791l279 1577h1044z" glyph-name="Eogonek" horiz-adv-x="1343" unicode="Ę"/><glyph d="M713 1081q203 0 318.5 -115t115.5 -313q0 -61 -12 -131l-5 -30h-847q-2 -14 -2 -46q0 -143 70.5 -229t193.5 -86q115 0 214.5 65t145.5 169h199q-54 -136 -166.5 -233t-257.5 -132q-108 -87 -175 -168t-67 -129q0 -32 19 -51t53 -19q54 0 111 31l-23 -121 q-65 -35 -160 -35q-83 0 -131.5 40t-48.5 106q0 62 66.5 148.5t181.5 177.5q-198 4 -313 126.5t-115 323.5q0 186 83 335t228 232.5t324 83.5zM686 934q-135 0 -239 -89.5t-146 -236.5h645v27q0 138 -69 218.5t-191 80.5z" glyph-name="eogonek" horiz-adv-x="1222" unicode="ę"/><glyph d="M813 1704l-176 328h170l125 -220h4l203 220h168l-289 -328h-205zM1384 1405h-829l-90 -506h756l-31 -174h-756l-98 -553h854l-29 -172h-1069l279 1577h1044z" glyph-name="Ecaron" horiz-adv-x="1343" unicode="Ě"/><glyph d="M641 1249l-176 328h170l125 -219h4l203 219h168l-289 -328h-205zM713 1081q203 0 318.5 -115t115.5 -313q0 -61 -12 -131l-5 -30h-847q-2 -14 -2 -46q0 -143 70.5 -229t193.5 -86q115 0 214.5 65t145.5 169h199q-68 -173 -229 -279t-357 -106q-204 0 -322 123t-118 327 q0 186 83 335t228 232.5t324 83.5zM686 934q-135 0 -239 -89.5t-146 -236.5h645v27q0 138 -69 218.5t-191 80.5z" glyph-name="ecaron" horiz-adv-x="1222" unicode="ě"/><glyph d="M1057 1696q-121 0 -189.5 70.5t-68.5 191.5q0 36 6 74h145q-4 -36 -4 -52q0 -71 35 -112t98 -41q72 0 127 56.5t74 148.5h145q-28 -154 -125 -245t-243 -91zM1628 1038h-211v13q-3 166 -116.5 267t-299.5 101q-181 0 -329 -98t-233 -273t-85 -391q0 -228 113.5 -363.5 t312.5 -135.5q204 0 361 138.5t217 369.5h-518l26 153h736l-11 -59q-29 -174 -102.5 -318.5t-181.5 -246.5t-251.5 -158.5t-307.5 -56.5q-275 0 -446 180t-171 475q0 277 113 496t319 342.5t471 123.5q168 0 303 -65.5t213 -186.5t80 -278q0 -5 -1 -14.5t-1 -14.5z" glyph-name="Gbreve" horiz-adv-x="1646" unicode="Ğ"/><glyph d="M770 1239q-138 0 -207.5 92t-44.5 244h146q-15 -93 20.5 -150t108.5 -57q72 0 126.5 57t73.5 150h146q-28 -152 -129.5 -244t-239.5 -92zM1038 1061h205l-188 -1069q-27 -155 -112 -265.5t-211 -164.5t-283 -54q-195 0 -310.5 98.5t-115.5 262.5q0 19 4 55h194 q-2 -10 -2 -28q2 -101 71 -161.5t187 -60.5q142 0 243.5 84.5t127.5 221.5l39 221h-4q-64 -104 -174.5 -162.5t-253.5 -58.5q-176 0 -276.5 118.5t-100.5 317.5q0 189 75.5 342t206 238t289.5 85q130 0 225.5 -60t124.5 -163h5zM555 145q145 0 251.5 106t137.5 279 q10 55 10 97q0 133 -70.5 210.5t-193.5 77.5q-169 0 -284 -132.5t-115 -331.5q0 -138 70.5 -222t193.5 -84z" glyph-name="gbreve" horiz-adv-x="1310" unicode="ğ"/><glyph d="M1057 1708q-50 0 -78.5 26.5t-28.5 71.5q0 60 42.5 99t105.5 39q49 0 77.5 -27t28.5 -72q0 -60 -42 -98.5t-105 -38.5zM1628 1038h-211v13q-3 166 -116.5 267t-299.5 101q-181 0 -329 -98t-233 -273t-85 -391q0 -228 113.5 -363.5t312.5 -135.5q204 0 361 138.5 t217 369.5h-518l26 153h736l-11 -59q-29 -174 -102.5 -318.5t-181.5 -246.5t-251.5 -158.5t-307.5 -56.5q-275 0 -446 180t-171 475q0 277 113 496t319 342.5t471 123.5q168 0 303 -65.5t213 -186.5t80 -278q0 -5 -1 -14.5t-1 -14.5z" glyph-name="Gdotaccent" horiz-adv-x="1646" unicode="Ġ"/><glyph d="M778 1305q-50 0 -78 26.5t-28 71.5q0 60 42 98.5t105 38.5q49 0 78 -27.5t29 -70.5q0 -60 -42.5 -98.5t-105.5 -38.5zM1038 1061h205l-188 -1069q-27 -155 -112 -265.5t-211 -164.5t-283 -54q-195 0 -310.5 98.5t-115.5 262.5q0 19 4 55h194q-2 -10 -2 -28 q2 -101 71 -161.5t187 -60.5q142 0 243.5 84.5t127.5 221.5l39 221h-4q-64 -104 -174.5 -162.5t-253.5 -58.5q-176 0 -276.5 118.5t-100.5 317.5q0 189 75.5 342t206 238t289.5 85q130 0 225.5 -60t124.5 -163h5zM555 145q145 0 251.5 106t137.5 279q10 55 10 97 q0 133 -70.5 210.5t-193.5 77.5q-169 0 -284 -132.5t-115 -331.5q0 -138 70.5 -222t193.5 -84z" glyph-name="gdotaccent" horiz-adv-x="1310" unicode="ġ"/><glyph d="M1628 1038h-211v13q-3 166 -116.5 267t-299.5 101q-181 0 -329 -98t-233 -273t-85 -391q0 -228 113.5 -363.5t312.5 -135.5q204 0 361 138.5t217 369.5h-518l26 153h736l-11 -59q-29 -174 -102.5 -318.5t-181.5 -246.5t-251.5 -158.5t-307.5 -56.5q-275 0 -446 180 t-171 475q0 277 113 496t319 342.5t471 123.5q168 0 303 -65.5t213 -186.5t80 -278q0 -5 -1 -14.5t-1 -14.5zM733 -133q52 0 77 -37.5t13 -99.5q-17 -99 -83 -173t-156 -96l-4 47q52 19 93.5 62t63.5 100q-33 -10 -57 -10q-38 0 -59 21t-21 57q0 56 37.5 92.5t95.5 36.5z" glyph-name="Gcommaaccent" horiz-adv-x="1646" unicode="Ģ"/><glyph d="M770 1253q-51 0 -76 38t-14 100q13 83 76.5 150t152.5 93l13 -49q-112 -29 -156 -147q33 10 55 10q38 0 60 -21t22 -55q0 -52 -38 -85.5t-95 -33.5zM1038 1061h205l-188 -1069q-27 -155 -112 -265.5t-211 -164.5t-283 -54q-195 0 -310.5 98.5t-115.5 262.5q0 19 4 55h194 q-2 -10 -2 -28q2 -101 71 -161.5t187 -60.5q142 0 243.5 84.5t127.5 221.5l39 221h-4q-64 -104 -174.5 -162.5t-253.5 -58.5q-176 0 -276.5 118.5t-100.5 317.5q0 189 75.5 342t206 238t289.5 85q130 0 225.5 -60t124.5 -163h5zM555 145q145 0 251.5 106t137.5 279 q10 55 10 97q0 133 -70.5 210.5t-193.5 77.5q-169 0 -284 -132.5t-115 -331.5q0 -138 70.5 -222t193.5 -84z" glyph-name="gcommaaccent" horiz-adv-x="1310" unicode="ģ"/><glyph d="M1681 1335l-28 -151h-144l-209 -1184h-215l127 715h-763l-127 -715h-216l209 1184h-145l27 151h145l43 242h215l-43 -242h764l43 242h215l-43 -242h145zM1241 887l53 297h-764l-53 -297h764z" glyph-name="Hbar" horiz-adv-x="1593" unicode="Ħ"/><glyph d="M840 1081q145 0 227 -84.5t82 -228.5q0 -49 -8 -98l-119 -670h-205l115 647q6 30 6 60q0 96 -58 152t-157 56q-130 0 -226 -90.5t-122 -238.5l-103 -586h-204l219 1237h-137l24 149h139l33 191h205l-33 -191h371l-25 -149h-372l-66 -367h4q60 95 172.5 153t237.5 58z" glyph-name="hbar" horiz-adv-x="1261" unicode="ħ"/><glyph d="M201 1718l26 154h607l-27 -154h-606zM92 0l279 1577h215l-279 -1577h-215z" glyph-name="Imacron" horiz-adv-x="587" unicode="Ī"/><glyph d="M168 1475h534l-24 -154h-537zM72 0l188 1061h205l-189 -1061h-204z" glyph-name="imacron" horiz-adv-x="536" unicode="ī"/><glyph d="M307 0q-108 -87 -174.5 -167.5t-66.5 -129.5q0 -33 19 -51.5t52 -18.5q54 0 111 31l-23 -121q-65 -35 -159 -35q-83 0 -132 40t-49 106q0 65 75 157.5t200 188.5h-68l279 1577h215z" glyph-name="Iogonek" horiz-adv-x="587" unicode="Į"/><glyph d="M444 1540q49 0 78 -27.5t29 -70.5q0 -60 -42.5 -98.5t-105.5 -38.5q-50 0 -78 26.5t-28 71.5q0 60 42 98.5t105 38.5zM72 0l188 1061h205l-189 -1061q-108 -87 -174.5 -167.5t-66.5 -129.5q0 -33 18.5 -51.5t52.5 -18.5q54 0 111 31l-22 -121q-65 -35 -160 -35 q-83 0 -131.5 40t-48.5 106q0 65 74.5 158t199.5 188h-57z" glyph-name="iogonek" horiz-adv-x="536" unicode="į"/><glyph d="M500 1708q-50 0 -78.5 26.5t-28.5 71.5q0 60 42.5 99t105.5 39q49 0 77.5 -27t28.5 -72q0 -60 -42 -98.5t-105 -38.5zM92 0l279 1577h215l-279 -1577h-215z" glyph-name="Idotaccent" horiz-adv-x="587" unicode="İ"/><glyph d="M72 0l188 1061h205l-189 -1061h-204z" glyph-name="dotlessi" horiz-adv-x="536" unicode="ı"/><glyph d="M371 1577h215l-279 -1577h-215zM1567 1577l-803 -754l604 -823h-250l-622 817l817 760h254zM643 -133q52 0 77 -37.5t13 -99.5q-17 -99 -83 -173t-156 -96l-5 47q52 19 94 62t64 100q-33 -10 -57 -10q-38 0 -59 21t-21 57q0 56 37.5 92.5t95.5 36.5z" glyph-name="Kcommaaccent" horiz-adv-x="1431" unicode="Ķ"/><glyph d="M346 1577h205l-279 -1577h-204zM1245 1061l-586 -481l486 -580h-240l-495 580l591 481h244zM485 -133q52 0 77 -37.5t13 -99.5q-17 -99 -83 -173t-156 -96l-4 47q52 19 93.5 62t63.5 100q-33 -10 -57 -10q-38 0 -59 21t-21 57q0 56 37.5 92.5t95.5 36.5z" glyph-name="kcommaaccent" horiz-adv-x="1212" unicode="ķ"/><glyph d="M850 2046l-299 -342h-158l244 342h213zM338 178h725l-31 -178h-940l279 1577h215z" glyph-name="Lacute" horiz-adv-x="1153" unicode="Ĺ"/><glyph d="M369 1704l243 342h213l-299 -342h-157zM72 0l278 1577h205l-279 -1577h-204z" glyph-name="lacute" horiz-adv-x="536" unicode="ĺ"/><glyph d="M338 178h725l-31 -178h-940l279 1577h215zM469 -133q52 0 77 -37.5t13 -99.5q-17 -99 -83.5 -173t-156.5 -96l-4 47q52 19 94 62t64 100q-33 -10 -57 -10q-38 0 -59 21t-21 57q0 56 37.5 92.5t95.5 36.5z" glyph-name="Lcommaaccent" horiz-adv-x="1153" unicode="Ļ"/><glyph d="M350 1577h205l-279 -1577h-204zM154 -133q52 0 77 -37.5t13 -99.5q-17 -99 -83.5 -173t-156.5 -96l-4 47q52 19 94 62t64 100q-33 -10 -58 -10q-38 0 -59 21t-21 57q0 56 38 92.5t96 36.5z" glyph-name="lcommaaccent" horiz-adv-x="536" unicode="ļ"/><glyph d="M1106 1554l-207 -454l-151 41l192 454zM586 1577l-248 -1399h725l-31 -178h-940l279 1577h215z" glyph-name="Lcaron" horiz-adv-x="1165" unicode="Ľ"/><glyph d="M711 1100l-152 41l193 454l166 -41zM72 0l278 1577h205l-279 -1577h-204z" glyph-name="lcaron" horiz-adv-x="616" unicode="ľ"/><glyph d="M371 178h725l-31 -178h-940l104 596l-180 -82l33 180l180 84l141 799h215l-124 -707l364 170l-31 -178l-366 -170z" glyph-name="Lslash" horiz-adv-x="1183" unicode="Ł"/><glyph d="M631 1040l-29 -176l-147 -94l-136 -770h-204l112 635l-143 -92l31 176l143 92l135 766h205l-111 -631z" glyph-name="lslash" horiz-adv-x="626" unicode="ł"/><glyph d="M1341 2046l-299 -342h-157l243 342h213zM1360 1577h205l-279 -1577h-205l-565 1237h-4l-213 -1237h-207l279 1577h207l565 -1239h4z" glyph-name="Nacute" horiz-adv-x="1566" unicode="Ń"/><glyph d="M1114 1577l-299 -342h-158l244 342h213zM840 1081q145 0 227 -84.5t82 -228.5q0 -49 -8 -98l-119 -670h-205l115 647q6 30 6 60q0 96 -58 152t-157 56q-130 0 -226 -90.5t-122 -238.5l-103 -586h-204l186 1061h205l-33 -191h4q60 95 172.5 153t237.5 58z" glyph-name="nacute" horiz-adv-x="1261" unicode="ń"/><glyph d="M1360 1577h205l-279 -1577h-205l-565 1237h-4l-213 -1237h-207l279 1577h207l565 -1239h4zM668 -133q52 0 77 -37.5t13 -99.5q-17 -99 -83.5 -173t-156.5 -96l-4 47q52 19 94 62t64 100q-33 -10 -58 -10q-38 0 -58.5 21t-20.5 57q0 56 37.5 92.5t95.5 36.5z" glyph-name="Ncommaaccent" horiz-adv-x="1566" unicode="Ņ"/><glyph d="M840 1081q145 0 227 -84.5t82 -228.5q0 -49 -8 -98l-119 -670h-205l115 647q6 30 6 60q0 96 -58 152t-157 56q-130 0 -226 -90.5t-122 -238.5l-103 -586h-204l186 1061h205l-33 -191h4q60 95 172.5 153t237.5 58zM522 -133q52 0 77 -37.5t13 -99.5q-17 -99 -83 -173 t-156 -96l-4 47q52 19 93.5 62t63.5 100q-33 -10 -57 -10q-38 0 -59 21t-21 57q0 56 37.5 92.5t95.5 36.5z" glyph-name="ncommaaccent" horiz-adv-x="1261" unicode="ņ"/><glyph d="M889 1704l-176 328h170l125 -220h4l202 220h168l-288 -328h-205zM1360 1577h205l-279 -1577h-205l-565 1237h-4l-213 -1237h-207l279 1577h207l565 -1239h4z" glyph-name="Ncaron" horiz-adv-x="1566" unicode="Ň"/><glyph d="M664 1249l-177 328h170l125 -219h4l203 219h168l-289 -328h-204zM840 1081q145 0 227 -84.5t82 -228.5q0 -49 -8 -98l-119 -670h-205l115 647q6 30 6 60q0 96 -58 152t-157 56q-130 0 -226 -90.5t-122 -238.5l-103 -586h-204l186 1061h205l-33 -191h4q60 95 172.5 153 t237.5 58z" glyph-name="ncaron" horiz-adv-x="1261" unicode="ň"/><glyph d="M1360 1577h205l-279 -1577l-6 -25q-38 -211 -184.5 -339t-350.5 -128q-117 0 -210 41l73 168q58 -30 150 -30q117 0 201.5 78.5t107.5 207.5l6 39l-557 1225h-4l-213 -1237h-207l279 1577h207l565 -1239h4z" glyph-name="Eng" horiz-adv-x="1566" unicode="Ŋ"/><glyph d="M840 1081q145 0 227 -84.5t82 -228.5q0 -49 -8 -98l-135 -768q-33 -191 -152.5 -292.5t-292.5 -101.5q-66 0 -128.5 14.5t-100.5 39.5l69 149q69 -37 156 -37q92 0 158.5 62t83.5 164l133 747q6 30 6 60q0 96 -58 152t-157 56q-130 0 -226 -90.5t-122 -238.5l-103 -586 h-204l186 1061h205l-33 -191h4q60 95 172.5 153t237.5 58z" glyph-name="eng" horiz-adv-x="1261" unicode="ŋ"/><glyph d="M756 1718l26 154h607l-27 -154h-606zM752 -20q-278 0 -450.5 180.5t-172.5 476.5q0 276 114.5 494.5t321.5 342t471 123.5q278 0 450.5 -180.5t172.5 -476.5q0 -276 -114 -494.5t-321 -342t-472 -123.5zM784 158q182 0 331.5 98t235 273t85.5 391q0 228 -114.5 363.5 t-315.5 135.5q-183 0 -333 -98t-235.5 -273t-85.5 -391q0 -228 115.5 -363.5t316.5 -135.5z" glyph-name="Omacron" horiz-adv-x="1697" unicode="Ō"/><glyph d="M461 1335l26 154h607l-27 -154h-606zM522 -20q-205 0 -324.5 123t-119.5 327q0 140 49 261.5t133.5 206.5t203 134t253.5 49q207 0 325.5 -122.5t118.5 -327.5q0 -140 -49 -261.5t-133.5 -206.5t-203 -134t-253.5 -49zM553 145q170 0 284.5 132.5t114.5 332.5 q0 138 -71 221.5t-193 83.5q-170 0 -284.5 -132t-114.5 -332q0 -138 70.5 -222t193.5 -84z" glyph-name="omacron" horiz-adv-x="1241" unicode="ō"/><glyph d="M809 1704l223 342h213l-278 -342h-158zM1126 1704l224 342h215l-281 -342h-158zM752 -20q-278 0 -450.5 180.5t-172.5 476.5q0 276 114.5 494.5t321.5 342t471 123.5q278 0 450.5 -180.5t172.5 -476.5q0 -276 -114 -494.5t-321 -342t-472 -123.5zM784 158q182 0 331.5 98 t235 273t85.5 391q0 228 -114.5 363.5t-315.5 135.5q-183 0 -333 -98t-235.5 -273t-85.5 -391q0 -228 115.5 -363.5t316.5 -135.5z" glyph-name="Ohungarumlaut" horiz-adv-x="1697" unicode="Ő"/><glyph d="M500 1235l223 342h213l-279 -342h-157zM817 1235l223 342h215l-280 -342h-158zM522 -20q-205 0 -324.5 123t-119.5 327q0 140 49 261.5t133.5 206.5t203 134t253.5 49q207 0 325.5 -122.5t118.5 -327.5q0 -140 -49 -261.5t-133.5 -206.5t-203 -134t-253.5 -49zM553 145 q170 0 284.5 132.5t114.5 332.5q0 138 -71 221.5t-193 83.5q-170 0 -284.5 -132t-114.5 -332q0 -138 70.5 -222t193.5 -84z" glyph-name="ohungarumlaut" horiz-adv-x="1241" unicode="ő"/><glyph d="M2533 1405h-804l-91 -506h734l-29 -174h-735l-99 -553h830l-29 -172h-1018l58 330h-4q-101 -167 -261 -258.5t-364 -91.5q-270 0 -431 178t-161 473q0 207 66.5 386.5t182.5 306.5t279.5 200t350.5 73q185 0 315.5 -92.5t183.5 -257.5h6l58 330h995zM776 158 q133 0 252.5 59.5t205 161t135.5 243t50 298.5q0 235 -112 367t-310 132q-180 0 -328 -98t-232.5 -273t-84.5 -391q0 -228 113 -363.5t311 -135.5z" glyph-name="OE" horiz-adv-x="2494" unicode="Œ"/><glyph d="M1548 1081q191 0 301.5 -115t110.5 -311q0 -63 -12 -133l-6 -30h-830q-2 -18 -2 -54q0 -141 68 -224t192 -83q110 0 206 65t140 169h201q-65 -173 -219.5 -279t-343.5 -106q-137 0 -236.5 76.5t-130.5 209.5h-4q-80 -137 -203 -211.5t-282 -74.5q-195 0 -307.5 121.5 t-112.5 324.5q0 141 47 263t128.5 208t195 135t243.5 49q140 0 241 -77.5t130 -208.5h4q170 286 481 286zM1509 934q-132 0 -234 -89t-142 -237h626v29q0 137 -67 217t-183 80zM543 145q165 0 277 133t112 332q0 139 -67.5 222t-186.5 83q-165 0 -277 -133t-112 -333 q0 -138 67.5 -221t186.5 -83z" glyph-name="oe" horiz-adv-x="2035" unicode="œ"/><glyph d="M1231 2046l-299 -342h-158l244 342h213zM1460 1200q0 -184 -109.5 -319t-301.5 -189l254 -692h-240l-234 662h-16h-389l-117 -662h-215l279 1577h604q212 0 348.5 -104.5t136.5 -272.5zM858 827q162 0 269.5 95.5t107.5 242.5q0 108 -75.5 174t-203.5 66h-403l-100 -578 h405z" glyph-name="Racute" horiz-adv-x="1466" unicode="Ŕ"/><glyph d="M922 1575l-299 -342h-158l244 342h213zM821 1081q78 0 133 -20l-32 -195q-78 29 -179 29q-141 0 -245.5 -104.5t-135.5 -274.5l-90 -516h-204l186 1061h205l-39 -223h4q62 109 171 176t226 67z" glyph-name="racute" horiz-adv-x="886" unicode="ŕ"/><glyph d="M1460 1200q0 -184 -109.5 -319t-301.5 -189l254 -692h-240l-234 662h-16h-389l-117 -662h-215l279 1577h604q212 0 348.5 -104.5t136.5 -272.5zM858 827q162 0 269.5 95.5t107.5 242.5q0 108 -75.5 174t-203.5 66h-403l-100 -578h405zM623 -133q52 0 77 -37.5t13 -99.5 q-17 -99 -83.5 -173t-156.5 -96l-4 47q52 19 94 62t64 100q-33 -10 -58 -10q-38 0 -59 21t-21 57q0 56 38 92.5t96 36.5z" glyph-name="Rcommaaccent" horiz-adv-x="1466" unicode="Ŗ"/><glyph d="M821 1081q78 0 133 -20l-32 -195q-78 29 -179 29q-141 0 -245.5 -104.5t-135.5 -274.5l-90 -516h-204l186 1061h205l-39 -223h4q62 109 171 176t226 67zM147 -133q52 0 77.5 -37.5t13.5 -99.5q-17 -99 -83.5 -173t-156.5 -96l-4 47q52 19 94 62t64 100q-33 -10 -58 -10 q-38 0 -59 21t-21 57q0 56 37.5 92.5t95.5 36.5z" glyph-name="rcommaaccent" horiz-adv-x="886" unicode="ŗ"/><glyph d="M780 1704l-176 328h170l125 -220h4l203 220h168l-289 -328h-205zM1460 1200q0 -184 -109.5 -319t-301.5 -189l254 -692h-240l-234 662h-16h-389l-117 -662h-215l279 1577h604q212 0 348.5 -104.5t136.5 -272.5zM858 827q162 0 269.5 95.5t107.5 242.5q0 108 -75.5 174 t-203.5 66h-403l-100 -578h405z" glyph-name="Rcaron" horiz-adv-x="1466" unicode="Ř"/><glyph d="M471 1247l-176 328h170l125 -219h4l203 219h168l-289 -328h-205zM424 838q62 109 171 176t226 67q78 0 133 -20l-32 -195q-78 29 -179 29q-141 0 -245.5 -104.5t-135.5 -274.5l-90 -516h-204l186 1061h205l-39 -223h4z" glyph-name="rcaron" horiz-adv-x="886" unicode="ř"/><glyph d="M797 1704l243 342h213l-299 -342h-157zM600 -20q-232 0 -380 129t-148 340q0 46 4 73h215q0 -8 -1 -25t-1 -24q0 -145 93 -230t253 -85q198 0 325 89.5t127 233.5q0 37 -12 68t-29 53t-49.5 41t-60 31t-73.5 23.5t-78 18t-85 15.5q-45 8 -77 14t-75 16t-73.5 20.5 t-67 26.5t-61.5 34t-50 43t-39.5 53.5t-24 65.5t-9.5 79q0 229 181 371.5t481 142.5q213 0 351 -123t138 -323q0 -22 -4 -72h-217q4 40 4 56q0 131 -84 207.5t-229 76.5q-174 0 -286 -82t-112 -211q0 -37 13 -67t40 -52t56.5 -37.5t76 -28t83.5 -20t94 -16.5 q61 -10 103.5 -18.5t99.5 -24t96 -33.5t81 -47t66.5 -63.5t41 -83t16.5 -107.5q0 -244 -195.5 -396t-517.5 -152z" glyph-name="Sacute" horiz-adv-x="1402" unicode="Ś"/><glyph d="M557 1235l244 342h213l-299 -342h-158zM442 -20q-188 0 -297.5 83t-109.5 222q0 26 2 49h194q-2 -10 -2 -33q0 -84 64 -134t172 -50q131 0 216 54t85 140q0 27 -9.5 49t-31.5 38.5t-42 27.5t-58 21.5t-62.5 15.5t-70.5 14q-49 9 -83 16.5t-78.5 21.5t-74 32t-57 43 t-41 60t-13.5 79q0 157 138 254.5t354 97.5q174 0 275.5 -80t101.5 -215q0 -31 -2 -49h-195q2 10 2 33q0 78 -56 126t-151 48q-116 0 -190 -49t-74 -127q0 -23 8.5 -41.5t28.5 -32t39 -23.5t54 -19t58 -14t66 -13q44 -8 74.5 -14.5t72 -18.5t70 -25.5t59 -34t49 -45.5 t30.5 -59.5t12 -75.5q0 -165 -148 -268.5t-379 -103.5z" glyph-name="sacute" horiz-adv-x="1083" unicode="ś"/><glyph d="M1370 1079h-217q4 40 4 56q0 131 -84 207.5t-229 76.5q-174 0 -286 -82t-112 -211q0 -37 13 -67t40 -52t56.5 -37.5t76 -28t83.5 -20t94 -16.5q61 -10 103.5 -18.5t99.5 -24t96 -33.5t81 -47t66.5 -63.5t41 -83t16.5 -107.5q0 -233 -180.5 -383.5t-479.5 -162.5l-92 -115 l4 -2q29 10 64 10q74 0 115.5 -38t41.5 -103q0 -101 -90.5 -163.5t-232.5 -62.5q-55 0 -109.5 14t-87.5 36l19 100q35 -25 83.5 -40t92.5 -15q77 0 126.5 31t49.5 81q0 31 -21 49.5t-57 18.5q-72 0 -119 -47l-67 49l151 199q-201 21 -326.5 147t-125.5 318q0 46 4 73h215 q0 -8 -1 -25t-1 -24q0 -145 93 -230t253 -85q198 0 325 89.5t127 233.5q0 37 -12 68t-29 53t-49.5 41t-60 31t-73.5 23.5t-78 18t-85 15.5q-45 8 -77 14t-75 16t-73.5 20.5t-67 26.5t-61.5 34t-50 43t-39.5 53.5t-24 65.5t-9.5 79q0 229 181 371.5t481 142.5q213 0 351 -123 t138 -323q0 -22 -4 -72z" glyph-name="Scedilla" horiz-adv-x="1402" unicode="Ş"/><glyph d="M1012 737h-195q2 10 2 33q0 78 -56 126t-151 48q-116 0 -190 -49t-74 -127q0 -23 8.5 -41.5t28.5 -32t39 -23.5t54 -19t58 -14t66 -13q44 -8 74.5 -14.5t72 -18.5t70 -25.5t59 -34t49 -45.5t30.5 -59.5t12 -75.5q0 -155 -131 -256.5t-340 -113.5l-95 -115l5 -2 q29 10 63 10q74 0 116 -38t42 -103q0 -101 -91 -163.5t-233 -62.5q-55 0 -109 14t-87 36l18 100q35 -25 83.5 -40t92.5 -15q77 0 126.5 31t49.5 81q0 31 -21 49.5t-57 18.5q-71 0 -118 -47l-68 49l152 199q-156 17 -244 97t-88 204q0 26 2 49h194q-2 -10 -2 -33 q0 -84 64 -134t172 -50q131 0 216 54t85 140q0 27 -9.5 49t-31.5 38.5t-42 27.5t-58 21.5t-62.5 15.5t-70.5 14q-49 9 -83 16.5t-78.5 21.5t-74 32t-57 43t-41 60t-13.5 79q0 157 138 254.5t354 97.5q174 0 275.5 -80t101.5 -215q0 -31 -2 -49z" glyph-name="scedilla" horiz-adv-x="1083" unicode="ş"/><glyph d="M803 1704l-176 328h170l125 -220h4l202 220h168l-288 -328h-205zM1370 1079h-217q4 40 4 56q0 131 -84 207.5t-229 76.5q-174 0 -286 -82t-112 -211q0 -37 13 -67t40 -52t56.5 -37.5t76 -28t83.5 -20t94 -16.5q61 -10 103.5 -18.5t99.5 -24t96 -33.5t81 -47t66.5 -63.5 t41 -83t16.5 -107.5q0 -244 -195.5 -396t-517.5 -152q-232 0 -380 129t-148 340q0 46 4 73h215q0 -8 -1 -25t-1 -24q0 -145 93 -230t253 -85q198 0 325 89.5t127 233.5q0 37 -12 68t-29 53t-49.5 41t-60 31t-73.5 23.5t-78 18t-85 15.5q-45 8 -77 14t-75 16t-73.5 20.5 t-67 26.5t-61.5 34t-50 43t-39.5 53.5t-24 65.5t-9.5 79q0 229 181 371.5t481 142.5q213 0 351 -123t138 -323q0 -22 -4 -72z" glyph-name="Scaron" horiz-adv-x="1402" unicode="Š"/><glyph d="M563 1249l-176 328h170l125 -219h4l203 219h168l-289 -328h-205zM637 1081q174 0 275.5 -80t101.5 -215q0 -31 -2 -49h-195q2 10 2 33q0 78 -56 126t-151 48q-116 0 -190 -49t-74 -127q0 -23 8.5 -41.5t28.5 -32t39 -23.5t54 -19t58 -14t66 -13q44 -8 74.5 -14.5 t72 -18.5t70 -25.5t59 -34t49 -45.5t30.5 -59.5t12 -75.5q0 -165 -148 -268.5t-379 -103.5q-188 0 -297.5 83t-109.5 222q0 26 2 49h194q-2 -10 -2 -33q0 -84 64 -134t172 -50q131 0 216 54t85 140q0 27 -9.5 49t-31.5 38.5t-42 27.5t-58 21.5t-62.5 15.5t-70.5 14 q-49 9 -83 16.5t-78.5 21.5t-74 32t-57 43t-41 60t-13.5 79q0 157 138 254.5t354 97.5z" glyph-name="scaron" horiz-adv-x="1083" unicode="š"/><glyph d="M627 0h-47l-109 -133l4 -2q29 10 64 10q74 0 115.5 -38t41.5 -103q0 -101 -90.5 -163.5t-232.5 -62.5q-55 0 -109.5 14t-87.5 36l19 100q35 -25 83.5 -40t92.5 -15q77 0 126.5 31t49.5 81q0 31 -21 49.5t-57 18.5q-72 0 -119 -47l-67 49l166 215h-37l247 1405h-479 l31 172h1171l-28 -172h-480z" glyph-name="uni0162" horiz-adv-x="1232" unicode="Ţ"/><glyph d="M479 911l-106 -604q-2 -18 -2 -31q0 -63 41.5 -100t111.5 -37q93 0 174 33l-24 -149q-100 -43 -228 -43q-43 0 -88 10l-100 -123l4 -2q29 10 64 10q74 0 115.5 -38t41.5 -103q0 -101 -90.5 -163.5t-232.5 -62.5q-55 0 -109.5 14t-87.5 36l19 100q35 -25 83.5 -40 t92.5 -15q77 0 126.5 31t49.5 81q0 31 -21 49.5t-57 18.5q-72 0 -119 -47l-67 49l188 246q-98 67 -98 200q0 29 6 64l108 616h-172l25 150h184l54 307h196l-55 -307h348l-25 -150h-350z" glyph-name="uni0163" horiz-adv-x="804" unicode="ţ"/><glyph d="M717 1704l-176 328h170l125 -220h4l202 220h168l-288 -328h-205zM1382 1577l-28 -172h-480l-247 -1405h-215l247 1405h-479l31 172h1171z" glyph-name="Tcaron" horiz-adv-x="1232" unicode="Ť"/><glyph d="M989 1591l-207 -454l-151 41l190 456zM559 1368l-55 -307h348l-25 -150h-350l-106 -604q-2 -18 -2 -31q0 -63 41.5 -100t111.5 -37q93 0 174 33l-24 -149q-100 -43 -228 -43q-133 0 -209.5 67.5t-76.5 183.5q0 29 6 64l108 616h-172l25 150h184l53 307h197z" glyph-name="tcaron" horiz-adv-x="800" unicode="ť"/><glyph d="M1374 1405h-479l-98 -559h340l-31 -150h-336l-123 -696h-215l123 696h-305l29 150h303l98 559h-479l30 172h1172z" glyph-name="Tbar" horiz-adv-x="1282" unicode="Ŧ"/><glyph d="M852 911h-350l-49 -282h348l-27 -150h-348l-31 -172q-2 -18 -2 -31q0 -63 41.5 -100t112.5 -37q93 0 174 33l-25 -149q-100 -43 -227 -43q-133 0 -210 67.5t-77 183.5q0 29 6 64l33 184h-174l25 150h176l49 282h-172l25 150h184l53 307h197l-56 -307h349z" glyph-name="tbar" horiz-adv-x="837" unicode="ŧ"/><glyph d="M670 1718l26 154h607l-27 -154h-606zM659 -20q-219 0 -358 125.5t-139 332.5q0 58 12 123l178 1016h215l-182 -1028q-8 -41 -8 -86q0 -140 85.5 -222.5t233.5 -82.5q171 0 295.5 107.5t155.5 283.5l180 1028h205l-180 -1016q-49 -281 -229.5 -431t-463.5 -150z" glyph-name="Umacron" horiz-adv-x="1515" unicode="Ū"/><glyph d="M455 1335l26 154h606l-26 -154h-606zM514 -20q-185 0 -291 94.5t-106 253.5q0 41 6 88l115 645h204l-108 -625q-8 -33 -8 -69q0 -102 58.5 -162t160.5 -60q117 0 203.5 79.5t109.5 211.5l111 625h205l-115 -645q-37 -212 -183 -324t-362 -112z" glyph-name="umacron" horiz-adv-x="1222" unicode="ū"/><glyph d="M967 1690q-99 0 -156 52.5t-57 139.5q0 118 83.5 193t211.5 75q98 0 155.5 -52.5t57.5 -139.5q0 -118 -84 -193t-211 -75zM985 1796q63 0 103 41.5t40 106.5q0 46 -26.5 73t-73.5 27q-61 0 -101 -41.5t-40 -106.5q0 -46 26 -73t72 -27zM659 -20q-219 0 -358 125.5 t-139 332.5q0 58 12 123l178 1016h215l-182 -1028q-8 -41 -8 -86q0 -140 85.5 -222.5t233.5 -82.5q171 0 295.5 107.5t155.5 283.5l180 1028h205l-180 -1016q-49 -281 -229.5 -431t-463.5 -150z" glyph-name="Uring" horiz-adv-x="1515" unicode="Ů"/><glyph d="M727 1174q-99 0 -156 52.5t-57 139.5q0 118 83.5 193t211.5 75q98 0 155.5 -52.5t57.5 -139.5q0 -118 -84 -193t-211 -75zM745 1280q63 0 103.5 41.5t40.5 105.5q0 46 -27 73.5t-74 27.5q-61 0 -101 -41.5t-40 -106.5q0 -46 26 -73t72 -27zM514 -20q-185 0 -291 94.5 t-106 253.5q0 41 6 88l115 645h204l-108 -625q-8 -33 -8 -69q0 -102 58.5 -162t160.5 -60q117 0 203.5 79.5t109.5 211.5l111 625h205l-115 -645q-37 -212 -183 -324t-362 -112z" glyph-name="uring" horiz-adv-x="1222" unicode="ů"/><glyph d="M721 1704l223 342h213l-278 -342h-158zM1038 1704l224 342h215l-281 -342h-158zM659 -20q-219 0 -358 125.5t-139 332.5q0 58 12 123l178 1016h215l-182 -1028q-8 -41 -8 -86q0 -140 85.5 -222.5t233.5 -82.5q171 0 295.5 107.5t155.5 283.5l180 1028h205l-180 -1016 q-49 -281 -229.5 -431t-463.5 -150z" glyph-name="Uhungarumlaut" horiz-adv-x="1515" unicode="Ű"/><glyph d="M494 1235l223 342h213l-279 -342h-157zM811 1235l223 342h215l-280 -342h-158zM514 -20q-185 0 -291 94.5t-106 253.5q0 41 6 88l115 645h204l-108 -625q-8 -33 -8 -69q0 -102 58.5 -162t160.5 -60q117 0 203.5 79.5t109.5 211.5l111 625h205l-115 -645 q-37 -212 -183 -324t-362 -112z" glyph-name="uhungarumlaut" horiz-adv-x="1222" unicode="ű"/><glyph d="M1327 1577h205l-180 -1016q-41 -238 -177.5 -382.5t-351.5 -184.5q-104 -84 -168.5 -164t-64.5 -127q0 -32 19 -51t53 -19q53 0 110 31l-22 -121q-65 -35 -160 -35q-83 0 -131.5 40t-48.5 106q0 62 66.5 148.5t180.5 177.5q-219 0 -357 125.5t-138 332.5q0 58 12 123 l178 1016h215l-182 -1028q-8 -41 -8 -86q0 -140 85.5 -222.5t233.5 -82.5q171 0 295.5 107.5t155.5 283.5z" glyph-name="Uogonek" horiz-adv-x="1515" unicode="Ų"/><glyph d="M969 1061h205l-115 -645q-30 -167 -128 -272.5t-247 -143.5q-108 -87 -175 -168t-67 -129q0 -32 19 -51t53 -19q54 0 111 31l-23 -121q-65 -35 -160 -35q-83 0 -131.5 40t-48.5 106q0 62 66.5 148.5t181.5 177.5q-183 1 -288 95.5t-105 252.5q0 41 6 88l115 645h204 l-108 -625q-8 -33 -8 -69q0 -102 58.5 -162t160.5 -60q117 0 203.5 79.5t109.5 211.5z" glyph-name="uogonek" horiz-adv-x="1222" unicode="ų"/><glyph d="M1296 1923l-202 -219h-170l290 328h203l176 -328h-168l-125 219h-4zM2036 1577h219l-705 -1577h-262l-98 1319h-4l-563 -1319h-263l-147 1577h221l107 -1352h4l573 1352h236l102 -1352h4z" glyph-name="Wcircumflex" horiz-adv-x="2097" unicode="Ŵ"/><glyph d="M1001 1468l-202 -219h-170l291 328h202l176 -328h-168l-124 219h-5zM1530 1061h209l-535 -1061h-217l-92 844h-4l-389 -844h-219l-162 1061h207l106 -844h4l393 844h201l96 -844h5z" glyph-name="wcircumflex" horiz-adv-x="1673" unicode="ŵ"/><glyph d="M954 1923l-202 -219h-170l290 328h203l176 -328h-168l-125 219h-4zM1591 1577l-776 -995l-102 -582h-213l104 586l-420 991h242l322 -791h4l598 791h241z" glyph-name="Ycircumflex" horiz-adv-x="1402" unicode="Ŷ"/><glyph d="M735 1468l-203 -219h-170l291 328h203l176 -328h-168l-125 219h-4zM991 1061h213l-880 -1532h-201l239 430l-247 1102h209l178 -871h4z" glyph-name="ycircumflex" horiz-adv-x="1134" unicode="ŷ"/><glyph d="M741 1702q-47 0 -73.5 25t-26.5 67q0 58 40.5 95.5t100.5 37.5q47 0 74 -25.5t27 -68.5q0 -58 -40 -94.5t-102 -36.5zM1092 1702q-46 0 -73.5 25.5t-27.5 66.5q0 58 40.5 95.5t101.5 37.5q47 0 73.5 -25.5t26.5 -68.5q0 -58 -39.5 -94.5t-101.5 -36.5zM1591 1577 l-776 -995l-102 -582h-213l104 586l-420 991h242l322 -791h4l598 791h241z" glyph-name="Ydieresis" horiz-adv-x="1402" unicode="Ÿ"/><glyph d="M1210 2046l-299 -342h-157l243 342h213zM1356 1393l-1106 -1217v-4h911l-28 -172h-1172l31 184l1106 1217v4h-840l31 172h1100z" glyph-name="Zacute" horiz-adv-x="1288" unicode="Ź"/><glyph d="M981 1577l-299 -342h-158l244 342h213zM989 893l-758 -731v-4h646l-29 -158h-881l29 166l747 733v4h-583l28 158h830z" glyph-name="zacute" horiz-adv-x="1007" unicode="ź"/><glyph d="M860 1708q-50 0 -78 26.5t-28 71.5q0 60 42 99t105 39q49 0 78 -27t29 -72q0 -60 -42.5 -98.5t-105.5 -38.5zM1356 1393l-1106 -1217v-4h911l-28 -172h-1172l31 184l1106 1217v4h-840l31 172h1100z" glyph-name="Zdotaccent" horiz-adv-x="1288" unicode="Ż"/><glyph d="M641 1305q-50 0 -78 26.5t-28 71.5q0 60 42 98.5t105 38.5q49 0 77.5 -27.5t28.5 -70.5q0 -60 -42 -98.5t-105 -38.5zM989 893l-758 -731v-4h646l-29 -158h-881l29 166l747 733v4h-583l28 158h830z" glyph-name="zdotaccent" horiz-adv-x="1007" unicode="ż"/><glyph d="M760 1704l-176 328h170l125 -220h4l202 220h168l-288 -328h-205zM1356 1393l-1106 -1217v-4h911l-28 -172h-1172l31 184l1106 1217v4h-840l31 172h1100z" glyph-name="Zcaron" horiz-adv-x="1288" unicode="Ž"/><glyph d="M530 1249l-176 328h170l125 -219h4l203 219h168l-289 -328h-205zM1018 1061l-29 -168l-758 -731v-4h646l-29 -158h-881l29 166l747 733v4h-583l28 158h830z" glyph-name="zcaron" horiz-adv-x="1007" unicode="ž"/><glyph d="M1319 1597q146 0 250 -55l-68 -147q-83 37 -178 37q-92 0 -165.5 -65.5t-113.5 -182.5l-100 -293h322l-27 -150h-348l-143 -415q-57 -162 -178.5 -254t-278.5 -92q-139 0 -252 55l70 151q70 -39 178 -39q91 0 164.5 65.5t113.5 180.5l121 348h-305l27 150h329l125 360 q57 164 177.5 255t279.5 91z" glyph-name="florin" horiz-adv-x="1421" unicode="ƒ"/><glyph d="M1370 1079h-217q4 40 4 56q0 131 -84 207.5t-229 76.5q-174 0 -286 -82t-112 -211q0 -37 13 -67t40 -52t56.5 -37.5t76 -28t83.5 -20t94 -16.5q61 -10 103.5 -18.5t99.5 -24t96 -33.5t81 -47t66.5 -63.5t41 -83t16.5 -107.5q0 -244 -195.5 -396t-517.5 -152 q-232 0 -380 129t-148 340q0 46 4 73h215q0 -8 -1 -25t-1 -24q0 -145 93 -230t253 -85q198 0 325 89.5t127 233.5q0 37 -12 68t-29 53t-49.5 41t-60 31t-73.5 23.5t-78 18t-85 15.5q-45 8 -77 14t-75 16t-73.5 20.5t-67 26.5t-61.5 34t-50 43t-39.5 53.5t-24 65.5t-9.5 79 q0 229 181 371.5t481 142.5q213 0 351 -123t138 -323q0 -22 -4 -72zM582 -133q52 0 77 -37.5t13 -99.5q-17 -99 -83.5 -173t-156.5 -96l-4 47q52 19 94 62t64 100q-33 -10 -58 -10q-38 0 -58.5 21t-20.5 57q0 56 37.5 92.5t95.5 36.5z" glyph-name="Scommaaccent" horiz-adv-x="1402" unicode="Ș"/><glyph d="M1012 737h-195q2 10 2 33q0 78 -56 126t-151 48q-116 0 -190 -49t-74 -127q0 -23 8.5 -41.5t28.5 -32t39 -23.5t54 -19t58 -14t66 -13q44 -8 74.5 -14.5t72 -18.5t70 -25.5t59 -34t49 -45.5t30.5 -59.5t12 -75.5q0 -165 -148 -268.5t-379 -103.5q-188 0 -297.5 83 t-109.5 222q0 26 2 49h194q-2 -10 -2 -33q0 -84 64 -134t172 -50q131 0 216 54t85 140q0 27 -9.5 49t-31.5 38.5t-42 27.5t-58 21.5t-62.5 15.5t-70.5 14q-49 9 -83 16.5t-78.5 21.5t-74 32t-57 43t-41 60t-13.5 79q0 157 138 254.5t354 97.5q174 0 275.5 -80t101.5 -215 q0 -31 -2 -49zM422 -133q52 0 77 -37.5t13 -99.5q-17 -99 -83.5 -173t-156.5 -96l-4 47q52 19 94 62t64 100q-33 -10 -57 -10q-38 0 -59 21t-21 57q0 56 37.5 92.5t95.5 36.5z" glyph-name="scommaaccent" horiz-adv-x="1083" unicode="ș"/><glyph d="M1382 1577l-28 -172h-480l-247 -1405h-215l247 1405h-479l31 172h1171zM492 -133q52 0 77 -37.5t13 -99.5q-17 -99 -83.5 -173t-156.5 -96l-4 47q52 19 94 62t64 100q-33 -10 -58 -10q-38 0 -59 21t-21 57q0 56 38 92.5t96 36.5z" glyph-name="uni021A" horiz-adv-x="1232" unicode="Ț"/><glyph d="M477 911l-106 -604q-2 -18 -2 -31q0 -63 41.5 -100t111.5 -37q93 0 174 33l-24 -149q-100 -43 -228 -43q-133 0 -209.5 67.5t-76.5 183.5q0 29 6 64l108 616h-172l25 150h184l53 307h197l-55 -307h348l-25 -150h-350zM274 -133q52 0 77.5 -37.5t13.5 -99.5 q-17 -99 -83.5 -173t-156.5 -96l-4 47q52 19 94 62t64 100q-33 -10 -58 -10q-38 0 -59 21t-21 57q0 56 37.5 92.5t95.5 36.5z" glyph-name="uni021B" horiz-adv-x="800" unicode="ț"/><glyph d="M-10 -471l270 1532h205l-270 -1532h-205z" glyph-name="uni0237" horiz-adv-x="536" unicode="ȷ"/><glyph d="M522 1497l176 -328h-168l-122 220h-5l-204 -220h-170l290 328h203z" glyph-name="circumflex" horiz-adv-x="729" unicode="ˆ"/><glyph d="M528 1497h170l-288 -328h-205l-176 328h170l123 -219h4z" glyph-name="caron" horiz-adv-x="729" unicode="ˇ"/><glyph d="M297 1161q-121 0 -189.5 70.5t-68.5 191.5q0 33 6 74h145q-4 -36 -4 -51q0 -72 35 -114t98 -42q72 0 127 56.5t74 150.5h146q-28 -155 -125 -245.5t-244 -90.5z" glyph-name="breve" horiz-adv-x="710" unicode="˘"/><glyph d="M209 1239q-50 0 -78.5 26.5t-28.5 71.5q0 60 42.5 99t105.5 39q49 0 77.5 -27t28.5 -72q0 -60 -42 -98.5t-105 -38.5z" glyph-name="dotaccent" horiz-adv-x="460" unicode="˙"/><glyph d="M260 1133q-99 0 -156 52.5t-57 139.5q0 118 83.5 193t211.5 75q98 0 155.5 -52.5t57.5 -139.5q0 -118 -84 -193t-211 -75zM279 1239q63 0 103 41t40 106q0 46 -26.5 73.5t-73.5 27.5q-62 0 -102 -42t-40 -106q0 -46 26.5 -73t72.5 -27z" glyph-name="ring" horiz-adv-x="602" unicode="˚"/><glyph d="M233 -492q-83 0 -131.5 40t-48.5 106q0 75 98 185t255 218l69 -57q-108 -87 -175 -168t-67 -129q0 -32 19 -51t53 -19q54 0 111 31l-23 -121q-65 -35 -160 -35z" glyph-name="ogonek" horiz-adv-x="528" unicode="˛"/><glyph d="M66 1194q25 136 97.5 212.5t176.5 76.5q47 0 87.5 -19t64.5 -41.5t56 -41.5t64 -19q46 0 81 34.5t48 94.5h103q-25 -135 -98 -212t-177 -77q-38 0 -71.5 12.5t-57 31t-45 36.5t-46.5 30.5t-52 12.5q-45 0 -80.5 -35t-50.5 -96h-100z" glyph-name="tilde" horiz-adv-x="909" unicode="˜"/><glyph d="M72 1169l223 340h213l-279 -340h-157zM389 1169l223 340h215l-280 -340h-158z" glyph-name="hungarumlaut" horiz-adv-x="899" unicode="˝"/><glyph d="M-70 1235h-157l-181 342h213z" glyph-name="gravecomb" unicode="̀"/><glyph d="M-485 1235l243 342h213l-299 -342h-157z" glyph-name="acutecomb" unicode="́"/><glyph d="M-207 1577l176 -328h-168l-125 219h-4l-202 -219h-170l290 328h203z" glyph-name="uni0302" unicode="̂"/><glyph d="M-844 1268q25 136 97.5 212t177.5 76q47 0 87.5 -19t64.5 -41t56 -41t64 -19q46 0 81 34.5t48 94.5h102q-25 -136 -97.5 -212.5t-176.5 -76.5q-47 0 -87.5 19t-64 41.5t-56 41.5t-64.5 19q-45 0 -80.5 -35t-50.5 -94h-101z" glyph-name="tildecomb" unicode="̃"/><glyph d="M-676 1335l27 154h606l-27 -154h-606z" glyph-name="uni0304" unicode="̄"/><glyph d="M-414 1241q-138 0 -207.5 92t-44.5 244h146q-15 -93 20.5 -150t108.5 -57q72 0 127 57t74 150h145q-28 -152 -129.5 -244t-239.5 -92z" glyph-name="uni0306" unicode="̆"/><glyph d="M-252 1290q-50 0 -78 27t-28 72q0 60 42 98.5t105 38.5q49 0 78 -28t29 -71q0 -60 -42.5 -98.5t-105.5 -38.5z" glyph-name="uni0307" unicode="̇"/><glyph d="M-608 1305q-47 0 -74 25.5t-27 68.5q0 57 41 95t101 38q47 0 73.5 -26.5t26.5 -69.5q0 -57 -40 -94t-101 -37zM-258 1305q-46 0 -73 25.5t-27 68.5q0 57 40.5 95t100.5 38q47 0 73.5 -26.5t26.5 -69.5q0 -57 -40 -94t-101 -37z" glyph-name="uni0308" unicode="̈"/><glyph d="M-342 1174q-99 0 -156 52.5t-57 139.5q0 118 83.5 193t211.5 75q98 0 155.5 -52.5t57.5 -139.5q0 -118 -84 -193t-211 -75zM-324 1280q63 0 103.5 41.5t40.5 105.5q0 46 -27 73.5t-74 27.5q-61 0 -101 -41.5t-40 -106.5q0 -46 26 -73t72 -27z" glyph-name="uni030A" unicode="̊"/><glyph d="M-827 1235l223 342h213l-279 -342h-157zM-510 1235l223 342h215l-280 -342h-158z" glyph-name="uni030B" unicode="̋"/><glyph d="M-199 1577h168l-288 -328h-205l-176 328h170l124 -219h5z" glyph-name="uni030C" unicode="̌"/><glyph d="M-121 1450q38 0 60 -21t22 -55q0 -52 -38 -85.5t-95 -33.5q-51 0 -76 38t-14 100q13 83 76.5 150t152.5 93l13 -49q-112 -29 -156 -147q33 10 55 10z" glyph-name="uni0312" unicode="̒"/><glyph d="M-106 -133q52 0 77 -37.5t13 -99.5q-17 -99 -83.5 -173t-156.5 -96l-4 47q52 19 94 62t64 100q-33 -10 -58 -10q-38 0 -59 21t-21 57q0 56 38 92.5t96 36.5z" glyph-name="uni0326" unicode="̦"/><glyph d="M-209 -125q74 0 116 -38t42 -103q0 -101 -91 -163.5t-233 -62.5q-55 0 -109 14t-87 36l18 100q35 -25 83.5 -40t92.5 -15q77 0 126.5 31t49.5 81q0 31 -21 49.5t-57 18.5q-71 0 -118 -47l-68 49l211 274l86 -59l-108 -133l4 -2q29 10 63 10z" glyph-name="uni0327" unicode="̧"/><glyph d="M-295 -492q-83 0 -131.5 40t-48.5 106q0 75 97.5 185t254.5 218l70 -57q-108 -87 -175 -168t-67 -129q0 -32 19 -51t53 -19q53 0 110 31l-22 -121q-65 -35 -160 -35z" glyph-name="uni0328" unicode="̨"/><glyph d="M-823 651l24 150h715l-25 -150h-714z" glyph-name="uni0335" unicode="̵"/><glyph d="M-1620 745l27 152h1484l-28 -152h-1483z" glyph-name="uni0336" unicode="̶"/><glyph d="M-991 -84l-76 53l991 1172l74 -51z" glyph-name="uni0337" unicode="̷"/><glyph d="M-1360 -82l-84 57l1321 1678l82 -58z" glyph-name="uni0338" unicode="̸"/><glyph d="M1022 1577l311 -1577h-1423l868 1577h244zM862 1364l-637 -1192h854l-213 1192h-4z" glyph-name="uni0394" horiz-adv-x="1429" unicode="Δ"/><glyph d="M1608 991q0 -269 -137.5 -490t-362.5 -333l340 6l-31 -174h-557l31 164q135 41 246 153.5t176 276t65 342.5q0 220 -106.5 351.5t-290.5 131.5q-172 0 -313.5 -96.5t-223.5 -269.5t-82 -387q0 -186 70.5 -323t194.5 -179l-31 -164h-555l31 174l348 -6q-129 83 -198.5 226 t-69.5 323q0 187 66 351t180 280t274 182.5t342 66.5q275 0 434.5 -165t159.5 -441z" glyph-name="uni03A9" horiz-adv-x="1654" unicode="Ω"/><glyph d="M985 1061h205l-189 -1061h-204l34 188h-4q-60 -94 -169 -151t-230 -57q-91 0 -152 34l-86 -485h-204l268 1532h205l-115 -655q-4 -40 -4 -60q0 -93 54.5 -147t150.5 -54q125 0 217.5 89t118.5 235z" glyph-name="uni03BC" horiz-adv-x="1257" unicode="μ"/><glyph d="M1354 1034l-27 -149h-186l-156 -885h-205l156 885h-438l-156 -885h-205l156 885h-189l27 149h1223z" glyph-name="pi" horiz-adv-x="1310" unicode="π"/><glyph d="M1366 1704h-158l-180 342h213zM2036 1577h219l-705 -1577h-262l-98 1319h-4l-563 -1319h-263l-147 1577h221l107 -1352h4l573 1352h236l102 -1352h4z" glyph-name="Wgrave" horiz-adv-x="2097" unicode="Ẁ"/><glyph d="M1067 1235h-158l-180 342h213zM1530 1061h209l-535 -1061h-217l-92 844h-4l-389 -844h-219l-162 1061h207l106 -844h4l393 844h201l96 -844h5z" glyph-name="wgrave" horiz-adv-x="1673" unicode="ẁ"/><glyph d="M1610 2046l-299 -342h-158l244 342h213zM2036 1577h219l-705 -1577h-262l-98 1319h-4l-563 -1319h-263l-147 1577h221l107 -1352h4l573 1352h236l102 -1352h4z" glyph-name="Wacute" horiz-adv-x="2097" unicode="Ẃ"/><glyph d="M1313 1577l-299 -342h-158l244 342h213zM1530 1061h209l-535 -1061h-217l-92 844h-4l-389 -844h-219l-162 1061h207l106 -844h4l393 844h201l96 -844h5z" glyph-name="wacute" horiz-adv-x="1673" unicode="ẃ"/><glyph d="M1083 1702q-47 0 -73.5 25t-26.5 67q0 58 40.5 95.5t100.5 37.5q47 0 74 -25.5t27 -68.5q0 -58 -40 -94.5t-102 -36.5zM1434 1702q-46 0 -73.5 25.5t-27.5 66.5q0 58 40.5 95.5t101.5 37.5q47 0 73.5 -25.5t26.5 -68.5q0 -58 -39.5 -94.5t-101.5 -36.5zM2036 1577h219 l-705 -1577h-262l-98 1319h-4l-563 -1319h-263l-147 1577h221l107 -1352h4l573 1352h236l102 -1352h4z" glyph-name="Wdieresis" horiz-adv-x="2097" unicode="Ẅ"/><glyph d="M799 1305q-47 0 -74 25.5t-27 68.5q0 57 41 95t101 38q47 0 73.5 -26.5t26.5 -69.5q0 -57 -40 -94t-101 -37zM1149 1305q-46 0 -73 25.5t-27 68.5q0 57 40.5 95t100.5 38q47 0 73.5 -26.5t26.5 -69.5q0 -57 -40 -94t-101 -37zM1530 1061h209l-535 -1061h-217l-92 844h-4 l-389 -844h-219l-162 1061h207l106 -844h4l393 844h201l96 -844h5z" glyph-name="wdieresis" horiz-adv-x="1673" unicode="ẅ"/><glyph d="M1710 1577l-33 -184l-475 -498q189 -44 297.5 -159t108.5 -269q0 -216 -158.5 -351.5t-421.5 -135.5q-186 0 -308 113t-122 298q0 20 4 60h207v-29q0 -121 68 -192.5t184 -71.5q140 0 232.5 86.5t92.5 218.5q0 114 -88.5 197t-240.5 106l-72 10l29 156l420 469v4h-881 l-246 -1405h-215l279 1577h1339z" glyph-name="uni1E9E" horiz-adv-x="1699" unicode="ẞ"/><glyph d="M1024 1704h-158l-180 342h213zM1591 1577l-776 -995l-102 -582h-213l104 586l-420 991h242l322 -791h4l598 791h241z" glyph-name="Ygrave" horiz-adv-x="1402" unicode="Ỳ"/><glyph d="M803 1235h-158l-180 342h213zM991 1061h213l-880 -1532h-201l239 430l-247 1102h209l178 -871h4z" glyph-name="ygrave" horiz-adv-x="1134" unicode="ỳ"/><glyph d="M121 463l26 151h940l-24 -151h-942z" glyph-name="endash" horiz-adv-x="1206" unicode="–"/><glyph d="M121 463l26 151h1524l-24 -151h-1526z" glyph-name="emdash" horiz-adv-x="1789" unicode="—"/><glyph d="M567 1530q-86 -17 -150.5 -75t-90.5 -140q34 12 67 12q44 0 70 -28t26 -74q0 -67 -46 -110.5t-115 -43.5q-55 0 -86 35.5t-31 97.5q0 25 4 43q23 129 119.5 225t232.5 125v-67z" glyph-name="quoteleft" horiz-adv-x="489" unicode="‘"/><glyph d="M453 1597q55 0 85.5 -35.5t30.5 -97.5q0 -25 -4 -43q-23 -129 -119.5 -225t-232.5 -125v68q86 17 151 75t91 140q-37 -13 -68 -13q-44 0 -70 28.5t-26 74.5q0 67 46 110t116 43z" glyph-name="quoteright" horiz-adv-x="489" unicode="’"/><glyph d="M199 236q55 0 85.5 -36t30.5 -98q0 -25 -4 -43q-23 -129 -119.5 -225t-232.5 -125v68q86 17 151 75t91 140q-34 -12 -68 -12q-44 0 -70 28t-26 74q0 67 46.5 110.5t115.5 43.5z" glyph-name="quotesinglbase" horiz-adv-x="471" unicode="‚"/><glyph d="M393 1327q44 0 70 -28t26 -74q0 -67 -46 -110.5t-115 -43.5q-55 0 -86 35.5t-31 97.5q0 25 4 43q23 129 119.5 225t232.5 125v-67q-86 -17 -150.5 -75t-90.5 -140q34 12 67 12zM909 1530q-86 -17 -150.5 -75t-90.5 -140q34 12 67 12q44 0 70 -28t26 -74q0 -67 -46 -110.5 t-115 -43.5q-55 0 -86 35.5t-31 97.5q0 25 4 43q23 129 119.5 225t232.5 125v-67z" glyph-name="quotedblleft" horiz-adv-x="831" unicode="“"/><glyph d="M569 1464q0 -25 -4 -43q-23 -129 -119.5 -225t-232.5 -125v68q86 17 151 75t91 140q-37 -13 -68 -13q-44 0 -70 28.5t-26 74.5q0 67 46 110t116 43q55 0 85.5 -35.5t30.5 -97.5zM795 1597q55 0 85.5 -35.5t30.5 -97.5q0 -25 -4 -43q-23 -129 -119.5 -225t-232.5 -125v68 q86 17 151 75t91 140q-37 -13 -68 -13q-44 0 -70 28.5t-26 74.5q0 67 46 110t116 43z" glyph-name="quotedblright" horiz-adv-x="833" unicode="”"/><glyph d="M315 102q0 -25 -4 -43q-23 -129 -119.5 -225t-232.5 -125v68q86 17 151 75t91 140q-34 -12 -68 -12q-44 0 -70 28t-26 74q0 67 46.5 110.5t115.5 43.5q55 0 85.5 -36t30.5 -98zM541 236q55 0 85.5 -36t30.5 -98q0 -25 -4 -43q-23 -129 -119.5 -225t-232.5 -125v68 q86 17 151 75t91 140q-34 -12 -68 -12q-44 0 -70 28t-26 74q0 67 46.5 110.5t115.5 43.5z" glyph-name="quotedblbase" horiz-adv-x="813" unicode="„"/><glyph d="M811 1339l-18 -106h-232l-92 -526h-123l92 526h-227l18 106h230l41 238h123l-41 -238h229z" glyph-name="dagger" horiz-adv-x="759" unicode="†"/><glyph d="M805 1233h-230l-32 -184h231l-20 -107h-230l-41 -235h-123l43 235h-229l19 107h229l33 184h-230l19 106h229l43 238h121l-41 -238h229z" glyph-name="daggerdbl" horiz-adv-x="788" unicode="‡"/><glyph d="M356 406q-84 0 -133 45t-49 120q0 101 72.5 167.5t181.5 66.5q84 0 133 -46t49 -122q0 -101 -72.5 -166t-181.5 -65z" glyph-name="bullet" horiz-adv-x="759" unicode="•"/><glyph d="M170 -20q-53 0 -84 29t-31 77q0 64 46 107t114 43q52 0 82.5 -29.5t30.5 -77.5q0 -65 -44.5 -107t-113.5 -42zM586 -20q-53 0 -84 29t-31 77q0 64 46 107t114 43q52 0 82 -29.5t30 -77.5q0 -65 -44 -107t-113 -42zM999 -20q-53 0 -83.5 29t-30.5 77q0 64 45.5 107 t113.5 43q52 0 82.5 -29.5t30.5 -77.5q0 -65 -44.5 -107t-113.5 -42z" glyph-name="ellipsis" horiz-adv-x="1329" unicode="…"/><glyph d="M426 840q-111 0 -174.5 80t-63.5 215q0 199 107 330.5t266 131.5q112 0 176 -79.5t64 -214.5q0 -199 -108 -331t-267 -132zM57 0l1325 1577h166l-1323 -1577h-168zM449 967q80 0 137 95t57 230q0 81 -27 129.5t-77 48.5q-82 0 -138.5 -95t-56.5 -230q0 -81 28 -129.5 t77 -48.5zM1049 -20q-111 0 -174.5 79.5t-63.5 214.5q0 199 107 331t264 132q113 0 177 -80t64 -215q0 -199 -107.5 -330.5t-266.5 -131.5zM1747 -20q-110 0 -174 80t-64 214q0 198 107.5 330.5t263.5 132.5q113 0 177.5 -80t64.5 -215q0 -198 -108 -330t-267 -132z M1071 106q80 0 137.5 95.5t57.5 230.5q0 81 -28 129.5t-79 48.5q-80 0 -136 -95t-56 -230q0 -82 27 -130.5t77 -48.5zM1769 106q82 0 139.5 95.5t57.5 230.5q0 81 -28 129.5t-78 48.5q-82 0 -138.5 -95t-56.5 -230q0 -81 27.5 -130t76.5 -49z" glyph-name="perthousand" horiz-adv-x="2205" unicode="‰"/><glyph d="M479 217h-205l-192 315l303 316h209l-301 -322z" glyph-name="guilsinglleft" horiz-adv-x="663" unicode="‹"/><glyph d="M70 217l303 322l-187 309h205l191 -316l-301 -315h-211z" glyph-name="guilsinglright" horiz-adv-x="665" unicode="›"/><glyph d="M-526 0l1323 1577h168l-1323 -1577h-168z" glyph-name="fraction" horiz-adv-x="344" unicode="⁄"/><glyph d="M1032 1419q-176 0 -318 -122.5t-210 -327.5h598l-68 -97h-557q-16 -80 -22 -155h473l-70 -96h-405q5 -212 99.5 -337.5t256.5 -125.5q97 0 206.5 41t192.5 108l66 -153q-108 -78 -246 -126t-258 -48q-251 0 -395 174t-144 464v3h-147l14 94h138q7 93 22 157h-129l14 95 h138q87 286 296 458t478 172q115 0 228.5 -34t184.5 -90l-116 -158q-54 47 -141.5 75.5t-178.5 28.5z" glyph-name="Euro" horiz-adv-x="1398" unicode="€"/><glyph d="M713 1477h-174l-86 -490h-131l86 490h-172l16 100h479zM1286 1577h178l-104 -590h-129l80 434h-2l-242 -434h-100l-78 434h-2l-74 -434h-123l105 590h176l76 -436h2z" glyph-name="trademark" horiz-adv-x="1437" unicode="™"/><glyph d="M1403 1577h168l-1323 -1577h-168zM276 692l115 647h-180l16 105q101 0 160 30.5t96 102.5h109l-158 -885h-158zM1554 461q69 -23 106.5 -71t37.5 -111q0 -127 -109.5 -209t-277.5 -82q-134 0 -213.5 61.5t-79.5 161.5q0 89 58.5 155t158.5 97v2q-115 48 -115 162 q0 118 99.5 194t253.5 76q123 0 195.5 -56.5t72.5 -150.5q0 -78 -50.5 -137.5t-136.5 -89.5v-2zM1450 770q-74 0 -122 -41t-48 -104q0 -50 33.5 -79.5t91.5 -29.5q74 0 122 42t48 106q0 48 -33.5 77t-91.5 29zM1335 115q87 0 144 46.5t57 119.5q0 57 -41.5 91t-110.5 34 q-87 0 -143.5 -47.5t-56.5 -120.5q0 -56 40.5 -89.5t110.5 -33.5z" glyph-name="oneeighth" horiz-adv-x="1818" unicode="⅛"/><glyph d="M795 969q0 -131 -102.5 -210t-278.5 -79q-130 0 -200.5 63t-70.5 179q0 20 2 43h152q-2 -16 -2 -29q0 -62 36.5 -96.5t104.5 -34.5q91 0 145 45.5t54 120.5q0 57 -41.5 88t-116.5 31h-24l16 98h2l2 12h16q87 0 137 42.5t50 113.5q0 52 -32 80t-93 28q-66 0 -113.5 -41 t-64.5 -116h-150q32 133 125.5 207.5t226.5 74.5q128 0 197.5 -54.5t69.5 -152.5q0 -171 -193 -233v-2q71 -22 108.5 -68t37.5 -110zM1647 1577h168l-1323 -1577h-168zM1798 461q69 -23 106.5 -71t37.5 -111q0 -127 -110 -209t-278 -82q-134 0 -213 61t-79 162 q0 89 58.5 155t158.5 97v2q-115 48 -115 162q0 118 99 194t253 76q123 0 196 -56.5t73 -150.5q0 -78 -50.5 -137.5t-136.5 -89.5v-2zM1694 770q-74 0 -122 -41t-48 -104q0 -50 33.5 -79.5t91.5 -29.5q74 0 122 42t48 106q0 48 -33.5 77t-91.5 29zM1579 115q87 0 144 46.5 t57 119.5q0 57 -41.5 91t-110.5 34q-87 0 -144 -47.5t-57 -120.5q0 -56 41 -89.5t111 -33.5z" glyph-name="threeeighths" horiz-adv-x="2058" unicode="⅜"/><glyph d="M821 1044q0 -167 -108.5 -265.5t-290.5 -98.5q-138 0 -210.5 66t-72.5 188h154q2 -60 41 -93.5t108 -33.5q96 0 154.5 57.5t58.5 155.5q0 66 -38.5 103.5t-108.5 37.5q-64 0 -113 -33t-78 -92h-153l168 541h518l-23 -123h-378l-84 -254l2 -2q93 80 221 80 q112 0 172.5 -61.5t60.5 -172.5zM1655 1577h168l-1323 -1577h-168zM1806 461q69 -23 106.5 -71t37.5 -111q0 -127 -109.5 -209t-277.5 -82q-134 0 -213.5 61.5t-79.5 161.5q0 89 58.5 155t158.5 97v2q-115 48 -115 162q0 118 99 194t253 76q123 0 196 -56.5t73 -150.5 q0 -78 -50.5 -137.5t-136.5 -89.5v-2zM1702 770q-74 0 -122 -41t-48 -104q0 -50 33.5 -79.5t91.5 -29.5q74 0 122 42t48 106q0 48 -33.5 77t-91.5 29zM1587 115q87 0 144 46.5t57 119.5q0 57 -41.5 91t-110.5 34q-87 0 -143.5 -47.5t-56.5 -120.5q0 -56 40.5 -89.5 t110.5 -33.5z" glyph-name="fiveeighths" horiz-adv-x="2066" unicode="⅝"/><glyph d="M1518 1577h168l-1324 -1577h-167zM725 1452v2h-506l23 123h639l-25 -131q-159 -140 -270 -340t-148 -414h-166q38 212 158 412.5t295 347.5zM1669 461q69 -23 106 -71t37 -111q0 -127 -109.5 -209t-277.5 -82q-134 0 -213 61t-79 162q0 89 58.5 155t158.5 97v2 q-115 48 -115 162q0 118 99 194t253 76q123 0 195.5 -56.5t72.5 -150.5q0 -78 -50 -137.5t-136 -89.5v-2zM1565 770q-74 0 -122 -41t-48 -104q0 -50 33.5 -79.5t91.5 -29.5q74 0 122 42t48 106q0 48 -33.5 77t-91.5 29zM1450 115q87 0 144 46.5t57 119.5q0 57 -41.5 91 t-110.5 34q-87 0 -144 -47.5t-57 -120.5q0 -56 41 -89.5t111 -33.5z" glyph-name="seveneighths" horiz-adv-x="1945" unicode="⅞"/><glyph d="M823 1536q226 0 355 -164t129 -438q0 -207 -65 -385.5t-178 -302.5t-269 -195t-334 -71q-199 0 -315.5 94.5t-116.5 251.5q0 165 134.5 294.5t374 203.5t549.5 83v4q0 204 -81 326.5t-224 122.5q-102 0 -207.5 -52.5t-175.5 -138.5l-123 105q104 118 254.5 190t292.5 72z M496 156q214 0 372.5 158t202.5 415q-240 -3 -426 -51t-289.5 -134.5t-103.5 -197.5q0 -87 65.5 -138.5t178.5 -51.5z" glyph-name="partialdiff" horiz-adv-x="1349" unicode="∂"/><glyph d="M1219 946l-107 -90q66 -107 66 -250q0 -179 -83 -322.5t-228 -222.5t-324 -79q-204 0 -324 114l-108 -92l-62 74l109 92q-66 107 -66 250q0 180 83 322.5t228.5 222t327.5 79.5q202 0 320 -112l104 88zM209 436q0 -109 41 -186l713 606q-93 90 -250 90q-216 0 -360 -144 t-144 -366zM1061 594q0 104 -41 184l-713 -606q92 -92 252 -92q216 0 359 145.5t143 368.5z" glyph-name="emptyset" horiz-adv-x="1275" unicode="∅"/><glyph d="M1870 1577l-33 -186h-281l-329 -1862h-205l330 1862h-660l-330 -1862h-204l329 1862h-282l31 186h1634z" glyph-name="product" horiz-adv-x="1744" unicode="∏"/><glyph d="M-113 -471l25 139l776 891l-444 879l24 139h1147l-29 -170h-901l443 -848l-766 -860h944l-31 -170h-1188z" glyph-name="summation" horiz-adv-x="1320" unicode="∑"/><glyph d="M121 438l26 156h805l-26 -156h-805z" glyph-name="minus" horiz-adv-x="1077" unicode="−"/><glyph d="M1319 1577h229l-960 -1802h-232l-118 659h-252l28 170h422l78 -592z" glyph-name="radical" horiz-adv-x="1341" unicode="√"/><glyph d="M1235 915q153 0 241.5 -89.5t88.5 -239.5q0 -206 -134.5 -339.5t-336.5 -133.5q-114 0 -190.5 55.5t-104.5 155.5q-59 -99 -158 -155t-221 -56q-154 0 -242 89t-88 240q0 206 134.5 339.5t338.5 133.5q113 0 189 -55.5t104 -154.5q59 98 159 154t220 56zM479 279 q109 0 182.5 79.5t73.5 200.5q0 87 -46.5 139t-127.5 52q-111 0 -184.5 -80t-73.5 -201q0 -87 47 -138.5t129 -51.5zM1096 279q109 0 182.5 79.5t73.5 200.5q0 87 -46.5 139t-127.5 52q-111 0 -184.5 -80t-73.5 -201q0 -87 47 -138.5t129 -51.5z" glyph-name="infinity" horiz-adv-x="1660" unicode="∞"/><glyph d="M16 -492q-65 0 -128 14.5t-101 39.5l72 149q69 -37 155 -37q92 0 157.5 62t84.5 164l229 1296q32 181 155 291t292 110q147 0 229 -53l-71 -149q-66 37 -154 37q-92 0 -158.5 -62t-85.5 -164l-229 -1296q-31 -181 -154 -291.5t-293 -110.5z" glyph-name="integral" horiz-adv-x="940" unicode="∫"/><glyph d="M133 543q25 136 109.5 212t212.5 76q76 0 141 -18.5t104.5 -41.5t95 -41.5t113.5 -18.5q57 0 98 34.5t56 94.5h102q-25 -137 -109 -213t-210 -76q-76 0 -141.5 19t-104.5 41.5t-95 41.5t-114 19q-57 0 -97.5 -33.5t-57.5 -95.5h-103zM68 178q26 137 110 213t211 76 q76 0 141.5 -19t105 -41.5t95.5 -41.5t113 -19q56 0 97 34t58 95h103q-25 -136 -109.5 -212.5t-210.5 -76.5q-76 0 -142 19t-105 41.5t-94.5 41.5t-112.5 19q-58 0 -99.5 -34t-58.5 -95h-102z" glyph-name="approxequal" horiz-adv-x="1243" unicode="≈"/><glyph d="M952 594h-327l-74 -156h373l-27 -157h-420l-131 -281h-100l131 281h-285l29 157h330l73 156h-377l29 158h422l125 268h100l-125 -268h283z" glyph-name="notequal" horiz-adv-x="1079" unicode="≠"/><glyph d="M1018 1030l-27 -160l-645 -211l572 -202l-29 -160l-752 291l8 53l9 41v2l10 53zM33 0l26 158h805l-26 -158h-805z" glyph-name="lessequal" horiz-adv-x="1067" unicode="≤"/><glyph d="M979 737l-18 -96l-11 -53l-854 -291l29 160l641 209l-569 204l28 160zM43 0l27 158h804l-26 -158h-805z" glyph-name="greaterequal" horiz-adv-x="1056" unicode="≥"/><glyph d="M401 -43l-340 553l535 553l340 -553zM444 195l289 315l-178 315l-291 -315z" glyph-name="lozenge" horiz-adv-x="1005" unicode="◊"/><glyph d="M156 -20q-15 0 -25 10.5t-10 25.5q0 21 10 31l700 698h-663q-47 0 -47 39q0 16 14 33l696 701h-669q-41 0 -41 38v3q0 38 41 38h758q47 0 47 -41q0 -20 -17 -34l-698 -697h676q17 0 29 -12t12 -29v-669l694 692q13 16 35 16q37 0 37 -45v-663l696 692q13 16 33 16 q15 0 25 -12t10 -27q0 -18 -13 -28l-753 -762q-14 -14 -35 -14q-41 0 -41 47v663l-694 -696q-14 -14 -35 -14q-41 0 -41 47v663l-697 -696q-14 -14 -34 -14z" glyph-name="uniF8FF" horiz-adv-x="2609" unicode=""/><glyph d="M993 1704l244 342h213l-299 -342h-158zM430 -20q-172 0 -283.5 124.5t-111.5 327.5q0 63 4 98h201q-4 -23 -4 -63q0 -141 62 -225t167 -84q117 0 203.5 85t111.5 224l197 1110h215l-195 -1096q-42 -246 -188.5 -373.5t-378.5 -127.5z" glyph-name="uni00A40301" horiz-adv-x="1177"/><glyph d="M401 1298q-50 0 -78 27t-28 72q0 60 42 98.5t105 38.5q49 0 78 -27.5t29 -70.5q0 -60 -42.5 -99t-105.5 -39zM72 0l188 1061h205l-189 -1061h-204z" glyph-name="i.loclTRK" horiz-adv-x="536"/><glyph d="M287 1235l243 342h213l-299 -342h-157zM-10 -471l270 1532h205l-270 -1532h-205z" glyph-name="uni006A0301" horiz-adv-x="536"/><glyph d="M602 -20q-224 0 -344.5 158t-120.5 442q0 296 92.5 527t263.5 360.5t394 129.5t343 -157.5t120 -442.5q0 -296 -92 -527t-262.5 -360.5t-393.5 -129.5zM633 158q145 0 259 110t175 297.5t61 417.5q0 206 -71 321t-203 115q-145 0 -259 -110t-175.5 -297.5t-61.5 -417.5 q0 -206 71.5 -321t203.5 -115z" glyph-name="zero.lf" horiz-adv-x="1396"/><glyph d="M627 1577h145l-278 -1577h-215l213 1208h-334l26 148q179 0 278 49t165 172z" glyph-name="one.lf" horiz-adv-x="776"/><glyph d="M268 176v-4h873l-31 -172h-1112l33 188q483 242 750.5 501.5t267.5 496.5q0 107 -67 170t-183 63q-138 0 -244 -93t-141 -245h-207q56 232 228 374t399 142q205 0 325.5 -107.5t120.5 -283.5q0 -143 -77.5 -287.5t-217 -275t-319.5 -247.5t-398 -220z" glyph-name="two.lf" horiz-adv-x="1284"/><glyph d="M883 811q136 -37 210 -124t74 -206q0 -218 -182 -359.5t-463 -141.5q-209 0 -329.5 113t-120.5 306q0 51 4 78h207q-4 -20 -4 -57q0 -122 73.5 -193t202.5 -71q171 0 282 91.5t111 235.5q0 111 -83 178.5t-224 67.5h-45l20 127h2l5 31h30q164 0 269.5 87t105.5 224 q0 102 -68 162.5t-184 60.5q-129 0 -227.5 -89.5t-130.5 -235.5h-203q51 227 215 364t381 137q204 0 324 -99t120 -263q0 -153 -100 -262t-272 -158v-4z" glyph-name="three.lf" horiz-adv-x="1282"/><glyph d="M1233 559l-31 -170h-205l-67 -389h-215l69 389h-761l32 184l887 1004h264l-178 -1018h205zM956 1362l-700 -797l-2 -6h565l142 803h-5z" glyph-name="four.lf" horiz-adv-x="1294"/><glyph d="M1247 1405h-672l-172 -524l7 -4q83 81 188 125.5t217 44.5q187 0 295.5 -117t108.5 -312q0 -185 -88.5 -331.5t-242.5 -226.5t-345 -80q-215 0 -342 111t-127 296q0 19 2 39h209v-18q2 -114 79.5 -182t208.5 -68q181 0 300.5 121t119.5 309q0 133 -76 213t-208 80 q-114 0 -217.5 -71t-161.5 -189h-209l293 956h864z" glyph-name="five.lf" horiz-adv-x="1290"/><glyph d="M1337 1153h-209q5 35 5 39q-1 109 -67 168t-185 59q-194 0 -333.5 -171.5t-187.5 -461.5h5q79 113 208.5 173.5t298.5 60.5q194 0 299 -104t105 -293q0 -193 -85 -340t-234 -225t-339 -78q-487 0 -487 559q0 231 56 427t157 335t247.5 217.5t321.5 78.5q204 0 316 -100 t112 -280q0 -35 -4 -64zM762 850q-185 0 -295.5 -107.5t-110.5 -291.5q0 -134 77.5 -213.5t205.5 -79.5q187 0 298.5 113t111.5 302q0 131 -75 204t-212 73z" glyph-name="six.lf" horiz-adv-x="1368"/><glyph d="M1294 1577l-32 -184q-290 -259 -491.5 -627t-270.5 -766h-226q69 396 282 766.5t523 634.5v4h-903l31 172h1087z" glyph-name="seven.lf" horiz-adv-x="1155"/><glyph d="M958 821q123 -38 192 -125t69 -204q0 -147 -84 -264.5t-233 -182.5t-335 -65q-226 0 -358.5 105.5t-132.5 281.5q0 165 107 284.5t290 171.5v4q-101 37 -158 115.5t-57 179.5q0 136 76.5 244.5t212.5 169.5t305 61q206 0 327 -98t121 -260q0 -146 -92.5 -254.5 t-249.5 -159.5v-4zM821 1419q-151 0 -248.5 -83.5t-97.5 -215.5q0 -99 68.5 -159t185.5 -60q150 0 248 85t98 216q0 98 -68.5 157.5t-185.5 59.5zM600 158q173 0 286 94.5t113 241.5q0 111 -80 179t-217 68q-175 0 -288 -94.5t-113 -240.5q0 -112 80.5 -180t218.5 -68z" glyph-name="eight.lf" horiz-adv-x="1329"/><glyph d="M836 1597q495 0 495 -559q0 -308 -96 -548.5t-274 -375t-410 -134.5q-213 0 -329 109t-116 306q0 31 3 72h208q0 -7 -1 -22t-1 -23q0 -126 68.5 -195t194.5 -69q201 0 344 180t186 485h-4q-77 -107 -207 -165t-299 -58q-194 0 -301 101.5t-107 283.5q0 185 83.5 325 t229.5 213.5t333 73.5zM709 770q183 0 291 99t108 268q0 125 -78.5 203.5t-206.5 78.5q-185 0 -294 -104t-109 -281q0 -125 75.5 -194.5t213.5 -69.5z" glyph-name="nine.lf" horiz-adv-x="1370"/><glyph d="M547 -20q-211 0 -333 132.5t-122 354.5q0 153 51.5 287t140 228t212.5 148t264 54q212 0 334.5 -133t122.5 -355q0 -153 -51.5 -286.5t-140.5 -227.5t-213 -148t-265 -54zM578 145q119 0 216.5 69t153.5 191.5t56 272.5q0 154 -73 247t-200 93q-119 0 -217.5 -69 t-154.5 -191t-56 -271q0 -155 73.5 -248.5t201.5 -93.5z" glyph-name="zero.osf" horiz-adv-x="1288"/><glyph d="M514 1163h135l-205 -1163h-204l143 813h-287l25 139q156 0 244.5 47.5t148.5 163.5z" glyph-name="one.osf" horiz-adv-x="706"/><glyph d="M258 162v-4h795l-27 -158h-1030l29 170q422 132 663.5 309.5t241.5 356.5q0 85 -66 135.5t-176 50.5q-128 0 -222.5 -75t-123.5 -199h-197q44 196 201 316t369 120q194 0 307 -88.5t113 -237.5q0 -223 -234.5 -408t-642.5 -288z" glyph-name="two.osf" horiz-adv-x="1198"/><glyph d="M795 500q117 -35 181 -113t64 -184q0 -196 -172 -322.5t-438 -126.5q-194 0 -308 102.5t-114 276.5q0 14 4 68h195q-2 -18 -2 -47q0 -109 69 -173.5t187 -64.5q162 0 267.5 80.5t105.5 206.5q0 102 -79 162.5t-214 60.5h-41l26 147h27q152 0 249 71.5t97 186.5 q0 87 -64 139t-176 52q-119 0 -209.5 -76.5t-121.5 -202.5h-191q47 198 200.5 319.5t356.5 121.5q192 0 305 -87t113 -233q0 -128 -84.5 -220.5t-232.5 -139.5v-4z" glyph-name="three.osf" horiz-adv-x="1189"/><glyph d="M1098 158l-27 -158h-197l-38 -225h-205l39 225h-711l33 172l856 993h231l-176 -1007h195zM834 928l-648 -766v-4h514l138 770h-4z" glyph-name="four.osf" horiz-adv-x="1206"/><glyph d="M1139 1006h-668l-149 -439l4 -2q76 68 177.5 107t207.5 39q183 0 289 -105t106 -280q0 -165 -83 -296t-228.5 -203.5t-327.5 -72.5q-209 0 -334 103t-125 274q0 13 2 21h203q0 -104 78 -168t205 -64q171 0 284 106t113 271q0 118 -73.5 189t-201.5 71 q-112 0 -211.5 -59.5t-150.5 -155.5h-203l262 821h852z" glyph-name="five.osf" horiz-adv-x="1218"/><glyph d="M1278 1077h-193v35q0 103 -64 160t-181 57q-190 0 -327 -161.5t-181 -438.5h4q75 105 203 161t295 56q186 0 286.5 -97.5t100.5 -273.5q0 -272 -175.5 -433.5t-455.5 -161.5q-469 0 -469 528q0 289 91.5 513t261.5 349t392 125q199 0 307.5 -96t108.5 -269q0 -7 -4 -53z M725 791q-179 0 -286 -101t-107 -270q0 -127 75.5 -201t204.5 -74q180 0 288 105t108 278q0 124 -74 193.5t-209 69.5z" glyph-name="six.osf" horiz-adv-x="1314"/><glyph d="M1141 1163l-29 -168q-282 -228 -475 -550t-254 -670h-217q62 347 265 670.5t505 555.5v5h-827l26 157h1006z" glyph-name="seven.osf" horiz-adv-x="1073"/><glyph d="M930 766q120 -35 187 -116.5t67 -190.5q0 -138 -81.5 -247.5t-226.5 -170.5t-325 -61q-222 0 -352.5 100t-130.5 266q0 153 103.5 264t279.5 158v4q-101 37 -156 109.5t-55 169.5q0 193 163 318.5t414 125.5q203 0 321.5 -92.5t118.5 -247.5q0 -136 -88 -237t-239 -148 v-4zM446 1047q0 -95 68.5 -151t187.5 -56q149 0 245.5 78t96.5 202q0 94 -69 151.5t-187 57.5q-150 0 -246 -79t-96 -203zM580 145q171 0 283 89t112 227q0 107 -80.5 171t-218.5 64q-171 0 -282 -88t-111 -225q0 -107 80 -172.5t217 -65.5z" glyph-name="eight.osf" horiz-adv-x="1296"/><glyph d="M719 1184q481 0 481 -510q0 -272 -89.5 -480.5t-257.5 -324t-390 -115.5q-199 0 -308.5 91.5t-109.5 254.5q0 25 2 37h195q-2 -10 -2 -20q0 -92 67.5 -144.5t186.5 -52.5q186 0 317 145t176 396h-4q-72 -99 -195.5 -152t-285.5 -53q-192 0 -296 95t-104 265 q0 172 79.5 301.5t219 198t318.5 68.5zM598 414q180 0 285.5 92t105.5 250q0 122 -76.5 192t-205.5 70q-181 0 -287.5 -97t-106.5 -262q0 -117 74.5 -181t210.5 -64z" glyph-name="nine.osf" horiz-adv-x="1288"/><glyph d="M612 -20q-216 0 -339 168t-123 450q0 209 58.5 395t158.5 318.5t238 209t292 76.5q216 0 339.5 -168.5t123.5 -449.5q0 -280 -99.5 -509.5t-271 -359.5t-377.5 -130zM643 158q134 0 248 108t181 295t67 408q0 205 -72.5 327.5t-200.5 122.5q-134 0 -247.5 -108.5 t-179.5 -295t-66 -407.5q0 -206 71 -328t199 -122z" glyph-name="zero.tf" horiz-adv-x="1419"/><glyph d="M805 172h405l-28 -172h-1082l31 172h459l178 1006h-350l24 147q186 0 290 56.5t173 195.5h148z" glyph-name="one.tf" horiz-adv-x="1419"/><glyph d="M336 176v-4h872l-30 -172h-1112l32 188q483 242 750.5 501.5t267.5 496.5q0 107 -67 170t-183 63q-138 0 -244 -93t-141 -245h-207q56 232 228 374t399 142q205 0 326 -107.5t121 -283.5q0 -143 -77.5 -287.5t-217 -275t-319.5 -247.5t-398 -220z" glyph-name="two.tf" horiz-adv-x="1419"/><glyph d="M952 811q135 -37 210 -124t75 -206q0 -218 -183 -359.5t-464 -141.5q-209 0 -330 113t-121 306q0 51 4 78h207q-4 -20 -4 -57q0 -122 74 -193t203 -71q171 0 282 91.5t111 235.5q0 112 -82 179t-225 67h-45l22 127l6 31h31q163 0 268 87t105 224q0 102 -67 162.5 t-185 60.5q-129 0 -228 -89.5t-131 -235.5h-202q51 227 215 364t383 137q204 0 323 -99t119 -263q0 -153 -99.5 -262.5t-271.5 -157.5v-4z" glyph-name="three.tf" horiz-adv-x="1419"/><glyph d="M1294 559l-30 -170h-205l-68 -389h-215l70 389h-760l31 184l887 1004h264l-178 -1018h204zM1018 1362l-701 -797l-2 -6h566l141 803h-4z" glyph-name="four.tf" horiz-adv-x="1419"/><glyph d="M1311 1405h-672l-170 -524l4 -4q83 80 189 125t217 45q189 0 297 -116.5t108 -312.5q0 -185 -88.5 -331.5t-243 -226.5t-346.5 -80q-213 0 -341 111t-128 296q0 19 2 39h211v-18q0 -114 78 -182t209 -68q182 0 302 121t120 309q0 133 -76.5 213t-208.5 80 q-114 0 -218 -71t-161 -189h-211l293 956h864z" glyph-name="five.tf" horiz-adv-x="1419"/><glyph d="M1364 1153h-209q0 7 1 20t1 19q0 108 -66 167.5t-184 59.5q-194 0 -334.5 -171.5t-187.5 -461.5h4q78 113 208.5 173.5t299.5 60.5q194 0 298.5 -104t104.5 -293q0 -193 -84.5 -340t-233 -225t-339.5 -78q-243 0 -365 141t-122 418q0 231 56 427t157 335t247.5 217.5 t321.5 78.5q204 0 316 -100t112 -280q0 -35 -2 -64zM786 850q-185 0 -294 -107.5t-109 -291.5q0 -135 77 -214t206 -79q186 0 296.5 113t110.5 302q0 131 -75 204t-212 73z" glyph-name="six.tf" horiz-adv-x="1419"/><glyph d="M1440 1577l-33 -184q-295 -258 -500.5 -626t-275.5 -767h-223q69 397 284 767.5t531 633.5v4h-928l31 172h1114z" glyph-name="seven.tf" horiz-adv-x="1419"/><glyph d="M1004 821q123 -38 191.5 -125t68.5 -204q0 -147 -84 -264.5t-233 -182.5t-335 -65q-227 0 -360 105.5t-133 281.5q0 164 107.5 284t291.5 172v4q-101 37 -158 115.5t-57 179.5q0 136 76.5 244.5t212.5 169.5t305 61q206 0 327.5 -98t121.5 -260q0 -146 -92.5 -254.5 t-249.5 -159.5v-4zM866 1419q-151 0 -248.5 -83.5t-97.5 -215.5q0 -99 68.5 -159t185.5 -60q150 0 248 85t98 216q0 98 -68.5 157.5t-185.5 59.5zM645 158q173 0 286 94.5t113 241.5q0 111 -79.5 179t-216.5 68q-175 0 -288.5 -94.5t-113.5 -240.5q0 -112 80.5 -180 t218.5 -68z" glyph-name="eight.tf" horiz-adv-x="1419"/><glyph d="M862 1597q247 0 370.5 -141.5t123.5 -417.5q0 -308 -96.5 -548.5t-274.5 -375t-410 -134.5q-213 0 -328.5 109t-115.5 306q0 45 2 72h209q0 -7 -1 -22t-1 -23q0 -126 68.5 -195t195.5 -69q200 0 343.5 180t187.5 485h-7q-77 -107 -207 -165t-298 -58q-194 0 -300 101.5 t-106 283.5q0 279 179.5 445.5t465.5 166.5zM733 770q183 0 292.5 99.5t109.5 267.5q0 125 -78.5 203.5t-208.5 78.5q-185 0 -294.5 -104t-109.5 -281q0 -125 75.5 -194.5t213.5 -69.5z" glyph-name="nine.tf" horiz-adv-x="1419"/><glyph d="M332 -12q-131 0 -206 96.5t-75 257.5q0 236 127.5 395.5t313.5 159.5q129 0 203.5 -96.5t74.5 -257.5q0 -155 -58 -282.5t-158.5 -200t-221.5 -72.5zM352 115q104 0 180 124.5t76 297.5q0 107 -37 170t-102 63q-104 0 -180 -124.5t-76 -297.5q0 -107 37 -170t102 -63z" glyph-name="zero.dnom" horiz-adv-x="851"/><glyph d="M332 885h108l-157 -885h-158l115 647h-181l17 105q101 0 160 30.5t96 102.5z" glyph-name="one.dnom" horiz-adv-x="512"/><glyph d="M168 125v-2h489l-20 -123h-660l23 133q266 129 413.5 266t147.5 260q0 53 -32.5 82t-90.5 29q-72 0 -122.5 -43t-69.5 -121h-152q34 138 130 214.5t237 76.5q128 0 199 -58t71 -161q0 -81 -45.5 -161.5t-125.5 -151t-178 -130.5t-214 -110z" glyph-name="two.dnom" horiz-adv-x="794"/><glyph d="M522 455q70 -22 108 -68t38 -111q0 -131 -102.5 -209.5t-278.5 -78.5q-130 0 -200.5 62.5t-70.5 178.5q0 20 2 43h152q-2 -16 -2 -28q0 -62 36.5 -96.5t104.5 -34.5q91 0 145 45.5t54 120.5q0 57 -41.5 87.5t-116.5 30.5h-24l16 99h2l2 12h16q87 0 137 42.5t50 113.5 q0 52 -32 80t-93 28q-66 0 -113.5 -41.5t-64.5 -116.5h-150q32 133 126 208t227 75q128 0 197 -54.5t69 -152.5q0 -171 -193 -233v-2z" glyph-name="three.dnom" horiz-adv-x="790"/><glyph d="M717 328l-21 -123h-118l-37 -205h-158l37 205h-432l22 131l494 549h192l-98 -557h119zM514 729l-360 -399v-2h290l72 401h-2z" glyph-name="four.dnom" horiz-adv-x="808"/><glyph d="M705 762h-379l-84 -254l2 -2q93 80 221 80q112 0 172.5 -61.5t60.5 -172.5q0 -167 -108.5 -265.5t-290.5 -98.5q-138 0 -210.5 66t-72.5 188h154q2 -60 41 -93.5t108 -33.5q96 0 154.5 57.5t58.5 155.5q0 66 -38.5 103.5t-108.5 37.5q-129 0 -190 -125h-154l168 541h518z" glyph-name="five.dnom" horiz-adv-x="798"/><glyph d="M487 770q-101 0 -174.5 -87t-99.5 -237h4q94 127 287 127q109 0 169 -58.5t60 -162.5q0 -166 -109 -265t-284 -99q-144 0 -216.5 82.5t-72.5 240.5q0 263 124.5 424.5t332.5 161.5q124 0 192 -59.5t68 -165.5v-27h-154q0 61 -32 93t-95 32zM420 453q-93 0 -149 -52.5 t-56 -142.5q0 -67 38.5 -105t106.5 -38q95 0 151 54t56 146q0 65 -38.5 101.5t-108.5 36.5z" glyph-name="six.dnom" horiz-adv-x="841"/><glyph d="M731 885l-24 -131q-159 -140 -270 -340t-148 -414h-166q38 212 157.5 413t294.5 347v2h-505l22 123h639z" glyph-name="seven.dnom" horiz-adv-x="706"/><glyph d="M555 461q69 -23 106 -71t37 -111q0 -127 -109.5 -209t-277.5 -82q-134 0 -213.5 61.5t-79.5 161.5q0 89 58.5 155t159.5 97v2q-115 48 -115 162q0 118 99 194t253 76q123 0 195.5 -56.5t72.5 -150.5q0 -78 -50 -137.5t-136 -89.5v-2zM451 770q-74 0 -122 -41t-48 -104 q0 -50 33.5 -79.5t91.5 -29.5q74 0 121.5 42t47.5 106q0 48 -33 77t-91 29zM336 115q87 0 144 46.5t57 119.5q0 57 -41.5 91t-110.5 34q-87 0 -144 -47.5t-57 -120.5q0 -56 41 -89.5t111 -33.5z" glyph-name="eight.dnom" horiz-adv-x="819"/><glyph d="M467 897q147 0 221 -83t74 -243q0 -261 -125.5 -422t-331.5 -161q-129 0 -199.5 63.5t-70.5 177.5q0 19 2 35h151v-20q0 -61 37 -95t101 -34q104 0 177.5 92.5t96.5 249.5h-2q-92 -121 -285 -121q-111 0 -171 56t-60 157q0 159 106 253.5t279 94.5zM397 457 q93 0 147 47.5t54 130.5q0 60 -40 97.5t-107 37.5q-92 0 -146.5 -49.5t-54.5 -134.5q0 -62 38.5 -95.5t108.5 -33.5z" glyph-name="nine.dnom" horiz-adv-x="843"/><glyph d="M453 680q-131 0 -206 96.5t-75 257.5q0 236 127 395.5t313 159.5q129 0 204 -96.5t75 -257.5q0 -155 -58 -282.5t-158.5 -200t-221.5 -72.5zM473 807q104 0 180 124.5t76 297.5q0 107 -37 170t-102 63q-104 0 -180 -124.5t-76 -297.5q0 -107 37 -170t102 -63z" glyph-name="zero.numr" horiz-adv-x="851"/><glyph d="M455 1577h108l-157 -885h-158l114 647h-180l17 105q101 0 160 30.5t96 102.5z" glyph-name="one.numr" horiz-adv-x="512"/><glyph d="M289 817v-2h489l-20 -123h-660l23 133q265 129 413 266.5t148 260.5q0 52 -32 81t-91 29q-72 0 -122.5 -43t-69.5 -121h-152q34 138 130 214.5t237 76.5q128 0 199 -58t71 -161q0 -81 -45.5 -161.5t-125.5 -151t-178 -130.5t-214 -110z" glyph-name="two.numr" horiz-adv-x="792"/><glyph d="M645 1147q71 -22 108.5 -68t37.5 -110q0 -131 -102.5 -210t-278.5 -79q-130 0 -200.5 63t-70.5 179q0 20 2 43h152q-2 -16 -2 -29q0 -62 36.5 -96.5t104.5 -34.5q91 0 145 45.5t54 120.5q0 57 -41.5 88t-116.5 31h-24l16 98h2l2 12h16q87 0 137 42.5t50 113.5 q0 52 -32 80t-93 28q-66 0 -113.5 -41t-64.5 -116h-150q32 133 125.5 207.5t226.5 74.5q128 0 197.5 -54.5t69.5 -152.5q0 -171 -193 -233v-2z" glyph-name="three.numr" horiz-adv-x="790"/><glyph d="M840 1020l-21 -123h-119l-36 -205h-158l37 205h-432l22 131l494 549h192l-98 -557h119zM637 1421l-361 -399v-2h291l72 401h-2z" glyph-name="four.numr" horiz-adv-x="808"/><glyph d="M825 1454h-379l-84 -254l3 -2q93 80 221 80q112 0 172.5 -61.5t60.5 -172.5q0 -167 -108.5 -265.5t-290.5 -98.5q-138 0 -210.5 66t-72.5 188h154q2 -60 41 -93.5t108 -33.5q96 0 154.5 57.5t58.5 155.5q0 66 -38.5 103.5t-108.5 37.5q-64 0 -113 -33t-78 -92h-153 l168 541h518z" glyph-name="five.numr" horiz-adv-x="796"/><glyph d="M608 1462q-101 0 -174.5 -86.5t-99.5 -236.5h4q94 127 287 127q109 0 169 -59t60 -163q0 -166 -109 -265t-284 -99q-144 0 -216.5 83t-72.5 241q0 263 124.5 424t332.5 161q124 0 192 -59.5t68 -165.5v-27h-154q0 61 -32.5 93t-94.5 32zM541 1145q-93 0 -149 -52.5 t-56 -142.5q0 -67 38.5 -105t106.5 -38q95 0 151 54.5t56 146.5q0 65 -38.5 101t-108.5 36z" glyph-name="six.numr" horiz-adv-x="839"/><glyph d="M852 1577l-25 -131q-159 -140 -269.5 -340t-147.5 -414h-166q38 212 157.5 413t294.5 347v2h-506l23 123h639z" glyph-name="seven.numr" horiz-adv-x="706"/><glyph d="M678 1153q69 -23 106 -71t37 -111q0 -127 -109.5 -209t-277.5 -82q-134 0 -213.5 61.5t-79.5 161.5q0 89 58.5 155t158.5 97v2q-114 48 -114 162q0 118 99 194t253 76q123 0 195.5 -56.5t72.5 -150.5q0 -78 -50 -137.5t-136 -89.5v-2zM573 1462q-74 0 -122 -41t-48 -104 q0 -50 33.5 -79.5t91.5 -29.5q74 0 122 42t48 106q0 48 -33.5 77t-91.5 29zM459 807q87 0 143.5 46.5t56.5 119.5q0 57 -41 91t-110 34q-87 0 -144 -47.5t-57 -120.5q0 -56 41 -89.5t111 -33.5z" glyph-name="eight.numr" horiz-adv-x="819"/><glyph d="M590 1589q147 0 221 -83t74 -242q0 -261 -125.5 -422.5t-331.5 -161.5q-129 0 -199.5 64t-70.5 178q0 18 2 34h151v-20q0 -61 37 -95t101 -34q104 0 177.5 92.5t96.5 249.5h-2q-92 -121 -285 -121q-111 0 -171 56t-60 157q0 159 106 253.5t279 94.5zM520 1149 q93 0 147 47.5t54 130.5q0 60 -40.5 97.5t-107.5 37.5q-92 0 -146 -49.5t-54 -134.5q0 -62 38.5 -95.5t108.5 -33.5z" glyph-name="nine.numr" horiz-adv-x="843"/><glyph d="M504 -205l-230 1987h162l230 -1987h-162z" glyph-name="backslash.case" horiz-adv-x="851"/><glyph d="M426 1341q-53 0 -84 29.5t-31 77.5q0 64 45.5 106.5t114.5 42.5q53 0 83 -29t30 -77q0 -64 -45 -107t-113 -43zM78 0l241 1137h140l-158 -1137h-223z" glyph-name="exclamdown.case" horiz-adv-x="563"/><glyph d="M739 1341q-53 0 -82.5 29.5t-29.5 77.5q0 65 44 107t113 42q53 0 84 -29t31 -77q0 -64 -46 -107t-114 -43zM442 -18q-200 0 -316 94t-116 250q0 62 18.5 118t44.5 97.5t70.5 85.5t81 73.5t92.5 71.5q13 9 19 14q49 37 77.5 60t68.5 60.5t63.5 69t44 74t28.5 87.5h168 l-2 -13q-9 -53 -31.5 -102t-46 -84.5t-66 -78t-69.5 -66t-77 -64.5q-117 -99 -156 -142q-96 -106 -96 -222q0 -94 64.5 -149.5t174.5 -55.5q128 0 225 80.5t128 212.5h204q-51 -212 -214.5 -341.5t-381.5 -129.5z" glyph-name="questiondown.case" horiz-adv-x="1077"/><glyph d="M102 -205h-161l931 1987h160z" glyph-name="slash.case" horiz-adv-x="882"/><glyph d="M1561 1040h-246l-131 -462h248l-48 -166h-247l-115 -412h-213l115 412h-424l-115 -412h-211l117 412h-248l47 166h248l131 462h-248l47 166h248l105 371h213l-107 -371h422l102 371h213l-104 -371h248zM971 573l133 469h-426l-133 -469h426z" glyph-name="numbersign.lf" horiz-adv-x="1554"/><glyph d="M1276 727h-197l-80 -268h195l-47 -158h-193l-88 -301h-200l86 301h-328l-86 -301h-201l88 301h-196l45 158h198l78 268h-192l45 158h194l82 278h201l-82 -278h326l82 278h200l-82 -278h199zM803 455l82 276h-336l-84 -276h338z" glyph-name="numbersign.osf" horiz-adv-x="1329"/><glyph d="M356 1411q28 159 133 239.5t261 80.5l-31 -179q-56 0 -97 -35.5t-51 -93.5l-69 -395q-28 -161 -174 -237v-5q96 -68 96 -182q0 -28 -6 -55l-70 -393q-2 -12 -2 -29q0 -47 28 -74.5t77 -27.5l-33 -177q-133 0 -210 69t-77 185q0 37 6 64l70 395q2 12 2 33q0 50 -29.5 79 t-81.5 29l31 175q60 0 104 38t54 101z" glyph-name="braceleft.case" horiz-adv-x="645"/><glyph d="M526 983q0 -50 29.5 -78t81.5 -28l-31 -175q-60 0 -102.5 -38t-54.5 -103l-70 -395q-28 -158 -132 -238t-261 -80l32 177q55 0 95 36t51 95l69 393q26 155 175 237v5q-97 67 -97 184q0 18 6 53l70 395q2 12 2 29q0 47 -27.5 73.5t-74.5 26.5l30 179q133 0 210 -69 t77 -185q0 -37 -6 -66l-68 -395q-4 -20 -4 -33z" glyph-name="braceright.case" horiz-adv-x="645"/><glyph d="M784 1559h-198l-273 -1541h199l-29 -172h-413l331 1885h414z" glyph-name="bracketleft.case" horiz-adv-x="679"/><glyph d="M702 1731l-331 -1885h-414l31 172h198l273 1541h-199l29 172h413z" glyph-name="bracketright.case" horiz-adv-x="679"/><glyph d="M274 -154q-73 133 -113 323t-40 380q0 318 131 626t354 556h195q-223 -266 -351 -567.5t-128 -604.5q0 -188 38 -380t109 -333h-195z" glyph-name="parenleft.case" horiz-adv-x="634"/><glyph d="M119 -154h-195q224 264 353 565.5t129 604.5q0 184 -39.5 377.5t-110.5 337.5h195q73 -133 113 -323t40 -380q0 -317 -131 -625.5t-354 -556.5z" glyph-name="parenright.case" horiz-adv-x="632"/><glyph d="M162 668l26 151h1524l-24 -151h-1526z" glyph-name="emdash.case" horiz-adv-x="1806"/><glyph d="M162 668l26 151h940l-24 -151h-942z" glyph-name="endash.case" horiz-adv-x="1222"/><glyph d="M162 668l26 151h574l-25 -151h-575z" glyph-name="hyphen.case" horiz-adv-x="856"/><glyph d="M162 668l26 151h574l-25 -151h-575z" glyph-name="uni00AD.case" horiz-adv-x="856"/><glyph d="M524 422h-205l-192 315l303 316h209l-301 -322zM915 422h-204l-193 315l303 316h209l-301 -322z" glyph-name="guillemotleft.case" horiz-adv-x="1067"/><glyph d="M106 422l304 321l-187 310h205l190 -316l-301 -315h-211zM498 422l303 321l-187 310h205l191 -316l-301 -315h-211z" glyph-name="guillemotright.case" horiz-adv-x="1067"/><glyph d="M524 422h-205l-192 315l303 316h209l-301 -322z" glyph-name="guilsinglleft.case" horiz-adv-x="677"/><glyph d="M106 422l304 321l-187 310h205l190 -316l-301 -315h-211z" glyph-name="guilsinglright.case" horiz-adv-x="677"/><glyph d="M612 203q101 14 179 72.5t110 148.5h207q-57 -164 -199.5 -269.5t-324.5 -117.5l-35 -193h-98l34 193q-183 15 -287 135t-104 311q0 269 165 451t419 201l33 184h98l-33 -184q171 -13 274 -116t109 -265h-205q-6 86 -61.5 143.5t-144.5 69.5zM305 506q0 -123 55.5 -203.5 t153.5 -97.5l135 762q-150 -20 -247 -149t-97 -312z" glyph-name="cent.osf" horiz-adv-x="1193"/><glyph d="M1077 797h-194q2 10 2 30q0 77 -47.5 128.5t-130.5 64.5l-60 -340q47 -7 80 -13.5t77 -18.5t74 -25t62 -34.5t51.5 -47.5t32 -62t12.5 -80q0 -174 -142 -287.5t-368 -125.5l-28 -166h-99l29 166q-173 12 -275 109.5t-102 252.5q0 29 2 41h193v-27q0 -89 56.5 -147 t154.5 -70l67 381q-43 7 -75.5 13t-72.5 17.5t-69 24.5t-58 33t-47.5 44.5t-30 58.5t-11.5 74q0 163 134 270.5t345 118.5l29 163h96l-29 -163q158 -12 251 -103.5t93 -236.5q0 -8 -1 -22t-1 -21zM367 831q0 -58 48 -88t138 -47l57 326q-108 -8 -175.5 -60.5t-67.5 -130.5z M834 356q0 69 -56.5 104t-159.5 52l-63 -369q125 9 202 67t77 146z" glyph-name="dollar.osf" horiz-adv-x="1150"/><glyph d="M805 1024q-131 0 -235 -84t-154 -225h458l-55 -76h-426q-11 -47 -14 -111h360l-57 -73h-305q8 -143 80 -228.5t192 -85.5q70 0 153 30t146 77l62 -133q-83 -60 -191.5 -95.5t-204.5 -35.5q-202 0 -319.5 128t-120.5 343h-119l13 71h108q2 39 14 113h-102l12 74h111 q65 214 230.5 341.5t383.5 127.5q89 0 179.5 -25.5t150.5 -66.5l-104 -140q-42 33 -110 53.5t-136 20.5z" glyph-name="Euro.osf" horiz-adv-x="1146"/><glyph d="M1038 801h-190q2 10 2 28q0 88 -52.5 141.5t-142.5 53.5q-104 0 -170.5 -57t-66.5 -148q0 -15 2.5 -33t5 -31.5t9.5 -36.5t10 -32.5t12.5 -36.5t11.5 -33h354l-24 -137h-310q-3 -38 -15 -72.5t-38 -76t-76.5 -85.5t-121.5 -87v-4h700l-29 -154h-913l31 168 q248 121 252 311h-177l25 137h127q-2 6 -10 32.5t-11 36t-9 32.5t-8 36.5t-4.5 32.5t-2.5 35q0 157 134 259t339 102q164 0 261 -89.5t97 -240.5q0 -28 -2 -51z" glyph-name="sterling.osf" horiz-adv-x="1079"/><glyph d="M1282 1163l-577 -719h223l-15 -73h-241l-17 -88h242l-12 -74h-242l-37 -209h-196l36 209h-233l12 74h234l16 88h-233l14 73h215l-319 719h221l241 -559h4l443 559h221z" glyph-name="yen.osf" horiz-adv-x="1220"/><glyph d="M932 799l-29 -156h-301l-57 -324h-205l57 324h-297l27 156h299l57 323h205l-57 -323h301z" glyph-name="plus.case" horiz-adv-x="968"/><glyph d="M156 643l26 156h805l-26 -156h-805z" glyph-name="minus.case" horiz-adv-x="1083"/><glyph d="M997 989l-319 -270l225 -273l-160 -133l-223 271l-319 -271l-111 133l320 273l-224 270l158 135l223 -270l320 270z" glyph-name="multiply.case" horiz-adv-x="1026"/><glyph d="M590 909q-49 0 -77 27t-28 70q0 60 41.5 98.5t104.5 38.5q47 0 75.5 -27.5t28.5 -71.5q0 -59 -41.5 -97t-103.5 -38zM139 643l27 156h805l-27 -156h-805zM481 299q-49 0 -76.5 26.5t-27.5 69.5q0 60 41.5 98.5t103.5 38.5q49 0 77 -26.5t28 -71.5q0 -60 -41.5 -97.5 t-104.5 -37.5z" glyph-name="divide.case" horiz-adv-x="1046"/><glyph d="M184 799l29 157h805l-29 -157h-805zM129 485l29 158h803l-27 -158h-805z" glyph-name="equal.case" horiz-adv-x="1085"/><glyph d="M989 799h-327l-74 -156h373l-27 -158h-420l-131 -280h-100l131 280h-285l29 158h329l74 156h-377l29 157h422l125 269h100l-125 -269h283z" glyph-name="notequal.case" horiz-adv-x="1085"/><glyph d="M985 797l-16 -97h-2l-9 -53l-866 -352l31 166l678 264l-586 260l29 166z" glyph-name="greater.case" horiz-adv-x="1011"/><glyph d="M985 1151l-29 -166l-680 -268l586 -256l-28 -166l-742 352l17 96h2l8 54z" glyph-name="less.case" horiz-adv-x="1013"/><glyph d="M1053 942l-19 -96l-10 -53l-854 -291l29 160l641 208l-570 205l29 160zM117 205l26 157h805l-26 -157h-805z" glyph-name="greaterequal.case" horiz-adv-x="1118"/><glyph d="M1077 1235l-26 -160l-645 -211l571 -202l-29 -160l-751 291l8 53l8 41v2l10 53zM92 205l27 157h805l-27 -157h-805z" glyph-name="lessequal.case" horiz-adv-x="1124"/><glyph d="M729 954h301l-26 -157h-302l-49 -273h-204l49 273h-299l28 157h297l49 275h205zM94 205l27 155h805l-27 -155h-805z" glyph-name="plusminus.case" horiz-adv-x="1103"/><glyph d="M195 938h802l-73 -424h-205l47 268h-600z" glyph-name="logicalnot.case" horiz-adv-x="1069"/><glyph d="M326 584q-91 0 -144 64t-53 171q0 154 87 258.5t214 104.5q93 0 147 -64.5t54 -171.5q0 -155 -88 -258.5t-217 -103.5zM70 0l999 1167h143l-999 -1167h-143zM346 692q62 0 105 71.5t43 174.5q0 61 -21.5 99t-58.5 38q-62 0 -107 -72.5t-45 -173.5q0 -63 22.5 -100 t61.5 -37zM856 -16q-92 0 -145.5 64.5t-53.5 172.5q0 154 89 258.5t217 104.5q91 0 143.5 -64.5t52.5 -171.5q0 -156 -87 -260t-216 -104zM874 92q61 0 106.5 73t45.5 173q0 62 -23 99.5t-61 37.5q-63 0 -106 -71t-43 -173q0 -64 21 -101.5t60 -37.5z" glyph-name="percent.osf" horiz-adv-x="1267"/><glyph d="M326 584q-91 0 -144 64t-53 171q0 154 87 258.5t214 104.5q93 0 147 -64.5t54 -171.5q0 -155 -88 -258.5t-217 -103.5zM70 0l999 1167h143l-999 -1167h-143zM346 692q62 0 105 71.5t43 174.5q0 61 -21.5 99t-58.5 38q-62 0 -107 -72.5t-45 -173.5q0 -63 22.5 -100 t61.5 -37zM856 -16q-92 0 -145.5 64.5t-53.5 172.5q0 154 89 258.5t217 104.5q91 0 143.5 -64.5t52.5 -171.5q0 -156 -87 -260t-216 -104zM1425 -16q-91 0 -143.5 64.5t-52.5 172.5q0 155 87.5 259t215.5 104q91 0 144 -64.5t53 -171.5q0 -156 -87.5 -260t-216.5 -104z M874 92q61 0 106.5 73t45.5 173q0 62 -23 99.5t-61 37.5q-63 0 -106 -71t-43 -173q0 -64 21 -101.5t60 -37.5zM1444 92q62 0 106.5 72.5t44.5 173.5q0 62 -22.5 99.5t-61.5 37.5q-63 0 -106 -71t-43 -173q0 -64 21.5 -101.5t60.5 -37.5z" glyph-name="perthousand.osf" horiz-adv-x="1822"/><glyph d="M-608 1186q-47 0 -74 25t-27 67q0 58 40.5 95.5t101.5 37.5q47 0 73.5 -25.5t26.5 -68.5q0 -58 -39.5 -94.5t-101.5 -36.5zM-258 1186q-46 0 -73 25.5t-27 66.5q0 58 40.5 95.5t100.5 37.5q47 0 73.5 -25.5t26.5 -68.5q0 -58 -39.5 -94.5t-101.5 -36.5z" glyph-name="uni0308.case"/><glyph d="M-252 1178q-50 0 -78 26.5t-28 71.5q0 60 42 98.5t105 38.5q49 0 78 -26.5t29 -71.5q0 -60 -42.5 -98.5t-105.5 -38.5z" glyph-name="uni0307.case"/><glyph d="M-70 1188h-157l-181 342h213z" glyph-name="gravecomb.case"/><glyph d="M-485 1188l243 342h213l-299 -342h-157z" glyph-name="acutecomb.case"/><glyph d="M-827 1188l223 342h213l-279 -342h-157zM-510 1188l223 342h215l-280 -342h-158z" glyph-name="uni030B.case"/><glyph d="M-207 1516l176 -328h-168l-125 219h-4l-202 -219h-170l290 328h203z" glyph-name="uni0302.case"/><glyph d="M-199 1516h168l-288 -328h-205l-176 328h170l124 -220h5z" glyph-name="uni030C.case"/><glyph d="M-414 1180q-121 0 -189.5 70.5t-68.5 191.5q0 36 6 74h146q-4 -36 -4 -52q0 -71 35 -112t98 -41q72 0 127 56.5t74 148.5h145q-28 -154 -125 -245t-244 -91z" glyph-name="uni0306.case"/><glyph d="M-342 1174q-99 0 -156 52.5t-57 139.5q0 118 83.5 193t211.5 75q98 0 155.5 -52.5t57.5 -139.5q0 -118 -84 -193t-211 -75zM-324 1280q63 0 103.5 41.5t40.5 105.5q0 46 -27 73.5t-74 27.5q-61 0 -101 -41.5t-40 -106.5q0 -46 26 -73t72 -27z" glyph-name="uni030A.case"/><glyph d="M-844 1198q25 136 98 212.5t177 76.5q38 0 71.5 -12.5t57 -30.5t45.5 -36.5t47 -31t51 -12.5q46 0 81 35t48 96h102q-25 -136 -97.5 -212.5t-176.5 -76.5q-47 0 -87.5 19t-64 41.5t-56 41.5t-64.5 19q-45 0 -80.5 -35t-50.5 -94h-101z" glyph-name="tildecomb.case"/><glyph d="M-676 1202l27 154h606l-27 -154h-606z" glyph-name="uni0304.case"/></font>
</defs>
</svg>
