<svg xmlns="http://www.w3.org/2000/svg" xmlns:xlink="http://www.w3.org/1999/xlink" version="1.1"><metadata>Created by FontForge 20170731 at Wed Sep 30 14:13:59 2020 By Aleksey,,, Copyright (c) 2017 by Alberto Romanos. All rights reserved.</metadata><defs><font id="BwNistaGeo-xBdIt" horiz-adv-x="0"><font-face x-height="1079" ascent="1577" bbox="-1716 -594 2988 2175" cap-height="1577" descent="-471" font-family="Bw Nista Geo xBd It" font-stretch="normal" font-style="italic" font-weight="800" panose-1="0 0 9 0 0 0 0 0 0 0" slope="-10" underline-position="-307" underline-thickness="102" unicode-range="U+000D-FB02" units-per-em="2048"/><glyph d="M1430 1079l-191 -1079h-340l150 842h-447l-147 -842h-340l147 842h-162l41 237h164l12 72q35 203 178.5 324.5t344.5 121.5q116 0 188 -20l-43 -244q-63 19 -115 19q-80 0 -139 -51t-72 -132l-16 -90h787zM1346 1589q74 0 117.5 -40t43.5 -107q0 -91 -64 -151t-161 -60 q-74 0 -118 41.5t-44 109.5q0 91 64 149t162 58z" glyph-name="fi" horiz-adv-x="1460" unicode="fi"/><glyph d="M1180 1577h340l-279 -1577h-340l150 842h-449l-147 -842h-340l147 842h-162l41 237h162l12 68q37 205 181 327.5t346 122.5q104 0 168 -22l-41 -240q-46 17 -97 17q-80 0 -139 -52t-74 -135l-14 -86h447z" glyph-name="fl" horiz-adv-x="1460" unicode="fl"/><glyph d="M1802 1100q169 0 267 -120.5t98 -320.5q0 -192 -74.5 -348t-203 -243.5t-285.5 -87.5q-121 0 -211.5 53.5t-116.5 142.5h-4l-31 -176h-340l150 842h-449l-147 -842h-340l147 842h-162l41 237h162l12 68q37 205 181 327.5t346 122.5q104 0 168 -22l-41 -240q-46 17 -97 17 q-80 0 -139 -52t-74 -135l-14 -86h447l88 498h340l-119 -676h4q55 91 164 145t233 54zM1520 246q125 0 208.5 102t83.5 254q0 106 -50.5 169t-139.5 63q-105 0 -183.5 -81t-103.5 -212q-6 -41 -6 -78q0 -99 51 -158t140 -59z" glyph-name="f_b" horiz-adv-x="2224" unicode="fb"/><glyph d="M1628 1352q-80 0 -139 -52t-74 -135l-14 -86h309l-41 -237h-311l-148 -842h-340l148 842h-416l-147 -842h-340l147 842h-162l41 237h162l12 68q37 205 182 327.5t347 122.5q127 0 200 -26l-43 -246q-62 27 -129 27q-80 0 -139 -52t-74 -135l-14 -86h414l12 68 q37 205 181.5 327.5t346.5 122.5q153 0 230 -36l-43 -244q-68 35 -158 35z" glyph-name="f_f" horiz-adv-x="1632" unicode="ff"/><glyph d="M2558 1100q169 0 266.5 -120.5t97.5 -320.5q0 -192 -74.5 -348t-203 -243.5t-285.5 -87.5q-121 0 -211 53.5t-116 142.5h-4l-31 -176h-340l149 842h-448l-148 -842h-340l148 842h-416l-147 -842h-340l147 842h-162l41 237h162l12 68q37 205 182 327.5t347 122.5 q127 0 200 -26l-43 -246q-62 27 -129 27q-80 0 -139 -52t-74 -135l-14 -86h414l12 68q37 205 180.5 327.5t345.5 122.5q104 0 168 -22l-41 -240q-46 17 -96 17q-80 0 -139 -52t-74 -135l-14 -86h446l88 498h340l-118 -676h4q55 91 164 145t233 54zM2275 246q125 0 209 102 t84 254q0 106 -50.5 169t-139.5 63q-105 0 -183.5 -81t-103.5 -212q-6 -41 -6 -78q0 -99 51 -158t139 -59z" glyph-name="f_f_b" horiz-adv-x="2981" unicode="ffb"/><glyph d="M2574 1100q135 0 213 -82.5t78 -222.5q0 -43 -10 -101l-123 -694h-340l113 633q4 36 4 47q0 70 -41 112t-111 42q-91 0 -158.5 -65.5t-87.5 -172.5l-104 -596h-340l150 842h-449l-147 -842h-340l147 842h-426l-147 -842h-340l147 842h-162l41 237h162l12 68 q37 205 182 327.5t347 122.5q127 0 200 -26l-43 -246q-62 27 -129 27q-80 0 -139 -52t-74 -135l-14 -86h424l12 68q37 205 181 327.5t346 122.5q104 0 168 -22l-41 -240q-46 17 -97 17q-80 0 -139 -52t-74 -135l-14 -86h447l88 498h340l-119 -672h4q64 89 174.5 142 t228.5 53z" glyph-name="f_f_h" horiz-adv-x="2940" unicode="ffh"/><glyph d="M2204 1079l-191 -1079h-340l150 842h-447l-147 -842h-340l147 842h-434l-147 -842h-340l147 842h-162l41 237h162l12 68q37 205 182 327.5t347 122.5q127 0 200 -26l-43 -246q-62 27 -129 27q-80 0 -139 -52t-74 -135l-14 -86h434l13 72q35 203 178.5 324.5t343.5 121.5 q116 0 188 -20l-43 -244q-63 19 -114 19q-80 0 -139 -51t-72 -132l-17 -90h787zM2120 1589q74 0 117.5 -40t43.5 -107q0 -91 -64 -151t-161 -60q-74 0 -118 41.5t-44 109.5q0 91 64 149t162 58z" glyph-name="f_f_i" horiz-adv-x="2232" unicode="ffi"/><glyph d="M2218 1079l-272 -1550h-340l231 1313h-463l-147 -842h-340l147 842h-432l-147 -842h-340l147 842h-162l41 237h162l12 68q37 205 182 327.5t347 122.5q127 0 200 -26l-43 -246q-62 27 -129 27q-80 0 -139 -52t-74 -135l-14 -86h432l13 72q35 203 178.5 324.5t343.5 121.5 q116 0 188 -20l-43 -244q-63 19 -115 19q-80 0 -138.5 -50.5t-71.5 -132.5l-17 -90h803zM2134 1589q76 0 120 -40t44 -107q0 -91 -64 -151t-161 -60q-76 0 -120 41.5t-44 109.5q0 91 64.5 149t160.5 58z" glyph-name="f_f_j" horiz-adv-x="2248" unicode="ffj"/><glyph d="M1948 1577h340l-279 -1577h-340l150 842h-449l-147 -842h-340l147 842h-428l-147 -842h-340l147 842h-162l41 237h162l12 68q37 205 182 327.5t347 122.5q127 0 200 -26l-43 -246q-62 27 -129 27q-80 0 -139 -52t-74 -135l-14 -86h426l12 68q37 205 181 327.5t346 122.5 q104 0 168 -22l-41 -240q-46 17 -97 17q-80 0 -139 -52t-74 -135l-14 -86h447zM2988 1079l-473 -489l358 -590h-389l-348 584l471 495h381z" glyph-name="f_f_k" horiz-adv-x="2932" unicode="ffk"/><glyph d="M1956 1577h340l-279 -1577h-340l150 842h-449l-147 -842h-340l147 842h-436l-147 -842h-340l147 842h-162l41 237h162l12 68q37 205 182 327.5t347 122.5q127 0 200 -26l-43 -246q-62 27 -129 27q-80 0 -139 -52t-74 -135l-14 -86h434l13 68q37 205 180.5 327.5 t345.5 122.5q104 0 168 -22l-41 -240q-46 17 -96 17q-80 0 -139 -52t-74 -135l-15 -86h447z" glyph-name="f_f_l" horiz-adv-x="2238" unicode="ffl"/><glyph d="M2161 842l-84 -480q-2 -10 -2 -22q0 -50 38.5 -79.5t104.5 -29.5q83 0 154 33l-41 -233q-125 -51 -265 -51q-159 0 -250.5 76t-91.5 206q0 28 7 68l90 512h-445l-147 -842h-340l147 842h-434l-147 -842h-340l147 842h-162l41 237h162l12 68q37 205 182 327.5t347 122.5 q127 0 200 -26l-43 -246q-62 27 -129 27q-80 0 -139 -52t-74 -135l-14 -86h432l13 68q37 205 181.5 327.5t346.5 122.5q122 0 190 -22l-43 -244q-58 21 -118 21q-80 0 -139 -52t-74 -135l-15 -86h461l53 310h324l-55 -310h311l-41 -237h-311z" glyph-name="f_f_t" horiz-adv-x="2461" unicode="fft"/><glyph d="M1808 1100q135 0 213 -82.5t78 -222.5q0 -43 -10 -101l-123 -694h-340l113 633q4 36 4 47q0 70 -41 112t-111 42q-91 0 -158 -65.5t-87 -172.5l-105 -596h-340l150 842h-449l-147 -842h-340l147 842h-162l41 237h162l12 68q37 205 181 327.5t346 122.5q104 0 168 -22 l-41 -240q-46 17 -97 17q-80 0 -139 -52t-74 -135l-14 -86h447l88 498h340l-119 -672h4q64 89 174.5 142t228.5 53z" glyph-name="f_h" horiz-adv-x="2174" unicode="fh"/><glyph d="M1450 1079l-190 -1079h-340l149 842h-467l-147 -842h-340l147 842h-162l41 237h162l12 68q37 205 182 327.5t347 122.5q152 0 229 -36l-43 -244q-68 35 -158 35q-80 0 -139 -52t-74 -135l-14 -86h805zM1729 1577l-336 -356h-254l243 356h347z" glyph-name="f_iacute" horiz-adv-x="1478" unicode="fí"/><glyph d="M1446 1079l-272 -1550h-340l231 1313h-463l-147 -842h-340l147 842h-162l41 237h164l12 72q35 203 178.5 324.5t344.5 121.5q116 0 188 -20l-43 -244q-63 19 -115 19q-80 0 -139 -51t-72 -132l-16 -90h803zM1362 1589q76 0 120 -40t44 -107q0 -91 -64.5 -151t-161.5 -60 q-76 0 -119.5 41.5t-43.5 109.5q0 91 64.5 149t160.5 58z" glyph-name="f_j" horiz-adv-x="1476" unicode="fj"/><glyph d="M1180 1577h340l-279 -1577h-340l150 842h-449l-147 -842h-340l147 842h-162l41 237h162l12 68q37 205 181 327.5t346 122.5q104 0 168 -22l-41 -240q-46 17 -97 17q-80 0 -139 -52t-74 -135l-14 -86h447zM2220 1079l-473 -489l358 -590h-389l-348 584l471 495h381z" glyph-name="f_k" horiz-adv-x="2164" unicode="fk"/><glyph d="M1386 842l-83 -480q-3 -15 -3 -22q0 -50 39 -79.5t105 -29.5q82 0 153 33l-41 -233q-125 -51 -264 -51q-159 0 -250.5 76t-91.5 206q0 34 6 68l91 512h-445l-147 -842h-340l147 842h-162l41 237h162l12 68q37 205 182 327.5t347 122.5q122 0 190 -22l-43 -244 q-58 21 -119 21q-80 0 -139 -52t-74 -135l-14 -86h461l53 310h324l-56 -310h312l-41 -237h-312z" glyph-name="f_t" horiz-adv-x="1687" unicode="ft"/><glyph d="M1407 842l-86 -480q-2 -10 -2 -22q0 -50 39 -79.5t106 -29.5q81 0 152 33l-41 -233q-122 -51 -264 -51q-158 0 -250 76.5t-92 205.5q0 34 6 68l92 512h-483l-86 -480q-2 -12 -2 -22q0 -50 37.5 -79.5t101.5 -29.5q87 0 158 33l-41 -233q-122 -51 -265 -51 q-158 0 -250 76.5t-92 205.5q0 28 7 68l92 512h-164l41 237h182l53 310h324l-55 -310h501l54 310h323l-55 -310h309l-41 -237h-309z" glyph-name="t_t" horiz-adv-x="1705" unicode="tt"/><glyph d="M156 -20q-15 0 -25 10.5t-10 25.5q0 21 10 31l700 698h-663q-47 0 -47 39q0 16 14 33l696 701h-669q-41 0 -41 38v3q0 38 41 38h758q47 0 47 -41q0 -20 -17 -34l-698 -697h676q17 0 29 -12t12 -29v-669l694 692q13 16 35 16q37 0 37 -45v-663l696 692q13 16 33 16 q15 0 25 -12t10 -27q0 -18 -13 -28l-753 -762q-14 -14 -35 -14q-41 0 -41 47v663l-694 -696q-14 -14 -35 -14q-41 0 -41 47v663l-697 -696q-14 -14 -34 -14z" glyph-name=".notdef" horiz-adv-x="2609"/><glyph glyph-name=".null"/><glyph glyph-name="nonmarkingreturn" horiz-adv-x="682"/><glyph glyph-name="CR" horiz-adv-x="458"/><glyph glyph-name="space" horiz-adv-x="458"/><glyph d="M190 539l113 1038h371l-254 -1038h-230zM207 -20q-79 0 -125.5 44.5t-46.5 118.5q0 98 69 163t172 65q79 0 124.5 -44.5t45.5 -117.5q0 -100 -67.5 -164.5t-171.5 -64.5z" glyph-name="exclam" horiz-adv-x="612" unicode="!"/><glyph d="M195 1061l92 516h311l-92 -516h-311zM616 1061l93 516h311l-92 -516h-312z" glyph-name="quotedbl" horiz-adv-x="944" unicode="&quot;"/><glyph d="M1688 983h-215l-105 -360h221l-76 -267h-221l-100 -356h-350l100 356h-350l-100 -356h-351l103 356h-217l75 267h220l102 360h-219l76 264h221l94 330h350l-98 -330h348l94 330h350l-94 -330h217zM659 612h359l106 377h-356z" glyph-name="numbersign" horiz-adv-x="1699" unicode="#"/><glyph d="M1454 1073h-352q4 24 4 37q0 75 -45 127.5t-123 71.5l-61 -355q2 -2 8 -2q60 -9 104.5 -17.5t102.5 -24t99.5 -34t84.5 -48t70 -65t44 -86t17 -110.5q0 -247 -191 -407.5t-511 -177.5l-37 -211h-109l37 211q-235 11 -385 144.5t-150 342.5q0 39 2 59h353v-28 q0 -98 61.5 -161t167.5 -77l72 406q-2 0 -6 1t-6 1q-59 9 -101 17t-98.5 23t-96 32.5t-81 45.5t-67 62.5t-42 83t-16.5 106.5q0 239 185 392t493 165l37 205h108l-37 -207q207 -19 338 -145.5t131 -319.5q0 -21 -4 -57zM573 1116q0 -57 51.5 -90.5t145.5 -52.5l61 344 q-114 -6 -186 -62t-72 -139zM1034 487q0 68 -54.5 104.5t-156.5 57.5l-69 -387q125 12 202.5 73.5t77.5 151.5z" glyph-name="dollar" horiz-adv-x="1480" unicode="$"/><glyph d="M444 840q-126 0 -198 82.5t-72 220.5q0 196 116 325t290 129q128 0 201 -82.5t73 -220.5q0 -196 -117.5 -325t-292.5 -129zM70 0l1339 1577h250l-1340 -1577h-249zM481 1030q54 0 94.5 73.5t40.5 174.5q0 60 -18 94.5t-51 34.5q-57 0 -97 -73t-40 -175q0 -59 19 -94 t52 -35zM1151 -20q-126 0 -198 82.5t-72 220.5q0 196 115.5 325t287.5 129q129 0 203 -82.5t74 -220.5q0 -196 -117.5 -325t-292.5 -129zM1184 170q57 0 97 73t40 175q0 59 -18.5 94t-51.5 35q-57 0 -96 -73t-39 -175q0 -59 18 -94t50 -35z" glyph-name="percent" horiz-adv-x="1644" unicode="%"/><glyph d="M1561 190l-232 -210l-217 223q-122 -104 -273 -163.5t-311 -59.5q-199 0 -318.5 101t-119.5 267q0 97 30 178.5t86.5 144t119 107.5t145.5 88q-143 172 -143 314q0 182 153 299.5t408 117.5q184 0 303 -89.5t119 -235.5q0 -68 -22 -127t-56 -102.5t-87.5 -84.5t-104 -69 t-119.5 -60l227 -227q79 126 119 250h284q-65 -239 -211 -442zM657 1192q0 -71 99 -191q116 57 175.5 110.5t59.5 125.5q0 55 -38 88t-103 33q-84 0 -138.5 -48t-54.5 -118zM623 242q82 0 168 34t159 93l-313 323q-99 -58 -152 -124t-53 -156q0 -77 52 -123.5t139 -46.5z" glyph-name="ampersand" horiz-adv-x="1626" unicode="&amp;"/><glyph d="M195 1061l92 516h311l-92 -516h-311z" glyph-name="quotesingle" horiz-adv-x="524" unicode="'"/><glyph d="M178 -471q-61 133 -95 330.5t-34 394.5q0 358 133 703t359 620h315q-224 -292 -354.5 -631t-130.5 -686q0 -195 32 -393.5t91 -337.5h-316z" glyph-name="parenleft" horiz-adv-x="698" unicode="("/><glyph d="M162 -471h-314q224 288 354 627.5t130 687.5q0 192 -32 392t-91 341h313q63 -133 98 -330.5t35 -394.5q0 -358 -133.5 -703t-359.5 -620z" glyph-name="parenright" horiz-adv-x="700" unicode=")"/><glyph d="M850 1280l-209 -57l98 -164l-153 -98l-86 169l-146 -169l-121 98l156 164l-188 57l80 160l182 -70l31 207h168l-41 -207l206 70z" glyph-name="asterisk" horiz-adv-x="794" unicode="*"/><glyph d="M971 643l-45 -254h-273l-55 -313h-340l55 313h-268l43 254h272l56 313h340l-56 -313h271z" glyph-name="plus" horiz-adv-x="1026" unicode="+"/><glyph d="M262 371q84 0 132 -52.5t48 -142.5q0 -28 -6 -63q-32 -183 -170.5 -302.5t-335.5 -134.5l2 97q116 4 207.5 66t134.5 163q-61 -22 -112 -22q-66 0 -105 43t-39 112q0 102 69.5 169t174.5 67z" glyph-name="comma" horiz-adv-x="569" unicode=","/><glyph d="M92 430l41 238h672l-41 -238h-672z" glyph-name="hyphen" horiz-adv-x="894" unicode="-"/><glyph d="M199 -20q-79 0 -125.5 44.5t-46.5 118.5q0 98 68.5 163t172.5 65q79 0 124.5 -44.5t45.5 -117.5q0 -100 -67.5 -164.5t-171.5 -64.5z" glyph-name="period" horiz-adv-x="565" unicode="."/><glyph d="M121 -471h-244l959 2048h241z" glyph-name="slash" horiz-adv-x="948" unicode="/"/><glyph d="M627 -20q-247 0 -379.5 161.5t-132.5 452.5q0 296 98 523.5t279.5 353.5t418.5 126q246 0 379 -161.5t133 -452.5q0 -295 -98 -522.5t-279.5 -354t-418.5 -126.5zM676 260q109 0 197 98t135 259.5t47 351.5q0 165 -50.5 256.5t-144.5 91.5q-109 0 -197 -98t-135 -259.5 t-47 -351.5q0 -165 50.5 -256.5t144.5 -91.5z" glyph-name="zero" horiz-adv-x="1449" unicode="0"/><glyph d="M682 1577h242l-279 -1577h-354l192 1092h-356l39 229q203 0 321.5 59.5t194.5 196.5z" glyph-name="one" horiz-adv-x="897" unicode="1"/><glyph d="M406 279v-5h821l-49 -274h-1196l51 291q436 220 680.5 449t244.5 423q0 71 -42 112.5t-115 41.5q-94 0 -169 -66t-104 -174h-342q62 233 246.5 376.5t423.5 143.5q226 0 358 -110.5t132 -294.5q0 -112 -55 -225.5t-146 -210t-214.5 -187t-254 -161.5t-270.5 -129z" glyph-name="two" horiz-adv-x="1341" unicode="2"/><glyph d="M975 809q125 -40 193.5 -122t68.5 -191q0 -222 -197 -369t-501 -147q-225 0 -357.5 120.5t-132.5 323.5q0 45 2 68h344q-4 -16 -4 -46q0 -86 54.5 -136t146.5 -50q122 0 201 68.5t79 175.5q0 82 -59.5 131t-163.5 49h-39l29 174h2l12 68h33q111 0 183.5 65t72.5 166 q0 74 -45 117t-123 43q-90 0 -158.5 -63.5t-91.5 -166.5h-336q55 230 233 370t413 140q224 0 355.5 -105t131.5 -278q0 -141 -91.5 -243t-254.5 -158v-4z" glyph-name="three" horiz-adv-x="1329" unicode="3"/><glyph d="M1354 608l-49 -272h-205l-60 -336h-354l59 336h-739l49 289l830 952h434l-172 -969h207zM907 1231l-534 -617v-6h428l110 623h-4z" glyph-name="four" horiz-adv-x="1402" unicode="4"/><glyph d="M1305 1303h-648l-129 -385l7 -5q156 131 360 131q186 0 291.5 -114t105.5 -307q0 -141 -55 -261.5t-151 -204t-230.5 -130.5t-288.5 -47q-235 0 -374.5 114.5t-139.5 306.5q0 19 2 39h348v-12q0 -76 58.5 -122t154.5 -46q130 0 217 88.5t87 224.5q0 98 -55 156.5 t-150 58.5q-79 0 -153.5 -49t-117.5 -129h-346l297 967h957z" glyph-name="five" horiz-adv-x="1345" unicode="5"/><glyph d="M1419 1145h-344q2 6 2 16q-2 74 -51 115t-135 41q-148 0 -257.5 -135t-150.5 -367h4q171 205 484 205q187 0 289 -101t102 -282q0 -299 -199.5 -478t-529.5 -179q-254 0 -387 154t-133 441q0 302 101 533.5t289.5 360t438.5 128.5q228 0 354.5 -106t126.5 -297 q0 -22 -4 -49zM778 758q-132 0 -211.5 -79t-79.5 -214q0 -95 54.5 -150t148.5 -55q133 0 213 82t80 217q0 94 -53.5 146.5t-151.5 52.5z" glyph-name="six" horiz-adv-x="1433" unicode="6"/><glyph d="M1354 1577l-49 -289q-269 -243 -456 -583.5t-251 -704.5h-369q63 359 268.5 702.5t508.5 595.5v5h-846l47 274h1147z" glyph-name="seven" horiz-adv-x="1210" unicode="7"/><glyph d="M1057 823q110 -44 170.5 -127t60.5 -190q0 -151 -89.5 -271t-249 -187.5t-359.5 -67.5q-246 0 -390.5 110.5t-144.5 294.5q0 153 98.5 266t268.5 172v4q-91 41 -141 115t-50 166q0 140 83 251.5t230 174.5t330 63q226 0 358 -103t132 -273q0 -135 -81.5 -236t-225.5 -158 v-4zM825 1317q-101 0 -166 -61t-65 -158q0 -70 44.5 -112t121.5 -42q99 0 164 61t65 156q0 70 -44 113t-120 43zM639 260q124 0 204.5 72t80.5 184q0 83 -55.5 132.5t-151.5 49.5q-125 0 -206 -72t-81 -182q0 -83 56 -133.5t153 -50.5z" glyph-name="eight" horiz-adv-x="1378" unicode="8"/><glyph d="M874 1597q262 0 399.5 -155t137.5 -443q0 -301 -101 -532t-289 -359t-437 -128q-239 0 -368.5 114t-129.5 322q0 34 2 59h344v-18q0 -93 51 -145t144 -52q157 0 270.5 145t151.5 392h-7q-165 -195 -479 -195q-191 0 -294 97t-103 272q0 285 194 455.5t514 170.5zM754 864 q131 0 208.5 69.5t77.5 190.5q0 88 -54.5 140.5t-149.5 52.5h-2q-131 0 -210 -72t-79 -196q0 -88 54.5 -136.5t154.5 -48.5z" glyph-name="nine" horiz-adv-x="1435" unicode="9"/><glyph d="M334 709q-81 0 -126.5 44.5t-45.5 118.5q0 98 68.5 163t172.5 65q79 0 124.5 -44t45.5 -118q0 -99 -68 -164t-171 -65zM205 -20q-79 0 -125.5 44.5t-46.5 118.5q0 98 68.5 163t172.5 65q79 0 124.5 -44.5t45.5 -117.5q0 -100 -67.5 -164.5t-171.5 -64.5z" glyph-name="colon" horiz-adv-x="606" unicode=":"/><glyph d="M410 1100q79 0 124.5 -44t45.5 -118q0 -100 -68 -164.5t-172 -64.5q-79 0 -125.5 44.5t-46.5 118.5q0 98 69.5 163t172.5 65zM281 371q84 0 132 -52.5t48 -142.5q0 -17 -4 -63q-32 -183 -171.5 -302.5t-336.5 -134.5l4 97q116 4 207 66t133 163q-58 -22 -111 -22 q-67 0 -105 42.5t-38 112.5q0 102 69.5 169t172.5 67z" glyph-name="semicolon" horiz-adv-x="626" unicode=";"/><glyph d="M1026 995l-47 -268l-621 -215l547 -203l-47 -268l-819 360l29 156l14 76z" glyph-name="less" horiz-adv-x="1062" unicode="&lt;"/><glyph d="M125 584l45 254h881l-45 -254h-881zM55 195l45 254h881l-43 -254h-883z" glyph-name="equal" horiz-adv-x="1116" unicode="="/><glyph d="M1016 633l-29 -156l-14 -76l-944 -360l49 268l618 213l-546 205l47 268z" glyph-name="greater" horiz-adv-x="1062" unicode="&gt;"/><glyph d="M422 537l2 14q8 50 30.5 96t61.5 91.5t69 75t83 77.5q39 34 55 49t46.5 44.5t44 48.5t30.5 46t23.5 53t6.5 54q0 59 -39.5 95t-109.5 36q-83 0 -146.5 -54.5t-86.5 -142.5h-334q54 214 227 345.5t403 131.5q218 0 347 -95t129 -253q0 -59 -19 -113t-46.5 -94t-73 -82.5 t-83 -70.5t-92.5 -67q-11 -7 -16 -11q-51 -38 -70.5 -52.5t-59 -48t-57 -55.5t-35.5 -54t-24 -64h-266zM455 -20q-79 0 -125.5 44.5t-46.5 118.5q0 98 69 163t172 65q79 0 125.5 -44.5t46.5 -117.5q0 -100 -68.5 -164.5t-172.5 -64.5z" glyph-name="question" horiz-adv-x="1206" unicode="?"/><glyph d="M1837 1040l-240 -678q-4 -12 -4 -24q0 -27 24.5 -44.5t61.5 -17.5q104 0 191.5 73t138.5 199.5t51 276.5q0 256 -178.5 410t-484.5 154q-233 0 -437.5 -80.5t-349 -219.5t-228 -332.5t-83.5 -412.5q0 -285 187.5 -456t510.5 -171q139 0 311 35.5t314 93.5l39 -202 q-152 -61 -344.5 -98.5t-353.5 -37.5q-280 0 -489.5 100.5t-321 282.5t-111.5 422q0 182 45.5 349.5t129.5 309t207.5 258t276.5 197.5t340 125.5t394 44.5q254 0 455 -92t315 -261.5t114 -387.5q0 -171 -58 -318t-159 -250t-241.5 -161.5t-300.5 -58.5q-117 0 -196.5 39.5 t-96.5 105.5q-4 12 -4 20h-5q-59 -75 -160.5 -120t-213.5 -45q-137 0 -221 83.5t-84 219.5q0 187 78 344t221 250.5t321 93.5q96 0 167 -46t93 -122h2l53 149h324zM1069 322q86 0 164 61t119 162l8 20q1 1 2 4t2 4l-4 -8l4 15q16 46 16 82q0 65 -37.5 104t-101.5 39 q-132 0 -220.5 -97.5t-88.5 -234.5q0 -70 36.5 -110.5t100.5 -40.5z" glyph-name="at" horiz-adv-x="2342" unicode="@"/><glyph d="M1057 0l-53 334h-590l-170 -334h-355l854 1577h392l297 -1577h-375zM553 606h410l-97 606h-4z" glyph-name="A" horiz-adv-x="1513" unicode="A"/><glyph d="M1182 813q125 -38 194.5 -119.5t69.5 -189.5q0 -223 -189 -363.5t-503 -140.5h-699l279 1577h651q223 0 368.5 -105t145.5 -272q0 -132 -84 -230.5t-233 -152.5v-4zM1122 1147q0 70 -46 113t-124 43h-313l-66 -377h312q103 0 170 62t67 159zM817 274q114 0 189 67.5 t75 170.5q0 77 -51.5 124.5t-138.5 47.5h-361l-71 -410h358z" glyph-name="B" horiz-adv-x="1523" unicode="B"/><glyph d="M776 -20q-297 0 -482 182.5t-185 480.5q0 275 119.5 492t337 339.5t495.5 122.5q184 0 329 -67t228 -192.5t84 -288.5q0 -9 -1 -29.5t-1 -30.5h-348q2 14 2 27q0 137 -93.5 219t-248.5 82q-111 0 -210 -48.5t-170 -133t-112 -204t-41 -255.5q0 -189 92.5 -302.5 t253.5 -113.5q163 0 288.5 90t168.5 238h346q-76 -278 -303.5 -443t-548.5 -165z" glyph-name="C" horiz-adv-x="1675" unicode="C"/><glyph d="M55 0l279 1577h538q307 0 499 -180t192 -473q0 -200 -71.5 -371.5t-198 -293t-307 -190.5t-392.5 -69h-539zM457 274h202q149 0 271 80t192 222.5t70 318.5q0 186 -93.5 297t-256.5 111h-203z" glyph-name="D" horiz-adv-x="1583" unicode="D"/><glyph d="M1438 1303h-799l-64 -359h723l-47 -274h-725l-69 -396h823l-49 -274h-1176l279 1577h1151z" glyph-name="E" horiz-adv-x="1404" unicode="E"/><glyph d="M1380 1303h-741l-68 -381h629l-49 -271h-627l-114 -651h-355l279 1577h1096z" glyph-name="F" horiz-adv-x="1308" unicode="F"/><glyph d="M1694 1008h-340v18q-2 132 -94.5 211.5t-247.5 79.5q-111 0 -210 -48.5t-170 -133t-112 -204t-41 -255.5q0 -189 92.5 -302.5t253.5 -113.5q159 0 281.5 94t173.5 254h-406l41 234h762l-14 -84q-61 -353 -299.5 -565.5t-587.5 -212.5q-297 0 -482 182.5t-185 480.5 q0 275 119.5 492t337 339.5t495.5 122.5q184 0 328 -66t226 -189t83 -283q0 -15 -4 -51z" glyph-name="G" horiz-adv-x="1699" unicode="G"/><glyph d="M1298 1577h355l-279 -1577h-354l117 662h-611l-116 -662h-355l279 1577h354l-113 -641h611z" glyph-name="H" horiz-adv-x="1622" unicode="H"/><glyph d="M55 0l279 1577h354l-278 -1577h-355z" glyph-name="I" horiz-adv-x="657" unicode="I"/><glyph d="M457 -20q-190 0 -311 129t-121 342q0 73 6 112h329q-4 -25 -4 -65q0 -110 43 -174t119 -64q80 0 141 65t80 171l191 1081h354l-186 -1061q-47 -265 -212 -400.5t-429 -135.5z" glyph-name="J" horiz-adv-x="1239" unicode="J"/><glyph d="M334 1577h354l-278 -1577h-355zM1628 1577l-635 -735l449 -842h-406l-450 819l639 758h403z" glyph-name="K" horiz-adv-x="1492" unicode="K"/><glyph d="M459 283h684l-49 -283h-1039l279 1577h354z" glyph-name="L" horiz-adv-x="1214" unicode="L"/><glyph d="M1595 1577h482l-279 -1577h-354l213 1153h-4l-615 -1153h-268l-182 1153h-4l-193 -1153h-336l279 1577h481l172 -1157h4z" glyph-name="M" horiz-adv-x="2045" unicode="M"/><glyph d="M1317 1577h336l-279 -1577h-330l-477 1028h-4l-172 -1028h-336l279 1577h332l475 -1030h4z" glyph-name="N" horiz-adv-x="1622" unicode="N"/><glyph d="M778 -20q-300 0 -486 182.5t-186 482.5q0 206 70.5 382.5t195 302t303 196.5t388.5 71q197 0 349 -82t236.5 -233.5t84.5 -349.5q0 -206 -70.5 -382.5t-195 -302t-302.5 -196.5t-387 -71zM827 260q112 0 211 48.5t170.5 133t112.5 204t41 255.5q0 190 -93 303t-255 113 q-151 0 -273.5 -82.5t-193 -229.5t-70.5 -329q0 -190 93 -303t257 -113z" glyph-name="O" horiz-adv-x="1751" unicode="O"/><glyph d="M950 1577q233 0 382 -119t149 -311q0 -258 -195 -420t-514 -162h-264l-98 -565h-355l279 1577h616zM836 838q118 0 196 77.5t78 196.5q0 87 -51 139t-139 52h-281l-82 -465h279z" glyph-name="P" horiz-adv-x="1425" unicode="P"/><glyph d="M1733 932q0 -266 -113.5 -478t-316.5 -335l94 -107l-232 -221l-182 207q-99 -18 -205 -18q-300 0 -486 182.5t-186 482.5q0 206 70.5 382.5t195 302t303 196.5t388.5 71q197 0 349 -82t236.5 -233.5t84.5 -349.5zM1102 346q121 83 190.5 228.5t69.5 326.5q0 190 -93 303 t-255 113q-151 0 -273.5 -82.5t-193 -229.5t-70.5 -329q0 -164 71.5 -273t199.5 -135l-66 74l229 219z" glyph-name="Q" horiz-adv-x="1751" unicode="Q"/><glyph d="M1526 1180q0 -173 -101 -306.5t-280 -199.5l237 -674h-395l-194 618h-275l-108 -618h-355l279 1577h645q157 0 281 -49t195 -140t71 -208zM637 1303l-74 -426h309q121 0 199 69.5t78 179.5q0 79 -55 128t-148 49h-309z" glyph-name="R" horiz-adv-x="1519" unicode="R"/><glyph d="M629 -20q-165 0 -296.5 60t-206.5 172t-75 257q0 39 2 59h353v-28q0 -109 76 -174.5t206 -65.5q147 0 241.5 63t94.5 164q0 31 -11.5 56t-36.5 43t-50.5 30.5t-70 23t-75.5 16.5t-86 14q-59 9 -101 17t-98.5 23t-95.5 32.5t-80.5 45.5t-67 62.5t-42 83t-16.5 106.5 q0 248 198 402.5t524 154.5q232 0 382.5 -129t150.5 -338q0 -21 -4 -57h-352q4 24 4 37q0 94 -67.5 150.5t-182.5 56.5q-123 0 -203 -56.5t-80 -144.5q0 -32 17 -56.5t43 -41t70 -29.5t83 -20.5t98 -16.5q60 -9 104.5 -17.5t102.5 -24t99.5 -34t85 -48t70.5 -65t44 -86 t17 -110.5q0 -260 -211 -423.5t-557 -163.5z" glyph-name="S" horiz-adv-x="1466" unicode="S"/><glyph d="M1460 1577l-49 -274h-448l-230 -1303h-354l229 1303h-448l49 274h1251z" glyph-name="T" horiz-adv-x="1306" unicode="T"/><glyph d="M678 -20q-244 0 -396.5 131.5t-152.5 347.5q0 65 10 121l176 997h357l-180 -1014q-7 -40 -7 -65q0 -109 67 -173.5t183 -64.5q134 0 230.5 83.5t119.5 219.5l181 1014h336l-177 -997q-52 -295 -245.5 -447.5t-501.5 -152.5z" glyph-name="U" horiz-adv-x="1554" unicode="U"/><glyph d="M1278 1577h360l-796 -1577h-424l-238 1577h367l147 -1212h4z" glyph-name="V" horiz-adv-x="1452" unicode="V"/><glyph d="M2003 1577h352l-684 -1577h-422l-53 1130h-4l-449 -1130h-426l-124 1577h366l64 -1194h4l473 1194h364l58 -1194h4z" glyph-name="W" horiz-adv-x="2183" unicode="W"/><glyph d="M-113 0l691 819l-365 758h428l201 -492h4l381 492h401l-635 -756l402 -821h-439l-229 553h-4l-430 -553h-406z" glyph-name="X" horiz-adv-x="1470" unicode="X"/><glyph d="M1716 1577l-788 -1034l-97 -543h-354l98 551l-411 1026h399l254 -709h4l502 709h393z" glyph-name="Y" horiz-adv-x="1505" unicode="Y"/><glyph d="M1423 1288l-987 -1009v-5h838l-49 -274h-1266l51 289l987 1009v5h-755l49 274h1184z" glyph-name="Z" horiz-adv-x="1380" unicode="Z"/><glyph d="M848 1305h-205l-266 -1504h207l-47 -272h-564l361 2048h563z" glyph-name="bracketleft" horiz-adv-x="774" unicode="["/><glyph d="M457 -471l-234 2048h240l237 -2048h-243z" glyph-name="backslash" horiz-adv-x="921" unicode="\"/><glyph d="M805 1577l-361 -2048h-563l49 272h205l266 1504h-206l47 272h563z" glyph-name="bracketright" horiz-adv-x="774" unicode="]"/><glyph d="M911 1577l254 -752h-276l-150 510h-4l-327 -510h-287l520 752h270z" glyph-name="asciicircum" horiz-adv-x="1175" unicode="^"/><glyph d="M-59 -225l32 178h1119l-33 -178h-1118z" glyph-name="underscore" horiz-adv-x="1263" unicode="_"/><glyph d="M416 1171h-254l-209 357h344z" glyph-name="grave" horiz-adv-x="471" unicode="`"/><glyph d="M985 1079h340l-190 -1079h-340l30 176h-4q-61 -91 -164.5 -143.5t-234.5 -52.5q-170 0 -267.5 120t-97.5 320q0 144 44 270.5t119 216.5t179.5 141.5t221.5 51.5q119 0 208.5 -53.5t118.5 -145.5h4zM602 246q106 0 185 81.5t102 213.5q8 50 8 73q0 102 -51 161t-141 59 q-125 0 -209 -102t-84 -255q0 -106 50 -168.5t140 -62.5z" glyph-name="a" horiz-adv-x="1351" unicode="a"/><glyph d="M930 1100q169 0 266.5 -120.5t97.5 -320.5q0 -192 -74.5 -348t-203 -243.5t-285.5 -87.5q-121 0 -211.5 53.5t-116.5 142.5h-4l-30 -176h-340l278 1577h340l-119 -676h4q55 91 164.5 145t233.5 54zM647 246q125 0 209 102t84 254q0 106 -50.5 169t-139.5 63 q-105 0 -183.5 -81t-103.5 -212q-6 -41 -6 -78q0 -99 51 -158t139 -59z" glyph-name="b" horiz-adv-x="1353" unicode="b"/><glyph d="M545 -20q-226 0 -358 126t-132 336q0 189 89.5 340t246.5 234.5t352 83.5q219 0 345.5 -118.5t128.5 -317.5h-332q-3 77 -54 123.5t-135 46.5q-123 0 -205.5 -102.5t-82.5 -254.5q0 -104 49 -166.5t137 -62.5q85 0 153.5 45.5t94.5 118.5h334q-60 -195 -233.5 -313.5 t-397.5 -118.5z" glyph-name="c" horiz-adv-x="1249" unicode="c"/><glyph d="M1073 1577h340l-278 -1577h-340l30 176h-4q-61 -91 -164.5 -143.5t-234.5 -52.5q-170 0 -267.5 120t-97.5 320q0 144 44 270.5t119 216.5t179.5 141.5t221.5 51.5q119 0 208.5 -53.5t118.5 -145.5h4zM602 246q106 0 185 81.5t102 213.5q8 50 8 73q0 102 -51 161t-141 59 q-125 0 -209 -102t-84 -255q0 -106 50 -168.5t140 -62.5z" glyph-name="d" horiz-adv-x="1351" unicode="d"/><glyph d="M741 1100q221 0 348.5 -121t127.5 -326q0 -53 -13 -129l-6 -39h-811v-16q0 -114 53 -183t146 -69q83 0 155.5 44.5t106.5 115.5h328q-66 -178 -240.5 -287.5t-392.5 -109.5q-225 0 -355.5 126t-130.5 338q0 188 89 338.5t245 234t350 83.5zM700 872q-94 0 -170.5 -62.5 t-113.5 -166.5h473q-2 105 -52 167t-137 62z" glyph-name="e" horiz-adv-x="1271" unicode="e"/><glyph d="M872 1352q-80 0 -139 -52t-74 -135l-14 -86h309l-41 -237h-311l-147 -842h-340l147 842h-162l41 237h162l12 68q37 205 182 327.5t347 122.5q152 0 229 -36l-43 -244q-68 35 -158 35z" glyph-name="f" horiz-adv-x="874" unicode="f"/><glyph d="M985 1079h340l-192 -1081q-42 -241 -217.5 -365.5t-440.5 -124.5q-212 0 -338.5 103.5t-126.5 275.5q0 23 2 35h322v-12q5 -61 55 -97t133 -36q104 0 178 56.5t91 148.5l34 194h-4q-62 -92 -164.5 -144t-234.5 -52q-170 0 -267.5 120t-97.5 320q0 144 44 270.5t119 216.5 t179.5 141.5t221.5 51.5q119 0 208.5 -53.5t118.5 -145.5h4zM602 246q106 0 185 81.5t102 213.5q8 50 8 73q0 102 -51 161t-141 59q-124 0 -208.5 -102t-84.5 -255q0 -106 50 -168.5t140 -62.5z" glyph-name="g" horiz-adv-x="1351" unicode="g"/><glyph d="M936 1100q135 0 213 -82.5t78 -222.5q0 -43 -10 -101l-123 -694h-340l112 633q4 36 4 47q0 70 -40.5 112t-110.5 42q-91 0 -158.5 -65.5t-87.5 -172.5l-104 -596h-340l278 1577h340l-119 -672h4q64 89 175 142t229 53z" glyph-name="h" horiz-adv-x="1302" unicode="h"/><glyph d="M414 1231q-74 0 -118 41.5t-44 109.5q0 91 63.5 149t161.5 58q74 0 118 -40.5t44 -106.5q0 -91 -64 -151t-161 -60zM31 0l190 1079h340l-190 -1079h-340z" glyph-name="i" horiz-adv-x="589" unicode="i"/><glyph d="M416 1231q-76 0 -120 41.5t-44 109.5q0 91 64.5 149t160.5 58q76 0 120 -40t44 -107q0 -91 -64 -151t-161 -60zM-51 -471l272 1550h340l-272 -1550h-340z" glyph-name="j" horiz-adv-x="589" unicode="j"/><glyph d="M307 1577h340l-278 -1577h-340zM1348 1079l-474 -489l359 -590h-389l-348 584l471 495h381z" glyph-name="k" horiz-adv-x="1292" unicode="k"/><glyph d="M31 0l278 1577h340l-278 -1577h-340z" glyph-name="l" horiz-adv-x="589" unicode="l"/><glyph d="M1599 1100q127 0 198 -79.5t71 -217.5q0 -54 -8 -101l-123 -702h-340l112 641q4 32 4 49q0 65 -35.5 104.5t-97.5 39.5q-81 0 -141.5 -64t-79.5 -168l-106 -602h-340l112 641q4 32 4 49q0 65 -35.5 104.5t-97.5 39.5q-81 0 -142 -64t-81 -168l-104 -602h-340l190 1079 h340l-31 -174h4q60 89 165 142t218 53q108 0 177 -58t86 -163h4q72 101 185 161t232 60z" glyph-name="m" horiz-adv-x="1945" unicode="m"/><glyph d="M936 1100q135 0 213 -82.5t78 -222.5q0 -43 -10 -101l-123 -694h-340l112 633q4 36 4 47q0 70 -40.5 112t-110.5 42q-91 0 -158.5 -65.5t-87.5 -172.5l-104 -596h-340l190 1079h340l-31 -174h4q64 89 175 142t229 53z" glyph-name="n" horiz-adv-x="1302" unicode="n"/><glyph d="M549 -20q-228 0 -361 126t-133 338q0 188 90.5 338.5t248.5 234t354 83.5q228 0 360.5 -126t132.5 -337q0 -142 -53 -264.5t-144.5 -208.5t-220 -135t-274.5 -49zM598 248q125 0 209 101t84 253q0 105 -51.5 168.5t-139.5 63.5q-125 0 -208.5 -102t-83.5 -255 q0 -104 50.5 -166.5t139.5 -62.5z" glyph-name="o" horiz-adv-x="1298" unicode="o"/><glyph d="M932 1100q168 0 265 -120.5t97 -320.5q0 -192 -74 -348t-202.5 -243.5t-286.5 -87.5q-116 0 -205 53.5t-120 142.5h-5l-114 -647h-340l272 1550h340l-31 -178h4q58 92 167 145.5t233 53.5zM647 246q126 0 210.5 102t84.5 254q0 106 -50.5 169t-139.5 63 q-105 0 -184.5 -81t-102.5 -212q-8 -36 -8 -76q0 -101 50.5 -160t139.5 -59z" glyph-name="p" horiz-adv-x="1353" unicode="p"/><glyph d="M985 1079h340l-274 -1550h-340l114 647h-4q-61 -91 -164.5 -143.5t-234.5 -52.5q-170 0 -267.5 120t-97.5 320q0 144 44 270.5t119 216.5t179.5 141.5t221.5 51.5q119 0 208.5 -53.5t118.5 -145.5h4zM602 246q106 0 185 81.5t102 213.5q8 50 8 73q0 102 -51 161t-141 59 q-125 0 -209 -102t-84 -255q0 -106 50 -168.5t140 -62.5z" glyph-name="q" horiz-adv-x="1351" unicode="q"/><glyph d="M891 1100q67 0 125 -21l-55 -311q-68 35 -185 35q-120 0 -208.5 -88.5t-114.5 -233.5l-84 -481h-340l190 1079h340l-39 -221h4q55 109 156.5 175.5t210.5 66.5z" glyph-name="r" horiz-adv-x="946" unicode="r"/><glyph d="M469 -20q-209 0 -332 86.5t-123 228.5q0 23 2 41h316q0 -4 -1 -11t-1 -10q0 -59 47.5 -94t126.5 -35q94 0 153.5 38t59.5 98q0 23 -13 41t-32 29.5t-52.5 21t-61 14.5t-71.5 12q-61 10 -104.5 20t-98 31t-88.5 48.5t-57.5 72.5t-23.5 103q0 113 71 201t196.5 136 t283.5 48q196 0 312 -82.5t116 -220.5q0 -27 -2 -41h-316q0 3 1 9t1 9q0 56 -39.5 88.5t-109.5 32.5q-79 0 -129.5 -31t-50.5 -82q0 -25 17 -43.5t51.5 -31t68.5 -20t86 -15.5q51 -9 88 -17.5t85 -23t81 -35t63.5 -49t46 -68.5t15.5 -90q0 -119 -74.5 -212.5t-207.5 -145 t-300 -51.5z" glyph-name="s" horiz-adv-x="1142" unicode="s"/><glyph d="M584 842l-86 -480q-2 -12 -2 -22q0 -50 37.5 -79.5t101.5 -29.5q87 0 158 33l-41 -233q-122 -51 -265 -51q-158 0 -250 76.5t-92 205.5q0 28 7 68l92 512h-164l41 237h182l53 310h324l-55 -310h309l-41 -237h-309z" glyph-name="t" horiz-adv-x="882" unicode="t"/><glyph d="M532 -20q-210 0 -330 97.5t-120 264.5q0 43 8 82l115 655h340l-109 -620q-4 -36 -4 -53q0 -73 40 -116.5t110 -43.5q82 0 142 58t77 155l110 620h340l-116 -655q-39 -220 -199.5 -332t-403.5 -112z" glyph-name="u" horiz-adv-x="1263" unicode="u"/><glyph d="M944 1079h352l-589 -1079h-398l-209 1079h344l113 -770h4z" glyph-name="v" horiz-adv-x="1206" unicode="v"/><glyph d="M1473 1079h344l-529 -1079h-346l-43 719h-4l-293 -719h-350l-148 1079h336l62 -721h4l297 721h323l45 -721h5z" glyph-name="w" horiz-adv-x="1730" unicode="w"/><glyph d="M-106 0l505 563l-272 516h373l131 -280h4l235 280h359l-457 -512l305 -567h-387l-153 328h-5l-274 -328h-364z" glyph-name="x" horiz-adv-x="1161" unicode="x"/><glyph d="M944 1079h352l-843 -1550h-328l203 383l-228 1167h344l115 -770h4z" glyph-name="y" horiz-adv-x="1208" unicode="y"/><glyph d="M1055 813l-649 -555v-4h575l-43 -254h-975l47 266l635 555v4h-502l43 254h916z" glyph-name="z" horiz-adv-x="1091" unicode="z"/><glyph d="M285 1139q39 218 190 328t381 110l-49 -279q-63 0 -108.5 -39t-57.5 -104l-55 -313q-36 -187 -207 -287v-4q110 -82 110 -225q0 -22 -4 -62l-55 -313q-4 -24 -4 -31q0 -52 32.5 -82.5t86.5 -30.5l-49 -278q-197 0 -310.5 96t-113.5 258q0 37 6 84l55 314q4 24 4 30 q0 47 -28.5 75t-77.5 28l49 278q58 0 98.5 36t52.5 97z" glyph-name="braceleft" horiz-adv-x="755" unicode="{"/><glyph d="M-27 -471l398 2253h245l-397 -2253h-246z" glyph-name="bar" horiz-adv-x="550" unicode="|"/><glyph d="M625 795q0 -47 27 -75t77 -28l-49 -278q-57 0 -98.5 -36.5t-51.5 -96.5l-55 -314q-40 -218 -190.5 -328t-380.5 -110l51 278q62 0 108 40t56 104l53 313q35 183 209 287v4q-113 86 -113 225q0 28 6 62l56 313q4 24 4 31q0 52 -31.5 82t-85.5 30l47 279q197 0 310.5 -96 t113.5 -258q0 -43 -8 -84l-53 -314q-2 -12 -2 -30z" glyph-name="braceright" horiz-adv-x="755" unicode="}"/><glyph d="M63 328q31 164 131.5 256t247.5 92q93 0 175.5 -22.5t155 -45t140.5 -22.5q47 0 81 26t48 72h138q-31 -164 -131 -256t-248 -92q-92 0 -174.5 22t-155.5 44t-141 22q-46 0 -80.5 -26t-46.5 -70h-140z" glyph-name="asciitilde" horiz-adv-x="1259" unicode="~"/><glyph glyph-name="uni00A0" horiz-adv-x="458"/><glyph d="M322 709q-79 0 -125.5 44.5t-46.5 118.5q0 98 69 163t172 65q81 0 126.5 -44t45.5 -118q0 -100 -68.5 -164.5t-172.5 -64.5zM-72 -471l252 1032h232l-115 -1032h-369z" glyph-name="exclamdown" horiz-adv-x="581" unicode="¡"/><glyph d="M700 459q68 12 120.5 54t74.5 103h334q-57 -182 -213.5 -298.5t-362.5 -131.5l-32 -186h-109l33 186q-203 15 -319.5 139t-116.5 322q0 135 47.5 253.5t131.5 203.5t200.5 137.5t252.5 61.5l31 172h109l-31 -172q195 -15 306.5 -132t113.5 -303h-332q-3 65 -38.5 108 t-96.5 56zM461 682q0 -87 34.5 -145.5t98.5 -75.5l100 571q-102 -23 -167.5 -120.5t-65.5 -229.5z" glyph-name="cent" horiz-adv-x="1277" unicode="¢"/><glyph d="M1401 1077h-342v29q0 97 -50.5 154t-136.5 57q-95 0 -158 -59t-63 -150q0 -27 8 -60t16 -55.5t25 -66t23 -60.5h418l-45 -252h-351q-50 -182 -309 -335v-5h838l-47 -274h-1237l47 274h2l2 17q282 122 326 323h-234l45 252h152q-60 161 -60 246q0 139 83.5 250t231.5 173 t333 62q223 0 354 -124t131 -332q0 -41 -2 -64z" glyph-name="sterling" horiz-adv-x="1390" unicode="£"/><glyph d="M1145 764q0 -144 -72 -266l92 -117l-247 -213l-99 121q-106 -41 -229 -41q-125 0 -213 45l-148 -123l-174 211l148 129q-13 54 -13 106q0 145 70 263l-96 120l250 213l98 -122q107 43 233 43q121 0 211 -46l144 123l174 -211l-144 -122q15 -53 15 -113zM467 647 q0 -77 44 -125.5t118 -48.5q103 0 171 73.5t68 186.5q0 78 -44 126t-119 48q-102 0 -170 -73.5t-68 -186.5z" glyph-name="currency" horiz-adv-x="1277" unicode="¤"/><glyph d="M1767 1577l-770 -1010h291l-18 -100h-305l-19 -105h305l-18 -100h-303l-47 -262h-355l47 262h-296l18 100h295l18 105h-295l19 100h287l-406 1010h399l254 -709h4l502 709h393z" glyph-name="yen" horiz-adv-x="1626" unicode="¥"/><glyph d="M209 860l162 922h245l-161 -922h-246zM-27 -471l162 922h246l-162 -922h-246z" glyph-name="brokenbar" horiz-adv-x="550" unicode="¦"/><glyph d="M1430 1104h-351v20q0 88 -64 141.5t-171 53.5q-111 0 -184.5 -48.5t-73.5 -121.5q0 -75 98 -125q78 10 150 10q252 0 401 -110.5t149 -294.5q0 -118 -54 -217.5t-152 -171.5q106 -70 106 -193q0 -152 -94.5 -275t-264 -193.5t-380.5 -70.5q-256 0 -408.5 130.5 t-152.5 347.5v41h350v-17q0 -101 74 -162t194 -61q136 0 223.5 55t87.5 142q0 68 -69 122q-77 -14 -176 -14q-254 0 -403.5 111.5t-149.5 296.5q0 120 56 220.5t157 172.5q-111 71 -111 197q0 108 52 202t143.5 161t221 105.5t279.5 38.5q236 0 377.5 -124t141.5 -330 q0 -27 -2 -39zM1020 590q0 75 -65 120.5t-173 45.5q-132 0 -217.5 -60.5t-85.5 -156.5q0 -75 64 -120.5t172 -45.5q133 0 219 60.5t86 156.5z" glyph-name="section" horiz-adv-x="1464" unicode="§"/><glyph d="M260 1208q-70 0 -110.5 39.5t-40.5 104.5q0 87 60 142.5t153 55.5q70 0 110.5 -38t40.5 -103q0 -86 -61 -143.5t-152 -57.5zM698 1208q-70 0 -110.5 39.5t-40.5 104.5q0 87 60.5 142.5t152.5 55.5q70 0 110.5 -38t40.5 -103q0 -86 -61 -143.5t-152 -57.5z" glyph-name="dieresis" horiz-adv-x="1019" unicode="¨"/><glyph d="M809 -20q-324 0 -511 182.5t-187 486.5q0 204 75 381t205 301t312.5 195t390.5 71q324 0 512 -182.5t188 -486.5q0 -204 -75 -381t-206 -301t-313 -195t-391 -71zM844 174q205 0 371 92.5t261 258.5t95 374q0 229 -137 367.5t-373 138.5q-206 0 -372 -92.5t-260.5 -258.5 t-94.5 -374q0 -230 137 -368t373 -138zM887 383q-162 0 -256 91t-94 243q0 205 140 339t351 134q158 0 246 -88t90 -236h-266q-2 50 -31 79.5t-76 29.5q-72 0 -121 -67t-49 -167q0 -66 27 -104.5t76 -38.5t88.5 28.5t56.5 75.5h268q-41 -144 -164.5 -231.5t-285.5 -87.5z" glyph-name="copyright" horiz-adv-x="1818" unicode="©"/><glyph d="M834 1112q4 0 9 1t11.5 2.5t9.5 2.5l-24 -147q-64 -25 -142 -25q-47 0 -76.5 21.5t-35.5 58.5q-2 8 -2 16v5h-2q-44 -47 -107.5 -74t-132.5 -27q-81 0 -128.5 40t-47.5 106q0 30 5.5 54.5t13.5 43.5t25 35.5t32 28.5t43.5 23t50.5 18.5t61 17t67.5 15.5t78 16t84.5 18 l6 27q2 10 2 16q0 26 -18.5 41.5t-49.5 15.5q-43 0 -72.5 -22.5t-35.5 -59.5l-209 11q20 93 115 149.5t231 56.5q119 0 187.5 -50t68.5 -136q0 -11 -4 -39l-39 -213q-2 -10 -2 -16q0 -12 7.5 -21.5t19.5 -9.5zM600 1194l6 45q-132 -30 -168 -47q-51 -24 -51 -64 q0 -21 17 -33t47 -12q61 0 100.5 30t48.5 81z" glyph-name="ordfeminine" horiz-adv-x="835" unicode="ª"/><glyph d="M573 193h-333l-183 339l301 340h334l-303 -348zM1061 193h-334l-182 339l301 340h334l-303 -348z" glyph-name="guillemotleft" horiz-adv-x="1220" unicode="«"/><glyph d="M147 801h881l-96 -549h-340l53 295h-543z" glyph-name="logicalnot" horiz-adv-x="1103" unicode="¬"/><glyph d="M92 430l41 238h672l-41 -238h-672z" glyph-name="uni00AD" horiz-adv-x="894" unicode="­"/><glyph d="M717 1597q179 0 282 -95.5t103 -256.5q0 -214 -152 -351.5t-383 -137.5q-179 0 -282 95.5t-103 256.5q0 214 151 351.5t384 137.5zM584 852q175 0 290 106.5t115 272.5q0 124 -78.5 197t-212.5 73q-173 0 -288 -106.5t-115 -272.5q0 -123 78 -196.5t211 -73.5zM850 1264 q0 -41 -25.5 -73.5t-70.5 -49.5l71 -164h-137l-59 143h-66l-24 -143h-127l69 397h209q73 0 116.5 -30t43.5 -80zM592 1280l-14 -78h88q22 0 35.5 12.5t13.5 32.5q0 14 -10 23.5t-25 9.5h-88z" glyph-name="registered" horiz-adv-x="1064" unicode="®"/><glyph d="M33 1255l43 246h717l-43 -246h-717z" glyph-name="macron" horiz-adv-x="825" unicode="¯"/><glyph d="M446 1047q-119 0 -188.5 63.5t-69.5 167.5q0 139 101.5 229t255.5 90q119 0 188.5 -63.5t69.5 -167.5q0 -138 -101.5 -228.5t-255.5 -90.5zM473 1208q54 0 88.5 39t34.5 99q0 40 -22 65t-60 25q-50 0 -85.5 -39.5t-35.5 -98.5q0 -40 22 -65t58 -25z" glyph-name="degree" horiz-adv-x="720" unicode="°"/><glyph d="M774 840h270l-43 -252h-272l-37 -207h-340l37 207h-270l45 252h270l37 207h340zM16 0l43 254h883l-45 -254h-881z" glyph-name="plusminus" horiz-adv-x="1101" unicode="±"/><glyph d="M55 1171l244 357h346l-336 -357h-254z" glyph-name="acute" horiz-adv-x="628" unicode="´"/><glyph d="M1530 1577l-361 -2048h-268l316 1794h-269l-315 -1794h-268l190 1081q-190 0 -300 109t-110 291q0 163 75.5 293t208 202t296.5 72h805z" glyph-name="paragraph" horiz-adv-x="1533" unicode="¶"/><glyph d="M260 367q-79 0 -125.5 44.5t-46.5 118.5q0 98 69 163t173 65q79 0 124.5 -44.5t45.5 -117.5q0 -100 -68 -164.5t-172 -64.5z" glyph-name="periodcentered" horiz-adv-x="579" unicode="·"/><glyph d="M430 -104q82 0 128 -40t46 -108q0 -107 -99 -173.5t-255 -66.5q-140 0 -221 48l22 129q89 -52 178 -52q68 0 112 25.5t44 65.5q0 25 -16 40t-45 15q-57 0 -95 -41l-86 65l199 273l113 -76l-88 -111l2 -2q34 9 61 9z" glyph-name="cedilla" horiz-adv-x="661" unicode="¸"/><glyph d="M483 946q-140 0 -221.5 74.5t-81.5 198.5q0 165 117.5 271.5t298.5 106.5q140 0 220.5 -74t80.5 -198q0 -165 -117.5 -272t-296.5 -107zM514 1124q63 0 106.5 50.5t43.5 125.5q0 54 -26.5 86.5t-72.5 32.5q-63 0 -106 -51.5t-43 -126.5q0 -54 26 -85.5t72 -31.5z" glyph-name="ordmasculine" horiz-adv-x="825" unicode="º"/><glyph d="M37 193l305 348l-182 331h332l180 -340l-299 -339h-336zM524 193l305 348l-182 331h332l180 -340l-299 -339h-336z" glyph-name="guillemotright" horiz-adv-x="1220" unicode="»"/><glyph d="M1452 1577h252l-1339 -1577h-252zM279 692l104 582h-195l27 151q114 0 183 36t112 116h164l-158 -885h-237zM1815 354l-31 -180h-121l-31 -174h-237l30 174h-417l32 191l459 520h289l-94 -531h121zM1516 655l-267 -299v-2h215l54 301h-2z" glyph-name="onequarter" horiz-adv-x="1908" unicode="¼"/><glyph d="M1450 1577h252l-1340 -1577h-251zM276 692l105 582h-195l27 151q114 0 183 36t112 116h164l-158 -885h-238zM1382 182v-2h461l-33 -180h-706l35 190q236 115 371 235.5t135 219.5q0 32 -19 50t-51 18q-46 0 -80 -29.5t-47 -81.5h-227q37 140 139.5 217.5t251.5 77.5 q139 0 216 -60t77 -167q0 -78 -48.5 -155.5t-127.5 -140t-167 -111t-180 -81.5z" glyph-name="onehalf" horiz-adv-x="1974" unicode="½"/><glyph d="M842 977q0 -134 -111.5 -215.5t-300.5 -81.5q-140 0 -216.5 67.5t-76.5 190.5v31h230v-15q0 -43 25.5 -66.5t72.5 -23.5q60 0 96.5 32t36.5 85q0 39 -28.5 60.5t-80.5 21.5h-20v6l25 148l2 6h18q56 0 88.5 29.5t32.5 80.5q0 34 -20 53t-58 19q-44 0 -75.5 -27.5 t-41.5 -77.5h-225q37 136 137.5 212.5t243.5 76.5q139 0 215 -57.5t76 -159.5q0 -157 -180 -225v-2q135 -48 135 -168zM1663 1577h252l-1340 -1577h-251zM2025 354l-30 -180h-121l-31 -174h-237l30 174h-417l32 191l459 520h289l-94 -531h120zM1726 655l-266 -299v-2h215 l54 301h-3z" glyph-name="threequarters" horiz-adv-x="2117" unicode="¾"/><glyph d="M618 709q-79 0 -125.5 44.5t-46.5 118.5q0 98 69 163t173 65q79 0 125.5 -44t46.5 -118q0 -99 -68.5 -164t-173.5 -65zM360 -492q-220 0 -347.5 92.5t-127.5 247.5q0 44 15.5 86.5t34.5 73.5t59 71t65 61t77 63t73 59q62 52 89.5 76.5t70 67.5t63.5 79.5t27 73.5h268 l-2 -12q-18 -104 -85.5 -197t-170.5 -188q-13 -13 -48.5 -45.5t-49.5 -45.5t-38.5 -40t-34.5 -44t-19 -40t-9 -45q0 -52 41 -83.5t111 -31.5q83 0 145 46t84 122h336q-53 -201 -225 -324t-402 -123z" glyph-name="questiondown" horiz-adv-x="1083" unicode="¿"/><glyph d="M1124 1686h-254l-211 356h345zM1057 0l-53 334h-590l-170 -334h-355l854 1577h392l297 -1577h-375zM553 606h410l-97 606h-4z" glyph-name="Agrave" horiz-adv-x="1513" unicode="À"/><glyph d="M1380 2042l-336 -356h-253l243 356h346zM1057 0l-53 334h-590l-170 -334h-355l854 1577h392l297 -1577h-375zM553 606h410l-97 606h-4z" glyph-name="Aacute" horiz-adv-x="1513" unicode="Á"/><glyph d="M987 1866l-156 -180h-258l287 352h314l163 -352h-258l-88 180h-4zM1057 0l-53 334h-590l-170 -334h-355l854 1577h392l297 -1577h-375zM553 606h410l-97 606h-4z" glyph-name="Acircumflex" horiz-adv-x="1513" unicode="Â"/><glyph d="M815 1792q-43 0 -75 -26t-46 -70h-137q31 164 119.5 255t216.5 91q56 0 104.5 -22t90.5 -44t81 -22q43 0 75 26t44 70h137q-31 -163 -119 -254.5t-214 -91.5q-56 0 -105 22t-91.5 44t-80.5 22zM1057 0l-53 334h-590l-170 -334h-355l854 1577h392l297 -1577h-375zM553 606 h410l-97 606h-4z" glyph-name="Atilde" horiz-adv-x="1513" unicode="Ã"/><glyph d="M737 1673q-70 0 -110.5 39t-40.5 103q0 87 60 143.5t153 56.5q70 0 110.5 -39t40.5 -104q0 -86 -61 -142.5t-152 -56.5zM1176 1673q-70 0 -111 39t-41 103q0 87 61 143.5t152 56.5q70 0 111 -39t41 -104q0 -86 -61 -142.5t-152 -56.5zM1057 0l-53 334h-590l-170 -334 h-355l854 1577h392l297 -1577h-375zM553 606h410l-97 606h-4z" glyph-name="Adieresis" horiz-adv-x="1513" unicode="Ä"/><glyph d="M956 1673q-113 0 -178 57.5t-65 153.5q0 127 94 209t237 82q113 0 177.5 -57.5t64.5 -153.5q0 -128 -93.5 -209.5t-236.5 -81.5zM1018 2028q-51 0 -84 -35t-33 -88q0 -38 21.5 -61t58.5 -23q51 0 84 35t33 88q0 39 -21 61.5t-59 22.5zM1057 0l-53 334h-590l-170 -334 h-355l854 1577h392l297 -1577h-375zM553 606h410l-97 606h-4z" glyph-name="Aring" horiz-adv-x="1513" unicode="Å"/><glyph d="M2335 1303h-951l2 -359h812l-50 -272h-759l4 -398h782l-47 -274h-1108l8 334h-579l-226 -334h-354l1055 1577h1460zM635 608h399l13 604h-5z" glyph-name="AE" horiz-adv-x="2301" unicode="Æ"/><glyph d="M1700 989h-348q2 14 2 27q0 137 -93.5 219t-248.5 82q-111 0 -210 -48.5t-170 -133t-112 -204t-41 -255.5q0 -189 92.5 -302.5t253.5 -113.5q163 0 288.5 90t168.5 238h346q-71 -263 -279.5 -425t-504.5 -181l-74 -93l2 -2q35 9 62 9q82 0 128 -40t46 -108 q0 -107 -99.5 -173.5t-255.5 -66.5q-140 0 -221 48l23 129q89 -52 178 -52q68 0 111.5 25.5t43.5 65.5q0 25 -16 40t-45 15q-56 0 -94 -41l-86 65l133 183q-259 29 -415 206.5t-156 450.5q0 275 119.5 492t337 339.5t495.5 122.5q184 0 329 -67t228 -192.5t84 -288.5 q0 -9 -1 -29.5t-1 -30.5z" glyph-name="Ccedilla" horiz-adv-x="1675" unicode="Ç"/><glyph d="M1096 1686h-254l-211 356h344zM1438 1303h-799l-64 -359h723l-47 -274h-725l-69 -396h823l-49 -274h-1176l279 1577h1151z" glyph-name="Egrave" horiz-adv-x="1404" unicode="È"/><glyph d="M1352 2042l-336 -356h-254l244 356h346zM1438 1303h-799l-64 -359h723l-47 -274h-725l-69 -396h823l-49 -274h-1176l279 1577h1151z" glyph-name="Eacute" horiz-adv-x="1404" unicode="É"/><glyph d="M958 1866l-155 -180h-258l286 352h314l164 -352h-258l-88 180h-5zM1438 1303h-799l-64 -359h723l-47 -274h-725l-69 -396h823l-49 -274h-1176l279 1577h1151z" glyph-name="Ecircumflex" horiz-adv-x="1404" unicode="Ê"/><glyph d="M709 1673q-70 0 -111 39t-41 103q0 87 60 143.5t153 56.5q70 0 111 -39t41 -104q0 -86 -61 -142.5t-152 -56.5zM1147 1673q-70 0 -111 39t-41 103q0 87 61 143.5t152 56.5q70 0 111 -39t41 -104q0 -86 -61 -142.5t-152 -56.5zM1438 1303h-799l-64 -359h723l-47 -274h-725 l-69 -396h823l-49 -274h-1176l279 1577h1151z" glyph-name="Edieresis" horiz-adv-x="1404" unicode="Ë"/><glyph d="M696 1686h-254l-211 356h344zM55 0l279 1577h354l-278 -1577h-355z" glyph-name="Igrave" horiz-adv-x="657" unicode="Ì"/><glyph d="M362 1686l244 356h346l-336 -356h-254zM55 0l279 1577h354l-278 -1577h-355z" glyph-name="Iacute" horiz-adv-x="657" unicode="Í"/><glyph d="M559 1866l-156 -180h-258l287 352h313l164 -352h-258l-88 180h-4zM55 0l279 1577h354l-278 -1577h-355z" glyph-name="Icircumflex" horiz-adv-x="657" unicode="Î"/><glyph d="M307 1673q-70 0 -110.5 39t-40.5 103q0 87 60 143.5t153 56.5q70 0 110.5 -39t40.5 -104q0 -86 -61 -142.5t-152 -56.5zM745 1673q-70 0 -110.5 39t-40.5 103q0 87 61 143.5t152 56.5q70 0 110.5 -39t40.5 -104q0 -86 -61 -142.5t-152 -56.5zM55 0l279 1577h354 l-278 -1577h-355z" glyph-name="Idieresis" horiz-adv-x="657" unicode="Ï"/><glyph d="M895 1577q202 0 359 -80.5t244 -229.5t87 -343q0 -200 -71.5 -371.5t-198 -293t-307 -190.5t-392.5 -69h-538l121 682h-129l41 238h129l116 657h539zM682 274q149 0 270.5 80t191.5 222.5t70 318.5q0 186 -93.5 297t-256.5 111h-202l-68 -383h313l-41 -238h-315l-72 -408 h203z" glyph-name="Eth" horiz-adv-x="1605" unicode="Ð"/><glyph d="M870 1792q-43 0 -74.5 -26t-45.5 -70h-138q31 164 119.5 255t216.5 91q44 0 85 -14t67 -30t59.5 -30t65.5 -14q43 0 74.5 26t43.5 70h138q-31 -163 -119.5 -254.5t-214.5 -91.5q-56 0 -105 22t-91.5 44t-80.5 22zM1317 1577h336l-279 -1577h-330l-477 1028h-4l-172 -1028 h-336l279 1577h332l475 -1030h4z" glyph-name="Ntilde" horiz-adv-x="1622" unicode="Ñ"/><glyph d="M1245 1686h-254l-211 356h344zM778 -20q-300 0 -486 182.5t-186 482.5q0 206 70.5 382.5t195 302t303 196.5t388.5 71q197 0 349 -82t236.5 -233.5t84.5 -349.5q0 -206 -70.5 -382.5t-195 -302t-302.5 -196.5t-387 -71zM827 260q112 0 211 48.5t170.5 133t112.5 204 t41 255.5q0 190 -93 303t-255 113q-151 0 -273.5 -82.5t-193 -229.5t-70.5 -329q0 -190 93 -303t257 -113z" glyph-name="Ograve" horiz-adv-x="1751" unicode="Ò"/><glyph d="M911 1686l244 356h346l-336 -356h-254zM778 -20q-300 0 -486 182.5t-186 482.5q0 206 70.5 382.5t195 302t303 196.5t388.5 71q197 0 349 -82t236.5 -233.5t84.5 -349.5q0 -206 -70.5 -382.5t-195 -302t-302.5 -196.5t-387 -71zM827 260q112 0 211 48.5t170.5 133 t112.5 204t41 255.5q0 190 -93 303t-255 113q-151 0 -273.5 -82.5t-193 -229.5t-70.5 -329q0 -190 93 -303t257 -113z" glyph-name="Oacute" horiz-adv-x="1751" unicode="Ó"/><glyph d="M1108 1866l-156 -180h-258l287 352h313l164 -352h-258l-88 180h-4zM1063 1597q197 0 349 -82t236.5 -233.5t84.5 -349.5q0 -206 -70.5 -382.5t-195 -302t-302.5 -196.5t-387 -71q-300 0 -486 182.5t-186 482.5q0 206 70.5 382.5t195 302t303 196.5t388.5 71zM827 260 q112 0 211 48.5t170.5 133t112.5 204t41 255.5q0 190 -93 303t-255 113q-151 0 -273.5 -82.5t-193 -229.5t-70.5 -329q0 -190 93 -303t257 -113z" glyph-name="Ocircumflex" horiz-adv-x="1751" unicode="Ô"/><glyph d="M676 1696q31 164 119.5 255t216.5 91q56 0 104.5 -22t90.5 -44t81 -22q43 0 75 26t44 70h137q-31 -163 -119.5 -254.5t-214.5 -91.5q-56 0 -105 22t-91 44t-80 22q-43 0 -75 -26t-46 -70h-137zM778 -20q-300 0 -486 182.5t-186 482.5q0 206 70.5 382.5t195 302t303 196.5 t388.5 71q197 0 349 -82t236.5 -233.5t84.5 -349.5q0 -206 -70.5 -382.5t-195 -302t-302.5 -196.5t-387 -71zM827 260q112 0 211 48.5t170.5 133t112.5 204t41 255.5q0 190 -93 303t-255 113q-151 0 -273.5 -82.5t-193 -229.5t-70.5 -329q0 -190 93 -303t257 -113z" glyph-name="Otilde" horiz-adv-x="1751" unicode="Õ"/><glyph d="M856 1673q-70 0 -110.5 39t-40.5 103q0 87 60 143.5t153 56.5q70 0 110.5 -39t40.5 -104q0 -86 -61 -142.5t-152 -56.5zM1294 1673q-70 0 -110.5 39t-40.5 103q0 87 61 143.5t152 56.5q70 0 110.5 -39t40.5 -104q0 -86 -61 -142.5t-152 -56.5zM778 -20q-300 0 -486 182.5 t-186 482.5q0 206 70.5 382.5t195 302t303 196.5t388.5 71q197 0 349 -82t236.5 -233.5t84.5 -349.5q0 -206 -70.5 -382.5t-195 -302t-302.5 -196.5t-387 -71zM827 260q112 0 211 48.5t170.5 133t112.5 204t41 255.5q0 190 -93 303t-255 113q-151 0 -273.5 -82.5 t-193 -229.5t-70.5 -329q0 -190 93 -303t257 -113z" glyph-name="Odieresis" horiz-adv-x="1751" unicode="Ö"/><glyph d="M1028 760l-274 -234l192 -235l-260 -221l-192 235l-277 -235l-184 221l276 235l-192 234l262 221l192 -233l275 233z" glyph-name="multiply" horiz-adv-x="1069" unicode="×"/><glyph d="M1516 1444q104 -89 160.5 -220t56.5 -292q0 -206 -70.5 -382.5t-195 -302t-302.5 -196.5t-387 -71q-203 0 -364 90l-125 -154l-92 59l127 158q-104 89 -161 220t-57 292q0 206 70.5 382.5t195 302t303 196.5t388.5 71q201 0 362 -90l123 154l92 -62zM477 676 q0 -160 68 -266l676 841q-84 66 -207 66q-151 0 -273.5 -82.5t-193 -229.5t-70.5 -329zM827 260q112 0 211 48.5t170.5 133t112.5 204t41 255.5q0 162 -68 268l-676 -843q89 -66 209 -66z" glyph-name="Oslash" horiz-adv-x="1751" unicode="Ø"/><glyph d="M1155 1686h-254l-211 356h344zM678 -20q-244 0 -396.5 131.5t-152.5 347.5q0 65 10 121l176 997h357l-180 -1014q-7 -40 -7 -65q0 -109 67 -173.5t183 -64.5q134 0 230.5 83.5t119.5 219.5l181 1014h336l-177 -997q-52 -295 -245.5 -447.5t-501.5 -152.5z" glyph-name="Ugrave" horiz-adv-x="1554" unicode="Ù"/><glyph d="M821 1686l244 356h346l-336 -356h-254zM678 -20q-244 0 -396.5 131.5t-152.5 347.5q0 65 10 121l176 997h357l-180 -1014q-7 -40 -7 -65q0 -109 67 -173.5t183 -64.5q134 0 230.5 83.5t119.5 219.5l181 1014h336l-177 -997q-52 -295 -245.5 -447.5t-501.5 -152.5z" glyph-name="Uacute" horiz-adv-x="1554" unicode="Ú"/><glyph d="M1018 1866l-156 -180h-258l287 352h313l164 -352h-258l-88 180h-4zM1266 1577h336l-177 -997q-52 -295 -245.5 -447.5t-501.5 -152.5q-244 0 -396.5 131.5t-152.5 347.5q0 65 10 121l176 997h357l-180 -1014q-7 -40 -7 -65q0 -109 67 -173.5t183 -64.5q134 0 230.5 83.5 t119.5 219.5z" glyph-name="Ucircumflex" horiz-adv-x="1554" unicode="Û"/><glyph d="M766 1673q-70 0 -111 39t-41 103q0 87 60 143.5t153 56.5q70 0 111 -39t41 -104q0 -86 -61 -142.5t-152 -56.5zM1204 1673q-70 0 -110.5 39t-40.5 103q0 87 61 143.5t152 56.5q70 0 110.5 -39t40.5 -104q0 -86 -61 -142.5t-152 -56.5zM678 -20q-244 0 -396.5 131.5 t-152.5 347.5q0 65 10 121l176 997h357l-180 -1014q-7 -40 -7 -65q0 -109 67 -173.5t183 -64.5q134 0 230.5 83.5t119.5 219.5l181 1014h336l-177 -997q-52 -295 -245.5 -447.5t-501.5 -152.5z" glyph-name="Udieresis" horiz-adv-x="1554" unicode="Ü"/><glyph d="M1397 2042l-336 -356h-254l244 356h346zM1716 1577l-788 -1034l-97 -543h-354l98 551l-411 1026h399l254 -709h4l502 709h393z" glyph-name="Yacute" horiz-adv-x="1505" unicode="Ý"/><glyph d="M897 1323q232 0 381 -119t149 -311q0 -259 -194 -420.5t-514 -161.5h-254l-55 -311h-355l279 1577h354l-45 -254h254zM782 584q119 0 197 77t78 197q0 87 -51.5 139t-141.5 52h-270l-82 -465h270z" glyph-name="Thorn" horiz-adv-x="1429" unicode="Þ"/><glyph d="M1024 885q130 -41 202 -134t72 -219q0 -235 -174 -393.5t-434 -158.5q-117 0 -194 24l45 252q74 -8 104 -8q134 0 222.5 85t88.5 214q0 99 -64.5 158t-174.5 59h-53l36 219q113 0 185.5 57.5t72.5 149.5q0 63 -40.5 101t-110.5 38q-92 0 -158.5 -55t-81.5 -144 l-198 -1130h-340l196 1118q42 236 209 357.5t420 121.5q212 0 336.5 -95t124.5 -251q0 -122 -76.5 -214.5t-214.5 -147.5v-4z" glyph-name="germandbls" horiz-adv-x="1368" unicode="ß"/><glyph d="M969 1221h-254l-211 356h344zM985 1079h340l-190 -1079h-340l30 176h-4q-61 -91 -164.5 -143.5t-234.5 -52.5q-170 0 -267.5 120t-97.5 320q0 144 44 270.5t119 216.5t179.5 141.5t221.5 51.5q119 0 208.5 -53.5t118.5 -145.5h4zM602 246q106 0 185 81.5t102 213.5 q8 50 8 73q0 102 -51 161t-141 59q-125 0 -209 -102t-84 -255q0 -106 50 -168.5t140 -62.5z" glyph-name="agrave" horiz-adv-x="1351" unicode="à"/><glyph d="M1227 1577l-336 -356h-254l244 356h346zM985 1079h340l-190 -1079h-340l30 176h-4q-61 -91 -164.5 -143.5t-234.5 -52.5q-170 0 -267.5 120t-97.5 320q0 144 44 270.5t119 216.5t179.5 141.5t221.5 51.5q119 0 208.5 -53.5t118.5 -145.5h4zM602 246q106 0 185 81.5 t102 213.5q8 50 8 73q0 102 -51 161t-141 59q-125 0 -209 -102t-84 -255q0 -106 50 -168.5t140 -62.5z" glyph-name="aacute" horiz-adv-x="1351" unicode="á"/><glyph d="M834 1405l-156 -180h-258l287 352h313l164 -352h-258l-88 180h-4zM985 1079h340l-190 -1079h-340l30 176h-4q-61 -91 -164.5 -143.5t-234.5 -52.5q-170 0 -267.5 120t-97.5 320q0 144 44 270.5t119 216.5t179.5 141.5t221.5 51.5q119 0 208.5 -53.5t118.5 -145.5h4z M602 246q106 0 185 81.5t102 213.5q8 50 8 73q0 102 -51 161t-141 59q-125 0 -209 -102t-84 -255q0 -106 50 -168.5t140 -62.5z" glyph-name="acircumflex" horiz-adv-x="1351" unicode="â"/><glyph d="M664 1352q-43 0 -75 -26.5t-46 -72.5h-137q31 164 119.5 256.5t215.5 92.5q44 0 85 -14t67 -30.5t59.5 -30.5t65.5 -14q43 0 75 26.5t44 70.5h137q-31 -164 -119.5 -256t-214.5 -92q-56 0 -105 22.5t-91 45t-80 22.5zM985 1079h340l-190 -1079h-340l30 176h-4 q-61 -91 -164.5 -143.5t-234.5 -52.5q-170 0 -267.5 120t-97.5 320q0 144 44 270.5t119 216.5t179.5 141.5t221.5 51.5q119 0 208.5 -53.5t118.5 -145.5h4zM602 246q106 0 185 81.5t102 213.5q8 50 8 73q0 102 -51 161t-141 59q-125 0 -209 -102t-84 -255q0 -106 50 -168.5 t140 -62.5z" glyph-name="atilde" horiz-adv-x="1351" unicode="ã"/><glyph d="M588 1243q-70 0 -111 38.5t-41 102.5q0 88 60.5 144.5t152.5 56.5q70 0 111 -39t41 -104q0 -86 -61 -142.5t-152 -56.5zM1026 1243q-70 0 -111 38.5t-41 102.5q0 87 61 144t152 57q70 0 111 -39t41 -104q0 -86 -61 -142.5t-152 -56.5zM985 1079h340l-190 -1079h-340 l30 176h-4q-61 -91 -164.5 -143.5t-234.5 -52.5q-170 0 -267.5 120t-97.5 320q0 144 44 270.5t119 216.5t179.5 141.5t221.5 51.5q119 0 208.5 -53.5t118.5 -145.5h4zM602 246q106 0 185 81.5t102 213.5q8 50 8 73q0 102 -51 161t-141 59q-125 0 -209 -102t-84 -255 q0 -106 50 -168.5t140 -62.5z" glyph-name="adieresis" horiz-adv-x="1351" unicode="ä"/><glyph d="M795 1176q-113 0 -178.5 57t-65.5 153q0 127 94.5 209t237.5 82q113 0 177 -57.5t64 -153.5q0 -128 -93 -209t-236 -81zM856 1530q-51 0 -84 -35t-33 -88q0 -38 21.5 -61t58.5 -23q51 0 84 35t33 88q0 39 -21 61.5t-59 22.5zM985 1079h340l-190 -1079h-340l30 176h-4 q-61 -91 -164.5 -143.5t-234.5 -52.5q-170 0 -267.5 120t-97.5 320q0 144 44 270.5t119 216.5t179.5 141.5t221.5 51.5q119 0 208.5 -53.5t118.5 -145.5h4zM602 246q106 0 185 81.5t102 213.5q8 50 8 73q0 102 -51 161t-141 59q-125 0 -209 -102t-84 -255q0 -106 50 -168.5 t140 -62.5z" glyph-name="aring" horiz-adv-x="1351" unicode="å"/><glyph d="M1448 1100q204 0 321 -118.5t117 -322.5q0 -65 -12 -135l-6 -39h-795v-28q0 -111 50.5 -175.5t148.5 -64.5q78 0 147.5 45t98.5 115h327q-63 -178 -226.5 -287.5t-367.5 -109.5q-134 0 -231.5 59t-145.5 166h-4q-175 -225 -501 -225q-167 0 -265 70.5t-98 187.5 q0 48 8.5 87.5t22.5 71t40 58.5t53.5 47t71.5 39t84 32.5t101.5 29t114.5 27t131 28.5q97 20 149 32l11 58q2 12 2 30q0 53 -35.5 84t-97.5 31q-77 0 -132.5 -43t-68.5 -113h-316q34 163 180 263t353 100q136 0 223 -50t115 -141h4q82 92 192.5 141.5t235.5 49.5zM1378 872 q-90 0 -163.5 -62t-110.5 -167h455q-2 107 -49.5 168t-131.5 61zM457 201q107 0 183.5 62.5t94.5 158.5l17 94q-17 -4 -49 -11q-52 -11 -77 -17t-68 -17t-64 -19t-51.5 -20.5t-45.5 -25t-31 -29.5t-22 -36.5t-6 -43.5q0 -44 32 -70t87 -26z" glyph-name="ae" horiz-adv-x="1943" unicode="æ"/><glyph d="M594 248q85 0 153.5 45.5t94.5 118.5h334q-55 -179 -207.5 -294t-354.5 -134l-73 -95l2 -2q35 9 61 9q82 0 128 -40t46 -108q0 -107 -99 -173.5t-255 -66.5q-140 0 -221 48l22 129q89 -52 178 -52q68 0 112 25.5t44 65.5q0 25 -16 40t-45 15q-57 0 -95 -41l-86 65 l134 183q-186 26 -291 148t-105 308q0 189 89.5 340t246.5 234.5t352 83.5q219 0 345.5 -118.5t128.5 -317.5h-332q-3 77 -54 123.5t-135 46.5q-123 0 -205.5 -102.5t-82.5 -254.5q0 -104 49 -166.5t137 -62.5z" glyph-name="ccedilla" horiz-adv-x="1249" unicode="ç"/><glyph d="M930 1221h-254l-211 356h344zM741 1100q221 0 348.5 -121t127.5 -326q0 -53 -13 -129l-6 -39h-811v-16q0 -114 53 -183t146 -69q83 0 155.5 44.5t106.5 115.5h328q-66 -178 -240.5 -287.5t-392.5 -109.5q-225 0 -355.5 126t-130.5 338q0 188 89 338.5t245 234t350 83.5z M700 872q-94 0 -170.5 -62.5t-113.5 -166.5h473q-2 105 -52 167t-137 62z" glyph-name="egrave" horiz-adv-x="1271" unicode="è"/><glyph d="M1188 1577l-336 -356h-254l244 356h346zM741 1100q221 0 348.5 -121t127.5 -326q0 -53 -13 -129l-6 -39h-811v-16q0 -114 53 -183t146 -69q83 0 155.5 44.5t106.5 115.5h328q-66 -178 -240.5 -287.5t-392.5 -109.5q-225 0 -355.5 126t-130.5 338q0 188 89 338.5t245 234 t350 83.5zM700 872q-94 0 -170.5 -62.5t-113.5 -166.5h473q-2 105 -52 167t-137 62z" glyph-name="eacute" horiz-adv-x="1271" unicode="é"/><glyph d="M795 1405l-156 -180h-258l287 352h313l164 -352h-258l-88 180h-4zM741 1100q221 0 348.5 -121t127.5 -326q0 -53 -13 -129l-6 -39h-811v-16q0 -114 53 -183t146 -69q83 0 155.5 44.5t106.5 115.5h328q-66 -178 -240.5 -287.5t-392.5 -109.5q-225 0 -355.5 126t-130.5 338 q0 188 89 338.5t245 234t350 83.5zM700 872q-94 0 -170.5 -62.5t-113.5 -166.5h473q-2 105 -52 167t-137 62z" glyph-name="ecircumflex" horiz-adv-x="1271" unicode="ê"/><glyph d="M547 1243q-70 0 -111 38.5t-41 102.5q0 88 60.5 144.5t152.5 56.5q70 0 111 -39t41 -104q0 -86 -61 -142.5t-152 -56.5zM985 1243q-70 0 -110.5 38.5t-40.5 102.5q0 87 61 144t152 57q70 0 110.5 -39t40.5 -104q0 -86 -61 -142.5t-152 -56.5zM741 1100q221 0 348.5 -121 t127.5 -326q0 -53 -13 -129l-6 -39h-811v-16q0 -114 53 -183t146 -69q83 0 155.5 44.5t106.5 115.5h328q-66 -178 -240.5 -287.5t-392.5 -109.5q-225 0 -355.5 126t-130.5 338q0 188 89 338.5t245 234t350 83.5zM700 872q-94 0 -170.5 -62.5t-113.5 -166.5h473 q-2 105 -52 167t-137 62z" glyph-name="edieresis" horiz-adv-x="1271" unicode="ë"/><glyph d="M582 1221h-254l-211 356h344zM31 0l190 1079h340l-190 -1079h-340z" glyph-name="igrave" horiz-adv-x="589" unicode="ì"/><glyph d="M250 1221l244 356h346l-336 -356h-254zM31 0l190 1079h340l-190 -1079h-340z" glyph-name="iacute" horiz-adv-x="589" unicode="í"/><glyph d="M446 1405l-155 -180h-258l286 352h314l164 -352h-258l-88 180h-5zM31 0l190 1079h340l-190 -1079h-340z" glyph-name="icircumflex" horiz-adv-x="589" unicode="î"/><glyph d="M201 1243q-70 0 -111 38.5t-41 102.5q0 88 60.5 144.5t152.5 56.5q70 0 111 -39t41 -104q0 -86 -61 -142.5t-152 -56.5zM639 1243q-70 0 -111 38.5t-41 102.5q0 87 61 144t152 57q70 0 111 -39t41 -104q0 -86 -61 -142.5t-152 -56.5zM31 0l190 1079h340l-190 -1079h-340z" glyph-name="idieresis" horiz-adv-x="589" unicode="ï"/><glyph d="M993 1350q139 -100 203 -230t64 -303q0 -97 -23 -235q-47 -273 -236.5 -437.5t-451.5 -164.5q-230 0 -364 120.5t-134 321.5q0 173 80.5 313t221 218.5t313.5 78.5q177 0 290 -80q-22 89 -78.5 153.5t-156.5 117.5l-371 -174l-69 157l223 105q-113 35 -195 55l111 231 q233 -64 395 -143l307 143l68 -155zM598 248q120 0 202.5 88.5t82.5 218.5q0 95 -52 152t-143 57q-124 0 -205.5 -86.5t-81.5 -220.5q0 -95 53 -152t144 -57z" glyph-name="eth" horiz-adv-x="1306" unicode="ð"/><glyph d="M641 1352q-43 0 -75 -26.5t-46 -72.5h-137q31 164 120 256.5t216 92.5q44 0 85 -14t66.5 -30.5t59 -30.5t65.5 -14q43 0 75 26.5t44 70.5h137q-31 -164 -119 -256t-214 -92q-56 0 -105 22.5t-91.5 45t-80.5 22.5zM936 1100q135 0 213 -82.5t78 -222.5q0 -43 -10 -101 l-123 -694h-340l112 633q4 36 4 47q0 70 -40.5 112t-110.5 42q-91 0 -158.5 -65.5t-87.5 -172.5l-104 -596h-340l190 1079h340l-31 -174h4q64 89 175 142t229 53z" glyph-name="ntilde" horiz-adv-x="1302" unicode="ñ"/><glyph d="M936 1221h-254l-211 356h344zM549 -20q-228 0 -361 126t-133 338q0 188 90.5 338.5t248.5 234t354 83.5q228 0 360.5 -126t132.5 -337q0 -142 -53 -264.5t-144.5 -208.5t-220 -135t-274.5 -49zM598 248q125 0 209 101t84 253q0 105 -51.5 168.5t-139.5 63.5 q-125 0 -208.5 -102t-83.5 -255q0 -104 50.5 -166.5t139.5 -62.5z" glyph-name="ograve" horiz-adv-x="1298" unicode="ò"/><glyph d="M604 1221l244 356h346l-336 -356h-254zM549 -20q-228 0 -361 126t-133 338q0 188 90.5 338.5t248.5 234t354 83.5q228 0 360.5 -126t132.5 -337q0 -142 -53 -264.5t-144.5 -208.5t-220 -135t-274.5 -49zM598 248q125 0 209 101t84 253q0 105 -51.5 168.5t-139.5 63.5 q-125 0 -208.5 -102t-83.5 -255q0 -104 50.5 -166.5t139.5 -62.5z" glyph-name="oacute" horiz-adv-x="1298" unicode="ó"/><glyph d="M801 1405l-156 -180h-258l287 352h313l164 -352h-258l-88 180h-4zM748 1100q228 0 360.5 -126t132.5 -337q0 -142 -53 -264.5t-144.5 -208.5t-220 -135t-274.5 -49q-228 0 -361 126t-133 338q0 188 90.5 338.5t248.5 234t354 83.5zM598 248q125 0 209 101t84 253 q0 105 -51.5 168.5t-139.5 63.5q-125 0 -208.5 -102t-83.5 -255q0 -104 50.5 -166.5t139.5 -62.5z" glyph-name="ocircumflex" horiz-adv-x="1298" unicode="ô"/><glyph d="M373 1253q31 164 120 256.5t216 92.5q44 0 85 -14t66.5 -30.5t59 -30.5t65.5 -14q43 0 75 26.5t44 70.5h137q-31 -164 -119.5 -256t-214.5 -92q-56 0 -105 22.5t-91 45t-80 22.5q-43 0 -75 -26.5t-46 -72.5h-137zM549 -20q-228 0 -361 126t-133 338q0 188 90.5 338.5 t248.5 234t354 83.5q228 0 360.5 -126t132.5 -337q0 -142 -53 -264.5t-144.5 -208.5t-220 -135t-274.5 -49zM598 248q125 0 209 101t84 253q0 105 -51.5 168.5t-139.5 63.5q-125 0 -208.5 -102t-83.5 -255q0 -104 50.5 -166.5t139.5 -62.5z" glyph-name="otilde" horiz-adv-x="1298" unicode="õ"/><glyph d="M555 1243q-70 0 -111 38.5t-41 102.5q0 88 60.5 144.5t152.5 56.5q70 0 111 -39t41 -104q0 -86 -61 -142.5t-152 -56.5zM993 1243q-70 0 -110.5 38.5t-40.5 102.5q0 87 61 144t152 57q70 0 110.5 -39t40.5 -104q0 -86 -61 -142.5t-152 -56.5zM549 -20q-228 0 -361 126 t-133 338q0 188 90.5 338.5t248.5 234t354 83.5q228 0 360.5 -126t132.5 -337q0 -142 -53 -264.5t-144.5 -208.5t-220 -135t-274.5 -49zM598 248q125 0 209 101t84 253q0 105 -51.5 168.5t-139.5 63.5q-125 0 -208.5 -102t-83.5 -255q0 -104 50.5 -166.5t139.5 -62.5z" glyph-name="odieresis" horiz-adv-x="1298" unicode="ö"/><glyph d="M551 715q-74 0 -117 40t-43 107q0 92 62 150.5t159 58.5q73 0 116.5 -40.5t43.5 -106.5q0 -90 -63.5 -149.5t-157.5 -59.5zM51 389l45 254h881l-43 -254h-883zM416 -39q-73 0 -115.5 40.5t-42.5 107.5q0 92 63 150t160 58q72 0 115 -40.5t43 -106.5q0 -90 -63.5 -149.5 t-159.5 -59.5z" glyph-name="divide" horiz-adv-x="1038" unicode="÷"/><glyph d="M1092 989q149 -127 149 -352q0 -142 -53 -264.5t-144.5 -208.5t-220 -135t-274.5 -49q-148 0 -262 57l-113 -133l-82 57l111 131q-148 129 -148 352q0 188 90.5 338.5t248.5 234t354 83.5q149 0 262 -58l112 134l80 -58zM408 477q0 -67 22 -119l375 445q-45 31 -105 31 q-125 0 -208.5 -102t-83.5 -255zM598 248q125 0 209 101t84 253q0 67 -23 121l-376 -444q45 -31 106 -31z" glyph-name="oslash" horiz-adv-x="1298" unicode="ø"/><glyph d="M922 1221h-254l-211 356h344zM532 -20q-210 0 -330 97.5t-120 264.5q0 43 8 82l115 655h340l-109 -620q-4 -36 -4 -53q0 -73 40 -116.5t110 -43.5q82 0 142 58t77 155l110 620h340l-116 -655q-39 -220 -199.5 -332t-403.5 -112z" glyph-name="ugrave" horiz-adv-x="1263" unicode="ù"/><glyph d="M590 1221l244 356h346l-336 -356h-254zM532 -20q-210 0 -330 97.5t-120 264.5q0 43 8 82l115 655h340l-109 -620q-4 -36 -4 -53q0 -73 40 -116.5t110 -43.5q82 0 142 58t77 155l110 620h340l-116 -655q-39 -220 -199.5 -332t-403.5 -112z" glyph-name="uacute" horiz-adv-x="1263" unicode="ú"/><glyph d="M786 1405l-155 -180h-258l286 352h314l164 -352h-258l-88 180h-5zM911 1079h340l-116 -655q-39 -220 -199.5 -332t-403.5 -112q-210 0 -330 97.5t-120 264.5q0 43 8 82l115 655h340l-109 -620q-4 -36 -4 -53q0 -73 40 -116.5t110 -43.5q82 0 142 58t77 155z" glyph-name="ucircumflex" horiz-adv-x="1263" unicode="û"/><glyph d="M539 1243q-70 0 -111 38.5t-41 102.5q0 88 60.5 144.5t152.5 56.5q70 0 111 -39t41 -104q0 -86 -61 -142.5t-152 -56.5zM977 1243q-70 0 -111 38.5t-41 102.5q0 87 61 144t152 57q70 0 111 -39t41 -104q0 -86 -61 -142.5t-152 -56.5zM532 -20q-210 0 -330 97.5 t-120 264.5q0 43 8 82l115 655h340l-109 -620q-4 -36 -4 -53q0 -73 40 -116.5t110 -43.5q82 0 142 58t77 155l110 620h340l-116 -655q-39 -220 -199.5 -332t-403.5 -112z" glyph-name="udieresis" horiz-adv-x="1263" unicode="ü"/><glyph d="M1153 1577l-336 -356h-254l244 356h346zM944 1079h352l-843 -1550h-328l203 383l-228 1167h344l115 -770h4z" glyph-name="yacute" horiz-adv-x="1208" unicode="ý"/><glyph d="M932 1100q168 0 265 -120.5t97 -320.5q0 -192 -74 -348t-202.5 -243.5t-286.5 -87.5q-116 0 -205 53.5t-120 142.5h-5l-114 -647h-340l360 2048h340l-119 -676h4q58 92 167 145.5t233 53.5zM647 246q126 0 210.5 102t84.5 254q0 106 -50.5 169t-139.5 63 q-105 0 -184.5 -81t-102.5 -212q-8 -36 -8 -76q0 -101 50.5 -160t139.5 -59z" glyph-name="thorn" horiz-adv-x="1353" unicode="þ"/><glyph d="M514 1243q-70 0 -111 38.5t-41 102.5q0 88 60.5 144.5t152.5 56.5q70 0 111 -39t41 -104q0 -86 -61 -142.5t-152 -56.5zM952 1243q-70 0 -110.5 38.5t-40.5 102.5q0 87 61 144t152 57q70 0 110.5 -39t40.5 -104q0 -86 -61 -142.5t-152 -56.5zM944 1079h352l-843 -1550 h-328l203 383l-228 1167h344l115 -770h4z" glyph-name="ydieresis" horiz-adv-x="1208" unicode="ÿ"/><glyph d="M1362 1946l-43 -246h-717l43 246h717zM1057 0l-53 334h-590l-170 -334h-355l854 1577h392l297 -1577h-375zM553 606h410l-97 606h-4z" glyph-name="Amacron" horiz-adv-x="1513" unicode="Ā"/><glyph d="M1219 1546l-43 -243h-717l43 243h717zM985 1079h340l-190 -1079h-340l30 176h-4q-61 -91 -164.5 -143.5t-234.5 -52.5q-170 0 -267.5 120t-97.5 320q0 144 44 270.5t119 216.5t179.5 141.5t221.5 51.5q119 0 208.5 -53.5t118.5 -145.5h4zM602 246q106 0 185 81.5 t102 213.5q8 50 8 73q0 102 -51 161t-141 59q-125 0 -209 -102t-84 -255q0 -106 50 -168.5t140 -62.5z" glyph-name="amacron" horiz-adv-x="1351" unicode="ā"/><glyph d="M958 1675q-139 0 -219 79t-80 212q0 28 7 72h221q-2 -12 -2 -35q0 -60 28.5 -94.5t79.5 -34.5q57 0 102 45.5t60 118.5h223q-31 -166 -141.5 -264.5t-278.5 -98.5zM1057 0l-53 334h-590l-170 -334h-355l854 1577h392l297 -1577h-375zM553 606h410l-97 606h-4z" glyph-name="Abreve" horiz-adv-x="1513" unicode="Ă"/><glyph d="M803 1214q-157 0 -237.5 100t-55.5 263h221q-9 -74 20 -119t87 -45q57 0 101.5 45.5t59.5 118.5h224q-31 -163 -146.5 -263t-273.5 -100zM985 1079h340l-190 -1079h-340l30 176h-4q-61 -91 -164.5 -143.5t-234.5 -52.5q-170 0 -267.5 120t-97.5 320q0 144 44 270.5 t119 216.5t179.5 141.5t221.5 51.5q119 0 208.5 -53.5t118.5 -145.5h4zM602 246q106 0 185 81.5t102 213.5q8 50 8 73q0 102 -51 161t-141 59q-125 0 -209 -102t-84 -255q0 -106 50 -168.5t140 -62.5z" glyph-name="abreve" horiz-adv-x="1351" unicode="ă"/><glyph d="M1206 -248q0 -26 16 -41.5t44 -15.5q53 0 118 37l-30 -181q-88 -43 -209 -43q-101 0 -160 44t-59 116q0 71 75 158t205 174h-149l-53 334h-590l-170 -334h-355l854 1577h392l297 -1577q-101 -69 -163.5 -137t-62.5 -111zM553 606h410l-97 606h-4z" glyph-name="Aogonek" horiz-adv-x="1511" unicode="Ą"/><glyph d="M985 1079h340l-190 -1079h-2q-101 -69 -163.5 -137t-62.5 -111q0 -26 16 -41.5t44 -15.5q53 0 118 37l-30 -181q-88 -43 -209 -43q-101 0 -160 44t-59 116q0 71 75 158t205 174h-112l30 176h-4q-61 -91 -164.5 -143.5t-234.5 -52.5q-170 0 -267.5 120t-97.5 320 q0 144 44 270.5t119 216.5t179.5 141.5t221.5 51.5q119 0 208.5 -53.5t118.5 -145.5h4zM602 246q106 0 185 81.5t102 213.5q8 50 8 73q0 102 -51 161t-141 59q-125 0 -209 -102t-84 -255q0 -106 50 -168.5t140 -62.5z" glyph-name="aogonek" horiz-adv-x="1351" unicode="ą"/><glyph d="M911 1686l244 356h346l-336 -356h-254zM776 -20q-297 0 -482 182.5t-185 480.5q0 275 119.5 492t337 339.5t495.5 122.5q184 0 329 -67t228 -192.5t84 -288.5q0 -9 -1 -29.5t-1 -30.5h-348q2 14 2 27q0 137 -93.5 219t-248.5 82q-111 0 -210 -48.5t-170 -133t-112 -204 t-41 -255.5q0 -189 92.5 -302.5t253.5 -113.5q163 0 288.5 90t168.5 238h346q-76 -278 -303.5 -443t-548.5 -165z" glyph-name="Cacute" horiz-adv-x="1675" unicode="Ć"/><glyph d="M600 1221l244 356h346l-336 -356h-254zM545 -20q-226 0 -358 126t-132 336q0 189 89.5 340t246.5 234.5t352 83.5q219 0 345.5 -118.5t128.5 -317.5h-332q-3 77 -54 123.5t-135 46.5q-123 0 -205.5 -102.5t-82.5 -254.5q0 -104 49 -166.5t137 -62.5q85 0 153.5 45.5 t94.5 118.5h334q-60 -195 -233.5 -313.5t-397.5 -118.5z" glyph-name="cacute" horiz-adv-x="1249" unicode="ć"/><glyph d="M1079 1692q-76 0 -120 41.5t-44 109.5q0 91 64 149t162 58q76 0 120 -40t44 -107q0 -91 -64.5 -151t-161.5 -60zM776 -20q-297 0 -482 182.5t-185 480.5q0 275 119.5 492t337 339.5t495.5 122.5q184 0 329 -67t228 -192.5t84 -288.5q0 -9 -1 -29.5t-1 -30.5h-348 q2 14 2 27q0 137 -93.5 219t-248.5 82q-111 0 -210 -48.5t-170 -133t-112 -204t-41 -255.5q0 -189 92.5 -302.5t253.5 -113.5q163 0 288.5 90t168.5 238h346q-76 -278 -303.5 -443t-548.5 -165z" glyph-name="Cdotaccent" horiz-adv-x="1675" unicode="Ċ"/><glyph d="M770 1249q-76 0 -120 41t-44 109q0 92 64 150.5t161 58.5q76 0 120 -41t44 -109q0 -91 -64 -150t-161 -59zM545 -20q-226 0 -358 126t-132 336q0 189 89.5 340t246.5 234.5t352 83.5q219 0 345.5 -118.5t128.5 -317.5h-332q-3 77 -54 123.5t-135 46.5 q-123 0 -205.5 -102.5t-82.5 -254.5q0 -104 49 -166.5t137 -62.5q85 0 153.5 45.5t94.5 118.5h334q-60 -195 -233.5 -313.5t-397.5 -118.5z" glyph-name="cdotaccent" horiz-adv-x="1249" unicode="ċ"/><glyph d="M922 1686l-164 352h258l90 -180h4l154 180h258l-287 -352h-313zM1700 989h-348q2 14 2 27q0 137 -93.5 219t-248.5 82q-111 0 -210 -48.5t-170 -133t-112 -204t-41 -255.5q0 -189 92.5 -302.5t253.5 -113.5q163 0 288.5 90t168.5 238h346q-76 -278 -303.5 -443 t-548.5 -165q-297 0 -482 182.5t-185 480.5q0 275 119.5 492t337 339.5t495.5 122.5q184 0 329 -67t228 -192.5t84 -288.5q0 -9 -1 -29.5t-1 -30.5z" glyph-name="Ccaron" horiz-adv-x="1675" unicode="Č"/><glyph d="M608 1225l-164 352h258l91 -180h4l153 180h258l-286 -352h-314zM594 248q85 0 153.5 45.5t94.5 118.5h334q-60 -195 -233.5 -313.5t-397.5 -118.5q-226 0 -358 126t-132 336q0 189 89.5 340t246.5 234.5t352 83.5q219 0 345.5 -118.5t128.5 -317.5h-332q-3 77 -54 123.5 t-135 46.5q-123 0 -205.5 -102.5t-82.5 -254.5q0 -104 49 -166.5t137 -62.5z" glyph-name="ccaron" horiz-adv-x="1249" unicode="č"/><glyph d="M752 1686l-164 352h258l90 -180h4l154 180h258l-287 -352h-313zM872 1577q307 0 499 -180t192 -473q0 -200 -71.5 -371.5t-198 -293t-307 -190.5t-392.5 -69h-539l279 1577h538zM659 274q149 0 271 80t192 222.5t70 318.5q0 186 -93.5 297t-256.5 111h-203l-182 -1029 h202z" glyph-name="Dcaron" horiz-adv-x="1583" unicode="Ď"/><glyph d="M1622 1597l270 -67l-211 -463l-249 68zM952 901l121 676h340l-278 -1577h-340l30 176h-4q-61 -91 -164.5 -143.5t-234.5 -52.5q-170 0 -267.5 120t-97.5 320q0 144 44 270.5t119 216.5t179.5 141.5t221.5 51.5q119 0 208.5 -53.5t118.5 -145.5h4zM602 246q106 0 185 81.5 t102 213.5q8 50 8 73q0 102 -51 161t-141 59q-125 0 -209 -102t-84 -255q0 -106 50 -168.5t140 -62.5z" glyph-name="dcaron" horiz-adv-x="1570" unicode="ď"/><glyph d="M895 1577q202 0 359 -80.5t244 -229.5t87 -343q0 -200 -71.5 -371.5t-198 -293t-307 -190.5t-392.5 -69h-538l121 682h-129l41 238h129l116 657h539zM682 274q149 0 270.5 80t191.5 222.5t70 318.5q0 186 -93.5 297t-256.5 111h-202l-68 -383h313l-41 -238h-315l-72 -408 h203z" glyph-name="Dcroat" horiz-adv-x="1605" unicode="Đ"/><glyph d="M1495 1444l-41 -238h-106l-213 -1206h-340l30 176h-4q-61 -91 -164.5 -143.5t-234.5 -52.5q-170 0 -267.5 120t-97.5 320q0 144 44 270.5t119 216.5t179.5 141.5t221.5 51.5q119 0 208.5 -53.5t118.5 -145.5h4l56 305h-351l41 238h351l24 133h340l-22 -133h104zM602 246 q106 0 185 81.5t102 213.5q8 50 8 73q0 102 -51 161t-141 59q-125 0 -209 -102t-84 -255q0 -106 50 -168.5t140 -62.5z" glyph-name="dcroat" horiz-adv-x="1351" unicode="đ"/><glyph d="M1333 1946l-43 -246h-717l43 246h717zM1438 1303h-799l-64 -359h723l-47 -274h-725l-69 -396h823l-49 -274h-1176l279 1577h1151z" glyph-name="Emacron" horiz-adv-x="1404" unicode="Ē"/><glyph d="M1178 1546l-43 -243h-717l43 243h717zM741 1100q221 0 348.5 -121t127.5 -326q0 -53 -13 -129l-6 -39h-811v-16q0 -114 53 -183t146 -69q83 0 155.5 44.5t106.5 115.5h328q-66 -178 -240.5 -287.5t-392.5 -109.5q-225 0 -355.5 126t-130.5 338q0 188 89 338.5t245 234 t350 83.5zM700 872q-94 0 -170.5 -62.5t-113.5 -166.5h473q-2 105 -52 167t-137 62z" glyph-name="emacron" horiz-adv-x="1271" unicode="ē"/><glyph d="M930 1692q-76 0 -120 41.5t-44 109.5q0 91 63.5 149t161.5 58q76 0 120 -40t44 -107q0 -91 -64 -151t-161 -60zM1438 1303h-799l-64 -359h723l-47 -274h-725l-69 -396h823l-49 -274h-1176l279 1577h1151z" glyph-name="Edotaccent" horiz-adv-x="1404" unicode="Ė"/><glyph d="M766 1249q-76 0 -120 41t-44 109q0 92 64 150.5t161 58.5q76 0 120 -41t44 -109q0 -91 -64 -150t-161 -59zM741 1100q221 0 348.5 -121t127.5 -326q0 -53 -13 -129l-6 -39h-811v-16q0 -114 53 -183t146 -69q83 0 155.5 44.5t106.5 115.5h328q-66 -178 -240.5 -287.5 t-392.5 -109.5q-225 0 -355.5 126t-130.5 338q0 188 89 338.5t245 234t350 83.5zM700 872q-94 0 -170.5 -62.5t-113.5 -166.5h473q-2 105 -52 167t-137 62z" glyph-name="edotaccent" horiz-adv-x="1271" unicode="ė"/><glyph d="M1438 1303h-799l-64 -359h723l-47 -274h-725l-69 -396h823l-49 -274h-131q-101 -69 -163.5 -137t-62.5 -111q0 -26 16 -41.5t44 -15.5q54 0 119 37l-31 -181q-88 -43 -209 -43q-101 0 -160 44t-59 116q0 71 75 158t205 174h-819l279 1577h1151z" glyph-name="Eogonek" horiz-adv-x="1404" unicode="Ę"/><glyph d="M741 1100q221 0 348.5 -121t127.5 -326q0 -53 -13 -129l-6 -39h-811v-16q0 -114 53 -183t146 -69q83 0 155.5 44.5t106.5 115.5h328q-52 -140 -174 -240t-283 -137q-100 -69 -162.5 -137t-62.5 -111q0 -26 15.5 -41.5t43.5 -15.5q54 0 119 37l-31 -181q-88 -43 -209 -43 q-101 0 -160 44t-59 116q0 66 68.5 149.5t187.5 166.5q-193 20 -302.5 143.5t-109.5 316.5q0 188 89 338.5t245 234t350 83.5zM700 872q-94 0 -170.5 -62.5t-113.5 -166.5h473q-2 105 -52 167t-137 62z" glyph-name="eogonek" horiz-adv-x="1271" unicode="ę"/><glyph d="M772 1686l-164 352h258l90 -180h5l153 180h258l-287 -352h-313zM1438 1303h-799l-64 -359h723l-47 -274h-725l-69 -396h823l-49 -274h-1176l279 1577h1151z" glyph-name="Ecaron" horiz-adv-x="1404" unicode="Ě"/><glyph d="M606 1225l-164 352h258l91 -180h4l153 180h258l-286 -352h-314zM741 1100q221 0 348.5 -121t127.5 -326q0 -53 -13 -129l-6 -39h-811v-16q0 -114 53 -183t146 -69q83 0 155.5 44.5t106.5 115.5h328q-66 -178 -240.5 -287.5t-392.5 -109.5q-225 0 -355.5 126t-130.5 338 q0 188 89 338.5t245 234t350 83.5zM700 872q-94 0 -170.5 -62.5t-113.5 -166.5h473q-2 105 -52 167t-137 62z" glyph-name="ecaron" horiz-adv-x="1271" unicode="ě"/><glyph d="M1081 1675q-139 0 -219 79t-80 212q0 34 6 72h222q-2 -12 -2 -35q0 -60 28.5 -94.5t79.5 -34.5q57 0 102 45.5t60 118.5h223q-31 -166 -141.5 -264.5t-278.5 -98.5zM1694 1008h-340v18q-2 132 -94.5 211.5t-247.5 79.5q-111 0 -210 -48.5t-170 -133t-112 -204t-41 -255.5 q0 -189 92.5 -302.5t253.5 -113.5q159 0 281.5 94t173.5 254h-406l41 234h762l-14 -84q-61 -353 -299.5 -565.5t-587.5 -212.5q-297 0 -482 182.5t-185 480.5q0 275 119.5 492t337 339.5t495.5 122.5q184 0 328 -66t226 -189t83 -283q0 -15 -4 -51z" glyph-name="Gbreve" horiz-adv-x="1699" unicode="Ğ"/><glyph d="M803 1214q-157 0 -237.5 100t-55.5 263h221q-9 -74 20 -119t87 -45q57 0 101.5 45.5t59.5 118.5h224q-31 -163 -146.5 -263t-273.5 -100zM985 1079h340l-192 -1081q-42 -241 -217.5 -365.5t-440.5 -124.5q-212 0 -338.5 103.5t-126.5 275.5q0 23 2 35h322v-12 q5 -61 55 -97t133 -36q104 0 178 56.5t91 148.5l34 194h-4q-62 -92 -164.5 -144t-234.5 -52q-170 0 -267.5 120t-97.5 320q0 144 44 270.5t119 216.5t179.5 141.5t221.5 51.5q119 0 208.5 -53.5t118.5 -145.5h4zM602 246q106 0 185 81.5t102 213.5q8 50 8 73q0 102 -51 161 t-141 59q-124 0 -208.5 -102t-84.5 -255q0 -106 50 -168.5t140 -62.5z" glyph-name="gbreve" horiz-adv-x="1351" unicode="ğ"/><glyph d="M1083 1692q-76 0 -119.5 41.5t-43.5 109.5q0 91 63.5 149t161.5 58q76 0 120 -40t44 -107q0 -91 -64.5 -151t-161.5 -60zM1694 1008h-340v18q-2 132 -94.5 211.5t-247.5 79.5q-111 0 -210 -48.5t-170 -133t-112 -204t-41 -255.5q0 -189 92.5 -302.5t253.5 -113.5 q159 0 281.5 94t173.5 254h-406l41 234h762l-14 -84q-61 -353 -299.5 -565.5t-587.5 -212.5q-297 0 -482 182.5t-185 480.5q0 275 119.5 492t337 339.5t495.5 122.5q184 0 328 -66t226 -189t83 -283q0 -15 -4 -51z" glyph-name="Gdotaccent" horiz-adv-x="1699" unicode="Ġ"/><glyph d="M805 1247q-76 0 -120 41t-44 109q0 92 64 150.5t161 58.5q76 0 120 -41t44 -109q0 -91 -64 -150t-161 -59zM985 1079h340l-192 -1081q-42 -241 -217.5 -365.5t-440.5 -124.5q-212 0 -338.5 103.5t-126.5 275.5q0 23 2 35h322v-12q5 -61 55 -97t133 -36q104 0 178 56.5 t91 148.5l34 194h-4q-62 -92 -164.5 -144t-234.5 -52q-170 0 -267.5 120t-97.5 320q0 144 44 270.5t119 216.5t179.5 141.5t221.5 51.5q119 0 208.5 -53.5t118.5 -145.5h4zM602 246q106 0 185 81.5t102 213.5q8 50 8 73q0 102 -51 161t-141 59q-124 0 -208.5 -102 t-84.5 -255q0 -106 50 -168.5t140 -62.5z" glyph-name="gdotaccent" horiz-adv-x="1351" unicode="ġ"/><glyph d="M1694 1008h-340v18q-2 132 -94.5 211.5t-247.5 79.5q-111 0 -210 -48.5t-170 -133t-112 -204t-41 -255.5q0 -189 92.5 -302.5t253.5 -113.5q159 0 281.5 94t173.5 254h-406l41 234h762l-14 -84q-61 -353 -299.5 -565.5t-587.5 -212.5q-297 0 -482 182.5t-185 480.5 q0 275 119.5 492t337 339.5t495.5 122.5q184 0 328 -66t226 -189t83 -283q0 -15 -4 -51zM766 -102q75 0 112.5 -52t22.5 -137q-23 -125 -114.5 -209t-219.5 -94l-2 59q72 9 129.5 49.5t85.5 100.5q-54 -23 -94 -23q-55 0 -87 31t-32 82q0 82 56.5 137.5t142.5 55.5z" glyph-name="Gcommaaccent" horiz-adv-x="1699" unicode="Ģ"/><glyph d="M803 1233q-75 0 -112.5 50.5t-22.5 133.5q19 110 109.5 186.5t217.5 88.5l11 -66q-158 -9 -218 -135q46 18 89 18q56 0 88 -29.5t32 -80.5q0 -73 -55 -119.5t-139 -46.5zM985 1079h340l-192 -1081q-42 -241 -217.5 -365.5t-440.5 -124.5q-212 0 -338.5 103.5 t-126.5 275.5q0 23 2 35h322v-12q5 -61 55 -97t133 -36q104 0 178 56.5t91 148.5l34 194h-4q-62 -92 -164.5 -144t-234.5 -52q-170 0 -267.5 120t-97.5 320q0 144 44 270.5t119 216.5t179.5 141.5t221.5 51.5q119 0 208.5 -53.5t118.5 -145.5h4zM602 246q106 0 185 81.5 t102 213.5q8 50 8 73q0 102 -51 161t-141 59q-124 0 -208.5 -102t-84.5 -255q0 -106 50 -168.5t140 -62.5z" glyph-name="gcommaaccent" horiz-adv-x="1351" unicode="ģ"/><glyph d="M1784 1395l-43 -240h-137l-205 -1155h-355l117 662h-610l-117 -662h-354l205 1155h-138l43 240h136l32 182h355l-33 -182h610l33 182h354l-32 -182h139zM1210 936l39 219h-610l-39 -219h610z" glyph-name="Hbar" horiz-adv-x="1673" unicode="Ħ"/><glyph d="M936 1100q135 0 213 -82.5t78 -222.5q0 -43 -10 -101l-123 -694h-340l112 633q4 36 4 47q0 70 -40.5 112t-110.5 42q-91 0 -158.5 -65.5t-87.5 -172.5l-104 -596h-340l213 1206h-117l41 238h119l22 133h340l-22 -133h338l-41 -238h-340l-54 -301h4q64 89 175 142t229 53z" glyph-name="hbar" horiz-adv-x="1302" unicode="ħ"/><glyph d="M174 1700l43 246h717l-43 -246h-717zM55 0l279 1577h354l-278 -1577h-355z" glyph-name="Imacron" horiz-adv-x="657" unicode="Ī"/><glyph d="M162 1516h610l-41 -246h-612zM31 0l190 1079h340l-190 -1079h-340z" glyph-name="imacron" horiz-adv-x="589" unicode="ī"/><glyph d="M410 0q-101 -69 -163.5 -137t-62.5 -111q0 -26 16 -41.5t44 -15.5q53 0 118 37l-30 -181q-88 -43 -209 -43q-101 0 -160 44t-59 116q0 71 75 158t205 174h-129l279 1577h354z" glyph-name="Iogonek" horiz-adv-x="657" unicode="Į"/><glyph d="M479 1608q76 0 120 -41t44 -109q0 -91 -64 -150t-161 -59q-76 0 -120 41t-44 109q0 92 64 150.5t161 58.5zM31 0l190 1079h340l-190 -1079h-2q-101 -69 -163.5 -137t-62.5 -111q0 -26 16 -41.5t44 -15.5q54 0 119 37l-31 -181q-88 -43 -209 -43q-101 0 -160 44t-59 116 q0 71 75 158t205 174h-112z" glyph-name="iogonek" horiz-adv-x="589" unicode="į"/><glyph d="M530 1692q-76 0 -119.5 41.5t-43.5 109.5q0 91 63.5 149t161.5 58q76 0 120 -40t44 -107q0 -91 -64.5 -151t-161.5 -60zM55 0l279 1577h354l-278 -1577h-355z" glyph-name="Idotaccent" horiz-adv-x="657" unicode="İ"/><glyph d="M31 0l190 1079h340l-190 -1079h-340z" glyph-name="dotlessi" horiz-adv-x="589" unicode="ı"/><glyph d="M334 1577h354l-278 -1577h-355zM1628 1577l-635 -735l449 -842h-406l-450 819l639 758h403zM662 -102q75 0 112.5 -52t22.5 -137q-23 -125 -114.5 -209t-219.5 -94l-2 59q72 9 129.5 49.5t85.5 100.5q-54 -23 -94 -23q-55 0 -87 31t-32 82q0 82 56.5 137.5t142.5 55.5z" glyph-name="Kcommaaccent" horiz-adv-x="1492" unicode="Ķ"/><glyph d="M647 1577l-278 -1577h-340l278 1577h340zM1348 1079l-474 -489l359 -590h-389l-348 584l471 495h381zM547 -102q75 0 112.5 -52t22.5 -137q-23 -125 -114.5 -209t-219.5 -94l-2 59q72 9 129.5 49.5t85.5 100.5q-54 -23 -94 -23q-55 0 -87 31t-32 82q0 82 56.5 137.5 t142.5 55.5z" glyph-name="kcommaaccent" horiz-adv-x="1292" unicode="ķ"/><glyph d="M952 2042l-336 -356h-254l244 356h346zM459 283h684l-49 -283h-1039l279 1577h354z" glyph-name="Lacute" horiz-adv-x="1214" unicode="Ĺ"/><glyph d="M332 1686l243 356h347l-336 -356h-254zM31 0l278 1577h340l-278 -1577h-340z" glyph-name="lacute" horiz-adv-x="589" unicode="ĺ"/><glyph d="M459 283h684l-49 -283h-1039l279 1577h354zM516 -102q75 0 112.5 -52t22.5 -137q-23 -125 -114.5 -209t-219.5 -94l-2 59q72 9 129.5 49.5t85.5 100.5q-54 -23 -94 -23q-55 0 -87 31t-32 82q0 82 56.5 137.5t142.5 55.5z" glyph-name="Lcommaaccent" horiz-adv-x="1214" unicode="Ļ"/><glyph d="M309 1577h340l-278 -1577h-340zM182 -102q75 0 112.5 -52t22.5 -137q-23 -126 -114 -209.5t-219 -93.5l-2 59q72 9 129.5 49.5t85.5 100.5q-54 -23 -95 -23q-55 0 -86.5 30.5t-31.5 82.5q0 82 56 137.5t142 55.5z" glyph-name="lcommaaccent" horiz-adv-x="589" unicode="ļ"/><glyph d="M1278 1530l-209 -463l-252 68l193 462zM688 1577l-229 -1294h684l-49 -283h-1039l279 1577h354z" glyph-name="Lcaron" horiz-adv-x="1239" unicode="Ľ"/><glyph d="M887 1067l-250 68l192 462l269 -67zM31 0l278 1577h340l-278 -1577h-340z" glyph-name="lcaron" horiz-adv-x="774" unicode="ľ"/><glyph d="M496 283h684l-50 -283h-1038l94 532l-153 -53l47 269l153 55l138 774h354l-117 -664l387 146l-47 -266l-387 -148z" glyph-name="Lslash" horiz-adv-x="1253" unicode="Ł"/><glyph d="M727 1059l-45 -260l-127 -64l-129 -735h-340l102 580l-127 -64l45 262l127 62l132 737h340l-103 -580z" glyph-name="lslash" horiz-adv-x="706" unicode="ł"/><glyph d="M1438 2042l-336 -356h-254l244 356h346zM1317 1577h336l-279 -1577h-330l-477 1028h-4l-172 -1028h-336l279 1577h332l475 -1030h4z" glyph-name="Nacute" horiz-adv-x="1622" unicode="Ń"/><glyph d="M1204 1577l-336 -356h-254l244 356h346zM936 1100q135 0 213 -82.5t78 -222.5q0 -43 -10 -101l-123 -694h-340l112 633q4 36 4 47q0 70 -40.5 112t-110.5 42q-91 0 -158.5 -65.5t-87.5 -172.5l-104 -596h-340l190 1079h340l-31 -174h4q64 89 175 142t229 53z" glyph-name="nacute" horiz-adv-x="1302" unicode="ń"/><glyph d="M1317 1577h336l-279 -1577h-330l-477 1028h-4l-172 -1028h-336l279 1577h332l475 -1030h4zM698 -102q75 0 113 -52.5t23 -136.5q-23 -125 -114.5 -209t-219.5 -94l-2 59q72 9 129.5 49.5t85.5 100.5q-54 -23 -95 -23q-55 0 -86.5 30.5t-31.5 82.5q0 82 56 137.5t142 55.5 z" glyph-name="Ncommaaccent" horiz-adv-x="1622" unicode="Ņ"/><glyph d="M936 1100q135 0 213 -82.5t78 -222.5q0 -43 -10 -101l-123 -694h-340l112 633q4 36 4 47q0 70 -40.5 112t-110.5 42q-91 0 -158.5 -65.5t-87.5 -172.5l-104 -596h-340l190 1079h340l-31 -174h4q64 89 175 142t229 53zM545 -102q75 0 112.5 -52t22.5 -137 q-23 -125 -114.5 -209t-219.5 -94l-2 59q72 9 129.5 49.5t85.5 100.5q-54 -23 -94 -23q-55 0 -87 31t-32 82q0 82 56.5 137.5t142.5 55.5z" glyph-name="ncommaaccent" horiz-adv-x="1302" unicode="ņ"/><glyph d="M858 1686l-164 352h258l90 -180h5l153 180h258l-287 -352h-313zM1317 1577h336l-279 -1577h-330l-477 1028h-4l-172 -1028h-336l279 1577h332l475 -1030h4z" glyph-name="Ncaron" horiz-adv-x="1622" unicode="Ň"/><glyph d="M623 1225l-164 352h258l90 -180h4l154 180h258l-287 -352h-313zM936 1100q135 0 213 -82.5t78 -222.5q0 -43 -10 -101l-123 -694h-340l112 633q4 36 4 47q0 70 -40.5 112t-110.5 42q-91 0 -158.5 -65.5t-87.5 -172.5l-104 -596h-340l190 1079h340l-31 -174h4 q64 89 175 142t229 53z" glyph-name="ncaron" horiz-adv-x="1302" unicode="ň"/><glyph d="M1317 1577h336l-279 -1577l-2 -16q-37 -215 -195.5 -345.5t-381.5 -130.5q-138 0 -250 41l117 271q58 -33 145 -33q78 0 137 56.5t74 146.5l8 45l-459 993h-4l-172 -1028h-336l279 1577h332l475 -1030h4z" glyph-name="Eng" horiz-adv-x="1622" unicode="Ŋ"/><glyph d="M936 1100q135 0 213 -82.5t78 -222.5q0 -43 -10 -101l-130 -743q-37 -215 -173.5 -329t-335.5 -114q-81 0 -159 19.5t-124 50.5l113 238q63 -39 135 -39q78 0 133 49t69 129l121 678q4 36 4 47q0 70 -40.5 112t-110.5 42q-91 0 -158.5 -65.5t-87.5 -172.5l-104 -596h-340 l190 1079h340l-31 -174h4q64 89 175 142t229 53z" glyph-name="eng" horiz-adv-x="1302" unicode="ŋ"/><glyph d="M723 1700l43 246h717l-43 -246h-717zM778 -20q-300 0 -486 182.5t-186 482.5q0 206 70.5 382.5t195 302t303 196.5t388.5 71q197 0 349 -82t236.5 -233.5t84.5 -349.5q0 -206 -70.5 -382.5t-195 -302t-302.5 -196.5t-387 -71zM827 260q112 0 211 48.5t170.5 133 t112.5 204t41 255.5q0 190 -93 303t-255 113q-151 0 -273.5 -82.5t-193 -229.5t-70.5 -329q0 -190 93 -303t257 -113z" glyph-name="Omacron" horiz-adv-x="1751" unicode="Ō"/><glyph d="M426 1303l43 243h717l-43 -243h-717zM549 -20q-228 0 -361 126t-133 338q0 188 90.5 338.5t248.5 234t354 83.5q228 0 360.5 -126t132.5 -337q0 -142 -53 -264.5t-144.5 -208.5t-220 -135t-274.5 -49zM598 248q125 0 209 101t84 253q0 105 -51.5 168.5t-139.5 63.5 q-125 0 -208.5 -102t-83.5 -255q0 -104 50.5 -166.5t139.5 -62.5z" glyph-name="omacron" horiz-adv-x="1298" unicode="ō"/><glyph d="M731 1686l223 356h344l-313 -356h-254zM1141 1686l223 356h346l-315 -356h-254zM778 -20q-300 0 -486 182.5t-186 482.5q0 206 70.5 382.5t195 302t303 196.5t388.5 71q197 0 349 -82t236.5 -233.5t84.5 -349.5q0 -206 -70.5 -382.5t-195 -302t-302.5 -196.5t-387 -71z M827 260q112 0 211 48.5t170.5 133t112.5 204t41 255.5q0 190 -93 303t-255 113q-151 0 -273.5 -82.5t-193 -229.5t-70.5 -329q0 -190 93 -303t257 -113z" glyph-name="Ohungarumlaut" horiz-adv-x="1751" unicode="Ő"/><glyph d="M424 1221l223 356h344l-313 -356h-254zM834 1221l223 356h346l-316 -356h-253zM549 -20q-228 0 -361 126t-133 338q0 188 90.5 338.5t248.5 234t354 83.5q228 0 360.5 -126t132.5 -337q0 -142 -53 -264.5t-144.5 -208.5t-220 -135t-274.5 -49zM598 248q125 0 209 101 t84 253q0 105 -51.5 168.5t-139.5 63.5q-125 0 -208.5 -102t-83.5 -255q0 -104 50.5 -166.5t139.5 -62.5z" glyph-name="ohungarumlaut" horiz-adv-x="1298" unicode="ő"/><glyph d="M2556 1303h-774l-64 -359h703l-49 -274h-703l-70 -396h797l-47 -274h-1104l43 248h-4q-216 -268 -559 -268q-277 0 -448 180.5t-171 474.5q0 207 67.5 385.5t186 305.5t287 199t363.5 72q155 0 279.5 -71t185.5 -197h6l43 248h1081zM821 260q147 0 268.5 84t191 231.5 t69.5 327.5q0 191 -91 302.5t-251 111.5q-147 0 -268 -82.5t-191 -230t-70 -328.5q0 -190 91 -303t251 -113z" glyph-name="OE" horiz-adv-x="2525" unicode="Œ"/><glyph d="M1556 1100q203 0 321 -119t118 -322q0 -59 -13 -135l-8 -39h-794v-28q0 -111 49.5 -175.5t146.5 -64.5q78 0 147.5 45t100.5 115h328q-63 -178 -226.5 -287.5t-367.5 -109.5q-134 0 -232.5 60.5t-144.5 168.5h-4q-181 -229 -469 -229q-210 0 -331.5 124.5t-121.5 333.5 q0 142 50 265.5t136.5 210.5t207.5 136.5t258 49.5t237.5 -60.5t145.5 -167.5h4q183 228 462 228zM1487 872q-92 0 -166 -62t-111 -167h455q-2 107 -48.5 168t-129.5 61zM590 248q119 0 200.5 102.5t81.5 255.5q0 103 -48 165.5t-132 62.5q-122 0 -203 -102.5t-81 -256.5 q0 -103 48 -165t134 -62z" glyph-name="oe" horiz-adv-x="2050" unicode="œ"/><glyph d="M1307 2042l-336 -356h-254l244 356h346zM1526 1180q0 -173 -101 -306.5t-280 -199.5l237 -674h-395l-194 618h-275l-108 -618h-355l279 1577h645q157 0 281 -49t195 -140t71 -208zM637 1303l-74 -426h309q121 0 199 69.5t78 179.5q0 79 -55 128t-148 49h-309z" glyph-name="Racute" horiz-adv-x="1519" unicode="Ŕ"/><glyph d="M1026 1577l-336 -356h-254l244 356h346zM524 858q55 109 156.5 175.5t210.5 66.5q67 0 125 -21l-55 -311q-68 35 -185 35q-120 0 -208.5 -88.5t-114.5 -233.5l-84 -481h-340l190 1079h340l-39 -221h4z" glyph-name="racute" horiz-adv-x="946" unicode="ŕ"/><glyph d="M1526 1180q0 -173 -101 -306.5t-280 -199.5l237 -674h-395l-194 618h-275l-108 -618h-355l279 1577h645q157 0 281 -49t195 -140t71 -208zM637 1303l-74 -426h309q121 0 199 69.5t78 179.5q0 79 -55 128t-148 49h-309zM631 -102q75 0 112.5 -52t22.5 -137 q-23 -125 -114.5 -209t-219.5 -94l-2 59q72 9 129.5 49.5t85.5 100.5q-54 -23 -94 -23q-55 0 -87 31t-32 82q0 82 56.5 137.5t142.5 55.5z" glyph-name="Rcommaaccent" horiz-adv-x="1519" unicode="Ŗ"/><glyph d="M891 1100q67 0 125 -21l-55 -311q-68 35 -185 35q-120 0 -208.5 -88.5t-114.5 -233.5l-84 -481h-340l190 1079h340l-39 -221h4q55 109 156.5 175.5t210.5 66.5zM174 -102q75 0 112.5 -52t22.5 -137q-23 -125 -114.5 -209t-219.5 -94l-2 59q72 9 129.5 49.5t85.5 100.5 q-54 -23 -94 -23q-55 0 -87 31t-32 82q0 82 56.5 137.5t142.5 55.5z" glyph-name="rcommaaccent" horiz-adv-x="946" unicode="ŗ"/><glyph d="M727 1686l-164 352h258l90 -180h4l154 180h258l-287 -352h-313zM1526 1180q0 -173 -101 -306.5t-280 -199.5l237 -674h-395l-194 618h-275l-108 -618h-355l279 1577h645q157 0 281 -49t195 -140t71 -208zM637 1303l-74 -426h309q121 0 199 69.5t78 179.5q0 79 -55 128 t-148 49h-309z" glyph-name="Rcaron" horiz-adv-x="1519" unicode="Ř"/><glyph d="M444 1225l-163 352h258l90 -180h4l153 180h258l-286 -352h-314zM524 858q55 109 156.5 175.5t210.5 66.5q67 0 125 -21l-55 -311q-68 35 -185 35q-120 0 -208.5 -88.5t-114.5 -233.5l-84 -481h-340l190 1079h340l-39 -221h4z" glyph-name="rcaron" horiz-adv-x="946" unicode="ř"/><glyph d="M764 1686l244 356h346l-336 -356h-254zM629 -20q-165 0 -296.5 60t-206.5 172t-75 257q0 39 2 59h353v-28q0 -109 76 -174.5t206 -65.5q147 0 241.5 63t94.5 164q0 31 -11.5 56t-36.5 43t-50.5 30.5t-70 23t-75.5 16.5t-86 14q-59 9 -101 17t-98.5 23t-95.5 32.5 t-80.5 45.5t-67 62.5t-42 83t-16.5 106.5q0 248 198 402.5t524 154.5q232 0 382.5 -129t150.5 -338q0 -21 -4 -57h-352q4 24 4 37q0 94 -67.5 150.5t-182.5 56.5q-123 0 -203 -56.5t-80 -144.5q0 -32 17 -56.5t43 -41t70 -29.5t83 -20.5t98 -16.5q60 -9 104.5 -17.5 t102.5 -24t99.5 -34t85 -48t70.5 -65t44 -86t17 -110.5q0 -260 -211 -423.5t-557 -163.5z" glyph-name="Sacute" horiz-adv-x="1466" unicode="Ś"/><glyph d="M522 1221l244 356h346l-336 -356h-254zM469 -20q-209 0 -332 86.5t-123 228.5q0 23 2 41h316q0 -4 -1 -11t-1 -10q0 -59 47.5 -94t126.5 -35q94 0 153.5 38t59.5 98q0 23 -13 41t-32 29.5t-52.5 21t-61 14.5t-71.5 12q-61 10 -104.5 20t-98 31t-88.5 48.5t-57.5 72.5 t-23.5 103q0 113 71 201t196.5 136t283.5 48q196 0 312 -82.5t116 -220.5q0 -27 -2 -41h-316q0 3 1 9t1 9q0 56 -39.5 88.5t-109.5 32.5q-79 0 -129.5 -31t-50.5 -82q0 -25 17 -43.5t51.5 -31t68.5 -20t86 -15.5q51 -9 88 -17.5t85 -23t81 -35t63.5 -49t46 -68.5t15.5 -90 q0 -119 -74.5 -212.5t-207.5 -145t-300 -51.5z" glyph-name="sacute" horiz-adv-x="1142" unicode="ś"/><glyph d="M1444 1073h-352q4 24 4 37q0 94 -67.5 150.5t-182.5 56.5q-123 0 -203 -56.5t-80 -144.5q0 -32 17 -56.5t43 -41t70 -29.5t83 -20.5t98 -16.5q60 -9 104.5 -17.5t102.5 -24t99.5 -34t85 -48t70.5 -65t44 -86t17 -110.5q0 -247 -190.5 -407.5t-508.5 -177.5l-73 -93l2 -2 q35 9 61 9q82 0 128 -40t46 -108q0 -107 -99 -173.5t-255 -66.5q-140 0 -221 48l22 129q89 -52 178 -52q68 0 112 25.5t44 65.5q0 25 -16 40t-45 15q-57 0 -95 -41l-86 65l134 183q-216 25 -350 155.5t-134 327.5q0 39 2 59h353v-28q0 -109 76 -174.5t206 -65.5 q147 0 241.5 63t94.5 164q0 31 -11.5 56t-36.5 43t-50.5 30.5t-70 23t-75.5 16.5t-86 14q-59 9 -101 17t-98.5 23t-95.5 32.5t-80.5 45.5t-67 62.5t-42 83t-16.5 106.5q0 248 198 402.5t524 154.5q232 0 382.5 -129t150.5 -338q0 -21 -4 -57z" glyph-name="Scedilla" horiz-adv-x="1466" unicode="Ş"/><glyph d="M1092 756h-316q0 3 1 9t1 9q0 56 -39.5 88.5t-109.5 32.5q-79 0 -129.5 -31t-50.5 -82q0 -25 17 -43.5t51.5 -31t68.5 -20t86 -15.5q51 -9 88 -17.5t85 -23t81 -35t63.5 -49t46 -68.5t15.5 -90q0 -168 -142.5 -280t-371.5 -127l-74 -93l2 -2q34 9 61 9q82 0 128 -40 t46 -108q0 -107 -99 -173.5t-255 -66.5q-140 0 -221 48l22 129q89 -52 179 -52q68 0 111.5 25.5t43.5 65.5q0 25 -16 40t-45 15q-56 0 -94 -41l-86 65l133 183q-167 19 -263 101.5t-96 207.5q0 23 2 41h316q0 -4 -1 -11t-1 -10q0 -59 47.5 -94t126.5 -35q94 0 153.5 38 t59.5 98q0 23 -13 41t-32 29.5t-52.5 21t-61 14.5t-71.5 12q-61 10 -104.5 20t-98 31t-88.5 48.5t-57.5 72.5t-23.5 103q0 113 71 201t196.5 136t283.5 48q196 0 312 -82.5t116 -220.5q0 -27 -2 -41z" glyph-name="scedilla" horiz-adv-x="1142" unicode="ş"/><glyph d="M774 1686l-164 352h258l90 -180h5l153 180h258l-287 -352h-313zM1444 1073h-352q4 24 4 37q0 94 -67.5 150.5t-182.5 56.5q-123 0 -203 -56.5t-80 -144.5q0 -32 17 -56.5t43 -41t70 -29.5t83 -20.5t98 -16.5q60 -9 104.5 -17.5t102.5 -24t99.5 -34t85 -48t70.5 -65 t44 -86t17 -110.5q0 -260 -211 -423.5t-557 -163.5q-165 0 -296.5 60t-206.5 172t-75 257q0 39 2 59h353v-28q0 -109 76 -174.5t206 -65.5q147 0 241.5 63t94.5 164q0 31 -11.5 56t-36.5 43t-50.5 30.5t-70 23t-75.5 16.5t-86 14q-59 9 -101 17t-98.5 23t-95.5 32.5 t-80.5 45.5t-67 62.5t-42 83t-16.5 106.5q0 248 198 402.5t524 154.5q232 0 382.5 -129t150.5 -338q0 -21 -4 -57z" glyph-name="Scaron" horiz-adv-x="1466" unicode="Š"/><glyph d="M532 1225l-163 352h258l90 -180h4l153 180h259l-287 -352h-314zM666 1100q196 0 312 -82.5t116 -220.5q0 -27 -2 -41h-316q0 3 1 9t1 9q0 56 -39.5 88.5t-109.5 32.5q-79 0 -129.5 -31t-50.5 -82q0 -25 17 -43.5t51.5 -31t68.5 -20t86 -15.5q51 -9 88 -17.5t85 -23 t81 -35t63.5 -49t46 -68.5t15.5 -90q0 -119 -74.5 -212.5t-207.5 -145t-300 -51.5q-209 0 -332 86.5t-123 228.5q0 23 2 41h316q0 -4 -1 -11t-1 -10q0 -59 47.5 -94t126.5 -35q94 0 153.5 38t59.5 98q0 23 -13 41t-32 29.5t-52.5 21t-61 14.5t-71.5 12q-61 10 -104.5 20 t-98 31t-88.5 48.5t-57.5 72.5t-23.5 103q0 113 71 201t196.5 136t283.5 48z" glyph-name="scaron" horiz-adv-x="1142" unicode="š"/><glyph d="M733 0h-100l-88 -111l2 -2q35 9 61 9q82 0 128 -40t46 -108q0 -107 -99 -173.5t-255 -66.5q-140 0 -221 48l22 129q89 -52 179 -52q68 0 111.5 25.5t43.5 65.5q0 25 -16 40t-45 15q-56 0 -94 -41l-86 65l143 197h-86l229 1303h-448l49 274h1251l-49 -274h-448z" glyph-name="uni0162" horiz-adv-x="1306" unicode="Ţ"/><glyph d="M584 842l-86 -480q-2 -12 -2 -22q0 -50 37.5 -79.5t101.5 -29.5q87 0 158 33l-41 -233q-122 -51 -265 -51q-53 0 -92 8l-78 -99l2 -2q34 9 62 9q82 0 128 -40t46 -108q0 -107 -99 -173.5t-255 -66.5q-140 0 -221 48l22 129q89 -52 178 -52q68 0 112 25.5t44 65.5 q0 25 -16.5 40t-45.5 15q-56 0 -94 -41l-86 65l170 234q-119 77 -119 225q0 28 7 68l92 512h-164l41 237h182l53 310h324l-55 -310h309l-41 -237h-309z" glyph-name="uni0163" horiz-adv-x="884" unicode="ţ"/><glyph d="M694 1686l-164 352h258l91 -180h4l153 180h258l-286 -352h-314zM1460 1577l-49 -274h-448l-230 -1303h-354l229 1303h-448l49 274h1251z" glyph-name="Tcaron" horiz-adv-x="1306" unicode="Ť"/><glyph d="M952 1677l269 -67l-211 -463l-250 67zM680 1389l-55 -310h309l-41 -237h-309l-86 -480q-2 -12 -2 -22q0 -50 37.5 -79.5t101.5 -29.5q87 0 158 33l-41 -233q-122 -51 -265 -51q-158 0 -250 76.5t-92 205.5q0 28 7 68l92 512h-164l41 237h182l53 310h324z" glyph-name="tcaron" horiz-adv-x="882" unicode="ť"/><glyph d="M1432 1303h-449l-76 -433h307l-49 -237h-299l-112 -633h-355l113 633h-301l49 237h293l76 433h-449l49 274h1252z" glyph-name="Tbar" horiz-adv-x="1351" unicode="Ŧ"/><glyph d="M915 842h-309l-28 -162h309l-41 -238h-311l-15 -80q-2 -12 -2 -22q0 -50 37.5 -79.5t101.5 -29.5q87 0 158 33l-41 -233q-122 -51 -264 -51q-158 0 -250 76.5t-92 205.5q0 34 6 68l21 112h-162l41 238h164l28 162h-164l41 237h183l53 310h323l-55 -310h309z" glyph-name="tbar" horiz-adv-x="917" unicode="ŧ"/><glyph d="M633 1700l43 246h717l-43 -246h-717zM678 -20q-244 0 -396.5 131.5t-152.5 347.5q0 65 10 121l176 997h357l-180 -1014q-7 -40 -7 -65q0 -109 67 -173.5t183 -64.5q134 0 230.5 83.5t119.5 219.5l181 1014h336l-177 -997q-52 -295 -245.5 -447.5t-501.5 -152.5z" glyph-name="Umacron" horiz-adv-x="1554" unicode="Ū"/><glyph d="M410 1303l43 243h716l-43 -243h-716zM532 -20q-210 0 -330 97.5t-120 264.5q0 43 8 82l115 655h340l-109 -620q-4 -36 -4 -53q0 -73 40 -116.5t110 -43.5q82 0 142 58t77 155l110 620h340l-116 -655q-39 -220 -199.5 -332t-403.5 -112z" glyph-name="umacron" horiz-adv-x="1263" unicode="ū"/><glyph d="M985 1673q-113 0 -178.5 57.5t-65.5 153.5q0 127 94.5 209t237.5 82q113 0 177.5 -57.5t64.5 -153.5q0 -128 -93.5 -209.5t-236.5 -81.5zM1010 1821q51 0 83.5 35t32.5 88q0 39 -20.5 61.5t-58.5 22.5q-51 0 -84 -35t-33 -88q0 -38 21.5 -61t58.5 -23zM678 -20 q-244 0 -396.5 131.5t-152.5 347.5q0 65 10 121l176 997h357l-180 -1014q-7 -40 -7 -65q0 -109 67 -173.5t183 -64.5q134 0 230.5 83.5t119.5 219.5l181 1014h336l-177 -997q-52 -295 -245.5 -447.5t-501.5 -152.5z" glyph-name="Uring" horiz-adv-x="1554" unicode="Ů"/><glyph d="M745 1176q-113 0 -178 57t-65 153q0 127 94.5 209t237.5 82q113 0 177 -57.5t64 -153.5q0 -128 -93 -209t-237 -81zM770 1323q51 0 84 35t33 88q0 39 -21 61.5t-59 22.5q-51 0 -84 -35t-33 -88q0 -38 21.5 -61t58.5 -23zM532 -20q-210 0 -330 97.5t-120 264.5q0 43 8 82 l115 655h340l-109 -620q-4 -36 -4 -53q0 -73 40 -116.5t110 -43.5q82 0 142 58t77 155l110 620h340l-116 -655q-39 -220 -199.5 -332t-403.5 -112z" glyph-name="uring" horiz-adv-x="1263" unicode="ů"/><glyph d="M641 1686l223 356h344l-313 -356h-254zM1051 1686l223 356h346l-315 -356h-254zM678 -20q-244 0 -396.5 131.5t-152.5 347.5q0 65 10 121l176 997h357l-180 -1014q-7 -40 -7 -65q0 -109 67 -173.5t183 -64.5q134 0 230.5 83.5t119.5 219.5l181 1014h336l-177 -997 q-52 -295 -245.5 -447.5t-501.5 -152.5z" glyph-name="Uhungarumlaut" horiz-adv-x="1554" unicode="Ű"/><glyph d="M410 1221l223 356h344l-313 -356h-254zM819 1221l223 356h347l-316 -356h-254zM532 -20q-210 0 -330 97.5t-120 264.5q0 43 8 82l115 655h340l-109 -620q-4 -36 -4 -53q0 -73 40 -116.5t110 -43.5q82 0 142 58t77 155l110 620h340l-116 -655q-39 -220 -199.5 -332 t-403.5 -112z" glyph-name="uhungarumlaut" horiz-adv-x="1263" unicode="ű"/><glyph d="M1266 1577h336l-177 -997q-42 -246 -185 -393.5t-372 -190.5q-98 -68 -158.5 -134.5t-60.5 -109.5q0 -26 16 -41.5t44 -15.5q53 0 118 37l-30 -181q-88 -43 -209 -43q-101 0 -160 44t-59 116q0 66 67.5 148t186.5 166q-222 15 -358 144t-136 333q0 65 10 121l176 997h357 l-180 -1014q-7 -40 -7 -65q0 -109 67 -173.5t183 -64.5q134 0 230.5 83.5t119.5 219.5z" glyph-name="Uogonek" horiz-adv-x="1554" unicode="Ų"/><glyph d="M911 1079h340l-116 -655q-30 -174 -136.5 -280t-273.5 -144q-100 -69 -162.5 -137t-62.5 -111q0 -26 15.5 -41.5t43.5 -15.5q54 0 119 37l-31 -181q-88 -43 -209 -43q-101 0 -160 44t-59 116q0 66 67.5 148t186.5 166q-184 13 -287.5 109.5t-103.5 250.5q0 43 8 82 l115 655h340l-109 -620q-4 -36 -4 -53q0 -73 40 -116.5t110 -43.5q82 0 142 58t77 155z" glyph-name="uogonek" horiz-adv-x="1263" unicode="ų"/><glyph d="M1333 1866l-155 -180h-258l286 352h314l163 -352h-258l-88 180h-4zM2003 1577h352l-684 -1577h-422l-53 1130h-4l-449 -1130h-426l-124 1577h366l64 -1194h4l473 1194h364l58 -1194h4z" glyph-name="Wcircumflex" horiz-adv-x="2183" unicode="Ŵ"/><glyph d="M1018 1405l-156 -180h-258l287 352h313l164 -352h-258l-88 180h-4zM1473 1079h344l-529 -1079h-346l-43 719h-4l-293 -719h-350l-148 1079h336l62 -721h4l297 721h323l45 -721h5z" glyph-name="wcircumflex" horiz-adv-x="1730" unicode="ŵ"/><glyph d="M1004 1866l-156 -180h-258l287 352h313l164 -352h-258l-88 180h-4zM1716 1577l-788 -1034l-97 -543h-354l98 551l-411 1026h399l254 -709h4l502 709h393z" glyph-name="Ycircumflex" horiz-adv-x="1505" unicode="Ŷ"/><glyph d="M760 1405l-156 -180h-258l287 352h313l164 -352h-258l-88 180h-4zM944 1079h352l-843 -1550h-328l203 383l-228 1167h344l115 -770h4z" glyph-name="ycircumflex" horiz-adv-x="1208" unicode="ŷ"/><glyph d="M752 1673q-70 0 -111 39t-41 103q0 87 60 143.5t153 56.5q70 0 111 -39t41 -104q0 -86 -61 -142.5t-152 -56.5zM1190 1673q-70 0 -111 39t-41 103q0 87 61 143.5t152 56.5q70 0 111 -39t41 -104q0 -86 -61 -142.5t-152 -56.5zM1716 1577l-788 -1034l-97 -543h-354l98 551 l-411 1026h399l254 -709h4l502 709h393z" glyph-name="Ydieresis" horiz-adv-x="1505" unicode="Ÿ"/><glyph d="M1333 2042l-336 -356h-254l244 356h346zM1423 1288l-987 -1009v-5h838l-49 -274h-1266l51 289l987 1009v5h-755l49 274h1184z" glyph-name="Zacute" horiz-adv-x="1380" unicode="Ź"/><glyph d="M1100 1577l-336 -356h-254l244 356h346zM1055 813l-649 -555v-4h575l-43 -254h-975l47 266l635 555v4h-502l43 254h916z" glyph-name="zacute" horiz-adv-x="1091" unicode="ź"/><glyph d="M911 1692q-76 0 -119.5 41.5t-43.5 109.5q0 91 63.5 149t161.5 58q76 0 120 -40t44 -107q0 -91 -64.5 -151t-161.5 -60zM1423 1288l-987 -1009v-5h838l-49 -274h-1266l51 289l987 1009v5h-755l49 274h1184z" glyph-name="Zdotaccent" horiz-adv-x="1380" unicode="Ż"/><glyph d="M680 1249q-76 0 -120 41t-44 109q0 92 64 150.5t161 58.5q76 0 120 -41t44 -109q0 -91 -64 -150t-161 -59zM1055 813l-649 -555v-4h575l-43 -254h-975l47 266l635 555v4h-502l43 254h916z" glyph-name="zdotaccent" horiz-adv-x="1091" unicode="ż"/><glyph d="M754 1686l-164 352h258l90 -180h4l154 180h258l-287 -352h-313zM1423 1288l-987 -1009v-5h838l-49 -274h-1266l51 289l987 1009v5h-755l49 274h1184z" glyph-name="Zcaron" horiz-adv-x="1380" unicode="Ž"/><glyph d="M518 1225l-164 352h258l90 -180h5l153 180h258l-287 -352h-313zM1102 1079l-47 -266l-649 -555v-4h575l-43 -254h-975l47 266l635 555v4h-502l43 254h916z" glyph-name="zcaron" horiz-adv-x="1091" unicode="ž"/><glyph d="M1352 1597q177 0 301 -71l-109 -240q-71 43 -168 43q-79 0 -140.5 -52t-92.5 -144l-70 -195h262l-41 -240h-305l-125 -354q-60 -172 -196.5 -268t-319.5 -96q-171 0 -301 73l111 242q61 -45 168 -45q78 0 140.5 52t94.5 144l88 252h-254l43 240h295l103 297 q58 170 195.5 266t320.5 96z" glyph-name="florin" horiz-adv-x="1507" unicode="ƒ"/><glyph d="M1444 1073h-352q4 24 4 37q0 94 -67.5 150.5t-182.5 56.5q-123 0 -203 -56.5t-80 -144.5q0 -32 17 -56.5t43 -41t70 -29.5t83 -20.5t98 -16.5q60 -9 104.5 -17.5t102.5 -24t99.5 -34t85 -48t70.5 -65t44 -86t17 -110.5q0 -260 -211 -423.5t-557 -163.5q-165 0 -296.5 60 t-206.5 172t-75 257q0 39 2 59h353v-28q0 -109 76 -174.5t206 -65.5q147 0 241.5 63t94.5 164q0 31 -11.5 56t-36.5 43t-50.5 30.5t-70 23t-75.5 16.5t-86 14q-59 9 -101 17t-98.5 23t-95.5 32.5t-80.5 45.5t-67 62.5t-42 83t-16.5 106.5q0 248 198 402.5t524 154.5 q232 0 382.5 -129t150.5 -338q0 -21 -4 -57zM614 -102q75 0 113 -52.5t23 -136.5q-23 -125 -114.5 -209t-219.5 -94l-2 59q72 9 129.5 49.5t85.5 100.5q-54 -23 -94 -23q-55 0 -87 31t-32 82q0 82 56 137.5t142 55.5z" glyph-name="Scommaaccent" horiz-adv-x="1466" unicode="Ș"/><glyph d="M1092 756h-316q0 3 1 9t1 9q0 56 -39.5 88.5t-109.5 32.5q-79 0 -129.5 -31t-50.5 -82q0 -25 17 -43.5t51.5 -31t68.5 -20t86 -15.5q51 -9 88 -17.5t85 -23t81 -35t63.5 -49t46 -68.5t15.5 -90q0 -119 -74.5 -212.5t-207.5 -145t-300 -51.5q-209 0 -332 86.5t-123 228.5 q0 23 2 41h316q0 -4 -1 -11t-1 -10q0 -59 47.5 -94t126.5 -35q94 0 153.5 38t59.5 98q0 23 -13 41t-32 29.5t-52.5 21t-61 14.5t-71.5 12q-61 10 -104.5 20t-98 31t-88.5 48.5t-57.5 72.5t-23.5 103q0 113 71 201t196.5 136t283.5 48q196 0 312 -82.5t116 -220.5 q0 -27 -2 -41zM453 -102q75 0 112.5 -52t22.5 -137q-23 -125 -114.5 -209t-219.5 -94l-2 59q72 9 129.5 49.5t85.5 100.5q-54 -23 -94 -23q-55 0 -87 31t-32 82q0 82 56.5 137.5t142.5 55.5z" glyph-name="scommaaccent" horiz-adv-x="1142" unicode="ș"/><glyph d="M1460 1577l-49 -274h-448l-230 -1303h-354l229 1303h-448l49 274h1251zM535 -102q75 0 112.5 -52t22.5 -137q-23 -125 -114.5 -209t-219.5 -94l-2 59q72 9 129.5 49.5t85.5 100.5q-54 -23 -94 -23q-55 0 -87 31t-32 82q0 82 56.5 137.5t142.5 55.5z" glyph-name="uni021A" horiz-adv-x="1306" unicode="Ț"/><glyph d="M584 842l-86 -480q-2 -12 -2 -22q0 -50 37.5 -79.5t101.5 -29.5q87 0 158 33l-41 -233q-122 -51 -265 -51q-158 0 -250 76.5t-92 205.5q0 28 7 68l92 512h-164l41 237h182l53 310h324l-55 -310h309l-41 -237h-309zM307 -102q75 0 112.5 -52t22.5 -137 q-23 -126 -114 -209.5t-219 -93.5l-3 59q72 9 130 49.5t86 100.5q-54 -23 -95 -23q-55 0 -86.5 30.5t-31.5 82.5q0 82 56 137.5t142 55.5z" glyph-name="uni021B" horiz-adv-x="882" unicode="ț"/><glyph d="M-51 -471l272 1550h340l-272 -1550h-340z" glyph-name="uni0237" horiz-adv-x="589" unicode="ȷ"/><glyph d="M614 1524l164 -353h-258l-88 181h-4l-156 -181h-258l287 353h313z" glyph-name="circumflex" horiz-adv-x="794" unicode="ˆ"/><glyph d="M520 1524h258l-286 -353h-314l-164 353h258l90 -181h5z" glyph-name="caron" horiz-adv-x="794" unicode="ˇ"/><glyph d="M319 1161q-139 0 -219 78.5t-80 212.5q0 25 7 72h221q-2 -14 -2 -37q0 -60 28.5 -94.5t79.5 -34.5q57 0 102 45.5t60 120.5h223q-31 -167 -141 -265t-279 -98z" glyph-name="breve" horiz-adv-x="763" unicode="˘"/><glyph d="M246 1198q-76 0 -120 42t-44 110q0 90 64 148t161 58q76 0 120 -40t44 -107q0 -92 -64 -151.5t-161 -59.5z" glyph-name="dotaccent" horiz-adv-x="559" unicode="˙"/><glyph d="M281 1135q-113 0 -178.5 57.5t-65.5 153.5q0 127 94.5 208.5t237.5 81.5q113 0 177 -57.5t64 -153.5q0 -128 -93 -209t-236 -81zM305 1282q51 0 84 35t33 88q0 39 -21 61.5t-59 22.5q-51 0 -84 -35t-33 -88q0 -38 21.5 -61t58.5 -23z" glyph-name="ring" horiz-adv-x="647" unicode="˚"/><glyph d="M258 -492q-101 0 -160 44t-59 116q0 88 114.5 200t299.5 212l92 -80q-101 -69 -163.5 -137t-62.5 -111q0 -26 16 -41.5t44 -15.5q54 0 119 37l-31 -181q-88 -43 -209 -43z" glyph-name="ogonek" horiz-adv-x="589" unicode="˛"/><glyph d="M61 1180q31 164 119.5 255t216.5 91q44 0 85 -14t67 -30t59.5 -30t65.5 -14q43 0 75 26t44 70h137q-31 -164 -119.5 -255t-214.5 -91q-56 0 -105 22t-91.5 44t-80.5 22q-43 0 -74.5 -26t-45.5 -70h-138z" glyph-name="tilde" horiz-adv-x="991" unicode="˜"/><glyph d="M61 1171l224 357h344l-314 -357h-254zM471 1171l223 357h346l-315 -357h-254z" glyph-name="hungarumlaut" horiz-adv-x="1101" unicode="˝"/><glyph d="M-55 1221h-254l-211 356h344z" glyph-name="gravecomb" unicode="̀"/><glyph d="M-573 1221l243 356h346l-335 -356h-254z" glyph-name="acutecomb" unicode="́"/><glyph d="M-180 1577l164 -352h-258l-88 180h-5l-155 -180h-258l286 352h314z" glyph-name="uni0302" unicode="̂"/><glyph d="M-932 1253q31 164 120 256.5t216 92.5q44 0 85 -14t67 -30.5t59.5 -30.5t65.5 -14q43 0 74.5 26.5t43.5 70.5h138q-31 -164 -119.5 -256t-214.5 -92q-56 0 -105 22.5t-91.5 45t-80.5 22.5q-43 0 -75 -26.5t-46 -72.5h-137z" glyph-name="tildecomb" unicode="̃"/><glyph d="M-793 1303l43 243h717l-43 -243h-717z" glyph-name="uni0304" unicode="̄"/><glyph d="M-444 1214q-157 0 -237.5 100t-55.5 263h221q-9 -74 19.5 -119t86.5 -45q57 0 102 45.5t60 118.5h223q-31 -163 -146 -263t-273 -100z" glyph-name="uni0306" unicode="̆"/><glyph d="M-313 1217q-76 0 -120 40.5t-44 108.5q0 92 64 150.5t161 58.5q76 0 120 -41t44 -109q0 -90 -64 -149t-161 -59z" glyph-name="uni0307" unicode="̇"/><glyph d="M-760 1243q-70 0 -110.5 38.5t-40.5 102.5q0 88 60.5 144.5t152.5 56.5q70 0 110.5 -39t40.5 -104q0 -86 -61 -142.5t-152 -56.5zM-322 1243q-70 0 -110.5 38.5t-40.5 102.5q0 87 61 144t152 57q70 0 110.5 -39t40.5 -104q0 -86 -61 -142.5t-152 -56.5z" glyph-name="uni0308" unicode="̈"/><glyph d="M-367 1176q-113 0 -178 57t-65 153q0 127 94 209t237 82q113 0 177.5 -57.5t64.5 -153.5q0 -128 -93 -209t-237 -81zM-342 1323q51 0 84 35t33 88q0 39 -21 61.5t-59 22.5q-51 0 -84 -35t-33 -88q0 -38 21.5 -61t58.5 -23z" glyph-name="uni030A" unicode="̊"/><glyph d="M-1040 1221l223 356h344l-313 -356h-254zM-631 1221l223 356h347l-316 -356h-254z" glyph-name="uni030B" unicode="̋"/><glyph d="M-274 1577h258l-287 -352h-313l-164 352h258l90 -180h4z" glyph-name="uni030C" unicode="̌"/><glyph d="M-150 1509q56 0 88.5 -29.5t32.5 -80.5q0 -73 -55 -119.5t-139 -46.5q-75 0 -112.5 50.5t-22.5 133.5q19 110 109.5 186.5t217.5 88.5l11 -66q-158 -9 -218 -135q47 18 88 18z" glyph-name="uni0312" unicode="̒"/><glyph d="M-106 -102q75 0 112.5 -52t22.5 -137q-23 -125 -114.5 -209t-219.5 -94l-2 59q72 9 129.5 49.5t85.5 100.5q-54 -23 -94 -23q-55 0 -87 31t-32 82q0 82 56.5 137.5t142.5 55.5z" glyph-name="uni0326" unicode="̦"/><glyph d="M-231 -104q82 0 128 -40t46 -108q0 -107 -99.5 -173.5t-255.5 -66.5q-140 0 -221 48l23 129q89 -52 178 -52q68 0 112 25.5t44 65.5q0 25 -16.5 40t-45.5 15q-56 0 -94 -41l-86 65l199 273l112 -76l-88 -111l2 -2q35 9 62 9z" glyph-name="uni0327" unicode="̧"/><glyph d="M-332 -492q-101 0 -160 44t-59 116q0 88 114.5 200t299.5 212l92 -80q-100 -69 -162.5 -137t-62.5 -111q0 -26 15.5 -41.5t43.5 -15.5q54 0 119 37l-31 -181q-88 -43 -209 -43z" glyph-name="uni0328" unicode="̨"/><glyph d="M-909 625l41 237h796l-41 -237h-796z" glyph-name="uni0335" unicode="̵"/><glyph d="M-1716 713l43 239h1593l-43 -239h-1593z" glyph-name="uni0336" unicode="̶"/><glyph d="M-987 -98l-82 57l1030 1215l80 -58z" glyph-name="uni0337" unicode="̷"/><glyph d="M-1354 -86l-92 59l1352 1686l92 -62z" glyph-name="uni0338" unicode="̸"/><glyph d="M1135 1577l297 -1577h-1543l854 1577h392zM872 1212l-479 -938h629l-145 938h-5z" glyph-name="uni0394" horiz-adv-x="1511" unicode="Δ"/><glyph d="M1720 1008q0 -239 -129 -437t-348 -309l322 8l-49 -270h-633l45 254q174 56 290.5 241t116.5 414q0 185 -87.5 296.5t-239.5 111.5q-146 0 -265.5 -81.5t-188.5 -228t-69 -327.5q0 -156 58.5 -272t161.5 -154l-48 -254h-630l49 270l330 -8q-128 84 -198.5 218.5 t-70.5 299.5q0 235 119.5 422t329.5 291t471 104q307 0 485 -160.5t178 -428.5z" glyph-name="uni03A9" horiz-adv-x="1736" unicode="Ω"/><glyph d="M926 1079h340l-191 -1079h-340l31 172h-4q-63 -87 -170.5 -139.5t-222.5 -52.5h-2l-80 -451h-340l272 1550h340l-113 -639q-4 -36 -4 -47q0 -67 38.5 -107t103.5 -40q87 0 151.5 64t83.5 167z" glyph-name="uni03BC" horiz-adv-x="1294" unicode="μ"/><glyph d="M1505 1071l-41 -237h-190l-148 -834h-340l148 834h-316l-145 -834h-340l146 834h-191l41 237h1376z" glyph-name="pi" horiz-adv-x="1449" unicode="π"/><glyph d="M1470 1686h-253l-211 356h344zM2003 1577h352l-684 -1577h-422l-53 1130h-4l-449 -1130h-426l-124 1577h366l64 -1194h4l473 1194h364l58 -1194h4z" glyph-name="Wgrave" horiz-adv-x="2183" unicode="Ẁ"/><glyph d="M1153 1221h-254l-211 356h344zM1473 1079h344l-529 -1079h-346l-43 719h-4l-293 -719h-350l-148 1079h336l62 -721h4l297 721h323l45 -721h5z" glyph-name="wgrave" horiz-adv-x="1730" unicode="ẁ"/><glyph d="M1726 2042l-335 -356h-254l243 356h346zM2003 1577h352l-684 -1577h-422l-53 1130h-4l-449 -1130h-426l-124 1577h366l64 -1194h4l473 1194h364l58 -1194h4z" glyph-name="Wacute" horiz-adv-x="2183" unicode="Ẃ"/><glyph d="M1411 1577l-336 -356h-254l244 356h346zM1473 1079h344l-529 -1079h-346l-43 719h-4l-293 -719h-350l-148 1079h336l62 -721h4l297 721h323l45 -721h5z" glyph-name="wacute" horiz-adv-x="1730" unicode="ẃ"/><glyph d="M1083 1673q-70 0 -110.5 39t-40.5 103q0 87 60 143.5t153 56.5q70 0 110.5 -39t40.5 -104q0 -86 -61 -142.5t-152 -56.5zM1522 1673q-70 0 -111 39t-41 103q0 87 61 143.5t152 56.5q70 0 111 -39t41 -104q0 -86 -61 -142.5t-152 -56.5zM2003 1577h352l-684 -1577h-422 l-53 1130h-4l-449 -1130h-426l-124 1577h366l64 -1194h4l473 1194h364l58 -1194h4z" glyph-name="Wdieresis" horiz-adv-x="2183" unicode="Ẅ"/><glyph d="M772 1243q-70 0 -110.5 38.5t-40.5 102.5q0 88 60.5 144.5t152.5 56.5q70 0 110.5 -39t40.5 -104q0 -86 -61 -142.5t-152 -56.5zM1210 1243q-70 0 -110.5 38.5t-40.5 102.5q0 87 61 144t152 57q70 0 110.5 -39t40.5 -104q0 -86 -61 -142.5t-152 -56.5zM1473 1079h344 l-529 -1079h-346l-43 719h-4l-293 -719h-350l-148 1079h336l62 -721h4l297 721h323l45 -721h5z" glyph-name="wdieresis" horiz-adv-x="1730" unicode="ẅ"/><glyph d="M1792 1577l-51 -289l-414 -385q168 -56 263.5 -169t95.5 -259q0 -220 -170.5 -357.5t-454.5 -137.5q-195 0 -322 114t-127 299q0 22 4 62h342v-23q0 -78 42 -125t114 -47q90 0 148.5 61t58.5 156q0 88 -65 153t-177 85l-98 16l41 236l319 331v5h-702l-229 -1303h-355 l279 1577h1458z" glyph-name="uni1E9E" horiz-adv-x="1767" unicode="ẞ"/><glyph d="M1141 1686h-254l-211 356h344zM1716 1577l-788 -1034l-97 -543h-354l98 551l-411 1026h399l254 -709h4l502 709h393z" glyph-name="Ygrave" horiz-adv-x="1505" unicode="Ỳ"/><glyph d="M895 1221h-254l-211 356h344zM944 1079h352l-843 -1550h-328l203 383l-228 1167h344l115 -770h4z" glyph-name="ygrave" horiz-adv-x="1208" unicode="ỳ"/><glyph d="M92 430l41 238h1047l-41 -238h-1047z" glyph-name="endash" horiz-adv-x="1269" unicode="–"/><glyph d="M92 430l41 238h1632l-41 -238h-1632z" glyph-name="emdash" horiz-adv-x="1855" unicode="—"/><glyph d="M676 1501q-116 -4 -207.5 -66t-134.5 -163q61 22 112 22q66 0 105 -43t39 -112q0 -102 -69.5 -169t-174.5 -67q-84 0 -132 52.5t-48 142.5q0 28 6 63q32 183 170.5 302t335.5 134z" glyph-name="quoteleft" horiz-adv-x="579" unicode="‘"/><glyph d="M496 1597q84 0 132 -52t48 -142q0 -29 -6 -64q-32 -183 -170.5 -302t-335.5 -134l2 96q116 4 207.5 66.5t134.5 163.5q-64 -23 -113 -23q-65 0 -104 43t-39 113q0 102 69.5 168.5t174.5 66.5z" glyph-name="quoteright" horiz-adv-x="587" unicode="’"/><glyph d="M262 371q84 0 132 -52.5t48 -142.5q0 -28 -6 -63q-32 -183 -170.5 -302.5t-335.5 -134.5l2 97q116 4 207.5 66t134.5 163q-61 -22 -112 -22q-66 0 -105 43t-39 112q0 102 69.5 169t174.5 67z" glyph-name="quotesinglbase" horiz-adv-x="571" unicode="‚"/><glyph d="M449 1294q65 0 104 -42.5t39 -112.5q0 -102 -69.5 -169t-174.5 -67q-84 0 -132 52.5t-48 142.5q0 28 6 63q32 183 170.5 302t335.5 134l-2 -96q-116 -4 -207.5 -66t-134.5 -163q61 22 113 22zM1153 1501q-116 -4 -207.5 -66t-134.5 -163q61 22 113 22q65 0 104 -42.5 t39 -112.5q0 -102 -69.5 -169t-174.5 -67q-84 0 -132 52.5t-48 142.5q0 28 6 63q32 183 170.5 302t335.5 134z" glyph-name="quotedblleft" horiz-adv-x="1056" unicode="“"/><glyph d="M676 1403q0 -29 -6 -64q-32 -183 -170.5 -302t-335.5 -134l2 96q116 4 207.5 66.5t134.5 163.5q-64 -23 -113 -23q-65 0 -104 43t-39 113q0 102 69.5 168.5t174.5 66.5q84 0 132 -52t48 -142zM971 1597q84 0 132 -52t48 -142q0 -29 -6 -64q-32 -183 -170.5 -302 t-335.5 -134l2 96q116 4 207.5 66.5t134.5 163.5q-64 -23 -113 -23q-65 0 -104 43t-39 113q0 102 69.5 168.5t174.5 66.5z" glyph-name="quotedblright" horiz-adv-x="1064" unicode="”"/><glyph d="M442 176q0 -28 -6 -63q-32 -183 -170.5 -302.5t-335.5 -134.5l2 97q116 4 207.5 66t134.5 163q-61 -22 -112 -22q-66 0 -105 43t-39 112q0 102 69.5 169t174.5 67q84 0 132 -52.5t48 -142.5zM737 371q84 0 132.5 -52.5t48.5 -142.5q0 -23 -7 -63q-32 -183 -170 -302.5 t-335 -134.5l2 97q116 4 207.5 66t134.5 163q-61 -22 -113 -22q-65 0 -104 42.5t-39 112.5q0 102 69 169t174 67z" glyph-name="quotedblbase" horiz-adv-x="1046" unicode="„"/><glyph d="M838 1337l-29 -149h-229l-97 -551h-170l97 551h-228l27 149h227l43 240h170l-43 -240h232z" glyph-name="dagger" horiz-adv-x="768" unicode="†"/><glyph d="M823 1188h-231l-29 -164h232l-27 -150h-231l-41 -237h-168l41 237h-230l27 150h229l29 164h-229l26 149h230l43 240h168l-44 -240h232z" glyph-name="daggerdbl" horiz-adv-x="792" unicode="‡"/><glyph d="M375 344q-112 0 -175 58.5t-63 158.5q0 133 93.5 219t236.5 86q110 0 175 -59.5t65 -159.5q0 -132 -95 -217.5t-237 -85.5z" glyph-name="bullet" horiz-adv-x="821" unicode="•"/><glyph d="M199 -20q-79 0 -125.5 44.5t-46.5 118.5q0 98 68.5 163t172.5 65q79 0 124.5 -44.5t45.5 -117.5q0 -100 -67.5 -164.5t-171.5 -64.5zM692 -20q-79 0 -125.5 44.5t-46.5 118.5q0 98 69 163t173 65q79 0 124.5 -44.5t45.5 -117.5q0 -100 -68 -164.5t-172 -64.5zM1182 -20 q-79 0 -125.5 44.5t-46.5 118.5q0 98 68.5 163t172.5 65q79 0 124.5 -44.5t45.5 -117.5q0 -100 -67.5 -164.5t-171.5 -64.5z" glyph-name="ellipsis" horiz-adv-x="1548" unicode="…"/><glyph d="M444 840q-126 0 -198 82.5t-72 220.5q0 196 116 325t290 129q128 0 201 -82.5t73 -220.5q0 -196 -117.5 -325t-292.5 -129zM70 0l1339 1577h250l-1340 -1577h-249zM481 1030q54 0 94.5 73.5t40.5 174.5q0 60 -18 94.5t-51 34.5q-57 0 -97 -73t-40 -175q0 -59 19 -94 t52 -35zM1151 -20q-126 0 -198 82.5t-72 220.5q0 196 115.5 325t287.5 129q129 0 203 -82.5t74 -220.5q0 -196 -117.5 -325t-292.5 -129zM1903 -20q-126 0 -199.5 82.5t-73.5 220.5q0 195 116.5 324.5t289.5 129.5q129 0 201.5 -82.5t72.5 -220.5q0 -196 -116 -325 t-291 -129zM1184 170q57 0 97 73t40 175q0 59 -18.5 94t-51.5 35q-57 0 -96 -73t-39 -175q0 -59 18 -94t50 -35zM1937 170q56 0 97 73.5t41 174.5q0 59 -19 94t-51 35q-57 0 -97 -73t-40 -175q0 -60 18 -94.5t51 -34.5z" glyph-name="perthousand" horiz-adv-x="2390" unicode="‰"/><glyph d="M573 193h-333l-183 339l301 340h334l-303 -348z" glyph-name="guilsinglleft" horiz-adv-x="733" unicode="‹"/><glyph d="M37 193l305 348l-182 331h332l180 -340l-299 -339h-336z" glyph-name="guilsinglright" horiz-adv-x="733" unicode="›"/><glyph d="M-557 0l1339 1577h252l-1339 -1577h-252z" glyph-name="fraction" horiz-adv-x="387" unicode="⁄"/><glyph d="M1094 1317q-145 0 -262.5 -95t-178.5 -255h557l-75 -105h-514q-16 -76 -19 -147h434l-78 -105h-356q12 -160 93 -255t212 -95q85 0 184 35.5t175 93.5l108 -233q-116 -79 -262 -127.5t-270 -48.5q-278 0 -442.5 171t-170.5 459h-159l18 103h143q6 75 21 149h-137l18 103 h146q91 288 320.5 460t528.5 172q119 0 241.5 -33.5t201.5 -88.5l-189 -252q-47 43 -126 68.5t-162 25.5z" glyph-name="Euro" horiz-adv-x="1492" unicode="€"/><glyph d="M737 1427h-159l-78 -440h-199l78 440h-158l27 150h516zM1272 1577h266l-104 -590h-199l72 352h-2l-177 -352h-143l-37 352h-2l-55 -352h-191l105 590h268l31 -354h2z" glyph-name="trademark" horiz-adv-x="1490" unicode="™"/><glyph d="M1450 1577h252l-1340 -1577h-251zM276 692l105 582h-195l27 151q114 0 183 36t112 116h164l-158 -885h-238zM1698 463q61 -26 94 -71.5t33 -104.5q0 -129 -116.5 -214t-295.5 -85q-146 0 -231.5 64t-85.5 169q0 84 52.5 145.5t147.5 96.5v2q-102 51 -102 153 q0 121 107.5 200t271.5 79q134 0 213.5 -59t79.5 -158q0 -144 -168 -215v-2zM1540 713q-44 0 -74 -29.5t-30 -73.5q0 -31 20 -50t55 -19q44 0 74.5 28.5t30.5 71.5q0 31 -20.5 51.5t-55.5 20.5zM1446 172q59 0 98 34.5t39 88.5q0 40 -27 64t-73 24q-60 0 -98.5 -34.5 t-38.5 -88.5q0 -40 27 -64t73 -24z" glyph-name="oneeighth" horiz-adv-x="1939" unicode="⅛"/><glyph d="M840 977q0 -134 -111.5 -215.5t-300.5 -81.5q-140 0 -216.5 67.5t-76.5 190.5v31h230v-15q0 -43 25.5 -66.5t72.5 -23.5q60 0 96.5 32t36.5 85q0 39 -28.5 60.5t-80.5 21.5h-20v6l25 148l2 6h18q56 0 88.5 29.5t32.5 80.5q0 34 -20 53t-58 19q-44 0 -75.5 -27.5 t-41.5 -77.5h-225q37 136 137.5 212.5t243.5 76.5q139 0 215 -57.5t76 -159.5q0 -157 -180 -225v-2q135 -48 135 -168zM1661 1577h252l-1340 -1577h-251zM1909 463q61 -26 94 -71.5t33 -104.5q0 -129 -116.5 -214t-295.5 -85q-146 0 -231.5 64t-85.5 169q0 84 52.5 145.5 t147.5 96.5v2q-102 51 -102 153q0 121 107.5 200t271.5 79q134 0 213.5 -59t79.5 -158q0 -144 -168 -215v-2zM1751 713q-44 0 -74 -29.5t-30 -73.5q0 -31 20 -50t55 -19q44 0 74.5 28.5t30.5 71.5q0 31 -20.5 51.5t-55.5 20.5zM1657 172q59 0 98 34.5t39 88.5q0 40 -27 64 t-73 24q-60 0 -99 -34.5t-39 -88.5q0 -40 27.5 -64t73.5 -24z" glyph-name="threeeighths" horiz-adv-x="2148" unicode="⅜"/><glyph d="M864 1047q0 -170 -116 -268.5t-312 -98.5q-149 0 -227 68t-78 194h231q3 -37 31 -57.5t74 -20.5q66 0 107.5 40t41.5 106q0 46 -26.5 72t-75.5 26q-40 0 -74.5 -20.5t-54.5 -55.5h-231l170 545h569l-31 -180h-364l-62 -178l2 -2q83 59 197 59q110 0 169.5 -60t59.5 -169z M1677 1577h252l-1339 -1577h-252zM1925 463q61 -26 94 -71.5t33 -104.5q0 -129 -116.5 -214t-295.5 -85q-146 0 -231.5 64t-85.5 169q0 84 53 145.5t148 96.5v2q-103 51 -103 153q0 121 107.5 200t271.5 79q134 0 213.5 -59t79.5 -158q0 -144 -168 -215v-2zM1767 713 q-44 0 -74 -29.5t-30 -73.5q0 -31 20.5 -50t55.5 -19q44 0 74 28t30 72q0 31 -20.5 51.5t-55.5 20.5zM1673 172q59 0 98 34.5t39 88.5q0 40 -27 64t-73 24q-60 0 -98.5 -34.5t-38.5 -88.5q0 -40 27 -64t73 -24z" glyph-name="fiveeighths" horiz-adv-x="2162" unicode="⅝"/><glyph d="M1526 1577h252l-1340 -1577h-252zM680 1395v2h-475l33 180h671l-32 -188q-148 -131 -250 -315.5t-138 -381.5h-243q34 192 148.5 378t285.5 325zM1774 463q61 -26 94 -71.5t33 -104.5q0 -129 -116.5 -214t-295.5 -85q-146 0 -232 64t-86 169q0 84 53 145.5t148 96.5v2 q-102 51 -102 153q0 121 107.5 200t271.5 79q134 0 213.5 -59t79.5 -158q0 -144 -168 -215v-2zM1616 713q-44 0 -74.5 -29.5t-30.5 -73.5q0 -31 20.5 -50t55.5 -19q44 0 74.5 28.5t30.5 71.5q0 31 -20.5 51.5t-55.5 20.5zM1522 172q59 0 98 34.5t39 88.5q0 40 -27 64t-73 24 q-60 0 -99 -34.5t-39 -88.5q0 -40 27.5 -64t73.5 -24z" glyph-name="seveneighths" horiz-adv-x="2019" unicode="⅞"/><glyph d="M862 1536q252 0 396.5 -168t144.5 -448q0 -203 -68 -378.5t-185.5 -298.5t-281 -193t-350.5 -70q-226 0 -358.5 107.5t-132.5 287.5q0 169 127.5 303t355 213t522.5 92q-18 129 -78.5 201.5t-156.5 72.5q-90 0 -186 -47t-162 -123l-195 173q120 124 287 200t321 76z M569 258q161 0 284.5 123t166.5 324q-276 -3 -449.5 -85t-173.5 -212q0 -68 46.5 -109t125.5 -41z" glyph-name="partialdiff" horiz-adv-x="1423" unicode="∂"/><glyph d="M1204 936l-106 -88q61 -101 61 -242q0 -179 -83.5 -322.5t-228.5 -222.5t-323 -79q-202 0 -323 112l-111 -92l-70 84l113 94q-61 98 -61 240q0 180 83.5 323t229 222t326.5 79q200 0 321 -112l103 86zM217 434q0 -87 31 -160l674 566q-88 88 -234 88q-202 0 -336.5 -140 t-134.5 -354zM1012 592q0 88 -31 158l-674 -566q87 -90 234 -90q202 0 336.5 141t134.5 357z" glyph-name="emptyset" horiz-adv-x="1239" unicode="∅"/><glyph d="M1948 1577l-56 -311h-264l-307 -1737h-340l307 1737h-502l-307 -1737h-340l307 1737h-266l53 311h1715z" glyph-name="product" horiz-adv-x="1822" unicode="∏"/><glyph d="M-117 -471l39 213l664 817l-357 805l37 213h1299l-49 -272h-898l353 -746l-643 -758h944l-47 -272h-1342z" glyph-name="summation" horiz-adv-x="1466" unicode="∑"/><glyph d="M90 389l43 254h883l-45 -254h-881z" glyph-name="minus" horiz-adv-x="1114" unicode="−"/><glyph d="M1321 1577h377l-973 -1802h-363l-104 557h-297l49 272h570l41 -395z" glyph-name="radical" horiz-adv-x="1472" unicode="√"/><glyph d="M1249 926q161 0 254.5 -93t93.5 -247q0 -210 -140 -347t-353 -137q-112 0 -190.5 51.5t-112.5 143.5q-64 -92 -164.5 -143.5t-220.5 -51.5q-161 0 -254.5 93t-93.5 247q0 210 140 347t353 137q112 0 190.5 -51.5t112.5 -143.5q65 92 165 143.5t220 51.5zM524 373 q68 0 112 47.5t44 120.5q0 54 -27.5 84t-77.5 30q-68 0 -111.5 -47.5t-43.5 -120.5q0 -54 26.5 -84t77.5 -30zM1092 373q66 0 110.5 47.5t44.5 120.5q0 54 -28 84t-78 30q-67 0 -111.5 -47.5t-44.5 -120.5q0 -54 28 -84t79 -30z" glyph-name="infinity" horiz-adv-x="1673" unicode="∞"/><glyph d="M66 -492q-82 0 -160 19.5t-123 50.5l111 238q63 -39 137 -39q78 0 133 49t69 129l209 1184q37 206 177 332t333 126q83 0 161 -19t122 -50l-111 -238q-66 39 -137 39q-78 0 -133.5 -49t-69.5 -129l-209 -1184q-37 -206 -176.5 -332.5t-332.5 -126.5z" glyph-name="integral" horiz-adv-x="1013" unicode="∫"/><glyph d="M102 532q31 164 131.5 255.5t247.5 91.5q93 0 175.5 -22t155 -44t140.5 -22q46 0 81 26t48 70h138q-31 -164 -131 -255t-248 -91q-92 0 -174.5 22t-155.5 44t-141 22q-45 0 -79.5 -26t-49.5 -71h-138zM31 125q31 162 131.5 254t247.5 92q93 0 175.5 -22t155 -44 t140.5 -22q46 0 81 26t48 70h137q-31 -164 -131 -255t-248 -91q-92 0 -174.5 22t-155.5 44t-141 22q-46 0 -81 -26t-48 -70h-137z" glyph-name="approxequal" horiz-adv-x="1265" unicode="≈"/><glyph d="M1006 584h-363l-63 -135h401l-43 -254h-477l-90 -195h-121l90 195h-285l45 254h359l63 135h-397l45 254h471l94 200h121l-94 -200h289z" glyph-name="notequal" horiz-adv-x="1116" unicode="≠"/><glyph d="M1073 1049l-45 -252l-534 -115l495 -113l-45 -254l-838 250l15 76h-2l31 158zM6 0l45 254h883l-45 -254h-883z" glyph-name="lessequal" horiz-adv-x="1099" unicode="≤"/><glyph d="M1044 799l-14 -76l-29 -158l-925 -250l45 254l534 113l-495 115l45 252zM20 0l46 254h880l-45 -254h-881z" glyph-name="greaterequal" horiz-adv-x="1093" unicode="≥"/><glyph d="M438 -70l-391 590l598 588l389 -588zM506 315l194 205l-122 203l-197 -203z" glyph-name="lozenge" horiz-adv-x="1091" unicode="◊"/><glyph d="M156 -20q-15 0 -25 10.5t-10 25.5q0 21 10 31l700 698h-663q-47 0 -47 39q0 16 14 33l696 701h-669q-41 0 -41 38v3q0 38 41 38h758q47 0 47 -41q0 -20 -17 -34l-698 -697h676q17 0 29 -12t12 -29v-669l694 692q13 16 35 16q37 0 37 -45v-663l696 692q13 16 33 16 q15 0 25 -12t10 -27q0 -18 -13 -28l-753 -762q-14 -14 -35 -14q-41 0 -41 47v663l-694 -696q-14 -14 -35 -14q-41 0 -41 47v663l-697 -696q-14 -14 -34 -14z" glyph-name="uniF8FF" horiz-adv-x="2609" unicode=""/><glyph d="M950 1686l244 356h346l-336 -356h-254zM457 -20q-190 0 -311 129t-121 342q0 73 6 112h329q-4 -25 -4 -65q0 -110 43 -174t119 -64q80 0 141 65t80 171l191 1081h354l-186 -1061q-47 -265 -212 -400.5t-429 -135.5z" glyph-name="uni00A40301" horiz-adv-x="1239"/><glyph d="M416 1233q-76 0 -120 40.5t-44 108.5q0 92 64 150.5t161 58.5q76 0 120 -40.5t44 -108.5q0 -91 -64 -150t-161 -59zM31 0l190 1079h340l-190 -1079h-340z" glyph-name="i.loclTRK" horiz-adv-x="589"/><glyph d="M248 1221l244 356h346l-336 -356h-254zM-51 -471l272 1550h340l-272 -1550h-340z" glyph-name="uni006A0301" horiz-adv-x="589"/><glyph d="M627 -20q-247 0 -379.5 161.5t-132.5 452.5q0 296 98 523.5t279.5 353.5t418.5 126q246 0 379 -161.5t133 -452.5q0 -295 -98 -522.5t-279.5 -354t-418.5 -126.5zM676 260q109 0 197 98t135 259.5t47 351.5q0 165 -50.5 256.5t-144.5 91.5q-109 0 -197 -98t-135 -259.5 t-47 -351.5q0 -165 50.5 -256.5t144.5 -91.5z" glyph-name="zero.lf" horiz-adv-x="1449"/><glyph d="M682 1577h242l-279 -1577h-354l192 1092h-356l39 229q203 0 321.5 59.5t194.5 196.5z" glyph-name="one.lf" horiz-adv-x="897"/><glyph d="M406 279v-5h821l-49 -274h-1196l51 291q436 220 680.5 449t244.5 423q0 71 -42 112.5t-115 41.5q-94 0 -169 -66t-104 -174h-342q62 233 246.5 376.5t423.5 143.5q226 0 358 -110.5t132 -294.5q0 -112 -55 -225.5t-146 -210t-214.5 -187t-254 -161.5t-270.5 -129z" glyph-name="two.lf" horiz-adv-x="1341"/><glyph d="M975 809q125 -40 193.5 -122t68.5 -191q0 -222 -197 -369t-501 -147q-225 0 -357.5 120.5t-132.5 323.5q0 45 2 68h344q-4 -16 -4 -46q0 -86 54.5 -136t146.5 -50q122 0 201 68.5t79 175.5q0 82 -59.5 131t-163.5 49h-39l29 174h2l12 68h33q111 0 183.5 65t72.5 166 q0 74 -45 117t-123 43q-90 0 -158.5 -63.5t-91.5 -166.5h-336q55 230 233 370t413 140q224 0 355.5 -105t131.5 -278q0 -141 -91.5 -243t-254.5 -158v-4z" glyph-name="three.lf" horiz-adv-x="1329"/><glyph d="M1354 608l-49 -272h-205l-60 -336h-354l59 336h-739l49 289l830 952h434l-172 -969h207zM907 1231l-534 -617v-6h428l110 623h-4z" glyph-name="four.lf" horiz-adv-x="1402"/><glyph d="M1305 1303h-648l-129 -385l7 -5q156 131 360 131q186 0 291.5 -114t105.5 -307q0 -141 -55 -261.5t-151 -204t-230.5 -130.5t-288.5 -47q-235 0 -374.5 114.5t-139.5 306.5q0 19 2 39h348v-12q0 -76 58.5 -122t154.5 -46q130 0 217 88.5t87 224.5q0 98 -55 156.5 t-150 58.5q-79 0 -153.5 -49t-117.5 -129h-346l297 967h957z" glyph-name="five.lf" horiz-adv-x="1345"/><glyph d="M1419 1145h-344q2 6 2 16q-2 74 -51 115t-135 41q-148 0 -257.5 -135t-150.5 -367h4q171 205 484 205q187 0 289 -101t102 -282q0 -299 -199.5 -478t-529.5 -179q-254 0 -387 154t-133 441q0 302 101 533.5t289.5 360t438.5 128.5q228 0 354.5 -106t126.5 -297 q0 -22 -4 -49zM778 758q-132 0 -211.5 -79t-79.5 -214q0 -95 54.5 -150t148.5 -55q133 0 213 82t80 217q0 94 -53.5 146.5t-151.5 52.5z" glyph-name="six.lf" horiz-adv-x="1433"/><glyph d="M1354 1577l-49 -289q-269 -243 -456 -583.5t-251 -704.5h-369q63 359 268.5 702.5t508.5 595.5v5h-846l47 274h1147z" glyph-name="seven.lf" horiz-adv-x="1210"/><glyph d="M1057 823q110 -44 170.5 -127t60.5 -190q0 -151 -89.5 -271t-249 -187.5t-359.5 -67.5q-246 0 -390.5 110.5t-144.5 294.5q0 153 98.5 266t268.5 172v4q-91 41 -141 115t-50 166q0 140 83 251.5t230 174.5t330 63q226 0 358 -103t132 -273q0 -135 -81.5 -236t-225.5 -158 v-4zM825 1317q-101 0 -166 -61t-65 -158q0 -70 44.5 -112t121.5 -42q99 0 164 61t65 156q0 70 -44 113t-120 43zM639 260q124 0 204.5 72t80.5 184q0 83 -55.5 132.5t-151.5 49.5q-125 0 -206 -72t-81 -182q0 -83 56 -133.5t153 -50.5z" glyph-name="eight.lf" horiz-adv-x="1378"/><glyph d="M874 1597q262 0 399.5 -155t137.5 -443q0 -301 -101 -532t-289 -359t-437 -128q-239 0 -368.5 114t-129.5 322q0 34 2 59h344v-18q0 -93 51 -145t144 -52q157 0 270.5 145t151.5 392h-7q-165 -195 -479 -195q-191 0 -294 97t-103 272q0 285 194 455.5t514 170.5zM754 864 q131 0 208.5 69.5t77.5 190.5q0 88 -54.5 140.5t-149.5 52.5h-2q-131 0 -210 -72t-79 -196q0 -88 54.5 -136.5t154.5 -48.5z" glyph-name="nine.lf" horiz-adv-x="1435"/><glyph d="M571 -20q-231 0 -365 136.5t-134 364.5q0 207 93 372t256 257t365 92q231 0 365.5 -136t134.5 -364q0 -156 -54.5 -290.5t-149.5 -229t-227.5 -148.5t-283.5 -54zM618 248q134 0 226 121.5t92 302.5q0 120 -52.5 192t-144.5 72q-134 0 -226.5 -121.5t-92.5 -302.5 q0 -120 52.5 -192t145.5 -72z" glyph-name="zero.osf" horiz-adv-x="1339"/><glyph d="M575 1182h228l-209 -1182h-340l127 717h-313l38 221q183 0 291 57.5t178 186.5z" glyph-name="one.osf" horiz-adv-x="825"/><glyph d="M371 258v-4h743l-45 -254h-1092l50 268q381 123 597 270t216 285q0 54 -40.5 87.5t-107.5 33.5q-87 0 -152 -54.5t-87 -144.5h-324q46 206 211 331.5t389 125.5q209 0 331 -94t122 -250q0 -211 -217 -370t-594 -230z" glyph-name="two.osf" horiz-adv-x="1234"/><glyph d="M862 506q109 -38 169.5 -114t60.5 -173q0 -202 -183.5 -333.5t-464.5 -131.5q-210 0 -334 109.5t-124 292.5q0 7 4 57h323q-4 -32 -4 -33q0 -77 50.5 -121.5t136.5 -44.5q111 0 182.5 58.5t71.5 150.5q0 73 -57 116.5t-154 43.5h-33l43 238h29q102 0 167.5 53t65.5 137 q0 60 -42 96.5t-114 36.5q-80 0 -141.5 -52t-83.5 -138h-315q51 201 215 324.5t381 123.5q208 0 330 -92.5t122 -247.5q0 -121 -79.5 -211t-221.5 -141v-4z" glyph-name="three.osf" horiz-adv-x="1220"/><glyph d="M1219 254l-45 -254h-197l-39 -225h-340l39 225h-686l49 270l817 916h369l-164 -932h197zM780 788l-465 -530v-4h373l96 534h-4z" glyph-name="four.osf" horiz-adv-x="1306"/><glyph d="M1176 928h-619l-111 -310l5 -4q141 113 329 113q177 0 280 -105t103 -280q0 -171 -88.5 -305.5t-244 -208.5t-349.5 -74q-222 0 -355.5 107t-133.5 284v33h336q0 -69 54.5 -112t143.5 -43q122 0 203.5 77.5t81.5 198.5q0 84 -51 134t-139 50q-77 0 -147 -39.5 t-105 -103.5h-338l268 842h922z" glyph-name="five.osf" horiz-adv-x="1255"/><glyph d="M1321 1069h-317v14q0 67 -46.5 105.5t-126.5 38.5q-141 0 -245 -125t-142 -340h5q77 91 195 139.5t267 48.5q171 0 263 -92.5t92 -259.5q0 -282 -185 -450t-495 -168q-236 0 -360 145.5t-124 413.5q0 283 94.5 499.5t270.5 336.5t407 120q214 0 331.5 -101t117.5 -284 q0 -18 -2 -41zM723 700q-124 0 -198 -72t-74 -194q0 -87 50.5 -136.5t139.5 -49.5h2q123 0 197.5 73.5t74.5 196.5q0 87 -50 134.5t-142 47.5z" glyph-name="six.osf" horiz-adv-x="1341"/><glyph d="M1202 1182l-47 -269q-262 -216 -440.5 -517t-233.5 -621h-352q56 317 252.5 621t492.5 528v4h-782l45 254h1065z" glyph-name="seven.osf" horiz-adv-x="1126"/><glyph d="M1012 768q104 -40 162.5 -117.5t58.5 -175.5q0 -142 -86.5 -255t-240 -176.5t-345.5 -63.5q-235 0 -373.5 105.5t-138.5 279.5q0 141 91.5 245.5t252.5 159.5v4q-86 38 -132 105.5t-46 154.5q0 131 78.5 236.5t219 165t316.5 59.5q217 0 343 -97t126 -259 q0 -126 -75.5 -219.5t-210.5 -147.5v-4zM782 1227q-99 0 -163 -57t-64 -146q0 -66 44 -104.5t120 -38.5q99 0 163 55.5t64 144.5q0 65 -44 105.5t-120 40.5zM610 248q119 0 198 66.5t79 168.5q0 79 -55.5 126.5t-149.5 47.5q-120 0 -199.5 -66.5t-79.5 -168.5q0 -78 56 -126 t151 -48z" glyph-name="eight.osf" horiz-adv-x="1323"/><glyph d="M743 1202q246 0 375 -141.5t129 -401.5q0 -269 -94 -474t-269 -318t-407 -113q-214 0 -330 97.5t-116 273.5v31h317v-11q0 -57 48 -89.5t126 -32.5q140 0 241.5 113t139.5 310h-4q-156 -176 -455 -176q-175 0 -268.5 90.5t-93.5 253.5q0 269 181 428.5t480 159.5z M629 518q122 0 195 65t73 177q0 83 -51 128.5t-141 45.5h-3q-124 0 -197 -66t-73 -180q0 -80 52 -125t145 -45z" glyph-name="nine.osf" horiz-adv-x="1314"/><glyph d="M610 -20q-237 0 -373.5 172t-136.5 460q0 208 62 391.5t168 313.5t253 205t312 75q239 0 375.5 -172t136.5 -460q0 -208 -62 -391.5t-168 -313.5t-253.5 -205t-313.5 -75zM659 260q102 0 189.5 94.5t138.5 255.5t51 346q0 164 -50.5 262.5t-141.5 98.5q-101 0 -188 -94.5 t-138 -255.5t-51 -346q0 -165 50 -263t140 -98z" glyph-name="zero.tf" horiz-adv-x="1419"/><glyph d="M885 274h387l-49 -274h-1172l49 274h430l142 805h-346l39 230q199 0 314.5 62t192.5 206h242z" glyph-name="one.tf" horiz-adv-x="1419"/><glyph d="M444 279v-5h822l-49 -274h-1197l52 291q436 220 680.5 449t244.5 423q0 71 -42 112.5t-115 41.5q-94 0 -169 -66t-104 -174h-342q62 233 246.5 376.5t423.5 143.5q226 0 357.5 -110.5t131.5 -294.5q0 -112 -55 -225.5t-146 -210t-214.5 -187t-254 -161.5t-270.5 -129z" glyph-name="two.tf" horiz-adv-x="1419"/><glyph d="M1020 809q124 -40 193 -122t69 -191q0 -222 -197 -369t-501 -147q-225 0 -358.5 120.5t-133.5 323.5q0 22 4 68h342q-4 -32 -4 -46q0 -86 54.5 -136t148.5 -50q122 0 201.5 68.5t79.5 175.5q0 82 -60 131t-164 49h-41l31 174l12 68h35q111 0 183.5 65t72.5 166 q0 74 -45 117t-123 43q-91 0 -159.5 -63.5t-90.5 -166.5h-336q55 230 233 370t413 140q224 0 355.5 -105t131.5 -278q0 -141 -91.5 -243t-254.5 -158v-4z" glyph-name="three.tf" horiz-adv-x="1419"/><glyph d="M1360 608l-47 -272h-205l-59 -336h-357l60 336h-740l51 289l830 952h432l-170 -969h205zM915 1231l-534 -617v-6h428l111 623h-5z" glyph-name="four.tf" horiz-adv-x="1419"/><glyph d="M1341 1303h-647l-129 -385l6 -5q156 131 361 131q186 0 291.5 -114t105.5 -307q0 -141 -55 -261.5t-151 -204t-230.5 -130.5t-288.5 -47q-235 0 -374.5 114.5t-139.5 306.5q0 19 2 39h346v-12q0 -76 59.5 -122t155.5 -46q130 0 216.5 88.5t86.5 224.5q0 98 -55 156.5 t-149 58.5q-79 0 -153.5 -49t-117.5 -129h-346l297 967h957z" glyph-name="five.tf" horiz-adv-x="1419"/><glyph d="M1413 1145h-344v16q-1 73 -50 114.5t-134 41.5q-150 0 -259 -135t-151 -367h4q82 99 206 152t278 53q188 0 289.5 -101t101.5 -282q0 -299 -199.5 -478t-529.5 -179q-254 0 -387.5 154t-133.5 441q0 302 101 533.5t290 360t439 128.5q230 0 355.5 -106t125.5 -297 q0 -22 -2 -49zM770 758q-132 0 -211.5 -79t-79.5 -214q0 -95 54 -150t147 -55h2q133 0 213 82t80 217q0 94 -53.5 146.5t-151.5 52.5z" glyph-name="six.tf" horiz-adv-x="1419"/><glyph d="M1462 1577l-49 -289q-270 -243 -458.5 -584t-252.5 -704h-368q63 359 269.5 702.5t510.5 595.5v5h-856l49 274h1155z" glyph-name="seven.tf" horiz-adv-x="1419"/><glyph d="M1077 823q111 -44 172.5 -127t61.5 -190q0 -151 -90 -271t-250.5 -187.5t-360.5 -67.5q-246 0 -390 110.5t-144 294.5q0 153 98 266t268 172v4q-90 41 -139 114.5t-49 166.5q0 212 181.5 350.5t459.5 138.5q225 0 357 -103t132 -273q0 -135 -81.5 -236t-225.5 -158v-4z M846 1317q-100 0 -166 -61.5t-66 -157.5q0 -70 44.5 -112t121.5 -42q99 0 165.5 61.5t66.5 155.5q0 70 -45 113t-121 43zM659 260q124 0 204.5 72t80.5 184q0 83 -55.5 132.5t-151.5 49.5q-124 0 -205 -72t-81 -182q0 -83 55.5 -133.5t152.5 -50.5z" glyph-name="eight.tf" horiz-adv-x="1419"/><glyph d="M866 1597q263 0 400 -155t137 -443q0 -225 -59 -414.5t-165.5 -322.5t-261.5 -207.5t-342 -74.5q-238 0 -367.5 114t-129.5 322q0 34 2 59h344v-18q0 -93 50.5 -145t143.5 -52q157 0 270.5 145t151.5 392h-6q-165 -195 -479 -195q-189 0 -292 97.5t-103 271.5 q0 285 193 455.5t513 170.5zM745 864q131 0 209 69.5t78 190.5q0 88 -55 140.5t-150 52.5h-2q-131 0 -208.5 -72t-77.5 -196q0 -88 53.5 -136.5t152.5 -48.5z" glyph-name="nine.tf" horiz-adv-x="1419"/><glyph d="M336 -12q-141 0 -223 97.5t-82 260.5q0 237 134 394t331 157q143 0 225 -97.5t82 -260.5q0 -156 -61.5 -282.5t-168.5 -197.5t-237 -71zM369 172q75 0 132.5 107t57.5 251q0 83 -25 133t-69 50q-75 0 -133 -107.5t-58 -251.5q0 -82 25.5 -132t69.5 -50z" glyph-name="zero.dnom" horiz-adv-x="866"/><glyph d="M354 885h164l-158 -885h-237l104 582h-194l26 151q114 0 183 36t112 116z" glyph-name="one.dnom" horiz-adv-x="565"/><glyph d="M238 182v-2h460l-32 -180h-707l35 190q236 115 371 235.5t135 219.5q0 32 -19 50t-51 18q-46 0 -80 -29.5t-47 -81.5h-227q37 140 139.5 217.5t251.5 77.5q139 0 216 -60t77 -167q0 -78 -48 -155.5t-127 -140t-167 -111t-180 -81.5z" glyph-name="two.dnom" horiz-adv-x="811"/><glyph d="M565 453q135 -48 135 -168q0 -135 -111 -216t-300 -81q-140 0 -216.5 67.5t-76.5 190.5v30h229v-14q0 -43 26 -66.5t73 -23.5q60 0 96.5 32t36.5 85q0 39 -28.5 60.5t-80.5 21.5h-20v6l24 147l2 6h19q56 0 88.5 30t32.5 81q0 34 -20 53t-58 19q-44 0 -75.5 -27.5 t-41.5 -77.5h-225q37 136 137.5 212.5t243.5 76.5q138 0 214 -57.5t76 -159.5q0 -157 -180 -225v-2z" glyph-name="three.dnom" horiz-adv-x="804"/><glyph d="M776 354l-31 -180h-120l-31 -174h-238l31 174h-418l33 191l459 520h289l-95 -531h121zM477 655l-266 -299v-2h215l53 301h-2z" glyph-name="four.dnom" horiz-adv-x="856"/><glyph d="M502 584q110 0 169.5 -60.5t59.5 -169.5q0 -169 -116 -267.5t-312 -98.5q-149 0 -227 68t-78 194h231q3 -37 31 -57.5t74 -20.5q66 0 107.5 39.5t41.5 105.5q0 46 -26.5 72.5t-75.5 26.5q-40 0 -74.5 -20.5t-54.5 -55.5h-232l170 545h570l-31 -180h-364l-62 -179l2 -2 q85 60 197 60z" glyph-name="five.dnom" horiz-adv-x="815"/><glyph d="M483 713q-75 0 -130.5 -67.5t-78.5 -184.5h5q93 110 272 110q106 0 164.5 -56t58.5 -155q0 -170 -118 -271t-318 -101q-148 0 -227.5 90.5t-79.5 253.5q0 255 131.5 410t353.5 155q138 0 213.5 -62.5t75.5 -175.5v-20h-230q-3 35 -27 54.5t-65 19.5zM420 399 q-63 0 -101 -36t-38 -97q0 -44 26.5 -69t73.5 -25q64 0 101.5 36.5t37.5 98.5q0 92 -100 92z" glyph-name="six.dnom" horiz-adv-x="864"/><glyph d="M754 885l-33 -189q-148 -131 -249.5 -315t-137.5 -381h-244q34 192 148.5 377.5t285.5 324.5v3h-475l33 180h672z" glyph-name="seven.dnom" horiz-adv-x="720"/><glyph d="M602 463q61 -26 94 -71.5t33 -104.5q0 -129 -116.5 -214t-295.5 -85q-146 0 -231.5 64t-85.5 169q0 84 53 145.5t148 96.5v2q-103 51 -103 153q0 121 107.5 200t271.5 79q134 0 213.5 -59t79.5 -158q0 -144 -168 -215v-2zM444 713q-44 0 -74 -29.5t-30 -73.5 q0 -31 20.5 -50t55.5 -19q44 0 74 28t30 72q0 31 -20.5 51.5t-55.5 20.5zM350 172q59 0 98 34.5t39 88.5q0 40 -27 64t-73 24q-60 0 -98.5 -34.5t-38.5 -88.5q0 -40 27 -64t73 -24z" glyph-name="eight.dnom" horiz-adv-x="831"/><glyph d="M481 897q155 0 237.5 -91t82.5 -257q0 -253 -132.5 -407t-353.5 -154q-142 0 -219.5 67t-77.5 189v26h228v-12q0 -39 28.5 -62.5t73.5 -23.5q77 0 134 73t77 197h-2q-93 -104 -270 -104q-108 0 -168 53.5t-60 149.5q0 163 114.5 259.5t307.5 96.5zM414 510q65 0 102 32 t37 87q0 39 -27.5 61.5t-76.5 22.5q-62 0 -100 -32.5t-38 -86.5q0 -39 27.5 -61.5t75.5 -22.5z" glyph-name="nine.dnom" horiz-adv-x="866"/><glyph d="M457 680q-141 0 -223 97.5t-82 260.5q0 237 133.5 394t330.5 157q143 0 225.5 -97.5t82.5 -260.5q0 -156 -61.5 -282.5t-168.5 -197.5t-237 -71zM489 864q75 0 133 107.5t58 251.5q0 83 -25 132.5t-69 49.5q-49 0 -93.5 -49t-71 -132t-26.5 -177q0 -83 25 -133t69 -50z" glyph-name="zero.numr" horiz-adv-x="866"/><glyph d="M475 1577h164l-158 -885h-237l104 582h-194l26 151q114 0 183 36t112 116z" glyph-name="one.numr" horiz-adv-x="565"/><glyph d="M358 874v-2h461l-33 -180h-706l35 191q237 115 371.5 235t134.5 219q0 32 -19 50t-51 18q-46 0 -80 -29.5t-47 -81.5h-227q37 140 139.5 217.5t251.5 77.5q139 0 216 -60t77 -167q0 -78 -48.5 -155.5t-127.5 -140t-167 -111t-180 -81.5z" glyph-name="two.numr" horiz-adv-x="811"/><glyph d="M686 1145q135 -48 135 -168q0 -135 -111 -216t-300 -81q-140 0 -216.5 67.5t-76.5 190.5v31h229v-15q0 -43 25.5 -66.5t72.5 -23.5q60 0 97 32.5t37 84.5q0 39 -28.5 60.5t-80.5 21.5h-20v6l24 148l2 6h19q56 0 88 29.5t32 80.5q0 72 -77 72q-44 0 -75.5 -27.5 t-41.5 -77.5h-225q37 136 137 212.5t243 76.5q139 0 215 -57.5t76 -159.5q0 -157 -180 -225v-2z" glyph-name="three.numr" horiz-adv-x="804"/><glyph d="M899 1047l-31 -181h-120l-31 -174h-238l31 174h-418l33 191l459 520h288l-94 -530h121zM600 1348l-266 -299v-2h215l53 301h-2z" glyph-name="four.numr" horiz-adv-x="856"/><glyph d="M623 1276q110 0 169.5 -60t59.5 -169q0 -170 -116 -268.5t-312 -98.5q-149 0 -227 68t-78 194h231q3 -37 31 -57.5t74 -20.5q66 0 107.5 40t41.5 106q0 46 -26.5 72t-75.5 26q-40 0 -74.5 -20.5t-54.5 -55.5h-232l170 545h570l-31 -180h-365l-61 -178l2 -2q83 59 197 59z" glyph-name="five.numr" horiz-adv-x="813"/><glyph d="M606 1405q-75 0 -130.5 -67.5t-78.5 -184.5h4q94 111 273 111q106 0 164.5 -56t58.5 -155q0 -170 -118.5 -271.5t-317.5 -101.5q-148 0 -227.5 90.5t-79.5 253.5q0 255 131.5 410t353.5 155q138 0 213.5 -62t75.5 -175v-21h-230q-3 35 -27 54.5t-65 19.5zM543 1092 q-63 0 -101.5 -36.5t-38.5 -97.5q0 -44 27 -69t74 -25q64 0 101.5 36.5t37.5 98.5q0 45 -25.5 69t-74.5 24z" glyph-name="six.numr" horiz-adv-x="862"/><glyph d="M877 1577l-33 -188q-148 -131 -249.5 -315.5t-137.5 -381.5h-244q34 192 148.5 378t285.5 325v2h-475l33 180h672z" glyph-name="seven.numr" horiz-adv-x="720"/><glyph d="M725 1155q61 -26 94 -71.5t33 -104.5q0 -129 -116.5 -214t-295.5 -85q-146 0 -231.5 64t-85.5 169q0 84 53 145.5t148 96.5v2q-103 51 -103 154q0 121 107 199.5t272 78.5q134 0 213.5 -59t79.5 -158q0 -144 -168 -215v-2zM567 1405q-44 0 -74 -29t-30 -73 q0 -31 20.5 -50.5t55.5 -19.5q44 0 74 28t30 72q0 31 -20.5 51.5t-55.5 20.5zM473 864q59 0 98 34.5t39 88.5q0 40 -27 64t-73 24q-60 0 -98.5 -34.5t-38.5 -88.5q0 -40 27 -64t73 -24z" glyph-name="eight.numr" horiz-adv-x="831"/><glyph d="M602 1589q155 0 237.5 -91t82.5 -257q0 -253 -132.5 -407t-353.5 -154q-142 0 -219.5 67t-77.5 189v27h228v-13q0 -39 28.5 -62.5t73.5 -23.5q77 0 134 73.5t77 197.5h-2q-94 -105 -270 -105q-108 0 -168 53.5t-60 149.5q0 163 114.5 259.5t307.5 96.5zM535 1202 q65 0 102 32t37 87q0 39 -28 61.5t-77 22.5q-62 0 -99.5 -32.5t-37.5 -86.5q0 -39 27.5 -61.5t75.5 -22.5z" glyph-name="nine.numr" horiz-adv-x="866"/><glyph d="M489 -205l-229 1987h242l231 -1987h-244z" glyph-name="backslash.case" horiz-adv-x="907"/><glyph d="M432 1206q-81 0 -127.5 44.5t-46.5 117.5q0 99 69.5 164t174.5 65q79 0 124.5 -44t45.5 -117q0 -99 -68.5 -164.5t-171.5 -65.5zM33 0l254 1038h229l-115 -1038h-368z" glyph-name="exclamdown.case" horiz-adv-x="624"/><glyph d="M721 1206q-79 0 -124.5 44.5t-45.5 117.5q0 100 68 164.5t172 64.5q79 0 126.5 -44.5t47.5 -118.5q0 -98 -70 -163t-174 -65zM457 -20q-218 0 -345.5 95t-127.5 253q0 57 18 109.5t45 92t69.5 80.5t80 70t88.5 66q6 4 9.5 6.5t9 6.5t9.5 7q120 90 158 128q74 73 86 146 h268l-2 -14q-8 -50 -30.5 -96t-62 -92t-69 -75t-83.5 -77q-52 -45 -80.5 -72t-62 -66.5t-48 -77.5t-14.5 -79q0 -59 39.5 -95t107.5 -36q83 0 147 54.5t87 142.5h336q-54 -214 -228.5 -345.5t-404.5 -131.5z" glyph-name="questiondown.case" horiz-adv-x="1107"/><glyph d="M168 -205h-244l934 1987h240z" glyph-name="slash.case" horiz-adv-x="935"/><glyph d="M1688 983h-215l-105 -360h221l-76 -267h-221l-100 -356h-350l100 356h-350l-100 -356h-351l103 356h-217l75 267h220l102 360h-219l76 264h221l94 330h350l-98 -330h348l94 330h350l-94 -330h217zM659 612h359l106 377h-356z" glyph-name="numbersign.lf" horiz-adv-x="1699"/><glyph d="M1395 688h-174l-58 -192h176l-73 -252h-176l-72 -244h-326l70 244h-256l-70 -244h-325l71 244h-176l74 252h176l57 192h-176l74 254h178l70 240h325l-69 -240h254l71 240h326l-70 -240h174zM573 489h269l59 205h-266z" glyph-name="numbersign.osf" horiz-adv-x="1460"/><glyph d="M322 1325q37 217 189 327.5t382 110.5l-49 -278q-63 0 -108.5 -39.5t-57.5 -104.5l-45 -262q-35 -184 -209 -286v-5q113 -84 113 -225q0 -23 -7 -63l-47 -262q-2 -10 -2 -31q0 -53 32 -83t87 -30l-51 -278q-196 0 -310 96t-114 258q0 45 8 86l47 262q2 12 2 31 q0 46 -28.5 74t-77.5 28l49 279q59 0 100 36t51 97z" glyph-name="braceleft.case" horiz-adv-x="765"/><glyph d="M672 1032q0 -48 27.5 -75t78.5 -27l-51 -279q-57 0 -97.5 -36.5t-51.5 -96.5l-48 -262q-39 -219 -190 -329.5t-381 -110.5l51 278q63 0 107.5 39.5t56.5 104.5l45 262q34 181 209 288v5q-113 83 -113 223q0 23 7 63l47 262q4 24 4 33q0 51 -32.5 81t-86.5 30l49 278 q197 0 309.5 -96t112.5 -258q0 -53 -6 -84l-45 -262q-2 -12 -2 -31z" glyph-name="braceright.case" horiz-adv-x="763"/><glyph d="M887 1493h-205l-250 -1409h207l-47 -270h-563l344 1949h563z" glyph-name="bracketleft.case" horiz-adv-x="790"/><glyph d="M850 1763l-344 -1949h-563l49 270h207l247 1409h-206l47 270h563z" glyph-name="bracketright.case" horiz-adv-x="790"/><glyph d="M233 -186q-64 128 -99.5 318t-35.5 382q0 341 129.5 666.5t350.5 582.5h313q-219 -280 -345 -597.5t-126 -641.5q0 -186 33 -379t94 -331h-314z" glyph-name="parenleft.case" horiz-adv-x="706"/><glyph d="M217 -186h-315q219 274 346 593t127 642q0 187 -33.5 380t-95.5 334h313q65 -128 101 -317.5t36 -380.5q0 -341 -129.5 -667.5t-349.5 -583.5z" glyph-name="parenright.case" horiz-adv-x="706"/><glyph d="M133 635l41 237h1632l-41 -237h-1632z" glyph-name="emdash.case" horiz-adv-x="1867"/><glyph d="M133 635l41 237h1047l-41 -237h-1047z" glyph-name="endash.case" horiz-adv-x="1284"/><glyph d="M133 635l41 237h672l-41 -237h-672z" glyph-name="hyphen.case" horiz-adv-x="909"/><glyph d="M133 635l41 237h672l-41 -237h-672z" glyph-name="uni00AD.case" horiz-adv-x="909"/><glyph d="M616 397h-333l-183 340l301 340h334l-303 -348zM1104 397h-334l-182 340l301 340h334l-303 -348z" glyph-name="guillemotleft.case" horiz-adv-x="1228"/><glyph d="M72 397l305 348l-182 332h331l181 -340l-299 -340h-336zM559 397l305 348l-182 332h332l180 -340l-299 -340h-336z" glyph-name="guillemotright.case" horiz-adv-x="1228"/><glyph d="M616 397h-333l-183 340l301 340h334l-303 -348z" glyph-name="guilsinglleft.case" horiz-adv-x="743"/><glyph d="M72 397l305 348l-182 332h331l181 -340l-299 -340h-336z" glyph-name="guilsinglright.case" horiz-adv-x="743"/><glyph d="M672 299q68 14 120 56.5t74 103.5h334q-57 -183 -213.5 -300t-363.5 -130l-31 -176h-107l31 176q-203 15 -319.5 139t-116.5 321q0 180 82 326t226 232t325 98l32 182h107l-33 -182q196 -13 308 -130.5t114 -303.5h-332q-3 65 -39.5 108t-97.5 55zM432 524 q0 -87 34.5 -145.5t98.5 -77.5l101 573q-103 -24 -168.5 -120.5t-65.5 -229.5z" glyph-name="cent.osf" horiz-adv-x="1271"/><glyph d="M1151 801h-315v14q0 47 -28.5 80t-78.5 47l-37 -205l15 -2q47 -7 81.5 -14t80 -19.5t78 -26.5t67 -37t56 -50t35 -65t13.5 -83q0 -190 -156 -316t-401 -138l-31 -170h-106l31 170q-189 14 -301.5 119.5t-112.5 271.5v26h315v-10q0 -59 38.5 -99t103.5 -54l43 241 q-63 8 -111.5 18t-105.5 31.5t-94 50.5t-62 77t-25 110q0 180 146.5 298t378.5 132l28 168h107l-29 -168q174 -14 276.5 -113.5t102.5 -257.5q0 -4 -1 -12.5t-1 -13.5zM479 838q0 -58 111 -82l33 192q-64 -8 -104 -38t-40 -72zM784 367q0 73 -139 100l-41 -231 q81 8 130.5 43t49.5 88z" glyph-name="dollar.osf" horiz-adv-x="1212"/><glyph d="M731 233q59 0 131.5 25t134.5 64l97 -205q-91 -60 -206 -96.5t-216 -36.5q-225 0 -359 126.5t-143 342.5h-129l14 82h117q3 59 14 106h-112l14 82h119q69 218 253 347.5t427 129.5q92 0 189 -25.5t165 -66.5l-164 -219q-37 28 -96.5 44.5t-122.5 16.5q-102 0 -185 -60.5 t-128 -164.5h422l-64 -84h-385q-11 -44 -14 -104h327l-63 -84h-260q14 -101 73 -160.5t150 -59.5z" glyph-name="Euro.osf" horiz-adv-x="1220"/><glyph d="M1100 807h-309v14q0 59 -33 94t-88 35q-58 0 -94.5 -32t-36.5 -84q0 -19 7 -43t13.5 -39.5t22 -47t20.5 -42.5h301l-37 -209h-258q-52 -113 -223 -207v-2h627l-45 -244h-987l45 256q200 70 245 197h-182l37 209h119q-49 117 -49 176q0 157 145 259.5t369 102.5 q180 0 286.5 -96t106.5 -256q0 -21 -2 -41z" glyph-name="sterling.osf" horiz-adv-x="1126"/><glyph d="M1403 1182l-584 -752h205l-16 -84h-228l-14 -82h227l-14 -82h-227l-33 -182h-322l33 182h-215l14 82h215l15 82h-215l16 84h193l-308 752h357l182 -498h4l359 498h356z" glyph-name="yen.osf" horiz-adv-x="1329"/><glyph d="M1004 848l-46 -254h-272l-55 -313h-340l55 313h-268l43 254h272l56 313h339l-55 -313h271z" glyph-name="plus.case" horiz-adv-x="1017"/><glyph d="M125 594l43 254h883l-45 -254h-881z" glyph-name="minus.case" horiz-adv-x="1116"/><glyph d="M1063 965l-275 -234l193 -235l-260 -222l-193 236l-276 -236l-184 222l276 235l-192 234l262 221l192 -234l275 234z" glyph-name="multiply.case" horiz-adv-x="1067"/><glyph d="M592 920q-74 0 -117 40t-43 107q0 92 62 150.5t159 58.5q73 0 116.5 -41t43.5 -107q0 -90 -63.5 -149t-157.5 -59zM92 594l45 254h881l-43 -254h-883zM457 166q-73 0 -115.5 40t-42.5 107q0 92 63 150.5t160 58.5q72 0 115 -40.5t43 -106.5q0 -90 -63.5 -149.5 t-159.5 -59.5z" glyph-name="divide.case" horiz-adv-x="1048"/><glyph d="M162 788l45 254h880l-45 -254h-880zM92 399l45 254h881l-43 -254h-883z" glyph-name="equal.case" horiz-adv-x="1118"/><glyph d="M1042 788h-362l-64 -135h402l-43 -254h-477l-90 -194h-121l90 194h-285l45 254h359l63 135h-397l45 254h471l94 201h121l-94 -201h288z" glyph-name="notequal.case" horiz-adv-x="1118"/><glyph d="M1053 838l-29 -156l-14 -76l-944 -360l49 268l618 213l-547 205l47 268z" glyph-name="greater.case" horiz-adv-x="1062"/><glyph d="M1059 1200l-47 -268l-621 -215l547 -203l-47 -268l-819 360l28 156l15 76z" glyph-name="less.case" horiz-adv-x="1062"/><glyph d="M1110 1004l-14 -76l-29 -158l-926 -250l45 254l535 113l-496 114l45 252zM86 205l45 254h881l-45 -254h-881z" glyph-name="greaterequal.case" horiz-adv-x="1140"/><glyph d="M1126 1253l-45 -252l-534 -114l495 -113l-45 -254l-837 250l14 76h-2l31 158zM59 205l45 254h883l-45 -254h-883z" glyph-name="lessequal.case" horiz-adv-x="1142"/><glyph d="M829 1044h271l-43 -251h-273l-36 -207h-340l36 207h-270l45 251h270l37 207h340zM72 205l43 254h882l-45 -254h-880z" glyph-name="plusminus.case" horiz-adv-x="1136"/><glyph d="M166 1006h881l-97 -549h-340l54 295h-543z" glyph-name="logicalnot.case" horiz-adv-x="1089"/><glyph d="M336 594q-103 0 -162 66.5t-59 175.5q0 157 94.5 260.5t234.5 103.5q105 0 165.5 -67t60.5 -177q0 -157 -95.5 -259.5t-238.5 -102.5zM74 0l1013 1184h211l-1013 -1184h-211zM369 754q41 0 70.5 55.5t29.5 132.5q0 45 -13.5 71.5t-37.5 26.5q-42 0 -73.5 -56t-31.5 -132 q0 -45 14.5 -71.5t41.5 -26.5zM934 -16q-104 0 -164.5 67t-60.5 178q0 156 95.5 260.5t235.5 104.5q103 0 163.5 -68t60.5 -178q0 -157 -95 -260.5t-235 -103.5zM961 143q41 0 72.5 57t31.5 132q0 46 -14 73t-39 27q-43 0 -74 -55t-31 -131q0 -46 14.5 -74.5t39.5 -28.5z" glyph-name="percent.osf" horiz-adv-x="1361"/><glyph d="M336 594q-103 0 -162 66.5t-59 175.5q0 157 94.5 260.5t234.5 103.5q105 0 165.5 -67t60.5 -177q0 -157 -95.5 -259.5t-238.5 -102.5zM74 0l1013 1184h211l-1013 -1184h-211zM369 754q41 0 70.5 55.5t29.5 132.5q0 45 -13.5 71.5t-37.5 26.5q-42 0 -73.5 -56t-31.5 -132 q0 -45 14.5 -71.5t41.5 -26.5zM934 -16q-104 0 -164.5 67t-60.5 178q0 156 95.5 260.5t235.5 104.5q103 0 163.5 -68t60.5 -178q0 -157 -95 -260.5t-235 -103.5zM1546 -16q-104 0 -164.5 67t-60.5 178q0 156 96 260.5t236 104.5q103 0 164 -68t61 -178q0 -157 -95 -260.5 t-237 -103.5zM961 143q41 0 72.5 57t31.5 132q0 46 -14 73t-39 27q-43 0 -74 -55t-31 -131q0 -46 14.5 -74.5t39.5 -28.5zM1575 143q40 0 71 57t31 132q0 46 -14 73t-39 27q-43 0 -73.5 -55t-30.5 -131q0 -47 14.5 -75t40.5 -28z" glyph-name="perthousand.osf" horiz-adv-x="1966"/><glyph d="M-760 1176q-70 0 -110.5 38.5t-40.5 102.5q0 88 60.5 144.5t152.5 56.5q70 0 110.5 -39.5t40.5 -104.5q0 -86 -61 -142t-152 -56zM-322 1176q-70 0 -110.5 38.5t-40.5 102.5q0 87 61 144t152 57q70 0 110.5 -39.5t40.5 -104.5q0 -86 -61 -142t-152 -56z" glyph-name="uni0308.case"/><glyph d="M-313 1163q-76 0 -120 42t-44 110q0 91 63.5 149t161.5 58q76 0 120 -40.5t44 -107.5q0 -91 -64 -151t-161 -60z" glyph-name="uni0307.case"/><glyph d="M-55 1188h-254l-211 356h344z" glyph-name="gravecomb.case"/><glyph d="M-573 1188l243 356h346l-335 -356h-254z" glyph-name="acutecomb.case"/><glyph d="M-1040 1188l223 356h344l-313 -356h-254zM-631 1188l223 356h347l-316 -356h-254z" glyph-name="uni030B.case"/><glyph d="M-180 1540l164 -352h-258l-88 180h-5l-155 -180h-258l286 352h314z" glyph-name="uni0302.case"/><glyph d="M-274 1540h258l-287 -352h-313l-164 352h258l90 -180h4z" glyph-name="uni030C.case"/><glyph d="M-444 1178q-139 0 -219 78.5t-80 211.5q0 34 6 72h221q-2 -12 -2 -35q0 -60 28.5 -94.5t79.5 -34.5q57 0 102 45.5t60 118.5h223q-31 -166 -141 -264t-278 -98z" glyph-name="uni0306.case"/><glyph d="M-367 1176q-113 0 -178 57t-65 153q0 127 94 209t237 82q113 0 177.5 -57.5t64.5 -153.5q0 -128 -93 -209t-237 -81zM-342 1323q51 0 84 35t33 88q0 39 -21 61.5t-59 22.5q-51 0 -84 -35t-33 -88q0 -38 21.5 -61t58.5 -23z" glyph-name="uni030A.case"/><glyph d="M-932 1198q31 164 119.5 255t216.5 91q44 0 85 -14t67 -30t59.5 -30t65.5 -14q43 0 74.5 26t43.5 70h138q-31 -163 -119.5 -254.5t-214.5 -91.5q-56 0 -105 22t-91.5 44t-80.5 22q-43 0 -75 -26t-46 -70h-137z" glyph-name="tildecomb.case"/><glyph d="M-793 1202l43 246h717l-43 -246h-717z" glyph-name="uni0304.case"/></font>
</defs>
</svg>
