<svg xmlns="http://www.w3.org/2000/svg" xmlns:xlink="http://www.w3.org/1999/xlink" version="1.1"><metadata>Created by FontForge 20170731 at Wed Sep 30 14:13:58 2020 By Aleksey,,, Copyright (c) 2017 by Alberto Romanos. All rights reserved.</metadata><defs><font id="BwNistaGeo-BkIt" horiz-adv-x="0"><font-face x-height="1090" ascent="1577" bbox="-1763 -623 3109 2187" cap-height="1577" descent="-471" font-family="Bw Nista Geo Bk It" font-stretch="normal" font-style="italic" font-weight="900" panose-1="0 0 10 0 0 0 0 0 0 0" slope="-10" underline-position="-307" underline-thickness="102" unicode-range="U+000D-FB02" units-per-em="2048"/><glyph d="M1411 1620q90 0 141.5 -47.5t51.5 -126.5q0 -107 -76 -177.5t-191 -70.5q-88 0 -139 49t-51 129q0 107 75 175.5t189 68.5zM1528 1090l-193 -1090h-409l143 807h-412l-141 -807h-410l142 807h-158l49 283h158l6 30q38 215 191.5 346t367.5 131q125 0 197 -20l-51 -289 q-49 17 -101 17q-72 0 -125 -45t-65 -117l-10 -53h821z" glyph-name="fi" horiz-adv-x="1536" unicode="fi"/><glyph d="M1194 1577h410l-279 -1577h-410l144 807h-402l-141 -807h-410l142 807h-158l49 283h158l6 30q38 215 190.5 346t366.5 131q96 0 168 -20l-49 -283q-37 11 -72 11q-72 0 -125 -45t-65 -117l-10 -53h401z" glyph-name="fl" horiz-adv-x="1525" unicode="fl"/><glyph d="M1874 1110q167 0 263.5 -120.5t96.5 -321.5q0 -194 -74 -352t-202 -247t-283 -89q-117 0 -204 50.5t-113 133.5h-4l-29 -164h-410l144 807h-402l-141 -807h-410l142 807h-158l49 283h158l6 30q38 215 190.5 346t366.5 131q96 0 168 -20l-49 -283q-37 11 -72 11 q-72 0 -125 -45t-65 -117l-10 -53h401l86 487h410l-115 -653h4q54 84 158.5 135t222.5 51zM1569 299q101 0 170 86t69 213q0 88 -41 140.5t-112 52.5q-86 0 -150 -67.5t-84 -178.5q-6 -34 -6 -66q0 -83 41 -131.5t113 -48.5z" glyph-name="f_b" horiz-adv-x="2281" unicode="fb"/><glyph d="M1696 1305q-72 0 -125.5 -45t-65.5 -117l-10 -53h287l-49 -283h-287l-141 -807h-410l141 807h-379l-141 -807h-410l142 807h-158l49 283h158l6 30q38 215 191.5 346t367.5 131q132 0 209 -24l-51 -291q-54 23 -113 23q-72 0 -125 -45t-65 -117l-10 -53h378l7 30 q38 215 191.5 346t367.5 131q165 0 245 -36l-51 -291q-65 35 -149 35z" glyph-name="f_f" horiz-adv-x="1701" unicode="ff"/><glyph d="M2662 1110q167 0 264 -120.5t97 -321.5q0 -194 -74 -352t-202 -247t-283 -89q-117 0 -204.5 50.5t-113.5 133.5h-4l-28 -164h-410l143 807h-401l-141 -807h-410l141 807h-379l-141 -807h-410l142 807h-158l49 283h158l6 30q38 215 191.5 346t367.5 131q132 0 209 -24 l-51 -291q-54 23 -113 23q-72 0 -125 -45t-65 -117l-10 -53h378l7 30q38 215 190.5 346t366.5 131q96 0 168 -20l-50 -283q-37 11 -71 11q-72 0 -125.5 -45t-65.5 -117l-10 -53h401l86 487h410l-115 -653h4q54 84 158.5 135t222.5 51zM2357 299q102 0 171 86t69 213 q0 88 -41 140.5t-113 52.5q-86 0 -149.5 -67.5t-83.5 -178.5q-6 -35 -6 -66q0 -84 40.5 -132t112.5 -48z" glyph-name="f_f_b" horiz-adv-x="3069" unicode="ffb"/><glyph d="M2691 1110q130 0 205.5 -82t75.5 -221q0 -36 -11 -100l-125 -707h-409l110 627q5 35 5 39q0 57 -32 91t-87 34q-72 0 -125 -52t-68 -137l-106 -602h-410l144 807h-402l-141 -807h-410l142 807h-390l-141 -807h-410l142 807h-158l49 283h158l6 30q38 215 191.5 346 t367.5 131q132 0 209 -24l-51 -291q-54 23 -113 23q-72 0 -125 -45t-65 -117l-10 -53h389l6 30q38 215 190.5 346t366.5 131q96 0 168 -20l-49 -283q-37 11 -72 11q-72 0 -125 -45t-65 -117l-11 -53h402l86 487h409l-114 -653h4q66 84 175.5 135t223.5 51z" glyph-name="f_f_h" horiz-adv-x="3028" unicode="ffh"/><glyph d="M2220 1620q90 0 141.5 -47.5t51.5 -126.5q0 -107 -76 -177.5t-191 -70.5q-88 0 -139 49t-51 129q0 107 75 175.5t189 68.5zM2337 1090l-193 -1090h-409l143 807h-412l-141 -807h-410l142 807h-400l-141 -807h-410l142 807h-158l49 283h158l6 30q38 215 191.5 346 t367.5 131q132 0 209 -24l-51 -291q-54 23 -113 23q-72 0 -125 -45t-65 -117l-10 -53h399l6 30q38 215 191.5 346t367.5 131q125 0 197 -20l-51 -289q-49 17 -101 17q-72 0 -125 -45t-65 -117l-10 -53h821z" glyph-name="f_f_i" horiz-adv-x="2344" unicode="ffi"/><glyph d="M2243 1620q88 0 140 -47.5t52 -126.5q0 -107 -76 -177.5t-190 -70.5q-90 0 -141.5 48.5t-51.5 129.5q0 107 76 175.5t191 68.5zM2357 1090l-274 -1561h-410l225 1278h-432l-141 -807h-410l142 807h-400l-141 -807h-410l142 807h-158l49 283h158l6 30q38 215 191.5 346 t367.5 131q132 0 209 -24l-51 -291q-54 23 -113 23q-72 0 -125 -45t-65 -117l-10 -53h399l6 30q38 215 191.5 346t367.5 131q125 0 197 -20l-51 -289q-49 17 -101 17q-72 0 -125 -45t-65 -117l-10 -53h841z" glyph-name="f_f_j" horiz-adv-x="2365" unicode="ffj"/><glyph d="M1995 1577h409l-278 -1577h-410l144 807h-402l-141 -807h-410l142 807h-392l-141 -807h-410l142 807h-158l49 283h158l6 30q38 215 191.5 346t367.5 131q132 0 209 -24l-51 -291q-54 23 -113 23q-72 0 -125 -45t-65 -117l-10 -53h391l6 30q38 215 190.5 346t366.5 131 q96 0 168 -20l-49 -283q-37 11 -72 11q-72 0 -125 -45t-65 -117l-11 -53h402zM3109 1090l-422 -490l299 -600h-465l-272 586l407 504h453z" glyph-name="f_f_k" horiz-adv-x="3041" unicode="ffk"/><glyph d="M2005 1577h410l-279 -1577h-410l144 807h-402l-141 -807h-409l141 807h-402l-141 -807h-410l142 807h-158l49 283h158l6 30q38 215 191.5 346t367.5 131q132 0 209 -24l-51 -291q-54 23 -113 23q-72 0 -125 -45t-65 -117l-10 -53h401l6 30q38 215 190.5 346t366.5 131 q96 0 168 -20l-49 -283q-37 11 -72 11q-72 0 -125 -45t-65 -117l-10 -53h401z" glyph-name="f_f_l" horiz-adv-x="2336" unicode="ffl"/><glyph d="M2286 807l-74 -416q-2 -10 -2 -18q0 -42 36 -67t97 -25q81 0 147 32l-49 -278q-133 -55 -282 -55q-171 0 -271 81t-100 218q0 33 6 67l82 461h-410l-141 -807h-410l142 807h-400l-141 -807h-410l142 807h-158l49 283h158l6 30q38 215 191.5 346t367.5 131q132 0 209 -24 l-51 -291q-54 23 -113 23q-72 0 -125 -45t-65 -117l-10 -53h399l6 30q38 215 191.5 346t367.5 131q125 0 197 -20l-51 -289q-49 17 -101 17q-72 0 -125 -45t-65 -117l-10 -53h432l53 309h389l-55 -309h291l-50 -283h-290z" glyph-name="f_f_t" horiz-adv-x="2574" unicode="fft"/><glyph d="M1892 1110q130 0 205.5 -82t75.5 -221q0 -42 -10 -100l-125 -707h-410l111 627q4 28 4 39q0 57 -32 91t-87 34q-72 0 -124.5 -52t-67.5 -137l-107 -602h-410l144 807h-402l-141 -807h-410l142 807h-158l49 283h158l6 30q38 215 190.5 346t366.5 131q96 0 168 -20 l-49 -283q-37 11 -72 11q-72 0 -125 -45t-65 -117l-10 -53h401l86 487h410l-115 -653h4q66 84 175.5 135t223.5 51z" glyph-name="f_h" horiz-adv-x="2230" unicode="fh"/><glyph d="M1552 1090l-192 -1090h-410l144 807h-437l-141 -807h-410l142 807h-158l49 283h158l6 30q38 215 191.5 346t367.5 131q166 0 246 -36l-51 -291q-65 35 -150 35q-72 0 -125 -45t-65 -117l-10 -53h845zM1829 1577l-352 -365h-303l243 365h412z" glyph-name="f_iacute" horiz-adv-x="1560" unicode="fí"/><glyph d="M1434 1620q88 0 140 -47.5t52 -126.5q0 -107 -76 -177.5t-190 -70.5q-90 0 -141.5 48.5t-51.5 129.5q0 107 76 175.5t191 68.5zM1548 1090l-274 -1561h-410l226 1278h-433l-141 -807h-410l142 807h-158l49 283h158l6 30q38 215 191.5 346t367.5 131q125 0 197 -20 l-51 -289q-49 17 -101 17q-72 0 -125 -45t-65 -117l-10 -53h841z" glyph-name="f_j" horiz-adv-x="1556" unicode="fj"/><glyph d="M1194 1577h410l-279 -1577h-410l144 807h-402l-141 -807h-410l142 807h-158l49 283h158l6 30q38 215 190.5 346t366.5 131q96 0 168 -20l-49 -283q-37 11 -72 11q-72 0 -125 -45t-65 -117l-10 -53h401zM2308 1090l-422 -490l299 -600h-465l-272 586l407 504h453z" glyph-name="f_k" horiz-adv-x="2240" unicode="fk"/><glyph d="M1477 807l-74 -416q-2 -10 -2 -18q0 -42 36 -67t97 -25q81 0 147 32l-49 -278q-133 -55 -282 -55q-171 0 -271 81t-100 218q0 33 6 67l82 461h-410l-141 -807h-410l142 807h-158l49 283h158l6 30q38 215 191.5 346t367.5 131q125 0 197 -20l-51 -289q-49 17 -101 17 q-72 0 -125 -45t-65 -117l-10 -53h432l53 309h389l-55 -309h291l-50 -283h-290z" glyph-name="f_t" horiz-adv-x="1765" unicode="ft"/><glyph d="M1497 807l-74 -416q-2 -10 -2 -18q0 -42 36 -67t97 -25q82 0 148 32l-49 -278q-133 -55 -283 -55q-171 0 -271 81t-100 218q0 27 7 67l81 461h-450l-74 -416q-2 -10 -2 -18q0 -42 36 -67t97 -25q82 0 148 32l-49 -278q-133 -55 -283 -55q-171 0 -271 81t-100 218 q0 33 6 67l82 461h-157l49 283h180l53 309h389l-55 -309h473l53 309h390l-56 -309h291l-49 -283h-291z" glyph-name="t_t" horiz-adv-x="1785" unicode="tt"/><glyph d="M156 -20q-15 0 -25 10.5t-10 25.5q0 21 10 31l700 698h-663q-47 0 -47 39q0 16 14 33l696 701h-669q-41 0 -41 38v3q0 38 41 38h758q47 0 47 -41q0 -20 -17 -34l-698 -697h676q17 0 29 -12t12 -29v-669l694 692q13 16 35 16q37 0 37 -45v-663l696 692q13 16 33 16 q15 0 25 -12t10 -27q0 -18 -13 -28l-753 -762q-14 -14 -35 -14q-41 0 -41 47v663l-694 -696q-14 -14 -35 -14q-41 0 -41 47v663l-697 -696q-14 -14 -34 -14z" glyph-name=".notdef" horiz-adv-x="2609"/><glyph glyph-name=".null"/><glyph glyph-name="nonmarkingreturn" horiz-adv-x="682"/><glyph glyph-name="CR" horiz-adv-x="432"/><glyph glyph-name="space" horiz-adv-x="432"/><glyph d="M190 588l91 989h444l-258 -989h-277zM221 -20q-94 0 -148.5 52t-54.5 140q0 116 81.5 192t203.5 76q93 0 147 -51.5t54 -138.5q0 -118 -80 -194t-203 -76z" glyph-name="exclam" horiz-adv-x="643" unicode="!"/><glyph d="M176 1020l98 557h373l-98 -557h-373zM657 1020l99 557h372l-98 -557h-373z" glyph-name="quotedbl" horiz-adv-x="1044" unicode="&quot;"/><glyph d="M1753 954h-199l-90 -309h207l-90 -317h-207l-94 -328h-422l92 328h-311l-92 -328h-422l96 328h-203l91 317h204l90 309h-206l90 316h207l90 307h422l-95 -307h312l88 307h422l-88 -307h198zM719 633h323l95 330h-322z" glyph-name="numbersign" horiz-adv-x="1773" unicode="#"/><glyph d="M1499 1069h-422q2 10 2 29q0 115 -127 155l-49 -274q4 0 11.5 -1t11.5 -1q59 -8 105 -16.5t103.5 -24t100.5 -34.5t86.5 -49t71.5 -66.5t45.5 -87t17.5 -111.5q0 -255 -199.5 -422t-529.5 -184l-37 -211h-112l36 211q-246 12 -401.5 148t-155.5 349q0 35 2 53h422v-18 q0 -78 52 -130.5t141 -66.5l57 320q-4 0 -11 1t-11 1q-59 8 -102.5 16t-100.5 23t-97.5 33t-83.5 47t-69.5 65t-43.5 86t-17 111q0 247 192.5 406t511.5 171l37 205h113l-37 -207q217 -19 353 -148t136 -327q0 -35 -2 -51zM641 1112q0 -79 154 -113l47 265 q-89 -6 -145 -48.5t-56 -103.5zM1008 489q0 52 -43.5 81t-124.5 46l-54 -301q100 12 161 59t61 115z" glyph-name="dollar" horiz-adv-x="1523" unicode="$"/><glyph d="M455 840q-134 0 -211.5 84t-77.5 223q0 196 121 323t303 127q135 0 213 -84t78 -223q0 -196 -121 -323t-305 -127zM76 0l1347 1577h293l-1347 -1577h-293zM498 1063q41 0 72.5 62.5t31.5 146.5q0 47 -13.5 74.5t-37.5 27.5q-44 0 -75.5 -61.5t-31.5 -145.5q0 -48 14 -76 t40 -28zM1204 -20q-134 0 -211.5 84t-77.5 223q0 195 120.5 322.5t301.5 127.5q137 0 215 -83.5t78 -223.5q0 -196 -121 -323t-305 -127zM1243 203q43 0 75 62.5t32 146.5q0 46 -14 74t-38 28q-44 0 -75 -61.5t-31 -145.5q0 -48 13.5 -76t37.5 -28z" glyph-name="percent" horiz-adv-x="1710" unicode="%"/><glyph d="M1587 862q-62 -231 -207 -432l201 -199l-274 -251l-203 206q-118 -97 -265 -151.5t-302 -54.5q-211 0 -334 103.5t-123 276.5q0 76 20 143.5t52.5 119t81 98t97.5 80.5t111 67q-133 162 -133 297q0 188 160.5 310t427.5 122q194 0 319 -94t125 -246q0 -66 -20 -123.5 t-52 -100.5t-81.5 -82.5t-97.5 -67.5t-111 -58l172 -170q69 114 96 207h340zM705 1180q0 -59 77 -152q86 44 131 87.5t45 98.5q0 45 -28.5 72t-77.5 27q-64 0 -105.5 -38.5t-41.5 -94.5zM653 293q127 0 258 90l-272 276q-147 -92 -147 -221q0 -66 43 -105.5t118 -39.5z" glyph-name="ampersand" horiz-adv-x="1640" unicode="&amp;"/><glyph d="M176 1020l98 557h373l-98 -557h-373z" glyph-name="quotesingle" horiz-adv-x="563" unicode="'"/><glyph d="M162 -471q-58 127 -90.5 321t-32.5 390q0 368 131.5 718t353.5 619h375q-220 -295 -348.5 -636t-128.5 -691q0 -191 30 -388t85 -333h-375z" glyph-name="parenleft" horiz-adv-x="739" unicode="("/><glyph d="M219 -471h-375q219 288 347 630.5t128 692.5q0 191 -29.5 388.5t-84.5 336.5h375q60 -126 92.5 -320t32.5 -391q0 -367 -132.5 -716.5t-353.5 -620.5z" glyph-name="parenright" horiz-adv-x="741" unicode=")"/><glyph d="M866 1260l-202 -56l94 -160l-176 -112l-84 168l-142 -168l-139 112l154 160l-185 56l93 184l178 -68l28 201h193l-41 -203l203 70z" glyph-name="asterisk" horiz-adv-x="804" unicode="*"/><glyph d="M1006 668l-54 -303h-256l-55 -310h-410l56 310h-256l53 303h256l55 309h410l-55 -309h256z" glyph-name="plus" horiz-adv-x="1048" unicode="+"/><glyph d="M295 440q99 0 156 -61t57 -166q0 -33 -6 -74q-37 -209 -197.5 -340t-388.5 -139l4 111q132 0 236 63.5t157 173.5q-73 -28 -135 -28q-77 0 -122.5 50t-45.5 132q0 122 81 200t204 78z" glyph-name="comma" horiz-adv-x="622" unicode=","/><glyph d="M78 412l49 282h721l-49 -282h-721z" glyph-name="hyphen" horiz-adv-x="923" unicode="-"/><glyph d="M213 -20q-94 0 -148.5 52t-54.5 140q0 116 81.5 192t203.5 76q93 0 147 -51.5t54 -138.5q0 -118 -80 -194t-203 -76z" glyph-name="period" horiz-adv-x="598" unicode="."/><glyph d="M156 -471h-287l958 2048h283z" glyph-name="slash" horiz-adv-x="974" unicode="/"/><glyph d="M639 -20q-258 0 -397.5 163.5t-139.5 456.5q0 295 101.5 521.5t288.5 351t432 124.5q258 0 397 -163t139 -457q0 -295 -101 -521t-288 -351t-432 -125zM698 313q91 0 165.5 91t114.5 239t40 318q0 143 -40 223t-114 80q-91 0 -165 -91t-114 -239t-40 -318 q0 -143 39.5 -223t113.5 -80z" glyph-name="zero" horiz-adv-x="1478" unicode="0"/><glyph d="M711 1577h293l-279 -1577h-428l182 1030h-368l47 273q217 0 344.5 64.5t208.5 209.5z" glyph-name="one" horiz-adv-x="960" unicode="1"/><glyph d="M477 330v-4h793l-58 -326h-1239l60 342q410 207 644 423t234 388q0 51 -28.5 81t-79.5 30q-72 0 -131 -52.5t-84 -138.5h-412q65 236 255 380t437 144q235 0 372.5 -113t137.5 -300q0 -111 -57 -222.5t-148.5 -203t-212 -175.5t-241 -145.5t-242.5 -107.5z" glyph-name="two" horiz-adv-x="1370" unicode="2"/><glyph d="M1022 809q120 -43 186 -122.5t66 -182.5q0 -148 -92.5 -267.5t-259 -188t-375.5 -68.5q-233 0 -371.5 124.5t-138.5 331.5q0 42 2 62h414q-4 -28 -4 -39q0 -66 44 -106t119 -40q96 0 159 57t63 144q0 67 -48.5 107.5t-132.5 40.5h-37l35 196l17 88h34q85 0 141 54t56 137 q0 59 -33.5 93t-91.5 34q-70 0 -123.5 -49.5t-70.5 -131.5h-404q57 232 241 373t429 141q233 0 370.5 -107.5t137.5 -285.5q0 -136 -87 -235t-245 -156v-4z" glyph-name="three" horiz-adv-x="1353" unicode="3"/><glyph d="M1415 633l-57 -324h-205l-55 -309h-428l55 309h-729l59 342l801 926h520l-166 -944h205zM883 1163l-449 -524v-6h359l94 530h-4z" glyph-name="four" horiz-adv-x="1458" unicode="4"/><glyph d="M1333 1251h-633l-108 -315l6 -4q149 112 338 112q184 0 289.5 -114t105.5 -305q0 -189 -97.5 -337t-268 -228t-385.5 -80q-244 0 -390.5 117.5t-146.5 312.5q0 16 2 36h418v-8q1 -57 50 -91t126 -34q103 0 172.5 72t69.5 182q0 77 -44 124.5t-120 47.5 q-61 0 -119.5 -36.5t-93.5 -96.5h-418l299 971h1006z" glyph-name="five" horiz-adv-x="1374" unicode="5"/><glyph d="M1462 1141h-413v4q-1 57 -41.5 88t-110.5 31q-125 0 -218 -116.5t-132 -316.5h4q173 189 469 189q185 0 286 -98.5t101 -276.5q0 -303 -208 -484t-560 -181q-258 0 -397.5 161t-139.5 453q0 299 104 526t298 352t452 125q242 0 375 -109t133 -306q0 -16 -2 -41zM786 711 q-106 0 -169.5 -64.5t-63.5 -173.5q0 -75 43.5 -117.5t118.5 -42.5h2q106 0 169.5 65.5t63.5 172.5q0 75 -43 117.5t-121 42.5z" glyph-name="six" horiz-adv-x="1466" unicode="6"/><glyph d="M1384 1577l-59 -342q-257 -235 -436 -561.5t-240 -673.5h-442q60 341 261 670t501 577v4h-819l57 326h1177z" glyph-name="seven" horiz-adv-x="1239" unicode="7"/><glyph d="M1106 823q104 -46 161.5 -127t57.5 -182q0 -153 -92.5 -275t-258.5 -190.5t-374 -68.5q-255 0 -405 113t-150 302q0 147 93 256.5t257 171.5v4q-85 43 -130.5 114t-45.5 159q0 142 85.5 255.5t238 177.5t342.5 64q236 0 374 -106t138 -281q0 -128 -76.5 -225.5 t-214.5 -157.5v-4zM827 1264q-75 0 -124.5 -50.5t-49.5 -126.5q0 -56 32 -89t89 -33q74 0 123 50t49 126q0 56 -32 89.5t-87 33.5zM659 313q97 0 161.5 60.5t64.5 152.5q0 68 -44 110t-118 42q-97 0 -161 -60.5t-64 -152.5q0 -69 43 -110.5t118 -41.5z" glyph-name="eight" horiz-adv-x="1402" unicode="8"/><glyph d="M895 1597q269 0 413 -162t144 -456q0 -297 -104 -523.5t-297.5 -351t-450.5 -124.5q-251 0 -387.5 116.5t-136.5 329.5q0 28 2 53h414v-6q0 -74 41.5 -117t117.5 -43q135 0 232.5 126t132.5 343h-4q-168 -180 -467 -180q-187 0 -289 95.5t-102 265.5q0 289 201 461.5 t540 172.5zM776 911q105 0 167.5 55.5t62.5 151.5q0 68 -44 107t-120 39h-2q-105 0 -167.5 -56t-62.5 -153q0 -68 43.5 -106t122.5 -38z" glyph-name="nine" horiz-adv-x="1468" unicode="9"/><glyph d="M344 649q-95 0 -149 52.5t-54 140.5q0 117 81 192.5t204 75.5q93 0 147 -51.5t54 -138.5q0 -118 -80.5 -194.5t-202.5 -76.5zM225 -20q-93 0 -147.5 52t-54.5 140q0 116 81 192t203 76q93 0 147 -51.5t54 -138.5q0 -118 -80 -194t-203 -76z" glyph-name="colon" horiz-adv-x="649" unicode=":"/><glyph d="M426 1110q93 0 147 -51.5t54 -138.5q0 -118 -80 -194.5t-203 -76.5q-93 0 -148 52.5t-55 140.5q0 116 81.5 192t203.5 76zM307 440q99 0 156 -61t57 -166q0 -33 -6 -74q-37 -209 -197.5 -340t-388.5 -139l4 111q132 0 236.5 63.5t157.5 173.5q-73 -28 -136 -28 q-77 0 -122 49.5t-45 132.5q0 122 81 200t203 78z" glyph-name="semicolon" horiz-adv-x="661" unicode=";"/><glyph d="M1063 1020l-55 -322l-590 -186l524 -174l-55 -322l-858 363l32 188h2l15 88z" glyph-name="less" horiz-adv-x="1085" unicode="&lt;"/><glyph d="M113 580l53 303h921l-53 -303h-921zM37 150l53 303h922l-54 -303h-921z" glyph-name="equal" horiz-adv-x="1134" unicode="="/><glyph d="M1049 655l-33 -188h-2l-15 -88l-985 -363l58 322l587 184l-524 176l55 322z" glyph-name="greater" horiz-adv-x="1087" unicode="&gt;"/><glyph d="M422 586l2 14q6 42 26 83.5t56.5 84.5t63.5 70.5t75 72.5q102 95 132 134q52 66 52 126q0 42 -27.5 67.5t-74.5 25.5q-60 0 -106.5 -40.5t-65.5 -107.5h-403q57 217 236 349t415 132q227 0 361 -95t134 -253q0 -33 -7 -65.5t-16 -58.5t-29.5 -55.5t-34 -48t-44 -46.5 t-45 -41t-52.5 -40.5t-50.5 -36t-52.5 -36.5q-56 -39 -82.5 -59t-64 -53t-55.5 -62t-24 -61h-319zM473 -20q-94 0 -148.5 52t-54.5 140q0 116 81.5 192t203.5 76q93 0 147 -51.5t54 -138.5q0 -118 -80 -194t-203 -76z" glyph-name="question" horiz-adv-x="1236" unicode="?"/><glyph d="M1872 1051l-234 -662q-4 -12 -4 -22q0 -24 20.5 -39t51.5 -15q141 0 241.5 147.5t100.5 356.5q0 243 -174 389t-471 146q-226 0 -425 -76.5t-340 -209t-222.5 -317t-81.5 -393.5q0 -274 184 -438t500 -164q138 0 312.5 36.5t320.5 96.5l43 -237q-156 -63 -354.5 -102.5 t-364.5 -39.5q-217 0 -394.5 58.5t-298 164.5t-186 256t-65.5 332q0 273 101.5 508.5t284 405.5t448.5 267t581 97q259 0 464.5 -92t323 -262t117.5 -389q0 -171 -60.5 -318.5t-165.5 -249.5t-251.5 -160t-314.5 -58q-123 0 -210 38.5t-110 102.5l-6 18h-4 q-54 -72 -154 -115.5t-209 -43.5q-136 0 -219.5 83t-83.5 220q0 141 46 269t126 222.5t196 150.5t249 56q92 0 161 -44t89 -116h2l51 142h389zM1096 371q71 0 132 48t93 130l6 18q1 2 2 6.5t2 6.5l-4 -13l8 23q11 44 11 59q0 53 -30 85t-81 32q-105 0 -176.5 -80t-71.5 -192 q0 -56 29 -89.5t80 -33.5z" glyph-name="at" horiz-adv-x="2365" unicode="@"/><glyph d="M1032 0l-43 305h-534l-152 -305h-424l848 1577h467l289 -1577h-451zM614 629h328l-72 506h-4z" glyph-name="A" horiz-adv-x="1556" unicode="A"/><glyph d="M1225 811q123 -41 190.5 -120.5t67.5 -182.5q0 -223 -200.5 -365.5t-530.5 -142.5h-717l278 1577h674q240 0 394.5 -108t154.5 -281q0 -126 -81.5 -221t-229.5 -152v-4zM1083 1124q0 58 -36.5 92.5t-98.5 34.5h-264l-53 -305h262q83 0 136.5 50.5t53.5 127.5zM827 326 q93 0 154 55t61 139q0 64 -42 103t-113 39h-307l-60 -336h307z" glyph-name="B" horiz-adv-x="1548" unicode="B"/><glyph d="M791 -20q-204 0 -362 82.5t-245.5 234.5t-87.5 350q0 206 71.5 382.5t199 301t310.5 195.5t398 71q290 0 476 -153t186 -402q0 -21 -4 -71h-416q2 18 2 33q0 119 -81.5 189.5t-219.5 70.5q-132 0 -241 -74.5t-171.5 -207.5t-62.5 -296q0 -169 82 -271t225 -102 q147 0 257 79t144 208h416q-71 -283 -305.5 -451.5t-570.5 -168.5z" glyph-name="C" horiz-adv-x="1703" unicode="C"/><glyph d="M35 0l278 1577h574q211 0 374.5 -81.5t254 -231t90.5 -344.5q0 -200 -73 -371t-203.5 -291.5t-316.5 -189t-405 -68.5h-573zM520 326h166q132 0 239.5 72t169.5 201t62 288q0 166 -82 265t-225 99h-166z" glyph-name="D" horiz-adv-x="1615" unicode="D"/><glyph d="M1464 1251h-782l-49 -284h706l-57 -326h-707l-55 -315h805l-57 -326h-1233l278 1577h1209z" glyph-name="E" horiz-adv-x="1435" unicode="E"/><glyph d="M1395 1251h-713l-53 -309h598l-58 -321h-598l-108 -621h-428l278 1577h1139z" glyph-name="F" horiz-adv-x="1333" unicode="F"/><glyph d="M1729 991h-408v23q0 114 -82 182t-221 68q-132 0 -241 -74.5t-171.5 -207.5t-62.5 -296q0 -169 82 -271t225 -102q135 0 239 72t150 195h-346l47 272h776l-16 -96q-61 -352 -305.5 -564t-603.5 -212q-204 0 -362 82.5t-245.5 234.5t-87.5 350q0 206 71.5 382.5t199 301 t310.5 195.5t398 71q191 0 340 -66t233.5 -190t84.5 -286q0 -18 -4 -64z" glyph-name="G" horiz-adv-x="1728" unicode="G"/><glyph d="M1272 1577h428l-279 -1577h-428l113 635h-531l-112 -635h-428l278 1577h428l-108 -616h530z" glyph-name="H" horiz-adv-x="1650" unicode="H"/><glyph d="M35 0l278 1577h428l-278 -1577h-428z" glyph-name="I" horiz-adv-x="692" unicode="I"/><glyph d="M471 -20q-199 0 -326 132t-127 349q0 57 9 119h395q-4 -25 -4 -68q0 -93 33.5 -146t93.5 -53q62 0 109.5 55t62.5 144l188 1065h428l-184 -1045q-49 -276 -223 -414t-455 -138z" glyph-name="J" horiz-adv-x="1271" unicode="J"/><glyph d="M313 1577h428l-278 -1577h-428zM1661 1577l-555 -723l375 -854h-488l-360 821l545 756h483z" glyph-name="K" horiz-adv-x="1523" unicode="K"/><glyph d="M522 338h662l-60 -338h-1089l278 1577h428z" glyph-name="L" horiz-adv-x="1247" unicode="L"/><glyph d="M1548 1577h576l-279 -1577h-428l203 1069h-4l-543 -1069h-315l-140 1069h-4l-174 -1069h-405l278 1577h578l127 -1071h4z" glyph-name="M" horiz-adv-x="2074" unicode="M"/><glyph d="M1294 1577h406l-279 -1577h-397l-430 922h-4l-150 -922h-405l278 1577h398l428 -924h4z" glyph-name="N" horiz-adv-x="1650" unicode="N"/><glyph d="M791 -20q-312 0 -504.5 184t-192.5 485q0 205 72 381t200 301t311 195.5t398 70.5q312 0 504.5 -184t192.5 -485q0 -205 -72 -381t-200 -301t-311 -195.5t-398 -70.5zM850 313q132 0 241 74.5t171.5 207.5t62.5 296q0 169 -82 271t-225 102q-203 0 -340 -165t-137 -413 q0 -170 82.5 -271.5t226.5 -101.5z" glyph-name="O" horiz-adv-x="1779" unicode="O"/><glyph d="M950 1577q248 0 404.5 -122t156.5 -320q0 -264 -204 -429t-539 -165h-211l-94 -541h-428l278 1577h637zM842 864q96 0 159.5 65.5t63.5 164.5q0 71 -41.5 114t-112.5 43h-229l-68 -387h228z" glyph-name="P" horiz-adv-x="1452" unicode="P"/><glyph d="M1772 928q0 -260 -112 -468.5t-312 -332.5l84 -90l-277 -266l-203 219q-88 -10 -161 -10q-312 0 -504.5 184t-192.5 485q0 205 72 381t200 301t311 195.5t398 70.5q312 0 504.5 -184t192.5 -485zM897 612l203 -217q104 75 164.5 205.5t60.5 290.5q0 169 -82 271t-225 102 q-203 0 -340 -165t-137 -413q0 -209 116 -305z" glyph-name="Q" horiz-adv-x="1779" unicode="Q"/><glyph d="M1559 1169q0 -168 -96.5 -300t-268.5 -203l229 -666h-475l-178 596h-203l-104 -596h-428l278 1577h668q166 0 297.5 -50.5t206 -144t74.5 -213.5zM682 1251l-61 -350h260q97 0 161 57.5t64 147.5q0 65 -44.5 105t-119.5 40h-260z" glyph-name="R" horiz-adv-x="1548" unicode="R"/><glyph d="M645 -20q-264 0 -434 138t-170 361q0 35 2 53h422v-18q0 -91 67.5 -146t182.5 -55q121 0 198.5 49t77.5 127q0 25 -10 45.5t-33 35t-46 24.5t-62.5 19t-69 14t-78.5 12q-59 8 -102.5 16t-100.5 23t-97.5 33t-83.5 47t-69.5 65t-43.5 86t-17 111q0 257 207 417t547 160 q241 0 397 -131.5t156 -345.5q0 -35 -2 -51h-422q2 10 2 29q0 75 -58 120.5t-157 45.5q-98 0 -160.5 -43t-62.5 -109q0 -32 21 -55t64 -38t87.5 -24t111.5 -18q59 -8 105 -16.5t103.5 -24t101 -34.5t87 -49t71.5 -66.5t45.5 -87t17.5 -111.5q0 -176 -98 -314t-279.5 -216 t-417.5 -78z" glyph-name="S" horiz-adv-x="1499" unicode="S"/><glyph d="M1499 1577l-57 -326h-432l-222 -1251h-428l222 1251h-432l57 326h1292z" glyph-name="T" horiz-adv-x="1345" unicode="T"/><glyph d="M686 -20q-254 0 -413.5 134t-159.5 355q0 63 10 119l174 989h428l-178 -1008q-4 -18 -4 -55q0 -93 57 -147t156 -54q114 0 196.5 70.5t102.5 185.5l178 1008h405l-174 -989q-53 -301 -254.5 -454.5t-523.5 -153.5z" glyph-name="U" horiz-adv-x="1574" unicode="U"/><glyph d="M1257 1577h435l-787 -1577h-508l-227 1577h440l121 -1135h4z" glyph-name="V" horiz-adv-x="1495" unicode="V"/><glyph d="M1985 1577h423l-673 -1577h-506l-29 1032h-4l-391 -1032h-508l-115 1577h441l43 -1114h4l420 1114h432l32 -1114h5z" glyph-name="W" horiz-adv-x="2226" unicode="W"/><glyph d="M-127 0l698 821l-368 756h516l170 -436h4l334 436h481l-637 -752l408 -825h-527l-202 504h-5l-385 -504h-487z" glyph-name="X" horiz-adv-x="1542" unicode="X"/><glyph d="M1780 1577l-793 -1051l-94 -526h-428l94 537l-405 1040h479l221 -666h4l453 666h469z" glyph-name="Y" horiz-adv-x="1558" unicode="Y"/><glyph d="M1458 1235l-926 -905v-4h799l-57 -326h-1315l59 342l926 905v4h-711l58 326h1229z" glyph-name="Z" horiz-adv-x="1429" unicode="Z"/><glyph d="M897 1253h-211l-246 -1400h211l-57 -324h-639l360 2048h639z" glyph-name="bracketleft" horiz-adv-x="829" unicode="["/><glyph d="M449 -471l-234 2048h283l237 -2048h-286z" glyph-name="backslash" horiz-adv-x="950" unicode="\"/><glyph d="M877 1577l-361 -2048h-639l57 324h211l246 1400h-211l58 324h639z" glyph-name="bracketright" horiz-adv-x="829" unicode="]"/><glyph d="M952 1577l246 -752h-326l-124 478h-5l-292 -478h-338l512 752h327z" glyph-name="asciicircum" horiz-adv-x="1204" unicode="^"/><glyph d="M-63 -225l36 207h1178l-37 -207h-1177z" glyph-name="underscore" horiz-adv-x="1316" unicode="_"/><glyph d="M449 1171h-304l-225 365h412z" glyph-name="grave" horiz-adv-x="497" unicode="`"/><glyph d="M956 1090h410l-192 -1090h-410l29 164h-5q-60 -86 -158 -135t-224 -49q-167 0 -263 120t-96 322q0 194 73.5 352t201.5 247t284 89q113 0 200 -51t116 -135h4zM627 299q86 0 149.5 67.5t83.5 178.5q6 34 6 63q0 85 -40.5 134t-112.5 49q-102 0 -171 -86t-69 -213 q0 -89 40.5 -141t113.5 -52z" glyph-name="a" horiz-adv-x="1374" unicode="a"/><glyph d="M967 1110q167 0 263.5 -120.5t96.5 -321.5q0 -194 -74 -352t-202 -247t-283 -89q-117 0 -204 50.5t-113 133.5h-5l-28 -164h-410l279 1577h409l-114 -653h4q54 84 158.5 135t222.5 51zM662 299q101 0 170 86t69 213q0 88 -41 140.5t-112 52.5q-86 0 -150 -67.5 t-84 -178.5q-6 -34 -6 -66q0 -83 41 -131.5t113 -48.5z" glyph-name="b" horiz-adv-x="1374" unicode="b"/><glyph d="M559 -20q-237 0 -375.5 128.5t-138.5 342.5q0 190 93 341t256 234.5t366 83.5q233 0 364 -126.5t131 -338.5h-399q0 67 -41.5 106.5t-112.5 39.5q-100 0 -167.5 -86t-67.5 -213q0 -87 39.5 -139t109.5 -52q71 0 127 36.5t76 96.5h400q-60 -204 -242 -329t-418 -125z" glyph-name="c" horiz-adv-x="1280" unicode="c"/><glyph d="M1042 1577h410l-278 -1577h-410l29 164h-5q-60 -86 -158 -135t-224 -49q-167 0 -263 120t-96 322q0 194 73.5 352t201.5 247t284 89q113 0 200 -51t116 -135h4zM627 299q86 0 149.5 67.5t83.5 178.5q6 34 6 63q0 85 -40.5 134t-112.5 49q-102 0 -171 -86t-69 -213 q0 -89 40.5 -141t113.5 -52z" glyph-name="d" horiz-adv-x="1374" unicode="d"/><glyph d="M756 1110q231 0 364 -123.5t133 -333.5q0 -59 -12 -127l-8 -45h-791q0 -99 44 -159t120 -60q68 0 126.5 33.5t84.5 87.5h395q-66 -182 -246.5 -292.5t-410.5 -110.5q-235 0 -371.5 129t-136.5 344q0 189 92 339.5t254 234t363 83.5zM709 842q-74 0 -136 -48.5t-96 -131.5 h383q-6 84 -45 132t-106 48z" glyph-name="e" horiz-adv-x="1298" unicode="e"/><glyph d="M907 1305q-72 0 -125 -45t-65 -117l-10 -53h286l-49 -283h-287l-141 -807h-410l142 807h-158l49 283h158l6 30q38 215 191.5 346t367.5 131q166 0 246 -36l-51 -291q-65 35 -150 35z" glyph-name="f" horiz-adv-x="913" unicode="f"/><glyph d="M956 1090h410l-192 -1090q-29 -164 -124.5 -276t-237 -164t-323.5 -52q-221 0 -353 106.5t-132 281.5v24h389v-2q5 -40 46.5 -65t105.5 -25q85 0 144 42.5t71 111.5l33 182h-5q-60 -86 -158 -135t-224 -49q-167 0 -263 120t-96 322q0 194 73.5 352t201.5 247t284 89 q113 0 200 -51t116 -135h4zM627 299q86 0 149.5 67.5t83.5 178.5q6 34 6 63q0 85 -40.5 134t-112.5 49q-102 0 -171 -86t-69 -213q0 -89 40.5 -141t113.5 -52z" glyph-name="g" horiz-adv-x="1374" unicode="g"/><glyph d="M985 1110q130 0 205.5 -82t75.5 -221q0 -36 -11 -100l-125 -707h-409l110 627q5 35 5 39q0 57 -32 91t-87 34q-72 0 -125 -52t-68 -137l-106 -602h-410l279 1577h409l-114 -653h4q66 84 175.5 135t223.5 51z" glyph-name="h" horiz-adv-x="1323" unicode="h"/><glyph d="M420 1198q-88 0 -139.5 49t-51.5 129q0 107 75 175.5t190 68.5q90 0 141 -47.5t51 -126.5q0 -107 -75.5 -177.5t-190.5 -70.5zM8 0l193 1090h409l-192 -1090h-410z" glyph-name="i" horiz-adv-x="618" unicode="i"/><glyph d="M422 1198q-90 0 -141.5 48.5t-51.5 129.5q0 107 76 175.5t191 68.5q88 0 140 -47.5t52 -126.5q0 -107 -76 -177.5t-190 -70.5zM-74 -471l275 1561h409l-274 -1561h-410z" glyph-name="j" horiz-adv-x="618" unicode="j"/><glyph d="M287 1577h409l-278 -1577h-410zM1401 1090l-422 -490l299 -600h-465l-272 586l407 504h453z" glyph-name="k" horiz-adv-x="1333" unicode="k"/><glyph d="M8 0l279 1577h409l-278 -1577h-410z" glyph-name="l" horiz-adv-x="618" unicode="l"/><glyph d="M1636 1110q122 0 190 -79.5t68 -215.5q0 -55 -8 -102l-125 -713h-409l110 633q4 28 4 43q0 53 -26.5 84t-73.5 31q-61 0 -108 -50.5t-62 -132.5l-106 -608h-410l111 633q4 28 4 43q0 53 -27 84t-74 31q-61 0 -108 -50.5t-62 -132.5l-106 -608h-410l193 1090h409l-28 -166 h4q61 84 165.5 135t213.5 51q102 0 167.5 -56t84.5 -157h4q74 97 186 155t229 58z" glyph-name="m" horiz-adv-x="1953" unicode="m"/><glyph d="M985 1110q130 0 205.5 -82t75.5 -221q0 -36 -11 -100l-125 -707h-409l110 627q5 35 5 39q0 57 -32 91t-87 34q-72 0 -125 -52t-68 -137l-106 -602h-410l193 1090h409l-28 -166h4q66 84 175.5 135t223.5 51z" glyph-name="n" horiz-adv-x="1323" unicode="n"/><glyph d="M563 -20q-240 0 -379 128.5t-139 342.5q0 190 93.5 341t257.5 234.5t368 83.5q240 0 379 -128.5t139 -342.5q0 -190 -93.5 -341t-257.5 -234.5t-368 -83.5zM621 301q102 0 170.5 85t68.5 212q0 88 -41 140.5t-112 52.5q-102 0 -171 -86t-69 -213q0 -87 41.5 -139 t112.5 -52z" glyph-name="o" horiz-adv-x="1327" unicode="o"/><glyph d="M969 1110q167 0 262.5 -120t95.5 -322q0 -194 -73.5 -352t-201.5 -247t-284 -89q-111 0 -197.5 50.5t-117.5 133.5h-4l-113 -635h-410l275 1561h409l-28 -166h4q57 85 161.5 135.5t221.5 50.5zM662 299q103 0 171 85.5t68 213.5q0 89 -40 141t-111 52q-86 0 -151 -68 t-85 -178q-6 -34 -6 -64q0 -85 41 -133.5t113 -48.5z" glyph-name="p" horiz-adv-x="1374" unicode="p"/><glyph d="M956 1090h410l-276 -1561h-410l113 635h-5q-60 -86 -158 -135t-224 -49q-167 0 -263 120t-96 322q0 194 73.5 352t201.5 247t284 89q113 0 200 -51t116 -135h4zM627 299q86 0 149.5 67.5t83.5 178.5q6 34 6 63q0 85 -40.5 134t-112.5 49q-102 0 -171 -86t-69 -213 q0 -89 40.5 -141t113.5 -52z" glyph-name="q" horiz-adv-x="1374" unicode="q"/><glyph d="M928 1110q67 0 119 -20l-66 -371q-76 37 -188 37q-109 0 -189.5 -80.5t-103.5 -212.5l-82 -463h-410l193 1090h409l-39 -222h4q52 109 149.5 175.5t203.5 66.5z" glyph-name="r" horiz-adv-x="976" unicode="r"/><glyph d="M481 -20q-219 0 -348 87.5t-129 233.5q0 19 2 35h377v-12q0 -46 38 -73.5t103 -27.5q73 0 120.5 29.5t47.5 75.5q0 22 -15.5 38t-48.5 26.5t-63.5 16.5t-81.5 13q-60 9 -106 19t-101 32t-91 50.5t-60.5 76t-24.5 107.5q0 180 163 291.5t419 111.5q207 0 330 -83.5 t123 -223.5q0 -25 -2 -37h-377v12q0 42 -31 67t-86 25q-60 0 -98.5 -22.5t-38.5 -59.5q0 -38 53 -58t152 -34q61 -10 107 -20.5t102 -32.5t92 -50.5t61 -75.5t25 -107q0 -124 -78.5 -222.5t-218.5 -153t-316 -54.5z" glyph-name="s" horiz-adv-x="1173" unicode="s"/><glyph d="M637 807l-74 -416q-2 -10 -2 -18q0 -42 36 -67t97 -25q82 0 148 32l-49 -278q-133 -55 -283 -55q-171 0 -271 81t-100 218q0 33 6 67l82 461h-157l49 283h180l53 309h389l-55 -309h291l-49 -283h-291z" glyph-name="t" horiz-adv-x="925" unicode="t"/><glyph d="M543 -20q-221 0 -349 100t-128 268q0 40 6 80l116 662h410l-109 -621q-4 -28 -4 -43q0 -59 30.5 -93t84.5 -34q63 0 111 47t61 123l109 621h409l-116 -662q-40 -224 -207 -336t-424 -112z" glyph-name="u" horiz-adv-x="1286" unicode="u"/><glyph d="M920 1090h423l-577 -1090h-479l-195 1090h414l80 -719h4z" glyph-name="v" horiz-adv-x="1245" unicode="v"/><glyph d="M1444 1090h414l-527 -1090h-411l-19 655h-4l-242 -655h-417l-144 1090h404l39 -658h4l247 658h386l18 -658h4z" glyph-name="w" horiz-adv-x="1761" unicode="w"/><glyph d="M-121 0l506 569l-266 521h450l95 -238h4l186 238h430l-453 -515l304 -575h-467l-119 287h-4l-230 -287h-436z" glyph-name="x" horiz-adv-x="1206" unicode="x"/><glyph d="M922 1090h421l-825 -1561h-393l186 358l-219 1203h416l80 -719h4z" glyph-name="y" horiz-adv-x="1245" unicode="y"/><glyph d="M1087 772l-591 -465v-4h540l-53 -303h-1022l55 317l580 465v4h-463l53 304h959z" glyph-name="z" horiz-adv-x="1134" unicode="z"/><glyph d="M264 1075q43 249 219 375.5t443 126.5l-58 -332q-66 0 -114 -41t-60 -108l-41 -228q-38 -201 -225 -313v-4q121 -92 121 -246q0 -33 -6 -67l-39 -228q-4 -24 -4 -33q0 -54 34 -85t91 -31l-60 -332q-229 0 -361 109.5t-132 295.5q0 53 8 97l41 227q2 12 2 29q0 46 -28 73 t-77 27l60 332q57 0 96.5 35t50.5 94z" glyph-name="braceleft" horiz-adv-x="817" unicode="{"/><glyph d="M-45 -471l397 2253h289l-397 -2253h-289z" glyph-name="bar" horiz-adv-x="557" unicode="|"/><glyph d="M698 817q0 -45 27 -71.5t76 -26.5l-58 -332q-57 0 -96.5 -35t-50.5 -94l-41 -227q-30 -167 -122 -281t-228 -167.5t-311 -53.5l59 332q66 0 114 41t60 108l39 228q34 196 225 313v4q-121 95 -121 246q0 33 6 67l41 228q5 30 5 32q0 54 -34 85.5t-91 31.5l57 332 q229 0 361.5 -110.5t132.5 -297.5q0 -45 -9 -94l-39 -227q-2 -12 -2 -31z" glyph-name="braceright" horiz-adv-x="817" unicode="}"/><glyph d="M47 311q34 178 142.5 277.5t265.5 99.5q114 0 260 -36t219 -36q41 0 72 21.5t43 58.5h155q-34 -178 -142 -277.5t-265 -99.5q-114 0 -260.5 36t-219.5 36q-41 0 -71.5 -21.5t-42.5 -58.5h-156z" glyph-name="asciitilde" horiz-adv-x="1269" unicode="~"/><glyph glyph-name="uni00A0" horiz-adv-x="432"/><glyph d="M326 649q-93 0 -148 52.5t-55 140.5q0 116 81.5 192t203.5 76q94 0 148 -51.5t54 -138.5q0 -118 -80.5 -194.5t-203.5 -76.5zM-94 -471l260 993h276l-92 -993h-444z" glyph-name="exclamdown" horiz-adv-x="614" unicode="¡"/><glyph d="M731 508q53 12 92 46t54 81h399q-57 -192 -221 -315t-381 -138l-33 -182h-113l33 182q-214 15 -336.5 141.5t-122.5 327.5q0 274 185 456.5t473 201.5l28 166h113l-29 -166q208 -15 324.5 -139.5t116.5 -323.5h-400q0 52 -26 88.5t-72 48.5zM524 692q0 -67 25 -114 t69 -66l84 471q-79 -25 -128.5 -105t-49.5 -186z" glyph-name="cent" horiz-adv-x="1316" unicode="¢"/><glyph d="M1438 1073h-412v21q0 78 -39 124t-106 46t-111.5 -43.5t-44.5 -108.5q0 -24 8 -54t16.5 -51t26.5 -60t25 -56h389l-53 -299h-328q-68 -140 -283 -262v-4h795l-57 -326h-1280l59 342q254 94 313 250h-229l53 299h144q-20 50 -29.5 75.5t-20 69.5t-10.5 80q0 136 85.5 246 t239 172.5t345.5 62.5q231 0 368.5 -127t137.5 -340q0 -37 -2 -57z" glyph-name="sterling" horiz-adv-x="1425" unicode="£"/><glyph d="M1182 764q0 -133 -60 -244l95 -119l-299 -254l-101 125q-106 -32 -213 -32q-119 0 -201 36l-151 -126l-207 251l150 129q-9 40 -9 86q0 130 58 240l-99 123l299 254l103 -127q100 35 217 35q115 0 199 -37l145 127l209 -252l-146 -123q11 -53 11 -92zM649 506 q88 0 145.5 62.5t57.5 158.5q0 67 -36.5 107t-100.5 40q-87 0 -144 -62.5t-57 -158.5q0 -67 36.5 -107t98.5 -40z" glyph-name="currency" horiz-adv-x="1310" unicode="¤"/><glyph d="M1837 1577l-776 -1028h280l-18 -105h-293l-18 -100h293l-19 -104h-293l-43 -240h-428l43 240h-286l18 104h287l18 100h-287l19 105h278l-401 1028h479l221 -666h4l453 666h469z" glyph-name="yen" horiz-adv-x="1691" unicode="¥"/><glyph d="M190 860l162 922h289l-162 -922h-289zM-45 -471l162 922h289l-162 -922h-289z" glyph-name="brokenbar" horiz-adv-x="557" unicode="¦"/><glyph d="M1470 1100h-421v10q0 70 -55 113t-146 43q-87 0 -143 -34.5t-56 -88.5q0 -66 94 -109q70 4 107 4q264 0 420.5 -112t156.5 -297q0 -229 -198 -375q100 -71 100 -188q0 -156 -98 -283.5t-274 -201t-394 -73.5q-267 0 -427.5 134.5t-160.5 357.5v31h422v-4 q0 -84 65.5 -135.5t170.5 -51.5q109 0 179.5 41t70.5 107t-76 114q-59 -6 -123 -6q-265 0 -421.5 112t-156.5 298q0 114 52 209.5t147 165.5q-100 68 -100 190q0 149 92.5 269t259 188.5t375.5 68.5q245 0 391.5 -128t146.5 -341v-28zM987 584q0 56 -53 89.5t-143 33.5 q-106 0 -176 -43.5t-70 -112.5q0 -56 53 -89.5t143 -33.5q108 0 177 43.5t69 112.5z" glyph-name="section" horiz-adv-x="1497" unicode="§"/><glyph d="M283 1190q-82 0 -130.5 46t-48.5 122q0 102 71 167.5t179 65.5q83 0 130.5 -45t47.5 -121q0 -101 -71.5 -168t-177.5 -67zM768 1190q-82 0 -130 46t-48 122q0 102 71 167.5t179 65.5q83 0 130.5 -45t47.5 -121q0 -101 -72 -168t-178 -67z" glyph-name="dieresis" horiz-adv-x="1122" unicode="¨"/><glyph d="M813 -20q-330 0 -521.5 183t-191.5 488q0 204 76 380.5t208.5 300.5t317 194.5t396.5 70.5q330 0 521 -183t191 -488q0 -204 -76 -380.5t-208 -300.5t-316.5 -194.5t-396.5 -70.5zM852 205q197 0 356.5 87.5t250.5 245.5t91 355q0 219 -131.5 350t-359.5 131 q-148 0 -277.5 -51.5t-222 -141.5t-146 -218.5t-53.5 -276.5q0 -218 132.5 -349.5t359.5 -131.5zM889 377q-171 0 -270 92.5t-99 247.5q0 206 145.5 340.5t366.5 134.5q170 0 261 -93.5t91 -252.5h-317q0 42 -21 67t-59 25q-54 0 -91.5 -55.5t-37.5 -137.5q0 -52 20 -82 t56 -30q37 0 66.5 22.5t41.5 59.5h320q-40 -152 -170.5 -245t-302.5 -93z" glyph-name="copyright" horiz-adv-x="1826" unicode="©"/><glyph d="M854 1135q13 0 29 4l-29 -172q-76 -27 -162 -27q-50 0 -82 21.5t-41 60.5q-2 8 -2 14h-4q-90 -96 -233 -96q-82 0 -130 41t-48 109q0 38 9 68.5t22 52t41 40t50.5 29.5t67.5 23t76 19t91 19t99 21l4 18q2 10 2 17q0 45 -47 45q-34 0 -57.5 -18.5t-28.5 -47.5l-243 13 q20 94 119.5 151t244.5 57q123 0 194.5 -52.5t71.5 -143.5q0 -11 -4 -39l-33 -182q-2 -10 -2 -17q0 -12 7 -20t18 -8zM580 1188l6 35q-113 -29 -141 -44q-34 -20 -35 -46q0 -15 13.5 -25t37.5 -10q104 0 119 90z" glyph-name="ordfeminine" horiz-adv-x="841" unicode="ª"/><glyph d="M621 180h-400l-176 352l299 353h399l-305 -361zM1157 180h-399l-176 352l299 353h399l-305 -361z" glyph-name="guillemotleft" horiz-adv-x="1306" unicode="«"/><glyph d="M133 836h922l-109 -615h-409l55 311h-512z" glyph-name="logicalnot" horiz-adv-x="1116" unicode="¬"/><glyph d="M78 412l49 282h721l-49 -282h-721z" glyph-name="uni00AD" horiz-adv-x="923" unicode="­"/><glyph d="M721 1597q185 0 292 -98t107 -262q0 -218 -156.5 -359t-394.5 -141q-185 0 -292 98.5t-107 262.5q0 144 71.5 258.5t197 177.5t282.5 63zM588 844q174 0 289.5 106t115.5 271q0 124 -78.5 197t-212.5 73q-174 0 -289.5 -106t-115.5 -271q0 -124 78.5 -197t212.5 -73z M860 1251q0 -81 -92 -121l72 -161h-156l-57 139h-54l-24 -139h-146l70 397h219q76 0 122 -32t46 -83zM600 1257l-10 -59h78q18 0 28.5 10t10.5 25q0 11 -7.5 17.5t-19.5 6.5h-80z" glyph-name="registered" horiz-adv-x="1075" unicode="®"/><glyph d="M29 1243l51 293h772l-51 -293h-772z" glyph-name="macron" horiz-adv-x="880" unicode="¯"/><glyph d="M453 1008q-129 0 -205 68t-76 179q0 149 109.5 245.5t275.5 96.5q128 0 203.5 -68t75.5 -179q0 -149 -109 -245.5t-274 -96.5zM483 1194q50 0 82.5 37t32.5 94q0 39 -20.5 62.5t-55.5 23.5q-46 0 -79 -37.5t-33 -93.5q0 -39 20 -62.5t53 -23.5z" glyph-name="degree" horiz-adv-x="745" unicode="°"/><glyph d="M827 887h256l-53 -303h-256l-31 -170h-409l31 170h-256l53 303h256l31 172h409zM6 0l53 303h922l-53 -303h-922z" glyph-name="plusminus" horiz-adv-x="1124" unicode="±"/><glyph d="M49 1171l244 365h412l-353 -365h-303z" glyph-name="acute" horiz-adv-x="665" unicode="´"/><glyph d="M1618 1577l-361 -2048h-317l307 1745h-250l-307 -1745h-317l186 1057q-195 0 -307.5 111.5t-112.5 297.5q0 167 77 300.5t213 207.5t304 74h885z" glyph-name="paragraph" horiz-adv-x="1609" unicode="¶"/><glyph d="M272 338q-93 0 -147.5 52t-54.5 140q0 117 81 193t203 76q93 0 147 -52t54 -139q0 -118 -80 -194t-203 -76z" glyph-name="periodcentered" horiz-adv-x="616" unicode="·"/><glyph d="M457 -94q85 0 133.5 -41t48.5 -109q0 -110 -104 -179t-267 -69q-149 0 -233 48l24 143q90 -51 181 -51q63 0 103 22.5t40 57.5q0 47 -53 47q-45 0 -80 -35l-96 74l192 272l127 -86l-80 -100l2 -2q31 8 62 8z" glyph-name="cedilla" horiz-adv-x="698" unicode="¸"/><glyph d="M485 940q-148 0 -233.5 75.5t-85.5 201.5q0 167 123 273.5t311 106.5q147 0 232.5 -75.5t85.5 -200.5q0 -166 -123 -273.5t-310 -107.5zM522 1149q50 0 84.5 41t34.5 102q0 43 -21 70t-57 27q-51 0 -86 -42t-35 -104q0 -43 21.5 -68.5t58.5 -25.5z" glyph-name="ordmasculine" horiz-adv-x="833" unicode="º"/><glyph d="M20 180l306 361l-181 344h400l174 -353l-299 -352h-400zM557 180l305 361l-180 344h399l174 -353l-299 -352h-399z" glyph-name="guillemotright" horiz-adv-x="1304" unicode="»"/><glyph d="M1477 1577h292l-1347 -1577h-293zM281 692l96 547h-201l31 176q123 0 196.5 38.5t120.5 123.5h191l-156 -885h-278zM1890 369l-37 -209h-118l-29 -160h-279l29 160h-414l39 219l443 506h338l-90 -516h118zM1542 616l-217 -245v-2h176l43 247h-2z" glyph-name="onequarter" horiz-adv-x="1980" unicode="¼"/><glyph d="M1477 1577h292l-1347 -1577h-293zM281 692l96 547h-201l31 176q123 0 196.5 38.5t120.5 123.5h191l-156 -885h-278zM1481 211v-2h444l-37 -209h-731l39 219q222 107 350.5 219.5t128.5 198.5q0 45 -43 45q-32 0 -57 -22t-35 -60h-268q38 141 143.5 219t259.5 78 q146 0 225.5 -61t79.5 -170q0 -78 -49.5 -154t-127 -133.5t-160.5 -100t-162 -67.5z" glyph-name="onehalf" horiz-adv-x="2050" unicode="½"/><glyph d="M862 981q0 -136 -115.5 -218.5t-312.5 -82.5q-144 0 -223.5 70t-79.5 196v27h268v-10q0 -32 19.5 -50t56.5 -18q45 0 72.5 25t27.5 65q0 31 -22 48.5t-61 17.5h-19l31 182h18q39 0 63.5 24.5t24.5 63.5q0 53 -53 53q-31 0 -54 -20t-32 -56h-262q38 138 141.5 214.5 t251.5 76.5q145 0 224 -59t79 -164q0 -149 -172 -219v-2q129 -51 129 -164zM1671 1577h293l-1348 -1577h-292zM2085 369l-37 -209h-119l-28 -160h-279l29 160h-414l39 219l442 506h338l-90 -516h119zM1737 616l-217 -245v-2h176l43 247h-2z" glyph-name="threequarters" horiz-adv-x="2170" unicode="¾"/><glyph d="M614 649q-94 0 -148 52t-54 141q0 117 80.5 192.5t203.5 75.5q93 0 147 -51.5t54 -138.5q0 -118 -80 -194.5t-203 -76.5zM369 -492q-229 0 -362.5 94.5t-133.5 250.5q0 44 16 86.5t37 74t60 70.5t67 62t78.5 62.5t73.5 59.5q56 47 82.5 69.5t64 59t55.5 65.5t23 56h322 l-2 -12q-32 -163 -230 -354q-14 -13 -52.5 -50t-53 -52t-37 -42t-31 -48.5t-8.5 -43.5q0 -34 28.5 -55t77.5 -21q60 0 105.5 32.5t62.5 86.5h404q-56 -203 -233.5 -327t-413.5 -124z" glyph-name="questiondown" horiz-adv-x="1099" unicode="¿"/><glyph d="M1174 1675h-304l-225 365h412zM1032 0l-43 305h-534l-152 -305h-424l848 1577h467l289 -1577h-451zM614 629h328l-72 506h-4z" glyph-name="Agrave" horiz-adv-x="1556" unicode="À"/><glyph d="M1436 2040l-353 -365h-303l244 365h412zM1032 0l-43 305h-534l-152 -305h-424l848 1577h467l289 -1577h-451zM614 629h328l-72 506h-4z" glyph-name="Aacute" horiz-adv-x="1556" unicode="Á"/><glyph d="M1001 1835l-129 -160h-303l285 365h369l157 -365h-303l-71 160h-5zM1032 0l-43 305h-534l-152 -305h-424l848 1577h467l289 -1577h-451zM614 629h328l-72 506h-4z" glyph-name="Acircumflex" horiz-adv-x="1556" unicode="Â"/><glyph d="M825 1765q-41 0 -71.5 -21t-42.5 -58h-156q34 178 131 277t236 99q68 0 151.5 -35.5t126.5 -35.5q41 0 72 21.5t43 58.5h155q-34 -178 -131 -277.5t-235 -99.5q-68 0 -152 35.5t-127 35.5zM1032 0l-43 305h-534l-152 -305h-424l848 1577h467l289 -1577h-451zM614 629h328 l-72 506h-4z" glyph-name="Atilde" horiz-adv-x="1556" unicode="Ã"/><glyph d="M731 1657q-82 0 -130 46t-48 122q0 102 71 167.5t179 65.5q83 0 130.5 -45t47.5 -121q0 -101 -72 -168t-178 -67zM1217 1657q-82 0 -130.5 46t-48.5 122q0 102 71 167.5t179 65.5q83 0 130.5 -45t47.5 -121q0 -101 -71.5 -168t-177.5 -67zM1032 0l-43 305h-534l-152 -305 h-424l848 1577h467l289 -1577h-451zM614 629h328l-72 506h-4z" glyph-name="Adieresis" horiz-adv-x="1556" unicode="Ä"/><glyph d="M975 1663q-120 0 -189 60t-69 161q0 133 98.5 218t251.5 85q119 0 187.5 -60t68.5 -161q0 -133 -98.5 -218t-249.5 -85zM1036 2017q-44 0 -73 -31.5t-29 -78.5q0 -34 19 -54t51 -20q44 0 73 32t29 79q0 34 -18.5 53.5t-51.5 19.5zM1032 0l-43 305h-534l-152 -305h-424 l848 1577h467l289 -1577h-451zM614 629h328l-72 506h-4z" glyph-name="Aring" horiz-adv-x="1556" unicode="Å"/><glyph d="M2370 1251h-912l-2 -284h789l-58 -324h-733l-2 -317h776l-57 -326h-1172l15 305h-522l-205 -305h-424l1048 1577h1516zM711 631h319l25 504h-4z" glyph-name="AE" horiz-adv-x="2340" unicode="Æ"/><glyph d="M1733 971h-416q2 18 2 33q0 119 -81.5 189.5t-219.5 70.5q-132 0 -241 -74.5t-171.5 -207.5t-62.5 -296q0 -169 82 -271t225 -102q147 0 257 79t144 208h416q-66 -266 -279.5 -432t-521.5 -186l-65 -82l2 -2q31 8 61 8q85 0 134 -41t49 -109q0 -110 -104 -179t-267 -69 q-68 0 -132 13t-102 35l25 143q90 -51 180 -51q63 0 103.5 22.5t40.5 57.5q0 47 -54 47q-45 0 -80 -35l-96 74l121 172q-266 32 -426 210.5t-160 450.5q0 206 71.5 382.5t199 301t310.5 195.5t398 71q290 0 476 -153t186 -402q0 -21 -4 -71z" glyph-name="Ccedilla" horiz-adv-x="1703" unicode="Ç"/><glyph d="M1135 1675h-304l-225 365h412zM1464 1251h-782l-49 -284h706l-57 -326h-707l-55 -315h805l-57 -326h-1233l278 1577h1209z" glyph-name="Egrave" horiz-adv-x="1435" unicode="È"/><glyph d="M1397 2040l-353 -365h-303l244 365h412zM1464 1251h-782l-49 -284h706l-57 -326h-707l-55 -315h805l-57 -326h-1233l278 1577h1209z" glyph-name="Eacute" horiz-adv-x="1435" unicode="É"/><glyph d="M963 1835l-129 -160h-304l285 365h369l157 -365h-303l-71 160h-4zM1464 1251h-782l-49 -284h706l-57 -326h-707l-55 -315h805l-57 -326h-1233l278 1577h1209z" glyph-name="Ecircumflex" horiz-adv-x="1435" unicode="Ê"/><glyph d="M692 1657q-82 0 -130 46t-48 122q0 102 71 167.5t179 65.5q83 0 130.5 -45t47.5 -121q0 -101 -72 -168t-178 -67zM1178 1657q-82 0 -130.5 46t-48.5 122q0 102 71 167.5t179 65.5q83 0 130.5 -45t47.5 -121q0 -101 -71.5 -168t-177.5 -67zM1464 1251h-782l-49 -284h706 l-57 -326h-707l-55 -315h805l-57 -326h-1233l278 1577h1209z" glyph-name="Edieresis" horiz-adv-x="1435" unicode="Ë"/><glyph d="M741 1675h-303l-225 365h412zM35 0l278 1577h428l-278 -1577h-428z" glyph-name="Igrave" horiz-adv-x="692" unicode="Ì"/><glyph d="M348 1675l244 365h412l-353 -365h-303zM35 0l278 1577h428l-278 -1577h-428z" glyph-name="Iacute" horiz-adv-x="692" unicode="Í"/><glyph d="M569 1835l-129 -160h-303l285 365h369l157 -365h-303l-72 160h-4zM35 0l278 1577h428l-278 -1577h-428z" glyph-name="Icircumflex" horiz-adv-x="692" unicode="Î"/><glyph d="M299 1657q-82 0 -130 46t-48 122q0 102 71 167.5t179 65.5q83 0 130.5 -45t47.5 -121q0 -101 -72 -168t-178 -67zM784 1657q-82 0 -130 46t-48 122q0 102 71 167.5t179 65.5q83 0 130.5 -45t47.5 -121q0 -101 -72 -168t-178 -67zM35 0l278 1577h428l-278 -1577h-428z" glyph-name="Idieresis" horiz-adv-x="692" unicode="Ï"/><glyph d="M911 1577q211 0 374.5 -81.5t254 -231t90.5 -344.5q0 -200 -73 -371t-203 -291.5t-316 -189t-405 -68.5h-574l117 659h-121l49 283h121l113 635h573zM711 326q132 0 239.5 72t169.5 201t62 288q0 166 -82.5 265t-225.5 99h-165l-56 -309h289l-49 -283h-289l-59 -333h166z" glyph-name="Eth" horiz-adv-x="1640" unicode="Ð"/><glyph d="M874 1765q-41 0 -71.5 -21t-42.5 -58h-156q34 178 131 277t236 99q68 0 151.5 -35.5t126.5 -35.5q41 0 72 21.5t43 58.5h156q-34 -178 -131.5 -277.5t-235.5 -99.5q-68 0 -152 35.5t-127 35.5zM1294 1577h406l-279 -1577h-397l-430 922h-4l-150 -922h-405l278 1577h398 l428 -924h4z" glyph-name="Ntilde" horiz-adv-x="1650" unicode="Ñ"/><glyph d="M1286 1675h-303l-225 365h411zM791 -20q-312 0 -504.5 184t-192.5 485q0 205 72 381t200 301t311 195.5t398 70.5q312 0 504.5 -184t192.5 -485q0 -205 -72 -381t-200 -301t-311 -195.5t-398 -70.5zM850 313q132 0 241 74.5t171.5 207.5t62.5 296q0 169 -82 271t-225 102 q-203 0 -340 -165t-137 -413q0 -170 82.5 -271.5t226.5 -101.5z" glyph-name="Ograve" horiz-adv-x="1779" unicode="Ò"/><glyph d="M893 1675l244 365h411l-352 -365h-303zM791 -20q-312 0 -504.5 184t-192.5 485q0 205 72 381t200 301t311 195.5t398 70.5q312 0 504.5 -184t192.5 -485q0 -205 -72 -381t-200 -301t-311 -195.5t-398 -70.5zM850 313q132 0 241 74.5t171.5 207.5t62.5 296q0 169 -82 271 t-225 102q-203 0 -340 -165t-137 -413q0 -170 82.5 -271.5t226.5 -101.5z" glyph-name="Oacute" horiz-adv-x="1779" unicode="Ó"/><glyph d="M1114 1835l-129 -160h-303l285 365h368l158 -365h-303l-72 160h-4zM1075 1597q312 0 504.5 -184t192.5 -485q0 -205 -72 -381t-200 -301t-311 -195.5t-398 -70.5q-312 0 -504.5 184t-192.5 485q0 205 72 381t200 301t311 195.5t398 70.5zM850 313q132 0 241 74.5 t171.5 207.5t62.5 296q0 169 -82 271t-225 102q-203 0 -340 -165t-137 -413q0 -170 82.5 -271.5t226.5 -101.5z" glyph-name="Ocircumflex" horiz-adv-x="1779" unicode="Ô"/><glyph d="M668 1686q34 178 131 277t235 99q68 0 152 -35.5t127 -35.5q41 0 71.5 21.5t42.5 58.5h156q-34 -178 -131 -277.5t-235 -99.5q-68 0 -152 35.5t-127 35.5q-41 0 -72 -21t-43 -58h-155zM791 -20q-312 0 -504.5 184t-192.5 485q0 205 72 381t200 301t311 195.5t398 70.5 q312 0 504.5 -184t192.5 -485q0 -205 -72 -381t-200 -301t-311 -195.5t-398 -70.5zM850 313q132 0 241 74.5t171.5 207.5t62.5 296q0 169 -82 271t-225 102q-203 0 -340 -165t-137 -413q0 -170 82.5 -271.5t226.5 -101.5z" glyph-name="Otilde" horiz-adv-x="1779" unicode="Õ"/><glyph d="M844 1657q-82 0 -130 46t-48 122q0 102 70.5 167.5t178.5 65.5q83 0 131 -45t48 -121q0 -101 -72 -168t-178 -67zM1329 1657q-82 0 -130 46t-48 122q0 102 71 167.5t179 65.5q83 0 130.5 -45t47.5 -121q0 -101 -72 -168t-178 -67zM791 -20q-312 0 -504.5 184t-192.5 485 q0 205 72 381t200 301t311 195.5t398 70.5q312 0 504.5 -184t192.5 -485q0 -205 -72 -381t-200 -301t-311 -195.5t-398 -70.5zM850 313q132 0 241 74.5t171.5 207.5t62.5 296q0 169 -82 271t-225 102q-203 0 -340 -165t-137 -413q0 -170 82.5 -271.5t226.5 -101.5z" glyph-name="Odieresis" horiz-adv-x="1779" unicode="Ö"/><glyph d="M1061 748l-254 -216l178 -217l-313 -266l-178 215l-252 -215l-222 266l254 215l-178 218l316 266l176 -215l254 215z" glyph-name="multiply" horiz-adv-x="1087" unicode="×"/><glyph d="M1542 1446q109 -89 169.5 -222t60.5 -296q0 -205 -72 -381t-200 -301t-311 -195.5t-398 -70.5q-206 0 -369 86l-125 -154l-96 63l125 154q-111 91 -171.5 224t-60.5 296q0 205 72 381t200 301t311 195.5t398 70.5q208 0 371 -86l123 152l96 -64zM541 686q0 -135 53 -227 l604 747q-74 58 -180 58q-203 0 -340 -165t-137 -413zM850 313q132 0 241 74.5t171.5 207.5t62.5 296q0 134 -51 225l-604 -745q74 -58 180 -58z" glyph-name="Oslash" horiz-adv-x="1779" unicode="Ø"/><glyph d="M1194 1675h-303l-225 365h411zM686 -20q-254 0 -413.5 134t-159.5 355q0 63 10 119l174 989h428l-178 -1008q-4 -18 -4 -55q0 -93 57 -147t156 -54q114 0 196.5 70.5t102.5 185.5l178 1008h405l-174 -989q-53 -301 -254.5 -454.5t-523.5 -153.5z" glyph-name="Ugrave" horiz-adv-x="1574" unicode="Ù"/><glyph d="M801 1675l243 365h412l-352 -365h-303zM686 -20q-254 0 -413.5 134t-159.5 355q0 63 10 119l174 989h428l-178 -1008q-4 -18 -4 -55q0 -93 57 -147t156 -54q114 0 196.5 70.5t102.5 185.5l178 1008h405l-174 -989q-53 -301 -254.5 -454.5t-523.5 -153.5z" glyph-name="Uacute" horiz-adv-x="1574" unicode="Ú"/><glyph d="M1022 1835l-129 -160h-303l284 365h369l158 -365h-303l-72 160h-4zM1233 1577h405l-174 -989q-53 -301 -254.5 -454.5t-523.5 -153.5q-254 0 -413.5 134t-159.5 355q0 63 10 119l174 989h428l-178 -1008q-4 -18 -4 -55q0 -93 57 -147t156 -54q114 0 196.5 70.5 t102.5 185.5z" glyph-name="Ucircumflex" horiz-adv-x="1574" unicode="Û"/><glyph d="M752 1657q-82 0 -130.5 46t-48.5 122q0 102 71 167.5t179 65.5q83 0 130.5 -45t47.5 -121q0 -101 -71.5 -168t-177.5 -67zM1237 1657q-82 0 -130 46t-48 122q0 102 71 167.5t179 65.5q83 0 130.5 -45t47.5 -121q0 -101 -72 -168t-178 -67zM686 -20q-254 0 -413.5 134 t-159.5 355q0 63 10 119l174 989h428l-178 -1008q-4 -18 -4 -55q0 -93 57 -147t156 -54q114 0 196.5 70.5t102.5 185.5l178 1008h405l-174 -989q-53 -301 -254.5 -454.5t-523.5 -153.5z" glyph-name="Udieresis" horiz-adv-x="1574" unicode="Ü"/><glyph d="M1462 2040l-352 -365h-303l244 365h411zM1780 1577l-793 -1051l-94 -526h-428l94 537l-405 1040h479l221 -666h4l453 666h469z" glyph-name="Yacute" horiz-adv-x="1558" unicode="Ý"/><glyph d="M907 1335q248 0 404.5 -122t156.5 -320q0 -264 -203.5 -429t-539.5 -165h-209l-53 -299h-428l278 1577h428l-43 -242h209zM801 623q95 0 158 64.5t63 164.5q0 71 -41.5 114.5t-112.5 43.5h-227l-68 -387h228z" glyph-name="Thorn" horiz-adv-x="1462" unicode="Þ"/><glyph d="M1075 883q121 -44 186.5 -134.5t65.5 -209.5q0 -237 -174.5 -398t-435.5 -161q-120 0 -197 24l53 301q70 -4 80 -4q113 0 187.5 73t74.5 183q0 84 -52.5 134t-143.5 50h-43l45 258q84 0 138 46.5t54 119.5q0 51 -30 81t-84 30q-71 0 -122 -44t-63 -114l-196 -1118h-410 l195 1104q43 246 215.5 369.5t435.5 123.5q224 0 355.5 -98t131.5 -260q0 -230 -266 -352v-4z" glyph-name="germandbls" horiz-adv-x="1386" unicode="ß"/><glyph d="M1016 1212h-303l-226 365h412zM956 1090h410l-192 -1090h-410l29 164h-5q-60 -86 -158 -135t-224 -49q-167 0 -263 120t-96 322q0 194 73.5 352t201.5 247t284 89q113 0 200 -51t116 -135h4zM627 299q86 0 149.5 67.5t83.5 178.5q6 34 6 63q0 85 -40.5 134t-112.5 49 q-102 0 -171 -86t-69 -213q0 -89 40.5 -141t113.5 -52z" glyph-name="agrave" horiz-adv-x="1374" unicode="à"/><glyph d="M1280 1577l-352 -365h-303l243 365h412zM956 1090h410l-192 -1090h-410l29 164h-5q-60 -86 -158 -135t-224 -49q-167 0 -263 120t-96 322q0 194 73.5 352t201.5 247t284 89q113 0 200 -51t116 -135h4zM627 299q86 0 149.5 67.5t83.5 178.5q6 34 6 63q0 85 -40.5 134 t-112.5 49q-102 0 -171 -86t-69 -213q0 -89 40.5 -141t113.5 -52z" glyph-name="aacute" horiz-adv-x="1374" unicode="á"/><glyph d="M846 1372l-129 -160h-303l284 365h369l158 -365h-303l-72 160h-4zM956 1090h410l-192 -1090h-410l29 164h-5q-60 -86 -158 -135t-224 -49q-167 0 -263 120t-96 322q0 194 73.5 352t201.5 247t284 89q113 0 200 -51t116 -135h4zM627 299q86 0 149.5 67.5t83.5 178.5 q6 34 6 63q0 85 -40.5 134t-112.5 49q-102 0 -171 -86t-69 -213q0 -89 40.5 -141t113.5 -52z" glyph-name="acircumflex" horiz-adv-x="1374" unicode="â"/><glyph d="M674 1327q-41 0 -72 -21.5t-43 -58.5h-156q34 178 131.5 277.5t235.5 99.5q68 0 152 -36t127 -36q41 0 71.5 21.5t42.5 58.5h156q-34 -178 -131.5 -277.5t-235.5 -99.5q-68 0 -151.5 36t-126.5 36zM956 1090h410l-192 -1090h-410l29 164h-5q-60 -86 -158 -135t-224 -49 q-167 0 -263 120t-96 322q0 194 73.5 352t201.5 247t284 89q113 0 200 -51t116 -135h4zM627 299q86 0 149.5 67.5t83.5 178.5q6 34 6 63q0 85 -40.5 134t-112.5 49q-102 0 -171 -86t-69 -213q0 -89 40.5 -141t113.5 -52z" glyph-name="atilde" horiz-adv-x="1374" unicode="ã"/><glyph d="M578 1210q-82 0 -130.5 46t-48.5 122q0 102 71 168t179 66q83 0 130.5 -45t47.5 -121q0 -101 -71.5 -168.5t-177.5 -67.5zM1063 1210q-82 0 -130 46t-48 122q0 102 71 168t179 66q83 0 130.5 -45t47.5 -121q0 -101 -72 -168.5t-178 -67.5zM956 1090h410l-192 -1090h-410 l29 164h-5q-60 -86 -158 -135t-224 -49q-167 0 -263 120t-96 322q0 194 73.5 352t201.5 247t284 89q113 0 200 -51t116 -135h4zM627 299q86 0 149.5 67.5t83.5 178.5q6 34 6 63q0 85 -40.5 134t-112.5 49q-102 0 -171 -86t-69 -213q0 -89 40.5 -141t113.5 -52z" glyph-name="adieresis" horiz-adv-x="1374" unicode="ä"/><glyph d="M813 1176q-120 0 -189 60t-69 161q0 133 98.5 218t251.5 85q119 0 187.5 -60t68.5 -161q0 -133 -98.5 -218t-249.5 -85zM874 1530q-44 0 -73 -32t-29 -79q0 -34 19 -53.5t51 -19.5q44 0 73 31.5t29 78.5q0 34 -18.5 54t-51.5 20zM956 1090h410l-192 -1090h-410l29 164h-5 q-60 -86 -158 -135t-224 -49q-167 0 -263 120t-96 322q0 194 73.5 352t201.5 247t284 89q113 0 200 -51t116 -135h4zM627 299q86 0 149.5 67.5t83.5 178.5q6 34 6 63q0 85 -40.5 134t-112.5 49q-102 0 -171 -86t-69 -213q0 -89 40.5 -141t113.5 -52z" glyph-name="aring" horiz-adv-x="1374" unicode="å"/><glyph d="M1458 1110q210 0 330.5 -121t120.5 -327q0 -60 -13 -136l-8 -45h-774v-14q0 -96 40.5 -150.5t125.5 -54.5q64 0 118.5 33.5t76.5 87.5h393q-63 -181 -230 -292t-378 -111q-134 0 -232 53t-151 151h-5q-179 -204 -491 -204q-178 0 -281.5 71.5t-103.5 192.5q0 50 9.5 91.5 t24 74t42.5 60.5t55 48t73 39t84.5 31.5t101 28.5t111 26.5t126 27.5t135.5 31l8 41q2 14 2 31q0 43 -25 68.5t-69 25.5q-62 0 -105.5 -34t-52.5 -91h-377q34 165 185 266t366 101q130 0 216.5 -44t123.5 -126h4q173 170 424 170zM1372 842q-70 0 -128.5 -48.5t-92.5 -131.5 h365q-5 85 -42.5 132.5t-101.5 47.5zM487 240q86 0 147.5 50.5t76.5 135.5l12 74q-170 -42 -219 -62q-109 -47 -111 -121q0 -35 25 -56t69 -21z" glyph-name="ae" horiz-adv-x="1955" unicode="æ"/><glyph d="M616 301q71 0 127 36.5t76 96.5h400q-55 -187 -213 -308.5t-371 -141.5l-66 -84l2 -2q31 8 62 8q85 0 133.5 -41t48.5 -109q0 -110 -104 -179t-267 -69q-149 0 -233 48l25 143q90 -51 180 -51q63 0 103 22.5t40 57.5q0 47 -53 47q-45 0 -80 -35l-96 74l123 174 q-191 28 -299.5 151.5t-108.5 311.5q0 190 93 341t256 234.5t366 83.5q233 0 364 -126.5t131 -338.5h-399q0 67 -41.5 106.5t-112.5 39.5q-100 0 -167.5 -86t-67.5 -213q0 -87 39.5 -139t109.5 -52z" glyph-name="ccedilla" horiz-adv-x="1280" unicode="ç"/><glyph d="M971 1212h-303l-226 365h412zM756 1110q231 0 364 -123.5t133 -333.5q0 -59 -12 -127l-8 -45h-791q0 -99 44 -159t120 -60q68 0 126.5 33.5t84.5 87.5h395q-66 -182 -246.5 -292.5t-410.5 -110.5q-235 0 -371.5 129t-136.5 344q0 189 92 339.5t254 234t363 83.5zM709 842 q-74 0 -136 -48.5t-96 -131.5h383q-6 84 -45 132t-106 48z" glyph-name="egrave" horiz-adv-x="1298" unicode="è"/><glyph d="M1235 1577l-352 -365h-303l243 365h412zM756 1110q231 0 364 -123.5t133 -333.5q0 -59 -12 -127l-8 -45h-791q0 -99 44 -159t120 -60q68 0 126.5 33.5t84.5 87.5h395q-66 -182 -246.5 -292.5t-410.5 -110.5q-235 0 -371.5 129t-136.5 344q0 189 92 339.5t254 234 t363 83.5zM709 842q-74 0 -136 -48.5t-96 -131.5h383q-6 84 -45 132t-106 48z" glyph-name="eacute" horiz-adv-x="1298" unicode="é"/><glyph d="M801 1372l-129 -160h-303l284 365h369l158 -365h-303l-72 160h-4zM756 1110q231 0 364 -123.5t133 -333.5q0 -59 -12 -127l-8 -45h-791q0 -99 44 -159t120 -60q68 0 126.5 33.5t84.5 87.5h395q-66 -182 -246.5 -292.5t-410.5 -110.5q-235 0 -371.5 129t-136.5 344 q0 189 92 339.5t254 234t363 83.5zM709 842q-74 0 -136 -48.5t-96 -131.5h383q-6 84 -45 132t-106 48z" glyph-name="ecircumflex" horiz-adv-x="1298" unicode="ê"/><glyph d="M532 1210q-82 0 -130 46t-48 122q0 102 71 168t179 66q83 0 130.5 -45t47.5 -121q0 -101 -72 -168.5t-178 -67.5zM1018 1210q-82 0 -130 46t-48 122q0 102 71 168t179 66q83 0 130.5 -45t47.5 -121q0 -101 -72 -168.5t-178 -67.5zM756 1110q231 0 364 -123.5t133 -333.5 q0 -59 -12 -127l-8 -45h-791q0 -99 44 -159t120 -60q68 0 126.5 33.5t84.5 87.5h395q-66 -182 -246.5 -292.5t-410.5 -110.5q-235 0 -371.5 129t-136.5 344q0 189 92 339.5t254 234t363 83.5zM709 842q-74 0 -136 -48.5t-96 -131.5h383q-6 84 -45 132t-106 48z" glyph-name="edieresis" horiz-adv-x="1298" unicode="ë"/><glyph d="M623 1212h-304l-225 365h412zM8 0l193 1090h409l-192 -1090h-410z" glyph-name="igrave" horiz-adv-x="618" unicode="ì"/><glyph d="M231 1212l244 365h412l-352 -365h-304zM8 0l193 1090h409l-192 -1090h-410z" glyph-name="iacute" horiz-adv-x="618" unicode="í"/><glyph d="M453 1372l-129 -160h-304l285 365h369l157 -365h-303l-71 160h-4zM8 0l193 1090h409l-192 -1090h-410z" glyph-name="icircumflex" horiz-adv-x="618" unicode="î"/><glyph d="M184 1210q-82 0 -130 46t-48 122q0 102 71 168t179 66q83 0 130.5 -45t47.5 -121q0 -101 -72 -168.5t-178 -67.5zM670 1210q-82 0 -130 46t-48 122q0 102 70.5 168t178.5 66q83 0 131 -45t48 -121q0 -101 -72 -168.5t-178 -67.5zM8 0l193 1090h409l-192 -1090h-410z" glyph-name="idieresis" horiz-adv-x="618" unicode="ï"/><glyph d="M1053 1329q129 -95 188 -219.5t59 -288.5q0 -100 -22 -229q-47 -275 -245 -443.5t-472 -168.5q-241 0 -381.5 120.5t-140.5 321.5q0 170 80.5 308t222.5 216t317 78q166 0 277 -63q-39 142 -201 219l-395 -185l-80 183l207 98q-113 29 -182 45l129 276q264 -70 430 -145 l311 145l80 -182zM621 301q99 0 164 67t65 171q0 74 -42.5 118.5t-115.5 44.5q-100 0 -165.5 -66.5t-65.5 -170.5q0 -74 43 -119t117 -45z" glyph-name="eth" horiz-adv-x="1329" unicode="ð"/><glyph d="M641 1327q-41 0 -72 -21.5t-43 -58.5h-155q34 178 131 277.5t235 99.5q68 0 152 -36t127 -36q41 0 71.5 21.5t42.5 58.5h156q-34 -178 -131 -277.5t-235 -99.5q-68 0 -152 36t-127 36zM985 1110q130 0 205.5 -82t75.5 -221q0 -36 -11 -100l-125 -707h-409l110 627 q5 35 5 39q0 57 -32 91t-87 34q-72 0 -125 -52t-68 -137l-106 -602h-410l193 1090h409l-28 -166h4q66 84 175.5 135t223.5 51z" glyph-name="ntilde" horiz-adv-x="1323" unicode="ñ"/><glyph d="M979 1212h-303l-225 365h411zM563 -20q-240 0 -379 128.5t-139 342.5q0 190 93.5 341t257.5 234.5t368 83.5q240 0 379 -128.5t139 -342.5q0 -190 -93.5 -341t-257.5 -234.5t-368 -83.5zM621 301q102 0 170.5 85t68.5 212q0 88 -41 140.5t-112 52.5q-102 0 -171 -86 t-69 -213q0 -87 41.5 -139t112.5 -52z" glyph-name="ograve" horiz-adv-x="1327" unicode="ò"/><glyph d="M588 1212l243 365h412l-352 -365h-303zM563 -20q-240 0 -379 128.5t-139 342.5q0 190 93.5 341t257.5 234.5t368 83.5q240 0 379 -128.5t139 -342.5q0 -190 -93.5 -341t-257.5 -234.5t-368 -83.5zM621 301q102 0 170.5 85t68.5 212q0 88 -41 140.5t-112 52.5 q-102 0 -171 -86t-69 -213q0 -87 41.5 -139t112.5 -52z" glyph-name="oacute" horiz-adv-x="1327" unicode="ó"/><glyph d="M809 1372l-129 -160h-303l285 365h368l158 -365h-303l-72 160h-4zM764 1110q240 0 379 -128.5t139 -342.5q0 -190 -93.5 -341t-257.5 -234.5t-368 -83.5q-240 0 -379 128.5t-139 342.5q0 190 93.5 341t257.5 234.5t368 83.5zM621 301q102 0 170.5 85t68.5 212 q0 88 -41 140.5t-112 52.5q-102 0 -171 -86t-69 -213q0 -87 41.5 -139t112.5 -52z" glyph-name="ocircumflex" horiz-adv-x="1327" unicode="ô"/><glyph d="M367 1247q34 178 131 277.5t235 99.5q68 0 152 -36t127 -36q41 0 71.5 21.5t42.5 58.5h156q-34 -178 -131.5 -277.5t-235.5 -99.5q-68 0 -151.5 36t-126.5 36q-41 0 -72 -21.5t-43 -58.5h-155zM563 -20q-240 0 -379 128.5t-139 342.5q0 190 93.5 341t257.5 234.5 t368 83.5q240 0 379 -128.5t139 -342.5q0 -190 -93.5 -341t-257.5 -234.5t-368 -83.5zM621 301q102 0 170.5 85t68.5 212q0 88 -41 140.5t-112 52.5q-102 0 -171 -86t-69 -213q0 -87 41.5 -139t112.5 -52z" glyph-name="otilde" horiz-adv-x="1327" unicode="õ"/><glyph d="M541 1210q-82 0 -130.5 46t-48.5 122q0 102 71 168t179 66q83 0 131 -45t48 -121q0 -101 -72 -168.5t-178 -67.5zM1026 1210q-82 0 -130 46t-48 122q0 102 71 168t179 66q83 0 130.5 -45t47.5 -121q0 -101 -72 -168.5t-178 -67.5zM563 -20q-240 0 -379 128.5t-139 342.5 q0 190 93.5 341t257.5 234.5t368 83.5q240 0 379 -128.5t139 -342.5q0 -190 -93.5 -341t-257.5 -234.5t-368 -83.5zM621 301q102 0 170.5 85t68.5 212q0 88 -41 140.5t-112 52.5q-102 0 -171 -86t-69 -213q0 -87 41.5 -139t112.5 -52z" glyph-name="odieresis" horiz-adv-x="1327" unicode="ö"/><glyph d="M549 719q-88 0 -138.5 48.5t-50.5 127.5q0 107 74.5 176.5t188.5 69.5q86 0 136 -47.5t50 -126.5q0 -107 -74.5 -177.5t-185.5 -70.5zM25 365l53 303h921l-53 -303h-921zM401 -109q-86 0 -136 49t-50 128q0 107 74 176t188 69q86 0 136.5 -47.5t50.5 -126.5 q0 -107 -75 -177.5t-188 -70.5z" glyph-name="divide" horiz-adv-x="1036" unicode="÷"/><glyph d="M1118 1001q79 -62 121.5 -155t42.5 -207q0 -190 -93.5 -341t-257.5 -234.5t-368 -83.5q-155 0 -268 55l-117 -137l-84 59l113 133q-162 128 -162 361q0 190 93.5 341t257.5 234.5t368 83.5q151 0 266 -53l115 135l84 -59zM467 492q0 -45 12 -82l305 360q-35 21 -77 21 q-102 0 -171 -86t-69 -213zM621 301q102 0 170.5 85t68.5 212q0 48 -12 86l-307 -360q38 -23 80 -23z" glyph-name="oslash" horiz-adv-x="1327" unicode="ø"/><glyph d="M958 1212h-303l-225 365h412zM543 -20q-221 0 -349 100t-128 268q0 40 6 80l116 662h410l-109 -621q-4 -28 -4 -43q0 -59 30.5 -93t84.5 -34q63 0 111 47t61 123l109 621h409l-116 -662q-40 -224 -207 -336t-424 -112z" glyph-name="ugrave" horiz-adv-x="1286" unicode="ù"/><glyph d="M567 1212l244 365h412l-353 -365h-303zM543 -20q-221 0 -349 100t-128 268q0 40 6 80l116 662h410l-109 -621q-4 -28 -4 -43q0 -59 30.5 -93t84.5 -34q63 0 111 47t61 123l109 621h409l-116 -662q-40 -224 -207 -336t-424 -112z" glyph-name="uacute" horiz-adv-x="1286" unicode="ú"/><glyph d="M788 1372l-129 -160h-303l285 365h369l157 -365h-303l-71 160h-5zM881 1090h409l-116 -662q-40 -224 -207 -336t-424 -112q-221 0 -349 100t-128 268q0 40 6 80l116 662h410l-109 -621q-4 -28 -4 -43q0 -59 30.5 -93t84.5 -34q63 0 111 47t61 123z" glyph-name="ucircumflex" horiz-adv-x="1286" unicode="û"/><glyph d="M520 1210q-82 0 -130 46t-48 122q0 102 71 168t179 66q83 0 130.5 -45t47.5 -121q0 -101 -72 -168.5t-178 -67.5zM1006 1210q-82 0 -130.5 46t-48.5 122q0 102 71 168t179 66q83 0 130.5 -45t47.5 -121q0 -101 -71.5 -168.5t-177.5 -67.5zM543 -20q-221 0 -349 100 t-128 268q0 40 6 80l116 662h410l-109 -621q-4 -28 -4 -43q0 -59 30.5 -93t84.5 -34q63 0 111 47t61 123l109 621h409l-116 -662q-40 -224 -207 -336t-424 -112z" glyph-name="udieresis" horiz-adv-x="1286" unicode="ü"/><glyph d="M1206 1577l-352 -365h-303l244 365h411zM922 1090h421l-825 -1561h-393l186 358l-219 1203h416l80 -719h4z" glyph-name="yacute" horiz-adv-x="1245" unicode="ý"/><glyph d="M969 1110q167 0 262.5 -120t95.5 -322q0 -194 -73.5 -352t-201.5 -247t-284 -89q-111 0 -197.5 50.5t-117.5 133.5h-4l-113 -635h-410l361 2048h409l-114 -653h4q57 85 161.5 135.5t221.5 50.5zM662 299q103 0 171 85.5t68 213.5q0 89 -40 141t-111 52q-86 0 -151 -68 t-85 -178q-6 -34 -6 -64q0 -85 41 -133.5t113 -48.5z" glyph-name="thorn" horiz-adv-x="1374" unicode="þ"/><glyph d="M504 1210q-82 0 -130 46t-48 122q0 102 70.5 168t178.5 66q83 0 131 -45t48 -121q0 -101 -72 -168.5t-178 -67.5zM989 1210q-82 0 -130 46t-48 122q0 102 71 168t179 66q83 0 130.5 -45t47.5 -121q0 -101 -72 -168.5t-178 -67.5zM922 1090h421l-825 -1561h-393l186 358 l-219 1203h416l80 -719h4z" glyph-name="ydieresis" horiz-adv-x="1245" unicode="ÿ"/><glyph d="M1417 1982l-51 -292h-772l51 292h772zM1032 0l-43 305h-534l-152 -305h-424l848 1577h467l289 -1577h-451zM614 629h328l-72 506h-4z" glyph-name="Amacron" horiz-adv-x="1556" unicode="Ā"/><glyph d="M1270 1577l-51 -293h-773l52 293h772zM956 1090h410l-192 -1090h-410l29 164h-5q-60 -86 -158 -135t-224 -49q-167 0 -263 120t-96 322q0 194 73.5 352t201.5 247t284 89q113 0 200 -51t116 -135h4zM627 299q86 0 149.5 67.5t83.5 178.5q6 34 6 63q0 85 -40.5 134 t-112.5 49q-102 0 -171 -86t-69 -213q0 -89 40.5 -141t113.5 -52z" glyph-name="amacron" horiz-adv-x="1374" unicode="ā"/><glyph d="M977 1665q-149 0 -235.5 82.5t-86.5 222.5q0 26 7 70h262q-2 -10 -2 -27q0 -54 26 -85.5t70 -31.5q50 0 89 40t52 104h264q-35 -173 -151 -274t-295 -101zM1032 0l-43 305h-534l-152 -305h-424l848 1577h467l289 -1577h-451zM614 629h328l-72 506h-4z" glyph-name="Abreve" horiz-adv-x="1556" unicode="Ă"/><glyph d="M819 1202q-167 0 -253.5 103t-61.5 272h262q-8 -65 17.5 -104t76.5 -39q50 0 89 39.5t52 103.5h265q-34 -169 -157 -272t-290 -103zM956 1090h410l-192 -1090h-410l29 164h-5q-60 -86 -158 -135t-224 -49q-167 0 -263 120t-96 322q0 194 73.5 352t201.5 247t284 89 q113 0 200 -51t116 -135h4zM627 299q86 0 149.5 67.5t83.5 178.5q6 34 6 63q0 85 -40.5 134t-112.5 49q-102 0 -171 -86t-69 -213q0 -89 40.5 -141t113.5 -52z" glyph-name="abreve" horiz-adv-x="1374" unicode="ă"/><glyph d="M1266 -223q0 -22 14 -35.5t37 -13.5q62 0 125 39l-37 -211q-98 -48 -234 -48q-109 0 -173 46t-64 122q0 71 74 156t204 168h-180l-43 305h-534l-152 -305h-424l848 1577h467l289 -1577q-96 -59 -156.5 -120.5t-60.5 -102.5zM614 629h328l-72 506h-4z" glyph-name="Aogonek" horiz-adv-x="1554" unicode="Ą"/><glyph d="M1174 0q-97 -59 -157.5 -120.5t-60.5 -102.5q0 -22 14.5 -35.5t37.5 -13.5q62 0 125 39l-37 -211q-98 -48 -234 -48q-109 0 -173 46t-64 122q0 71 74 156t204 168h-139l29 164h-5q-60 -86 -158 -135t-224 -49q-167 0 -263 120t-96 322q0 194 73.5 352t201.5 247t284 89 q113 0 200 -51t116 -135h4l30 166h410zM627 299q86 0 149.5 67.5t83.5 178.5q6 34 6 63q0 85 -40.5 134t-112.5 49q-102 0 -171 -86t-69 -213q0 -89 40.5 -141t113.5 -52z" glyph-name="aogonek" horiz-adv-x="1374" unicode="ą"/><glyph d="M895 1675l244 365h411l-352 -365h-303zM791 -20q-204 0 -362 82.5t-245.5 234.5t-87.5 350q0 206 71.5 382.5t199 301t310.5 195.5t398 71q290 0 476 -153t186 -402q0 -21 -4 -71h-416q2 18 2 33q0 119 -81.5 189.5t-219.5 70.5q-132 0 -241 -74.5t-171.5 -207.5 t-62.5 -296q0 -169 82 -271t225 -102q147 0 257 79t144 208h416q-71 -283 -305.5 -451.5t-570.5 -168.5z" glyph-name="Cacute" horiz-adv-x="1703" unicode="Ć"/><glyph d="M584 1212l243 365h412l-352 -365h-303zM559 -20q-237 0 -375.5 128.5t-138.5 342.5q0 190 93 341t256 234.5t366 83.5q233 0 364 -126.5t131 -338.5h-399q0 67 -41.5 106.5t-112.5 39.5q-100 0 -167.5 -86t-67.5 -213q0 -87 39.5 -139t109.5 -52q71 0 127 36.5t76 96.5 h400q-60 -204 -242 -329t-418 -125z" glyph-name="cacute" horiz-adv-x="1280" unicode="ć"/><glyph d="M1092 1686q-90 0 -141.5 48.5t-51.5 129.5q0 107 75 175t191 68q89 0 141 -47.5t52 -126.5q0 -107 -76 -177t-190 -70zM791 -20q-204 0 -362 82.5t-245.5 234.5t-87.5 350q0 206 71.5 382.5t199 301t310.5 195.5t398 71q290 0 476 -153t186 -402q0 -21 -4 -71h-416 q2 18 2 33q0 119 -81.5 189.5t-219.5 70.5q-132 0 -241 -74.5t-171.5 -207.5t-62.5 -296q0 -169 82 -271t225 -102q147 0 257 79t144 208h416q-71 -283 -305.5 -451.5t-570.5 -168.5z" glyph-name="Cdotaccent" horiz-adv-x="1703" unicode="Ċ"/><glyph d="M778 1219q-90 0 -141 48.5t-51 129.5q0 107 75 175t191 68q88 0 140 -47.5t52 -126.5q0 -107 -76 -177t-190 -70zM559 -20q-237 0 -375.5 128.5t-138.5 342.5q0 190 93 341t256 234.5t366 83.5q233 0 364 -126.5t131 -338.5h-399q0 67 -41.5 106.5t-112.5 39.5 q-100 0 -167.5 -86t-67.5 -213q0 -87 39.5 -139t109.5 -52q71 0 127 36.5t76 96.5h400q-60 -204 -242 -329t-418 -125z" glyph-name="cdotaccent" horiz-adv-x="1280" unicode="ċ"/><glyph d="M907 1675l-157 365h303l71 -160h4l129 160h304l-285 -365h-369zM1733 971h-416q2 18 2 33q0 119 -81.5 189.5t-219.5 70.5q-132 0 -241 -74.5t-171.5 -207.5t-62.5 -296q0 -169 82 -271t225 -102q147 0 257 79t144 208h416q-71 -283 -305.5 -451.5t-570.5 -168.5 q-204 0 -362 82.5t-245.5 234.5t-87.5 350q0 206 71.5 382.5t199 301t310.5 195.5t398 71q290 0 476 -153t186 -402q0 -21 -4 -71z" glyph-name="Ccaron" horiz-adv-x="1703" unicode="Č"/><glyph d="M594 1212l-158 365h303l72 -160h4l129 160h303l-284 -365h-369zM616 301q71 0 127 36.5t76 96.5h400q-60 -204 -242 -329t-418 -125q-237 0 -375.5 128.5t-138.5 342.5q0 190 93 341t256 234.5t366 83.5q233 0 364 -126.5t131 -338.5h-399q0 67 -41.5 106.5t-112.5 39.5 q-100 0 -167.5 -86t-67.5 -213q0 -87 39.5 -139t109.5 -52z" glyph-name="ccaron" horiz-adv-x="1280" unicode="č"/><glyph d="M743 1675l-157 365h303l72 -160h4l129 160h303l-285 -365h-369zM887 1577q211 0 374.5 -81.5t254 -231t90.5 -344.5q0 -200 -73 -371t-203.5 -291.5t-316.5 -189t-405 -68.5h-573l278 1577h574zM686 326q132 0 239.5 72t169.5 201t62 288q0 166 -82 265t-225 99h-166 l-164 -925h166z" glyph-name="Dcaron" horiz-adv-x="1615" unicode="Ď"/><glyph d="M1665 1597l322 -79l-211 -467l-301 79zM926 924l116 653h410l-278 -1577h-410l29 164h-5q-60 -86 -158 -135t-224 -49q-167 0 -263 120t-96 322q0 194 73.5 352t201.5 247t284 89q113 0 200 -51t116 -135h4zM627 299q86 0 149.5 67.5t83.5 178.5q6 34 6 63 q0 85 -40.5 134t-112.5 49q-102 0 -171 -86t-69 -213q0 -89 40.5 -141t113.5 -52z" glyph-name="dcaron" horiz-adv-x="1652" unicode="ď"/><glyph d="M911 1577q211 0 374.5 -81.5t254 -231t90.5 -344.5q0 -200 -73 -371t-203 -291.5t-316 -189t-405 -68.5h-574l117 659h-121l49 283h121l113 635h573zM711 326q132 0 239.5 72t169.5 201t62 288q0 166 -82.5 265t-225.5 99h-165l-56 -309h289l-49 -283h-289l-59 -333h166z" glyph-name="Dcroat" horiz-adv-x="1640" unicode="Đ"/><glyph d="M1528 1473l-49 -283h-95l-210 -1190h-410l29 164h-5q-60 -86 -158 -135t-224 -49q-167 0 -263 120t-96 322q0 194 73.5 352t201.5 247t284 89q113 0 200 -51t116 -135h4l47 266h-332l49 283h334l18 104h410l-18 -104h94zM627 299q86 0 149.5 67.5t83.5 178.5q6 34 6 63 q0 85 -40.5 134t-112.5 49q-102 0 -171 -86t-69 -213q0 -89 40.5 -141t113.5 -52z" glyph-name="dcroat" horiz-adv-x="1374" unicode="đ"/><glyph d="M1378 1982l-51 -292h-772l51 292h772zM1464 1251h-782l-49 -284h706l-57 -326h-707l-55 -315h805l-57 -326h-1233l278 1577h1209z" glyph-name="Emacron" horiz-adv-x="1435" unicode="Ē"/><glyph d="M1225 1577l-51 -293h-773l52 293h772zM756 1110q231 0 364 -123.5t133 -333.5q0 -59 -12 -127l-8 -45h-791q0 -99 44 -159t120 -60q68 0 126.5 33.5t84.5 87.5h395q-66 -182 -246.5 -292.5t-410.5 -110.5q-235 0 -371.5 129t-136.5 344q0 189 92 339.5t254 234t363 83.5z M709 842q-74 0 -136 -48.5t-96 -131.5h383q-6 84 -45 132t-106 48z" glyph-name="emacron" horiz-adv-x="1298" unicode="ē"/><glyph d="M938 1686q-90 0 -141.5 48.5t-51.5 129.5q0 107 75.5 175t191.5 68q88 0 140 -47.5t52 -126.5q0 -107 -76 -177t-190 -70zM1464 1251h-782l-49 -284h706l-57 -326h-707l-55 -315h805l-57 -326h-1233l278 1577h1209z" glyph-name="Edotaccent" horiz-adv-x="1435" unicode="Ė"/><glyph d="M774 1219q-90 0 -141 48.5t-51 129.5q0 107 75 175t191 68q88 0 140 -47.5t52 -126.5q0 -107 -76 -177t-190 -70zM756 1110q231 0 364 -123.5t133 -333.5q0 -59 -12 -127l-8 -45h-791q0 -99 44 -159t120 -60q68 0 126.5 33.5t84.5 87.5h395q-66 -182 -246.5 -292.5 t-410.5 -110.5q-235 0 -371.5 129t-136.5 344q0 189 92 339.5t254 234t363 83.5zM709 842q-74 0 -136 -48.5t-96 -131.5h383q-6 84 -45 132t-106 48z" glyph-name="edotaccent" horiz-adv-x="1298" unicode="ė"/><glyph d="M1464 1251h-782l-49 -284h706l-57 -326h-707l-55 -315h805l-57 -326h-131q-96 -59 -156.5 -120.5t-60.5 -102.5q0 -22 14 -35.5t37 -13.5q62 0 125 39l-37 -211q-98 -48 -234 -48q-109 0 -173 46t-64 122q0 71 74 156t204 168h-831l278 1577h1209z" glyph-name="Eogonek" horiz-adv-x="1435" unicode="Ę"/><glyph d="M756 1110q231 0 364 -123.5t133 -333.5q0 -59 -12 -127l-8 -45h-791q0 -99 44 -159t120 -60q68 0 126.5 33.5t84.5 87.5h395q-52 -144 -178 -245t-295 -138q-96 -59 -156.5 -120.5t-60.5 -102.5q0 -22 14 -35.5t37 -13.5q62 0 125 39l-36 -211q-98 -48 -234 -48 q-109 0 -173.5 46t-64.5 122q0 68 69.5 150.5t189.5 161.5q-189 28 -295.5 152t-106.5 313t92 339.5t254 234t363 83.5zM709 842q-74 0 -136 -48.5t-96 -131.5h383q-6 84 -45 132t-106 48z" glyph-name="eogonek" horiz-adv-x="1298" unicode="ę"/><glyph d="M754 1675l-158 365h303l72 -160h4l129 160h303l-285 -365h-368zM1464 1251h-782l-49 -284h706l-57 -326h-707l-55 -315h805l-57 -326h-1233l278 1577h1209z" glyph-name="Ecaron" horiz-adv-x="1435" unicode="Ě"/><glyph d="M590 1212l-158 365h303l72 -160h4l129 160h303l-285 -365h-368zM756 1110q231 0 364 -123.5t133 -333.5q0 -59 -12 -127l-8 -45h-791q0 -99 44 -159t120 -60q68 0 126.5 33.5t84.5 87.5h395q-66 -182 -246.5 -292.5t-410.5 -110.5q-235 0 -371.5 129t-136.5 344 q0 189 92 339.5t254 234t363 83.5zM709 842q-74 0 -136 -48.5t-96 -131.5h383q-6 84 -45 132t-106 48z" glyph-name="ecaron" horiz-adv-x="1298" unicode="ě"/><glyph d="M1096 1665q-149 0 -235.5 82.5t-86.5 222.5q0 33 6 70h262q-2 -10 -2 -27q0 -54 26.5 -85.5t70.5 -31.5q50 0 89 40t52 104h264q-35 -173 -151 -274t-295 -101zM1729 991h-408v23q0 114 -82 182t-221 68q-132 0 -241 -74.5t-171.5 -207.5t-62.5 -296q0 -169 82 -271 t225 -102q135 0 239 72t150 195h-346l47 272h776l-16 -96q-61 -352 -305.5 -564t-603.5 -212q-204 0 -362 82.5t-245.5 234.5t-87.5 350q0 206 71.5 382.5t199 301t310.5 195.5t398 71q191 0 340 -66t233.5 -190t84.5 -286q0 -18 -4 -64z" glyph-name="Gbreve" horiz-adv-x="1728" unicode="Ğ"/><glyph d="M819 1202q-167 0 -253.5 103t-61.5 272h262q-8 -65 17.5 -104t76.5 -39q50 0 89 39.5t52 103.5h265q-34 -169 -157 -272t-290 -103zM956 1090h410l-192 -1090q-29 -164 -124.5 -276t-237 -164t-323.5 -52q-221 0 -353 106.5t-132 281.5v24h389v-2q5 -40 46.5 -65 t105.5 -25q85 0 144 42.5t71 111.5l33 182h-5q-60 -86 -158 -135t-224 -49q-167 0 -263 120t-96 322q0 194 73.5 352t201.5 247t284 89q113 0 200 -51t116 -135h4zM627 299q86 0 149.5 67.5t83.5 178.5q6 34 6 63q0 85 -40.5 134t-112.5 49q-102 0 -171 -86t-69 -213 q0 -89 40.5 -141t113.5 -52z" glyph-name="gbreve" horiz-adv-x="1374" unicode="ğ"/><glyph d="M1096 1686q-90 0 -141.5 48.5t-51.5 129.5q0 107 75 175t191 68q89 0 141 -47.5t52 -126.5q0 -107 -76 -177t-190 -70zM1729 991h-408v23q0 114 -82 182t-221 68q-132 0 -241 -74.5t-171.5 -207.5t-62.5 -296q0 -169 82 -271t225 -102q135 0 239 72t150 195h-346l47 272 h776l-16 -96q-61 -352 -305.5 -564t-603.5 -212q-204 0 -362 82.5t-245.5 234.5t-87.5 350q0 206 71.5 382.5t199 301t310.5 195.5t398 71q191 0 340 -66t233.5 -190t84.5 -286q0 -18 -4 -64z" glyph-name="Gdotaccent" horiz-adv-x="1728" unicode="Ġ"/><glyph d="M819 1219q-90 0 -141 48.5t-51 129.5q0 107 75 175t191 68q88 0 140 -47.5t52 -126.5q0 -107 -76 -177t-190 -70zM956 1090h410l-192 -1090q-29 -164 -124.5 -276t-237 -164t-323.5 -52q-221 0 -353 106.5t-132 281.5v24h389v-2q5 -40 46.5 -65t105.5 -25q85 0 144 42.5 t71 111.5l33 182h-5q-60 -86 -158 -135t-224 -49q-167 0 -263 120t-96 322q0 194 73.5 352t201.5 247t284 89q113 0 200 -51t116 -135h4zM627 299q86 0 149.5 67.5t83.5 178.5q6 34 6 63q0 85 -40.5 134t-112.5 49q-102 0 -171 -86t-69 -213q0 -89 40.5 -141t113.5 -52z" glyph-name="gdotaccent" horiz-adv-x="1374" unicode="ġ"/><glyph d="M1729 991h-408v23q0 114 -82 182t-221 68q-132 0 -241 -74.5t-171.5 -207.5t-62.5 -296q0 -169 82 -271t225 -102q135 0 239 72t150 195h-346l47 272h776l-16 -96q-61 -352 -305.5 -564t-603.5 -212q-204 0 -362 82.5t-245.5 234.5t-87.5 350q0 206 71.5 382.5t199 301 t310.5 195.5t398 71q191 0 340 -66t233.5 -190t84.5 -286q0 -18 -4 -64zM782 -88q88 0 131.5 -59t26.5 -154q-25 -139 -129.5 -227.5t-251.5 -94.5l-2 68q84 3 149.5 41t98.5 102q-59 -30 -117 -30q-64 0 -100.5 36t-36.5 95q0 95 66 159t165 64z" glyph-name="Gcommaaccent" horiz-adv-x="1728" unicode="Ģ"/><glyph d="M819 1221q-88 0 -131 57.5t-26 151.5q22 126 126 205.5t252 84.5l9 -73q-179 0 -248 -129q58 22 106 22q64 0 102 -35t38 -94q0 -84 -64.5 -137t-163.5 -53zM956 1090h410l-192 -1090q-29 -164 -124.5 -276t-237 -164t-323.5 -52q-221 0 -353 106.5t-132 281.5v24h389v-2 q5 -40 46.5 -65t105.5 -25q85 0 144 42.5t71 111.5l33 182h-5q-60 -86 -158 -135t-224 -49q-167 0 -263 120t-96 322q0 194 73.5 352t201.5 247t284 89q113 0 200 -51t116 -135h4zM627 299q86 0 149.5 67.5t83.5 178.5q6 34 6 63q0 85 -40.5 134t-112.5 49q-102 0 -171 -86 t-69 -213q0 -89 40.5 -141t113.5 -52z" glyph-name="gcommaaccent" horiz-adv-x="1374" unicode="ģ"/><glyph d="M1837 1425l-51 -284h-133l-201 -1141h-428l113 635h-531l-112 -635h-428l200 1141h-129l51 284h129l27 152h428l-27 -152h531l27 152h428l-27 -152h133zM1194 961l31 180h-531l-30 -180h530z" glyph-name="Hbar" horiz-adv-x="1714" unicode="Ħ"/><glyph d="M985 1110q130 0 205.5 -82t75.5 -221q0 -36 -11 -100l-125 -707h-409l110 627q5 35 5 39q0 57 -32 91t-87 34q-72 0 -125 -52t-68 -137l-106 -602h-410l211 1190h-104l49 283h104l19 104h409l-18 -104h323l-49 -283h-323l-47 -266h4q66 84 175.5 135t223.5 51z" glyph-name="hbar" horiz-adv-x="1323" unicode="ħ"/><glyph d="M162 1690l51 292h772l-51 -292h-772zM35 0l278 1577h428l-278 -1577h-428z" glyph-name="Imacron" horiz-adv-x="692" unicode="Ī"/><glyph d="M160 1536h649l-51 -293h-649zM8 0l193 1090h409l-192 -1090h-410z" glyph-name="imacron" horiz-adv-x="618" unicode="ī"/><glyph d="M463 0q-96 -59 -156.5 -120.5t-60.5 -102.5q0 -22 14 -35.5t37 -13.5q62 0 125 39l-37 -211q-98 -48 -233 -48q-109 0 -173.5 46t-64.5 122q0 71 74.5 156t204.5 168h-158l278 1577h428z" glyph-name="Iogonek" horiz-adv-x="692" unicode="Į"/><glyph d="M500 1640q88 0 140 -47.5t52 -126.5q0 -107 -76 -177t-190 -70q-90 0 -141.5 48.5t-51.5 129.5q0 107 75.5 175t191.5 68zM8 0l193 1090h409l-192 -1090q-96 -59 -156.5 -120.5t-60.5 -102.5q0 -22 14 -35.5t37 -13.5q62 0 125 39l-37 -211q-98 -48 -234 -48 q-109 0 -173 46t-64 122q0 71 74 156t204 168h-139z" glyph-name="iogonek" horiz-adv-x="618" unicode="į"/><glyph d="M545 1686q-90 0 -141.5 48.5t-51.5 129.5q0 107 75 175t191 68q89 0 141 -47.5t52 -126.5q0 -107 -76 -177t-190 -70zM35 0l278 1577h428l-278 -1577h-428z" glyph-name="Idotaccent" horiz-adv-x="692" unicode="İ"/><glyph d="M8 0l193 1090h409l-192 -1090h-410z" glyph-name="dotlessi" horiz-adv-x="618" unicode="ı"/><glyph d="M741 1577l-278 -1577h-428l278 1577h428zM1661 1577l-555 -723l375 -854h-488l-360 821l545 756h483zM670 -88q88 0 131 -59t26 -154q-25 -139 -129.5 -227.5t-251.5 -94.5l-2 68q84 3 149.5 41t98.5 102q-58 -30 -117 -30q-64 0 -100.5 36t-36.5 95q0 95 66 159t166 64z" glyph-name="Kcommaaccent" horiz-adv-x="1523" unicode="Ķ"/><glyph d="M696 1577l-278 -1577h-410l279 1577h409zM1401 1090l-422 -490l299 -600h-465l-272 586l407 504h453zM580 -88q88 0 131 -59t26 -154q-25 -139 -129.5 -227.5t-251.5 -94.5l-2 68q84 3 149.5 41t98.5 102q-58 -30 -117 -30q-64 0 -100.5 36t-36.5 95q0 95 66 159t166 64z" glyph-name="kcommaaccent" horiz-adv-x="1333" unicode="ķ"/><glyph d="M1004 2040l-353 -365h-303l244 365h412zM522 338h662l-60 -338h-1089l278 1577h428z" glyph-name="Lacute" horiz-adv-x="1247" unicode="Ĺ"/><glyph d="M313 1675l244 365h412l-353 -365h-303zM8 0l279 1577h409l-278 -1577h-410z" glyph-name="lacute" horiz-adv-x="618" unicode="ĺ"/><glyph d="M522 338h662l-60 -338h-1089l278 1577h428zM541 -88q88 0 131 -59t26 -154q-25 -139 -129.5 -227.5t-251.5 -94.5l-2 68q84 3 149.5 41t98.5 102q-58 -30 -117 -30q-64 0 -100.5 36t-36.5 95q0 95 66 159t166 64z" glyph-name="Lcommaaccent" horiz-adv-x="1247" unicode="Ļ"/><glyph d="M287 1577h409l-278 -1577h-410zM197 -88q88 0 131 -59t26 -154q-25 -139 -129.5 -227.5t-251.5 -94.5l-2 68q84 3 149.5 41t98.5 102q-59 -30 -117 -30q-64 0 -100.5 36t-36.5 95q0 95 66 159t166 64z" glyph-name="lcommaaccent" horiz-adv-x="618" unicode="ļ"/><glyph d="M1366 1518l-211 -467l-301 79l190 467zM741 1577l-219 -1239h662l-60 -338h-1089l278 1577h428z" glyph-name="Lcaron" horiz-adv-x="1277" unicode="Ľ"/><glyph d="M979 1051l-301 79l190 467l322 -79zM8 0l279 1577h409l-278 -1577h-410z" glyph-name="lcaron" horiz-adv-x="856" unicode="ľ"/><glyph d="M563 338h662l-60 -338h-1089l88 504l-141 -43l55 315l143 43l133 758h428l-114 -643l397 135l-55 -313l-398 -135z" glyph-name="Lslash" horiz-adv-x="1288" unicode="Ł"/><glyph d="M776 1069l-53 -303l-117 -51l-127 -715h-409l98 555l-119 -51l53 305l119 51l127 717h410l-99 -559z" glyph-name="lslash" horiz-adv-x="747" unicode="ł"/><glyph d="M1485 2040l-352 -365h-304l244 365h412zM1294 1577h406l-279 -1577h-397l-430 922h-4l-150 -922h-405l278 1577h398l428 -924h4z" glyph-name="Nacute" horiz-adv-x="1650" unicode="Ń"/><glyph d="M1247 1577l-352 -365h-303l244 365h411zM985 1110q130 0 205.5 -82t75.5 -221q0 -36 -11 -100l-125 -707h-409l110 627q5 35 5 39q0 57 -32 91t-87 34q-72 0 -125 -52t-68 -137l-106 -602h-410l193 1090h409l-28 -166h4q66 84 175.5 135t223.5 51z" glyph-name="nacute" horiz-adv-x="1323" unicode="ń"/><glyph d="M1294 1577h406l-279 -1577h-397l-430 922h-4l-150 -922h-405l278 1577h398l428 -924h4zM713 -88q88 0 131 -59t26 -154q-25 -139 -129.5 -227.5t-251.5 -94.5l-2 68q84 3 149.5 41t98.5 102q-59 -30 -117 -30q-64 0 -100.5 36t-36.5 95q0 95 66 159t166 64z" glyph-name="Ncommaaccent" horiz-adv-x="1650" unicode="Ņ"/><glyph d="M985 1110q130 0 205.5 -82t75.5 -221q0 -36 -11 -100l-125 -707h-409l110 627q5 35 5 39q0 57 -32 91t-87 34q-72 0 -125 -52t-68 -137l-106 -602h-410l193 1090h409l-28 -166h4q66 84 175.5 135t223.5 51zM555 -88q88 0 131.5 -59t26.5 -154q-25 -139 -129.5 -227.5 t-251.5 -94.5l-2 68q84 3 149.5 41t98.5 102q-59 -30 -117 -30q-64 0 -100.5 36t-36.5 95q0 95 66 159t165 64z" glyph-name="ncommaaccent" horiz-adv-x="1323" unicode="ņ"/><glyph d="M842 1675l-158 365h303l72 -160h4l129 160h303l-285 -365h-368zM1294 1577h406l-279 -1577h-397l-430 922h-4l-150 -922h-405l278 1577h398l428 -924h4z" glyph-name="Ncaron" horiz-adv-x="1650" unicode="Ň"/><glyph d="M602 1212l-158 365h304l71 -160h4l129 160h303l-284 -365h-369zM985 1110q130 0 205.5 -82t75.5 -221q0 -36 -11 -100l-125 -707h-409l110 627q5 35 5 39q0 57 -32 91t-87 34q-72 0 -125 -52t-68 -137l-106 -602h-410l193 1090h409l-28 -166h4q66 84 175.5 135t223.5 51z" glyph-name="ncaron" horiz-adv-x="1323" unicode="ň"/><glyph d="M1294 1577h406l-279 -1577l-2 -12q-37 -217 -202 -348.5t-398 -131.5q-150 0 -268 41l139 322q57 -31 141 -31q60 0 105 44t57 114l8 47l-407 877h-4l-150 -922h-405l278 1577h398l428 -924h4z" glyph-name="Eng" horiz-adv-x="1650" unicode="Ŋ"/><glyph d="M985 1110q130 0 205.5 -82t75.5 -221q0 -36 -11 -100l-127 -730q-39 -228 -184 -348.5t-356 -120.5q-91 0 -176.5 22t-135.5 58l134 283q57 -41 127 -41t120 42.5t62 111.5l112 643q5 35 5 39q0 57 -32 91t-87 34q-72 0 -125 -52t-68 -137l-106 -602h-410l193 1090h409 l-28 -166h4q66 84 175.5 135t223.5 51z" glyph-name="eng" horiz-adv-x="1323" unicode="ŋ"/><glyph d="M707 1690l51 292h772l-51 -292h-772zM791 -20q-312 0 -504.5 184t-192.5 485q0 205 72 381t200 301t311 195.5t398 70.5q312 0 504.5 -184t192.5 -485q0 -205 -72 -381t-200 -301t-311 -195.5t-398 -70.5zM850 313q132 0 241 74.5t171.5 207.5t62.5 296q0 169 -82 271 t-225 102q-203 0 -340 -165t-137 -413q0 -170 82.5 -271.5t226.5 -101.5z" glyph-name="Omacron" horiz-adv-x="1779" unicode="Ō"/><glyph d="M410 1284l51 293h772l-51 -293h-772zM563 -20q-240 0 -379 128.5t-139 342.5q0 190 93.5 341t257.5 234.5t368 83.5q240 0 379 -128.5t139 -342.5q0 -190 -93.5 -341t-257.5 -234.5t-368 -83.5zM621 301q102 0 170.5 85t68.5 212q0 88 -41 140.5t-112 52.5 q-102 0 -171 -86t-69 -213q0 -87 41.5 -139t112.5 -52z" glyph-name="omacron" horiz-adv-x="1327" unicode="ō"/><glyph d="M692 1675l223 365h412l-332 -365h-303zM1149 1675l223 365h412l-332 -365h-303zM791 -20q-312 0 -504.5 184t-192.5 485q0 205 72 381t200 301t311 195.5t398 70.5q312 0 504.5 -184t192.5 -485q0 -205 -72 -381t-200 -301t-311 -195.5t-398 -70.5zM850 313 q132 0 241 74.5t171.5 207.5t62.5 296q0 169 -82 271t-225 102q-203 0 -340 -165t-137 -413q0 -170 82.5 -271.5t226.5 -101.5z" glyph-name="Ohungarumlaut" horiz-adv-x="1779" unicode="Ő"/><glyph d="M387 1212l223 365h412l-332 -365h-303zM844 1212l223 365h412l-332 -365h-303zM563 -20q-240 0 -379 128.5t-139 342.5q0 190 93.5 341t257.5 234.5t368 83.5q240 0 379 -128.5t139 -342.5q0 -190 -93.5 -341t-257.5 -234.5t-368 -83.5zM621 301q102 0 170.5 85t68.5 212 q0 88 -41 140.5t-112 52.5q-102 0 -171 -86t-69 -213q0 -87 41.5 -139t112.5 -52z" glyph-name="ohungarumlaut" horiz-adv-x="1327" unicode="ő"/><glyph d="M2568 1251h-758l-51 -284h686l-57 -326h-686l-53 -315h778l-57 -326h-1149l36 205h-6q-108 -111 -235 -168t-289 -57q-281 0 -456 181t-175 476q0 277 115.5 495.5t324.5 341.5t476 123q139 0 259 -59.5t187 -165.5h4l37 205h1127zM846 313q130 0 237 75t168.5 208.5 t61.5 296.5q0 168 -80 269.5t-219 101.5q-130 0 -237.5 -74.5t-169.5 -207.5t-62 -296q0 -170 80 -271.5t221 -101.5z" glyph-name="OE" horiz-adv-x="2539" unicode="Œ"/><glyph d="M1561 1110q210 0 330 -120.5t120 -327.5q0 -66 -12 -136l-8 -45h-774v-16q0 -203 163 -203q62 0 117 33.5t80 87.5h393q-63 -181 -230 -292t-378 -111q-134 0 -232 52t-151 148h-4q-89 -96 -207 -148t-254 -52q-218 0 -343.5 126t-125.5 338q0 143 51 267.5t140 211.5 t212.5 137t264.5 50q136 0 236 -52t155 -147h4q88 95 204 147t249 52zM1475 842q-70 0 -129 -48t-93 -132h365q-5 85 -42 132.5t-101 47.5zM612 301q97 0 163.5 86.5t66.5 214.5q0 86 -38.5 137.5t-105.5 51.5q-98 0 -164.5 -86.5t-66.5 -215.5q0 -86 38.5 -137t106.5 -51z" glyph-name="oe" horiz-adv-x="2056" unicode="œ"/><glyph d="M1343 2040l-352 -365h-303l244 365h411zM1559 1169q0 -168 -96.5 -300t-268.5 -203l229 -666h-475l-178 596h-203l-104 -596h-428l278 1577h668q166 0 297.5 -50.5t206 -144t74.5 -213.5zM682 1251l-61 -350h260q97 0 161 57.5t64 147.5q0 65 -44.5 105t-119.5 40h-260z" glyph-name="Racute" horiz-adv-x="1548" unicode="Ŕ"/><glyph d="M1077 1577l-352 -365h-303l244 365h411zM575 868q52 109 149.5 175.5t203.5 66.5q67 0 119 -20l-66 -371q-76 37 -188 37q-109 0 -189.5 -80.5t-103.5 -212.5l-82 -463h-410l193 1090h409l-39 -222h4z" glyph-name="racute" horiz-adv-x="976" unicode="ŕ"/><glyph d="M1559 1169q0 -168 -96.5 -300t-268.5 -203l229 -666h-475l-178 596h-203l-104 -596h-428l278 1577h668q166 0 297.5 -50.5t206 -144t74.5 -213.5zM682 1251l-61 -350h260q97 0 161 57.5t64 147.5q0 65 -44.5 105t-119.5 40h-260zM635 -88q88 0 131.5 -59t26.5 -154 q-25 -139 -129.5 -227.5t-251.5 -94.5l-2 68q84 3 149 41t98 102q-59 -30 -116 -30q-64 0 -101 36t-37 95q0 95 66 159t166 64z" glyph-name="Rcommaaccent" horiz-adv-x="1548" unicode="Ŗ"/><glyph d="M928 1110q67 0 119 -20l-66 -371q-76 37 -188 37q-109 0 -189.5 -80.5t-103.5 -212.5l-82 -463h-410l193 1090h409l-39 -222h4q52 109 149.5 175.5t203.5 66.5zM188 -88q88 0 131.5 -59t26.5 -154q-25 -139 -129.5 -227.5t-251.5 -94.5l-2 68q84 3 149.5 41t98.5 102 q-59 -30 -117 -30q-64 0 -100.5 36t-36.5 95q0 95 66 159t165 64z" glyph-name="rcommaaccent" horiz-adv-x="976" unicode="ŗ"/><glyph d="M700 1675l-157 365h303l72 -160h4l129 160h303l-285 -365h-369zM1559 1169q0 -168 -96.5 -300t-268.5 -203l229 -666h-475l-178 596h-203l-104 -596h-428l278 1577h668q166 0 297.5 -50.5t206 -144t74.5 -213.5zM682 1251l-61 -350h260q97 0 161 57.5t64 147.5 q0 65 -44.5 105t-119.5 40h-260z" glyph-name="Rcaron" horiz-adv-x="1548" unicode="Ř"/><glyph d="M432 1212l-158 365h304l71 -160h4l129 160h303l-284 -365h-369zM575 868q52 109 149.5 175.5t203.5 66.5q67 0 119 -20l-66 -371q-76 37 -188 37q-109 0 -189.5 -80.5t-103.5 -212.5l-82 -463h-410l193 1090h409l-39 -222h4z" glyph-name="rcaron" horiz-adv-x="976" unicode="ř"/><glyph d="M750 1675l243 365h412l-352 -365h-303zM645 -20q-264 0 -434 138t-170 361q0 35 2 53h422v-18q0 -91 67.5 -146t182.5 -55q121 0 198.5 49t77.5 127q0 25 -10 45.5t-33 35t-46 24.5t-62.5 19t-69 14t-78.5 12q-59 8 -102.5 16t-100.5 23t-97.5 33t-83.5 47t-69.5 65 t-43.5 86t-17 111q0 257 207 417t547 160q241 0 397 -131.5t156 -345.5q0 -35 -2 -51h-422q2 10 2 29q0 75 -58 120.5t-157 45.5q-98 0 -160.5 -43t-62.5 -109q0 -32 21 -55t64 -38t87.5 -24t111.5 -18q59 -8 105 -16.5t103.5 -24t101 -34.5t87 -49t71.5 -66.5t45.5 -87 t17.5 -111.5q0 -176 -98 -314t-279.5 -216t-417.5 -78z" glyph-name="Sacute" horiz-adv-x="1499" unicode="Ś"/><glyph d="M506 1212l244 365h411l-352 -365h-303zM481 -20q-219 0 -348 87.5t-129 233.5q0 19 2 35h377v-12q0 -46 38 -73.5t103 -27.5q73 0 120.5 29.5t47.5 75.5q0 22 -15.5 38t-48.5 26.5t-63.5 16.5t-81.5 13q-60 9 -106 19t-101 32t-91 50.5t-60.5 76t-24.5 107.5 q0 180 163 291.5t419 111.5q207 0 330 -83.5t123 -223.5q0 -25 -2 -37h-377v12q0 42 -31 67t-86 25q-60 0 -98.5 -22.5t-38.5 -59.5q0 -38 53 -58t152 -34q61 -10 107 -20.5t102 -32.5t92 -50.5t61 -75.5t25 -107q0 -124 -78.5 -222.5t-218.5 -153t-316 -54.5z" glyph-name="sacute" horiz-adv-x="1173" unicode="ś"/><glyph d="M1483 1069h-422q2 10 2 29q0 75 -58 120.5t-157 45.5q-98 0 -160.5 -43t-62.5 -109q0 -32 21 -55t64 -38t87.5 -24t111.5 -18q59 -8 105 -16.5t103.5 -24t101 -34.5t87 -49t71.5 -66.5t45.5 -87t17.5 -111.5q0 -253 -196.5 -420t-522.5 -186l-66 -82l2 -2q31 8 62 8 q85 0 133.5 -41t48.5 -109q0 -110 -104 -179t-267 -69q-149 0 -233 48l25 143q90 -51 180 -51q63 0 103 22.5t40 57.5q0 47 -53 47q-45 0 -80 -35l-96 74l123 172q-223 28 -360.5 161.5t-137.5 331.5q0 35 2 53h422v-18q0 -91 67.5 -146t182.5 -55q121 0 198.5 49t77.5 127 q0 25 -10 45.5t-33 35t-46 24.5t-62.5 19t-69 14t-78.5 12q-59 8 -102.5 16t-100.5 23t-97.5 33t-83.5 47t-69.5 65t-43.5 86t-17 111q0 257 207 417t547 160q241 0 397 -131.5t156 -345.5q0 -35 -2 -51z" glyph-name="Scedilla" horiz-adv-x="1499" unicode="Ş"/><glyph d="M1133 766h-377v12q0 42 -31 67t-86 25q-60 0 -98.5 -22.5t-38.5 -59.5q0 -38 53 -58t152 -34q61 -10 107 -20.5t102 -32.5t92 -50.5t61 -75.5t25 -107q0 -174 -149.5 -291.5t-387.5 -136.5l-65 -82l2 -2q31 8 61 8q85 0 133.5 -41t48.5 -109q0 -110 -103.5 -179 t-266.5 -69q-68 0 -132 13t-102 35l25 143q90 -51 180 -51q63 0 103 22.5t40 57.5q0 47 -53 47q-45 0 -80 -35l-96 74l121 172q-172 22 -270.5 105.5t-98.5 209.5q0 19 2 35h377v-12q0 -46 38 -73.5t103 -27.5q73 0 120.5 29.5t47.5 75.5q0 22 -15.5 38t-48.5 26.5 t-63.5 16.5t-81.5 13q-60 9 -106 19t-101 32t-91 50.5t-60.5 76t-24.5 107.5q0 180 163 291.5t419 111.5q207 0 330 -83.5t123 -223.5q0 -25 -2 -37z" glyph-name="scedilla" horiz-adv-x="1173" unicode="ş"/><glyph d="M762 1675l-158 365h303l72 -160h4l129 160h303l-285 -365h-368zM1483 1069h-422q2 10 2 29q0 75 -58 120.5t-157 45.5q-98 0 -160.5 -43t-62.5 -109q0 -32 21 -55t64 -38t87.5 -24t111.5 -18q59 -8 105 -16.5t103.5 -24t101 -34.5t87 -49t71.5 -66.5t45.5 -87 t17.5 -111.5q0 -176 -98 -314t-279.5 -216t-417.5 -78q-264 0 -434 138t-170 361q0 35 2 53h422v-18q0 -91 67.5 -146t182.5 -55q121 0 198.5 49t77.5 127q0 25 -10 45.5t-33 35t-46 24.5t-62.5 19t-69 14t-78.5 12q-59 8 -102.5 16t-100.5 23t-97.5 33t-83.5 47t-69.5 65 t-43.5 86t-17 111q0 257 207 417t547 160q241 0 397 -131.5t156 -345.5q0 -35 -2 -51z" glyph-name="Scaron" horiz-adv-x="1499" unicode="Š"/><glyph d="M516 1212l-158 365h304l71 -160h4l129 160h303l-284 -365h-369zM682 1110q207 0 330 -83.5t123 -223.5q0 -25 -2 -37h-377v12q0 42 -31 67t-86 25q-60 0 -98.5 -22.5t-38.5 -59.5q0 -38 53 -58t152 -34q61 -10 107 -20.5t102 -32.5t92 -50.5t61 -75.5t25 -107 q0 -124 -78.5 -222.5t-218.5 -153t-316 -54.5q-219 0 -348 87.5t-129 233.5q0 19 2 35h377v-12q0 -46 38 -73.5t103 -27.5q73 0 120.5 29.5t47.5 75.5q0 22 -15.5 38t-48.5 26.5t-63.5 16.5t-81.5 13q-60 9 -106 19t-101 32t-91 50.5t-60.5 76t-24.5 107.5q0 180 163 291.5 t419 111.5z" glyph-name="scaron" horiz-adv-x="1173" unicode="š"/><glyph d="M788 0h-129l-79 -100l2 -2q31 8 61 8q85 0 133.5 -41t48.5 -109q0 -110 -103.5 -179t-266.5 -69q-68 0 -132 13t-102 35l25 143q90 -51 180 -51q63 0 103 22.5t40 57.5q0 47 -53 47q-45 0 -80 -35l-96 74l131 186h-111l222 1251h-432l57 326h1292l-57 -326h-432z" glyph-name="uni0162" horiz-adv-x="1345" unicode="Ţ"/><glyph d="M637 807l-74 -416q-2 -10 -2 -18q0 -42 36 -67t97 -25q82 0 148 32l-49 -278q-133 -55 -283 -55q-48 0 -92 6l-70 -86l2 -2q31 8 62 8q85 0 133.5 -41t48.5 -109q0 -110 -104 -179t-267 -69q-149 0 -233 48l24 143q90 -51 181 -51q63 0 103 22.5t40 57.5q0 47 -53 47 q-45 0 -80 -35l-96 74l159 225q-129 83 -129 240q0 33 6 67l82 461h-157l49 283h180l53 309h389l-55 -309h291l-49 -283h-291z" glyph-name="uni0163" horiz-adv-x="925" unicode="ţ"/><glyph d="M684 1675l-158 365h303l72 -160h4l129 160h303l-284 -365h-369zM1499 1577l-57 -326h-432l-222 -1251h-428l222 1251h-432l57 326h1292z" glyph-name="Tcaron" horiz-adv-x="1345" unicode="Ť"/><glyph d="M1018 1700l321 -80l-211 -467l-301 80zM741 1399l-55 -309h291l-49 -283h-291l-74 -416q-2 -10 -2 -18q0 -42 36 -67t97 -25q82 0 148 32l-49 -278q-133 -55 -283 -55q-171 0 -271 81t-100 218q0 33 6 67l82 461h-157l49 283h180l53 309h389z" glyph-name="tcaron" horiz-adv-x="925" unicode="ť"/><glyph d="M1462 1251h-432l-65 -368h292l-59 -283h-283l-106 -600h-428l106 600h-294l59 283h285l65 368h-432l57 326h1293z" glyph-name="Tbar" horiz-adv-x="1388" unicode="Ŧ"/><glyph d="M950 807h-291l-18 -100h291l-49 -283h-291l-6 -33q-2 -10 -2 -18q0 -42 36 -67t97 -25q81 0 147 32l-49 -278q-133 -55 -283 -55q-171 0 -270.5 81t-99.5 218q0 33 6 67l14 78h-157l49 283h157l19 100h-158l49 283h181l53 309h389l-55 -309h290z" glyph-name="tbar" horiz-adv-x="958" unicode="ŧ"/><glyph d="M614 1690l52 292h772l-52 -292h-772zM686 -20q-254 0 -413.5 134t-159.5 355q0 63 10 119l174 989h428l-178 -1008q-4 -18 -4 -55q0 -93 57 -147t156 -54q114 0 196.5 70.5t102.5 185.5l178 1008h405l-174 -989q-53 -301 -254.5 -454.5t-523.5 -153.5z" glyph-name="Umacron" horiz-adv-x="1574" unicode="Ū"/><glyph d="M389 1284l51 293h772l-51 -293h-772zM543 -20q-221 0 -349 100t-128 268q0 40 6 80l116 662h410l-109 -621q-4 -28 -4 -43q0 -59 30.5 -93t84.5 -34q63 0 111 47t61 123l109 621h409l-116 -662q-40 -224 -207 -336t-424 -112z" glyph-name="umacron" horiz-adv-x="1286" unicode="ū"/><glyph d="M995 1663q-120 0 -189 60t-69 161q0 133 98.5 218t251.5 85q119 0 187.5 -60t68.5 -161q0 -133 -98.5 -218t-249.5 -85zM1024 1833q44 0 73 32t29 79q0 34 -18 53.5t-51 19.5q-44 0 -73.5 -31.5t-29.5 -78.5q0 -34 19 -54t51 -20zM686 -20q-254 0 -413.5 134t-159.5 355 q0 63 10 119l174 989h428l-178 -1008q-4 -18 -4 -55q0 -93 57 -147t156 -54q114 0 196.5 70.5t102.5 185.5l178 1008h405l-174 -989q-53 -301 -254.5 -454.5t-523.5 -153.5z" glyph-name="Uring" horiz-adv-x="1574" unicode="Ů"/><glyph d="M756 1176q-120 0 -189 60t-69 161q0 133 98.5 218t251.5 85q119 0 187.5 -60t68.5 -161q0 -133 -98.5 -218t-249.5 -85zM784 1346q44 0 73.5 31.5t29.5 78.5q0 34 -18.5 54t-51.5 20q-44 0 -73 -32t-29 -79q0 -34 18.5 -53.5t50.5 -19.5zM543 -20q-221 0 -349 100 t-128 268q0 40 6 80l116 662h410l-109 -621q-4 -28 -4 -43q0 -59 30.5 -93t84.5 -34q63 0 111 47t61 123l109 621h409l-116 -662q-40 -224 -207 -336t-424 -112z" glyph-name="uring" horiz-adv-x="1286" unicode="ů"/><glyph d="M600 1675l223 365h412l-332 -365h-303zM1057 1675l223 365h412l-332 -365h-303zM686 -20q-254 0 -413.5 134t-159.5 355q0 63 10 119l174 989h428l-178 -1008q-4 -18 -4 -55q0 -93 57 -147t156 -54q114 0 196.5 70.5t102.5 185.5l178 1008h405l-174 -989 q-53 -301 -254.5 -454.5t-523.5 -153.5z" glyph-name="Uhungarumlaut" horiz-adv-x="1574" unicode="Ű"/><glyph d="M367 1212l223 365h411l-331 -365h-303zM823 1212l224 365h411l-332 -365h-303zM543 -20q-221 0 -349 100t-128 268q0 40 6 80l116 662h410l-109 -621q-4 -28 -4 -43q0 -59 30.5 -93t84.5 -34q63 0 111 47t61 123l109 621h409l-116 -662q-40 -224 -207 -336t-424 -112z" glyph-name="uhungarumlaut" horiz-adv-x="1286" unicode="ű"/><glyph d="M1233 1577h405l-174 -989q-44 -247 -189.5 -396t-377.5 -194q-96 -59 -155.5 -119.5t-59.5 -101.5q0 -22 14 -35.5t37 -13.5q62 0 125 39l-37 -211q-98 -48 -233 -48q-109 0 -173.5 46t-64.5 122q0 68 67.5 148t186.5 160q-222 22 -356.5 152.5t-134.5 332.5q0 63 10 119 l174 989h428l-178 -1008q-4 -18 -4 -55q0 -93 57 -147t156 -54q114 0 196.5 70.5t102.5 185.5z" glyph-name="Uogonek" horiz-adv-x="1574" unicode="Ų"/><glyph d="M881 1090h409l-116 -662q-31 -177 -143 -284.5t-286 -143.5q-96 -59 -156.5 -120.5t-60.5 -102.5q0 -22 14.5 -35.5t37.5 -13.5q62 0 125 39l-37 -211q-98 -48 -234 -48q-109 0 -173 46t-64 122q0 68 67.5 149t186.5 159q-181 22 -283 118.5t-102 245.5q0 40 6 80 l116 662h410l-109 -621q-4 -28 -4 -43q0 -59 30.5 -93t84.5 -34q63 0 111 47t61 123z" glyph-name="uogonek" horiz-adv-x="1286" unicode="ų"/><glyph d="M1352 1835l-129 -160h-303l284 365h369l158 -365h-304l-71 160h-4zM1985 1577h423l-673 -1577h-506l-29 1032h-4l-391 -1032h-508l-115 1577h441l43 -1114h4l420 1114h432l32 -1114h5z" glyph-name="Wcircumflex" horiz-adv-x="2226" unicode="Ŵ"/><glyph d="M1026 1372l-129 -160h-303l285 365h368l158 -365h-303l-72 160h-4zM1444 1090h414l-527 -1090h-411l-19 655h-4l-242 -655h-417l-144 1090h404l39 -658h4l247 658h386l18 -658h4z" glyph-name="wcircumflex" horiz-adv-x="1761" unicode="ŵ"/><glyph d="M1028 1835l-129 -160h-303l285 365h368l158 -365h-303l-72 160h-4zM1780 1577l-793 -1051l-94 -526h-428l94 537l-405 1040h479l221 -666h4l453 666h469z" glyph-name="Ycircumflex" horiz-adv-x="1558" unicode="Ŷ"/><glyph d="M772 1372l-129 -160h-303l285 365h368l158 -365h-303l-72 160h-4zM922 1090h421l-825 -1561h-393l186 358l-219 1203h416l80 -719h4z" glyph-name="ycircumflex" horiz-adv-x="1245" unicode="ŷ"/><glyph d="M758 1657q-82 0 -130 46t-48 122q0 102 70.5 167.5t178.5 65.5q83 0 131 -45t48 -121q0 -101 -72 -168t-178 -67zM1243 1657q-82 0 -130 46t-48 122q0 102 71 167.5t179 65.5q83 0 130.5 -45t47.5 -121q0 -101 -72 -168t-178 -67zM1780 1577l-793 -1051l-94 -526h-428 l94 537l-405 1040h479l221 -666h4l453 666h469z" glyph-name="Ydieresis" horiz-adv-x="1558" unicode="Ÿ"/><glyph d="M1395 2040l-353 -365h-303l244 365h412zM1458 1235l-926 -905v-4h799l-57 -326h-1315l59 342l926 905v4h-711l58 326h1229z" glyph-name="Zacute" horiz-adv-x="1429" unicode="Ź"/><glyph d="M1159 1577l-352 -365h-303l244 365h411zM1145 1090l-58 -318l-591 -465v-4h540l-53 -303h-1022l55 317l580 465v4h-463l53 304h959z" glyph-name="zacute" horiz-adv-x="1134" unicode="ź"/><glyph d="M936 1686q-90 0 -141.5 48.5t-51.5 129.5q0 107 75.5 175t191.5 68q88 0 140 -47.5t52 -126.5q0 -107 -76 -177t-190 -70zM1458 1235l-926 -905v-4h799l-57 -326h-1315l59 342l926 905v4h-711l58 326h1229z" glyph-name="Zdotaccent" horiz-adv-x="1429" unicode="Ż"/><glyph d="M698 1219q-90 0 -141 48.5t-51 129.5q0 107 75 175t191 68q89 0 141 -47.5t52 -126.5q0 -107 -76.5 -177t-190.5 -70zM1087 772l-591 -465v-4h540l-53 -303h-1022l55 317l580 465v4h-463l53 304h959z" glyph-name="zdotaccent" horiz-adv-x="1134" unicode="ż"/><glyph d="M752 1675l-158 365h303l72 -160h4l129 160h303l-285 -365h-368zM1458 1235l-926 -905v-4h799l-57 -326h-1315l59 342l926 905v4h-711l58 326h1229z" glyph-name="Zcaron" horiz-adv-x="1429" unicode="Ž"/><glyph d="M514 1212l-158 365h303l72 -160h4l129 160h303l-284 -365h-369zM1145 1090l-58 -318l-591 -465v-4h540l-53 -303h-1022l55 317l580 465v4h-463l53 304h959z" glyph-name="zcaron" horiz-adv-x="1134" unicode="ž"/><glyph d="M1370 1597q187 0 326 -79l-129 -287q-65 45 -164 45q-72 0 -127.5 -45t-83.5 -125l-51 -145h231l-49 -285h-283l-114 -324q-62 -175 -207.5 -273.5t-341.5 -98.5q-180 0 -326 81l131 289q56 -47 164 -47q72 0 128 45t85 127l70 201h-226l50 285h276l92 266 q60 173 206 271.5t343 98.5z" glyph-name="florin" horiz-adv-x="1552" unicode="ƒ"/><glyph d="M1483 1069h-422q2 10 2 29q0 75 -58 120.5t-157 45.5q-98 0 -160.5 -43t-62.5 -109q0 -32 21 -55t64 -38t87.5 -24t111.5 -18q59 -8 105 -16.5t103.5 -24t101 -34.5t87 -49t71.5 -66.5t45.5 -87t17.5 -111.5q0 -176 -98 -314t-279.5 -216t-417.5 -78q-264 0 -434 138 t-170 361q0 35 2 53h422v-18q0 -91 67.5 -146t182.5 -55q121 0 198.5 49t77.5 127q0 25 -10 45.5t-33 35t-46 24.5t-62.5 19t-69 14t-78.5 12q-59 8 -102.5 16t-100.5 23t-97.5 33t-83.5 47t-69.5 65t-43.5 86t-17 111q0 257 207 417t547 160q241 0 397 -131.5t156 -345.5 q0 -35 -2 -51zM633 -88q88 0 131.5 -59t26.5 -154q-25 -139 -129.5 -227.5t-251.5 -94.5l-2 68q84 3 149 41t98 102q-59 -30 -116 -30q-64 0 -101 36t-37 95q0 95 66 159t166 64z" glyph-name="Scommaaccent" horiz-adv-x="1499" unicode="Ș"/><glyph d="M1133 766h-377v12q0 42 -31 67t-86 25q-60 0 -98.5 -22.5t-38.5 -59.5q0 -38 53 -58t152 -34q61 -10 107 -20.5t102 -32.5t92 -50.5t61 -75.5t25 -107q0 -124 -78.5 -222.5t-218.5 -153t-316 -54.5q-219 0 -348 87.5t-129 233.5q0 19 2 35h377v-12q0 -46 38 -73.5 t103 -27.5q73 0 120.5 29.5t47.5 75.5q0 22 -15.5 38t-48.5 26.5t-63.5 16.5t-81.5 13q-60 9 -106 19t-101 32t-91 50.5t-60.5 76t-24.5 107.5q0 180 163 291.5t419 111.5q207 0 330 -83.5t123 -223.5q0 -25 -2 -37zM469 -88q88 0 131.5 -59t26.5 -154 q-25 -139 -129.5 -227.5t-251.5 -94.5l-2 68q84 3 149.5 41t98.5 102q-59 -30 -117 -30q-64 0 -100.5 36t-36.5 95q0 95 66 159t165 64z" glyph-name="scommaaccent" horiz-adv-x="1173" unicode="ș"/><glyph d="M1499 1577l-57 -326h-432l-222 -1251h-428l222 1251h-432l57 326h1292zM557 -88q88 0 131.5 -59t26.5 -154q-25 -139 -129.5 -227.5t-251.5 -94.5l-2 68q84 3 149.5 41t98.5 102q-58 -30 -117 -30q-64 0 -100.5 36t-36.5 95q0 95 66 159t165 64z" glyph-name="uni021A" horiz-adv-x="1345" unicode="Ț"/><glyph d="M637 807l-74 -416q-2 -10 -2 -18q0 -42 36 -67t97 -25q82 0 148 32l-49 -278q-133 -55 -283 -55q-171 0 -271 81t-100 218q0 33 6 67l82 461h-157l49 283h180l53 309h389l-55 -309h291l-49 -283h-291zM326 -88q88 0 131 -59t26 -154q-25 -139 -129.5 -227.5t-251.5 -94.5 l-2 68q84 3 149.5 41t98.5 102q-58 -30 -117 -30q-64 0 -100.5 36t-36.5 95q0 95 66 159t166 64z" glyph-name="uni021B" horiz-adv-x="925" unicode="ț"/><glyph d="M-74 -471l275 1561h409l-274 -1561h-410z" glyph-name="uni0237" horiz-adv-x="618" unicode="ȷ"/><glyph d="M662 1536l157 -365h-303l-72 160h-4l-129 -160h-303l285 365h369z" glyph-name="circumflex" horiz-adv-x="827" unicode="ˆ"/><glyph d="M516 1536h303l-284 -365h-369l-158 365h303l72 -160h4z" glyph-name="caron" horiz-adv-x="827" unicode="ˇ"/><glyph d="M332 1161q-149 0 -235.5 82.5t-86.5 222.5q0 32 6 70h263q-3 -15 -3 -27q0 -54 26.5 -85t70.5 -31q50 0 89 39.5t52 103.5h264q-35 -173 -151 -274t-295 -101z" glyph-name="breve" horiz-adv-x="792" unicode="˘"/><glyph d="M264 1178q-90 0 -141 48.5t-51 129.5q0 107 75 175t191 68q88 0 140 -47.5t52 -126.5q0 -107 -76 -177t-190 -70z" glyph-name="dotaccent" horiz-adv-x="608" unicode="˙"/><glyph d="M291 1135q-120 0 -189 60t-69 161q0 133 98.5 218t251.5 85q119 0 187.5 -60t68.5 -161q0 -133 -98.5 -218t-249.5 -85zM319 1305q44 0 73.5 31.5t29.5 78.5q0 34 -18.5 54t-51.5 20q-44 0 -73 -32t-29 -79q0 -34 18.5 -53.5t50.5 -19.5z" glyph-name="ring" horiz-adv-x="671" unicode="˚"/><glyph d="M270 -492q-109 0 -173 46t-64 122q0 92 123 205.5t321 210.5l105 -92q-96 -59 -156.5 -120.5t-60.5 -102.5q0 -22 14 -35.5t37 -13.5q62 0 125 39l-37 -211q-98 -48 -234 -48z" glyph-name="ogonek" horiz-adv-x="620" unicode="˛"/><glyph d="M59 1171q34 178 131.5 277.5t235.5 99.5q68 0 152 -35.5t127 -35.5q41 0 71.5 21t42.5 58h156q-34 -178 -131 -277t-236 -99q-68 0 -151.5 35.5t-126.5 35.5q-41 0 -72 -21.5t-43 -58.5h-156z" glyph-name="tilde" horiz-adv-x="1034" unicode="˜"/><glyph d="M57 1171l224 365h411l-332 -365h-303zM514 1171l223 365h412l-332 -365h-303z" glyph-name="hungarumlaut" horiz-adv-x="1206" unicode="˝"/><glyph d="M-49 1212h-303l-226 365h412z" glyph-name="gravecomb" unicode="̀"/><glyph d="M-616 1212l243 365h412l-352 -365h-303z" glyph-name="acutecomb" unicode="́"/><glyph d="M-166 1577l158 -365h-303l-72 160h-4l-129 -160h-303l284 365h369z" glyph-name="uni0302" unicode="̂"/><glyph d="M-977 1247q34 178 131.5 277.5t235.5 99.5q68 0 151.5 -36t126.5 -36q41 0 72 21.5t43 58.5h156q-34 -178 -131.5 -277.5t-235.5 -99.5q-68 0 -152 36t-127 36q-41 0 -71.5 -21.5t-42.5 -58.5h-156z" glyph-name="tildecomb" unicode="̃"/><glyph d="M-852 1284l51 293h772l-51 -293h-772z" glyph-name="uni0304" unicode="̄"/><glyph d="M-461 1202q-167 0 -253.5 103t-61.5 272h262q-8 -65 17.5 -104t76.5 -39q50 0 89 39.5t52 103.5h265q-34 -169 -157 -272t-290 -103z" glyph-name="uni0306" unicode="̆"/><glyph d="M-344 1178q-90 0 -141.5 48.5t-51.5 129.5q0 107 75.5 175t191.5 68q88 0 140 -47.5t52 -126.5q0 -107 -76 -177t-190 -70z" glyph-name="uni0307" unicode="̇"/><glyph d="M-840 1210q-82 0 -130 46t-48 122q0 102 71 168t179 66q83 0 130.5 -45t47.5 -121q0 -101 -72 -168.5t-178 -67.5zM-354 1210q-82 0 -130 46t-48 122q0 102 70.5 168t178.5 66q83 0 131 -45t48 -121q0 -101 -72 -168.5t-178 -67.5z" glyph-name="uni0308" unicode="̈"/><glyph d="M-381 1176q-120 0 -189 60t-69 161q0 133 98.5 218t251.5 85q119 0 187.5 -60t68.5 -161q0 -133 -98.5 -218t-249.5 -85zM-352 1346q44 0 73 31.5t29 78.5q0 34 -18 54t-51 20q-44 0 -73.5 -32t-29.5 -79q0 -34 19 -53.5t51 -19.5z" glyph-name="uni030A" unicode="̊"/><glyph d="M-1149 1212l223 365h412l-332 -365h-303zM-692 1212l223 365h412l-332 -365h-303z" glyph-name="uni030B" unicode="̋"/><glyph d="M-311 1577h303l-285 -365h-369l-157 365h303l72 -160h4z" glyph-name="uni030C" unicode="̌"/><glyph d="M-162 1540q64 0 101.5 -35t37.5 -94q0 -84 -64 -137t-163 -53q-88 0 -131.5 57.5t-26.5 151.5q22 126 126.5 205.5t252.5 84.5l9 -73q-179 0 -248 -129q58 22 106 22z" glyph-name="uni0312" unicode="̒"/><glyph d="M-106 -88q88 0 131 -59t26 -154q-25 -139 -129.5 -227.5t-251.5 -94.5l-2 68q84 3 149.5 41t98.5 102q-59 -30 -117 -30q-64 0 -100.5 36t-36.5 95q0 95 66 159t166 64z" glyph-name="uni0326" unicode="̦"/><glyph d="M-242 -94q85 0 134 -41t49 -109q0 -110 -104 -179t-267 -69q-68 0 -132 13t-102 35l25 143q90 -51 180 -51q63 0 103.5 22.5t40.5 57.5q0 47 -54 47q-45 0 -80 -35l-96 74l193 272l127 -86l-80 -100l2 -2q31 8 61 8z" glyph-name="uni0327" unicode="̧"/><glyph d="M-350 -492q-109 0 -173.5 46t-64.5 122q0 92 123 205.5t322 210.5l104 -92q-96 -59 -156.5 -120.5t-60.5 -102.5q0 -22 14 -35.5t37 -13.5q62 0 125 39l-37 -211q-98 -48 -233 -48z" glyph-name="uni0328" unicode="̨"/><glyph d="M-952 610l49 283h837l-49 -283h-837z" glyph-name="uni0335" unicode="̵"/><glyph d="M-1763 696l51 285h1649l-52 -285h-1648z" glyph-name="uni0336" unicode="̶"/><glyph d="M-987 -104l-84 59l1051 1235l83 -60z" glyph-name="uni0337" unicode="̷"/><glyph d="M-1350 -90l-96 63l1368 1688l96 -64z" glyph-name="uni0338" unicode="̸"/><glyph d="M1194 1577l289 -1577h-1604l848 1577h467zM877 1135l-402 -809h520l-114 809h-4z" glyph-name="uni0394" horiz-adv-x="1554" unicode="Δ"/><glyph d="M1780 1018q0 -225 -123 -411.5t-336 -295.5l303 8l-57 -319h-672l53 299q156 53 261.5 221.5t105.5 374.5q0 167 -79 268t-216 101q-98 0 -185.5 -43.5t-150 -119.5t-99 -184t-36.5 -231q0 -140 51.5 -245.5t142.5 -141.5l-53 -299h-670l58 319l317 -10q-128 85 -197 215 t-69 289q0 227 123 406.5t339.5 278.5t487.5 99q323 0 512 -158t189 -421z" glyph-name="uni03A9" horiz-adv-x="1777" unicode="Ω"/><glyph d="M895 1090h410l-193 -1090h-410l29 164h-4q-54 -69 -136.5 -116t-174.5 -62l-80 -457h-410l275 1561h409l-110 -633q-4 -28 -4 -39q0 -55 28.5 -87t79.5 -32q68 0 118.5 50t63.5 132z" glyph-name="uni03BC" horiz-adv-x="1312" unicode="μ"/><glyph d="M1583 1090l-49 -283h-193l-141 -807h-409l141 807h-250l-141 -807h-410l141 807h-192l49 283h1454z" glyph-name="pi" horiz-adv-x="1521" unicode="π"/><glyph d="M1524 1675h-303l-226 365h412zM1985 1577h423l-673 -1577h-506l-29 1032h-4l-391 -1032h-508l-115 1577h441l43 -1114h4l420 1114h432l32 -1114h5z" glyph-name="Wgrave" horiz-adv-x="2226" unicode="Ẁ"/><glyph d="M1196 1212h-303l-225 365h411zM1444 1090h414l-527 -1090h-411l-19 655h-4l-242 -655h-417l-144 1090h404l39 -658h4l247 658h386l18 -658h4z" glyph-name="wgrave" horiz-adv-x="1761" unicode="ẁ"/><glyph d="M1786 2040l-352 -365h-304l244 365h412zM1985 1577h423l-673 -1577h-506l-29 1032h-4l-391 -1032h-508l-115 1577h441l43 -1114h4l420 1114h432l32 -1114h5z" glyph-name="Wacute" horiz-adv-x="2226" unicode="Ẃ"/><glyph d="M1460 1577l-352 -365h-303l244 365h411zM1444 1090h414l-527 -1090h-411l-19 655h-4l-242 -655h-417l-144 1090h404l39 -658h4l247 658h386l18 -658h4z" glyph-name="wacute" horiz-adv-x="1761" unicode="ẃ"/><glyph d="M1081 1657q-82 0 -130 46t-48 122q0 102 71 167.5t179 65.5q83 0 130.5 -45t47.5 -121q0 -101 -72 -168t-178 -67zM1567 1657q-82 0 -130 46t-48 122q0 102 70.5 167.5t178.5 65.5q83 0 131 -45t48 -121q0 -101 -72 -168t-178 -67zM1985 1577h423l-673 -1577h-506 l-29 1032h-4l-391 -1032h-508l-115 1577h441l43 -1114h4l420 1114h432l32 -1114h5z" glyph-name="Wdieresis" horiz-adv-x="2226" unicode="Ẅ"/><glyph d="M758 1210q-82 0 -130 46t-48 122q0 102 70.5 168t178.5 66q83 0 131 -45t48 -121q0 -101 -72 -168.5t-178 -67.5zM1243 1210q-82 0 -130 46t-48 122q0 102 71 168t179 66q83 0 130.5 -45t47.5 -121q0 -101 -72 -168.5t-178 -67.5zM1444 1090h414l-527 -1090h-411l-19 655 h-4l-242 -655h-417l-144 1090h404l39 -658h4l247 658h386l18 -658h4z" glyph-name="wdieresis" horiz-adv-x="1761" unicode="ẅ"/><glyph d="M1835 1577l-61 -342l-381 -332q157 -60 245 -172t88 -252q0 -223 -177 -361t-472 -138q-199 0 -329 114t-130 299q0 9 5 66h411v-21q0 -57 29 -91t80 -34q62 0 103.5 48t41.5 122q0 76 -53 132t-143 73l-115 21l49 276l266 262v4h-608l-221 -1251h-428l278 1577h1522z" glyph-name="uni1E9E" horiz-adv-x="1802" unicode="ẞ"/><glyph d="M1200 1675h-303l-225 365h411zM1780 1577l-793 -1051l-94 -526h-428l94 537l-405 1040h479l221 -666h4l453 666h469z" glyph-name="Ygrave" horiz-adv-x="1558" unicode="Ỳ"/><glyph d="M942 1212h-303l-225 365h411zM922 1090h421l-825 -1561h-393l186 358l-219 1203h416l80 -719h4z" glyph-name="ygrave" horiz-adv-x="1245" unicode="ỳ"/><glyph d="M78 412l49 282h1100l-49 -282h-1100z" glyph-name="endash" horiz-adv-x="1302" unicode="–"/><glyph d="M78 412l49 282h1685l-49 -282h-1685z" glyph-name="emdash" horiz-adv-x="1888" unicode="—"/><glyph d="M731 1487q-132 0 -236 -64t-157 -174q76 29 135 29q77 0 122.5 -50t45.5 -132q0 -122 -81.5 -200.5t-203.5 -78.5q-99 0 -156 61t-57 166q0 27 7 74q37 209 197.5 340t387.5 139z" glyph-name="quoteleft" horiz-adv-x="626" unicode="‘"/><glyph d="M518 1597q99 0 156 -61t57 -166q0 -34 -6 -74q-37 -209 -197.5 -340t-388.5 -139l4 111q132 0 236.5 63.5t157.5 173.5q-73 -28 -136 -28q-77 0 -122.5 50t-45.5 132q0 122 81 200t204 78z" glyph-name="quoteright" horiz-adv-x="638" unicode="’"/><glyph d="M295 440q99 0 156 -61t57 -166q0 -33 -6 -74q-37 -209 -197.5 -340t-388.5 -139l4 111q132 0 236 63.5t157 173.5q-73 -28 -135 -28q-77 0 -122.5 50t-45.5 132q0 122 81 200t204 78z" glyph-name="quotesinglbase" horiz-adv-x="622" unicode="‚"/><glyph d="M473 1278q77 0 122.5 -50t45.5 -132q0 -122 -81.5 -200.5t-203.5 -78.5q-99 0 -156 61t-57 166q0 27 7 74q37 209 197.5 340t387.5 139l-4 -110q-132 0 -236 -64t-157 -174q76 29 135 29zM1276 1487q-132 0 -236 -64t-157 -174q76 29 135 29q77 0 122.5 -50t45.5 -132 q0 -122 -81.5 -200.5t-203.5 -78.5q-99 0 -156 61t-57 166q0 34 6 74q37 209 197.5 340t388.5 139z" glyph-name="quotedblleft" horiz-adv-x="1171" unicode="“"/><glyph d="M731 1370q0 -34 -6 -74q-37 -209 -197.5 -340t-388.5 -139l4 111q132 0 236.5 63.5t157.5 173.5q-73 -28 -136 -28q-77 0 -122.5 50t-45.5 132q0 122 81 200t204 78q99 0 156 -61t57 -166zM1063 1597q99 0 156 -61t57 -166q0 -34 -6 -74q-37 -209 -197.5 -340 t-388.5 -139l4 111q132 0 236 63.5t157 173.5q-73 -28 -135 -28q-77 0 -122.5 50t-45.5 132q0 122 81 200t204 78z" glyph-name="quotedblright" horiz-adv-x="1183" unicode="”"/><glyph d="M508 213q0 -33 -6 -74q-37 -209 -197.5 -340t-388.5 -139l4 111q132 0 236 63.5t157 173.5q-73 -28 -135 -28q-77 0 -122.5 50t-45.5 132q0 122 81 200t204 78q99 0 156 -61t57 -166zM840 440q99 0 156 -61t57 -166q0 -33 -6 -74q-37 -209 -197.5 -340t-388.5 -139l4 111 q132 0 236 63.5t157 173.5q-73 -28 -135 -28q-77 0 -122.5 50t-45.5 132q0 122 81 200t204 78z" glyph-name="quotedblbase" horiz-adv-x="1167" unicode="„"/><glyph d="M850 1337l-31 -172h-229l-101 -565h-192l100 565h-229l31 172h227l43 240h193l-44 -240h232z" glyph-name="dagger" horiz-adv-x="772" unicode="†"/><glyph d="M831 1165h-229l-29 -153h232l-31 -172h-229l-43 -240h-193l43 240h-229l31 172h227l29 153h-230l31 172h227l43 240h193l-43 -240h231z" glyph-name="daggerdbl" horiz-adv-x="796" unicode="‡"/><glyph d="M383 311q-123 0 -194.5 66.5t-71.5 177.5q0 150 105 247t265 97q124 0 196.5 -67.5t72.5 -178.5q0 -150 -106 -246t-267 -96z" glyph-name="bullet" horiz-adv-x="851" unicode="•"/><glyph d="M213 -20q-94 0 -148.5 52t-54.5 140q0 116 81.5 192t203.5 76q93 0 147 -51.5t54 -138.5q0 -118 -80 -194t-203 -76zM745 -20q-93 0 -147.5 52t-54.5 140q0 116 81 192t203 76q93 0 147 -51.5t54 -138.5q0 -118 -80 -194t-203 -76zM1276 -20q-94 0 -148.5 52t-54.5 140 q0 116 81.5 192t203.5 76q93 0 147 -51.5t54 -138.5q0 -118 -80 -194t-203 -76z" glyph-name="ellipsis" horiz-adv-x="1660" unicode="…"/><glyph d="M455 840q-134 0 -211.5 84t-77.5 223q0 196 121 323t303 127q135 0 213 -84t78 -223q0 -196 -121 -323t-305 -127zM76 0l1347 1577h293l-1347 -1577h-293zM498 1063q41 0 72.5 62.5t31.5 146.5q0 47 -13.5 74.5t-37.5 27.5q-44 0 -75.5 -61.5t-31.5 -145.5q0 -48 14 -76 t40 -28zM1204 -20q-134 0 -211.5 84t-77.5 223q0 195 120.5 322.5t301.5 127.5q137 0 215 -83.5t78 -223.5q0 -196 -121 -323t-305 -127zM1982 -20q-134 0 -211 84t-77 223q0 195 120.5 322.5t301.5 127.5q136 0 214 -83.5t78 -223.5q0 -196 -121 -323t-305 -127zM1243 203 q43 0 75 62.5t32 146.5q0 46 -14 74t-38 28q-44 0 -75 -61.5t-31 -145.5q0 -48 13.5 -76t37.5 -28zM2023 203q43 0 75 62.5t32 146.5q0 47 -13.5 74.5t-37.5 27.5q-44 0 -75.5 -61.5t-31.5 -145.5q0 -48 13.5 -76t37.5 -28z" glyph-name="perthousand" horiz-adv-x="2484" unicode="‰"/><glyph d="M621 180h-400l-176 352l299 353h399l-305 -361z" glyph-name="guilsinglleft" horiz-adv-x="770" unicode="‹"/><glyph d="M20 180l306 361l-181 344h400l174 -353l-299 -352h-400z" glyph-name="guilsinglright" horiz-adv-x="768" unicode="›"/><glyph d="M-571 0l1347 1577h293l-1348 -1577h-292z" glyph-name="fraction" horiz-adv-x="409" unicode="⁄"/><glyph d="M958 313q78 0 171.5 32.5t166.5 86.5l129 -274q-121 -80 -270 -129t-276 -49q-291 0 -464.5 169.5t-185.5 454.5h-166l19 109h149q5 60 19 143h-141l18 109h152q93 288 332 460t554 172q122 0 247.5 -33.5t209.5 -88.5l-223 -299q-44 40 -119.5 64t-153.5 24 q-129 0 -233 -80t-162 -217h535l-80 -111h-492q-15 -68 -18 -141h418l-82 -111h-332q18 -135 90 -213t188 -78z" glyph-name="Euro" horiz-adv-x="1540" unicode="€"/><glyph d="M750 1401h-152l-74 -414h-233l74 414h-152l31 176h536zM1264 1577h313l-104 -590h-234l64 311h-3l-139 -311h-166l-16 311h-2l-47 -311h-223l104 590h315l9 -311h2z" glyph-name="trademark" horiz-adv-x="1517" unicode="™"/><glyph d="M1477 1577h292l-1347 -1577h-293zM281 692l96 547h-201l31 176q123 0 196.5 38.5t120.5 123.5h191l-156 -885h-278zM1769 463q121 -54 121 -172q0 -131 -120.5 -217t-305.5 -86q-152 0 -240.5 65.5t-88.5 173.5q0 159 192 236v2q-96 52 -96 149q0 123 111.5 203t281.5 80 q140 0 222.5 -60.5t82.5 -162.5q0 -136 -160 -209v-2zM1587 682q-31 0 -51 -22t-20 -56q0 -23 13 -37t36 -14q30 0 50.5 21.5t20.5 54.5q0 24 -13 38.5t-36 14.5zM1503 203q43 0 73 28t30 70q0 32 -20 51t-54 19q-45 0 -75 -28t-30 -71q0 -32 20.5 -50.5t55.5 -18.5z" glyph-name="oneeighth" horiz-adv-x="2000" unicode="⅛"/><glyph d="M862 981q0 -136 -115.5 -218.5t-312.5 -82.5q-144 0 -223.5 70t-79.5 196v27h268v-10q0 -32 19.5 -50t56.5 -18q45 0 72.5 25t27.5 65q0 31 -22 48.5t-61 17.5h-19l31 182h18q39 0 63.5 24.5t24.5 63.5q0 53 -53 53q-31 0 -54 -20t-32 -56h-262q38 138 141.5 214.5 t251.5 76.5q145 0 224 -59t79 -164q0 -149 -172 -219v-2q129 -51 129 -164zM1671 1577h293l-1348 -1577h-292zM1964 463q121 -54 121 -172q0 -131 -120.5 -217t-305.5 -86q-152 0 -241 65.5t-89 173.5q0 158 193 236v2q-97 52 -97 149q0 123 112 203t282 80 q140 0 222.5 -60.5t82.5 -162.5q0 -136 -160 -209v-2zM1782 682q-31 0 -51.5 -22t-20.5 -56q0 -23 13 -37t36 -14q30 0 51 21.5t21 54.5q0 24 -13 38.5t-36 14.5zM1698 203q43 0 72.5 28t29.5 70q0 32 -20 51t-54 19q-44 0 -74 -28t-30 -71q0 -32 20.5 -50.5t55.5 -18.5z" glyph-name="threeeighths" horiz-adv-x="2193" unicode="⅜"/><glyph d="M887 1047q0 -169 -121 -268t-324 -99q-155 0 -236 69.5t-81 196.5h272q6 -51 82 -51q51 0 83 30t32 81q0 35 -20.5 55t-57.5 20q-63 0 -98 -53h-271l170 549h598l-36 -209h-357l-49 -141l2 -2q79 51 182 51q110 0 170 -60t60 -169zM1692 1577h293l-1348 -1577h-293z M1985 463q120 -54 120 -172q0 -131 -120.5 -217t-305.5 -86q-152 0 -240.5 65.5t-88.5 173.5q0 159 192 236v2q-96 52 -96 149q0 123 111.5 203t281.5 80q140 0 222.5 -60.5t82.5 -162.5q0 -136 -159 -209v-2zM1802 682q-31 0 -51 -22t-20 -56q0 -23 13 -37t36 -14 q30 0 50.5 21.5t20.5 54.5q0 24 -13 38.5t-36 14.5zM1718 203q43 0 73 28t30 70q0 32 -20 51t-54 19q-45 0 -75 -28t-30 -71q0 -32 20.5 -50.5t55.5 -18.5z" glyph-name="fiveeighths" horiz-adv-x="2211" unicode="⅝"/><glyph d="M1532 1577h293l-1348 -1577h-293zM655 1366v2h-458l36 209h691l-39 -219q-142 -127 -239.5 -303t-129.5 -363h-287q32 182 144 360t282 314zM1825 463q121 -54 121 -172q0 -131 -120.5 -217t-305.5 -86q-152 0 -241 65.5t-89 173.5q0 159 192 236v2q-96 52 -96 149 q0 123 111.5 203t281.5 80q141 0 223.5 -60.5t82.5 -162.5q0 -136 -160 -209v-2zM1642 682q-31 0 -51 -22t-20 -56q0 -23 13 -37t36 -14q30 0 51 21.5t21 54.5q0 24 -13.5 38.5t-36.5 14.5zM1559 203q43 0 72.5 28t29.5 70q0 32 -20 51t-54 19q-44 0 -74 -28t-30 -71 q0 -32 20.5 -50.5t55.5 -18.5z" glyph-name="seveneighths" horiz-adv-x="2058" unicode="⅞"/><glyph d="M883 1536q264 0 416.5 -170t152.5 -453q0 -202 -69 -376t-188.5 -296t-287 -191.5t-358.5 -69.5q-241 0 -381.5 114.5t-140.5 304.5q0 171 123 306.5t342 216.5t505 98q-22 87 -71.5 135.5t-120.5 48.5q-85 0 -176.5 -44t-155.5 -116l-229 207q128 128 304 206.5 t335 78.5zM608 311q136 0 240.5 104t144.5 277q-233 -3 -376.5 -72t-143.5 -182q0 -58 36.5 -92.5t98.5 -34.5z" glyph-name="partialdiff" horiz-adv-x="1462" unicode="∂"/><glyph d="M1198 930l-106 -88q57 -102 57 -236q0 -179 -83.5 -322.5t-228.5 -222.5t-323 -79q-203 0 -324 112l-110 -92l-74 88l113 94q-58 103 -58 236q0 180 83.5 323t229 222t326.5 79q202 0 320 -112l104 86zM221 434q0 -78 25 -145l655 542q-87 87 -225 87q-195 0 -325 -137 t-130 -347zM987 590q0 82 -24 143l-656 -543q85 -88 225 -88q195 0 325 138.5t130 349.5z" glyph-name="emptyset" horiz-adv-x="1220" unicode="∅"/><glyph d="M1987 1577l-66 -377h-256l-295 -1671h-409l294 1671h-421l-295 -1671h-410l295 1671h-256l65 377h1754z" glyph-name="product" horiz-adv-x="1861" unicode="∏"/><glyph d="M-119 -471l45 252l606 778l-309 766l43 252h1374l-57 -324h-895l305 -694l-581 -706h946l-58 -324h-1419z" glyph-name="summation" horiz-adv-x="1542" unicode="∑"/><glyph d="M74 365l53 303h922l-54 -303h-921z" glyph-name="minus" horiz-adv-x="1132" unicode="−"/><glyph d="M1323 1577h451l-979 -1802h-430l-97 506h-319l57 323h647l27 -289z" glyph-name="radical" horiz-adv-x="1538" unicode="√"/><glyph d="M1257 930q165 0 261 -94t96 -250q0 -213 -143 -350.5t-361 -137.5q-113 0 -192.5 49t-116.5 138q-65 -89 -166 -138t-221 -49q-166 0 -262.5 94t-96.5 250q0 213 144 350.5t362 137.5q112 0 191.5 -49.5t115.5 -137.5q67 88 168 137.5t221 49.5zM549 420q44 0 73 31.5 t29 80.5q0 35 -18.5 55.5t-50.5 20.5q-45 0 -74 -31.5t-29 -80.5q0 -36 18.5 -56t51.5 -20zM1090 420q44 0 73 31.5t29 80.5q0 35 -19 55.5t-51 20.5q-44 0 -73 -31.5t-29 -80.5q0 -36 18.5 -56t51.5 -20z" glyph-name="infinity" horiz-adv-x="1679" unicode="∞"/><glyph d="M90 -492q-91 0 -176 22t-135 58l133 283q57 -41 127 -41t120 42.5t62 111.5l199 1124q38 220 187.5 354.5t355.5 134.5q92 0 176.5 -21.5t134.5 -57.5l-133 -283q-57 41 -127 41t-120.5 -42.5t-62.5 -111.5l-198 -1124q-38 -220 -188 -355t-355 -135z" glyph-name="integral" horiz-adv-x="1050" unicode="∫"/><glyph d="M88 526q34 178 142.5 277.5t265.5 99.5q114 0 260 -36t219 -36q41 0 72 21.5t43 58.5h155q-34 -178 -142 -277t-265 -99q-114 0 -260.5 35.5t-219.5 35.5q-41 0 -71.5 -21.5t-42.5 -58.5h-156zM12 96q34 178 142.5 277.5t265.5 99.5q114 0 260 -36t219 -36q41 0 72 21.5 t43 58.5h155q-34 -178 -142 -277.5t-265 -99.5q-114 0 -260 36t-219 36q-41 0 -72 -21.5t-43 -58.5h-156z" glyph-name="approxequal" horiz-adv-x="1275" unicode="≈"/><glyph d="M1034 580h-381l-59 -127h418l-54 -303h-505l-70 -150h-131l70 150h-285l53 303h373l59 127h-409l53 303h498l77 166h131l-77 -166h292z" glyph-name="notequal" horiz-adv-x="1134" unicode="≠"/><glyph d="M1102 1059l-53 -301l-445 -66l422 -63l-53 -303l-881 227l14 88l15 76l4 26l16 88zM-6 0l53 303h922l-54 -303h-921z" glyph-name="lessequal" horiz-adv-x="1116" unicode="≤"/><glyph d="M1077 831l-20 -114l-29 -164l-962 -227l53 303l444 63l-422 66l54 301zM8 0l53 303h922l-53 -303h-922z" glyph-name="greaterequal" horiz-adv-x="1112" unicode="≥"/><glyph d="M457 -82l-416 606l629 606l415 -606zM537 379l147 145l-94 146l-150 -146z" glyph-name="lozenge" horiz-adv-x="1134" unicode="◊"/><glyph d="M156 -20q-15 0 -25 10.5t-10 25.5q0 21 10 31l700 698h-663q-47 0 -47 39q0 16 14 33l696 701h-669q-41 0 -41 38v3q0 38 41 38h758q47 0 47 -41q0 -20 -17 -34l-698 -697h676q17 0 29 -12t12 -29v-669l694 692q13 16 35 16q37 0 37 -45v-663l696 692q13 16 33 16 q15 0 25 -12t10 -27q0 -18 -13 -28l-753 -762q-14 -14 -35 -14q-41 0 -41 47v663l-694 -696q-14 -14 -35 -14q-41 0 -41 47v663l-697 -696q-14 -14 -34 -14z" glyph-name="uniF8FF" horiz-adv-x="2609" unicode=""/><glyph d="M930 1675l244 365h411l-352 -365h-303zM471 -20q-199 0 -326 132t-127 349q0 57 9 119h395q-4 -25 -4 -68q0 -93 33.5 -146t93.5 -53q62 0 109.5 55t62.5 144l188 1065h428l-184 -1045q-49 -276 -223 -414t-455 -138z" glyph-name="uni00A40301" horiz-adv-x="1271"/><glyph d="M422 1198q-90 0 -141.5 48.5t-51.5 129.5q0 107 75.5 175.5t191.5 68.5q88 0 140 -47.5t52 -126.5q0 -107 -76 -177.5t-190 -70.5zM8 0l193 1090h409l-192 -1090h-410z" glyph-name="i.loclTRK" horiz-adv-x="618"/><glyph d="M229 1212l244 365h412l-353 -365h-303zM-74 -471l275 1561h409l-274 -1561h-410z" glyph-name="uni006A0301" horiz-adv-x="618"/><glyph d="M639 -20q-258 0 -397.5 163.5t-139.5 456.5q0 295 101.5 521.5t288.5 351t432 124.5q258 0 397 -163t139 -457q0 -295 -101 -521t-288 -351t-432 -125zM698 313q91 0 165.5 91t114.5 239t40 318q0 143 -40 223t-114 80q-91 0 -165 -91t-114 -239t-40 -318 q0 -143 39.5 -223t113.5 -80z" glyph-name="zero.lf" horiz-adv-x="1478"/><glyph d="M711 1577h293l-279 -1577h-428l182 1030h-368l47 273q217 0 344.5 64.5t208.5 209.5z" glyph-name="one.lf" horiz-adv-x="960"/><glyph d="M477 330v-4h793l-58 -326h-1239l60 342q410 207 644 423t234 388q0 51 -28.5 81t-79.5 30q-72 0 -131 -52.5t-84 -138.5h-412q65 236 255 380t437 144q235 0 372.5 -113t137.5 -300q0 -111 -57 -222.5t-148.5 -203t-212 -175.5t-241 -145.5t-242.5 -107.5z" glyph-name="two.lf" horiz-adv-x="1370"/><glyph d="M1022 809q120 -43 186 -122.5t66 -182.5q0 -148 -92.5 -267.5t-259 -188t-375.5 -68.5q-233 0 -371.5 124.5t-138.5 331.5q0 42 2 62h414q-4 -28 -4 -39q0 -66 44 -106t119 -40q96 0 159 57t63 144q0 67 -48.5 107.5t-132.5 40.5h-37l35 196l17 88h34q85 0 141 54t56 137 q0 59 -33.5 93t-91.5 34q-70 0 -123.5 -49.5t-70.5 -131.5h-404q57 232 241 373t429 141q233 0 370.5 -107.5t137.5 -285.5q0 -136 -87 -235t-245 -156v-4z" glyph-name="three.lf" horiz-adv-x="1353"/><glyph d="M1415 633l-57 -324h-205l-55 -309h-428l55 309h-729l59 342l801 926h520l-166 -944h205zM883 1163l-449 -524v-6h359l94 530h-4z" glyph-name="four.lf" horiz-adv-x="1458"/><glyph d="M1333 1251h-633l-108 -315l6 -4q149 112 338 112q184 0 289.5 -114t105.5 -305q0 -189 -97.5 -337t-268 -228t-385.5 -80q-244 0 -390.5 117.5t-146.5 312.5q0 16 2 36h418v-8q1 -57 50 -91t126 -34q103 0 172.5 72t69.5 182q0 77 -44 124.5t-120 47.5 q-61 0 -119.5 -36.5t-93.5 -96.5h-418l299 971h1006z" glyph-name="five.lf" horiz-adv-x="1374"/><glyph d="M1462 1141h-413v4q-1 57 -41.5 88t-110.5 31q-125 0 -218 -116.5t-132 -316.5h4q173 189 469 189q185 0 286 -98.5t101 -276.5q0 -303 -208 -484t-560 -181q-258 0 -397.5 161t-139.5 453q0 299 104 526t298 352t452 125q242 0 375 -109t133 -306q0 -16 -2 -41zM786 711 q-106 0 -169.5 -64.5t-63.5 -173.5q0 -75 43.5 -117.5t118.5 -42.5h2q106 0 169.5 65.5t63.5 172.5q0 75 -43 117.5t-121 42.5z" glyph-name="six.lf" horiz-adv-x="1466"/><glyph d="M1384 1577l-59 -342q-257 -235 -436 -561.5t-240 -673.5h-442q60 341 261 670t501 577v4h-819l57 326h1177z" glyph-name="seven.lf" horiz-adv-x="1239"/><glyph d="M1106 823q104 -46 161.5 -127t57.5 -182q0 -153 -92.5 -275t-258.5 -190.5t-374 -68.5q-255 0 -405 113t-150 302q0 147 93 256.5t257 171.5v4q-85 43 -130.5 114t-45.5 159q0 142 85.5 255.5t238 177.5t342.5 64q236 0 374 -106t138 -281q0 -128 -76.5 -225.5 t-214.5 -157.5v-4zM827 1264q-75 0 -124.5 -50.5t-49.5 -126.5q0 -56 32 -89t89 -33q74 0 123 50t49 126q0 56 -32 89.5t-87 33.5zM659 313q97 0 161.5 60.5t64.5 152.5q0 68 -44 110t-118 42q-97 0 -161 -60.5t-64 -152.5q0 -69 43 -110.5t118 -41.5z" glyph-name="eight.lf" horiz-adv-x="1402"/><glyph d="M895 1597q269 0 413 -162t144 -456q0 -297 -104 -523.5t-297.5 -351t-450.5 -124.5q-251 0 -387.5 116.5t-136.5 329.5q0 28 2 53h414v-6q0 -74 41.5 -117t117.5 -43q135 0 232.5 126t132.5 343h-4q-168 -180 -467 -180q-187 0 -289 95.5t-102 265.5q0 289 201 461.5 t540 172.5zM776 911q105 0 167.5 55.5t62.5 151.5q0 68 -44 107t-120 39h-2q-105 0 -167.5 -56t-62.5 -153q0 -68 43.5 -106t122.5 -38z" glyph-name="nine.lf" horiz-adv-x="1468"/><glyph d="M584 -20q-242 0 -382.5 138t-140.5 369q0 156 56.5 291.5t155 230.5t235.5 149t293 54q242 0 382 -138t140 -369q0 -209 -96.5 -375t-265 -258t-377.5 -92zM641 301q109 0 184.5 106.5t75.5 262.5q0 101 -42 162t-116 61q-109 0 -185.5 -106.5t-76.5 -262.5 q0 -101 43 -162t117 -61z" glyph-name="zero.osf" horiz-adv-x="1366"/><glyph d="M606 1192h275l-209 -1192h-410l117 668h-328l47 262q198 0 315.5 62.5t192.5 199.5z" glyph-name="one.osf" horiz-adv-x="886"/><glyph d="M428 307v-4h717l-53 -303h-1123l58 319q360 119 564 250.5t204 247.5q0 38 -27.5 62t-73.5 24q-66 0 -116.5 -43.5t-67.5 -114.5h-391q50 211 218.5 339t397.5 128q217 0 343 -96.5t126 -257.5q0 -204 -207 -349.5t-569 -201.5z" glyph-name="two.osf" horiz-adv-x="1253"/><glyph d="M897 508q105 -40 163 -113.5t58 -167.5q0 -135 -85.5 -243.5t-238 -169t-343.5 -60.5q-218 0 -347 113t-129 301q0 26 2 51h390q-2 -14 -2 -24q0 -60 39.5 -96t107.5 -36q85 0 140 48t55 122q0 59 -45 94t-123 35h-29l51 283h29q75 0 124.5 43.5t49.5 112.5q0 46 -30 74 t-81 28q-60 0 -106.5 -39.5t-63.5 -105.5h-379q52 204 222.5 329t394.5 125q216 0 342.5 -95.5t126.5 -254.5q0 -120 -76.5 -208t-216.5 -142v-4z" glyph-name="three.osf" horiz-adv-x="1236"/><glyph d="M1280 303l-53 -303h-197l-39 -225h-409l39 225h-674l57 319l799 877h438l-158 -893h197zM754 717l-373 -410v-4h303l74 414h-4z" glyph-name="four.osf" horiz-adv-x="1359"/><glyph d="M1196 889h-596l-90 -248l4 -2q135 96 303 96q173 0 274 -105t101 -278q0 -174 -91 -311t-252 -212t-362 -75q-230 0 -367.5 109.5t-137.5 290.5q0 21 2 39h403q0 -53 43 -85t113 -32q97 0 161 62.5t64 160.5q0 67 -39.5 107t-107.5 40q-59 0 -113.5 -29.5t-81.5 -78.5 h-408l271 854h960z" glyph-name="five.osf" horiz-adv-x="1273"/><glyph d="M1341 1065h-380v4q0 49 -36 77t-98 28q-117 0 -203.5 -106t-121.5 -290h4q160 174 446 174q163 0 250.5 -90.5t87.5 -253.5q0 -287 -191 -457.5t-517 -170.5q-236 0 -363 151.5t-127 423.5q0 209 56 384t157.5 297.5t249 190.5t324.5 68q221 0 342.5 -103.5t121.5 -291.5 q0 -12 -2 -35zM721 655q-95 0 -152 -58t-57 -155q0 -66 38 -103.5t107 -37.5h2q94 0 151.5 58t57.5 153q0 68 -38.5 105.5t-108.5 37.5z" glyph-name="six.osf" horiz-adv-x="1355"/><glyph d="M1233 1192l-55 -320q-251 -210 -422.5 -500t-225.5 -597h-421q54 302 247.5 596t485.5 514v4h-758l53 303h1096z" glyph-name="seven.osf" horiz-adv-x="1153"/><glyph d="M1053 770q98 -43 151 -118t53 -169q0 -108 -52 -201.5t-143 -159.5t-219 -104t-276 -38q-243 0 -385.5 107.5t-142.5 285.5q0 136 85.5 237t237.5 160v4q-76 41 -117.5 106.5t-41.5 145.5q0 203 178.5 336t454.5 133q224 0 354.5 -100t130.5 -267q0 -233 -268 -354v-4z M778 1174q-72 0 -119 -46t-47 -116q0 -51 31 -81t86 -30q72 0 119 45t47 115q0 52 -31 82.5t-86 30.5zM625 301q93 0 155 55.5t62 139.5q0 64 -42.5 102.5t-115.5 38.5q-94 0 -155.5 -55t-61.5 -140q0 -64 42.5 -102.5t115.5 -38.5z" glyph-name="eight.osf" horiz-adv-x="1337"/><glyph d="M756 1212q248 0 381 -147.5t133 -411.5q0 -268 -96 -471.5t-274.5 -315.5t-416.5 -112q-220 0 -340 100.5t-120 282.5v27h380v-2q0 -40 38.5 -63t97.5 -23q116 0 200.5 97t120.5 267h-4q-161 -164 -442 -164q-164 0 -253 89t-89 249q0 274 185.5 436t498.5 162zM643 573 q94 0 150.5 51t56.5 138q0 61 -39.5 95t-108.5 34h-2q-94 0 -150 -51t-56 -138q0 -61 39 -95t110 -34z" glyph-name="nine.osf" horiz-adv-x="1329"/><glyph d="M610 -20q-250 0 -392 173t-142 465q0 208 63.5 390t172 311t260.5 203.5t323 74.5q249 0 393 -174.5t144 -464.5q0 -207 -63.5 -389.5t-173.5 -311t-262 -203t-323 -74.5zM668 313q84 0 158 87.5t117.5 235t43.5 314.5q0 142 -40 228t-111 86q-83 0 -157 -87.5 t-117.5 -235t-43.5 -314.5q0 -142 39.5 -228t110.5 -86z" glyph-name="zero.tf" horiz-adv-x="1419"/><glyph d="M926 326h377l-58 -326h-1218l57 326h414l123 702h-342l47 272q206 0 327.5 65t200.5 212h293z" glyph-name="one.tf" horiz-adv-x="1419"/><glyph d="M502 330v-4h792l-57 -326h-1239l59 342q410 207 644.5 423t234.5 388q0 51 -29 81t-80 30q-72 0 -131 -52.5t-84 -138.5h-411q65 236 255 380t437 144q235 0 372.5 -113t137.5 -300q0 -111 -57 -222.5t-148.5 -203t-212 -175.5t-241 -145.5t-242.5 -107.5z" glyph-name="two.tf" horiz-adv-x="1419"/><glyph d="M1055 809q120 -43 186 -122.5t66 -182.5q0 -148 -92.5 -267.5t-259 -188t-375.5 -68.5q-233 0 -371.5 124.5t-138.5 331.5q0 42 2 62h413q-4 -28 -4 -39q0 -66 44.5 -106t119.5 -40q96 0 158.5 57t62.5 144q0 67 -48 107.5t-132 40.5h-37l35 196l16 88h35q85 0 141 54 t56 137q0 59 -33.5 93t-91.5 34q-71 0 -124.5 -49.5t-70.5 -131.5h-403q57 232 241 373t429 141q233 0 370 -107.5t137 -285.5q0 -136 -86.5 -235t-244.5 -156v-4z" glyph-name="three.tf" horiz-adv-x="1419"/><glyph d="M1395 633l-58 -324h-204l-56 -309h-428l56 309h-730l60 342l801 926h520l-166 -944h205zM862 1163l-448 -524v-6h358l94 530h-4z" glyph-name="four.tf" horiz-adv-x="1419"/><glyph d="M1356 1251h-633l-109 -315l7 -4q149 112 337 112q184 0 290 -114t106 -305q0 -142 -57 -263t-156.5 -204.5t-239 -130.5t-299.5 -47q-244 0 -390 117.5t-146 312.5q0 16 2 36h417v-8q0 -56 49.5 -90.5t127.5 -34.5q103 0 172 72t69 182q0 77 -44 124.5t-120 47.5 q-61 0 -119.5 -36.5t-93.5 -96.5h-417l299 971h1005z" glyph-name="five.tf" horiz-adv-x="1419"/><glyph d="M1438 1141h-414v4q-1 57 -41.5 88t-110.5 31q-125 0 -218 -116.5t-132 -316.5h4q173 189 469 189q185 0 286 -98.5t101 -276.5q0 -303 -208 -484t-560 -181q-258 0 -397 161t-139 453q0 299 104 526t298 352t452 125q242 0 375 -109t133 -306q0 -16 -2 -41zM762 711 q-106 0 -170 -65t-64 -173q0 -75 43.5 -117.5t118.5 -42.5h2q106 0 170 65.5t64 172.5q0 75 -43 117.5t-121 42.5z" glyph-name="six.tf" horiz-adv-x="1419"/><glyph d="M1475 1577l-60 -342q-257 -235 -436 -561.5t-240 -673.5h-442q60 341 261 670t501 577v4h-819l57 326h1178z" glyph-name="seven.tf" horiz-adv-x="1419"/><glyph d="M1114 823q104 -46 161.5 -127t57.5 -182q0 -153 -92.5 -275t-258.5 -190.5t-374 -68.5q-255 0 -405 113t-150 302q0 147 93 256.5t257 171.5v4q-85 43 -130.5 114t-45.5 159q0 142 85.5 255.5t238 177.5t342.5 64q236 0 374 -106t138 -281q0 -128 -76.5 -225.5 t-214.5 -157.5v-4zM836 1264q-75 0 -124.5 -50.5t-49.5 -126.5q0 -56 32 -89t88 -33q74 0 123 50t49 126q0 56 -31.5 89.5t-86.5 33.5zM668 313q97 0 161 60.5t64 152.5q0 68 -44 110t-118 42q-97 0 -161 -60.5t-64 -152.5q0 -69 43.5 -110.5t118.5 -41.5z" glyph-name="eight.tf" horiz-adv-x="1419"/><glyph d="M870 1597q269 0 413 -162t144 -456q0 -297 -104 -523.5t-297.5 -351t-450.5 -124.5q-251 0 -387.5 116.5t-136.5 329.5q0 28 2 53h414v-6q0 -74 42 -117t118 -43q135 0 232 125.5t132 343.5h-4q-168 -180 -467 -180q-187 0 -289 95.5t-102 265.5q0 289 201 461.5 t540 172.5zM752 911q105 0 167 55.5t62 151.5q0 68 -44 107t-120 39h-2q-105 0 -167 -55.5t-62 -153.5q0 -68 43.5 -106t122.5 -38z" glyph-name="nine.tf" horiz-adv-x="1419"/><glyph d="M340 -12q-149 0 -234.5 98.5t-85.5 263.5q0 155 63.5 280.5t173 196t243.5 70.5q149 0 234 -98.5t85 -263.5q0 -155 -63 -280.5t-173 -196t-243 -70.5zM377 203q61 0 108 97.5t47 225.5q0 71 -18 113.5t-51 42.5q-61 0 -108.5 -98t-47.5 -226q0 -70 18.5 -112.5 t51.5 -42.5z" glyph-name="zero.dnom" horiz-adv-x="874"/><glyph d="M367 885h190l-156 -885h-278l96 547h-201l31 176q123 0 197.5 38.5t120.5 123.5z" glyph-name="one.dnom" horiz-adv-x="591"/><glyph d="M274 211v-2h445l-37 -209h-731l39 219q222 107 350.5 219.5t128.5 198.5q0 45 -43 45q-32 0 -57 -22t-35 -60h-268q38 141 143.5 219t259.5 78q146 0 225.5 -61t79.5 -170q0 -78 -49.5 -154t-127.5 -133.5t-161 -100t-162 -67.5z" glyph-name="two.dnom" horiz-adv-x="821"/><glyph d="M588 453q129 -51 129 -164q0 -136 -115.5 -218.5t-312.5 -82.5q-144 0 -223.5 70t-79.5 196v27h268v-11q0 -67 76 -67q45 0 72.5 25t27.5 65q0 31 -22 48t-62 17h-18l30 183h19q39 0 63.5 24.5t24.5 63.5q0 53 -53 53q-31 0 -54 -20t-32 -56h-263q38 138 142 214.5 t252 76.5q145 0 224 -59t79 -164q0 -149 -172 -219v-2z" glyph-name="three.dnom" horiz-adv-x="811"/><glyph d="M807 369l-37 -209h-119l-28 -160h-279l29 160h-414l39 219l442 506h338l-90 -516h119zM459 616l-217 -245v-2h176l43 247h-2z" glyph-name="four.dnom" horiz-adv-x="878"/><glyph d="M520 584q110 0 170 -60.5t60 -169.5q0 -169 -120.5 -267.5t-324.5 -98.5q-155 0 -236 69.5t-81 196.5h272q6 -51 82 -51q52 0 83.5 30t31.5 80q0 35 -20.5 55.5t-57.5 20.5q-63 0 -98 -53h-271l170 549h598l-37 -209h-356l-49 -141l2 -3q80 52 182 52z" glyph-name="five.dnom" horiz-adv-x="825"/><glyph d="M481 682q-61 0 -107.5 -57t-68.5 -156h4q97 102 264 102q107 0 164.5 -54.5t57.5 -151.5q0 -173 -123 -275t-334 -102q-151 0 -234.5 94t-83.5 260q0 252 135.5 403.5t364.5 151.5q146 0 224.5 -64t78.5 -180v-16h-268q-3 21 -23 33t-51 12zM420 373q-48 0 -77.5 -28 t-29.5 -75q0 -67 76 -67h2q49 0 78 27t29 73q0 70 -78 70z" glyph-name="six.dnom" horiz-adv-x="876"/><glyph d="M766 885l-39 -219q-142 -127 -239.5 -303t-129.5 -363h-286q32 182 144 360t282 314v2h-459l37 209h690z" glyph-name="seven.dnom" horiz-adv-x="729"/><glyph d="M625 463q120 -54 120 -172q0 -131 -120.5 -217t-305.5 -86q-152 0 -240.5 65.5t-88.5 173.5q0 159 192 236v2q-96 52 -96 149q0 123 111.5 203t281.5 80q140 0 222.5 -60.5t82.5 -162.5q0 -136 -159 -209v-2zM442 682q-31 0 -51 -22t-20 -56q0 -23 13 -37t36 -14 q30 0 51 21.5t21 54.5q0 24 -13.5 38.5t-36.5 14.5zM358 203q43 0 73 28t30 70q0 32 -20 51t-54 19q-44 0 -74 -28t-30 -71q0 -32 20 -50.5t55 -18.5z" glyph-name="eight.dnom" horiz-adv-x="837"/><glyph d="M489 897q159 0 245.5 -95t86.5 -263q0 -250 -135.5 -400.5t-363.5 -150.5q-150 0 -232 68.5t-82 193.5v22h268v-6q0 -29 24 -46t60 -17q63 0 111.5 62.5t65.5 168.5h-2q-96 -96 -263 -96q-107 0 -165 52.5t-58 146.5q0 164 118.5 262t321.5 98zM424 537q49 0 76.5 23.5 t27.5 64.5q0 19 -12 34q-23 23 -65 23h-2q-46 0 -75.5 -23t-29.5 -61q0 -29 21.5 -45t58.5 -16z" glyph-name="nine.dnom" horiz-adv-x="878"/><glyph d="M461 680q-149 0 -234.5 98.5t-85.5 263.5q0 155 63.5 280.5t173 196t243.5 70.5q149 0 234 -98.5t85 -263.5q0 -155 -63 -280.5t-173 -196t-243 -70.5zM498 895q61 0 108 98t47 226q0 71 -18 113t-51 42q-62 0 -109 -98t-47 -225q0 -71 18.5 -113.5t51.5 -42.5z" glyph-name="zero.numr" horiz-adv-x="874"/><glyph d="M487 1577h191l-156 -885h-278l96 547h-201l31 176q123 0 196.5 38.5t120.5 123.5z" glyph-name="one.numr" horiz-adv-x="591"/><glyph d="M395 903v-2h445l-37 -209h-731l39 219q222 107 350.5 219.5t128.5 198.5q0 45 -43 45q-32 0 -57 -22t-35 -60h-269q38 141 144 219t260 78q146 0 225.5 -61t79.5 -170q0 -78 -49.5 -154t-127.5 -133.5t-161 -100t-162 -67.5z" glyph-name="two.numr" horiz-adv-x="821"/><glyph d="M709 1145q129 -51 129 -164q0 -136 -115.5 -218.5t-312.5 -82.5q-145 0 -224.5 70t-79.5 196v27h269v-10q0 -32 19.5 -50t56.5 -18q45 0 72.5 25t27.5 65q0 31 -22 48.5t-62 17.5h-18l30 182h19q39 0 63.5 24.5t24.5 63.5q0 53 -54 53q-31 0 -54 -20t-32 -56h-262 q38 138 142 214.5t252 76.5q145 0 224 -59t79 -164q0 -149 -172 -219v-2z" glyph-name="three.numr" horiz-adv-x="811"/><glyph d="M930 1061l-37 -209h-119l-29 -160h-278l29 160h-414l39 219l442 506h338l-90 -516h119zM582 1309l-217 -246v-2h176l43 248h-2z" glyph-name="four.numr" horiz-adv-x="878"/><glyph d="M641 1276q110 0 169.5 -60t59.5 -169q0 -170 -120.5 -268.5t-323.5 -98.5q-155 0 -236 69.5t-81 196.5h272q6 -51 82 -51q51 0 83 30t32 81q0 35 -20.5 55t-57.5 20q-64 0 -99 -53h-270l170 549h598l-37 -209h-356l-49 -141l2 -2q79 51 182 51z" glyph-name="five.numr" horiz-adv-x="823"/><glyph d="M604 1374q-61 0 -107.5 -57t-68.5 -156h4q98 103 264 103q106 0 164 -54.5t58 -152.5q0 -173 -123 -275t-334 -102q-151 0 -234.5 94t-83.5 260q0 252 135.5 403.5t364.5 151.5q146 0 224.5 -63.5t78.5 -179.5v-17h-268q-3 21 -23 33t-51 12zM543 1065q-48 0 -77.5 -27.5 t-29.5 -74.5q0 -32 19.5 -50t56.5 -18h2q49 0 78 27t29 73q0 70 -78 70z" glyph-name="six.numr" horiz-adv-x="874"/><glyph d="M889 1577l-39 -219q-142 -127 -239.5 -303t-129.5 -363h-286q32 182 144 360t282 314v2h-459l37 209h690z" glyph-name="seven.numr" horiz-adv-x="729"/><glyph d="M748 1155q120 -54 120 -172q0 -131 -120.5 -217t-305.5 -86q-152 0 -240.5 66t-88.5 174q0 158 192 235v2q-96 52 -96 150q0 123 111 202.5t282 79.5q140 0 222.5 -60.5t82.5 -162.5q0 -136 -159 -209v-2zM565 1374q-31 0 -51 -22t-20 -56q0 -23 13 -37t36 -14 q30 0 50.5 21.5t20.5 54.5q0 24 -13 38.5t-36 14.5zM481 895q43 0 73 28t30 70q0 32 -20 51t-54 19q-45 0 -74.5 -27.5t-29.5 -70.5q0 -32 20 -51t55 -19z" glyph-name="eight.numr" horiz-adv-x="837"/><glyph d="M610 1589q159 0 245.5 -95t86.5 -263q0 -250 -136 -400.5t-364 -150.5q-150 0 -231.5 68.5t-81.5 193.5v23h268v-7q0 -29 24 -46t60 -17q63 0 111 62t65 169h-2q-96 -96 -262 -96q-107 0 -165 52.5t-58 146.5q0 164 118.5 262t321.5 98zM545 1229q49 0 76.5 23.5 t27.5 64.5q0 20 -12 35q-22 22 -66 22h-2q-46 0 -75 -23t-29 -61q0 -29 21.5 -45t58.5 -16z" glyph-name="nine.numr" horiz-adv-x="876"/><glyph d="M481 -205l-229 1987h283l233 -1987h-287z" glyph-name="backslash.case" horiz-adv-x="935"/><glyph d="M434 1137q-95 0 -149 51.5t-54 138.5q0 118 81 194t204 76q93 0 147 -51.5t54 -138.5q0 -118 -80.5 -194t-202.5 -76zM10 0l258 989h277l-90 -989h-445z" glyph-name="exclamdown.case" horiz-adv-x="657"/><glyph d="M713 1137q-94 0 -147.5 51.5t-53.5 138.5q0 118 80 194t203 76q93 0 147.5 -52t54.5 -140q0 -116 -81 -192t-203 -76zM463 -20q-227 0 -360.5 95t-133.5 253q0 68 23 126.5t77.5 113.5t90 83.5t112.5 83.5q6 5 9.5 7.5t9 6.5t10.5 7q48 34 65.5 47t54 42.5t52 48 t31.5 45.5t20 52h322l-2 -14q-6 -42 -26 -83t-57.5 -85t-63.5 -70t-76 -73q-44 -42 -58.5 -55.5t-46.5 -47.5t-43.5 -53.5t-23 -48t-11.5 -55.5q0 -42 28 -67.5t75 -25.5q60 0 106.5 40.5t65.5 107.5h403q-57 -217 -237 -349t-416 -132z" glyph-name="questiondown.case" horiz-adv-x="1122"/><glyph d="M203 -205h-287l934 1987h283z" glyph-name="slash.case" horiz-adv-x="962"/><glyph d="M1753 954h-199l-90 -309h207l-90 -317h-207l-94 -328h-422l92 328h-311l-92 -328h-422l96 328h-203l91 317h204l90 309h-206l90 316h207l90 307h422l-95 -307h312l88 307h422l-88 -307h198zM719 633h323l95 330h-322z" glyph-name="numbersign.lf" horiz-adv-x="1773"/><glyph d="M1456 668h-164l-45 -152h168l-90 -303h-166l-63 -213h-391l59 213h-217l-60 -213h-391l64 213h-164l88 303h164l45 152h-166l88 303h168l66 221h391l-64 -221h215l66 221h391l-66 -221h164zM629 506h233l49 170h-231z" glyph-name="numbersign.osf" horiz-adv-x="1525"/><glyph d="M303 1280q28 167 121 281.5t230.5 167.5t312.5 53l-60 -332q-66 0 -114 -41.5t-60 -108.5l-35 -194q-35 -199 -225 -313v-5q121 -92 121 -245q0 -33 -6 -68l-35 -194q-2 -10 -2 -33q0 -54 33.5 -85.5t91.5 -31.5l-60 -332q-229 0 -361 110t-132 296q0 52 8 96l35 195 q2 12 2 28q0 46 -28 73.5t-77 27.5l60 331q57 0 97.5 35.5t49.5 93.5z" glyph-name="braceleft.case" horiz-adv-x="827"/><glyph d="M745 1057q0 -46 28 -73.5t77 -27.5l-59 -331q-57 0 -97 -35t-51 -94l-35 -195q-30 -167 -122 -281t-228 -167.5t-311 -53.5l59 332q66 0 113 41t59 109l35 194q34 196 225 313v5q-121 95 -121 245q0 28 7 68l34 194q4 24 4 33q0 54 -33.5 85.5t-90.5 31.5l59 332 q229 0 360 -110.5t131 -297.5q0 -50 -8 -94l-32 -195q-3 -15 -3 -28z" glyph-name="braceright.case" horiz-adv-x="825"/><glyph d="M940 1458h-211l-235 -1339h211l-58 -324h-639l350 1987h639z" glyph-name="bracketleft.case" horiz-adv-x="847"/><glyph d="M926 1782l-351 -1987h-638l57 324h211l235 1339h-211l58 324h639z" glyph-name="bracketright.case" horiz-adv-x="847"/><glyph d="M213 -205q-61 126 -94 316.5t-33 384.5q0 353 129 688.5t348 597.5h375q-218 -290 -343.5 -616t-125.5 -660q0 -186 31 -380.5t88 -330.5h-375z" glyph-name="parenleft.case" horiz-adv-x="743"/><glyph d="M266 -205h-375q216 282 342.5 610t126.5 660q0 186 -30.5 381t-87.5 336h374q61 -126 94 -315.5t33 -383.5q0 -352 -129 -688.5t-348 -599.5z" glyph-name="parenright.case" horiz-adv-x="743"/><glyph d="M119 616l49 283h1685l-49 -283h-1685z" glyph-name="emdash.case" horiz-adv-x="1900"/><glyph d="M119 616l49 283h1100l-49 -283h-1100z" glyph-name="endash.case" horiz-adv-x="1314"/><glyph d="M119 616l49 283h721l-49 -283h-721z" glyph-name="hyphen.case" horiz-adv-x="935"/><glyph d="M119 616l49 283h721l-49 -283h-721z" glyph-name="uni00AD.case" horiz-adv-x="935"/><glyph d="M662 385h-400l-176 352l299 353h399l-305 -361zM1198 385h-399l-176 352l299 353h399l-305 -361z" glyph-name="guillemotleft.case" horiz-adv-x="1312"/><glyph d="M55 385l305 360l-180 345h400l174 -353l-299 -352h-400zM592 385l305 360l-180 345h399l174 -353l-299 -352h-399z" glyph-name="guillemotright.case" horiz-adv-x="1312"/><glyph d="M662 385h-400l-176 352l299 353h399l-305 -361z" glyph-name="guilsinglleft.case" horiz-adv-x="776"/><glyph d="M55 385l305 360l-180 345h400l174 -353l-299 -352h-400z" glyph-name="guilsinglright.case" horiz-adv-x="776"/><glyph d="M702 350q52 12 91.5 46t54.5 81h399q-57 -192 -221 -314.5t-383 -137.5l-29 -168h-112l28 168q-212 15 -334 141.5t-122 327.5q0 181 84.5 327t233.5 232t337 98l33 180h112l-32 -180q210 -15 326 -139.5t116 -323.5h-399q0 52 -26.5 88.5t-72.5 50.5zM496 535 q0 -67 25 -114.5t69 -66.5l82 471q-78 -25 -127 -104.5t-49 -185.5z" glyph-name="cent.osf" horiz-adv-x="1310"/><glyph d="M1190 805h-379v4q0 66 -72 92l-22 -135q4 -1 12 -2t12 -2q66 -10 115.5 -20.5t110.5 -33.5t100.5 -53.5t66.5 -80t27 -113.5q0 -196 -162 -328.5t-419 -146.5l-31 -172h-113l31 172q-197 15 -314.5 124.5t-117.5 280.5v19h379v-2q0 -43 28.5 -74t77.5 -45l29 170h-2 q-45 6 -80.5 12t-80.5 17.5t-78.5 25.5t-68 37t-56.5 51t-36 67.5t-14 86.5q0 187 154 312t395 140l29 168h112l-28 -168q180 -13 287.5 -118.5t107.5 -268.5v-16zM537 840q0 -35 69 -54l23 125q-41 -6 -66.5 -25.5t-25.5 -45.5zM758 373q0 46 -99 69l-28 -159 q58 8 92.5 31.5t34.5 58.5z" glyph-name="dollar.osf" horiz-adv-x="1245"/><glyph d="M774 281q54 0 121.5 21.5t126.5 57.5l115 -241q-93 -61 -212.5 -98t-222.5 -37q-237 0 -378.5 126.5t-153.5 340.5h-137l16 88h121q3 53 12 102h-116l16 88h123q72 219 265 350t448 131q94 0 195 -25.5t173 -66.5l-194 -260q-34 25 -90 40t-115 15q-88 0 -160.5 -48.5 t-112.5 -133.5h400l-68 -90h-364q-13 -50 -13 -100h312l-68 -90h-235q17 -79 68.5 -124.5t127.5 -45.5z" glyph-name="Euro.osf" horiz-adv-x="1257"/><glyph d="M1130 811h-370v6q0 43 -23 69.5t-61 26.5q-32 0 -53 -20t-21 -51q0 -13 4 -28t12.5 -33t15 -30t20 -34.5t18.5 -32.5h272l-43 -244h-248q-61 -77 -192 -147v-4h588l-52 -289h-1026l54 303q164 45 227 137h-170l43 244h113q-52 106 -52 164q0 156 151.5 259t383.5 103 q187 0 299.5 -100t112.5 -266q0 -3 -3 -33z" glyph-name="sterling.osf" horiz-adv-x="1150"/><glyph d="M1464 1192l-587 -770h196l-16 -88h-221l-15 -78h221l-14 -88h-221l-31 -168h-385l31 168h-205l14 88h205l15 78h-205l16 88h182l-303 770h428l150 -467h4l317 467h424z" glyph-name="yen.osf" horiz-adv-x="1384"/><glyph d="M1040 872l-53 -303h-256l-55 -309h-410l56 309h-256l53 303h256l55 310h410l-56 -310h256z" glyph-name="plus.case" horiz-adv-x="1044"/><glyph d="M109 569l53 303h921l-53 -303h-921z" glyph-name="minus.case" horiz-adv-x="1134"/><glyph d="M1098 952l-254 -215l178 -217l-313 -266l-179 215l-251 -215l-222 266l254 215l-178 217l316 267l176 -215l254 215z" glyph-name="multiply.case" horiz-adv-x="1087"/><glyph d="M592 924q-88 0 -138.5 48.5t-50.5 127.5q0 107 74.5 176.5t188.5 69.5q85 0 135.5 -48t50.5 -127q0 -107 -74.5 -177t-185.5 -70zM68 569l53 303h921l-53 -303h-921zM444 96q-86 0 -136 48.5t-50 127.5q0 107 74 176.5t188 69.5q86 0 136.5 -47.5t50.5 -126.5 q0 -107 -75 -177.5t-188 -70.5z" glyph-name="divide.case" horiz-adv-x="1048"/><glyph d="M150 784l53 303h921l-53 -303h-921zM74 354l53 303h922l-54 -303h-921z" glyph-name="equal.case" horiz-adv-x="1136"/><glyph d="M1071 784h-381l-59 -127h418l-54 -303h-506l-69 -149h-131l69 149h-284l53 303h373l59 127h-409l53 303h497l78 166h131l-78 -166h293z" glyph-name="notequal.case" horiz-adv-x="1136"/><glyph d="M1087 860l-32 -188h-2l-15 -88l-985 -363l58 322l587 184l-524 176l55 322z" glyph-name="greater.case" horiz-adv-x="1089"/><glyph d="M1098 1225l-56 -322l-589 -186l524 -174l-55 -322l-859 363l33 188h2l15 88z" glyph-name="less.case" horiz-adv-x="1089"/><glyph d="M1139 1036l-21 -114l-28 -164l-963 -228l53 304l445 63l-422 66l53 301zM70 205l53 303h921l-53 -303h-921z" glyph-name="greaterequal.case" horiz-adv-x="1153"/><glyph d="M1153 1264l-53 -301l-445 -66l422 -63l-53 -304l-881 228l15 88l14 76l4 26l17 88zM45 205l53 303h922l-53 -303h-922z" glyph-name="lessequal.case" horiz-adv-x="1153"/><glyph d="M881 1092h256l-54 -304h-256l-30 -170h-410l31 170h-256l53 304h256l31 172h409zM59 205l54 303h921l-53 -303h-922z" glyph-name="plusminus.case" horiz-adv-x="1155"/><glyph d="M152 1040h921l-108 -614h-410l55 311h-512z" glyph-name="logicalnot.case" horiz-adv-x="1099"/><glyph d="M342 598q-109 0 -172.5 68t-63.5 180q0 157 99 260.5t246 103.5q111 0 175 -67.5t64 -181.5q0 -158 -99 -260.5t-249 -102.5zM76 0l1022 1194h245l-1021 -1194h-246zM379 784q32 0 55 48.5t23 113.5q0 78 -37 78q-32 0 -56 -48.5t-24 -111.5q0 -80 39 -80zM973 -16 q-110 0 -174 68t-64 181q0 158 98.5 261.5t245.5 103.5q111 0 175.5 -68t64.5 -182q0 -158 -99 -261t-247 -103zM1006 170q31 0 55 48.5t24 111.5q0 80 -38 80q-32 0 -56 -47t-24 -111q0 -37 10.5 -59.5t28.5 -22.5z" glyph-name="percent.osf" horiz-adv-x="1409"/><glyph d="M342 598q-109 0 -172.5 68t-63.5 180q0 157 99 260.5t246 103.5q111 0 175 -67.5t64 -181.5q0 -158 -99 -260.5t-249 -102.5zM76 0l1022 1194h245l-1021 -1194h-246zM379 784q32 0 55 48.5t23 113.5q0 78 -37 78q-32 0 -56 -48.5t-24 -111.5q0 -80 39 -80zM973 -16 q-110 0 -174 68t-64 181q0 158 98.5 261.5t245.5 103.5q111 0 175.5 -68t64.5 -182q0 -158 -99 -261t-247 -103zM1608 -16q-110 0 -174 68t-64 181q0 158 98.5 261.5t245.5 103.5q111 0 175.5 -68t64.5 -182q0 -158 -99 -261t-247 -103zM1006 170q31 0 55 48.5t24 111.5 q0 80 -38 80q-32 0 -56 -47t-24 -111q0 -37 10.5 -59.5t28.5 -22.5zM1640 170q31 0 55.5 48.5t24.5 111.5q0 80 -39 80q-32 0 -55.5 -47t-23.5 -111q0 -82 38 -82z" glyph-name="perthousand.osf" horiz-adv-x="2039"/><glyph d="M-840 1169q-82 0 -130 46t-48 122q0 102 71 168t179 66q83 0 130.5 -45t47.5 -121q0 -101 -72 -168.5t-178 -67.5zM-354 1169q-82 0 -130 46t-48 122q0 102 70.5 168t178.5 66q83 0 131 -45t48 -121q0 -101 -72 -168.5t-178 -67.5z" glyph-name="uni0308.case"/><glyph d="M-344 1157q-90 0 -141.5 48.5t-51.5 129.5q0 107 75.5 175.5t191.5 68.5q88 0 140 -47.5t52 -126.5q0 -107 -76 -177.5t-190 -70.5z" glyph-name="uni0307.case"/><glyph d="M-49 1188h-303l-226 364h412z" glyph-name="gravecomb.case"/><glyph d="M-616 1188l243 364h412l-352 -364h-303z" glyph-name="acutecomb.case"/><glyph d="M-1149 1188l223 364h412l-332 -364h-303zM-692 1188l223 364h412l-332 -364h-303z" glyph-name="uni030B.case"/><glyph d="M-166 1552l158 -364h-303l-72 160h-4l-129 -160h-303l284 364h369z" glyph-name="uni0302.case"/><glyph d="M-311 1552h303l-285 -364h-369l-157 364h303l72 -159h4z" glyph-name="uni030C.case"/><glyph d="M-461 1178q-149 0 -235 82.5t-86 222.5q0 31 6 69h262q-2 -10 -2 -26q0 -54 26 -85.5t70 -31.5q50 0 89 39.5t52 103.5h265q-35 -173 -151.5 -273.5t-295.5 -100.5z" glyph-name="uni0306.case"/><glyph d="M-381 1176q-120 0 -189 60t-69 161q0 133 98.5 218t251.5 85q119 0 187.5 -60t68.5 -161q0 -133 -98.5 -218t-249.5 -85zM-352 1346q44 0 73 31.5t29 78.5q0 34 -18 54t-51 20q-44 0 -73.5 -32t-29.5 -79q0 -34 19 -53.5t51 -19.5z" glyph-name="uni030A.case"/><glyph d="M-977 1198q34 178 131.5 277.5t235.5 99.5q68 0 151.5 -36t126.5 -36q41 0 72 21.5t43 58.5h156q-34 -178 -131.5 -277.5t-235.5 -99.5q-68 0 -152 36t-127 36q-41 0 -71.5 -21.5t-42.5 -58.5h-156z" glyph-name="tildecomb.case"/><glyph d="M-852 1202l51 293h772l-51 -293h-772z" glyph-name="uni0304.case"/></font>
</defs>
</svg>
