<svg xmlns="http://www.w3.org/2000/svg" xmlns:xlink="http://www.w3.org/1999/xlink" version="1.1"><metadata>Created by FontForge 20170731 at Wed Sep 30 14:13:57 2020 By Aleksey,,, Copyright (c) 2017 by Alberto Romanos. All rights reserved.</metadata><defs><font id="BwNistaGeo-Bk" horiz-adv-x="0"><font-face x-height="1090" ascent="1577" bbox="-1712 -623 3068 2187" cap-height="1577" descent="-471" font-family="Bw Nista Geo Bk" font-stretch="normal" font-weight="900" panose-1="0 0 10 0 0 0 0 0 0 0" underline-position="-307" underline-thickness="102" unicode-range="U+000D-FB02" units-per-em="2048"/><glyph d="M1247 1198q-101 0 -163 59t-62 154q0 94 62 151.5t163 57.5t163.5 -57.5t62.5 -151.5q0 -95 -62.5 -154t-163.5 -59zM1456 1090v-1090h-409v807h-435v-807h-409v807h-158v283h158v30q0 215 130.5 346t344.5 131q126 0 201 -20v-289q-53 17 -105 17q-72 0 -117 -45 t-45 -117v-53h844z" glyph-name="fi" horiz-adv-x="1562" unicode="fi"/><glyph d="M1012 1577h409v-1577h-409v807h-400v-807h-409v807h-158v283h158v30q0 215 129.5 346t343.5 131q97 0 172 -20v-283q-37 11 -74 11q-72 0 -117 -45t-45 -117v-53h400v487z" glyph-name="fl" horiz-adv-x="1527" unicode="fl"/><glyph d="M1774 1110q201 0 323.5 -155t122.5 -410t-122 -410t-322 -155q-114 0 -211 50.5t-140 133.5h-4v-164h-409v807h-400v-807h-409v807h-158v283h158v30q0 215 129.5 346t343.5 131q97 0 172 -20v-283q-37 11 -74 11q-72 0 -117 -45t-45 -117v-53h400v487h409v-653h4 q44 84 140 135t209 51zM1612 299q86 0 138 67.5t52 178.5t-52 178.5t-138 67.5t-138.5 -68t-52.5 -178t52.5 -178t138.5 -68z" glyph-name="f_b" horiz-adv-x="2279" unicode="fb"/><glyph d="M1561 1305q-72 0 -117 -45t-45 -117v-53h287v-283h-287v-807h-410v807h-377v-807h-409v807h-158v283h158v30q0 215 130.5 346t344.5 131q132 0 213 -24v-291q-57 23 -117 23q-72 0 -117 -45t-45 -117v-53h377v30q0 215 130.5 346t344.5 131q166 0 252 -36v-291 q-72 35 -155 35z" glyph-name="f_f" horiz-adv-x="1701" unicode="ff"/><glyph d="M2560 1110q201 0 323.5 -155t122.5 -410t-122 -410t-322 -155q-114 0 -210.5 50.5t-139.5 133.5h-4v-164h-410v807h-399v-807h-410v807h-377v-807h-409v807h-158v283h158v30q0 215 130.5 346t344.5 131q132 0 213 -24v-291q-57 23 -117 23q-72 0 -117 -45t-45 -117v-53 h377v30q0 215 129.5 346t343.5 131q97 0 172 -20v-283q-37 11 -73 11q-72 0 -117 -45t-45 -117v-53h399v487h410v-653h4q44 84 139.5 135t208.5 51zM2398 299q86 0 138.5 68t52.5 178t-52.5 178t-138.5 68t-138 -67.5t-52 -178.5t52 -178.5t138 -67.5z" glyph-name="f_f_b" horiz-adv-x="3065" unicode="ffb"/><glyph d="M2578 1110q154 0 248 -111t94 -292v-707h-409v627q0 73 -39.5 118.5t-104.5 45.5q-72 0 -115.5 -52t-43.5 -137v-602h-410v807h-399v-807h-410v807h-377v-807h-409v807h-158v283h158v30q0 215 130.5 346t344.5 131q132 0 213 -24v-291q-57 23 -117 23q-72 0 -117 -45 t-45 -117v-53h377v30q0 215 129.5 346t343.5 131q97 0 172 -20v-283q-37 11 -73 11q-72 0 -117 -45t-45 -117v-53h399v487h410v-653h4q52 85 152 135.5t214 50.5z" glyph-name="f_f_h" horiz-adv-x="3018" unicode="ffh"/><glyph d="M2034 1198q-101 0 -163.5 59t-62.5 154q0 94 62.5 151.5t163.5 57.5t163 -57.5t62 -151.5q0 -95 -62 -154t-163 -59zM2243 1090v-1090h-410v807h-434v-807h-410v807h-377v-807h-409v807h-158v283h158v30q0 215 130.5 346t344.5 131q132 0 213 -24v-291q-57 23 -117 23 q-72 0 -117 -45t-45 -117v-53h377v30q0 215 130.5 346t344.5 131q126 0 201 -20v-289q-53 17 -104 17q-72 0 -117 -45t-45 -117v-53h844z" glyph-name="f_f_i" horiz-adv-x="2349" unicode="ffi"/><glyph d="M2034 1198q-101 0 -163.5 59t-62.5 154q0 94 62.5 151.5t163.5 57.5t163 -57.5t62 -151.5q0 -95 -62 -154t-163 -59zM2243 1090v-1561h-410v1278h-434v-807h-410v807h-377v-807h-409v807h-158v283h158v30q0 215 130.5 346t344.5 131q132 0 213 -24v-291q-57 23 -117 23 q-72 0 -117 -45t-45 -117v-53h377v30q0 215 130.5 346t344.5 131q126 0 201 -20v-289q-53 17 -104 17q-72 0 -117 -45t-45 -117v-53h844z" glyph-name="f_f_j" horiz-adv-x="2349" unicode="ffj"/><glyph d="M1798 1090v487h410v-1577h-410v807h-399v-807h-410v807h-377v-807h-409v807h-158v283h158v30q0 215 130.5 346t344.5 131q132 0 213 -24v-291q-57 23 -117 23q-72 0 -117 -45t-45 -117v-53h377v30q0 215 129.5 346t343.5 131q97 0 172 -20v-283q-37 11 -73 11 q-72 0 -117 -45t-45 -117v-53h399zM2662 600l406 -600h-465l-375 586l318 504h452z" glyph-name="f_f_k" horiz-adv-x="3031" unicode="ffk"/><glyph d="M1798 1577h410v-1577h-410v807h-399v-807h-410v807h-377v-807h-409v807h-158v283h158v30q0 215 130.5 346t344.5 131q132 0 213 -24v-291q-57 23 -117 23q-72 0 -117 -45t-45 -117v-53h377v30q0 215 129.5 346t343.5 131q97 0 172 -20v-283q-37 11 -73 11q-72 0 -117 -45 t-45 -117v-53h399v487z" glyph-name="f_f_l" horiz-adv-x="2314" unicode="ffl"/><glyph d="M2509 807h-291v-416q0 -50 41 -80t108 -30q83 0 142 32v-278q-56 -25 -131 -40t-142 -15q-192 0 -310 101t-118 265v461h-409v-807h-410v807h-377v-807h-409v807h-158v283h158v30q0 215 130.5 346t344.5 131q132 0 213 -24v-291q-57 23 -117 23q-72 0 -117 -45t-45 -117 v-53h377v30q0 215 130.5 346t344.5 131q126 0 201 -20v-289q-53 17 -104 17q-72 0 -117 -45t-45 -117v-53h430v309h389v-309h291v-283z" glyph-name="f_f_t" horiz-adv-x="2555" unicode="fft"/><glyph d="M1792 1110q154 0 248 -111t94 -292v-707h-410v627q0 74 -39.5 119t-103.5 45q-72 0 -116 -52t-44 -137v-602h-409v807h-400v-807h-409v807h-158v283h158v30q0 215 129.5 346t343.5 131q97 0 172 -20v-283q-37 11 -74 11q-72 0 -117 -45t-45 -117v-53h400v487h409v-653h4 q52 85 152.5 135.5t214.5 50.5z" glyph-name="f_h" horiz-adv-x="2232" unicode="fh"/><glyph d="M1456 1090v-1090h-409v807h-435v-807h-409v807h-158v283h158v30q0 215 130.5 346t344.5 131q166 0 252 -36v-291q-72 35 -156 35q-72 0 -117 -45t-45 -117v-53h844zM1647 1577l-289 -365h-303l180 365h412z" glyph-name="f_iacute" horiz-adv-x="1562" unicode="fí"/><glyph d="M1247 1198q-101 0 -163 59t-62 154q0 94 62 151.5t163 57.5t163.5 -57.5t62.5 -151.5q0 -95 -62.5 -154t-163.5 -59zM1456 1090v-1561h-409v1278h-435v-807h-409v807h-158v283h158v30q0 215 130.5 346t344.5 131q126 0 201 -20v-289q-53 17 -105 17q-72 0 -117 -45 t-45 -117v-53h844z" glyph-name="f_j" horiz-adv-x="1562" unicode="fj"/><glyph d="M1012 1090v487h409v-1577h-409v807h-400v-807h-409v807h-158v283h158v30q0 215 129.5 346t343.5 131q97 0 172 -20v-283q-37 11 -74 11q-72 0 -117 -45t-45 -117v-53h400zM1876 600l405 -600h-464l-375 586l317 504h453z" glyph-name="f_k" horiz-adv-x="2244" unicode="fk"/><glyph d="M1722 807h-290v-416q0 -50 41 -80t108 -30q82 0 141 32v-278q-123 -55 -272 -55q-192 0 -310 101t-118 265v461h-410v-807h-409v807h-158v283h158v30q0 215 130.5 346t344.5 131q126 0 201 -20v-289q-53 17 -105 17q-72 0 -117 -45t-45 -117v-53h430v309h390v-309h290 v-283z" glyph-name="f_t" horiz-adv-x="1769" unicode="ft"/><glyph d="M1751 807h-291v-416q0 -49 41 -79.5t109 -30.5q82 0 141 32v-278q-123 -55 -272 -55q-192 0 -310 101t-118 265v461h-451v-416q0 -49 41 -79.5t109 -30.5q82 0 141 32v-278q-56 -25 -131 -40t-142 -15q-192 0 -310 101t-118 265v461h-157v283h178v309h389v-309h471v309 h389v-309h291v-283z" glyph-name="t_t" horiz-adv-x="1798" unicode="tt"/><glyph d="M156 -20q-15 0 -25 10.5t-10 25.5q0 21 10 31l700 698h-663q-47 0 -47 39q0 16 14 33l696 701h-669q-41 0 -41 38v3q0 38 41 38h758q47 0 47 -41q0 -20 -17 -34l-698 -697h676q17 0 29 -12t12 -29v-669l694 692q13 16 35 16q37 0 37 -45v-663l696 692q13 16 33 16 q15 0 25 -12t10 -27q0 -18 -13 -28l-753 -762q-14 -14 -35 -14q-41 0 -41 47v663l-694 -696q-14 -14 -35 -14q-41 0 -41 47v663l-697 -696q-14 -14 -34 -14z" glyph-name=".notdef" horiz-adv-x="2609"/><glyph glyph-name=".null"/><glyph glyph-name="nonmarkingreturn" horiz-adv-x="682"/><glyph glyph-name="CR" horiz-adv-x="432"/><glyph glyph-name="space" horiz-adv-x="432"/><glyph d="M184 588l-84 989h445l-84 -989h-277zM324 -20q-108 0 -174 63.5t-66 167.5q0 103 66.5 166t173.5 63t172 -63t65 -166q0 -104 -65 -167.5t-172 -63.5z" glyph-name="exclam" horiz-adv-x="645" unicode="!"/><glyph d="M98 1020v557h373v-557h-373zM580 1020v557h372v-557h-372z" glyph-name="quotedbl" horiz-adv-x="1050" unicode="&quot;"/><glyph d="M1681 954h-200l-33 -309h207l-35 -317h-207l-37 -328h-422l35 328h-311l-35 -328h-422l37 328h-201l35 317h203l35 309h-205l35 316h207l34 307h422l-39 -307h312l32 307h422l-34 -307h200zM702 633h324l37 330h-320z" glyph-name="numbersign" horiz-adv-x="1773" unicode="#"/><glyph d="M1446 520q0 -232 -174 -379t-463 -159v-211h-113v211q-269 15 -444 164.5t-197 385.5h422q8 -83 66.5 -140.5t152.5 -72.5v318q-4 2 -10 2q-51 7 -89 13t-89 17.5t-90 24t-83 32t-76.5 43t-64 56t-51 70.5t-31.5 88t-12 107q0 216 163 353.5t433 151.5v207h113v-207 q247 -15 408.5 -158t183.5 -368h-422q-3 70 -48 119.5t-122 66.5v-274q11 0 35 -4q67 -9 118 -18.5t117 -27t114.5 -39.5t98.5 -57t82 -78t52 -103.5t20 -133.5zM535 1126q0 -49 41 -77.5t120 -47.5v261q-74 -8 -117.5 -44.5t-43.5 -91.5zM809 315q92 7 147.5 50t55.5 106 q0 64 -52 97.5t-151 52.5v-306z" glyph-name="dollar" horiz-adv-x="1503" unicode="$"/><glyph d="M399 840q-157 0 -252.5 104.5t-95.5 274.5t95.5 274t252.5 104q158 0 254.5 -104t96.5 -274t-96.5 -274.5t-254.5 -104.5zM168 0l1069 1577h293l-1069 -1577h-293zM401 1063q32 0 52 43t20 113t-20 112.5t-52 42.5q-34 0 -53.5 -42t-19.5 -113t19.5 -113.5t53.5 -42.5z M1300 -20q-157 0 -252.5 104t-95.5 274t95.5 274.5t252.5 104.5q158 0 254.5 -104.5t96.5 -274.5t-96.5 -274t-254.5 -104zM1300 203q32 0 52 42.5t20 112.5t-20 113t-52 43q-34 0 -53.5 -42.5t-19.5 -113.5t19.5 -113t53.5 -42z" glyph-name="percent" horiz-adv-x="1701" unicode="%"/><glyph d="M1634 231l-229 -251l-240 206q-101 -95 -243 -150.5t-287 -55.5q-238 0 -383.5 123.5t-145.5 324.5q0 81 21 150.5t61 123.5t85.5 94.5t105.5 77.5q-182 182 -182 326q0 179 141 288t373 109q229 0 368.5 -108.5t139.5 -286.5q0 -55 -17.5 -103t-44 -83t-70 -69 t-82.5 -56.5t-94 -50.5l219 -185q45 106 60 207h340q-18 -226 -129 -434zM590 1192q0 -60 100 -160q74 39 112 77t38 85q0 54 -34 86.5t-91 32.5t-91 -33.5t-34 -87.5zM696 293q127 0 242 90l-332 287q-98 -85 -98 -203q0 -78 51.5 -126t136.5 -48z" glyph-name="ampersand" horiz-adv-x="1644" unicode="&amp;"/><glyph d="M98 1020v557h373v-557h-373z" glyph-name="quotesingle" horiz-adv-x="569" unicode="'"/><glyph d="M338 -471q-127 198 -198.5 468.5t-71.5 555.5t71.5 555.5t198.5 468.5h375q-124 -218 -194 -489t-70 -535q0 -269 70 -539.5t194 -484.5h-375z" glyph-name="parenleft" horiz-adv-x="737" unicode="("/><glyph d="M399 -471h-374q124 214 194 484.5t70 539.5q0 264 -70 535t-194 489h374q128 -198 199.5 -469t71.5 -555t-71.5 -555t-199.5 -469z" glyph-name="parenright" horiz-adv-x="737" unicode=")"/><glyph d="M741 1260l-194 -56l125 -160l-158 -112l-113 168l-112 -168l-158 112l125 160l-195 56l60 184l190 -70l-6 203h193l-6 -203l190 70z" glyph-name="asterisk" horiz-adv-x="802" unicode="*"/><glyph d="M985 668v-303h-256v-310h-410v310h-256v303h256v309h410v-309h256z" glyph-name="plus" horiz-adv-x="1048" unicode="+"/><glyph d="M303 440q117 0 188.5 -83t71.5 -218q0 -209 -138 -340t-364 -139l-16 111q132 0 225.5 63.5t126.5 173.5q-67 -28 -131 -28q-91 0 -147 62t-56 163q0 106 66.5 170.5t173.5 64.5z" glyph-name="comma" horiz-adv-x="628" unicode=","/><glyph d="M102 412v282h721v-282h-721z" glyph-name="hyphen" horiz-adv-x="925" unicode="-"/><glyph d="M303 -20q-108 0 -174 63.5t-66 167.5q0 103 66.5 166t173.5 63t172.5 -63t65.5 -166q0 -104 -65.5 -167.5t-172.5 -63.5z" glyph-name="period" horiz-adv-x="604" unicode="."/><glyph d="M324 -471h-287l598 2048h283z" glyph-name="slash" horiz-adv-x="954" unicode="/"/><glyph d="M731 -20q-309 0 -483 213.5t-174 594.5q0 382 174 595.5t483 213.5q310 0 484 -213.5t174 -595.5q0 -381 -174.5 -594.5t-483.5 -213.5zM731 313q101 0 158 125.5t57 349.5t-57 350t-158 126t-158 -126t-57 -350t57 -349.5t158 -125.5z" glyph-name="zero" horiz-adv-x="1462" unicode="0"/><glyph d="M530 1577h293v-1577h-428v1030h-368v273q216 0 331.5 64.5t171.5 209.5z" glyph-name="one" horiz-adv-x="964" unicode="1"/><glyph d="M514 326h793v-326h-1239v342q348 194 541.5 401t193.5 385q0 62 -35.5 99t-93.5 37q-72 0 -121.5 -52.5t-58.5 -138.5h-412q22 236 186 380t412 144q264 0 426 -133.5t162 -351.5q0 -100 -46.5 -201t-122 -185.5t-175 -161.5t-202.5 -134.5t-208 -99.5v-4z" glyph-name="two" horiz-adv-x="1372" unicode="2"/><glyph d="M977 809q146 -50 227.5 -140.5t81.5 -209.5q0 -215 -175 -347t-462 -132q-251 0 -416 142.5t-184 375.5h414q0 -83 53 -134t139 -51q85 0 136 48t51 126t-57 126.5t-150 48.5h-37v284h35q75 0 120.5 45t45.5 117q0 70 -41 113t-109 43q-71 0 -116 -50t-46 -131h-403 q15 232 174 373t404 141q261 0 421 -126t160 -332q0 -108 -69.5 -192t-196.5 -134v-4z" glyph-name="three" horiz-adv-x="1355" unicode="3"/><glyph d="M1397 633v-324h-205v-309h-428v309h-729v342l637 926h520v-944h205zM770 1163l-354 -524v-6h358v530h-4z" glyph-name="four" horiz-adv-x="1456" unicode="4"/><glyph d="M850 1044q214 0 344.5 -142.5t130.5 -375.5q0 -246 -177.5 -396t-467.5 -150q-256 0 -425.5 128t-191.5 338h418q11 -60 65.5 -96.5t133.5 -36.5q91 0 146 59t55 154q0 96 -54 154.5t-143 58.5q-61 0 -113 -36.5t-77 -96.5h-418l129 971h1005v-326h-632l-54 -317l4 -2 q131 112 322 112z" glyph-name="five" horiz-adv-x="1374" unicode="5"/><glyph d="M928 1020q217 0 337.5 -124t120.5 -345q0 -269 -173 -420t-482 -151q-312 0 -484.5 211t-172.5 595q0 383 181.5 597t506.5 214q255 0 410 -120.5t178 -335.5h-414q-12 58 -57.5 90.5t-116.5 32.5q-116 0 -183 -114t-75 -319h4q134 189 420 189zM750 313q91 0 142.5 52.5 t51.5 146.5t-51.5 146.5t-142.5 52.5t-143 -52t-52 -147q0 -93 52.5 -146t142.5 -53z" glyph-name="six" horiz-adv-x="1454" unicode="6"/><glyph d="M1204 1577v-342q-215 -235 -335.5 -561.5t-120.5 -673.5h-443q0 341 143 670t398 577v4h-819v326h1177z" glyph-name="seven" horiz-adv-x="1241" unicode="7"/><glyph d="M1057 823q132 -55 205 -147.5t73 -212.5q0 -218 -174.5 -350.5t-460.5 -132.5q-285 0 -458.5 132.5t-173.5 350.5q0 120 73 213.5t205 146.5v4q-109 52 -168 134t-59 186q0 202 160 326t421 124q263 0 423.5 -124t160.5 -326q0 -103 -59.5 -185.5t-167.5 -134.5v-4z M700 1264q-64 0 -103.5 -41t-39.5 -109q0 -67 39 -108t104 -41t104.5 41t39.5 108t-39.5 108.5t-104.5 41.5zM700 313q86 0 138.5 50.5t52.5 132.5t-52.5 132t-138.5 50t-138 -50t-52 -132t52 -132.5t138 -50.5z" glyph-name="eight" horiz-adv-x="1402" unicode="8"/><glyph d="M709 1597q323 0 500 -211t177 -595q0 -383 -181.5 -597t-506.5 -214q-267 0 -427 131t-183 368h414q12 -77 61.5 -121.5t126.5 -44.5q126 0 195 123t71 346h-4q-129 -180 -420 -180q-217 0 -337.5 118t-120.5 329q0 258 168.5 403t466.5 145zM711 911q91 0 142.5 46 t51.5 130q0 83 -52 130t-142 47q-91 0 -143 -46.5t-52 -130.5t51.5 -130t143.5 -46z" glyph-name="nine" horiz-adv-x="1460" unicode="9"/><glyph d="M328 649q-107 0 -173.5 64t-66.5 168q0 103 66.5 166t173.5 63t172 -63t65 -166q0 -104 -65 -168t-172 -64zM328 -20q-108 0 -174 63.5t-66 167.5q0 103 66.5 166t173.5 63t172 -63t65 -166q0 -104 -65 -167.5t-172 -63.5z" glyph-name="colon" horiz-adv-x="653" unicode=":"/><glyph d="M328 649q-107 0 -173.5 64t-66.5 168q0 103 66.5 166t173.5 63t172 -63t65 -166q0 -104 -65 -168t-172 -64zM328 440q117 0 188.5 -83t71.5 -218q0 -209 -138 -340t-364 -139l-16 111q132 0 225.5 63.5t126.5 173.5q-67 -28 -131 -28q-91 0 -147 62t-56 163 q0 106 66.5 170.5t173.5 64.5z" glyph-name="semicolon" horiz-adv-x="667" unicode=";"/><glyph d="M979 1020v-322l-557 -180l557 -180v-322l-922 363v276z" glyph-name="less" horiz-adv-x="1085" unicode="&lt;"/><glyph d="M109 580v303h921v-303h-921zM109 150v303h921v-303h-921z" glyph-name="equal" horiz-adv-x="1138" unicode="="/><glyph d="M106 1020l922 -365v-276l-922 -363v322l558 180l-558 180v322z" glyph-name="greater" horiz-adv-x="1085" unicode="&gt;"/><glyph d="M414 586v14q0 56 28 116t57.5 97.5t82.5 97.5q47 52 71 82t46 75t22 85q0 50 -33.5 80.5t-87.5 30.5q-60 0 -99.5 -41t-45.5 -107h-404q19 217 175 349t392 132q252 0 406 -110t154 -291q0 -49 -17 -96t-38 -80.5t-63 -75t-67 -62.5t-75 -61q-40 -33 -57 -47t-47.5 -43 t-43.5 -48t-24 -45.5t-11 -51.5h-321zM573 -20q-107 0 -173 63.5t-66 167.5q0 103 66 166t173 63t172.5 -63t65.5 -166q0 -104 -65.5 -167.5t-172.5 -63.5z" glyph-name="question" horiz-adv-x="1234" unicode="?"/><glyph d="M1386 1051h390l-121 -684q0 -25 23 -39.5t61 -14.5q117 0 188.5 112.5t71.5 297.5q0 186 -93 329.5t-262.5 221.5t-390.5 78q-268 0 -472.5 -109.5t-316.5 -310t-112 -461.5q0 -322 220 -519.5t579 -197.5q138 0 305.5 36.5t302.5 96.5l86 -237q-146 -63 -337 -102.5 t-357 -39.5q-326 0 -575.5 119.5t-386 338.5t-136.5 505q0 335 149 590.5t421.5 395.5t629.5 140q310 0 547.5 -108.5t367.5 -307.5t130 -458q0 -295 -182 -475t-480 -180q-149 0 -257.5 43.5t-137.5 115.5h-4q-49 -72 -141.5 -115.5t-192.5 -43.5q-145 0 -233 104.5 t-88 276.5q0 280 136.5 450t360.5 170q100 0 177 -44t102 -116h4zM1118 371q71 0 124.5 49.5t72.5 132.5l2 14v-6v6v4v2q4 20 4 48q0 66 -36.5 105.5t-96.5 39.5q-90 0 -145.5 -67.5t-55.5 -176.5q0 -67 36 -109t95 -42z" glyph-name="at" horiz-adv-x="2357" unicode="@"/><glyph d="M1130 0l-98 305h-532l-99 -305h-424l570 1577h467l567 -1577h-451zM602 629h328l-162 506h-4z" glyph-name="A" horiz-adv-x="1558" unicode="A"/><glyph d="M1180 811q149 -48 232 -137.5t83 -208.5q0 -209 -177.5 -337t-467.5 -128h-717v1577h674q280 0 451.5 -123t171.5 -324q0 -103 -65 -184t-185 -131v-4zM825 1251h-264v-305h264q72 0 116 42.5t44 111.5q0 68 -44 109.5t-116 41.5zM868 326q82 0 132.5 46.5t50.5 121.5 t-50.5 121.5t-132.5 46.5h-307v-336h307z" glyph-name="B" horiz-adv-x="1548" unicode="B"/><glyph d="M885 -20q-244 0 -431 100.5t-289 284t-102 423.5t102 424t289 284.5t431 100.5q324 0 535 -171.5t233 -454.5h-416q-12 132 -108.5 212.5t-243.5 80.5q-170 0 -274.5 -131t-104.5 -345t104.5 -344.5t274.5 -130.5q147 0 243.5 79t108.5 208h416q-22 -280 -233 -450 t-535 -170z" glyph-name="C" horiz-adv-x="1701" unicode="C"/><glyph d="M133 0v1577h574q188 0 345 -57t266.5 -159.5t170.5 -250t61 -322.5q0 -234 -104.5 -413t-296.5 -277t-442 -98h-574zM561 326h166q171 0 275 126.5t104 335.5t-104.5 336t-274.5 127h-166v-925z" glyph-name="D" horiz-adv-x="1611" unicode="D"/><glyph d="M561 326h805v-326h-1233v1577h1208v-326h-780v-284h707v-326h-707v-315z" glyph-name="E" horiz-adv-x="1441" unicode="E"/><glyph d="M1272 1251h-711v-309h598v-321h-598v-621h-428v1577h1139v-326z" glyph-name="F" horiz-adv-x="1329" unicode="F"/><glyph d="M881 852h776v-96q0 -230 -96 -406.5t-271.5 -273t-404.5 -96.5q-244 0 -431 100.5t-289 284t-102 423.5t102 424t289 284.5t431 100.5q321 0 529.5 -166t230.5 -440h-408q-12 123 -109 198t-243 75q-170 0 -274.5 -131t-104.5 -345t104.5 -344.5t274.5 -130.5 q134 0 226 71.5t118 195.5h-348v272z" glyph-name="G" horiz-adv-x="1724" unicode="G"/><glyph d="M1092 1577h428v-1577h-428v635h-531v-635h-428v1577h428v-616h531v616z" glyph-name="H" horiz-adv-x="1652" unicode="H"/><glyph d="M133 0v1577h428v-1577h-428z" glyph-name="I" horiz-adv-x="694" unicode="I"/><glyph d="M578 -20q-239 0 -390.5 165t-160.5 435h395q6 -120 53 -193.5t117 -73.5q61 0 99 55t38 144v1065h428v-1045q0 -249 -159 -400.5t-420 -151.5z" glyph-name="J" horiz-adv-x="1277" unicode="J"/><glyph d="M133 0v1577h428v-1577h-428zM1055 868l524 -868h-498l-495 821l422 756h473z" glyph-name="K" horiz-adv-x="1531" unicode="K"/><glyph d="M561 338h662v-338h-1090v1577h428v-1239z" glyph-name="L" horiz-adv-x="1257" unicode="L"/><glyph d="M1368 1577h576v-1577h-428l14 1069h-4l-355 -1069h-315l-328 1069h-4l15 -1069h-406v1577h578l315 -1071h4z" glyph-name="M" horiz-adv-x="2076" unicode="M"/><glyph d="M1114 1577h406v-1577h-398l-592 922h-4l13 -922h-406v1577h397l592 -924h4z" glyph-name="N" horiz-adv-x="1652" unicode="N"/><glyph d="M887 -20q-245 0 -432 100.5t-289.5 284t-102.5 423.5t102.5 424t290 284.5t431.5 100.5q183 0 336.5 -58.5t260.5 -164t166.5 -256t59.5 -330.5q0 -240 -102 -423.5t-289 -284t-432 -100.5zM887 313q172 0 276.5 130.5t104.5 344.5t-104.5 345t-276.5 131t-276.5 -131 t-104.5 -345t104.5 -344.5t276.5 -130.5z" glyph-name="O" horiz-adv-x="1773" unicode="O"/><glyph d="M770 1577q290 0 467.5 -142.5t177.5 -375.5t-177.5 -375.5t-467.5 -142.5h-209v-541h-428v1577h637zM788 864q83 0 134 53.5t51 141.5q0 86 -51 139t-134 53h-227v-387h227z" glyph-name="P" horiz-adv-x="1452" unicode="P"/><glyph d="M1710 788q0 -209 -79 -376.5t-224 -274.5l111 -100l-230 -266l-244 221q-77 -12 -157 -12q-245 0 -432 100.5t-289.5 284t-102.5 423.5t102.5 424t290 284.5t431.5 100.5q183 0 336.5 -58.5t260.5 -164t166.5 -256t59.5 -330.5zM506 788q0 -138 45.5 -244t128.5 -167 l203 235l235 -215q71 62 110.5 163t39.5 228q0 214 -104.5 345t-276.5 131t-276.5 -131t-104.5 -345z" glyph-name="Q" horiz-adv-x="1773" unicode="Q"/><glyph d="M1047 0l-283 596h-203v-596h-428v1577h668q293 0 473 -129t180 -340q0 -144 -74.5 -256.5t-208.5 -179.5l351 -672h-475zM561 1251v-350h258q86 0 139.5 48.5t53.5 127.5q0 78 -53.5 126t-139.5 48h-258z" glyph-name="R" horiz-adv-x="1550" unicode="R"/><glyph d="M745 -20q-292 0 -484.5 151.5t-215.5 400.5h422q9 -98 88.5 -158.5t200.5 -60.5q110 0 177.5 43.5t67.5 114.5q0 29 -10.5 52t-36 40t-49 28t-68.5 20.5t-74.5 14.5t-86.5 13q-51 7 -89 13t-89 17.5t-90 24t-83 32t-76.5 43t-64 56t-51 70.5t-31.5 88t-12 107 q0 229 180 368t475 139q267 0 445 -145t201 -383h-422q-3 88 -71 141.5t-177 53.5q-89 0 -143 -38t-54 -100q0 -36 22.5 -61.5t70.5 -42t94.5 -26t122.5 -19.5q67 -9 118 -18.5t117 -27t114.5 -39.5t98.5 -57t82 -78t52 -103.5t20 -133.5q0 -243 -190 -391.5t-501 -148.5z" glyph-name="S" horiz-adv-x="1495" unicode="S"/><glyph d="M1323 1577v-326h-432v-1251h-428v1251h-432v326h1292z" glyph-name="T" horiz-adv-x="1353" unicode="T"/><glyph d="M786 -20q-301 0 -485 167t-184 441v989h428v-1008q0 -115 70 -185.5t184 -70.5t184 70.5t70 185.5v1008h405v-989q0 -274 -185 -441t-487 -167z" glyph-name="U" horiz-adv-x="1574" unicode="U"/><glyph d="M1087 1577h424l-507 -1577h-508l-506 1577h450l322 -1135h4z" glyph-name="V" horiz-adv-x="1501" unicode="V"/><glyph d="M1806 1577h424l-395 -1577h-508l-209 1032h-4l-209 -1032h-508l-393 1577h451l229 -1114h4l230 1114h425l230 -1114h4z" glyph-name="W" horiz-adv-x="2232" unicode="W"/><glyph d="M-29 0l553 821l-501 756h516l247 -436h5l256 436h481l-504 -752l553 -825h-526l-291 504h-4l-297 -504h-488z" glyph-name="X" horiz-adv-x="1548" unicode="X"/><glyph d="M1593 1577l-608 -1049v-528h-428v535l-590 1042h490l338 -666h4l336 666h458z" glyph-name="Y" horiz-adv-x="1560" unicode="Y"/><glyph d="M567 326h803v-326h-1315v342l770 905v4h-716v326h1228v-342l-770 -905v-4z" glyph-name="Z" horiz-adv-x="1433" unicode="Z"/><glyph d="M774 1253h-211v-1400h211v-324h-639v2048h639v-324z" glyph-name="bracketleft" horiz-adv-x="829" unicode="["/><glyph d="M631 -471l-594 2048h282l599 -2048h-287z" glyph-name="backslash" horiz-adv-x="954" unicode="\"/><glyph d="M694 1577v-2048h-639v324h211v1400h-211v324h639z" glyph-name="bracketright" horiz-adv-x="829" unicode="]"/><glyph d="M764 1577l379 -752h-332l-209 478h-4l-209 -478h-332l379 752h328z" glyph-name="asciicircum" horiz-adv-x="1200" unicode="^"/><glyph d="M74 -225v207h1177v-207h-1177z" glyph-name="underscore" horiz-adv-x="1325" unicode="_"/><glyph d="M512 1171h-303l-289 365h412z" glyph-name="grave" horiz-adv-x="561" unicode="`"/><glyph d="M858 1090h410v-1090h-410v164h-4q-43 -83 -139.5 -133.5t-210.5 -50.5q-200 0 -322.5 155t-122.5 410t123 410t324 155q113 0 208.5 -51t139.5 -135h4v166zM668 299q86 0 138 67.5t52 178.5t-52 178.5t-138 67.5t-138.5 -68t-52.5 -178t52.5 -178t138.5 -68z" glyph-name="a" horiz-adv-x="1374" unicode="a"/><glyph d="M868 1110q201 0 324 -155t123 -410t-122.5 -410t-322.5 -155q-114 0 -210.5 50.5t-139.5 133.5h-4v-164h-410v1577h410v-653h4q44 84 139.5 135t208.5 51zM707 299q86 0 138 67.5t52 178.5t-52 178.5t-138 67.5t-138.5 -68t-52.5 -178t52.5 -178t138.5 -68z" glyph-name="b" horiz-adv-x="1374" unicode="b"/><glyph d="M659 -20q-272 0 -438 155t-166 410t166 410t438 155q236 0 395.5 -128t182.5 -337h-399q-9 66 -58 106t-121 40q-84 0 -135 -67.5t-51 -178.5q0 -109 51 -176.5t135 -67.5q71 0 120.5 36.5t58.5 96.5h399q-23 -204 -182.5 -329t-395.5 -125z" glyph-name="c" horiz-adv-x="1284" unicode="c"/><glyph d="M858 1577h410v-1577h-410v164h-4q-43 -83 -139.5 -133.5t-210.5 -50.5q-200 0 -322.5 155t-122.5 410t123 410t324 155q113 0 208.5 -51t139.5 -135h4v653zM668 299q86 0 138 67.5t52 178.5t-52 178.5t-138 67.5t-138.5 -68t-52.5 -178t52.5 -178t138.5 -68z" glyph-name="d" horiz-adv-x="1374" unicode="d"/><glyph d="M1243 526v-45h-790q14 -100 67.5 -159.5t132.5 -59.5q68 0 121 33.5t70 87.5h395q-34 -182 -195 -292.5t-391 -110.5q-269 0 -433.5 156t-164.5 411q0 253 164.5 408t433.5 155q265 0 427.5 -160.5t162.5 -423.5zM653 842q-70 0 -120 -48t-72 -132h377q-20 84 -69 132 t-116 48z" glyph-name="e" horiz-adv-x="1300" unicode="e"/><glyph d="M774 1305q-72 0 -117 -45t-45 -117v-53h287v-283h-287v-807h-409v807h-158v283h158v30q0 215 130.5 346t344.5 131q166 0 252 -36v-291q-72 35 -156 35z" glyph-name="f" horiz-adv-x="915" unicode="f"/><glyph d="M858 1090h410v-1090q0 -221 -164.5 -356.5t-433.5 -135.5q-229 0 -382 113t-175 299h389q11 -41 56.5 -66.5t111.5 -25.5q85 0 136.5 42.5t51.5 111.5v182h-4q-43 -83 -139.5 -133.5t-210.5 -50.5q-200 0 -322.5 155t-122.5 410t123 410t324 155q113 0 208.5 -51 t139.5 -135h4v166zM668 299q86 0 138 67.5t52 178.5t-52 178.5t-138 67.5t-138.5 -68t-52.5 -178t52.5 -178t138.5 -68z" glyph-name="g" horiz-adv-x="1374" unicode="g"/><glyph d="M887 1110q154 0 248 -111t94 -292v-707h-410v627q0 74 -39.5 119t-103.5 45q-72 0 -116 -52t-44 -137v-602h-410v1577h410v-653h4q52 85 152.5 135.5t214.5 50.5z" glyph-name="h" horiz-adv-x="1327" unicode="h"/><glyph d="M307 1198q-101 0 -163 59t-62 154q0 94 62 151.5t163 57.5t163 -57.5t62 -151.5q0 -95 -62 -154t-163 -59zM106 0v1090h410v-1090h-410z" glyph-name="i" horiz-adv-x="622" unicode="i"/><glyph d="M307 1198q-101 0 -163 59t-62 154q0 94 62 151.5t163 57.5t163 -57.5t62 -151.5q0 -95 -62 -154t-163 -59zM106 -471v1561h410v-1561h-410z" glyph-name="j" horiz-adv-x="622" unicode="j"/><glyph d="M106 0v1577h410v-1577h-410zM971 600l405 -600h-465l-374 586l317 504h453z" glyph-name="k" horiz-adv-x="1339" unicode="k"/><glyph d="M106 0v1577h410v-1577h-410z" glyph-name="l" horiz-adv-x="622" unicode="l"/><glyph d="M1538 1110q145 0 233.5 -109.5t88.5 -287.5v-713h-410v633q0 71 -34 114.5t-91 43.5q-61 0 -99 -50.5t-38 -132.5v-608h-410v633q0 71 -34 114.5t-91 43.5q-61 0 -99 -50.5t-38 -132.5v-608h-410v1090h410v-166h4q47 84 142 135t204 51q102 0 178 -56t113 -157h4 q57 97 159 155t218 58z" glyph-name="m" horiz-adv-x="1957" unicode="m"/><glyph d="M887 1110q154 0 248 -111t94 -292v-707h-410v627q0 74 -39.5 119t-103.5 45q-72 0 -116 -52t-44 -137v-602h-410v1090h410v-166h4q52 85 152.5 135.5t214.5 50.5z" glyph-name="n" horiz-adv-x="1327" unicode="n"/><glyph d="M664 -20q-274 0 -441.5 155t-167.5 410t167.5 410t441.5 155t441 -155t167 -410t-167 -410t-441 -155zM664 301q86 0 138 67.5t52 176.5q0 111 -52 178.5t-138 67.5t-138.5 -68t-52.5 -178q0 -109 52.5 -176.5t138.5 -67.5z" glyph-name="o" horiz-adv-x="1327" unicode="o"/><glyph d="M870 1110q200 0 322.5 -155t122.5 -410t-123 -410t-324 -155q-114 0 -209.5 50.5t-138.5 133.5h-4v-635h-410v1561h410v-166h4q44 85 140 135.5t210 50.5zM707 299q86 0 138 67.5t52 178.5t-52 178.5t-138 67.5t-138.5 -68t-52.5 -178t52.5 -178t138.5 -68z" glyph-name="p" horiz-adv-x="1374" unicode="p"/><glyph d="M858 1090h410v-1561h-410v635h-4q-43 -83 -138.5 -133.5t-209.5 -50.5q-201 0 -324 155t-123 410t122.5 410t322.5 155q114 0 210 -50.5t140 -135.5h4v166zM668 299q86 0 138 67.5t52 178.5t-52 178.5t-138 67.5t-138.5 -68t-52.5 -178t52.5 -178t138.5 -68z" glyph-name="q" horiz-adv-x="1374" unicode="q"/><glyph d="M829 1110q68 0 123 -20v-371q-82 37 -194 37q-109 0 -175.5 -80.5t-66.5 -212.5v-463h-410v1090h410v-222h4q34 109 118.5 175.5t190.5 66.5z" glyph-name="r" horiz-adv-x="978" unicode="r"/><glyph d="M584 -20q-232 0 -380 98t-159 258h377q3 -51 47.5 -82t114.5 -31q68 0 108.5 25.5t40.5 68.5q0 25 -16.5 43t-51 30t-69 18.5t-88.5 13.5q-48 7 -85.5 14t-85 20t-83 29.5t-71.5 42t-59 57t-37.5 75.5t-14.5 96q0 160 141 257t371 97q221 0 362 -94.5t150 -249.5h-377 q-3 47 -40 75.5t-95 28.5q-56 0 -89.5 -19.5t-33.5 -53.5q0 -22 16.5 -38.5t50 -28.5t68 -19t86.5 -15q48 -7 85 -14.5t85 -21t83.5 -29.5t72.5 -41.5t60.5 -56.5t38.5 -74t15 -94q0 -173 -147.5 -279t-390.5 -106z" glyph-name="s" horiz-adv-x="1175" unicode="s"/><glyph d="M891 807h-291v-416q0 -49 41 -79.5t109 -30.5q82 0 141 32v-278q-56 -25 -131 -40t-142 -15q-192 0 -310 101t-118 265v461h-157v283h178v309h389v-309h291v-283z" glyph-name="t" horiz-adv-x="937" unicode="t"/><glyph d="M645 -20q-247 0 -399 123.5t-152 324.5v662h410v-621q0 -76 39 -123t102 -47t102 47t39 123v621h410v-662q0 -201 -152 -324.5t-399 -123.5z" glyph-name="u" horiz-adv-x="1290" unicode="u"/><glyph d="M838 1090h413l-385 -1090h-479l-387 1090h424l207 -719h4z" glyph-name="v" horiz-adv-x="1251" unicode="v"/><glyph d="M1352 1090h413l-333 -1090h-418l-129 655h-4l-125 -655h-418l-336 1090h424l135 -658h4l131 658h385l136 -658h4z" glyph-name="w" horiz-adv-x="1767" unicode="w"/><glyph d="M-23 0l406 569l-358 521h450l137 -238h4l144 238h430l-363 -515l406 -575h-467l-170 287h-4l-178 -287h-437z" glyph-name="x" horiz-adv-x="1210" unicode="x"/><glyph d="M838 1090h413l-551 -1561h-393l125 354l-432 1207h424l207 -719h4z" glyph-name="y" horiz-adv-x="1251" unicode="y"/><glyph d="M535 303h546v-303h-1022v317l504 465v4h-471v304h959v-318l-516 -465v-4z" glyph-name="z" horiz-adv-x="1140" unicode="z"/><glyph d="M600 868q0 -198 -170 -313v-4q170 -115 170 -313v-228q0 -67 41 -108t107 -41v-332q-258 0 -416 138t-158 364v227q0 59 -34 94t-91 35v332q57 0 91 35t34 94v227q0 226 158 364t416 138v-332q-66 0 -107 -41t-41 -108v-228z" glyph-name="braceleft" horiz-adv-x="821" unicode="{"/><glyph d="M135 -471v2253h289v-2253h-289z" glyph-name="bar" horiz-adv-x="559" unicode="|"/><glyph d="M647 848q0 -59 34 -94t91 -35v-332q-57 0 -91 -35t-34 -94v-227q0 -226 -157.5 -364t-415.5 -138v332q66 0 106.5 41t40.5 108v228q0 198 170 313v4q-170 115 -170 313v228q0 67 -40.5 108t-106.5 41v332q258 0 415.5 -138t157.5 -364v-227z" glyph-name="braceright" horiz-adv-x="821" unicode="}"/><glyph d="M86 311q3 178 94 277.5t248 99.5q114 0 266.5 -36t225.5 -36q41 0 67.5 21.5t32.5 58.5h156q-3 -178 -94 -277.5t-248 -99.5q-114 0 -266.5 36t-225.5 36q-41 0 -67.5 -21.5t-32.5 -58.5h-156z" glyph-name="asciitilde" horiz-adv-x="1265" unicode="~"/><glyph glyph-name="uni00A0" horiz-adv-x="432"/><glyph d="M309 649q-107 0 -173 64t-66 168q0 103 66 166t173 63t172.5 -63t65.5 -166q0 -104 -65.5 -168t-172.5 -64zM86 -471l84 993h276l84 -993h-444z" glyph-name="exclamdown" horiz-adv-x="616" unicode="¡"/><glyph d="M735 508q50 14 82 47t39 80h399q-22 -192 -163.5 -315t-356.5 -138v-182h-112v182q-250 17 -399.5 169.5t-149.5 393.5t149.5 394t399.5 170v166h112v-166q215 -15 356.5 -141t163.5 -322h-399q-7 52 -39 87.5t-82 49.5v-475zM492 745q0 -90 35 -152.5t96 -82.5v473 q-61 -22 -96 -85t-35 -153z" glyph-name="cent" horiz-adv-x="1312" unicode="¢"/><glyph d="M563 326h795v-326h-1280v342q220 84 260 250h-221v299h143q-31 52 -49 86.5t-34.5 84.5t-16.5 93q0 199 160.5 320.5t424.5 121.5q248 0 412 -144t186 -380h-411q-9 86 -58.5 138.5t-121.5 52.5q-58 0 -93.5 -36t-35.5 -95q0 -18 5.5 -39.5t12 -37.5t21.5 -42t23 -38.5 t28.5 -43.5t27.5 -41h385v-299h-333q-47 -144 -230 -262v-4z" glyph-name="sterling" horiz-adv-x="1423" unicode="£"/><glyph d="M1245 401l-254 -254l-125 127q-90 -34 -204 -34q-121 0 -209 36l-127 -126l-252 251l125 127q-27 83 -27 162q0 90 27 160l-127 129l254 254l127 -129q90 37 209 37q113 0 206 -35l123 125l252 -252l-121 -123q29 -79 29 -166q0 -84 -29 -166zM659 506q75 0 120.5 50.5 t45.5 133.5t-45.5 133.5t-120.5 50.5q-74 0 -118.5 -50.5t-44.5 -133.5t44.5 -133.5t118.5 -50.5z" glyph-name="currency" horiz-adv-x="1316" unicode="¤"/><glyph d="M1657 1577l-596 -1028h287v-105h-299v-100h299v-104h-299v-240h-428v240h-281v104h281v100h-281v105h272l-581 1028h489l338 -666h4l336 666h459z" glyph-name="yen" horiz-adv-x="1685" unicode="¥"/><glyph d="M135 860v922h289v-922h-289zM135 -471v922h289v-922h-289z" glyph-name="brokenbar" horiz-adv-x="559" unicode="¦"/><glyph d="M1274 258q139 -84 139 -233q0 -232 -184.5 -374.5t-485.5 -142.5q-277 0 -464 144t-216 379h422q15 -86 89 -138.5t180 -52.5q101 0 163 36.5t62 96.5q0 73 -94 129q-61 -6 -125 -6q-294 0 -474 129.5t-180 341.5q0 183 140 310q-140 84 -140 237q0 218 175 350.5 t462 132.5q254 0 426 -136.5t201 -360.5h-422q-9 75 -72 120.5t-157 45.5q-80 0 -129 -31t-49 -82q0 -35 30 -66t84 -53q66 4 105 4q293 0 473 -129.5t180 -341.5q0 -183 -139 -309zM541 567q0 -63 60.5 -101t158.5 -38t158.5 38t60.5 101t-60.5 101.5t-158.5 38.5 t-158.5 -38.5t-60.5 -101.5z" glyph-name="section" horiz-adv-x="1492" unicode="§"/><glyph d="M315 1190q-95 0 -153 56t-58 147q0 89 58 143.5t153 54.5q94 0 151.5 -54.5t57.5 -143.5q0 -91 -57.5 -147t-151.5 -56zM801 1190q-95 0 -153 56t-58 147q0 89 58 143.5t153 54.5q94 0 151.5 -54.5t57.5 -143.5q0 -91 -57.5 -147t-151.5 -56z" glyph-name="dieresis" horiz-adv-x="1114" unicode="¨"/><glyph d="M907 -20q-249 0 -440 100.5t-295 284t-104 423.5q0 180 60.5 330.5t169.5 256t265.5 164t343.5 58.5q249 0 440 -100.5t295.5 -284.5t104.5 -424t-104.5 -423.5t-295.5 -284t-440 -100.5zM907 205q263 0 423.5 160.5t160.5 422.5q0 264 -160.5 425t-423.5 161t-423 -161 t-160 -425q0 -262 160 -422.5t423 -160.5zM913 377q-195 0 -313.5 112t-118.5 295t118.5 295.5t313.5 112.5q173 0 286.5 -95.5t127.5 -250.5h-317q-4 41 -31.5 66.5t-65.5 25.5q-44 0 -71 -42.5t-27 -111.5q0 -68 27 -109.5t71 -41.5q37 0 63 22.5t32 59.5h319 q-13 -152 -127.5 -245t-286.5 -93z" glyph-name="copyright" horiz-adv-x="1814" unicode="©"/><glyph d="M754 1135q12 0 28 4v-172q-69 -27 -155 -27q-55 0 -92.5 25.5t-51.5 70.5h-4q-34 -46 -90.5 -71t-124.5 -25q-94 0 -150.5 48t-56.5 128q0 33 9 60t21 46t38 36t47 27t62 21.5t68.5 18t81 18t85.5 19.5v18q0 28 -15.5 45t-41.5 17q-34 0 -54 -18.5t-20 -47.5l-246 13 q3 94 93 151t235 57q136 0 219.5 -64.5t83.5 -170.5v-186q0 -19 8.5 -30t22.5 -11zM367 1098q102 0 102 90v35q-41 -10 -61.5 -16t-47.5 -16.5t-39 -23t-12 -28.5q0 -19 16 -30t42 -11z" glyph-name="ordfeminine" horiz-adv-x="847" unicode="ª"/><glyph d="M686 180h-399l-238 352l238 353h399l-223 -353zM1223 180h-400l-237 352l237 353h400l-224 -353z" glyph-name="guillemotleft" horiz-adv-x="1310" unicode="«"/><glyph d="M90 836h922v-615h-410v311h-512v304z" glyph-name="logicalnot" horiz-adv-x="1126" unicode="¬"/><glyph d="M102 412v282h721v-282h-721z" glyph-name="uni00AD" horiz-adv-x="925" unicode="­"/><glyph d="M532 1597q211 0 339 -118t128 -312t-128 -312t-339 -118t-338.5 118t-127.5 312t127.5 312t338.5 118zM532 844q154 0 248 88.5t94 234.5t-94 235t-248 89t-248 -89t-94 -235t94 -234.5t248 -88.5zM733 1235q0 -70 -71 -102l100 -164h-156l-82 139h-53v-139h-145v397h219 q85 0 136.5 -36t51.5 -95zM471 1257v-59h80q15 0 24 8.5t9 20.5q0 14 -9 22t-24 8h-80z" glyph-name="registered" horiz-adv-x="1064" unicode="®"/><glyph d="M29 1243v293h772v-293h-772z" glyph-name="macron" horiz-adv-x="829" unicode="¯"/><glyph d="M375 1008q-148 0 -238 81.5t-90 213.5t90 213t238 81q146 0 235.5 -81t89.5 -213t-89.5 -213.5t-235.5 -81.5zM373 1194q41 0 66.5 30t25.5 79t-25.5 78.5t-66.5 29.5q-40 0 -65 -29.5t-25 -78.5t25 -79t65 -30z" glyph-name="degree" horiz-adv-x="749" unicode="°"/><glyph d="M768 887h256v-303h-256v-170h-410v170h-256v303h256v172h410v-172zM102 0v303h922v-303h-922z" glyph-name="plusminus" horiz-adv-x="1126" unicode="±"/><glyph d="M49 1171l180 365h412l-289 -365h-303z" glyph-name="acute" horiz-adv-x="602" unicode="´"/><glyph d="M1432 1577v-2048h-318v1745h-250v-1745h-317v1057q-224 0 -361 136.5t-137 360.5q0 223 137 358.5t361 135.5h885z" glyph-name="paragraph" horiz-adv-x="1601" unicode="¶"/><glyph d="M311 338q-107 0 -173 63.5t-66 167.5q0 103 66 166.5t173 63.5t172.5 -63.5t65.5 -166.5q0 -104 -65.5 -167.5t-172.5 -63.5z" glyph-name="periodcentered" horiz-adv-x="622" unicode="·"/><glyph d="M395 -94q95 0 153 -48.5t58 -127.5q0 -100 -90.5 -161t-239.5 -61q-150 0 -241 48v143q97 -51 188 -51q58 0 94.5 19t36.5 50q0 26 -17 42t-46 16q-46 0 -74 -35l-108 74l143 272l143 -86l-63 -100l4 -2q27 8 59 8z" glyph-name="cedilla" horiz-adv-x="665" unicode="¸"/><glyph d="M418 940q-167 0 -269 90t-102 238q0 149 101.5 239t269.5 90q166 0 267 -90t101 -239q0 -148 -101 -238t-267 -90zM418 1149q43 0 69.5 32.5t26.5 86.5t-26.5 87.5t-69.5 33.5t-69.5 -33.5t-26.5 -87.5t26.5 -86.5t69.5 -32.5z" glyph-name="ordmasculine" horiz-adv-x="833" unicode="º"/><glyph d="M88 180l223 352l-223 353h399l238 -353l-238 -352h-399zM625 180l223 352l-223 353h399l238 -353l-238 -352h-399z" glyph-name="guillemotright" horiz-adv-x="1310" unicode="»"/><glyph d="M254 692v547h-201v176q122 0 189 38.5t100 123.5h190v-885h-278zM1282 1577h293l-1069 -1577h-293zM1921 369v-209h-119v-160h-278v160h-414v219l354 506h338v-516h119zM1530 616l-174 -245v-2h176v247h-2z" glyph-name="onequarter" horiz-adv-x="1980" unicode="¼"/><glyph d="M254 692v547h-201v176q122 0 189 38.5t100 123.5h190v-885h-278zM1282 1577h293l-1069 -1577h-293zM1497 209h445v-209h-732v219q191 101 299.5 209.5t108.5 196.5q0 57 -53 57q-32 0 -52.5 -22t-25.5 -60h-268q14 141 106 219t246 78q164 0 256 -73t92 -203 q0 -68 -41 -135.5t-105.5 -120t-135.5 -92t-140 -62.5v-2z" glyph-name="onehalf" horiz-adv-x="2009" unicode="½"/><glyph d="M786 954q0 -129 -99 -201.5t-277 -72.5q-152 0 -246 77.5t-109 215.5h269q3 -37 26.5 -57.5t63.5 -20.5t62 20.5t22 57.5q0 36 -26 57t-71 21h-18v182h18q34 0 53 20t19 54q0 67 -63 67q-31 0 -50 -20t-22 -56h-262q13 138 103.5 214.5t238.5 76.5q163 0 253.5 -69.5 t90.5 -194.5q0 -120 -135 -178v-2q159 -58 159 -191zM1499 1577h293l-1069 -1577h-293zM2138 369v-209h-119v-160h-278v160h-414v219l354 506h338v-516h119zM1747 616l-174 -245v-2h176v247h-2z" glyph-name="threequarters" horiz-adv-x="2193" unicode="¾"/><glyph d="M598 649q-107 0 -173.5 64t-66.5 168q0 103 66.5 166t173.5 63t172.5 -63t65.5 -166q0 -104 -65.5 -168t-172.5 -64zM553 -492q-252 0 -405.5 108.5t-153.5 287.5q0 35 12.5 70.5t29 62.5t47.5 62.5t53 56t62 58t58 54.5q49 48 70 69.5t53 59t44.5 66t12.5 55.5h322v-12 q0 -162 -166 -354q-8 -10 -33.5 -39t-35 -40.5t-27.5 -35.5t-25 -38.5t-13.5 -34t-6.5 -36.5q0 -40 33 -64t87 -24q60 0 100 32.5t46 86.5h403q-19 -203 -175 -327t-392 -124z" glyph-name="questiondown" horiz-adv-x="1103" unicode="¿"/><glyph d="M975 1675h-303l-289 365h412zM1130 0l-98 305h-532l-99 -305h-424l570 1577h467l567 -1577h-451zM602 629h328l-162 506h-4z" glyph-name="Agrave" horiz-adv-x="1558" unicode="À"/><glyph d="M1176 2040l-289 -365h-303l180 365h412zM1130 0l-98 305h-532l-99 -305h-424l570 1577h467l567 -1577h-451zM602 629h328l-162 506h-4z" glyph-name="Aacute" horiz-adv-x="1558" unicode="Á"/><glyph d="M776 1835l-100 -160h-303l221 365h369l221 -365h-303l-101 160h-4zM1130 0l-98 305h-532l-99 -305h-424l570 1577h467l567 -1577h-451zM602 629h328l-162 506h-4z" glyph-name="Acircumflex" horiz-adv-x="1558" unicode="Â"/><glyph d="M612 1765q-41 0 -67.5 -21t-32.5 -58h-156q3 178 83 277t218 99q68 0 158 -35.5t133 -35.5q41 0 68 21.5t33 58.5h155q-3 -178 -83 -277.5t-218 -99.5q-68 0 -158 35.5t-133 35.5zM1130 0l-98 305h-532l-99 -305h-424l570 1577h467l567 -1577h-451zM602 629h328l-162 506 h-4z" glyph-name="Atilde" horiz-adv-x="1558" unicode="Ã"/><glyph d="M539 1657q-95 0 -153 56t-58 147q0 89 58 143.5t153 54.5q94 0 151.5 -54.5t57.5 -143.5q0 -91 -57.5 -147t-151.5 -56zM1024 1657q-95 0 -153 56t-58 147q0 89 58 143.5t153 54.5q94 0 151.5 -54.5t57.5 -143.5q0 -91 -57.5 -147t-151.5 -56zM1130 0l-98 305h-532 l-99 -305h-424l570 1577h467l567 -1577h-451zM602 629h328l-162 506h-4z" glyph-name="Adieresis" horiz-adv-x="1558" unicode="Ä"/><glyph d="M778 1663q-135 0 -217 72t-82 190t82 190t217 72t217 -72t82 -190t-82 -190t-217 -72zM778 2017q-38 0 -61 -25.5t-23 -66.5t23 -66.5t61 -25.5t61 25.5t23 66.5t-23 66.5t-61 25.5zM1130 0l-98 305h-532l-99 -305h-424l570 1577h467l567 -1577h-451zM602 629h328 l-162 506h-4z" glyph-name="Aring" horiz-adv-x="1558" unicode="Å"/><glyph d="M1485 326h778v-326h-1171l-39 305h-523l-151 -305h-424l770 1577h1516v-326h-912l47 -284h791v-324h-735zM692 631h320l-66 504h-4z" glyph-name="AE" horiz-adv-x="2340" unicode="Æ"/><glyph d="M885 313q147 0 243.5 79t108.5 208h416q-20 -262 -209 -430t-483 -188l-54 -82l4 -2q27 8 60 8q95 0 153 -48.5t58 -127.5q0 -100 -90.5 -161t-239.5 -61q-68 0 -134.5 13t-107.5 35v143q97 -51 189 -51q58 0 94.5 19t36.5 50q0 26 -17.5 42t-46.5 16q-45 0 -73 -35 l-109 74l90 172q-325 34 -518 250t-193 552q0 240 102 424t289 284.5t431 100.5q324 0 535 -171.5t233 -454.5h-416q-12 132 -108.5 212.5t-243.5 80.5q-170 0 -274.5 -131t-104.5 -345t104.5 -344.5t274.5 -130.5z" glyph-name="Ccedilla" horiz-adv-x="1701" unicode="Ç"/><glyph d="M936 1675h-303l-289 365h412zM561 326h805v-326h-1233v1577h1208v-326h-780v-284h707v-326h-707v-315z" glyph-name="Egrave" horiz-adv-x="1441" unicode="È"/><glyph d="M1137 2040l-289 -365h-303l180 365h412zM561 326h805v-326h-1233v1577h1208v-326h-780v-284h707v-326h-707v-315z" glyph-name="Eacute" horiz-adv-x="1441" unicode="É"/><glyph d="M737 1835l-100 -160h-303l221 365h369l221 -365h-303l-101 160h-4zM561 326h805v-326h-1233v1577h1208v-326h-780v-284h707v-326h-707v-315z" glyph-name="Ecircumflex" horiz-adv-x="1441" unicode="Ê"/><glyph d="M500 1657q-95 0 -153 56t-58 147q0 89 58 143.5t153 54.5q94 0 151.5 -54.5t57.5 -143.5q0 -91 -57.5 -147t-151.5 -56zM985 1657q-95 0 -153 56t-58 147q0 89 58 143.5t153 54.5q94 0 151.5 -54.5t57.5 -143.5q0 -91 -57.5 -147t-151.5 -56zM561 326h805v-326h-1233 v1577h1208v-326h-780v-284h707v-326h-707v-315z" glyph-name="Edieresis" horiz-adv-x="1441" unicode="Ë"/><glyph d="M543 1675h-303l-289 365h411zM133 0v1577h428v-1577h-428z" glyph-name="Igrave" horiz-adv-x="694" unicode="Ì"/><glyph d="M152 1675l180 365h411l-288 -365h-303zM133 0v1577h428v-1577h-428z" glyph-name="Iacute" horiz-adv-x="694" unicode="Í"/><glyph d="M344 1835l-100 -160h-303l221 365h368l222 -365h-303l-101 160h-4zM133 0v1577h428v-1577h-428z" glyph-name="Icircumflex" horiz-adv-x="694" unicode="Î"/><glyph d="M106 1657q-95 0 -152.5 56t-57.5 147q0 89 57.5 143.5t152.5 54.5q94 0 151.5 -54.5t57.5 -143.5q0 -91 -57.5 -147t-151.5 -56zM592 1657q-95 0 -153 56t-58 147q0 89 58 143.5t153 54.5q94 0 151.5 -54.5t57.5 -143.5q0 -91 -57.5 -147t-151.5 -56zM133 0v1577h428 v-1577h-428z" glyph-name="Idieresis" horiz-adv-x="694" unicode="Ï"/><glyph d="M731 1577q250 0 442 -98t297 -277.5t105 -413.5t-105 -413t-297 -277t-442 -98h-573v659h-121v283h121v635h573zM752 326q170 0 274 126.5t104 335.5t-104 336t-274 127h-166v-309h288v-283h-288v-333h166z" glyph-name="Eth" horiz-adv-x="1636" unicode="Ð"/><glyph d="M662 1765q-41 0 -68 -21t-33 -58h-155q3 178 83 277t218 99q68 0 157.5 -35.5t132.5 -35.5q41 0 68 21.5t33 58.5h155q-3 -178 -83 -277.5t-218 -99.5q-68 0 -157.5 35.5t-132.5 35.5zM1114 1577h406v-1577h-398l-592 922h-4l13 -922h-406v1577h397l592 -924h4z" glyph-name="Ntilde" horiz-adv-x="1652" unicode="Ñ"/><glyph d="M1083 1675h-303l-288 365h411zM887 -20q-245 0 -432 100.5t-289.5 284t-102.5 423.5t102.5 424t290 284.5t431.5 100.5q183 0 336.5 -58.5t260.5 -164t166.5 -256t59.5 -330.5q0 -240 -102 -423.5t-289 -284t-432 -100.5zM887 313q172 0 276.5 130.5t104.5 344.5 t-104.5 345t-276.5 131t-276.5 -131t-104.5 -345t104.5 -344.5t276.5 -130.5z" glyph-name="Ograve" horiz-adv-x="1773" unicode="Ò"/><glyph d="M692 1675l180 365h412l-289 -365h-303zM887 -20q-245 0 -432 100.5t-289.5 284t-102.5 423.5t102.5 424t290 284.5t431.5 100.5q183 0 336.5 -58.5t260.5 -164t166.5 -256t59.5 -330.5q0 -240 -102 -423.5t-289 -284t-432 -100.5zM887 313q172 0 276.5 130.5t104.5 344.5 t-104.5 345t-276.5 131t-276.5 -131t-104.5 -345t104.5 -344.5t276.5 -130.5z" glyph-name="Oacute" horiz-adv-x="1773" unicode="Ó"/><glyph d="M885 1835l-101 -160h-303l221 365h369l221 -365h-303l-100 160h-4zM887 1597q183 0 336.5 -58.5t260.5 -164t166.5 -256t59.5 -330.5q0 -240 -102 -423.5t-289 -284t-432 -100.5t-432 100.5t-289.5 284t-102.5 423.5t102.5 424t290 284.5t431.5 100.5zM887 313 q172 0 276.5 130.5t104.5 344.5t-104.5 345t-276.5 131t-276.5 -131t-104.5 -345t104.5 -344.5t276.5 -130.5z" glyph-name="Ocircumflex" horiz-adv-x="1773" unicode="Ô"/><glyph d="M465 1686q3 178 83 277t218 99q68 0 158 -35.5t133 -35.5q41 0 67.5 21.5t32.5 58.5h156q-3 -178 -83 -277.5t-218 -99.5q-68 0 -158 35.5t-133 35.5q-41 0 -67.5 -21t-32.5 -58h-156zM887 -20q-245 0 -432 100.5t-289.5 284t-102.5 423.5t102.5 424t290 284.5 t431.5 100.5q183 0 336.5 -58.5t260.5 -164t166.5 -256t59.5 -330.5q0 -240 -102 -423.5t-289 -284t-432 -100.5zM887 313q172 0 276.5 130.5t104.5 344.5t-104.5 345t-276.5 131t-276.5 -131t-104.5 -345t104.5 -344.5t276.5 -130.5z" glyph-name="Otilde" horiz-adv-x="1773" unicode="Õ"/><glyph d="M647 1657q-95 0 -153 56t-58 147q0 89 58 143.5t153 54.5q94 0 151.5 -54.5t57.5 -143.5q0 -91 -57.5 -147t-151.5 -56zM1133 1657q-95 0 -153 56t-58 147q0 89 58 143.5t153 54.5q94 0 151 -54.5t57 -143.5q0 -91 -57 -147t-151 -56zM887 -20q-245 0 -432 100.5 t-289.5 284t-102.5 423.5t102.5 424t290 284.5t431.5 100.5q183 0 336.5 -58.5t260.5 -164t166.5 -256t59.5 -330.5q0 -240 -102 -423.5t-289 -284t-432 -100.5zM887 313q172 0 276.5 130.5t104.5 344.5t-104.5 345t-276.5 131t-276.5 -131t-104.5 -345t104.5 -344.5 t276.5 -130.5z" glyph-name="Odieresis" horiz-adv-x="1773" unicode="Ö"/><glyph d="M1028 748l-215 -216l215 -217l-266 -266l-215 215l-215 -215l-269 266l218 217l-218 216l269 266l215 -215l215 215z" glyph-name="multiply" horiz-adv-x="1091" unicode="×"/><glyph d="M1382 1456q156 -106 241 -277.5t85 -390.5q0 -240 -102 -423.5t-289 -284t-432 -100.5q-214 0 -389 79l-95 -147l-106 63l92 146q-155 105 -240.5 277.5t-85.5 389.5q0 240 102.5 424t290 284.5t431.5 100.5q214 0 389 -79l92 145l107 -64zM504 788q0 -201 96 -333 l477 753q-83 56 -192 56q-172 0 -276.5 -131t-104.5 -345zM885 313q172 0 276.5 130.5t104.5 344.5q0 204 -97 334l-479 -753q83 -56 195 -56z" glyph-name="Oslash" horiz-adv-x="1769" unicode="Ø"/><glyph d="M995 1675h-303l-289 365h412zM786 -20q-301 0 -485 167t-184 441v989h428v-1008q0 -115 70 -185.5t184 -70.5t184 70.5t70 185.5v1008h405v-989q0 -274 -185 -441t-487 -167z" glyph-name="Ugrave" horiz-adv-x="1574" unicode="Ù"/><glyph d="M604 1675l180 365h412l-289 -365h-303zM786 -20q-301 0 -485 167t-184 441v989h428v-1008q0 -115 70 -185.5t184 -70.5t184 70.5t70 185.5v1008h405v-989q0 -274 -185 -441t-487 -167z" glyph-name="Uacute" horiz-adv-x="1574" unicode="Ú"/><glyph d="M797 1835l-101 -160h-303l221 365h369l221 -365h-303l-100 160h-4zM1053 1577h405v-989q0 -274 -185 -441t-487 -167q-301 0 -485 167t-184 441v989h428v-1008q0 -115 70 -185.5t184 -70.5t184 70.5t70 185.5v1008z" glyph-name="Ucircumflex" horiz-adv-x="1574" unicode="Û"/><glyph d="M559 1657q-95 0 -153 56t-58 147q0 89 58 143.5t153 54.5q94 0 151.5 -54.5t57.5 -143.5q0 -91 -57.5 -147t-151.5 -56zM1044 1657q-95 0 -152.5 56t-57.5 147q0 89 57.5 143.5t152.5 54.5q94 0 151.5 -54.5t57.5 -143.5q0 -91 -57.5 -147t-151.5 -56zM786 -20 q-301 0 -485 167t-184 441v989h428v-1008q0 -115 70 -185.5t184 -70.5t184 70.5t70 185.5v1008h405v-989q0 -274 -185 -441t-487 -167z" glyph-name="Udieresis" horiz-adv-x="1574" unicode="Ü"/><glyph d="M1196 2040l-289 -365h-303l180 365h412zM1593 1577l-608 -1049v-528h-428v535l-590 1042h490l338 -666h4l336 666h458z" glyph-name="Yacute" horiz-adv-x="1560" unicode="Ý"/><glyph d="M770 1335q290 0 467.5 -142.5t177.5 -375.5t-177.5 -375.5t-467.5 -142.5h-209v-299h-428v1577h428v-242h209zM788 623q83 0 134 53t51 141q0 86 -51 139.5t-134 53.5h-227v-387h227z" glyph-name="Thorn" horiz-adv-x="1464" unicode="Þ"/><glyph d="M1018 883q150 -53 233.5 -158.5t83.5 -245.5q0 -224 -142 -361.5t-374 -137.5q-120 0 -201 24v301q70 -4 80 -4q98 0 159 60.5t61 158.5q0 100 -64 160.5t-168 60.5h-43v258q73 0 118.5 39.5t45.5 104.5q0 60 -37 96.5t-98 36.5q-70 0 -113 -43.5t-43 -114.5v-1118h-410 v1104q0 222 155 357.5t409 135.5q250 0 402.5 -113.5t152.5 -299.5q0 -94 -54 -170.5t-153 -126.5v-4z" glyph-name="germandbls" horiz-adv-x="1386" unicode="ß"/><glyph d="M895 1212h-303l-289 365h412zM858 1090h410v-1090h-410v164h-4q-43 -83 -139.5 -133.5t-210.5 -50.5q-200 0 -322.5 155t-122.5 410t123 410t324 155q113 0 208.5 -51t139.5 -135h4v166zM668 299q86 0 138 67.5t52 178.5t-52 178.5t-138 67.5t-138.5 -68t-52.5 -178 t52.5 -178t138.5 -68z" glyph-name="agrave" horiz-adv-x="1374" unicode="à"/><glyph d="M1096 1577l-289 -365h-303l180 365h412zM858 1090h410v-1090h-410v164h-4q-43 -83 -139.5 -133.5t-210.5 -50.5q-200 0 -322.5 155t-122.5 410t123 410t324 155q113 0 208.5 -51t139.5 -135h4v166zM668 299q86 0 138 67.5t52 178.5t-52 178.5t-138 67.5t-138.5 -68 t-52.5 -178t52.5 -178t138.5 -68z" glyph-name="aacute" horiz-adv-x="1374" unicode="á"/><glyph d="M696 1372l-100 -160h-303l221 365h369l221 -365h-303l-101 160h-4zM858 1090h410v-1090h-410v164h-4q-43 -83 -139.5 -133.5t-210.5 -50.5q-200 0 -322.5 155t-122.5 410t123 410t324 155q113 0 208.5 -51t139.5 -135h4v166zM668 299q86 0 138 67.5t52 178.5t-52 178.5 t-138 67.5t-138.5 -68t-52.5 -178t52.5 -178t138.5 -68z" glyph-name="acircumflex" horiz-adv-x="1374" unicode="â"/><glyph d="M532 1327q-41 0 -67.5 -21.5t-32.5 -58.5h-156q3 178 83.5 277.5t218.5 99.5q68 0 157.5 -36t132.5 -36q41 0 68 21.5t33 58.5h155q-3 -178 -83 -277.5t-218 -99.5q-68 0 -158 36t-133 36zM858 1090h410v-1090h-410v164h-4q-43 -83 -139.5 -133.5t-210.5 -50.5 q-200 0 -322.5 155t-122.5 410t123 410t324 155q113 0 208.5 -51t139.5 -135h4v166zM668 299q86 0 138 67.5t52 178.5t-52 178.5t-138 67.5t-138.5 -68t-52.5 -178t52.5 -178t138.5 -68z" glyph-name="atilde" horiz-adv-x="1374" unicode="ã"/><glyph d="M459 1210q-95 0 -153 56t-58 147q0 89 58 144t153 55q94 0 151.5 -55t57.5 -144q0 -91 -57.5 -147t-151.5 -56zM944 1210q-95 0 -153 56t-58 147q0 89 58 144t153 55q94 0 151.5 -55t57.5 -144q0 -91 -57.5 -147t-151.5 -56zM858 1090h410v-1090h-410v164h-4 q-43 -83 -139.5 -133.5t-210.5 -50.5q-200 0 -322.5 155t-122.5 410t123 410t324 155q113 0 208.5 -51t139.5 -135h4v166zM668 299q86 0 138 67.5t52 178.5t-52 178.5t-138 67.5t-138.5 -68t-52.5 -178t52.5 -178t138.5 -68z" glyph-name="adieresis" horiz-adv-x="1374" unicode="ä"/><glyph d="M698 1176q-135 0 -217 72t-82 190t82 190t217 72t217 -72t82 -190t-82 -190t-217 -72zM698 1530q-38 0 -61 -25.5t-23 -66.5t23 -66.5t61 -25.5t61 25.5t23 66.5t-23 66.5t-61 25.5zM858 1090h410v-1090h-410v164h-4q-43 -83 -139.5 -133.5t-210.5 -50.5 q-200 0 -322.5 155t-122.5 410t123 410t324 155q113 0 208.5 -51t139.5 -135h4v166zM668 299q86 0 138 67.5t52 178.5t-52 178.5t-138 67.5t-138.5 -68t-52.5 -178t52.5 -178t138.5 -68z" glyph-name="aring" horiz-adv-x="1374" unicode="å"/><glyph d="M1894 526v-45h-772q20 -219 203 -219q63 0 111.5 33.5t60.5 87.5h393q-31 -182 -178 -292.5t-358 -110.5q-134 0 -242 53t-178 151h-4q-68 -99 -184 -151.5t-271 -52.5q-195 0 -314.5 83t-119.5 218q0 45 9 82.5t22.5 67t40 55.5t51 44.5t67.5 36.5t76.5 30t90.5 27 t98.5 24.5t111 25.5t117.5 28v41q0 57 -31.5 91t-83.5 34q-62 0 -98.5 -34t-36.5 -91h-377q5 164 139 265.5t349 101.5q262 0 368 -170h4q69 82 170.5 126t225.5 44q243 0 391.5 -160.5t148.5 -423.5zM1315 842q-67 0 -116 -48t-69 -132h359q-19 84 -64.5 132t-109.5 48z M535 240q86 0 138 50.5t52 135.5v74q-159 -42 -205 -62q-94 -42 -94 -108q0 -40 30 -65t79 -25z" glyph-name="ae" horiz-adv-x="1951" unicode="æ"/><glyph d="M659 301q71 0 120.5 36.5t58.5 96.5h399q-22 -187 -158 -308.5t-344 -141.5l-53 -84l4 -2q27 8 59 8q95 0 153 -48.5t58 -127.5q0 -100 -90 -161t-239 -61q-68 0 -134.5 13t-107.5 35v143q97 -51 188 -51q59 0 95.5 19t36.5 50q0 26 -17.5 42t-46.5 16q-46 0 -74 -35 l-108 74l90 174q-226 31 -360 180.5t-134 376.5q0 255 166 410t438 155q236 0 395.5 -128t182.5 -337h-399q-9 66 -58 106t-121 40q-84 0 -135 -67.5t-51 -178.5q0 -109 51 -176.5t135 -67.5z" glyph-name="ccedilla" horiz-adv-x="1284" unicode="ç"/><glyph d="M850 1212h-303l-289 365h412zM1243 526v-45h-790q14 -100 67.5 -159.5t132.5 -59.5q68 0 121 33.5t70 87.5h395q-34 -182 -195 -292.5t-391 -110.5q-269 0 -433.5 156t-164.5 411q0 253 164.5 408t433.5 155q265 0 427.5 -160.5t162.5 -423.5zM653 842q-70 0 -120 -48 t-72 -132h377q-20 84 -69 132t-116 48z" glyph-name="egrave" horiz-adv-x="1300" unicode="è"/><glyph d="M1051 1577l-289 -365h-303l180 365h412zM1243 526v-45h-790q14 -100 67.5 -159.5t132.5 -59.5q68 0 121 33.5t70 87.5h395q-34 -182 -195 -292.5t-391 -110.5q-269 0 -433.5 156t-164.5 411q0 253 164.5 408t433.5 155q265 0 427.5 -160.5t162.5 -423.5zM653 842 q-70 0 -120 -48t-72 -132h377q-20 84 -69 132t-116 48z" glyph-name="eacute" horiz-adv-x="1300" unicode="é"/><glyph d="M651 1372l-100 -160h-303l221 365h369l221 -365h-303l-101 160h-4zM1243 526v-45h-790q14 -100 67.5 -159.5t132.5 -59.5q68 0 121 33.5t70 87.5h395q-34 -182 -195 -292.5t-391 -110.5q-269 0 -433.5 156t-164.5 411q0 253 164.5 408t433.5 155q265 0 427.5 -160.5 t162.5 -423.5zM653 842q-70 0 -120 -48t-72 -132h377q-20 84 -69 132t-116 48z" glyph-name="ecircumflex" horiz-adv-x="1300" unicode="ê"/><glyph d="M414 1210q-95 0 -153 56t-58 147q0 89 58 144t153 55q94 0 151.5 -55t57.5 -144q0 -91 -57.5 -147t-151.5 -56zM899 1210q-95 0 -153 56t-58 147q0 89 58 144t153 55q94 0 151.5 -55t57.5 -144q0 -91 -57.5 -147t-151.5 -56zM1243 526v-45h-790q14 -100 67.5 -159.5 t132.5 -59.5q68 0 121 33.5t70 87.5h395q-34 -182 -195 -292.5t-391 -110.5q-269 0 -433.5 156t-164.5 411q0 253 164.5 408t433.5 155q265 0 427.5 -160.5t162.5 -423.5zM653 842q-70 0 -120 -48t-72 -132h377q-20 84 -69 132t-116 48z" glyph-name="edieresis" horiz-adv-x="1300" unicode="ë"/><glyph d="M506 1212h-303l-289 365h412zM106 0v1090h410v-1090h-410z" glyph-name="igrave" horiz-adv-x="622" unicode="ì"/><glyph d="M115 1212l180 365h412l-289 -365h-303zM106 0v1090h410v-1090h-410z" glyph-name="iacute" horiz-adv-x="622" unicode="í"/><glyph d="M307 1372l-100 -160h-303l221 365h369l221 -365h-303l-101 160h-4zM106 0v1090h410v-1090h-410z" glyph-name="icircumflex" horiz-adv-x="622" unicode="î"/><glyph d="M70 1210q-95 0 -153 56t-58 147q0 89 58 144t153 55q94 0 151.5 -55t57.5 -144q0 -91 -57.5 -147t-151.5 -56zM555 1210q-95 0 -153 56t-58 147q0 89 58 144t153 55q94 0 151.5 -55t57.5 -144q0 -91 -57.5 -147t-151.5 -56zM106 0v1090h410v-1090h-410z" glyph-name="idieresis" horiz-adv-x="622" unicode="ï"/><glyph d="M911 1329q192 -126 274.5 -302.5t82.5 -434.5q0 -275 -167.5 -443.5t-441.5 -168.5q-273 0 -439.5 143.5t-166.5 378.5t143.5 378.5t376.5 143.5q167 0 287 -63q-62 142 -239 219l-363 -185l-113 183l191 98q-79 19 -191 45l80 276q278 -70 457 -145l285 145l112 -182z M662 301q86 0 138 55t52 146t-52 145.5t-138 54.5t-138.5 -54.5t-52.5 -145.5t52.5 -146t138.5 -55z" glyph-name="eth" horiz-adv-x="1329" unicode="ð"/><glyph d="M504 1327q-41 0 -68 -21.5t-33 -58.5h-155q3 178 83 277.5t218 99.5q68 0 158 -36t133 -36q41 0 67.5 21.5t32.5 58.5h156q-3 -178 -83 -277.5t-218 -99.5q-68 0 -158 36t-133 36zM887 1110q154 0 248 -111t94 -292v-707h-410v627q0 74 -39.5 119t-103.5 45 q-72 0 -116 -52t-44 -137v-602h-410v1090h410v-166h4q52 85 152.5 135.5t214.5 50.5z" glyph-name="ntilde" horiz-adv-x="1327" unicode="ñ"/><glyph d="M860 1212h-303l-289 365h412zM664 -20q-274 0 -441.5 155t-167.5 410t167.5 410t441.5 155t441 -155t167 -410t-167 -410t-441 -155zM664 301q86 0 138 67.5t52 176.5q0 111 -52 178.5t-138 67.5t-138.5 -68t-52.5 -178q0 -109 52.5 -176.5t138.5 -67.5z" glyph-name="ograve" horiz-adv-x="1327" unicode="ò"/><glyph d="M469 1212l180 365h412l-289 -365h-303zM664 -20q-274 0 -441.5 155t-167.5 410t167.5 410t441.5 155t441 -155t167 -410t-167 -410t-441 -155zM664 301q86 0 138 67.5t52 176.5q0 111 -52 178.5t-138 67.5t-138.5 -68t-52.5 -178q0 -109 52.5 -176.5t138.5 -67.5z" glyph-name="oacute" horiz-adv-x="1327" unicode="ó"/><glyph d="M662 1372l-101 -160h-303l221 365h369l221 -365h-303l-100 160h-4zM664 1110q274 0 441 -155t167 -410t-167 -410t-441 -155t-441.5 155t-167.5 410t167.5 410t441.5 155zM664 301q86 0 138 67.5t52 176.5q0 111 -52 178.5t-138 67.5t-138.5 -68t-52.5 -178 q0 -109 52.5 -176.5t138.5 -67.5z" glyph-name="ocircumflex" horiz-adv-x="1327" unicode="ô"/><glyph d="M242 1247q3 178 83 277.5t218 99.5q68 0 158 -36t133 -36q41 0 67.5 21.5t32.5 58.5h156q-3 -178 -83.5 -277.5t-218.5 -99.5q-68 0 -157.5 36t-132.5 36q-41 0 -68 -21.5t-33 -58.5h-155zM664 -20q-274 0 -441.5 155t-167.5 410t167.5 410t441.5 155t441 -155t167 -410 t-167 -410t-441 -155zM664 301q86 0 138 67.5t52 176.5q0 111 -52 178.5t-138 67.5t-138.5 -68t-52.5 -178q0 -109 52.5 -176.5t138.5 -67.5z" glyph-name="otilde" horiz-adv-x="1327" unicode="õ"/><glyph d="M424 1210q-95 0 -153 56t-58 147q0 89 58 144t153 55q94 0 151.5 -55t57.5 -144q0 -91 -57.5 -147t-151.5 -56zM909 1210q-95 0 -153 56t-58 147q0 89 58 144t153 55q94 0 151.5 -55t57.5 -144q0 -91 -57.5 -147t-151.5 -56zM664 -20q-274 0 -441.5 155t-167.5 410 t167.5 410t441.5 155t441 -155t167 -410t-167 -410t-441 -155zM664 301q86 0 138 67.5t52 176.5q0 111 -52 178.5t-138 67.5t-138.5 -68t-52.5 -178q0 -109 52.5 -176.5t138.5 -67.5z" glyph-name="odieresis" horiz-adv-x="1327" unicode="ö"/><glyph d="M518 719q-100 0 -160.5 59t-60.5 154q0 94 60.5 151.5t160.5 57.5q98 0 158.5 -57.5t60.5 -151.5q0 -95 -60.5 -154t-158.5 -59zM57 365v303h922v-303h-922zM518 -109q-100 0 -160.5 59t-60.5 154q0 94 60.5 151.5t160.5 57.5q98 0 158.5 -57.5t60.5 -151.5 q0 -95 -60.5 -154t-158.5 -59z" glyph-name="divide" horiz-adv-x="1036" unicode="÷"/><glyph d="M1040 1006q110 -75 171 -193.5t61 -267.5q0 -255 -167 -410t-441 -155q-157 0 -281 53l-90 -135l-94 59l86 129q-109 73 -169.5 191.5t-60.5 267.5q0 255 167.5 410t441.5 155q151 0 278 -51l90 133l94 -59zM473 545q0 -76 29 -139l246 364q-44 21 -84 21 q-86 0 -138.5 -68t-52.5 -178zM664 301q86 0 138 67.5t52 176.5q0 78 -29 141l-245 -364q44 -21 84 -21z" glyph-name="oslash" horiz-adv-x="1327" unicode="ø"/><glyph d="M842 1212h-303l-289 365h412zM645 -20q-247 0 -399 123.5t-152 324.5v662h410v-621q0 -76 39 -123t102 -47t102 47t39 123v621h410v-662q0 -201 -152 -324.5t-399 -123.5z" glyph-name="ugrave" horiz-adv-x="1290" unicode="ù"/><glyph d="M451 1212l180 365h411l-288 -365h-303zM645 -20q-247 0 -399 123.5t-152 324.5v662h410v-621q0 -76 39 -123t102 -47t102 47t39 123v621h410v-662q0 -201 -152 -324.5t-399 -123.5z" glyph-name="uacute" horiz-adv-x="1290" unicode="ú"/><glyph d="M643 1372l-100 -160h-303l221 365h368l222 -365h-303l-101 160h-4zM786 1090h410v-662q0 -201 -152 -324.5t-399 -123.5t-399 123.5t-152 324.5v662h410v-621q0 -76 39 -123t102 -47t102 47t39 123v621z" glyph-name="ucircumflex" horiz-adv-x="1290" unicode="û"/><glyph d="M406 1210q-95 0 -153 56t-58 147q0 89 58 144t153 55q94 0 151 -55t57 -144q0 -91 -57 -147t-151 -56zM891 1210q-95 0 -153 56t-58 147q0 89 58 144t153 55q94 0 151.5 -55t57.5 -144q0 -91 -57.5 -147t-151.5 -56zM645 -20q-247 0 -399 123.5t-152 324.5v662h410v-621 q0 -76 39 -123t102 -47t102 47t39 123v621h410v-662q0 -201 -152 -324.5t-399 -123.5z" glyph-name="udieresis" horiz-adv-x="1290" unicode="ü"/><glyph d="M1028 1577l-289 -365h-303l180 365h412zM838 1090h413l-551 -1561h-393l125 354l-432 1207h424l207 -719h4z" glyph-name="yacute" horiz-adv-x="1251" unicode="ý"/><glyph d="M870 1110q200 0 322.5 -155t122.5 -410t-123 -410t-324 -155q-114 0 -209.5 50.5t-138.5 133.5h-4v-635h-410v2048h410v-653h4q44 85 140 135.5t210 50.5zM707 299q86 0 138 67.5t52 178.5t-52 178.5t-138 67.5t-138.5 -68t-52.5 -178t52.5 -178t138.5 -68z" glyph-name="thorn" horiz-adv-x="1374" unicode="þ"/><glyph d="M391 1210q-95 0 -153 56t-58 147q0 89 58 144t153 55q94 0 151.5 -55t57.5 -144q0 -91 -57.5 -147t-151.5 -56zM877 1210q-95 0 -153 56t-58 147q0 89 58 144t153 55q94 0 151 -55t57 -144q0 -91 -57 -147t-151 -56zM838 1090h413l-551 -1561h-393l125 354l-432 1207h424 l207 -719h4z" glyph-name="ydieresis" horiz-adv-x="1251" unicode="ÿ"/><glyph d="M1165 1982v-292h-772v292h772zM1130 0l-98 305h-532l-99 -305h-424l570 1577h467l567 -1577h-451zM602 629h328l-162 506h-4z" glyph-name="Amacron" horiz-adv-x="1558" unicode="Ā"/><glyph d="M1085 1577v-293h-772v293h772zM858 1090h410v-1090h-410v164h-4q-43 -83 -139.5 -133.5t-210.5 -50.5q-200 0 -322.5 155t-122.5 410t123 410t324 155q113 0 208.5 -51t139.5 -135h4v166zM668 299q86 0 138 67.5t52 178.5t-52 178.5t-138 67.5t-138.5 -68t-52.5 -178 t52.5 -178t138.5 -68z" glyph-name="amacron" horiz-adv-x="1374" unicode="ā"/><glyph d="M780 1665q-167 0 -271.5 103t-109.5 272h263q3 -65 35 -104.5t83 -39.5q49 0 81.5 39.5t35.5 104.5h264q-5 -169 -109.5 -272t-271.5 -103zM1130 0l-98 305h-532l-99 -305h-424l570 1577h467l567 -1577h-451zM602 629h328l-162 506h-4z" glyph-name="Abreve" horiz-adv-x="1558" unicode="Ă"/><glyph d="M700 1202q-167 0 -271.5 103t-109.5 272h263q3 -65 35 -104t83 -39q50 0 82 39.5t35 103.5h264q-5 -169 -109.5 -272t-271.5 -103zM858 1090h410v-1090h-410v164h-4q-43 -83 -139.5 -133.5t-210.5 -50.5q-200 0 -322.5 155t-122.5 410t123 410t324 155q113 0 208.5 -51 t139.5 -135h4v166zM668 299q86 0 138 67.5t52 178.5t-52 178.5t-138 67.5t-138.5 -68t-52.5 -178t52.5 -178t138.5 -68z" glyph-name="abreve" horiz-adv-x="1374" unicode="ă"/><glyph d="M1403 -213q0 -26 16.5 -42.5t42.5 -16.5q63 0 119 39v-211q-88 -48 -225 -48q-121 0 -195 53.5t-74 139.5q0 64 60.5 144t165.5 155h-183l-98 305h-532l-99 -305h-424l570 1577h467l567 -1577q-80 -56 -129 -114.5t-49 -98.5zM602 629h328l-162 506h-4z" glyph-name="Aogonek" horiz-adv-x="1558" unicode="Ą"/><glyph d="M1268 0q-80 -56 -129 -114.5t-49 -98.5q0 -26 16.5 -42.5t42.5 -16.5q63 0 119 39v-211q-88 -48 -226 -48q-121 0 -194.5 53t-73.5 140q0 64 60 144t165 155h-141v164h-4q-43 -83 -139.5 -133.5t-210.5 -50.5q-200 0 -322.5 155t-122.5 410t123 410t324 155 q113 0 208.5 -51t139.5 -135h4v166h410v-1090zM668 299q86 0 138 67.5t52 178.5t-52 178.5t-138 67.5t-138.5 -68t-52.5 -178t52.5 -178t138.5 -68z" glyph-name="aogonek" horiz-adv-x="1374" unicode="ą"/><glyph d="M690 1675l180 365h412l-289 -365h-303zM885 -20q-244 0 -431 100.5t-289 284t-102 423.5t102 424t289 284.5t431 100.5q324 0 535 -171.5t233 -454.5h-416q-12 132 -108.5 212.5t-243.5 80.5q-170 0 -274.5 -131t-104.5 -345t104.5 -344.5t274.5 -130.5q147 0 243.5 79 t108.5 208h416q-22 -280 -233 -450t-535 -170z" glyph-name="Cacute" horiz-adv-x="1701" unicode="Ć"/><glyph d="M465 1212l180 365h412l-289 -365h-303zM659 -20q-272 0 -438 155t-166 410t166 410t438 155q236 0 395.5 -128t182.5 -337h-399q-9 66 -58 106t-121 40q-84 0 -135 -67.5t-51 -178.5q0 -109 51 -176.5t135 -67.5q71 0 120.5 36.5t58.5 96.5h399q-23 -204 -182.5 -329 t-395.5 -125z" glyph-name="cacute" horiz-adv-x="1284" unicode="ć"/><glyph d="M883 1686q-101 0 -163.5 58.5t-62.5 153.5q0 94 62.5 151.5t163.5 57.5t163 -57.5t62 -151.5q0 -95 -62 -153.5t-163 -58.5zM885 -20q-244 0 -431 100.5t-289 284t-102 423.5t102 424t289 284.5t431 100.5q324 0 535 -171.5t233 -454.5h-416q-12 132 -108.5 212.5 t-243.5 80.5q-170 0 -274.5 -131t-104.5 -345t104.5 -344.5t274.5 -130.5q147 0 243.5 79t108.5 208h416q-22 -280 -233 -450t-535 -170z" glyph-name="Cdotaccent" horiz-adv-x="1701" unicode="Ċ"/><glyph d="M657 1219q-101 0 -163 59t-62 154q0 94 62 151t163 57t163.5 -57t62.5 -151q0 -95 -62.5 -154t-163.5 -59zM659 -20q-272 0 -438 155t-166 410t166 410t438 155q236 0 395.5 -128t182.5 -337h-399q-9 66 -58 106t-121 40q-84 0 -135 -67.5t-51 -178.5q0 -109 51 -176.5 t135 -67.5q71 0 120.5 36.5t58.5 96.5h399q-23 -204 -182.5 -329t-395.5 -125z" glyph-name="cdotaccent" horiz-adv-x="1284" unicode="ċ"/><glyph d="M700 1675l-221 365h303l101 -160h4l100 160h303l-221 -365h-369zM885 313q147 0 243.5 79t108.5 208h416q-22 -280 -233 -450t-535 -170q-244 0 -431 100.5t-289 284t-102 423.5t102 424t289 284.5t431 100.5q324 0 535 -171.5t233 -454.5h-416q-12 132 -108.5 212.5 t-243.5 80.5q-170 0 -274.5 -131t-104.5 -345t104.5 -344.5t274.5 -130.5z" glyph-name="Ccaron" horiz-adv-x="1701" unicode="Č"/><glyph d="M475 1212l-221 365h303l100 -160h5l100 160h303l-221 -365h-369zM659 301q71 0 120.5 36.5t58.5 96.5h399q-23 -204 -182.5 -329t-395.5 -125q-272 0 -438 155t-166 410t166 410t438 155q236 0 395.5 -128t182.5 -337h-399q-9 66 -58 106t-121 40q-84 0 -135 -67.5 t-51 -178.5q0 -109 51 -176.5t135 -67.5z" glyph-name="ccaron" horiz-adv-x="1284" unicode="č"/><glyph d="M545 1675l-221 365h303l100 -160h4l100 160h304l-222 -365h-368zM707 1577q188 0 345 -57t266.5 -159.5t170.5 -250t61 -322.5q0 -234 -104.5 -413t-296.5 -277t-442 -98h-574v1577h574zM727 326q171 0 275 126.5t104 335.5t-104.5 336t-274.5 127h-166v-925h166z" glyph-name="Dcaron" horiz-adv-x="1611" unicode="Ď"/><glyph d="M1438 1597l336 -79l-129 -467l-316 79zM858 924v653h410v-1577h-410v164h-4q-43 -83 -139.5 -133.5t-210.5 -50.5q-200 0 -322.5 155t-122.5 410t123 410t324 155q113 0 208.5 -51t139.5 -135h4zM668 299q86 0 138 67.5t52 178.5t-52 178.5t-138 67.5t-138.5 -68 t-52.5 -178t52.5 -178t138.5 -68z" glyph-name="dcaron" horiz-adv-x="1609" unicode="ď"/><glyph d="M731 1577q250 0 442 -98t297 -277.5t105 -413.5t-105 -413t-297 -277t-442 -98h-573v659h-121v283h121v635h573zM752 326q170 0 274 126.5t104 335.5t-104 336t-274 127h-166v-309h288v-283h-288v-333h166z" glyph-name="Dcroat" horiz-adv-x="1636" unicode="Đ"/><glyph d="M1372 1473v-283h-104v-1190h-410v164h-4q-43 -83 -139.5 -133.5t-210.5 -50.5q-200 0 -322.5 155t-122.5 410t123 410t324 155q113 0 208.5 -51t139.5 -135h4v266h-323v283h323v104h410v-104h104zM668 299q86 0 138 67.5t52 178.5t-52 178.5t-138 67.5t-138.5 -68 t-52.5 -178t52.5 -178t138.5 -68z" glyph-name="dcroat" horiz-adv-x="1374" unicode="đ"/><glyph d="M1126 1982v-292h-772v292h772zM561 326h805v-326h-1233v1577h1208v-326h-780v-284h707v-326h-707v-315z" glyph-name="Emacron" horiz-adv-x="1441" unicode="Ē"/><glyph d="M1040 1577v-293h-772v293h772zM1243 526v-45h-790q14 -100 67.5 -159.5t132.5 -59.5q68 0 121 33.5t70 87.5h395q-34 -182 -195 -292.5t-391 -110.5q-269 0 -433.5 156t-164.5 411q0 253 164.5 408t433.5 155q265 0 427.5 -160.5t162.5 -423.5zM653 842q-70 0 -120 -48 t-72 -132h377q-20 84 -69 132t-116 48z" glyph-name="emacron" horiz-adv-x="1300" unicode="ē"/><glyph d="M737 1686q-101 0 -163 58.5t-62 153.5q0 94 62 151.5t163 57.5t163.5 -57.5t62.5 -151.5q0 -95 -62.5 -153.5t-163.5 -58.5zM561 326h805v-326h-1233v1577h1208v-326h-780v-284h707v-326h-707v-315z" glyph-name="Edotaccent" horiz-adv-x="1441" unicode="Ė"/><glyph d="M651 1219q-101 0 -163 59t-62 154q0 94 62 151t163 57t163.5 -57t62.5 -151q0 -95 -62.5 -154t-163.5 -59zM1243 526v-45h-790q14 -100 67.5 -159.5t132.5 -59.5q68 0 121 33.5t70 87.5h395q-34 -182 -195 -292.5t-391 -110.5q-269 0 -433.5 156t-164.5 411 q0 253 164.5 408t433.5 155q265 0 427.5 -160.5t162.5 -423.5zM653 842q-70 0 -120 -48t-72 -132h377q-20 84 -69 132t-116 48z" glyph-name="edotaccent" horiz-adv-x="1300" unicode="ė"/><glyph d="M561 326h805v-326h-131q-80 -56 -129 -114.5t-49 -98.5q0 -26 16.5 -42.5t42.5 -16.5q63 0 119 39v-211q-88 -48 -225 -48q-121 0 -195 53.5t-74 139.5q0 64 60.5 144t165.5 155h-834v1577h1208v-326h-780v-284h707v-326h-707v-315z" glyph-name="Eogonek" horiz-adv-x="1441" unicode="Ę"/><glyph d="M1243 526v-45h-790q14 -100 67.5 -159.5t132.5 -59.5q68 0 121 33.5t70 87.5h395q-26 -140 -130.5 -240.5t-262.5 -140.5l4 -2q-80 -56 -129 -114.5t-49 -98.5q0 -26 16.5 -42.5t42.5 -16.5q63 0 119 39v-211q-88 -48 -225 -48q-121 0 -195 53.5t-74 139.5q0 61 54.5 136 t150.5 149q-231 26 -368.5 178t-137.5 383q0 253 164.5 408t433.5 155q265 0 427.5 -160.5t162.5 -423.5zM653 842q-70 0 -120 -48t-72 -132h377q-20 84 -69 132t-116 48z" glyph-name="eogonek" horiz-adv-x="1300" unicode="ę"/><glyph d="M555 1675l-221 365h303l100 -160h4l101 160h303l-221 -365h-369zM561 326h805v-326h-1233v1577h1208v-326h-780v-284h707v-326h-707v-315z" glyph-name="Ecaron" horiz-adv-x="1441" unicode="Ě"/><glyph d="M469 1212l-221 365h303l100 -160h4l101 160h303l-221 -365h-369zM1243 526v-45h-790q14 -100 67.5 -159.5t132.5 -59.5q68 0 121 33.5t70 87.5h395q-34 -182 -195 -292.5t-391 -110.5q-269 0 -433.5 156t-164.5 411q0 253 164.5 408t433.5 155q265 0 427.5 -160.5 t162.5 -423.5zM653 842q-70 0 -120 -48t-72 -132h377q-20 84 -69 132t-116 48z" glyph-name="ecaron" horiz-adv-x="1300" unicode="ě"/><glyph d="M891 1665q-167 0 -271.5 103t-109.5 272h262q3 -65 35.5 -104.5t83.5 -39.5q49 0 81.5 39.5t35.5 104.5h264q-5 -169 -109.5 -272t-271.5 -103zM881 852h776v-96q0 -230 -96 -406.5t-271.5 -273t-404.5 -96.5q-244 0 -431 100.5t-289 284t-102 423.5t102 424t289 284.5 t431 100.5q321 0 529.5 -166t230.5 -440h-408q-12 123 -109 198t-243 75q-170 0 -274.5 -131t-104.5 -345t104.5 -344.5t274.5 -130.5q134 0 226 71.5t118 195.5h-348v272z" glyph-name="Gbreve" horiz-adv-x="1724" unicode="Ğ"/><glyph d="M700 1202q-167 0 -271.5 103t-109.5 272h263q3 -65 35 -104t83 -39q50 0 82 39.5t35 103.5h264q-5 -169 -109.5 -272t-271.5 -103zM858 1090h410v-1090q0 -221 -164.5 -356.5t-433.5 -135.5q-229 0 -382 113t-175 299h389q11 -41 56.5 -66.5t111.5 -25.5q85 0 136.5 42.5 t51.5 111.5v182h-4q-43 -83 -139.5 -133.5t-210.5 -50.5q-200 0 -322.5 155t-122.5 410t123 410t324 155q113 0 208.5 -51t139.5 -135h4v166zM668 299q86 0 138 67.5t52 178.5t-52 178.5t-138 67.5t-138.5 -68t-52.5 -178t52.5 -178t138.5 -68z" glyph-name="gbreve" horiz-adv-x="1374" unicode="ğ"/><glyph d="M887 1686q-101 0 -163 58.5t-62 153.5q0 94 62 151.5t163 57.5t163 -57.5t62 -151.5q0 -95 -62 -153.5t-163 -58.5zM881 852h776v-96q0 -230 -96 -406.5t-271.5 -273t-404.5 -96.5q-244 0 -431 100.5t-289 284t-102 423.5t102 424t289 284.5t431 100.5q321 0 529.5 -166 t230.5 -440h-408q-12 123 -109 198t-243 75q-170 0 -274.5 -131t-104.5 -345t104.5 -344.5t274.5 -130.5q134 0 226 71.5t118 195.5h-348v272z" glyph-name="Gdotaccent" horiz-adv-x="1724" unicode="Ġ"/><glyph d="M696 1219q-101 0 -163 59t-62 154q0 94 62 151t163 57t163.5 -57t62.5 -151q0 -95 -62.5 -154t-163.5 -59zM858 1090h410v-1090q0 -221 -164.5 -356.5t-433.5 -135.5q-229 0 -382 113t-175 299h389q11 -41 56.5 -66.5t111.5 -25.5q85 0 136.5 42.5t51.5 111.5v182h-4 q-43 -83 -139.5 -133.5t-210.5 -50.5q-200 0 -322.5 155t-122.5 410t123 410t324 155q113 0 208.5 -51t139.5 -135h4v166zM668 299q86 0 138 67.5t52 178.5t-52 178.5t-138 67.5t-138.5 -68t-52.5 -178t52.5 -178t138.5 -68z" glyph-name="gdotaccent" horiz-adv-x="1374" unicode="ġ"/><glyph d="M881 852h776v-96q0 -230 -96 -406.5t-271.5 -273t-404.5 -96.5q-244 0 -431 100.5t-289 284t-102 423.5t102 424t289 284.5t431 100.5q321 0 529.5 -166t230.5 -440h-408q-12 123 -109 198t-243 75q-170 0 -274.5 -131t-104.5 -345t104.5 -344.5t274.5 -130.5 q134 0 226 71.5t118 195.5h-348v272zM889 -88q88 0 141 -58.5t53 -154.5q0 -138 -88.5 -227t-234.5 -95l-15 68q84 3 144 41.5t80 101.5q-62 -30 -113 -30q-72 0 -117 43.5t-45 115.5q0 88 53.5 141.5t141.5 53.5z" glyph-name="Gcommaaccent" horiz-adv-x="1724" unicode="Ģ"/><glyph d="M698 1221q-88 0 -141 57.5t-53 151.5q0 126 89.5 206t237.5 84l21 -73q-175 0 -225 -129q55 22 102 22q73 0 118.5 -42.5t45.5 -111.5q0 -75 -53.5 -120t-141.5 -45zM858 1090h410v-1090q0 -221 -164.5 -356.5t-433.5 -135.5q-229 0 -382 113t-175 299h389 q11 -41 56.5 -66.5t111.5 -25.5q85 0 136.5 42.5t51.5 111.5v182h-4q-43 -83 -139.5 -133.5t-210.5 -50.5q-200 0 -322.5 155t-122.5 410t123 410t324 155q113 0 208.5 -51t139.5 -135h4v166zM668 299q86 0 138 67.5t52 178.5t-52 178.5t-138 67.5t-138.5 -68t-52.5 -178 t52.5 -178t138.5 -68z" glyph-name="gcommaaccent" horiz-adv-x="1374" unicode="ģ"/><glyph d="M1683 1425v-284h-131v-1141h-428v635h-530v-635h-428v1141h-131v284h131v152h428v-152h530v152h428v-152h131zM1124 961v180h-530v-180h530z" glyph-name="Hbar" horiz-adv-x="1718" unicode="Ħ"/><glyph d="M887 1110q154 0 248 -111t94 -292v-707h-410v627q0 74 -39.5 119t-103.5 45q-72 0 -116 -52t-44 -137v-602h-410v1190h-104v283h104v104h410v-104h324v-283h-324v-266h4q52 85 152.5 135.5t214.5 50.5z" glyph-name="hbar" horiz-adv-x="1327" unicode="ħ"/><glyph d="M-39 1690v292h772v-292h-772zM133 0v1577h428v-1577h-428z" glyph-name="Imacron" horiz-adv-x="694" unicode="Ī"/><glyph d="M-12 1536h649v-293h-649v293zM106 0v1090h410v-1090h-410z" glyph-name="imacron" horiz-adv-x="622" unicode="ī"/><glyph d="M561 0q-80 -56 -129 -114.5t-49 -98.5q0 -26 16.5 -42.5t42.5 -16.5q63 0 119 39v-211q-88 -48 -225 -48q-121 0 -194.5 53t-73.5 140q0 64 60 144t165 155h-160v1577h428v-1577z" glyph-name="Iogonek" horiz-adv-x="694" unicode="Į"/><glyph d="M307 1219q-101 0 -163 59t-62 154q0 94 62 151t163 57t163 -57t62 -151q0 -95 -62 -154t-163 -59zM106 0v1090h410v-1090q-80 -56 -129 -114.5t-49 -98.5q0 -26 16.5 -42.5t42.5 -16.5q63 0 119 39v-211q-88 -48 -225 -48q-121 0 -194.5 53t-73.5 140q0 64 60 144 t165 155h-142z" glyph-name="iogonek" horiz-adv-x="622" unicode="į"/><glyph d="M344 1686q-101 0 -163 58.5t-62 153.5q0 94 62 151.5t163 57.5t163 -57.5t62 -151.5q0 -95 -62 -153.5t-163 -58.5zM133 0v1577h428v-1577h-428z" glyph-name="Idotaccent" horiz-adv-x="694" unicode="İ"/><glyph d="M106 0v1090h410v-1090h-410z" glyph-name="dotlessi" horiz-adv-x="622" unicode="ı"/><glyph d="M133 0v1577h428v-1577h-428zM1055 868l524 -868h-498l-495 821l422 756h473zM784 -88q88 0 141.5 -59t53.5 -154q0 -138 -89 -227t-235 -95l-14 68q84 3 143.5 41.5t79.5 101.5q-62 -30 -112 -30q-72 0 -117 43.5t-45 115.5q0 88 53 141.5t141 53.5z" glyph-name="Kcommaaccent" horiz-adv-x="1531" unicode="Ķ"/><glyph d="M516 1577v-1577h-410v1577h410zM971 600l405 -600h-465l-374 586l317 504h453zM694 -88q88 0 141.5 -59t53.5 -154q0 -138 -89 -227t-235 -95l-14 68q84 3 143.5 41.5t79.5 101.5q-62 -30 -112 -30q-72 0 -117 43.5t-45 115.5q0 88 53 141.5t141 53.5z" glyph-name="kcommaaccent" horiz-adv-x="1339" unicode="ķ"/><glyph d="M743 2040l-288 -365h-303l180 365h411zM561 338h662v-338h-1090v1577h428v-1239z" glyph-name="Lacute" horiz-adv-x="1257" unicode="Ĺ"/><glyph d="M117 1675l180 365h412l-289 -365h-303zM106 0v1577h410v-1577h-410z" glyph-name="lacute" horiz-adv-x="622" unicode="ĺ"/><glyph d="M561 338h662v-338h-1090v1577h428v-1239zM655 -88q88 0 141.5 -59t53.5 -154q0 -138 -89 -227t-235 -95l-14 68q84 3 143.5 41.5t79.5 101.5q-62 -30 -112 -30q-72 0 -117 43.5t-45 115.5q0 88 53 141.5t141 53.5z" glyph-name="Lcommaaccent" horiz-adv-x="1257" unicode="Ļ"/><glyph d="M106 1577h410v-1577h-410v1577zM311 -88q88 0 141.5 -59t53.5 -154q0 -138 -89 -227t-235 -95l-14 68q84 3 143.5 41.5t79.5 101.5q-62 -30 -112 -30q-72 0 -117 43.5t-45 115.5q0 88 53 141.5t141 53.5z" glyph-name="lcommaaccent" horiz-adv-x="622" unicode="ļ"/><glyph d="M1280 1518l-129 -467l-315 79l108 467zM561 1577v-1239h662v-338h-1090v1577h428z" glyph-name="Lcaron" horiz-adv-x="1325" unicode="Ľ"/><glyph d="M893 1051l-315 79l108 467l336 -79zM106 0v1577h410v-1577h-410z" glyph-name="lcaron" horiz-adv-x="858" unicode="ľ"/><glyph d="M604 338h662v-338h-1090v504l-135 -43v315l135 43v758h428v-643l373 135v-313l-373 -135v-283z" glyph-name="Lslash" horiz-adv-x="1300" unicode="Ł"/><glyph d="M686 1069v-303l-108 -51v-715h-410v555l-109 -51v305l109 51v717h410v-559z" glyph-name="lslash" horiz-adv-x="751" unicode="ł"/><glyph d="M1225 2040l-289 -365h-303l180 365h412zM1114 1577h406v-1577h-398l-592 922h-4l13 -922h-406v1577h397l592 -924h4z" glyph-name="Nacute" horiz-adv-x="1652" unicode="Ń"/><glyph d="M1067 1577l-289 -365h-303l180 365h412zM887 1110q154 0 248 -111t94 -292v-707h-410v627q0 74 -39.5 119t-103.5 45q-72 0 -116 -52t-44 -137v-602h-410v1090h410v-166h4q52 85 152.5 135.5t214.5 50.5z" glyph-name="nacute" horiz-adv-x="1327" unicode="ń"/><glyph d="M1114 1577h406v-1577h-398l-592 922h-4l13 -922h-406v1577h397l592 -924h4zM827 -88q88 0 141.5 -59t53.5 -154q0 -138 -89 -227t-235 -95l-14 68q84 3 143.5 41.5t79.5 101.5q-62 -30 -112 -30q-72 0 -117 43.5t-45 115.5q0 88 53 141.5t141 53.5z" glyph-name="Ncommaaccent" horiz-adv-x="1652" unicode="Ņ"/><glyph d="M887 1110q154 0 248 -111t94 -292v-707h-410v627q0 74 -39.5 119t-103.5 45q-72 0 -116 -52t-44 -137v-602h-410v1090h410v-166h4q52 85 152.5 135.5t214.5 50.5zM670 -88q88 0 141 -58.5t53 -154.5q0 -138 -88.5 -227t-234.5 -95l-15 68q84 3 144 41.5t80 101.5 q-62 -30 -113 -30q-72 0 -117 43.5t-45 115.5q0 88 53.5 141.5t141.5 53.5z" glyph-name="ncommaaccent" horiz-adv-x="1327" unicode="ņ"/><glyph d="M643 1675l-221 365h303l100 -160h4l101 160h303l-221 -365h-369zM1114 1577h406v-1577h-398l-592 922h-4l13 -922h-406v1577h397l592 -924h4z" glyph-name="Ncaron" horiz-adv-x="1652" unicode="Ň"/><glyph d="M485 1212l-221 365h303l101 -160h4l100 160h303l-221 -365h-369zM887 1110q154 0 248 -111t94 -292v-707h-410v627q0 74 -39.5 119t-103.5 45q-72 0 -116 -52t-44 -137v-602h-410v1090h410v-166h4q52 85 152.5 135.5t214.5 50.5z" glyph-name="ncaron" horiz-adv-x="1327" unicode="ň"/><glyph d="M1114 1577h406v-1581q0 -220 -142 -354t-374 -134q-150 0 -275 41l82 322q64 -31 147 -31q60 0 97 43.5t37 114.5v47l-562 877h-4l13 -922h-406v1577h397l592 -924h4z" glyph-name="Eng" horiz-adv-x="1652" unicode="Ŋ"/><glyph d="M887 1110q154 0 248 -111t94 -292v-730q0 -211 -126 -340t-331 -129q-91 0 -180.5 22t-145.5 58l84 283q64 -41 134 -41t112.5 42.5t42.5 111.5v643q0 74 -39.5 119t-103.5 45q-72 0 -116 -52t-44 -137v-602h-410v1090h410v-166h4q52 85 152.5 135.5t214.5 50.5z" glyph-name="eng" horiz-adv-x="1327" unicode="ŋ"/><glyph d="M502 1690v292h772v-292h-772zM887 -20q-245 0 -432 100.5t-289.5 284t-102.5 423.5t102.5 424t290 284.5t431.5 100.5q183 0 336.5 -58.5t260.5 -164t166.5 -256t59.5 -330.5q0 -240 -102 -423.5t-289 -284t-432 -100.5zM887 313q172 0 276.5 130.5t104.5 344.5 t-104.5 345t-276.5 131t-276.5 -131t-104.5 -345t104.5 -344.5t276.5 -130.5z" glyph-name="Omacron" horiz-adv-x="1773" unicode="Ō"/><glyph d="M279 1284v293h772v-293h-772zM664 -20q-274 0 -441.5 155t-167.5 410t167.5 410t441.5 155t441 -155t167 -410t-167 -410t-441 -155zM664 301q86 0 138 67.5t52 176.5q0 111 -52 178.5t-138 67.5t-138.5 -68t-52.5 -178q0 -109 52.5 -176.5t138.5 -67.5z" glyph-name="omacron" horiz-adv-x="1327" unicode="ō"/><glyph d="M492 1675l159 365h412l-268 -365h-303zM948 1675l160 365h412l-269 -365h-303zM887 -20q-245 0 -432 100.5t-289.5 284t-102.5 423.5t102.5 424t290 284.5t431.5 100.5q183 0 336.5 -58.5t260.5 -164t166.5 -256t59.5 -330.5q0 -240 -102 -423.5t-289 -284t-432 -100.5z M887 313q172 0 276.5 130.5t104.5 344.5t-104.5 345t-276.5 131t-276.5 -131t-104.5 -345t104.5 -344.5t276.5 -130.5z" glyph-name="Ohungarumlaut" horiz-adv-x="1773" unicode="Ő"/><glyph d="M268 1212l160 365h412l-269 -365h-303zM725 1212l160 365h411l-268 -365h-303zM664 -20q-274 0 -441.5 155t-167.5 410t167.5 410t441.5 155t441 -155t167 -410t-167 -410t-441 -155zM664 301q86 0 138 67.5t52 176.5q0 111 -52 178.5t-138 67.5t-138.5 -68t-52.5 -178 q0 -109 52.5 -176.5t138.5 -67.5z" glyph-name="ohungarumlaut" horiz-adv-x="1327" unicode="ő"/><glyph d="M1681 326h781v-326h-1149v205h-4q-89 -109 -213.5 -167t-274.5 -58q-224 0 -395.5 100.5t-265.5 284t-94 423.5t94 424t265.5 284.5t395.5 100.5q150 0 274.5 -58t213.5 -167h4v205h1126v-326h-758v-284h684v-326h-684v-315zM883 313q167 0 268.5 130.5t101.5 344.5 t-101.5 345t-268.5 131q-169 0 -272 -131t-103 -345t103 -344.5t272 -130.5z" glyph-name="OE" horiz-adv-x="2539" unicode="Œ"/><glyph d="M2001 526v-45h-772q9 -104 59 -161.5t142 -57.5q62 0 111.5 34t62.5 87h393q-31 -181 -178.5 -292t-358.5 -111q-134 0 -241 52t-177 148h-4q-71 -96 -180 -148t-246 -52q-251 0 -404 155t-153 410t153 410t404 155q136 0 245 -52t181 -147h4q70 95 177.5 147t240.5 52 q243 0 392 -161t149 -423zM1421 842q-67 0 -115.5 -48t-68.5 -132h358q-19 84 -64.5 132t-109.5 48zM653 301q81 0 131 67.5t50 176.5q0 110 -49.5 178t-131.5 68q-81 0 -130.5 -67.5t-49.5 -178.5q0 -109 49.5 -176.5t130.5 -67.5z" glyph-name="oe" horiz-adv-x="2058" unicode="œ"/><glyph d="M1083 2040l-288 -365h-303l180 365h411zM1047 0l-283 596h-203v-596h-428v1577h668q293 0 473 -129t180 -340q0 -144 -74.5 -256.5t-208.5 -179.5l351 -672h-475zM561 1251v-350h258q86 0 139.5 48.5t53.5 127.5q0 78 -53.5 126t-139.5 48h-258z" glyph-name="Racute" horiz-adv-x="1550" unicode="Ŕ"/><glyph d="M897 1577l-289 -365h-303l180 365h412zM829 1110q68 0 123 -20v-371q-82 37 -194 37q-109 0 -175.5 -80.5t-66.5 -212.5v-463h-410v1090h410v-222h4q34 109 118.5 175.5t190.5 66.5z" glyph-name="racute" horiz-adv-x="978" unicode="ŕ"/><glyph d="M1171 672l351 -672h-475l-283 596h-203v-596h-428v1577h668q293 0 473 -129t180 -340q0 -144 -74.5 -256.5t-208.5 -179.5zM561 1251v-350h258q86 0 139.5 48.5t53.5 127.5q0 78 -53.5 126t-139.5 48h-258zM750 -88q88 0 141 -58.5t53 -154.5q0 -138 -88.5 -227 t-234.5 -95l-15 68q84 3 143.5 41.5t79.5 101.5q-62 -30 -112 -30q-72 0 -117 43.5t-45 115.5q0 88 53.5 141.5t141.5 53.5z" glyph-name="Rcommaaccent" horiz-adv-x="1550" unicode="Ŗ"/><glyph d="M829 1110q68 0 123 -20v-371q-82 37 -194 37q-109 0 -175.5 -80.5t-66.5 -212.5v-463h-410v1090h410v-222h4q34 109 118.5 175.5t190.5 66.5zM303 -88q88 0 141.5 -59t53.5 -154q0 -138 -89 -227t-235 -95l-14 68q84 3 143.5 41.5t79.5 101.5q-62 -30 -113 -30 q-72 0 -116.5 43.5t-44.5 115.5q0 88 53 141.5t141 53.5z" glyph-name="rcommaaccent" horiz-adv-x="978" unicode="ŗ"/><glyph d="M502 1675l-221 365h303l100 -160h4l100 160h304l-222 -365h-368zM1047 0l-283 596h-203v-596h-428v1577h668q293 0 473 -129t180 -340q0 -144 -74.5 -256.5t-208.5 -179.5l351 -672h-475zM561 1251v-350h258q86 0 139.5 48.5t53.5 127.5q0 78 -53.5 126t-139.5 48h-258z" glyph-name="Rcaron" horiz-adv-x="1550" unicode="Ř"/><glyph d="M315 1212l-221 365h303l101 -160h4l100 160h303l-221 -365h-369zM829 1110q68 0 123 -20v-371q-82 37 -194 37q-109 0 -175.5 -80.5t-66.5 -212.5v-463h-410v1090h410v-222h4q34 109 118.5 175.5t190.5 66.5z" glyph-name="rcaron" horiz-adv-x="978" unicode="ř"/><glyph d="M551 1675l180 365h412l-289 -365h-303zM745 -20q-292 0 -484.5 151.5t-215.5 400.5h422q9 -98 88.5 -158.5t200.5 -60.5q110 0 177.5 43.5t67.5 114.5q0 29 -10.5 52t-36 40t-49 28t-68.5 20.5t-74.5 14.5t-86.5 13q-51 7 -89 13t-89 17.5t-90 24t-83 32t-76.5 43t-64 56 t-51 70.5t-31.5 88t-12 107q0 229 180 368t475 139q267 0 445 -145t201 -383h-422q-3 88 -71 141.5t-177 53.5q-89 0 -143 -38t-54 -100q0 -36 22.5 -61.5t70.5 -42t94.5 -26t122.5 -19.5q67 -9 118 -18.5t117 -27t114.5 -39.5t98.5 -57t82 -78t52 -103.5t20 -133.5 q0 -243 -190 -391.5t-501 -148.5z" glyph-name="Sacute" horiz-adv-x="1495" unicode="Ś"/><glyph d="M389 1212l180 365h412l-289 -365h-303zM584 -20q-232 0 -380 98t-159 258h377q3 -51 47.5 -82t114.5 -31q68 0 108.5 25.5t40.5 68.5q0 25 -16.5 43t-51 30t-69 18.5t-88.5 13.5q-48 7 -85.5 14t-85 20t-83 29.5t-71.5 42t-59 57t-37.5 75.5t-14.5 96q0 160 141 257 t371 97q221 0 362 -94.5t150 -249.5h-377q-3 47 -40 75.5t-95 28.5q-56 0 -89.5 -19.5t-33.5 -53.5q0 -22 16.5 -38.5t50 -28.5t68 -19t86.5 -15q48 -7 85 -14.5t85 -21t83.5 -29.5t72.5 -41.5t60.5 -56.5t38.5 -74t15 -94q0 -173 -147.5 -279t-390.5 -106z" glyph-name="sacute" horiz-adv-x="1175" unicode="ś"/><glyph d="M1436 520q0 -227 -168.5 -373t-448.5 -165l-51 -82l4 -2q27 8 59 8q95 0 153 -48.5t58 -127.5q0 -100 -90 -161t-239 -61q-68 0 -134.5 13t-107.5 35v143q97 -51 188 -51q59 0 95.5 19t36.5 50q0 26 -17.5 42t-46.5 16q-46 0 -74 -35l-108 74l90 172q-248 28 -408 175 t-182 371h422q9 -98 88.5 -158.5t200.5 -60.5q110 0 177.5 43.5t67.5 114.5q0 29 -10.5 52t-36 40t-49 28t-68.5 20.5t-74.5 14.5t-86.5 13q-51 7 -89 13t-89 17.5t-90 24t-83 32t-76.5 43t-64 56t-51 70.5t-31.5 88t-12 107q0 229 180 368t475 139q267 0 445 -145t201 -383 h-422q-3 88 -71 141.5t-177 53.5q-89 0 -143 -38t-54 -100q0 -36 22.5 -61.5t70.5 -42t94.5 -26t122.5 -19.5q67 -9 118 -18.5t117 -27t114.5 -39.5t98.5 -57t82 -78t52 -103.5t20 -133.5z" glyph-name="Scedilla" horiz-adv-x="1495" unicode="Ş"/><glyph d="M1122 365q0 -159 -125.5 -262.5t-337.5 -120.5l-53 -82l4 -2q27 8 60 8q95 0 153 -48.5t58 -127.5q0 -100 -90.5 -161t-239.5 -61q-68 0 -134.5 13t-107.5 35v143q97 -51 189 -51q58 0 94.5 19t36.5 50q0 26 -17.5 42t-46.5 16q-45 0 -73 -35l-109 74l90 172 q-187 23 -303 117t-125 233h377q3 -51 47.5 -82t114.5 -31q68 0 108.5 25.5t40.5 68.5q0 25 -16.5 43t-51 30t-69 18.5t-88.5 13.5q-48 7 -85.5 14t-85 20t-83 29.5t-71.5 42t-59 57t-37.5 75.5t-14.5 96q0 160 141 257t371 97q221 0 362 -94.5t150 -249.5h-377 q-3 47 -40 75.5t-95 28.5q-56 0 -89.5 -19.5t-33.5 -53.5q0 -22 16.5 -38.5t50 -28.5t68 -19t86.5 -15q48 -7 85 -14.5t85 -21t83.5 -29.5t72.5 -41.5t60.5 -56.5t38.5 -74t15 -94z" glyph-name="scedilla" horiz-adv-x="1175" unicode="ş"/><glyph d="M561 1675l-221 365h303l100 -160h5l100 160h303l-221 -365h-369zM834 977q67 -9 118 -18.5t117 -27t114.5 -39.5t98.5 -57t82 -78t52 -103.5t20 -133.5q0 -243 -190 -391.5t-501 -148.5q-292 0 -484.5 151.5t-215.5 400.5h422q9 -98 88.5 -158.5t200.5 -60.5 q110 0 177.5 43.5t67.5 114.5q0 29 -10.5 52t-36 40t-49 28t-68.5 20.5t-74.5 14.5t-86.5 13q-51 7 -89 13t-89 17.5t-90 24t-83 32t-76.5 43t-64 56t-51 70.5t-31.5 88t-12 107q0 229 180 368t475 139q267 0 445 -145t201 -383h-422q-3 88 -71 141.5t-177 53.5 q-89 0 -143 -38t-54 -100q0 -36 22.5 -61.5t70.5 -42t94.5 -26t122.5 -19.5z" glyph-name="Scaron" horiz-adv-x="1495" unicode="Š"/><glyph d="M399 1212l-221 365h303l101 -160h4l100 160h303l-221 -365h-369zM682 696q48 -7 85 -14.5t85 -21t83.5 -29.5t72.5 -41.5t60.5 -56.5t38.5 -74t15 -94q0 -173 -147.5 -279t-390.5 -106q-232 0 -380 98t-159 258h377q3 -51 47.5 -82t114.5 -31q68 0 108.5 25.5t40.5 68.5 q0 25 -16.5 43t-51 30t-69 18.5t-88.5 13.5q-48 7 -85.5 14t-85 20t-83 29.5t-71.5 42t-59 57t-37.5 75.5t-14.5 96q0 160 141 257t371 97q221 0 362 -94.5t150 -249.5h-377q-3 47 -40 75.5t-95 28.5q-56 0 -89.5 -19.5t-33.5 -53.5q0 -22 16.5 -38.5t50 -28.5t68 -19 t86.5 -15z" glyph-name="scaron" horiz-adv-x="1175" unicode="š"/><glyph d="M891 0h-129l-64 -100l4 -2q27 8 60 8q95 0 153 -48.5t58 -127.5q0 -100 -90.5 -161t-239.5 -61q-68 0 -134.5 13t-107.5 35v143q97 -51 189 -51q58 0 94.5 19t36.5 50q0 26 -17.5 42t-46.5 16q-45 0 -73 -35l-109 74l98 186h-110v1251h-432v326h1292v-326h-432v-1251z" glyph-name="uni0162" horiz-adv-x="1353" unicode="Ţ"/><glyph d="M889 807h-291v-416q0 -49 41 -79.5t109 -30.5q82 0 141 32v-278q-56 -25 -131 -40t-142 -15q-48 0 -94 6l-55 -86l4 -2q27 8 59 8q95 0 153 -48.5t58 -127.5q0 -100 -90 -161t-239 -61q-68 0 -134.5 13t-107.5 35v143q97 -51 188 -51q58 0 94.5 19t36.5 50q0 26 -17 42 t-46 16q-46 0 -74 -35l-108 74l118 227q-83 48 -128.5 126.5t-45.5 178.5v461h-157v283h178v309h389v-309h291v-283z" glyph-name="uni0163" horiz-adv-x="935" unicode="ţ"/><glyph d="M489 1675l-221 365h303l101 -160h4l100 160h303l-221 -365h-369zM1323 1577v-326h-432v-1251h-428v1251h-432v326h1292z" glyph-name="Tcaron" horiz-adv-x="1353" unicode="Ť"/><glyph d="M764 1700l336 -80l-129 -467l-316 80zM600 1399v-309h291v-283h-291v-416q0 -49 41 -79.5t109 -30.5q82 0 141 32v-278q-56 -25 -131 -40t-142 -15q-192 0 -310 101t-118 265v461h-157v283h178v309h389z" glyph-name="tcaron" horiz-adv-x="937" unicode="ť"/><glyph d="M1343 1251h-432v-368h287v-283h-287v-600h-428v600h-290v283h290v368h-432v326h1292v-326z" glyph-name="Tbar" horiz-adv-x="1392" unicode="Ŧ"/><glyph d="M905 807h-291v-100h291v-283h-291v-33q0 -49 41 -79.5t109 -30.5q82 0 141 32v-278q-123 -55 -272 -55q-192 0 -310 101t-118 265v78h-158v283h158v100h-158v283h178v309h389v-309h291v-283z" glyph-name="tbar" horiz-adv-x="962" unicode="ŧ"/><glyph d="M414 1690v292h772v-292h-772zM786 -20q-301 0 -485 167t-184 441v989h428v-1008q0 -115 70 -185.5t184 -70.5t184 70.5t70 185.5v1008h405v-989q0 -274 -185 -441t-487 -167z" glyph-name="Umacron" horiz-adv-x="1574" unicode="Ū"/><glyph d="M260 1284v293h772v-293h-772zM645 -20q-247 0 -399 123.5t-152 324.5v662h410v-621q0 -76 39 -123t102 -47t102 47t39 123v621h410v-662q0 -201 -152 -324.5t-399 -123.5z" glyph-name="umacron" horiz-adv-x="1290" unicode="ū"/><glyph d="M799 1663q-135 0 -217 72t-82 190t82 190t217 72t217 -72t82 -190t-82 -190t-217 -72zM799 1833q38 0 61 25.5t23 66.5t-23 66.5t-61 25.5t-61 -25.5t-23 -66.5t23 -66.5t61 -25.5zM786 -20q-301 0 -485 167t-184 441v989h428v-1008q0 -115 70 -185.5t184 -70.5t184 70.5 t70 185.5v1008h405v-989q0 -274 -185 -441t-487 -167z" glyph-name="Uring" horiz-adv-x="1574" unicode="Ů"/><glyph d="M645 1176q-135 0 -217 72t-82 190t82 190t217 72t217 -72t82 -190t-82 -190t-217 -72zM645 1346q38 0 61 25.5t23 66.5t-23 66.5t-61 25.5t-61 -25.5t-23 -66.5t23 -66.5t61 -25.5zM645 -20q-247 0 -399 123.5t-152 324.5v662h410v-621q0 -76 39 -123t102 -47t102 47 t39 123v621h410v-662q0 -201 -152 -324.5t-399 -123.5z" glyph-name="uring" horiz-adv-x="1290" unicode="ů"/><glyph d="M403 1675l160 365h412l-268 -365h-304zM860 1675l160 365h412l-269 -365h-303zM786 -20q-301 0 -485 167t-184 441v989h428v-1008q0 -115 70 -185.5t184 -70.5t184 70.5t70 185.5v1008h405v-989q0 -274 -185 -441t-487 -167z" glyph-name="Uhungarumlaut" horiz-adv-x="1574" unicode="Ű"/><glyph d="M250 1212l160 365h411l-268 -365h-303zM707 1212l159 365h412l-268 -365h-303zM645 -20q-247 0 -399 123.5t-152 324.5v662h410v-621q0 -76 39 -123t102 -47t102 47t39 123v621h410v-662q0 -201 -152 -324.5t-399 -123.5z" glyph-name="uhungarumlaut" horiz-adv-x="1290" unicode="ű"/><glyph d="M1053 1577h405v-989q0 -221 -125 -377t-340 -207l4 -4q-80 -56 -129 -114.5t-49 -98.5q0 -26 17 -42.5t43 -16.5q62 0 118 39v-211q-88 -48 -225 -48q-121 0 -194.5 53t-73.5 140q0 61 53.5 136t147.5 147q-267 23 -427.5 186.5t-160.5 417.5v989h428v-1008 q0 -115 70 -185.5t184 -70.5t184 70.5t70 185.5v1008z" glyph-name="Uogonek" horiz-adv-x="1574" unicode="Ų"/><glyph d="M786 1090h410v-662q0 -159 -97 -271.5t-265 -154.5l2 -2q-80 -56 -129.5 -114.5t-49.5 -98.5q0 -26 17 -42.5t43 -16.5q63 0 119 39v-211q-88 -48 -226 -48q-121 0 -194.5 53t-73.5 140q0 61 54.5 137t150.5 148q-207 25 -330 144t-123 298v662h410v-621q0 -76 39 -123 t102 -47t102 47t39 123v621z" glyph-name="uogonek" horiz-adv-x="1290" unicode="ų"/><glyph d="M1128 1835l-100 -160h-303l221 365h369l221 -365h-303l-100 160h-5zM1806 1577h424l-395 -1577h-508l-209 1032h-4l-209 -1032h-508l-393 1577h451l229 -1114h4l230 1114h425l230 -1114h4z" glyph-name="Wcircumflex" horiz-adv-x="2232" unicode="Ŵ"/><glyph d="M883 1372l-101 -160h-303l221 365h369l221 -365h-303l-100 160h-4zM1352 1090h413l-333 -1090h-418l-129 655h-4l-125 -655h-418l-336 1090h424l135 -658h4l131 658h385l136 -658h4z" glyph-name="wcircumflex" horiz-adv-x="1767" unicode="ŵ"/><glyph d="M797 1835l-101 -160h-303l221 365h369l221 -365h-303l-100 160h-4zM1593 1577l-608 -1049v-528h-428v535l-590 1042h490l338 -666h4l336 666h458z" glyph-name="Ycircumflex" horiz-adv-x="1560" unicode="Ŷ"/><glyph d="M629 1372l-101 -160h-303l221 365h369l221 -365h-303l-100 160h-4zM838 1090h413l-551 -1561h-393l125 354l-432 1207h424l207 -719h4z" glyph-name="ycircumflex" horiz-adv-x="1251" unicode="ŷ"/><glyph d="M559 1657q-95 0 -153 56t-58 147q0 89 58 143.5t153 54.5q94 0 151.5 -54.5t57.5 -143.5q0 -91 -57.5 -147t-151.5 -56zM1044 1657q-95 0 -152.5 56t-57.5 147q0 89 57.5 143.5t152.5 54.5q94 0 151.5 -54.5t57.5 -143.5q0 -91 -57.5 -147t-151.5 -56zM1593 1577 l-608 -1049v-528h-428v535l-590 1042h490l338 -666h4l336 666h458z" glyph-name="Ydieresis" horiz-adv-x="1560" unicode="Ÿ"/><glyph d="M1133 2040l-289 -365h-303l180 365h412zM567 326h803v-326h-1315v342l770 905v4h-716v326h1228v-342l-770 -905v-4z" glyph-name="Zacute" horiz-adv-x="1433" unicode="Ź"/><glyph d="M979 1577l-289 -365h-303l180 365h412zM535 303h546v-303h-1022v317l504 465v4h-471v304h959v-318l-516 -465v-4z" glyph-name="zacute" horiz-adv-x="1140" unicode="ź"/><glyph d="M733 1686q-101 0 -163 58.5t-62 153.5q0 94 62 151.5t163 57.5t163 -57.5t62 -151.5q0 -95 -62 -153.5t-163 -58.5zM567 326h803v-326h-1315v342l770 905v4h-716v326h1228v-342l-770 -905v-4z" glyph-name="Zdotaccent" horiz-adv-x="1433" unicode="Ż"/><glyph d="M580 1219q-101 0 -163.5 59t-62.5 154q0 94 62.5 151t163.5 57t163 -57t62 -151q0 -95 -62 -154t-163 -59zM535 303h546v-303h-1022v317l504 465v4h-471v304h959v-318l-516 -465v-4z" glyph-name="zdotaccent" horiz-adv-x="1140" unicode="ż"/><glyph d="M551 1675l-221 365h303l100 -160h4l101 160h303l-221 -365h-369zM567 326h803v-326h-1315v342l770 905v4h-716v326h1228v-342l-770 -905v-4z" glyph-name="Zcaron" horiz-adv-x="1433" unicode="Ž"/><glyph d="M397 1212l-221 365h303l101 -160h4l100 160h303l-221 -365h-369zM535 303h546v-303h-1022v317l504 465v4h-471v304h959v-318l-516 -465v-4z" glyph-name="zcaron" horiz-adv-x="1140" unicode="ž"/><glyph d="M1270 1276q-72 0 -119 -45t-61 -125l-27 -145h233v-285h-282l-58 -324q-31 -175 -159 -273.5t-324 -98.5q-181 0 -340 81l80 289q65 -47 172 -47q72 0 120.5 45.5t61.5 126.5l35 201h-225v285h274l47 266q31 173 159.5 271.5t324.5 98.5q185 0 340 -79l-80 -287 q-72 45 -172 45z" glyph-name="florin" horiz-adv-x="1548" unicode="ƒ"/><glyph d="M834 977q67 -9 118 -18.5t117 -27t114.5 -39.5t98.5 -57t82 -78t52 -103.5t20 -133.5q0 -243 -190 -391.5t-501 -148.5q-292 0 -484.5 151.5t-215.5 400.5h422q9 -98 88.5 -158.5t200.5 -60.5q110 0 177.5 43.5t67.5 114.5q0 29 -10.5 52t-36 40t-49 28t-68.5 20.5 t-74.5 14.5t-86.5 13q-51 7 -89 13t-89 17.5t-90 24t-83 32t-76.5 43t-64 56t-51 70.5t-31.5 88t-12 107q0 229 180 368t475 139q267 0 445 -145t201 -383h-422q-3 88 -71 141.5t-177 53.5q-89 0 -143 -38t-54 -100q0 -36 22.5 -61.5t70.5 -42t94.5 -26t122.5 -19.5z M745 -88q88 0 141.5 -59t53.5 -154q0 -138 -89 -227t-235 -95l-14 68q84 3 143.5 41.5t79.5 101.5q-62 -30 -112 -30q-72 0 -117 43.5t-45 115.5q0 88 53 141.5t141 53.5z" glyph-name="Scommaaccent" horiz-adv-x="1495" unicode="Ș"/><glyph d="M682 696q48 -7 85 -14.5t85 -21t83.5 -29.5t72.5 -41.5t60.5 -56.5t38.5 -74t15 -94q0 -173 -147.5 -279t-390.5 -106q-232 0 -380 98t-159 258h377q3 -51 47.5 -82t114.5 -31q68 0 108.5 25.5t40.5 68.5q0 25 -16.5 43t-51 30t-69 18.5t-88.5 13.5q-48 7 -85.5 14 t-85 20t-83 29.5t-71.5 42t-59 57t-37.5 75.5t-14.5 96q0 160 141 257t371 97q221 0 362 -94.5t150 -249.5h-377q-3 47 -40 75.5t-95 28.5q-56 0 -89.5 -19.5t-33.5 -53.5q0 -22 16.5 -38.5t50 -28.5t68 -19t86.5 -15zM584 -88q88 0 141 -58.5t53 -154.5q0 -138 -88.5 -227 t-234.5 -95l-15 68q84 3 144 41.5t80 101.5q-62 -30 -113 -30q-72 0 -117 43.5t-45 115.5q0 88 53.5 141.5t141.5 53.5z" glyph-name="scommaaccent" horiz-adv-x="1175" unicode="ș"/><glyph d="M1323 1577v-326h-432v-1251h-428v1251h-432v326h1292zM676 -88q88 0 141 -58.5t53 -154.5q0 -138 -88.5 -227t-234.5 -95l-15 68q84 3 144 41.5t80 101.5q-62 -30 -113 -30q-72 0 -117 43.5t-45 115.5q0 88 53.5 141.5t141.5 53.5z" glyph-name="uni021A" horiz-adv-x="1353" unicode="Ț"/><glyph d="M891 807h-291v-416q0 -49 41 -79.5t109 -30.5q82 0 141 32v-278q-56 -25 -131 -40t-142 -15q-192 0 -310 101t-118 265v461h-157v283h178v309h389v-309h291v-283zM446 -88q88 0 141.5 -59t53.5 -154q0 -138 -89 -227t-235 -95l-14 68q84 3 143.5 41.5t79.5 101.5 q-62 -30 -112 -30q-72 0 -117 43.5t-45 115.5q0 88 53 141.5t141 53.5z" glyph-name="uni021B" horiz-adv-x="937" unicode="ț"/><glyph d="M106 -471v1561h410v-1561h-410z" glyph-name="uni0237" horiz-adv-x="622" unicode="ȷ"/><glyph d="M598 1536l221 -365h-303l-100 160h-4l-101 -160h-303l221 365h369z" glyph-name="circumflex" horiz-adv-x="827" unicode="ˆ"/><glyph d="M516 1536h303l-221 -365h-369l-221 365h303l101 -160h4z" glyph-name="caron" horiz-adv-x="827" unicode="ˇ"/><glyph d="M397 1161q-167 0 -271.5 103t-109.5 272h263q3 -65 35 -104t83 -39q50 0 82 39.5t35 103.5h264q-5 -169 -109.5 -272t-271.5 -103z" glyph-name="breve" horiz-adv-x="792" unicode="˘"/><glyph d="M297 1178q-101 0 -163 59t-62 154q0 94 62 151t163 57t163 -57t62 -151q0 -95 -62 -154t-163 -59z" glyph-name="dotaccent" horiz-adv-x="600" unicode="˙"/><glyph d="M332 1135q-135 0 -217 72t-82 190t82 190t217 72t217 -72t82 -190t-82 -190t-217 -72zM332 1305q38 0 61 25.5t23 66.5t-23 66.5t-61 25.5t-61 -25.5t-23 -66.5t23 -66.5t61 -25.5z" glyph-name="ring" horiz-adv-x="663" unicode="˚"/><glyph d="M301 -492q-121 0 -194.5 53t-73.5 140q0 86 103 194t270 197l120 -92q-80 -56 -129 -114.5t-49 -98.5q0 -26 17 -42.5t43 -16.5q62 0 118 39v-211q-88 -48 -225 -48z" glyph-name="ogonek" horiz-adv-x="565" unicode="˛"/><glyph d="M59 1171q3 178 83 277.5t218 99.5q68 0 158 -35.5t133 -35.5q41 0 68 21t33 58h155q-3 -178 -83 -277t-218 -99q-68 0 -158 35.5t-133 35.5q-41 0 -67.5 -21.5t-32.5 -58.5h-156z" glyph-name="tilde" horiz-adv-x="966" unicode="˜"/><glyph d="M57 1171l160 365h412l-269 -365h-303zM514 1171l160 365h411l-268 -365h-303z" glyph-name="hungarumlaut" horiz-adv-x="1142" unicode="˝"/><glyph d="M-49 1212h-303l-289 365h412z" glyph-name="gravecomb" unicode="̀"/><glyph d="M-553 1212l180 365h412l-289 -365h-303z" glyph-name="acutecomb" unicode="́"/><glyph d="M-229 1577l221 -365h-303l-101 160h-4l-100 -160h-303l221 365h369z" glyph-name="uni0302" unicode="̂"/><glyph d="M-909 1247q3 178 83 277.5t218 99.5q68 0 158 -36t133 -36q41 0 67.5 21.5t32.5 58.5h156q-3 -178 -83 -277.5t-218 -99.5q-68 0 -158 36t-133 36q-41 0 -68 -21.5t-33 -58.5h-155z" glyph-name="tildecomb" unicode="̃"/><glyph d="M-801 1284v293h772v-293h-772z" glyph-name="uni0304" unicode="̄"/><glyph d="M-395 1202q-167 0 -271.5 103t-109.5 272h262q3 -65 35.5 -104t83.5 -39q49 0 81 39t35 104h265q-5 -169 -109.5 -272t-271.5 -103z" glyph-name="uni0306" unicode="̆"/><glyph d="M-303 1178q-101 0 -163 59t-62 154q0 94 62 151t163 57t163 -57t62 -151q0 -95 -62 -154t-163 -59z" glyph-name="uni0307" unicode="̇"/><glyph d="M-799 1210q-95 0 -153 56t-58 147q0 89 58 144t153 55q94 0 151.5 -55t57.5 -144q0 -91 -57.5 -147t-151.5 -56zM-313 1210q-95 0 -153 56t-58 147q0 89 58 144t153 55q94 0 151.5 -55t57.5 -144q0 -91 -57.5 -147t-151.5 -56z" glyph-name="uni0308" unicode="̈"/><glyph d="M-332 1176q-135 0 -217 72t-82 190t82 190t217 72t217 -72t82 -190t-82 -190t-217 -72zM-332 1346q38 0 61 25.5t23 66.5t-23 66.5t-61 25.5t-61 -25.5t-23 -66.5t23 -66.5t61 -25.5z" glyph-name="uni030A" unicode="̊"/><glyph d="M-1085 1212l159 365h412l-268 -365h-303zM-629 1212l160 365h412l-269 -365h-303z" glyph-name="uni030B" unicode="̋"/><glyph d="M-311 1577h303l-221 -365h-369l-221 365h303l100 -160h4z" glyph-name="uni030C" unicode="̌"/><glyph d="M-184 1540q73 0 118.5 -42.5t45.5 -111.5q0 -75 -53.5 -120t-141.5 -45t-141.5 57.5t-53.5 151.5q0 126 90 206t238 84l21 -73q-176 0 -226 -129q55 22 103 22z" glyph-name="uni0312" unicode="̒"/><glyph d="M-143 -88q88 0 141 -58.5t53 -154.5q0 -138 -88.5 -227t-234.5 -95l-15 68q84 3 144 41.5t80 101.5q-62 -30 -113 -30q-72 0 -117 43.5t-45 115.5q0 88 53.5 141.5t141.5 53.5z" glyph-name="uni0326" unicode="̦"/><glyph d="M-270 -94q95 0 153 -48.5t58 -127.5q0 -100 -90.5 -161t-239.5 -61q-68 0 -134.5 13t-107.5 35v143q97 -51 189 -51q58 0 94.5 19t36.5 50q0 26 -17.5 42t-46.5 16q-46 0 -74 -35l-108 74l143 272l144 -86l-64 -100l4 -2q27 8 60 8z" glyph-name="uni0327" unicode="̧"/><glyph d="M-264 -492q-121 0 -194.5 53t-73.5 140q0 86 102.5 194t269.5 197l121 -92q-80 -56 -129 -114.5t-49 -98.5q0 -26 16.5 -42.5t42.5 -16.5q63 0 119 39v-211q-88 -48 -225 -48z" glyph-name="uni0328" unicode="̨"/><glyph d="M-903 610v283h837v-283h-837z" glyph-name="uni0335" unicode="̵"/><glyph d="M-1712 696v285h1649v-285h-1649z" glyph-name="uni0336" unicode="̶"/><glyph d="M-770 -104l-94 59l833 1235l94 -60z" glyph-name="uni0337" unicode="̷"/><glyph d="M-1053 -90l-106 63l1071 1688l106 -64z" glyph-name="uni0338" unicode="̸"/><glyph d="M1014 1577l567 -1577h-1604l570 1577h467zM764 1135l-258 -809h520l-258 809h-4z" glyph-name="uni0394" horiz-adv-x="1558" unicode="Δ"/><glyph d="M1702 915q0 -193 -92.5 -350.5t-259.5 -255.5l311 10v-319h-672v299q121 43 194.5 178.5t73.5 315.5q0 212 -101 341.5t-265 129.5q-169 0 -272 -129.5t-103 -341.5q0 -179 73.5 -314.5t194.5 -179.5v-299h-669v319l315 -10q-169 98 -262.5 255.5t-93.5 350.5 q0 203 102 358t287.5 239.5t427.5 84.5q365 0 588 -187.5t223 -494.5z" glyph-name="uni03A9" horiz-adv-x="1775" unicode="Ω"/><glyph d="M799 1090h409v-1090h-409v164h-4q-40 -67 -115 -115t-164 -63v-457h-410v1561h410v-633q0 -71 36.5 -114.5t96.5 -43.5q67 0 108.5 50t41.5 132v609z" glyph-name="uni03BC" horiz-adv-x="1314" unicode="μ"/><glyph d="M1489 1090v-283h-193v-807h-409v807h-250v-807h-410v807h-192v283h1454z" glyph-name="pi" horiz-adv-x="1523" unicode="π"/><glyph d="M1327 1675h-303l-289 365h412zM1806 1577h424l-395 -1577h-508l-209 1032h-4l-209 -1032h-508l-393 1577h451l229 -1114h4l230 1114h425l230 -1114h4z" glyph-name="Wgrave" horiz-adv-x="2232" unicode="Ẁ"/><glyph d="M1081 1212h-303l-289 365h412zM1352 1090h413l-333 -1090h-418l-129 655h-4l-125 -655h-418l-336 1090h424l135 -658h4l131 658h385l136 -658h4z" glyph-name="wgrave" horiz-adv-x="1767" unicode="ẁ"/><glyph d="M1528 2040l-289 -365h-303l180 365h412zM1806 1577h424l-395 -1577h-508l-209 1032h-4l-209 -1032h-508l-393 1577h451l229 -1114h4l230 1114h425l230 -1114h4z" glyph-name="Wacute" horiz-adv-x="2232" unicode="Ẃ"/><glyph d="M1282 1577l-289 -365h-303l180 365h412zM1352 1090h413l-333 -1090h-418l-129 655h-4l-125 -655h-418l-336 1090h424l135 -658h4l131 658h385l136 -658h4z" glyph-name="wacute" horiz-adv-x="1767" unicode="ẃ"/><glyph d="M891 1657q-95 0 -153 56t-58 147q0 89 58 143.5t153 54.5q94 0 151.5 -54.5t57.5 -143.5q0 -91 -57.5 -147t-151.5 -56zM1376 1657q-95 0 -153 56t-58 147q0 89 58 143.5t153 54.5q94 0 151.5 -54.5t57.5 -143.5q0 -91 -57.5 -147t-151.5 -56zM1806 1577h424l-395 -1577 h-508l-209 1032h-4l-209 -1032h-508l-393 1577h451l229 -1114h4l230 1114h425l230 -1114h4z" glyph-name="Wdieresis" horiz-adv-x="2232" unicode="Ẅ"/><glyph d="M645 1210q-95 0 -153 56t-58 147q0 89 58 144t153 55q94 0 151.5 -55t57.5 -144q0 -91 -57.5 -147t-151.5 -56zM1130 1210q-95 0 -152.5 56t-57.5 147q0 89 57.5 144t152.5 55q94 0 151.5 -55t57.5 -144q0 -91 -57.5 -147t-151.5 -56zM1352 1090h413l-333 -1090h-418 l-129 655h-4l-125 -655h-418l-336 1090h424l135 -658h4l131 658h385l136 -658h4z" glyph-name="wdieresis" horiz-adv-x="1767" unicode="ẅ"/><glyph d="M1333 905q192 -68 302 -197t110 -292q0 -197 -155 -316.5t-410 -119.5q-230 0 -378.5 132t-160.5 347h412q4 -66 40.5 -106t92.5 -40q53 0 85 38.5t32 101.5q0 87 -64.5 151.5t-169.5 83.5l-119 21v276l221 262v4h-610v-1251h-428v1577h1522v-342z" glyph-name="uni1E9E" horiz-adv-x="1804" unicode="ẞ"/><glyph d="M995 1675h-303l-289 365h412zM1593 1577l-608 -1049v-528h-428v535l-590 1042h490l338 -666h4l336 666h458z" glyph-name="Ygrave" horiz-adv-x="1560" unicode="Ỳ"/><glyph d="M827 1212h-303l-288 365h411zM838 1090h413l-551 -1561h-393l125 354l-432 1207h424l207 -719h4z" glyph-name="ygrave" horiz-adv-x="1251" unicode="ỳ"/><glyph d="M102 412v282h1100v-282h-1100z" glyph-name="endash" horiz-adv-x="1304" unicode="–"/><glyph d="M102 412v282h1686v-282h-1686z" glyph-name="emdash" horiz-adv-x="1890" unicode="—"/><glyph d="M350 1278q91 0 147 -62t56 -163q0 -106 -66.5 -171t-173.5 -65q-117 0 -188.5 83t-71.5 218q0 209 138 340t364 139l16 -110q-132 0 -225.5 -64t-126.5 -174q69 29 131 29z" glyph-name="quoteleft" horiz-adv-x="630" unicode="‘"/><glyph d="M336 1597q117 0 188.5 -83t71.5 -218q0 -209 -138 -340t-364 -139l-16 111q132 0 225.5 63.5t126.5 173.5q-67 -28 -131 -28q-91 0 -147 62t-56 163q0 106 66.5 170.5t173.5 64.5z" glyph-name="quoteright" horiz-adv-x="643" unicode="’"/><glyph d="M303 440q117 0 188.5 -83t71.5 -218q0 -209 -138 -340t-364 -139l-16 111q132 0 225.5 63.5t126.5 173.5q-67 -28 -131 -28q-91 0 -147 62t-56 163q0 106 66.5 170.5t173.5 64.5z" glyph-name="quotesinglbase" horiz-adv-x="628" unicode="‚"/><glyph d="M571 1487q-132 0 -225.5 -64t-126.5 -174q69 29 131 29q91 0 147 -62t56 -163q0 -106 -66.5 -171t-173.5 -65q-117 0 -188.5 83t-71.5 218q0 209 138 340t364 139zM895 1278q91 0 147 -62t56 -163q0 -106 -66.5 -171t-173.5 -65q-117 0 -188.5 83t-71.5 218 q0 209 138 340t364 139l16 -110q-132 0 -225.5 -64t-126.5 -174q69 29 131 29z" glyph-name="quotedblleft" horiz-adv-x="1175" unicode="“"/><glyph d="M336 1597q117 0 188.5 -83t71.5 -218q0 -209 -138 -340t-364 -139l-16 111q132 0 225.5 63.5t126.5 173.5q-67 -28 -131 -28q-91 0 -147 62t-56 163q0 106 66.5 170.5t173.5 64.5zM881 1597q117 0 188.5 -83t71.5 -218q0 -209 -138 -340t-364 -139l-16 111 q132 0 225.5 63.5t126.5 173.5q-67 -28 -131 -28q-91 0 -147 62t-56 163q0 106 66.5 170.5t173.5 64.5z" glyph-name="quotedblright" horiz-adv-x="1187" unicode="”"/><glyph d="M303 440q117 0 188.5 -83t71.5 -218q0 -209 -138 -340t-364 -139l-16 111q132 0 225.5 63.5t126.5 173.5q-67 -28 -131 -28q-91 0 -147 62t-56 163q0 106 66.5 170.5t173.5 64.5zM848 440q117 0 188.5 -83t71.5 -218q0 -209 -138 -340t-364 -139l-16 111 q132 0 225.5 63.5t126.5 173.5q-67 -28 -131 -28q-91 0 -147 62t-56 163q0 106 66.5 170.5t173.5 64.5z" glyph-name="quotedblbase" horiz-adv-x="1173" unicode="„"/><glyph d="M711 1337v-172h-230v-565h-192v565h-230v172h230v240h192v-240h230z" glyph-name="dagger" horiz-adv-x="770" unicode="†"/><glyph d="M727 1165h-229v-153h229v-172h-229v-240h-193v240h-229v172h229v153h-229v172h229v240h193v-240h229v-172z" glyph-name="daggerdbl" horiz-adv-x="802" unicode="‡"/><glyph d="M428 311q-141 0 -227 80.5t-86 212.5t86 213.5t227 81.5t228 -81.5t87 -213.5t-87 -212.5t-228 -80.5z" glyph-name="bullet" horiz-adv-x="856" unicode="•"/><glyph d="M303 -20q-108 0 -174 63.5t-66 167.5q0 103 66.5 166t173.5 63t172.5 -63t65.5 -166q0 -104 -65.5 -167.5t-172.5 -63.5zM836 -20q-108 0 -174 63.5t-66 167.5q0 103 66.5 166t173.5 63t172 -63t65 -166q0 -104 -65 -167.5t-172 -63.5zM1366 -20q-108 0 -174 63.5 t-66 167.5q0 103 66.5 166t173.5 63t172.5 -63t65.5 -166q0 -104 -65.5 -167.5t-172.5 -63.5z" glyph-name="ellipsis" horiz-adv-x="1667" unicode="…"/><glyph d="M399 840q-157 0 -252.5 104.5t-95.5 274.5t95.5 274t252.5 104q158 0 254.5 -104t96.5 -274t-96.5 -274.5t-254.5 -104.5zM168 0l1069 1577h293l-1069 -1577h-293zM401 1063q32 0 52 43t20 113t-20 112.5t-52 42.5q-34 0 -53.5 -42t-19.5 -113t19.5 -113.5t53.5 -42.5z M1300 -20q-157 0 -252.5 104t-95.5 274t95.5 274.5t252.5 104.5q158 0 254.5 -104.5t96.5 -274.5t-96.5 -274t-254.5 -104zM2079 -20q-157 0 -252.5 104t-95.5 274t95.5 274.5t252.5 104.5q158 0 254 -104t96 -275q0 -170 -96 -274t-254 -104zM1300 203q32 0 52 42.5 t20 112.5t-20 113t-52 43q-34 0 -53.5 -42.5t-19.5 -113.5t19.5 -113t53.5 -42zM2081 203q32 0 51.5 42.5t19.5 112.5q0 71 -19.5 113.5t-51.5 42.5q-34 0 -54 -42.5t-20 -113.5t20 -113t54 -42z" glyph-name="perthousand" horiz-adv-x="2476" unicode="‰"/><glyph d="M686 180h-399l-238 352l238 353h399l-223 -353z" glyph-name="guilsinglleft" horiz-adv-x="774" unicode="‹"/><glyph d="M88 180l223 352l-223 353h399l238 -353l-238 -352h-399z" glyph-name="guilsinglright" horiz-adv-x="774" unicode="›"/><glyph d="M-475 0l1069 1577h293l-1069 -1577h-293z" glyph-name="fraction" horiz-adv-x="409" unicode="⁄"/><glyph d="M1317 432l176 -274q-105 -80 -246 -129t-268 -49q-301 0 -504 168.5t-256 455.5h-166v109h152q-2 25 -2 75q0 45 2 68h-152v109h164q51 290 255 461t507 171q122 0 254 -33.5t225 -88.5l-170 -299q-52 40 -131.5 64t-157.5 24q-122 0 -209.5 -79.5t-123.5 -217.5h526 l-62 -111h-483q-2 -23 -2 -68q0 -23 4 -73h414l-62 -111h-333q35 -136 122.5 -213.5t208.5 -77.5q78 0 166 32.5t152 86.5z" glyph-name="Euro" horiz-adv-x="1540" unicode="€"/><glyph d="M63 1401v176h537v-176h-151v-414h-234v414h-152zM1083 1577h314v-590h-234l8 311h-2l-84 -311h-165l-72 311h-2l8 -311h-223v590h315l64 -311h2z" glyph-name="trademark" horiz-adv-x="1515" unicode="™"/><glyph d="M254 692v547h-201v176q122 0 189 38.5t100 123.5h190v-885h-278zM1282 1577h293l-1069 -1577h-293zM1784 463q73 -31 113 -82.5t40 -116.5q0 -125 -102.5 -200.5t-271.5 -75.5t-272 76t-103 200q0 65 40 116.5t113 82.5v2q-124 62 -124 174q0 117 95 187.5t251 70.5 t251 -70.5t95 -187.5q0 -111 -125 -174v-2zM1563 682q-26 0 -43 -18.5t-17 -47.5t16.5 -46t43.5 -17t43 17t16 46t-16.5 47.5t-42.5 18.5zM1563 203q38 0 62 23t24 61t-24 61t-62 23q-40 0 -64 -23t-24 -61t24 -61t64 -23z" glyph-name="oneeighth" horiz-adv-x="2000" unicode="⅛"/><glyph d="M786 954q0 -129 -99 -201.5t-277 -72.5q-152 0 -246 77.5t-109 215.5h269q3 -37 26.5 -57.5t63.5 -20.5t62 20.5t22 57.5q0 36 -26 57t-71 21h-18v182h18q34 0 53 20t19 54q0 67 -63 67q-31 0 -50 -20t-22 -56h-262q13 138 103.5 214.5t238.5 76.5q163 0 253.5 -69.5 t90.5 -194.5q0 -120 -135 -178v-2q159 -58 159 -191zM1499 1577h293l-1069 -1577h-293zM2001 463q73 -31 113 -82.5t40 -116.5q0 -125 -102.5 -200.5t-271.5 -75.5t-272 76t-103 200q0 65 40.5 116.5t113.5 82.5v2q-125 63 -125 174q0 117 95 187.5t251 70.5t251 -70.5 t95 -187.5q0 -111 -125 -174v-2zM1780 682q-26 0 -43 -18.5t-17 -47.5t16.5 -46t43.5 -17t43 17t16 46t-16.5 47.5t-42.5 18.5zM1780 203q38 0 62 23t24 61t-24 61t-62 23q-40 0 -64 -23t-24 -61t24 -61t64 -23z" glyph-name="threeeighths" horiz-adv-x="2213" unicode="⅜"/><glyph d="M805 987q0 -145 -101.5 -226t-281.5 -81q-157 0 -253.5 70t-111.5 196h273q15 -51 90 -51q44 0 70 24.5t26 67.5q0 44 -24.5 69t-67.5 25q-64 0 -88 -53h-270l73 549h598v-209h-356l-25 -141l2 -2q70 51 174 51q129 0 201 -76t72 -213zM1505 1577h293l-1069 -1577h-293z M2007 463q73 -31 113.5 -82.5t40.5 -116.5q0 -124 -103 -200t-272 -76t-272 76t-103 200q0 65 40.5 116.5t113.5 82.5v2q-125 63 -125 174q0 117 95 187.5t251 70.5t251 -70.5t95 -187.5q0 -111 -125 -174v-2zM1786 682q-26 0 -43 -18.5t-17 -47.5t16.5 -46t43.5 -17t43 17 t16 46t-16.5 47.5t-42.5 18.5zM1786 203q38 0 62 23t24 61t-24 61t-62 23q-40 0 -64 -23t-24 -61t24 -61t64 -23z" glyph-name="fiveeighths" horiz-adv-x="2217" unicode="⅝"/><glyph d="M205 692q0 182 80.5 360t226.5 314v2h-459v209h690v-219q-119 -127 -185 -303t-66 -363h-287zM1339 1577h293l-1069 -1577h-293zM1841 463q73 -31 113.5 -82.5t40.5 -116.5q0 -124 -103 -200t-272 -76t-272 76t-103 200q0 65 40.5 116.5t113.5 82.5v2q-125 63 -125 174 q0 117 95 187.5t251 70.5t251 -70.5t95 -187.5q0 -111 -125 -174v-2zM1620 682q-26 0 -42.5 -18.5t-16.5 -47.5t16 -46t43 -17t43 17t16 46t-16.5 47.5t-42.5 18.5zM1620 203q38 0 62 23t24 61t-24 61t-62 23q-40 0 -64 -23t-24 -61t24 -61t64 -23z" glyph-name="seveneighths" horiz-adv-x="2058" unicode="⅞"/><glyph d="M709 1536q310 0 500 -212.5t190 -559.5q0 -353 -206 -568.5t-544 -215.5q-270 0 -435 135t-165 356q0 151 107.5 270t305 191.5t458.5 87.5q-35 88 -94.5 136t-135.5 48q-85 0 -168.5 -44t-134.5 -116l-266 207q104 128 266 206.5t322 78.5zM651 311q129 0 213.5 104 t98.5 277q-214 0 -342.5 -62t-128.5 -165q0 -69 43.5 -111.5t115.5 -42.5z" glyph-name="partialdiff" horiz-adv-x="1460" unicode="∂"/><glyph d="M1040 844q101 -138 101 -330q0 -239 -146.5 -385.5t-384.5 -146.5q-207 0 -346 108l-90 -88l-90 88l92 90q-100 140 -100 334q0 238 146.5 384t387.5 146q206 0 342 -108l86 82l90 -88zM233 512q0 -131 54 -225l563 547q-100 84 -242 84q-169 0 -272 -111.5t-103 -294.5z M608 102q167 0 270 113t103 297q0 131 -53 223l-563 -547q99 -86 243 -86z" glyph-name="emptyset" horiz-adv-x="1216" unicode="∅"/><glyph d="M1804 1577v-377h-256v-1671h-409v1671h-422v-1671h-410v1671h-256v377h1753z" glyph-name="product" horiz-adv-x="1855" unicode="∏"/><glyph d="M59 -471v252l469 778l-444 766v252h1374v-324h-895l426 -694l-457 -706h947v-324h-1420z" glyph-name="summation" horiz-adv-x="1542" unicode="∑"/><glyph d="M109 365v303h921v-303h-921z" glyph-name="minus" horiz-adv-x="1138" unicode="−"/><glyph d="M1147 1577h450l-659 -1802h-430l-186 506h-320v323h647l76 -289z" glyph-name="radical" horiz-adv-x="1540" unicode="√"/><glyph d="M1188 930q190 0 306 -114t116 -302t-116 -302t-306 -114q-117 0 -207.5 50.5t-140.5 140.5q-52 -91 -141.5 -141t-206.5 -50q-191 0 -307.5 114.5t-116.5 301.5t116.5 301.5t307.5 114.5q117 0 206.5 -50t141.5 -141q50 90 140.5 140.5t207.5 50.5zM569 420q38 0 61 25.5 t23 68.5t-23 68.5t-61 25.5t-61 -25.5t-23 -68.5t23 -68.5t61 -25.5zM1110 420q38 0 61 25.5t23 68.5t-23 68.5t-61 25.5t-61 -25.5t-23 -68.5t23 -68.5t61 -25.5z" glyph-name="infinity" horiz-adv-x="1677" unicode="∞"/><glyph d="M272 -492q-91 0 -180 22t-145 58l84 283q64 -41 133 -41q70 0 112.5 42.5t42.5 111.5v1124q0 220 126 354.5t331 134.5q92 0 181 -22t145 -57l-84 -283q-64 41 -133 41q-70 0 -113 -42.5t-43 -111.5v-1124q0 -220 -126 -355t-331 -135z" glyph-name="integral" horiz-adv-x="1050" unicode="∫"/><glyph d="M90 526q3 178 94 277.5t248 99.5q114 0 266.5 -36t225.5 -36q41 0 67.5 21.5t32.5 58.5h156q-3 -178 -94 -277t-248 -99q-114 0 -266.5 35.5t-225.5 35.5q-41 0 -67.5 -21.5t-32.5 -58.5h-156zM90 96q3 178 94 277.5t248 99.5q114 0 266.5 -36t225.5 -36q41 0 67.5 21.5 t32.5 58.5h156q-3 -178 -94 -277.5t-248 -99.5q-114 0 -266.5 36t-225.5 36q-41 0 -67.5 -21.5t-32.5 -58.5h-156z" glyph-name="approxequal" horiz-adv-x="1273" unicode="≈"/><glyph d="M1030 580h-381l-37 -127h418v-303h-506l-43 -150h-131l43 150h-284v303h372l37 127h-409v303h497l49 166h131l-49 -166h293v-303z" glyph-name="notequal" horiz-adv-x="1138" unicode="≠"/><glyph d="M1012 1059v-301l-434 -66l434 -63v-303l-922 227v278zM90 0v303h922v-303h-922z" glyph-name="lessequal" horiz-adv-x="1118" unicode="≤"/><glyph d="M106 1059l922 -228v-278l-922 -227v303l435 63l-435 66v301zM106 0v303h922v-303h-922z" glyph-name="greaterequal" horiz-adv-x="1118" unicode="≥"/><glyph d="M567 -82l-522 606l522 606l523 -606zM567 379l121 145l-121 146l-123 -146z" glyph-name="lozenge" horiz-adv-x="1134" unicode="◊"/><glyph d="M156 -20q-15 0 -25 10.5t-10 25.5q0 21 10 31l700 698h-663q-47 0 -47 39q0 16 14 33l696 701h-669q-41 0 -41 38v3q0 38 41 38h758q47 0 47 -41q0 -20 -17 -34l-698 -697h676q17 0 29 -12t12 -29v-669l694 692q13 16 35 16q37 0 37 -45v-663l696 692q13 16 33 16 q15 0 25 -12t10 -27q0 -18 -13 -28l-753 -762q-14 -14 -35 -14q-41 0 -41 47v663l-694 -696q-14 -14 -35 -14q-41 0 -41 47v663l-697 -696q-14 -14 -34 -14z" glyph-name="uniF8FF" horiz-adv-x="2609" unicode=""/><glyph d="M737 1675l181 365h411l-289 -365h-303zM578 -20q-239 0 -390.5 165t-160.5 435h395q6 -120 53 -193.5t117 -73.5q61 0 99 55t38 144v1065h428v-1045q0 -249 -159 -400.5t-420 -151.5z" glyph-name="uni00A40301" horiz-adv-x="1277"/><glyph d="M307 1198q-101 0 -163 59t-62 154q0 94 62 151.5t163 57.5t163 -57.5t62 -151.5q0 -95 -62 -154t-163 -59zM106 0v1090h410v-1090h-410z" glyph-name="i.loclTRK" horiz-adv-x="622"/><glyph d="M113 1212l180 365h412l-289 -365h-303zM106 -471v1561h410v-1561h-410z" glyph-name="uni006A0301" horiz-adv-x="622"/><glyph d="M731 -20q-309 0 -483 213.5t-174 594.5q0 382 174 595.5t483 213.5q310 0 484 -213.5t174 -595.5q0 -381 -174.5 -594.5t-483.5 -213.5zM731 313q101 0 158 125.5t57 349.5t-57 350t-158 126t-158 -126t-57 -350t57 -349.5t158 -125.5z" glyph-name="zero.lf" horiz-adv-x="1462"/><glyph d="M530 1577h293v-1577h-428v1030h-368v273q216 0 331.5 64.5t171.5 209.5z" glyph-name="one.lf" horiz-adv-x="964"/><glyph d="M514 326h793v-326h-1239v342q348 194 541.5 401t193.5 385q0 62 -35.5 99t-93.5 37q-72 0 -121.5 -52.5t-58.5 -138.5h-412q22 236 186 380t412 144q264 0 426 -133.5t162 -351.5q0 -100 -46.5 -201t-122 -185.5t-175 -161.5t-202.5 -134.5t-208 -99.5v-4z" glyph-name="two.lf" horiz-adv-x="1372"/><glyph d="M977 809q146 -50 227.5 -140.5t81.5 -209.5q0 -215 -175 -347t-462 -132q-251 0 -416 142.5t-184 375.5h414q0 -83 53 -134t139 -51q85 0 136 48t51 126t-57 126.5t-150 48.5h-37v284h35q75 0 120.5 45t45.5 117q0 70 -41 113t-109 43q-71 0 -116 -50t-46 -131h-403 q15 232 174 373t404 141q261 0 421 -126t160 -332q0 -108 -69.5 -192t-196.5 -134v-4z" glyph-name="three.lf" horiz-adv-x="1355"/><glyph d="M1397 633v-324h-205v-309h-428v309h-729v342l637 926h520v-944h205zM770 1163l-354 -524v-6h358v530h-4z" glyph-name="four.lf" horiz-adv-x="1456"/><glyph d="M850 1044q214 0 344.5 -142.5t130.5 -375.5q0 -246 -177.5 -396t-467.5 -150q-256 0 -425.5 128t-191.5 338h418q11 -60 65.5 -96.5t133.5 -36.5q91 0 146 59t55 154q0 96 -54 154.5t-143 58.5q-61 0 -113 -36.5t-77 -96.5h-418l129 971h1005v-326h-632l-54 -317l4 -2 q131 112 322 112z" glyph-name="five.lf" horiz-adv-x="1374"/><glyph d="M928 1020q217 0 337.5 -124t120.5 -345q0 -269 -173 -420t-482 -151q-312 0 -484.5 211t-172.5 595q0 383 181.5 597t506.5 214q255 0 410 -120.5t178 -335.5h-414q-12 58 -57.5 90.5t-116.5 32.5q-116 0 -183 -114t-75 -319h4q134 189 420 189zM750 313q91 0 142.5 52.5 t51.5 146.5t-51.5 146.5t-142.5 52.5t-143 -52t-52 -147q0 -93 52.5 -146t142.5 -53z" glyph-name="six.lf" horiz-adv-x="1454"/><glyph d="M1204 1577v-342q-215 -235 -335.5 -561.5t-120.5 -673.5h-443q0 341 143 670t398 577v4h-819v326h1177z" glyph-name="seven.lf" horiz-adv-x="1241"/><glyph d="M1057 823q132 -55 205 -147.5t73 -212.5q0 -218 -174.5 -350.5t-460.5 -132.5q-285 0 -458.5 132.5t-173.5 350.5q0 120 73 213.5t205 146.5v4q-109 52 -168 134t-59 186q0 202 160 326t421 124q263 0 423.5 -124t160.5 -326q0 -103 -59.5 -185.5t-167.5 -134.5v-4z M700 1264q-64 0 -103.5 -41t-39.5 -109q0 -67 39 -108t104 -41t104.5 41t39.5 108t-39.5 108.5t-104.5 41.5zM700 313q86 0 138.5 50.5t52.5 132.5t-52.5 132t-138.5 50t-138 -50t-52 -132t52 -132.5t138 -50.5z" glyph-name="eight.lf" horiz-adv-x="1402"/><glyph d="M709 1597q323 0 500 -211t177 -595q0 -383 -181.5 -597t-506.5 -214q-267 0 -427 131t-183 368h414q12 -77 61.5 -121.5t126.5 -44.5q126 0 195 123t71 346h-4q-129 -180 -420 -180q-217 0 -337.5 118t-120.5 329q0 258 168.5 403t466.5 145zM711 911q91 0 142.5 46 t51.5 130q0 83 -52 130t-142 47q-91 0 -143 -46.5t-52 -130.5t51.5 -130t143.5 -46z" glyph-name="nine.lf" horiz-adv-x="1460"/><glyph d="M680 -20q-279 0 -449 169t-170 447t170 447t449 169q278 0 448 -169t170 -447t-170 -447t-448 -169zM680 301q91 0 146 81.5t55 213.5q0 134 -55 215.5t-146 81.5t-147 -82t-56 -215q0 -132 56 -213.5t147 -81.5z" glyph-name="zero.osf" horiz-adv-x="1359"/><glyph d="M498 1192h274v-1192h-410v668h-327v262q198 0 304.5 62t158.5 200z" glyph-name="one.osf" horiz-adv-x="892"/><glyph d="M471 303h717v-303h-1122v319q322 113 502 240t180 242q0 46 -32.5 74t-84.5 28q-66 0 -108.5 -43.5t-47.5 -114.5h-391q12 211 158.5 339t375.5 128q242 0 388.5 -112.5t146.5 -298.5q0 -182 -180.5 -312.5t-501.5 -181.5v-4z" glyph-name="two.osf" horiz-adv-x="1255"/><glyph d="M907 508q130 -46 202.5 -130.5t72.5 -193.5q0 -193 -162 -311.5t-426 -118.5q-232 0 -385 128t-170 337h389q3 -71 50 -113.5t122 -42.5t120.5 41t45.5 109q0 67 -52.5 108t-138.5 41h-28v283h28q68 0 109 37t41 98q0 55 -36 89t-95 34q-60 0 -99.5 -39.5t-43.5 -105.5 h-379q15 204 162.5 329t371.5 125q242 0 388.5 -111t146.5 -294q0 -97 -61 -173t-173 -122v-4z" glyph-name="three.osf" horiz-adv-x="1239"/><glyph d="M1321 303v-303h-197v-225h-409v225h-674v319l645 877h438v-893h197zM721 717l-299 -410v-4h303v414h-4z" glyph-name="four.osf" horiz-adv-x="1357"/><glyph d="M784 735q201 0 325 -129t124 -340q0 -230 -166 -371t-438 -141q-243 0 -403 121t-179 318h404q9 -53 57.5 -85t118.5 -32q85 0 136.5 52t51.5 138q0 82 -48 131t-128 49q-59 0 -107.5 -29.5t-68.5 -78.5h-408l121 854h961v-303h-596l-47 -248l4 -2q120 96 286 96z" glyph-name="five.osf" horiz-adv-x="1273"/><glyph d="M872 952q192 0 299 -115t107 -319q0 -254 -159.5 -396t-444.5 -142t-443.5 199.5t-158.5 557.5t167 558t466 200q231 0 372 -113.5t166 -316.5h-381q-11 51 -50.5 80t-102.5 29q-107 0 -170.5 -104.5t-69.5 -291.5h4q126 174 399 174zM694 301q82 0 128 46.5t46 129.5 q0 84 -46 131t-128 47t-128 -47t-46 -131q0 -83 46 -129.5t128 -46.5z" glyph-name="six.osf" horiz-adv-x="1347"/><glyph d="M1120 1192v-320q-213 -209 -332.5 -499t-119.5 -598h-422q0 301 141.5 595t394.5 515v4h-757v303h1095z" glyph-name="seven.osf" horiz-adv-x="1153"/><glyph d="M1014 770q123 -50 190.5 -136.5t67.5 -197.5q0 -205 -166 -330.5t-438 -125.5q-270 0 -436 125.5t-166 330.5q0 111 67.5 197.5t190.5 136.5v4q-100 48 -154.5 124t-54.5 171q0 192 152 309t401 117q250 0 402.5 -117t152.5 -309q0 -95 -54.5 -171t-154.5 -124v-4z M668 1174q-63 0 -101.5 -38t-38.5 -100q0 -61 38.5 -98t101.5 -37t101 37t38 98q0 62 -38 100t-101 38zM668 301q83 0 133.5 46.5t50.5 121.5t-50.5 121.5t-133.5 46.5t-134 -46.5t-51 -121.5t51 -121.5t134 -46.5z" glyph-name="eight.osf" horiz-adv-x="1337"/><glyph d="M637 1212q295 0 459 -190t164 -530q0 -349 -168.5 -543.5t-470.5 -194.5q-228 0 -368 108t-165 302h381q14 -41 54 -64.5t98 -23.5q107 0 169 95t70 269h-4q-127 -164 -397 -164q-192 0 -299 112.5t-107 313.5q0 240 154.5 375t429.5 135zM637 573q82 0 128 42t46 118 q0 75 -46 116.5t-128 41.5t-128 -41.5t-46 -116.5q0 -76 46 -118t128 -42z" glyph-name="nine.osf" horiz-adv-x="1323"/><glyph d="M709 -20q-196 0 -345.5 100.5t-231 284t-81.5 423.5t81.5 424t231.5 284.5t345 100.5t345 -100.5t232 -284.5t82 -424t-82 -423.5t-231.5 -284t-345.5 -100.5zM709 313q97 0 156 130.5t59 344.5t-59 345t-156 131t-156 -131t-59 -345t59 -344.5t156 -130.5z" glyph-name="zero.tf" horiz-adv-x="1419"/><glyph d="M963 326h376v-326h-1218v326h414v702h-345v272q206 0 316.5 65t163.5 212h293v-1251z" glyph-name="one.tf" horiz-adv-x="1419"/><glyph d="M539 326h792v-326h-1239v342q348 194 541.5 401t193.5 385q0 62 -35.5 99t-93.5 37q-72 0 -121.5 -52.5t-58.5 -138.5h-412q22 236 186.5 380t412.5 144q264 0 425.5 -133.5t161.5 -351.5q0 -100 -46.5 -201t-121.5 -185.5t-175 -161.5t-202.5 -134.5t-207.5 -99.5v-4z" glyph-name="two.tf" horiz-adv-x="1419"/><glyph d="M1010 809q146 -50 227.5 -140.5t81.5 -209.5q0 -215 -175 -347t-462 -132q-251 0 -416 142.5t-184 375.5h414q0 -83 53 -134t139 -51q84 0 135 48t51 126t-56.5 126.5t-149.5 48.5h-37v284h35q75 0 120 45t45 117q0 71 -41 113.5t-108 42.5q-71 0 -116 -50t-46 -131h-403 q15 232 173.5 373t403.5 141q261 0 421.5 -126.5t160.5 -331.5q0 -108 -69.5 -192t-196.5 -134v-4z" glyph-name="three.tf" horiz-adv-x="1419"/><glyph d="M1378 633v-324h-207v-309h-428v309h-727v342l635 926h520v-944h207zM750 1163l-353 -524v-6h357v530h-4z" glyph-name="four.tf" horiz-adv-x="1419"/><glyph d="M872 1044q214 0 345 -142.5t131 -375.5q0 -246 -178 -396t-468 -150q-255 0 -424.5 128t-191.5 338h418q11 -60 65 -96.5t133 -36.5q91 0 146 59t55 154q0 96 -53.5 154.5t-142.5 58.5q-61 0 -113.5 -36.5t-77.5 -96.5h-418l129 971h1006v-326h-633l-53 -317l4 -2 q131 112 321 112z" glyph-name="five.tf" horiz-adv-x="1419"/><glyph d="M909 1020q217 0 338 -124t121 -345q0 -269 -173 -420t-482 -151q-312 0 -485 211t-173 595q0 383 181.5 597t506.5 214q255 0 410 -120.5t178 -335.5h-413q-12 58 -58 90.5t-117 32.5q-116 0 -183 -114t-75 -319h4q134 189 420 189zM731 313q91 0 143 53t52 146t-52 146 t-143 53t-142.5 -52t-51.5 -147q0 -93 52 -146t142 -53z" glyph-name="six.tf" horiz-adv-x="1419"/><glyph d="M1292 1577v-342q-215 -235 -335.5 -561.5t-120.5 -673.5h-443q0 341 143 670t398 577v4h-819v326h1177z" glyph-name="seven.tf" horiz-adv-x="1419"/><glyph d="M1065 823q132 -55 205 -147.5t73 -212.5q0 -218 -174 -350.5t-460 -132.5q-285 0 -459 132.5t-174 350.5q0 120 73 213.5t205 146.5v4q-109 52 -168 134t-59 186q0 202 160.5 326t421.5 124q262 0 422.5 -123.5t160.5 -326.5q0 -103 -59.5 -185.5t-167.5 -134.5v-4z M709 1264q-65 0 -104.5 -41.5t-39.5 -108.5t39.5 -108t104.5 -41t104 41t39 108q0 68 -39.5 109t-103.5 41zM709 313q86 0 138 50.5t52 132.5t-52 132t-138 50t-138.5 -50t-52.5 -132t52.5 -132.5t138.5 -50.5z" glyph-name="eight.tf" horiz-adv-x="1419"/><glyph d="M688 1597q323 0 500.5 -211t177.5 -595q0 -383 -181.5 -597t-506.5 -214q-267 0 -427 131t-183 368h413q12 -77 62 -121.5t127 -44.5q126 0 195 123t71 346h-4q-129 -180 -420 -180q-217 0 -338 118t-121 329q0 258 168.5 403t466.5 145zM690 911q92 0 143.5 46t51.5 130 q0 83 -52.5 130t-142.5 47q-91 0 -142.5 -46.5t-51.5 -130.5t51.5 -130t142.5 -46z" glyph-name="nine.tf" horiz-adv-x="1419"/><glyph d="M436 -12q-175 0 -282 125t-107 329t107 329.5t282 125.5t282 -125.5t107 -329.5t-107 -329t-282 -125zM436 203q46 0 74.5 66t28.5 173t-28.5 173.5t-74.5 66.5t-74 -66.5t-28 -173.5t28 -173t74 -66z" glyph-name="zero.dnom" horiz-adv-x="872"/><glyph d="M311 885h191v-885h-279v547h-200v176q122 0 188.5 38.5t99.5 123.5z" glyph-name="one.dnom" horiz-adv-x="598"/><glyph d="M336 209h444v-209h-731v219q191 101 299.5 209.5t108.5 196.5q0 27 -14.5 42t-39.5 15q-32 0 -52 -22t-25 -60h-269q13 141 106 219t247 78q164 0 256 -73t92 -203q0 -68 -41 -135.5t-105.5 -120t-135.5 -92t-140 -62.5v-2z" glyph-name="two.dnom" horiz-adv-x="827"/><glyph d="M606 453q160 -58 160 -191q0 -129 -99.5 -201.5t-277.5 -72.5q-152 0 -245.5 77.5t-108.5 215.5h268q3 -37 26.5 -57.5t63.5 -20.5t62 20.5t22 57.5q0 36 -25.5 56.5t-70.5 20.5h-19v183h19q34 0 53 19.5t19 53.5q0 32 -16.5 50t-47.5 18t-50 -20t-22 -56h-262 q13 138 103.5 214.5t238.5 76.5q163 0 253.5 -69.5t90.5 -194.5q0 -120 -135 -178v-2z" glyph-name="three.dnom" horiz-adv-x="813"/><glyph d="M840 369v-209h-119v-160h-279v160h-413v219l354 506h338v-516h119zM449 616l-175 -245v-2h177v247h-2z" glyph-name="four.dnom" horiz-adv-x="880"/><glyph d="M518 584q129 0 201 -76t72 -213q0 -145 -101.5 -226t-281.5 -81q-157 0 -253.5 70t-111.5 196h272q15 -51 91 -51q44 0 70 24.5t26 67.5q0 44 -24.5 69t-67.5 25q-64 0 -88 -53h-271l74 549h598v-209h-356l-25 -141l2 -3q71 52 174 52z" glyph-name="five.dnom" horiz-adv-x="831"/><glyph d="M567 571q124 0 193 -68t69 -190q0 -154 -103.5 -239.5t-289.5 -85.5q-181 0 -284 121t-103 335t107.5 333.5t300.5 119.5q151 0 243 -68.5t107 -191.5h-268q-16 45 -82 45q-58 0 -91 -55.5t-38 -157.5h2q79 102 237 102zM451 203q43 0 66.5 22t23.5 62q0 41 -23.5 63.5 t-66.5 22.5q-42 0 -66.5 -23t-24.5 -65q0 -38 24 -60t67 -22z" glyph-name="six.dnom" horiz-adv-x="874"/><glyph d="M713 885v-219q-119 -127 -185.5 -303t-66.5 -363h-287q0 182 80.5 360t226.5 314v2h-458v209h690z" glyph-name="seven.dnom" horiz-adv-x="735"/><glyph d="M641 463q73 -31 113.5 -82.5t40.5 -116.5q0 -124 -103 -200t-272 -76t-272 76t-103 200q0 65 40.5 116.5t113.5 82.5v2q-125 63 -125 174q0 117 95 187.5t251 70.5t251 -70.5t95 -187.5q0 -111 -125 -174v-2zM420 682q-26 0 -43 -18.5t-17 -47.5t16.5 -46t43.5 -17t43 17 t16 46t-16.5 47.5t-42.5 18.5zM420 203q38 0 62 23t24 61t-24 61t-62 23q-40 0 -64 -23t-24 -61t24 -61t64 -23z" glyph-name="eight.dnom" horiz-adv-x="839"/><glyph d="M428 897q188 0 294.5 -121.5t106.5 -335.5t-107.5 -333t-299.5 -119q-157 0 -252.5 74.5t-112.5 209.5h269q9 -32 34 -50.5t62 -18.5q58 0 91.5 61t35.5 170h-2q-77 -96 -238 -96q-123 0 -191.5 64.5t-68.5 181.5q0 148 99.5 230.5t279.5 82.5zM426 537q43 0 66.5 19.5 t23.5 55.5q0 34 -23.5 52t-66.5 18q-41 0 -65.5 -19t-24.5 -53q0 -35 24 -54t66 -19z" glyph-name="nine.dnom" horiz-adv-x="878"/><glyph d="M436 680q-175 0 -282 125.5t-107 329.5t107 329t282 125t282 -125t107 -329t-107 -329.5t-282 -125.5zM436 895q46 0 74.5 66.5t28.5 173.5t-28.5 173t-74.5 66t-74 -66t-28 -173t28 -173.5t74 -66.5z" glyph-name="zero.numr" horiz-adv-x="872"/><glyph d="M311 1577h191v-885h-279v547h-200v176q122 0 188.5 38.5t99.5 123.5z" glyph-name="one.numr" horiz-adv-x="598"/><glyph d="M336 901h444v-209h-731v219q191 101 299.5 209.5t108.5 196.5q0 27 -14.5 42t-39.5 15q-32 0 -52 -22t-25 -60h-269q13 141 106 219t247 78q164 0 256 -73t92 -203q0 -68 -41 -135.5t-105.5 -120t-135.5 -92t-140 -62.5v-2z" glyph-name="two.numr" horiz-adv-x="827"/><glyph d="M604 1145q160 -58 160 -191q0 -129 -99.5 -201.5t-277.5 -72.5q-152 0 -245.5 77.5t-108.5 215.5h268q3 -37 26.5 -57.5t63.5 -20.5t62 20.5t22 57.5t-26 57.5t-70 20.5h-19v182h19q34 0 53 20t19 54q0 67 -64 67q-31 0 -50 -20t-22 -56h-262q13 138 103.5 214.5 t238.5 76.5q163 0 253.5 -69.5t90.5 -194.5q0 -120 -135 -178v-2z" glyph-name="three.numr" horiz-adv-x="811"/><glyph d="M840 1061v-209h-119v-160h-279v160h-413v219l354 506h338v-516h119zM449 1309l-175 -246v-2h177v248h-2z" glyph-name="four.numr" horiz-adv-x="880"/><glyph d="M516 1276q129 0 200.5 -76t71.5 -213q0 -145 -101 -226t-281 -81q-157 0 -253.5 70t-111.5 196h272q15 -51 90 -51q44 0 70.5 24.5t26.5 67.5q0 44 -24.5 69t-67.5 25q-29 0 -53 -14t-36 -39h-270l74 549h598v-209h-356l-25 -141l2 -2q70 51 174 51z" glyph-name="five.numr" horiz-adv-x="827"/><glyph d="M567 1264q124 0 193 -68t69 -190q0 -154 -103.5 -240t-289.5 -86q-181 0 -284 121.5t-103 335.5t107.5 333t300.5 119q151 0 243 -68.5t107 -191.5h-268q-16 45 -82 45q-58 0 -91 -55.5t-38 -157.5h2q80 103 237 103zM451 895q43 0 66.5 22t23.5 62q0 41 -23.5 63.5 t-66.5 22.5q-42 0 -66.5 -23t-24.5 -65q0 -38 24 -60t67 -22z" glyph-name="six.numr" horiz-adv-x="874"/><glyph d="M713 1577v-219q-119 -127 -185.5 -303t-66.5 -363h-287q0 182 80.5 360t226.5 314v2h-458v209h690z" glyph-name="seven.numr" horiz-adv-x="735"/><glyph d="M641 1155q73 -31 113.5 -82.5t40.5 -116.5q0 -124 -103 -200t-272 -76t-272 76t-103 200q0 65 40.5 116.5t113.5 82.5v2q-125 63 -125 174q0 117 95 187.5t251 70.5t251 -70.5t95 -187.5q0 -111 -125 -174v-2zM420 1374q-26 0 -43 -18t-17 -47t16.5 -46.5t43.5 -17.5 q26 0 42.5 17.5t16.5 46.5t-16.5 47t-42.5 18zM420 895q38 0 62 23t24 61t-24 61t-62 23q-40 0 -64 -23t-24 -61t24 -61t64 -23z" glyph-name="eight.numr" horiz-adv-x="839"/><glyph d="M426 1589q188 0 294.5 -121t106.5 -335t-107.5 -333.5t-299.5 -119.5q-156 0 -252 75t-113 210h269q9 -33 34.5 -51.5t61.5 -18.5q58 0 91.5 61t35.5 170h-2q-77 -96 -238 -96q-123 0 -191.5 64.5t-68.5 181.5q0 148 99.5 230.5t279.5 82.5zM424 1229q43 0 66.5 19.5 t23.5 56.5q0 69 -90 69q-42 0 -66 -19t-24 -52q0 -35 24 -54.5t66 -19.5z" glyph-name="nine.numr" horiz-adv-x="874"/><glyph d="M616 -205l-579 1987h282l584 -1987h-287z" glyph-name="backslash.case" horiz-adv-x="942"/><glyph d="M567 1366q0 -103 -65 -166t-172 -63t-173.5 63t-66.5 166q0 104 66 167.5t174 63.5q107 0 172 -63.5t65 -167.5zM190 989h277l84 -989h-445z" glyph-name="exclamdown.case" horiz-adv-x="659"/><glyph d="M610 1597q108 0 174 -63.5t66 -167.5q0 -103 -66.5 -166t-173.5 -63t-172 63t-65 166q0 104 65 167.5t172 63.5zM770 991v-14q0 -56 -28 -116t-57.5 -97.5t-82.5 -97.5q-47 -52 -71 -82t-46 -75t-22 -85q0 -50 33.5 -80.5t87.5 -30.5q60 0 99.5 41t45.5 107h404 q-19 -217 -175.5 -349t-392.5 -132q-252 0 -405.5 110t-153.5 291q0 49 17 96t38 80.5t63 75t67 62.5t75 61q40 33 57 47t47.5 43t43.5 48t24 45.5t11 51.5h321z" glyph-name="questiondown.case" horiz-adv-x="1126"/><glyph d="M326 -205h-287l584 1987h282z" glyph-name="slash.case" horiz-adv-x="942"/><glyph d="M1681 954h-200l-33 -309h207l-35 -317h-207l-37 -328h-422l35 328h-311l-35 -328h-422l37 328h-201l35 317h203l35 309h-205l35 316h207l34 307h422l-39 -307h312l32 307h422l-34 -307h200zM702 633h324l37 330h-320z" glyph-name="numbersign.lf" horiz-adv-x="1773"/><glyph d="M1436 668h-164l-19 -152h168l-37 -303h-165l-27 -213h-391l22 213h-217l-22 -213h-391l26 213h-164l35 303h164l18 152h-166l35 303h168l27 221h391l-25 -221h216l26 221h391l-26 -221h164zM637 506h231l21 170h-232z" glyph-name="numbersign.osf" horiz-adv-x="1527"/><glyph d="M602 1106q0 -198 -170 -313v-5q170 -115 170 -313v-194q0 -67 41 -108.5t107 -41.5v-332q-258 0 -416 138t-158 364v195q0 59 -34 94t-91 35v331q57 0 91 35t34 94v195q0 226 158 364t416 138v-332q-66 0 -107 -41.5t-41 -108.5v-194z" glyph-name="braceleft.case" horiz-adv-x="829"/><glyph d="M653 1085q0 -59 34 -94t91 -35v-331q-57 0 -91 -35t-34 -94v-195q0 -226 -157.5 -364t-415.5 -138v332q66 0 106.5 41.5t40.5 108.5v194q0 198 170 313v5q-170 115 -170 313v194q0 67 -40.5 108.5t-106.5 41.5v332q258 0 415.5 -138t157.5 -364v-195z" glyph-name="braceright.case" horiz-adv-x="829"/><glyph d="M780 1458h-211v-1339h211v-324h-639v1987h639v-324z" glyph-name="bracketleft.case" horiz-adv-x="849"/><glyph d="M709 1782v-1987h-639v324h211v1339h-211v324h639z" glyph-name="bracketright.case" horiz-adv-x="849"/><glyph d="M342 -205q-127 195 -198.5 457t-71.5 536q0 275 71.5 538t198.5 456h375q-125 -217 -194.5 -479t-69.5 -515q0 -258 69.5 -520t194.5 -473h-375z" glyph-name="parenleft.case" horiz-adv-x="743"/><glyph d="M401 -205h-374q125 211 194.5 473t69.5 520q0 253 -69.5 515t-194.5 479h374q128 -194 199.5 -456.5t71.5 -537.5q0 -273 -71.5 -535.5t-199.5 -457.5z" glyph-name="parenright.case" horiz-adv-x="743"/><glyph d="M109 616v283h1685v-283h-1685z" glyph-name="emdash.case" horiz-adv-x="1902"/><glyph d="M109 616v283h1099v-283h-1099z" glyph-name="endash.case" horiz-adv-x="1316"/><glyph d="M109 616v283h720v-283h-720z" glyph-name="hyphen.case" horiz-adv-x="937"/><glyph d="M109 616v283h720v-283h-720z" glyph-name="uni00AD.case" horiz-adv-x="937"/><glyph d="M690 385h-399l-238 352l238 353h399l-223 -353zM1227 385h-400l-237 352l237 353h400l-223 -353z" glyph-name="guillemotleft.case" horiz-adv-x="1314"/><glyph d="M88 385l223 352l-223 353h399l238 -353l-238 -352h-399zM625 385l223 352l-223 353h399l238 -353l-238 -352h-399z" glyph-name="guillemotright.case" horiz-adv-x="1314"/><glyph d="M690 385h-399l-238 352l238 353h399l-223 -353z" glyph-name="guilsinglleft.case" horiz-adv-x="778"/><glyph d="M88 385l223 352l-223 353h399l238 -353l-238 -352h-399z" glyph-name="guilsinglright.case" horiz-adv-x="778"/><glyph d="M737 352q47 14 78.5 46.5t38.5 78.5h399q-22 -190 -162 -312.5t-354 -139.5v-168h-112v168q-251 15 -402 168t-151 395t151 395t402 168v180h112v-180q214 -17 354 -142.5t162 -320.5h-399q-7 50 -38 86t-79 51v-473zM489 588q0 -92 36.5 -154.5t99.5 -81.5v473 q-63 -19 -99.5 -82t-36.5 -155z" glyph-name="cent.osf" horiz-adv-x="1306"/><glyph d="M1178 414q0 -183 -137 -299.5t-365 -128.5v-172h-113v172q-205 15 -343 130t-163 294h379q10 -44 43.5 -75.5t83.5 -45.5v170h-2q-52 6 -91.5 12.5t-90.5 19.5t-89 29.5t-77.5 43.5t-64 60t-40.5 80.5t-16 104.5q0 168 128.5 276.5t342.5 122.5v168h113v-168 q188 -14 315 -123.5t152 -279.5h-379q-4 34 -27.5 59t-60.5 37v-135q4 -1 13 -2t13 -2q52 -7 91.5 -14.5t91.5 -21.5t91 -30.5t79 -43.5t65.5 -59.5t41.5 -78.5t16 -100zM483 846q0 -39 80 -62v127q-37 -6 -58.5 -23t-21.5 -42zM676 283q52 8 81 29t29 53q0 30 -28 48 t-82 29v-159z" glyph-name="dollar.osf" horiz-adv-x="1239"/><glyph d="M1057 360l157 -241q-83 -61 -195.5 -98t-215.5 -37q-243 0 -407.5 126t-209.5 341h-135v88h123q-2 18 -2 59q0 29 2 43h-123v88h133q40 221 205.5 351t413.5 130q94 0 199.5 -25.5t185.5 -66.5l-150 -260q-38 25 -97 40t-118 15q-84 0 -144.5 -48t-88.5 -134h393l-51 -90 h-361q-2 -14 -2 -43q0 -21 4 -57h310l-52 -90h-237q30 -80 89 -125t140 -45q54 0 117.5 21.5t116.5 57.5z" glyph-name="Euro.osf" horiz-adv-x="1259"/><glyph d="M508 289h588v-289h-1026v303q151 46 196 137h-164v244h113q-82 114 -82 188q0 152 129.5 245t343.5 93q197 0 328.5 -109.5t150.5 -289.5h-370q-6 46 -34.5 74t-68.5 28q-28 0 -44.5 -16.5t-16.5 -44.5q0 -18 10.5 -41t21 -38t34.5 -46.5t32 -42.5h273v-244h-252 q-48 -82 -162 -147v-4z" glyph-name="sterling.osf" horiz-adv-x="1155"/><glyph d="M1354 1192l-453 -770h197v-88h-221v-78h221v-88h-221v-168h-385v168h-205v88h205v78h-205v88h182l-438 770h440l231 -467h5l235 467h412z" glyph-name="yen.osf" horiz-adv-x="1384"/><glyph d="M985 872v-303h-256v-309h-410v309h-256v303h256v310h410v-310h256z" glyph-name="plus.case" horiz-adv-x="1048"/><glyph d="M106 569v303h922v-303h-922z" glyph-name="minus.case" horiz-adv-x="1134"/><glyph d="M1028 952l-215 -215l215 -217l-266 -266l-215 215l-215 -215l-269 266l218 217l-218 215l269 267l215 -215l215 215z" glyph-name="multiply.case" horiz-adv-x="1091"/><glyph d="M522 924q-100 0 -160.5 59t-60.5 154q0 94 60.5 151.5t160.5 57.5q98 0 158.5 -57.5t60.5 -151.5q0 -95 -60.5 -154t-158.5 -59zM61 569v303h922v-303h-922zM522 96q-100 0 -160.5 59t-60.5 154q0 94 60.5 151.5t160.5 57.5q98 0 158.5 -57.5t60.5 -151.5 q0 -95 -60.5 -154t-158.5 -59z" glyph-name="divide.case" horiz-adv-x="1044"/><glyph d="M106 784v303h922v-303h-922zM106 354v303h922v-303h-922z" glyph-name="equal.case" horiz-adv-x="1134"/><glyph d="M1028 784h-381l-37 -127h418v-303h-506l-43 -149h-131l43 149h-285v303h373l37 127h-410v303h498l49 166h131l-49 -166h293v-303z" glyph-name="notequal.case" horiz-adv-x="1134"/><glyph d="M111 1225l921 -365v-276l-921 -363v322l557 180l-557 180v322z" glyph-name="greater.case" horiz-adv-x="1089"/><glyph d="M979 1225v-322l-557 -180l557 -180v-322l-922 363v276z" glyph-name="less.case" horiz-adv-x="1089"/><glyph d="M129 1264l922 -228v-278l-922 -228v304l434 63l-434 66v301zM129 205v303h922v-303h-922z" glyph-name="greaterequal.case" horiz-adv-x="1157"/><glyph d="M1028 1264v-301l-434 -66l434 -63v-304l-922 228v278zM106 205v303h922v-303h-922z" glyph-name="lessequal.case" horiz-adv-x="1157"/><glyph d="M784 1092h256v-304h-256v-170h-409v170h-256v304h256v172h409v-172zM119 205v303h921v-303h-921z" glyph-name="plusminus.case" horiz-adv-x="1159"/><glyph d="M66 1040h921v-614h-409v311h-512v303z" glyph-name="logicalnot.case" horiz-adv-x="1099"/><glyph d="M334 598q-128 0 -206.5 84.5t-78.5 220.5q0 138 78.5 222.5t206.5 84.5q129 0 208 -84.5t79 -222.5q0 -137 -79 -221t-208 -84zM172 0l811 1194h246l-811 -1194h-246zM336 784q25 0 39 32.5t14 86.5q0 55 -14.5 88t-38.5 33q-25 0 -40 -33.5t-15 -87.5t15 -86.5t40 -32.5 zM1071 -16q-128 0 -206.5 84.5t-78.5 222.5t78.5 222.5t206.5 84.5q129 0 208 -84.5t79 -222.5t-79 -222.5t-208 -84.5zM1071 170q25 0 40 33.5t15 87.5t-15 86.5t-40 32.5t-40 -32.5t-15 -86.5t15 -87.5t40 -33.5z" glyph-name="percent.osf" horiz-adv-x="1406"/><glyph d="M334 598q-128 0 -206.5 84.5t-78.5 220.5q0 138 78.5 222.5t206.5 84.5q129 0 208 -84.5t79 -222.5q0 -137 -79 -221t-208 -84zM172 0l811 1194h246l-811 -1194h-246zM336 784q25 0 39 32.5t14 86.5q0 55 -14.5 88t-38.5 33q-25 0 -40 -33.5t-15 -87.5t15 -86.5t40 -32.5 zM1071 -16q-128 0 -206.5 84.5t-78.5 222.5t78.5 222.5t206.5 84.5q129 0 208 -84.5t79 -222.5t-79 -222.5t-208 -84.5zM1706 -16q-128 0 -206.5 84.5t-78.5 222.5t78.5 222.5t206.5 84.5q129 0 208 -84.5t79 -222.5t-79 -222.5t-208 -84.5zM1071 170q25 0 40 33.5t15 87.5 t-15 86.5t-40 32.5t-40 -32.5t-15 -86.5t15 -87.5t40 -33.5zM1706 170q25 0 40 33.5t15 87.5t-15 86.5t-40 32.5t-40 -32.5t-15 -86.5t15 -87.5t40 -33.5z" glyph-name="perthousand.osf" horiz-adv-x="2037"/><glyph d="M-799 1169q-95 0 -153 56t-58 147q0 89 58 144t153 55q94 0 151.5 -55t57.5 -144q0 -91 -57.5 -147t-151.5 -56zM-313 1169q-95 0 -153 56t-58 147q0 89 58 144t153 55q94 0 151.5 -55t57.5 -144q0 -91 -57.5 -147t-151.5 -56z" glyph-name="uni0308.case"/><glyph d="M-303 1157q-101 0 -163 59t-62 154q0 94 62 151.5t163 57.5t163 -57.5t62 -151.5q0 -95 -62 -154t-163 -59z" glyph-name="uni0307.case"/><glyph d="M-49 1188h-303l-289 364h412z" glyph-name="gravecomb.case"/><glyph d="M-553 1188l180 364h412l-289 -364h-303z" glyph-name="acutecomb.case"/><glyph d="M-1085 1188l159 364h412l-268 -364h-303zM-629 1188l160 364h412l-269 -364h-303z" glyph-name="uni030B.case"/><glyph d="M-229 1552l221 -364h-303l-101 160h-4l-100 -160h-303l221 364h369z" glyph-name="uni0302.case"/><glyph d="M-311 1552h303l-221 -364h-369l-221 364h303l100 -159h4z" glyph-name="uni030C.case"/><glyph d="M-395 1178q-167 0 -272 102.5t-109 271.5h262q3 -65 35.5 -104t83.5 -39q49 0 81 39t35 104h265q-4 -169 -109 -271.5t-272 -102.5z" glyph-name="uni0306.case"/><glyph d="M-332 1176q-135 0 -217 72t-82 190t82 190t217 72t217 -72t82 -190t-82 -190t-217 -72zM-332 1346q38 0 61 25.5t23 66.5t-23 66.5t-61 25.5t-61 -25.5t-23 -66.5t23 -66.5t61 -25.5z" glyph-name="uni030A.case"/><glyph d="M-909 1198q3 178 83 277.5t218 99.5q68 0 158 -36t133 -36q41 0 67.5 21.5t32.5 58.5h156q-3 -178 -83 -277.5t-218 -99.5q-68 0 -158 36t-133 36q-41 0 -68 -21.5t-33 -58.5h-155z" glyph-name="tildecomb.case"/><glyph d="M-801 1202v293h772v-293h-772z" glyph-name="uni0304.case"/></font>
</defs>
</svg>
